M48
METRIC,TZ
T1C0.740
T2C0.800
T3C1.000
T4C1.200
%
G90
G05
T1
X138380Y-68060
X138380Y-76000
X139380Y-97000
X139380Y-104940
X140920Y-68060
X140920Y-76000
X141920Y-97000
X141920Y-104940
X143460Y-68060
X143460Y-76000
X144460Y-97000
X144460Y-104940
X146000Y-68060
X146000Y-76000
X147000Y-97000
X147000Y-104940
T2
X105380Y-67000
X106190Y-97000
X109000Y-80000
X109380Y-109000
X113000Y-67000
X113810Y-97000
X116620Y-80000
X117000Y-109000
X139685Y-65000
X139685Y-91000
X147305Y-65000
X147305Y-91000
T3
X105000Y-74460
X105000Y-77000
X105400Y-82700
X105400Y-85240
X105400Y-103700
X105400Y-106240
X105400Y-112700
X105400Y-115240
X119000Y-65920
X119000Y-68460
X119000Y-71000
X119000Y-98000
X119000Y-100540
X119000Y-103080
X121000Y-80000
X121000Y-82540
X121000Y-85080
X122000Y-111000
X122000Y-113540
X122000Y-116080
X155445Y-72400
X157985Y-72400
X160525Y-72400
X167760Y-72400
X170300Y-72400
X175600Y-82760
X175600Y-85300
X175600Y-104945
X175600Y-107485
X175600Y-110025
X175600Y-116460
X175600Y-119000
T4
X127000Y-115000
X129000Y-82000
X167640Y-115000
X169640Y-82000
M30
