%TF.GenerationSoftware,KiCad,Pcbnew,7.0.9-7.0.9~ubuntu22.04.1*%
%TF.CreationDate,2023-12-20T21:39:58+00:00*%
%TF.ProjectId,green_uv_led_pcb,67726565-6e5f-4757-965f-6c65645f7063,rev?*%
%TF.SameCoordinates,Original*%
%TF.FileFunction,Copper,L1,Top*%
%TF.FilePolarity,Positive*%
%FSLAX46Y46*%
G04 Gerber Fmt 4.6, Leading zero omitted, Abs format (unit mm)*
G04 Created by KiCad (PCBNEW 7.0.9-7.0.9~ubuntu22.04.1) date 2023-12-20 21:39:58*
%MOMM*%
%LPD*%
G01*
G04 APERTURE LIST*
%TA.AperFunction,SMDPad,CuDef*%
%ADD10R,1.500000X2.600000*%
%TD*%
%TA.AperFunction,ComponentPad*%
%ADD11R,1.700000X1.700000*%
%TD*%
%TA.AperFunction,ComponentPad*%
%ADD12O,1.700000X1.700000*%
%TD*%
%TA.AperFunction,SMDPad,CuDef*%
%ADD13R,0.500000X3.300000*%
%TD*%
%TA.AperFunction,SMDPad,CuDef*%
%ADD14R,1.300000X3.300000*%
%TD*%
%TA.AperFunction,Conductor*%
%ADD15C,0.500000*%
%TD*%
G04 APERTURE END LIST*
D10*
%TO.P,D10,1,K*%
%TO.N,Net-(D10-K)*%
X141500000Y-107000000D03*
%TO.P,D10,2,A*%
%TO.N,Net-(D10-A)*%
X138500000Y-107000000D03*
%TD*%
D11*
%TO.P,J4,1,Pin_1*%
%TO.N,Net-(D13-A)*%
X100900000Y-113700000D03*
D12*
%TO.P,J4,2,Pin_2*%
%TO.N,Net-(D15-K)*%
X100900000Y-116240000D03*
%TD*%
D13*
%TO.P,D6,1,K*%
%TO.N,Net-(D6-K)*%
X141500000Y-81500000D03*
%TO.P,D6,2,A*%
%TO.N,Net-(D5-K)*%
X138700000Y-81500000D03*
D14*
%TO.P,D6,3*%
%TO.N,N/C*%
X140100000Y-81500000D03*
%TD*%
D11*
%TO.P,J2,1,Pin_1*%
%TO.N,Net-(D5-A)*%
X101900000Y-83200000D03*
D12*
%TO.P,J2,2,Pin_2*%
%TO.N,Net-(D7-K)*%
X101900000Y-85740000D03*
%TD*%
D11*
%TO.P,J3,1,Pin_1*%
%TO.N,Net-(D9-A)*%
X101000000Y-105460000D03*
D12*
%TO.P,J3,2,Pin_2*%
%TO.N,Net-(D11-K)*%
X101000000Y-108000000D03*
%TD*%
D13*
%TO.P,D7,1,K*%
%TO.N,Net-(D7-K)*%
X171400000Y-81500000D03*
%TO.P,D7,2,A*%
%TO.N,Net-(D6-K)*%
X168600000Y-81500000D03*
D14*
%TO.P,D7,3*%
%TO.N,N/C*%
X170000000Y-81500000D03*
%TD*%
D10*
%TO.P,D3,1,K*%
%TO.N,Net-(D3-K)*%
X171500000Y-77000000D03*
%TO.P,D3,2,A*%
%TO.N,Net-(D2-K)*%
X168500000Y-77000000D03*
%TD*%
D13*
%TO.P,D14,1,K*%
%TO.N,Net-(D14-K)*%
X141500000Y-111500000D03*
%TO.P,D14,2,A*%
%TO.N,Net-(D13-K)*%
X138700000Y-111500000D03*
D14*
%TO.P,D14,3*%
%TO.N,N/C*%
X140100000Y-111500000D03*
%TD*%
D10*
%TO.P,D11,1,K*%
%TO.N,Net-(D11-K)*%
X171500000Y-107000000D03*
%TO.P,D11,2,A*%
%TO.N,Net-(D10-K)*%
X168500000Y-107000000D03*
%TD*%
%TO.P,D2,1,K*%
%TO.N,Net-(D2-K)*%
X141500000Y-77000000D03*
%TO.P,D2,2,A*%
%TO.N,Net-(D1-K)*%
X138500000Y-77000000D03*
%TD*%
%TO.P,D9,1,K*%
%TO.N,Net-(D10-A)*%
X111500000Y-107000000D03*
%TO.P,D9,2,A*%
%TO.N,Net-(D9-A)*%
X108500000Y-107000000D03*
%TD*%
D11*
%TO.P,J1,1,Pin_1*%
%TO.N,Net-(D1-A)*%
X101900000Y-75700000D03*
D12*
%TO.P,J1,2,Pin_2*%
%TO.N,Net-(D3-K)*%
X101900000Y-78240000D03*
%TD*%
D10*
%TO.P,D1,1,K*%
%TO.N,Net-(D1-K)*%
X111500000Y-77000000D03*
%TO.P,D1,2,A*%
%TO.N,Net-(D1-A)*%
X108500000Y-77000000D03*
%TD*%
D13*
%TO.P,D5,1,K*%
%TO.N,Net-(D5-K)*%
X111500000Y-81500000D03*
%TO.P,D5,2,A*%
%TO.N,Net-(D5-A)*%
X108700000Y-81500000D03*
D14*
%TO.P,D5,3*%
%TO.N,N/C*%
X110100000Y-81500000D03*
%TD*%
D13*
%TO.P,D13,1,K*%
%TO.N,Net-(D13-K)*%
X111500000Y-111500000D03*
%TO.P,D13,2,A*%
%TO.N,Net-(D13-A)*%
X108700000Y-111500000D03*
D14*
%TO.P,D13,3*%
%TO.N,N/C*%
X110100000Y-111500000D03*
%TD*%
D13*
%TO.P,D15,1,K*%
%TO.N,Net-(D15-K)*%
X171500000Y-111500000D03*
%TO.P,D15,2,A*%
%TO.N,Net-(D14-K)*%
X168700000Y-111500000D03*
D14*
%TO.P,D15,3*%
%TO.N,N/C*%
X170100000Y-111500000D03*
%TD*%
D15*
%TO.N,Net-(D1-K)*%
X111500000Y-77000000D02*
X138500000Y-77000000D01*
%TO.N,Net-(D1-A)*%
X101900000Y-75700000D02*
X107200000Y-75700000D01*
X107200000Y-75700000D02*
X108500000Y-77000000D01*
%TO.N,Net-(D2-K)*%
X141500000Y-77000000D02*
X168500000Y-77000000D01*
%TO.N,Net-(D3-K)*%
X99400000Y-76400000D02*
X101240000Y-78240000D01*
X99400000Y-74700000D02*
X99400000Y-76400000D01*
X171500000Y-77000000D02*
X168000000Y-73500000D01*
X101240000Y-78240000D02*
X101900000Y-78240000D01*
X100600000Y-73500000D02*
X99400000Y-74700000D01*
X168000000Y-73500000D02*
X100600000Y-73500000D01*
%TO.N,Net-(D5-K)*%
X111500000Y-81500000D02*
X138700000Y-81500000D01*
%TO.N,Net-(D5-A)*%
X106500000Y-81400000D02*
X107700000Y-81400000D01*
X104700000Y-83200000D02*
X106500000Y-81400000D01*
X107800000Y-81500000D02*
X108700000Y-81500000D01*
X107700000Y-81400000D02*
X107800000Y-81500000D01*
X101900000Y-83200000D02*
X104700000Y-83200000D01*
%TO.N,Net-(D6-K)*%
X141500000Y-81500000D02*
X168600000Y-81500000D01*
%TO.N,Net-(D7-K)*%
X171400000Y-83200000D02*
X168860000Y-85740000D01*
X171400000Y-81500000D02*
X171400000Y-83200000D01*
X168860000Y-85740000D02*
X101900000Y-85740000D01*
%TO.N,Net-(D10-A)*%
X111500000Y-107000000D02*
X138500000Y-107000000D01*
%TO.N,Net-(D9-A)*%
X106960000Y-105460000D02*
X108500000Y-107000000D01*
X101000000Y-105460000D02*
X106960000Y-105460000D01*
%TO.N,Net-(D10-K)*%
X141500000Y-107000000D02*
X168500000Y-107000000D01*
%TO.N,Net-(D11-K)*%
X171500000Y-107000000D02*
X167400000Y-102900000D01*
X99700000Y-108000000D02*
X101000000Y-108000000D01*
X99500000Y-107700000D02*
X99500000Y-107800000D01*
X98300000Y-104400000D02*
X98300000Y-106500000D01*
X98300000Y-106500000D02*
X99500000Y-107700000D01*
X167400000Y-102900000D02*
X99800000Y-102900000D01*
X99800000Y-102900000D02*
X98300000Y-104400000D01*
X99500000Y-107800000D02*
X99700000Y-108000000D01*
%TO.N,Net-(D13-K)*%
X111500000Y-111500000D02*
X138700000Y-111500000D01*
%TO.N,Net-(D13-A)*%
X106500000Y-113700000D02*
X108700000Y-111500000D01*
X100900000Y-113700000D02*
X106500000Y-113700000D01*
%TO.N,Net-(D14-K)*%
X141500000Y-111500000D02*
X168700000Y-111500000D01*
%TO.N,Net-(D15-K)*%
X168460000Y-116240000D02*
X100900000Y-116240000D01*
X171500000Y-111500000D02*
X171500000Y-113200000D01*
X171500000Y-113200000D02*
X168460000Y-116240000D01*
%TD*%
M02*
