%TF.GenerationSoftware,KiCad,Pcbnew,7.0.9-7.0.9~ubuntu22.04.1*%
%TF.CreationDate,2023-12-20T21:39:59+00:00*%
%TF.ProjectId,green_uv_led_pcb,67726565-6e5f-4757-965f-6c65645f7063,rev?*%
%TF.SameCoordinates,Original*%
%TF.FileFunction,Soldermask,Top*%
%TF.FilePolarity,Negative*%
%FSLAX46Y46*%
G04 Gerber Fmt 4.6, Leading zero omitted, Abs format (unit mm)*
G04 Created by KiCad (PCBNEW 7.0.9-7.0.9~ubuntu22.04.1) date 2023-12-20 21:39:59*
%MOMM*%
%LPD*%
G01*
G04 APERTURE LIST*
%ADD10R,1.500000X2.600000*%
%ADD11R,1.700000X1.700000*%
%ADD12O,1.700000X1.700000*%
%ADD13R,0.500000X3.300000*%
%ADD14R,1.300000X3.300000*%
%ADD15C,3.200000*%
G04 APERTURE END LIST*
D10*
%TO.C,D10*%
X141500000Y-107000000D03*
X138500000Y-107000000D03*
%TD*%
D11*
%TO.C,J4*%
X100900000Y-113700000D03*
D12*
X100900000Y-116240000D03*
%TD*%
D13*
%TO.C,D6*%
X141500000Y-81500000D03*
X138700000Y-81500000D03*
D14*
X140100000Y-81500000D03*
%TD*%
D11*
%TO.C,J2*%
X101900000Y-83200000D03*
D12*
X101900000Y-85740000D03*
%TD*%
D11*
%TO.C,J3*%
X101000000Y-105460000D03*
D12*
X101000000Y-108000000D03*
%TD*%
D13*
%TO.C,D7*%
X171400000Y-81500000D03*
X168600000Y-81500000D03*
D14*
X170000000Y-81500000D03*
%TD*%
D10*
%TO.C,D3*%
X171500000Y-77000000D03*
X168500000Y-77000000D03*
%TD*%
D13*
%TO.C,D14*%
X141500000Y-111500000D03*
X138700000Y-111500000D03*
D14*
X140100000Y-111500000D03*
%TD*%
D15*
%TO.C,H2*%
X180000000Y-68000000D03*
%TD*%
D10*
%TO.C,D11*%
X171500000Y-107000000D03*
X168500000Y-107000000D03*
%TD*%
%TO.C,D2*%
X141500000Y-77000000D03*
X138500000Y-77000000D03*
%TD*%
D15*
%TO.C,H3*%
X100000000Y-98000000D03*
%TD*%
D10*
%TO.C,D9*%
X111500000Y-107000000D03*
X108500000Y-107000000D03*
%TD*%
D15*
%TO.C,H4*%
X180000000Y-98000000D03*
%TD*%
D11*
%TO.C,J1*%
X101900000Y-75700000D03*
D12*
X101900000Y-78240000D03*
%TD*%
D10*
%TO.C,D1*%
X111500000Y-77000000D03*
X108500000Y-77000000D03*
%TD*%
D13*
%TO.C,D5*%
X111500000Y-81500000D03*
X108700000Y-81500000D03*
D14*
X110100000Y-81500000D03*
%TD*%
D13*
%TO.C,D13*%
X111500000Y-111500000D03*
X108700000Y-111500000D03*
D14*
X110100000Y-111500000D03*
%TD*%
D15*
%TO.C,H1*%
X100000000Y-68000000D03*
%TD*%
D13*
%TO.C,D15*%
X171500000Y-111500000D03*
X168700000Y-111500000D03*
D14*
X170100000Y-111500000D03*
%TD*%
M02*
