%TF.GenerationSoftware,KiCad,Pcbnew,7.0.9-7.0.9~ubuntu22.04.1*%
%TF.CreationDate,2023-12-20T21:39:59+00:00*%
%TF.ProjectId,green_uv_led_pcb,67726565-6e5f-4757-965f-6c65645f7063,rev?*%
%TF.SameCoordinates,Original*%
%TF.FileFunction,Other,User*%
%FSLAX46Y46*%
G04 Gerber Fmt 4.6, Leading zero omitted, Abs format (unit mm)*
G04 Created by KiCad (PCBNEW 7.0.9-7.0.9~ubuntu22.04.1) date 2023-12-20 21:39:59*
%MOMM*%
%LPD*%
G01*
G04 APERTURE LIST*
%ADD10C,0.050000*%
G04 APERTURE END LIST*
D10*
%TO.C,D10*%
X142650000Y-108850000D02*
X137500000Y-108850000D01*
X142650000Y-105150000D02*
X142650000Y-108850000D01*
X137500000Y-108850000D02*
X137500000Y-105150000D01*
X137500000Y-105150000D02*
X142650000Y-105150000D01*
%TO.C,J4*%
X90350000Y-111950000D02*
X90350000Y-118050000D01*
X90350000Y-118050000D02*
X102650000Y-118050000D01*
X102650000Y-111950000D02*
X90350000Y-111950000D01*
X102650000Y-118050000D02*
X102650000Y-111950000D01*
%TO.C,D6*%
X142100000Y-83500000D02*
X138100000Y-83500000D01*
X142100000Y-79500000D02*
X142100000Y-83500000D01*
X138100000Y-83500000D02*
X138100000Y-79500000D01*
X138100000Y-79500000D02*
X142100000Y-79500000D01*
%TO.C,J2*%
X91350000Y-81450000D02*
X91350000Y-87550000D01*
X91350000Y-87550000D02*
X103650000Y-87550000D01*
X103650000Y-81450000D02*
X91350000Y-81450000D01*
X103650000Y-87550000D02*
X103650000Y-81450000D01*
%TO.C,J3*%
X90450000Y-103710000D02*
X90450000Y-109810000D01*
X90450000Y-109810000D02*
X102750000Y-109810000D01*
X102750000Y-103710000D02*
X90450000Y-103710000D01*
X102750000Y-109810000D02*
X102750000Y-103710000D01*
%TO.C,D7*%
X172000000Y-83500000D02*
X168000000Y-83500000D01*
X172000000Y-79500000D02*
X172000000Y-83500000D01*
X168000000Y-83500000D02*
X168000000Y-79500000D01*
X168000000Y-79500000D02*
X172000000Y-79500000D01*
%TO.C,D3*%
X172650000Y-78850000D02*
X167500000Y-78850000D01*
X172650000Y-75150000D02*
X172650000Y-78850000D01*
X167500000Y-78850000D02*
X167500000Y-75150000D01*
X167500000Y-75150000D02*
X172650000Y-75150000D01*
%TO.C,D14*%
X142100000Y-113500000D02*
X138100000Y-113500000D01*
X142100000Y-109500000D02*
X142100000Y-113500000D01*
X138100000Y-113500000D02*
X138100000Y-109500000D01*
X138100000Y-109500000D02*
X142100000Y-109500000D01*
%TO.C,H2*%
X183450000Y-68000000D02*
G75*
G03*
X183450000Y-68000000I-3450000J0D01*
G01*
%TO.C,D11*%
X172650000Y-108850000D02*
X167500000Y-108850000D01*
X172650000Y-105150000D02*
X172650000Y-108850000D01*
X167500000Y-108850000D02*
X167500000Y-105150000D01*
X167500000Y-105150000D02*
X172650000Y-105150000D01*
%TO.C,D2*%
X142650000Y-78850000D02*
X137500000Y-78850000D01*
X142650000Y-75150000D02*
X142650000Y-78850000D01*
X137500000Y-78850000D02*
X137500000Y-75150000D01*
X137500000Y-75150000D02*
X142650000Y-75150000D01*
%TO.C,H3*%
X103450000Y-98000000D02*
G75*
G03*
X103450000Y-98000000I-3450000J0D01*
G01*
%TO.C,D9*%
X112650000Y-108850000D02*
X107500000Y-108850000D01*
X112650000Y-105150000D02*
X112650000Y-108850000D01*
X107500000Y-108850000D02*
X107500000Y-105150000D01*
X107500000Y-105150000D02*
X112650000Y-105150000D01*
%TO.C,H4*%
X183450000Y-98000000D02*
G75*
G03*
X183450000Y-98000000I-3450000J0D01*
G01*
%TO.C,J1*%
X91350000Y-73950000D02*
X91350000Y-80050000D01*
X91350000Y-80050000D02*
X103650000Y-80050000D01*
X103650000Y-73950000D02*
X91350000Y-73950000D01*
X103650000Y-80050000D02*
X103650000Y-73950000D01*
%TO.C,D1*%
X112650000Y-78850000D02*
X107500000Y-78850000D01*
X112650000Y-75150000D02*
X112650000Y-78850000D01*
X107500000Y-78850000D02*
X107500000Y-75150000D01*
X107500000Y-75150000D02*
X112650000Y-75150000D01*
%TO.C,D5*%
X112100000Y-83500000D02*
X108100000Y-83500000D01*
X112100000Y-79500000D02*
X112100000Y-83500000D01*
X108100000Y-83500000D02*
X108100000Y-79500000D01*
X108100000Y-79500000D02*
X112100000Y-79500000D01*
%TO.C,D13*%
X112100000Y-113500000D02*
X108100000Y-113500000D01*
X112100000Y-109500000D02*
X112100000Y-113500000D01*
X108100000Y-113500000D02*
X108100000Y-109500000D01*
X108100000Y-109500000D02*
X112100000Y-109500000D01*
%TO.C,H1*%
X103450000Y-68000000D02*
G75*
G03*
X103450000Y-68000000I-3450000J0D01*
G01*
%TO.C,D15*%
X172100000Y-113500000D02*
X168100000Y-113500000D01*
X172100000Y-109500000D02*
X172100000Y-113500000D01*
X168100000Y-113500000D02*
X168100000Y-109500000D01*
X168100000Y-109500000D02*
X172100000Y-109500000D01*
%TD*%
M02*
