%TF.GenerationSoftware,KiCad,Pcbnew,7.0.6*%
%TF.CreationDate,2023-11-20T17:26:12+00:00*%
%TF.ProjectId,green_led_pcb,67726565-6e5f-46c6-9564-5f7063622e6b,rev?*%
%TF.SameCoordinates,Original*%
%TF.FileFunction,Soldermask,Top*%
%TF.FilePolarity,Negative*%
%FSLAX46Y46*%
G04 Gerber Fmt 4.6, Leading zero omitted, Abs format (unit mm)*
G04 Created by KiCad (PCBNEW 7.0.6) date 2023-11-20 17:26:12*
%MOMM*%
%LPD*%
G01*
G04 APERTURE LIST*
%ADD10R,1.700000X1.700000*%
%ADD11O,1.700000X1.700000*%
%ADD12R,1.500000X2.600000*%
G04 APERTURE END LIST*
D10*
%TO.C,J4*%
X-86600000Y-66700000D03*
D11*
X-86600000Y-69240000D03*
%TD*%
%TO.C,J3*%
X-86600000Y-49240000D03*
D10*
X-86600000Y-46700000D03*
%TD*%
%TO.C,J2*%
X-86600000Y-26700000D03*
D11*
X-86600000Y-29240000D03*
%TD*%
D12*
%TO.C,D16*%
X-18500000Y-67000000D03*
X-21500000Y-67000000D03*
%TD*%
%TO.C,D15*%
X-38500000Y-67000000D03*
X-41500000Y-67000000D03*
%TD*%
%TO.C,D14*%
X-61500000Y-67000000D03*
X-58500000Y-67000000D03*
%TD*%
%TO.C,D13*%
X-78500000Y-67000000D03*
X-81500000Y-67000000D03*
%TD*%
%TO.C,D12*%
X-18500000Y-47000000D03*
X-21500000Y-47000000D03*
%TD*%
%TO.C,D11*%
X-38500000Y-47000000D03*
X-41500000Y-47000000D03*
%TD*%
%TO.C,D10*%
X-58500000Y-47000000D03*
X-61500000Y-47000000D03*
%TD*%
%TO.C,D9*%
X-78500000Y-47000000D03*
X-81500000Y-47000000D03*
%TD*%
%TO.C,D8*%
X-21500000Y-27000000D03*
X-18500000Y-27000000D03*
%TD*%
%TO.C,D7*%
X-41500000Y-27000000D03*
X-38500000Y-27000000D03*
%TD*%
%TO.C,D6*%
X-61500000Y-27000000D03*
X-58500000Y-27000000D03*
%TD*%
%TO.C,D5*%
X-78500000Y-27000000D03*
X-81500000Y-27000000D03*
%TD*%
D11*
%TO.C,J1*%
X-86600000Y-9240000D03*
D10*
X-86600000Y-6700000D03*
%TD*%
D12*
%TO.C,D4*%
X-18500000Y-7000000D03*
X-21500000Y-7000000D03*
%TD*%
%TO.C,D3*%
X-38500000Y-7000000D03*
X-41500000Y-7000000D03*
%TD*%
%TO.C,D2*%
X-58500000Y-7000000D03*
X-61500000Y-7000000D03*
%TD*%
%TO.C,D1*%
X-78500000Y-7000000D03*
X-81500000Y-7000000D03*
%TD*%
M02*
