<?xml version="1.0"?>
<!DOCTYPE svg PUBLIC "-//W3C//DTD SVG 1.1//EN" "http://www.w3.org/Graphics/SVG/1.1/DTD/svg11.dtd">
<svg width="214.2mm" height="54.19999999999999mm" viewBox="0 0 214.2 54.19999999999999" xmlns="http://www.w3.org/2000/svg" version="1.1">
<g id="Cut018" transform="translate(2.100000,-139.900000) scale(1,-1)">
<path id="Cut018_f0000"  d="M 0.0 -168.375 L 0.0 -157.0 L 0.0 -157.0 L 0.0 -168.375 L 0.0 -168.375 Z " stroke="#191919" stroke-width="0.35 px" style="stroke-width:0.35;stroke-miterlimit:4;stroke-dasharray:none;stroke-linecap:square;fill:#cccccc;fill-opacity:1.0;fill-rule: evenodd"/>
<path id="Cut018_f0001"  d="M 0.0 -142.0 L 0.0 -157.0 L 0.0 -157.0 L 0.0 -142.0 L 0.0 -142.0 Z " stroke="#191919" stroke-width="0.35 px" style="stroke-width:0.35;stroke-miterlimit:4;stroke-dasharray:none;stroke-linecap:square;fill:#cccccc;fill-opacity:1.0;fill-rule: evenodd"/>
<path id="Cut018_f0002"  d="M 4.0 -168.375 L 0.0 -168.375 L 0.0 -168.375 L 4.0 -168.375 L 4.0 -168.375 Z " stroke="#191919" stroke-width="0.35 px" style="stroke-width:0.35;stroke-miterlimit:4;stroke-dasharray:none;stroke-linecap:square;fill:#cccccc;fill-opacity:1.0;fill-rule: evenodd"/>
<circle cx="54.00000000000001" cy="-169.0" r="5.0" stroke="#191919" stroke-width="0.35 px" style="stroke-width:0.35;stroke-miterlimit:4;stroke-dasharray:none;stroke-linecap:square;fill:#cccccc"/>
<circle cx="54.00000000000001" cy="-169.0" r="5.0" stroke="#191919" stroke-width="0.35 px" style="stroke-width:0.35;stroke-miterlimit:4;stroke-dasharray:none;stroke-linecap:square;fill:#cccccc"/>
<circle cx="52.0" cy="-149.0" r="1.6" stroke="#191919" stroke-width="0.35 px" style="stroke-width:0.35;stroke-miterlimit:4;stroke-dasharray:none;stroke-linecap:square;fill:#cccccc"/>
<path id="Cut018_f0006"  d="M 210.0 -142.0 L 0.0 -142.0 L 0.0 -142.0 L 210.0 -142.0 L 210.0 -142.0 Z " stroke="#191919" stroke-width="0.35 px" style="stroke-width:0.35;stroke-miterlimit:4;stroke-dasharray:none;stroke-linecap:square;fill:#cccccc;fill-opacity:1.0;fill-rule: evenodd"/>
<circle cx="52.0" cy="-149.0" r="1.6" stroke="#191919" stroke-width="0.35 px" style="stroke-width:0.35;stroke-miterlimit:4;stroke-dasharray:none;stroke-linecap:square;fill:#cccccc"/>
<path id="Cut018_f0008"  d="M 4.0 -172.875 L 4.0 -168.375 L 4.0 -168.375 L 4.0 -172.875 L 4.0 -172.875 Z " stroke="#191919" stroke-width="0.35 px" style="stroke-width:0.35;stroke-miterlimit:4;stroke-dasharray:none;stroke-linecap:square;fill:#cccccc;fill-opacity:1.0;fill-rule: evenodd"/>
<path id="Cut018_f0009"  d="M 210.0 -157.0 L 210.0 -168.375 L 210.0 -168.375 L 210.0 -157.0 L 210.0 -157.0 Z " stroke="#191919" stroke-width="0.35 px" style="stroke-width:0.35;stroke-miterlimit:4;stroke-dasharray:none;stroke-linecap:square;fill:#cccccc;fill-opacity:1.0;fill-rule: evenodd"/>
<path id="Cut018_f0010"  d="M 210.0 -168.375 L 206.0 -168.375 L 206.0 -168.375 L 210.0 -168.375 L 210.0 -168.375 Z " stroke="#191919" stroke-width="0.35 px" style="stroke-width:0.35;stroke-miterlimit:4;stroke-dasharray:none;stroke-linecap:square;fill:#cccccc;fill-opacity:1.0;fill-rule: evenodd"/>
<path id="Cut018_f0011"  d="M 6.95 -172.875 L 4.0 -172.875 L 4.0 -172.875 L 6.95 -172.875 L 6.95 -172.875 Z " stroke="#191919" stroke-width="0.35 px" style="stroke-width:0.35;stroke-miterlimit:4;stroke-dasharray:none;stroke-linecap:square;fill:#cccccc;fill-opacity:1.0;fill-rule: evenodd"/>
<path id="Cut018_f0012"  d="M 206.0 -168.375 L 206.0 -172.875 L 206.0 -172.875 L 206.0 -168.375 L 206.0 -168.375 Z " stroke="#191919" stroke-width="0.35 px" style="stroke-width:0.35;stroke-miterlimit:4;stroke-dasharray:none;stroke-linecap:square;fill:#cccccc;fill-opacity:1.0;fill-rule: evenodd"/>
<path id="Cut018_f0013"  d="M 6.95 -171.625 L 6.95 -172.875 L 6.95 -172.875 L 6.95 -171.625 L 6.95 -171.625 Z " stroke="#191919" stroke-width="0.35 px" style="stroke-width:0.35;stroke-miterlimit:4;stroke-dasharray:none;stroke-linecap:square;fill:#cccccc;fill-opacity:1.0;fill-rule: evenodd"/>
<path id="Cut018_f0014"  d="M 206.0 -172.875 L 203.05 -172.875 L 203.05 -172.875 L 206.0 -172.875 L 206.0 -172.875 Z " stroke="#191919" stroke-width="0.35 px" style="stroke-width:0.35;stroke-miterlimit:4;stroke-dasharray:none;stroke-linecap:square;fill:#cccccc;fill-opacity:1.0;fill-rule: evenodd"/>
<path id="Cut018_f0015"  d="M 9.6 -171.625 L 6.95 -171.625 L 6.95 -171.625 L 9.6 -171.625 L 9.6 -171.625 Z " stroke="#191919" stroke-width="0.35 px" style="stroke-width:0.35;stroke-miterlimit:4;stroke-dasharray:none;stroke-linecap:square;fill:#cccccc;fill-opacity:1.0;fill-rule: evenodd"/>
<path id="Cut018_f0016"  d="M 203.05 -172.875 L 203.05 -171.625 L 203.05 -171.625 L 203.05 -172.875 L 203.05 -172.875 Z " stroke="#191919" stroke-width="0.35 px" style="stroke-width:0.35;stroke-miterlimit:4;stroke-dasharray:none;stroke-linecap:square;fill:#cccccc;fill-opacity:1.0;fill-rule: evenodd"/>
<path id="Cut018_f0017"  d="M 9.6 -172.875 L 9.6 -171.625 L 9.6 -171.625 L 9.6 -172.875 L 9.6 -172.875 Z " stroke="#191919" stroke-width="0.35 px" style="stroke-width:0.35;stroke-miterlimit:4;stroke-dasharray:none;stroke-linecap:square;fill:#cccccc;fill-opacity:1.0;fill-rule: evenodd"/>
<path id="Cut018_f0018"  d="M 203.05 -171.625 L 200.4 -171.625 L 200.4 -171.625 L 203.05 -171.625 L 203.05 -171.625 Z " stroke="#191919" stroke-width="0.35 px" style="stroke-width:0.35;stroke-miterlimit:4;stroke-dasharray:none;stroke-linecap:square;fill:#cccccc;fill-opacity:1.0;fill-rule: evenodd"/>
<path id="Cut018_f0019"  d="M 12.25 -172.875 L 9.6 -172.875 L 9.6 -172.875 L 12.25 -172.875 L 12.25 -172.875 Z " stroke="#191919" stroke-width="0.35 px" style="stroke-width:0.35;stroke-miterlimit:4;stroke-dasharray:none;stroke-linecap:square;fill:#cccccc;fill-opacity:1.0;fill-rule: evenodd"/>
<path id="Cut018_f0020"  d="M 200.4 -171.625 L 200.4 -172.875 L 200.4 -172.875 L 200.4 -171.625 L 200.4 -171.625 Z " stroke="#191919" stroke-width="0.35 px" style="stroke-width:0.35;stroke-miterlimit:4;stroke-dasharray:none;stroke-linecap:square;fill:#cccccc;fill-opacity:1.0;fill-rule: evenodd"/>
<path id="Cut018_f0021"  d="M 12.25 -176.125 L 12.25 -172.875 L 12.25 -172.875 L 12.25 -176.125 L 12.25 -176.125 Z " stroke="#191919" stroke-width="0.35 px" style="stroke-width:0.35;stroke-miterlimit:4;stroke-dasharray:none;stroke-linecap:square;fill:#cccccc;fill-opacity:1.0;fill-rule: evenodd"/>
<path id="Cut018_f0022"  d="M 200.4 -172.875 L 197.75 -172.875 L 197.75 -172.875 L 200.4 -172.875 L 200.4 -172.875 Z " stroke="#191919" stroke-width="0.35 px" style="stroke-width:0.35;stroke-miterlimit:4;stroke-dasharray:none;stroke-linecap:square;fill:#cccccc;fill-opacity:1.0;fill-rule: evenodd"/>
<path id="Cut018_f0023"  d="M 9.6 -176.125 L 12.25 -176.125 L 12.25 -176.125 L 9.6 -176.125 L 9.6 -176.125 Z " stroke="#191919" stroke-width="0.35 px" style="stroke-width:0.35;stroke-miterlimit:4;stroke-dasharray:none;stroke-linecap:square;fill:#cccccc;fill-opacity:1.0;fill-rule: evenodd"/>
<path id="Cut018_f0024"  d="M 197.75 -172.875 L 197.75 -176.125 L 197.75 -176.125 L 197.75 -172.875 L 197.75 -172.875 Z " stroke="#191919" stroke-width="0.35 px" style="stroke-width:0.35;stroke-miterlimit:4;stroke-dasharray:none;stroke-linecap:square;fill:#cccccc;fill-opacity:1.0;fill-rule: evenodd"/>
<path id="Cut018_f0025"  d="M 9.6 -177.375 L 9.6 -176.125 L 9.6 -176.125 L 9.6 -177.375 L 9.6 -177.375 Z " stroke="#191919" stroke-width="0.35 px" style="stroke-width:0.35;stroke-miterlimit:4;stroke-dasharray:none;stroke-linecap:square;fill:#cccccc;fill-opacity:1.0;fill-rule: evenodd"/>
<path id="Cut018_f0026"  d="M 197.75 -176.125 L 200.4 -176.125 L 200.4 -176.125 L 197.75 -176.125 L 197.75 -176.125 Z " stroke="#191919" stroke-width="0.35 px" style="stroke-width:0.35;stroke-miterlimit:4;stroke-dasharray:none;stroke-linecap:square;fill:#cccccc;fill-opacity:1.0;fill-rule: evenodd"/>
<path id="Cut018_f0027"  d="M 6.950000000000001 -177.375 L 9.6 -177.375 L 9.6 -177.375 L 6.95 -177.375 L 6.95 -177.375 Z " stroke="#191919" stroke-width="0.35 px" style="stroke-width:0.35;stroke-miterlimit:4;stroke-dasharray:none;stroke-linecap:square;fill:#cccccc;fill-opacity:1.0;fill-rule: evenodd"/>
<path id="Cut018_f0028"  d="M 200.4 -176.125 L 200.4 -177.375 L 200.4 -177.375 L 200.4 -176.125 L 200.4 -176.125 Z " stroke="#191919" stroke-width="0.35 px" style="stroke-width:0.35;stroke-miterlimit:4;stroke-dasharray:none;stroke-linecap:square;fill:#cccccc;fill-opacity:1.0;fill-rule: evenodd"/>
<path id="Cut018_f0029"  d="M 6.95 -176.125 L 6.95 -177.375 L 6.95 -177.375 L 6.95 -176.125 L 6.95 -176.125 Z " stroke="#191919" stroke-width="0.35 px" style="stroke-width:0.35;stroke-miterlimit:4;stroke-dasharray:none;stroke-linecap:square;fill:#cccccc;fill-opacity:1.0;fill-rule: evenodd"/>
<path id="Cut018_f0030"  d="M 200.4 -177.375 L 203.05 -177.375 L 203.05 -177.375 L 200.4 -177.375 L 200.4 -177.375 Z " stroke="#191919" stroke-width="0.35 px" style="stroke-width:0.35;stroke-miterlimit:4;stroke-dasharray:none;stroke-linecap:square;fill:#cccccc;fill-opacity:1.0;fill-rule: evenodd"/>
<path id="Cut018_f0031"  d="M 4.0 -176.125 L 6.95 -176.125 L 6.95 -176.125 L 4.0 -176.125 L 4.0 -176.125 Z " stroke="#191919" stroke-width="0.35 px" style="stroke-width:0.35;stroke-miterlimit:4;stroke-dasharray:none;stroke-linecap:square;fill:#cccccc;fill-opacity:1.0;fill-rule: evenodd"/>
<path id="Cut018_f0032"  d="M 203.05 -177.375 L 203.05 -176.125 L 203.05 -176.125 L 203.05 -177.375 L 203.05 -177.375 Z " stroke="#191919" stroke-width="0.35 px" style="stroke-width:0.35;stroke-miterlimit:4;stroke-dasharray:none;stroke-linecap:square;fill:#cccccc;fill-opacity:1.0;fill-rule: evenodd"/>
<path id="Cut018_f0033"  d="M 4.0 -180.625 L 4.0 -176.125 L 4.0 -176.125 L 4.0 -180.625 L 4.0 -180.625 Z " stroke="#191919" stroke-width="0.35 px" style="stroke-width:0.35;stroke-miterlimit:4;stroke-dasharray:none;stroke-linecap:square;fill:#cccccc;fill-opacity:1.0;fill-rule: evenodd"/>
<path id="Cut018_f0034"  d="M 203.05 -176.125 L 206.0 -176.125 L 206.0 -176.125 L 203.05 -176.125 L 203.05 -176.125 Z " stroke="#191919" stroke-width="0.35 px" style="stroke-width:0.35;stroke-miterlimit:4;stroke-dasharray:none;stroke-linecap:square;fill:#cccccc;fill-opacity:1.0;fill-rule: evenodd"/>
<path id="Cut018_f0035"  d="M 0.0 -180.625 L 4.0 -180.625 L 4.0 -180.625 L 0.0 -180.625 L 0.0 -180.625 Z " stroke="#191919" stroke-width="0.35 px" style="stroke-width:0.35;stroke-miterlimit:4;stroke-dasharray:none;stroke-linecap:square;fill:#cccccc;fill-opacity:1.0;fill-rule: evenodd"/>
<path id="Cut018_f0036"  d="M 206.0 -176.125 L 206.0 -180.625 L 206.0 -180.625 L 206.0 -176.125 L 206.0 -176.125 Z " stroke="#191919" stroke-width="0.35 px" style="stroke-width:0.35;stroke-miterlimit:4;stroke-dasharray:none;stroke-linecap:square;fill:#cccccc;fill-opacity:1.0;fill-rule: evenodd"/>
<path id="Cut018_f0037"  d="M 0.0 -192.0 L 0.0 -180.625 L 0.0 -180.625 L 0.0 -192.0 L 0.0 -192.0 Z " stroke="#191919" stroke-width="0.35 px" style="stroke-width:0.35;stroke-miterlimit:4;stroke-dasharray:none;stroke-linecap:square;fill:#cccccc;fill-opacity:1.0;fill-rule: evenodd"/>
<path id="Cut018_f0038"  d="M 206.0 -180.625 L 210.0 -180.625 L 210.0 -180.625 L 206.0 -180.625 L 206.0 -180.625 Z " stroke="#191919" stroke-width="0.35 px" style="stroke-width:0.35;stroke-miterlimit:4;stroke-dasharray:none;stroke-linecap:square;fill:#cccccc;fill-opacity:1.0;fill-rule: evenodd"/>
<path id="Cut018_f0039"  d="M 26.25 -192.0 L 0.0 -192.0 L 0.0 -192.0 L 26.25 -192.0 L 26.25 -192.0 Z " stroke="#191919" stroke-width="0.35 px" style="stroke-width:0.35;stroke-miterlimit:4;stroke-dasharray:none;stroke-linecap:square;fill:#cccccc;fill-opacity:1.0;fill-rule: evenodd"/>
<path id="Cut018_f0040"  d="M 210.0 -180.625 L 210.0 -192.0 L 210.0 -192.0 L 210.0 -180.625 L 210.0 -180.625 Z " stroke="#191919" stroke-width="0.35 px" style="stroke-width:0.35;stroke-miterlimit:4;stroke-dasharray:none;stroke-linecap:square;fill:#cccccc;fill-opacity:1.0;fill-rule: evenodd"/>
<path id="Cut018_f0041"  d="M 26.25 -188.0 L 26.25 -192.0 L 26.25 -192.0 L 26.25 -188.0 L 26.25 -188.0 Z " stroke="#191919" stroke-width="0.35 px" style="stroke-width:0.35;stroke-miterlimit:4;stroke-dasharray:none;stroke-linecap:square;fill:#cccccc;fill-opacity:1.0;fill-rule: evenodd"/>
<path id="Cut018_f0042"  d="M 210.0 -192.0 L 183.75 -192.0 L 183.75 -192.0 L 210.0 -192.0 L 210.0 -192.0 Z " stroke="#191919" stroke-width="0.35 px" style="stroke-width:0.35;stroke-miterlimit:4;stroke-dasharray:none;stroke-linecap:square;fill:#cccccc;fill-opacity:1.0;fill-rule: evenodd"/>
<path id="Cut018_f0043"  d="M 50.875 -188.0 L 26.25 -188.0 L 26.25 -188.0 L 50.875 -188.0 L 50.875 -188.0 Z " stroke="#191919" stroke-width="0.35 px" style="stroke-width:0.35;stroke-miterlimit:4;stroke-dasharray:none;stroke-linecap:square;fill:#cccccc;fill-opacity:1.0;fill-rule: evenodd"/>
<path id="Cut018_f0044"  d="M 183.75 -192.0 L 183.75 -188.0 L 183.75 -188.0 L 183.75 -192.0 L 183.75 -192.0 Z " stroke="#191919" stroke-width="0.35 px" style="stroke-width:0.35;stroke-miterlimit:4;stroke-dasharray:none;stroke-linecap:square;fill:#cccccc;fill-opacity:1.0;fill-rule: evenodd"/>
<path id="Cut018_f0045"  d="M 50.875 -185.05 L 50.875 -188.0 L 50.875 -188.0 L 50.875 -185.05 L 50.875 -185.05 Z " stroke="#191919" stroke-width="0.35 px" style="stroke-width:0.35;stroke-miterlimit:4;stroke-dasharray:none;stroke-linecap:square;fill:#cccccc;fill-opacity:1.0;fill-rule: evenodd"/>
<path id="Cut018_f0046"  d="M 183.75 -188.0 L 159.125 -188.0 L 159.125 -188.0 L 183.75 -188.0 L 183.75 -188.0 Z " stroke="#191919" stroke-width="0.35 px" style="stroke-width:0.35;stroke-miterlimit:4;stroke-dasharray:none;stroke-linecap:square;fill:#cccccc;fill-opacity:1.0;fill-rule: evenodd"/>
<path id="Cut018_f0047"  d="M 49.625 -185.05 L 50.875 -185.05 L 50.875 -185.05 L 49.625 -185.05 L 49.625 -185.05 Z " stroke="#191919" stroke-width="0.35 px" style="stroke-width:0.35;stroke-miterlimit:4;stroke-dasharray:none;stroke-linecap:square;fill:#cccccc;fill-opacity:1.0;fill-rule: evenodd"/>
<path id="Cut018_f0048"  d="M 159.125 -188.0 L 159.125 -185.05 L 159.125 -185.05 L 159.125 -188.0 L 159.125 -188.0 Z " stroke="#191919" stroke-width="0.35 px" style="stroke-width:0.35;stroke-miterlimit:4;stroke-dasharray:none;stroke-linecap:square;fill:#cccccc;fill-opacity:1.0;fill-rule: evenodd"/>
<path id="Cut018_f0049"  d="M 49.625 -182.4 L 49.625 -185.05 L 49.625 -185.05 L 49.625 -182.4 L 49.625 -182.4 Z " stroke="#191919" stroke-width="0.35 px" style="stroke-width:0.35;stroke-miterlimit:4;stroke-dasharray:none;stroke-linecap:square;fill:#cccccc;fill-opacity:1.0;fill-rule: evenodd"/>
<path id="Cut018_f0050"  d="M 159.125 -185.05 L 160.375 -185.05 L 160.375 -185.05 L 159.125 -185.05 L 159.125 -185.05 Z " stroke="#191919" stroke-width="0.35 px" style="stroke-width:0.35;stroke-miterlimit:4;stroke-dasharray:none;stroke-linecap:square;fill:#cccccc;fill-opacity:1.0;fill-rule: evenodd"/>
<path id="Cut018_f0051"  d="M 50.875 -182.4 L 49.625 -182.4 L 49.625 -182.4 L 50.875 -182.4 L 50.875 -182.4 Z " stroke="#191919" stroke-width="0.35 px" style="stroke-width:0.35;stroke-miterlimit:4;stroke-dasharray:none;stroke-linecap:square;fill:#cccccc;fill-opacity:1.0;fill-rule: evenodd"/>
<path id="Cut018_f0052"  d="M 160.375 -185.05 L 160.375 -182.4 L 160.375 -182.4 L 160.375 -185.05 L 160.375 -185.05 Z " stroke="#191919" stroke-width="0.35 px" style="stroke-width:0.35;stroke-miterlimit:4;stroke-dasharray:none;stroke-linecap:square;fill:#cccccc;fill-opacity:1.0;fill-rule: evenodd"/>
<path id="Cut018_f0053"  d="M 50.875 -179.75 L 50.875 -182.4 L 50.875 -182.4 L 50.875 -179.75 L 50.875 -179.75 Z " stroke="#191919" stroke-width="0.35 px" style="stroke-width:0.35;stroke-miterlimit:4;stroke-dasharray:none;stroke-linecap:square;fill:#cccccc;fill-opacity:1.0;fill-rule: evenodd"/>
<path id="Cut018_f0054"  d="M 160.375 -182.4 L 159.125 -182.4 L 159.125 -182.4 L 160.375 -182.4 L 160.375 -182.4 Z " stroke="#191919" stroke-width="0.35 px" style="stroke-width:0.35;stroke-miterlimit:4;stroke-dasharray:none;stroke-linecap:square;fill:#cccccc;fill-opacity:1.0;fill-rule: evenodd"/>
<path id="Cut018_f0055"  d="M 54.125 -179.75 L 50.875 -179.75 L 50.875 -179.75 L 54.125 -179.75 L 54.125 -179.75 Z " stroke="#191919" stroke-width="0.35 px" style="stroke-width:0.35;stroke-miterlimit:4;stroke-dasharray:none;stroke-linecap:square;fill:#cccccc;fill-opacity:1.0;fill-rule: evenodd"/>
<path id="Cut018_f0056"  d="M 159.125 -182.4 L 159.125 -179.75 L 159.125 -179.75 L 159.125 -182.4 L 159.125 -182.4 Z " stroke="#191919" stroke-width="0.35 px" style="stroke-width:0.35;stroke-miterlimit:4;stroke-dasharray:none;stroke-linecap:square;fill:#cccccc;fill-opacity:1.0;fill-rule: evenodd"/>
<path id="Cut018_f0057"  d="M 54.125 -182.4 L 54.125 -179.75 L 54.125 -179.75 L 54.125 -182.4 L 54.125 -182.4 Z " stroke="#191919" stroke-width="0.35 px" style="stroke-width:0.35;stroke-miterlimit:4;stroke-dasharray:none;stroke-linecap:square;fill:#cccccc;fill-opacity:1.0;fill-rule: evenodd"/>
<path id="Cut018_f0058"  d="M 159.125 -179.75 L 155.875 -179.75 L 155.875 -179.75 L 159.125 -179.75 L 159.125 -179.75 Z " stroke="#191919" stroke-width="0.35 px" style="stroke-width:0.35;stroke-miterlimit:4;stroke-dasharray:none;stroke-linecap:square;fill:#cccccc;fill-opacity:1.0;fill-rule: evenodd"/>
<path id="Cut018_f0059"  d="M 55.375 -182.4 L 54.125 -182.4 L 54.125 -182.4 L 55.375 -182.4 L 55.375 -182.4 Z " stroke="#191919" stroke-width="0.35 px" style="stroke-width:0.35;stroke-miterlimit:4;stroke-dasharray:none;stroke-linecap:square;fill:#cccccc;fill-opacity:1.0;fill-rule: evenodd"/>
<path id="Cut018_f0060"  d="M 155.875 -179.75 L 155.875 -182.4 L 155.875 -182.4 L 155.875 -179.75 L 155.875 -179.75 Z " stroke="#191919" stroke-width="0.35 px" style="stroke-width:0.35;stroke-miterlimit:4;stroke-dasharray:none;stroke-linecap:square;fill:#cccccc;fill-opacity:1.0;fill-rule: evenodd"/>
<path id="Cut018_f0061"  d="M 55.375 -185.05 L 55.375 -182.4 L 55.375 -182.4 L 55.375 -185.05 L 55.375 -185.05 Z " stroke="#191919" stroke-width="0.35 px" style="stroke-width:0.35;stroke-miterlimit:4;stroke-dasharray:none;stroke-linecap:square;fill:#cccccc;fill-opacity:1.0;fill-rule: evenodd"/>
<path id="Cut018_f0062"  d="M 155.875 -182.4 L 154.625 -182.4 L 154.625 -182.4 L 155.875 -182.4 L 155.875 -182.4 Z " stroke="#191919" stroke-width="0.35 px" style="stroke-width:0.35;stroke-miterlimit:4;stroke-dasharray:none;stroke-linecap:square;fill:#cccccc;fill-opacity:1.0;fill-rule: evenodd"/>
<path id="Cut018_f0063"  d="M 54.125 -185.05 L 55.375 -185.05 L 55.375 -185.05 L 54.125 -185.05 L 54.125 -185.05 Z " stroke="#191919" stroke-width="0.35 px" style="stroke-width:0.35;stroke-miterlimit:4;stroke-dasharray:none;stroke-linecap:square;fill:#cccccc;fill-opacity:1.0;fill-rule: evenodd"/>
<path id="Cut018_f0064"  d="M 154.625 -182.4 L 154.625 -185.05 L 154.625 -185.05 L 154.625 -182.4 L 154.625 -182.4 Z " stroke="#191919" stroke-width="0.35 px" style="stroke-width:0.35;stroke-miterlimit:4;stroke-dasharray:none;stroke-linecap:square;fill:#cccccc;fill-opacity:1.0;fill-rule: evenodd"/>
<path id="Cut018_f0065"  d="M 54.125 -188.0 L 54.125 -185.05 L 54.125 -185.05 L 54.125 -188.0 L 54.125 -188.0 Z " stroke="#191919" stroke-width="0.35 px" style="stroke-width:0.35;stroke-miterlimit:4;stroke-dasharray:none;stroke-linecap:square;fill:#cccccc;fill-opacity:1.0;fill-rule: evenodd"/>
<path id="Cut018_f0066"  d="M 154.625 -185.05 L 155.875 -185.05 L 155.875 -185.05 L 154.625 -185.05 L 154.625 -185.05 Z " stroke="#191919" stroke-width="0.35 px" style="stroke-width:0.35;stroke-miterlimit:4;stroke-dasharray:none;stroke-linecap:square;fill:#cccccc;fill-opacity:1.0;fill-rule: evenodd"/>
<path id="Cut018_f0067"  d="M 78.75 -188.0 L 54.125 -188.0 L 54.125 -188.0 L 78.75 -188.0 L 78.75 -188.0 Z " stroke="#191919" stroke-width="0.35 px" style="stroke-width:0.35;stroke-miterlimit:4;stroke-dasharray:none;stroke-linecap:square;fill:#cccccc;fill-opacity:1.0;fill-rule: evenodd"/>
<path id="Cut018_f0068"  d="M 155.875 -185.05 L 155.875 -188.0 L 155.875 -188.0 L 155.875 -185.05 L 155.875 -185.05 Z " stroke="#191919" stroke-width="0.35 px" style="stroke-width:0.35;stroke-miterlimit:4;stroke-dasharray:none;stroke-linecap:square;fill:#cccccc;fill-opacity:1.0;fill-rule: evenodd"/>
<path id="Cut018_f0069"  d="M 78.75 -192.0 L 78.75 -188.0 L 78.75 -188.0 L 78.75 -192.0 L 78.75 -192.0 Z " stroke="#191919" stroke-width="0.35 px" style="stroke-width:0.35;stroke-miterlimit:4;stroke-dasharray:none;stroke-linecap:square;fill:#cccccc;fill-opacity:1.0;fill-rule: evenodd"/>
<path id="Cut018_f0070"  d="M 155.875 -188.0 L 131.25 -188.0 L 131.25 -188.0 L 155.875 -188.0 L 155.875 -188.0 Z " stroke="#191919" stroke-width="0.35 px" style="stroke-width:0.35;stroke-miterlimit:4;stroke-dasharray:none;stroke-linecap:square;fill:#cccccc;fill-opacity:1.0;fill-rule: evenodd"/>
<path id="Cut018_f0071"  d="M 131.25 -192.0 L 78.75 -192.0 L 78.75 -192.0 L 131.25 -192.0 L 131.25 -192.0 Z " stroke="#191919" stroke-width="0.35 px" style="stroke-width:0.35;stroke-miterlimit:4;stroke-dasharray:none;stroke-linecap:square;fill:#cccccc;fill-opacity:1.0;fill-rule: evenodd"/>
<path id="Cut018_f0072"  d="M 131.25 -188.0 L 131.25 -192.0 L 131.25 -192.0 L 131.25 -188.0 L 131.25 -188.0 Z " stroke="#191919" stroke-width="0.35 px" style="stroke-width:0.35;stroke-miterlimit:4;stroke-dasharray:none;stroke-linecap:square;fill:#cccccc;fill-opacity:1.0;fill-rule: evenodd"/>
<circle cx="54.00000000000001" cy="-169.0" r="5.0" stroke="#191919" stroke-width="0.35 px" style="stroke-width:0.35;stroke-miterlimit:4;stroke-dasharray:none;stroke-linecap:square;fill:#cccccc"/>
<circle cx="79.0" cy="-169.0" r="5.0" stroke="#191919" stroke-width="0.35 px" style="stroke-width:0.35;stroke-miterlimit:4;stroke-dasharray:none;stroke-linecap:square;fill:#cccccc"/>
<circle cx="104.0" cy="-169.0" r="5.0" stroke="#191919" stroke-width="0.35 px" style="stroke-width:0.35;stroke-miterlimit:4;stroke-dasharray:none;stroke-linecap:square;fill:#cccccc"/>
<circle cx="129.0" cy="-169.0" r="5.0" stroke="#191919" stroke-width="0.35 px" style="stroke-width:0.35;stroke-miterlimit:4;stroke-dasharray:none;stroke-linecap:square;fill:#cccccc"/>
<circle cx="154.0" cy="-169.0" r="5.0" stroke="#191919" stroke-width="0.35 px" style="stroke-width:0.35;stroke-miterlimit:4;stroke-dasharray:none;stroke-linecap:square;fill:#cccccc"/>
<path id="Cut018_f0078"  d="M 210.0 -142.0 L 210.0 -142.0 L 210.0 -157.0 L 210.0 -157.0 L 210.0 -142.0 Z " stroke="#191919" stroke-width="0.35 px" style="stroke-width:0.35;stroke-miterlimit:4;stroke-dasharray:none;stroke-linecap:square;fill:#cccccc;fill-opacity:1.0;fill-rule: evenodd"/>
<circle cx="52.0" cy="-149.0" r="1.6" stroke="#191919" stroke-width="0.35 px" style="stroke-width:0.35;stroke-miterlimit:4;stroke-dasharray:none;stroke-linecap:square;fill:#cccccc"/>
<circle cx="152.0" cy="-149.0" r="1.6" stroke="#191919" stroke-width="0.35 px" style="stroke-width:0.35;stroke-miterlimit:4;stroke-dasharray:none;stroke-linecap:square;fill:#cccccc"/>
<title>b'E_case_front001'</title>
</g>
</svg>