<?xml version="1.0"?>
<!DOCTYPE svg PUBLIC "-//W3C//DTD SVG 1.1//EN" "http://www.w3.org/Graphics/SVG/1.1/DTD/svg11.dtd">
<svg width="204.0mm" height="219.0mm" viewBox="0 0 204.0 219.0" xmlns="http://www.w3.org/2000/svg" version="1.1">
<g id="bottom_outsideCutPath" transform="translate(-419.000000,2.000000) scale(1,-1)">
<path id="bottom_outsideCutPath_w0000"  d="M 424.0 -3.0 L 424.0 -26.875 L 421.0 -26.875 L 421.0 -52.125 L 424.25 -52.125 L 424.25 -53.75 L 424.25 -55.375 L 421.0 -55.375 L 421.0 -80.625 L 424.0 -80.625 L 424.0 -134.375 L 421.0 -134.375 L 421.0 -159.625 L 424.25 -159.625 L 424.25 -161.25 L 424.25 -162.875 L 421.0 -162.875 L 421.0 -188.125 L 424.0 -188.125 L 424.0 -212.0 L 446.0 -212.0 L 446.0 -215.0 L 469.375 -215.0 L 469.375 -211.75 L 471.0 -211.75 L 472.625 -211.75 L 472.625 -215.0 L 496.0 -215.0 L 496.0 -212.0 L 546.0 -212.0 L 546.0 -215.0 L 569.375 -215.0 L 569.375 -211.75 L 571.0 -211.75 L 572.625 -211.75 L 572.625 -215.0 L 596.0 -215.0 L 596.0 -212.0 L 618.0 -212.0 L 618.0 -188.125 L 621.0 -188.125 L 621.0 -162.875 L 617.75 -162.875 L 617.75 -161.25 L 617.75 -159.625 L 621.0 -159.625 L 621.0 -134.375 L 618.0 -134.375 L 618.0 -80.625 L 621.0 -80.625 L 621.0 -55.375 L 617.75 -55.375 L 617.75 -53.75 L 617.75 -52.125 L 621.0 -52.125 L 621.0 -26.875 L 618.0 -26.875 L 618.0 -3.0 L 596.0 -3.0 L 596.0 0.0 L 572.625 0.0 L 572.625 -3.25 L 571.0 -3.25 L 569.375 -3.25 L 569.375 0.0 L 546.0 0.0 L 546.0 -3.0 L 496.0 -3.0 L 496.0 0.0 L 472.625 0.0 L 472.625 -3.25 L 471.0 -3.25 L 469.375 -3.25 L 469.375 0.0 L 446.0 0.0 L 446.0 -3.0 L 424.0 -3.0 " stroke="#ff0000" stroke-width="0.35 px" style="stroke-width:0.35;stroke-miterlimit:4;stroke-dasharray:none;stroke-linecap:square;fill:none;fill-opacity:1;fill-rule: evenodd"/>
<title>b'bottom_outsideCutPath'</title>
</g>
</svg>