<?xml version="1.0"?>
<!DOCTYPE svg PUBLIC "-//W3C//DTD SVG 1.1//EN" "http://www.w3.org/Graphics/SVG/1.1/DTD/svg11.dtd">
<svg width="219.29999999999998mm" height="39.30000000000001mm" viewBox="0 0 219.29999999999998 39.30000000000001" xmlns="http://www.w3.org/2000/svg" version="1.1">
<g id="left_outsideCutPath" transform="translate(-200.850000,-177.850000) scale(1,-1)">
<path id="left_outsideCutPath_w0000"  d="M 206.0 -180.0 L 206.0 -191.375 L 203.0 -191.375 L 203.0 -195.875 L 206.25 -195.875 L 206.25 -197.5 L 206.25 -199.125 L 203.0 -199.125 L 203.0 -203.625 L 206.0 -203.625 L 206.0 -215.0 L 229.875 -215.0 L 229.875 -212.0 L 255.125 -212.0 L 255.125 -208.05 L 253.875 -208.05 L 253.875 -205.4 L 255.125 -205.4 L 255.125 -202.75 L 258.375 -202.75 L 258.375 -205.4 L 259.625 -205.4 L 259.625 -208.05 L 258.375 -208.05 L 258.375 -212.0 L 283.625 -212.0 L 283.625 -215.0 L 337.375 -215.0 L 337.375 -212.0 L 362.625 -212.0 L 362.625 -208.05 L 361.375 -208.05 L 361.375 -205.4 L 362.625 -205.4 L 362.625 -202.75 L 365.875 -202.75 L 365.875 -205.4 L 367.125 -205.4 L 367.125 -208.05 L 365.875 -208.05 L 365.875 -212.0 L 391.125 -212.0 L 391.125 -215.0 L 415.0 -215.0 L 415.0 -203.625 L 418.0 -203.625 L 418.0 -199.125 L 414.75 -199.125 L 414.75 -197.5 L 414.75 -195.875 L 418.0 -195.875 L 418.0 -191.375 L 415.0 -191.375 L 415.0 -180.0 L 206.0 -180.0 " stroke="#ff0000" stroke-width="0.35 px" style="stroke-width:0.35;stroke-miterlimit:4;stroke-dasharray:none;stroke-linecap:square;fill:none;fill-opacity:1;fill-rule: evenodd"/>
<title>b'left_outsideCutPath'</title>
</g>
</svg>