<?xml version="1.0"?>
<!DOCTYPE svg PUBLIC "-//W3C//DTD SVG 1.1//EN" "http://www.w3.org/Graphics/SVG/1.1/DTD/svg11.dtd">
<svg width="214.2mm" height="54.20000000000002mm" viewBox="0 0 214.2 54.20000000000002" xmlns="http://www.w3.org/2000/svg" version="1.1">
<g id="Cut017" transform="translate(2.100000,-213.900000) scale(1,-1)">
<path id="Cut017_f0000"  d="M 0.0 -242.375 L 0.0 -231.0 L 0.0 -231.0 L 0.0 -242.375 L 0.0 -242.375 Z " stroke="#191919" stroke-width="0.35 px" style="stroke-width:0.35;stroke-miterlimit:4;stroke-dasharray:none;stroke-linecap:square;fill:#cccccc;fill-opacity:1.0;fill-rule: evenodd"/>
<path id="Cut017_f0001"  d="M 0.0 -216.0 L 0.0 -231.0 L 0.0 -231.0 L 0.0 -216.0 L 0.0 -216.0 Z " stroke="#191919" stroke-width="0.35 px" style="stroke-width:0.35;stroke-miterlimit:4;stroke-dasharray:none;stroke-linecap:square;fill:#cccccc;fill-opacity:1.0;fill-rule: evenodd"/>
<path id="Cut017_f0002"  d="M 4.0 -242.375 L 0.0 -242.375 L 0.0 -242.375 L 4.0 -242.375 L 4.0 -242.375 Z " stroke="#191919" stroke-width="0.35 px" style="stroke-width:0.35;stroke-miterlimit:4;stroke-dasharray:none;stroke-linecap:square;fill:#cccccc;fill-opacity:1.0;fill-rule: evenodd"/>
<path id="Cut017_f0003"  d="M 0.0 -242.375 L 4.0 -242.375 L 4.0 -246.875 L 6.95 -246.875 L 6.95 -245.625 L 9.6 -245.625 L 9.6 -246.875 L 12.25 -246.875 L 12.25 -250.125 L 9.6 -250.125 L 9.6 -251.375 L 6.95 -251.375 L 6.95 -250.125 L 4.0 -250.125 L 4.0 -254.625 L 0.0 -254.625 L 0.0 -266.0 L 26.25 -266.0 L 26.25 -262.0 L 50.875 -262.0 L 50.875 -259.05 L 49.625 -259.05 L 49.625 -256.4 L 50.875 -256.4 L 50.875 -253.75 L 54.125 -253.75 L 54.125 -256.4 L 55.375 -256.4 L 55.375 -259.05 L 54.125 -259.05 L 54.125 -262.0 L 78.75 -262.0 L 78.75 -266.0 L 131.25 -266.0 L 131.25 -262.0 L 155.875 -262.0 L 155.875 -259.05 L 154.625 -259.05 L 154.625 -256.4 L 155.875 -256.4 L 155.875 -253.75 L 159.125 -253.75 L 159.125 -256.4 L 160.375 -256.4 L 160.375 -259.05 L 159.125 -259.05 L 159.125 -262.0 L 183.75 -262.0 L 183.75 -266.0 L 210.0 -266.0 L 210.0 -254.625 L 206.0 -254.625 L 206.0 -250.125 L 203.05 -250.125 L 203.05 -251.375 L 200.4 -251.375 L 200.4 -250.125 L 197.75 -250.125 L 197.75 -246.875 L 200.4 -246.875 L 200.4 -245.625 L 203.05 -245.625 L 203.05 -246.875 L 206.0 -246.875 L 206.0 -242.375 L 210.0 -242.375 L 210.0 -231.0 L 0.0 -231.0 L 0.0 -242.375 Z " stroke="#191919" stroke-width="0.35 px" style="stroke-width:0.35;stroke-miterlimit:4;stroke-dasharray:none;stroke-linecap:square;fill:#cccccc;fill-opacity:1.0;fill-rule: evenodd"/>
<path id="Cut017_f0004"  d="M 0.0 -231.0 L 0.0 -242.375 L 4.0 -242.375 L 4.0 -246.875 L 6.95 -246.875 L 6.95 -245.625 L 9.6 -245.625 L 9.6 -246.875 L 12.25 -246.875 L 12.25 -250.125 L 9.6 -250.125 L 9.6 -251.375 L 6.95 -251.375 L 6.95 -250.125 L 4.0 -250.125 L 4.0 -254.625 L 0.0 -254.625 L 0.0 -266.0 L 26.25 -266.0 L 26.25 -262.0 L 50.875 -262.0 L 50.875 -259.05 L 49.625 -259.05 L 49.625 -256.4 L 50.875 -256.4 L 50.875 -253.75 L 54.125 -253.75 L 54.125 -256.4 L 55.375 -256.4 L 55.375 -259.05 L 54.125 -259.05 L 54.125 -262.0 L 78.75 -262.0 L 78.75 -266.0 L 131.25 -266.0 L 131.25 -262.0 L 155.875 -262.0 L 155.875 -259.05 L 154.625 -259.05 L 154.625 -256.4 L 155.875 -256.4 L 155.875 -253.75 L 159.125 -253.75 L 159.125 -256.4 L 160.375 -256.4 L 160.375 -259.05 L 159.125 -259.05 L 159.125 -262.0 L 183.75 -262.0 L 183.75 -266.0 L 210.0 -266.0 L 210.0 -254.625 L 206.0 -254.625 L 206.0 -250.125 L 203.05 -250.125 L 203.05 -251.375 L 200.4 -251.375 L 200.4 -250.125 L 197.75 -250.125 L 197.75 -246.875 L 200.4 -246.875 L 200.4 -245.625 L 203.05 -245.625 L 203.05 -246.875 L 206.0 -246.875 L 206.0 -242.375 L 210.0 -242.375 L 210.0 -231.0 L 0.0 -231.0 Z " stroke="#191919" stroke-width="0.35 px" style="stroke-width:0.35;stroke-miterlimit:4;stroke-dasharray:none;stroke-linecap:square;fill:#cccccc;fill-opacity:1.0;fill-rule: evenodd"/>
<circle cx="52.0" cy="-224.0" r="1.6" stroke="#191919" stroke-width="0.35 px" style="stroke-width:0.35;stroke-miterlimit:4;stroke-dasharray:none;stroke-linecap:square;fill:#cccccc"/>
<path id="Cut017_f0006"  d="M 210.0 -216.0 L 0.0 -216.0 L 0.0 -216.0 L 210.0 -216.0 L 210.0 -216.0 Z " stroke="#191919" stroke-width="0.35 px" style="stroke-width:0.35;stroke-miterlimit:4;stroke-dasharray:none;stroke-linecap:square;fill:#cccccc;fill-opacity:1.0;fill-rule: evenodd"/>
<circle cx="52.0" cy="-224.0" r="1.6" stroke="#191919" stroke-width="0.35 px" style="stroke-width:0.35;stroke-miterlimit:4;stroke-dasharray:none;stroke-linecap:square;fill:#cccccc"/>
<path id="Cut017_f0008"  d="M 4.0 -246.875 L 4.0 -242.375 L 4.0 -242.375 L 4.0 -246.875 L 4.0 -246.875 Z " stroke="#191919" stroke-width="0.35 px" style="stroke-width:0.35;stroke-miterlimit:4;stroke-dasharray:none;stroke-linecap:square;fill:#cccccc;fill-opacity:1.0;fill-rule: evenodd"/>
<path id="Cut017_f0009"  d="M 6.95 -246.875 L 4.0 -246.875 L 4.0 -246.875 L 6.95 -246.875 L 6.95 -246.875 Z " stroke="#191919" stroke-width="0.35 px" style="stroke-width:0.35;stroke-miterlimit:4;stroke-dasharray:none;stroke-linecap:square;fill:#cccccc;fill-opacity:1.0;fill-rule: evenodd"/>
<path id="Cut017_f0010"  d="M 6.95 -245.625 L 6.95 -246.875 L 6.95 -246.875 L 6.95 -245.625 L 6.95 -245.625 Z " stroke="#191919" stroke-width="0.35 px" style="stroke-width:0.35;stroke-miterlimit:4;stroke-dasharray:none;stroke-linecap:square;fill:#cccccc;fill-opacity:1.0;fill-rule: evenodd"/>
<path id="Cut017_f0011"  d="M 9.6 -245.625 L 6.95 -245.625 L 6.95 -245.625 L 9.6 -245.625 L 9.6 -245.625 Z " stroke="#191919" stroke-width="0.35 px" style="stroke-width:0.35;stroke-miterlimit:4;stroke-dasharray:none;stroke-linecap:square;fill:#cccccc;fill-opacity:1.0;fill-rule: evenodd"/>
<path id="Cut017_f0012"  d="M 9.6 -246.875 L 9.6 -245.625 L 9.6 -245.625 L 9.6 -246.875 L 9.6 -246.875 Z " stroke="#191919" stroke-width="0.35 px" style="stroke-width:0.35;stroke-miterlimit:4;stroke-dasharray:none;stroke-linecap:square;fill:#cccccc;fill-opacity:1.0;fill-rule: evenodd"/>
<path id="Cut017_f0013"  d="M 12.25 -246.875 L 9.6 -246.875 L 9.6 -246.875 L 12.25 -246.875 L 12.25 -246.875 Z " stroke="#191919" stroke-width="0.35 px" style="stroke-width:0.35;stroke-miterlimit:4;stroke-dasharray:none;stroke-linecap:square;fill:#cccccc;fill-opacity:1.0;fill-rule: evenodd"/>
<path id="Cut017_f0014"  d="M 12.25 -250.125 L 12.25 -246.875 L 12.25 -246.875 L 12.25 -250.125 L 12.25 -250.125 Z " stroke="#191919" stroke-width="0.35 px" style="stroke-width:0.35;stroke-miterlimit:4;stroke-dasharray:none;stroke-linecap:square;fill:#cccccc;fill-opacity:1.0;fill-rule: evenodd"/>
<path id="Cut017_f0015"  d="M 9.6 -250.125 L 12.25 -250.125 L 12.25 -250.125 L 9.6 -250.125 L 9.6 -250.125 Z " stroke="#191919" stroke-width="0.35 px" style="stroke-width:0.35;stroke-miterlimit:4;stroke-dasharray:none;stroke-linecap:square;fill:#cccccc;fill-opacity:1.0;fill-rule: evenodd"/>
<path id="Cut017_f0016"  d="M 9.6 -251.375 L 9.6 -250.125 L 9.6 -250.125 L 9.6 -251.375 L 9.6 -251.375 Z " stroke="#191919" stroke-width="0.35 px" style="stroke-width:0.35;stroke-miterlimit:4;stroke-dasharray:none;stroke-linecap:square;fill:#cccccc;fill-opacity:1.0;fill-rule: evenodd"/>
<path id="Cut017_f0017"  d="M 6.950000000000001 -251.375 L 9.6 -251.375 L 9.6 -251.375 L 6.95 -251.375 L 6.95 -251.375 Z " stroke="#191919" stroke-width="0.35 px" style="stroke-width:0.35;stroke-miterlimit:4;stroke-dasharray:none;stroke-linecap:square;fill:#cccccc;fill-opacity:1.0;fill-rule: evenodd"/>
<path id="Cut017_f0018"  d="M 6.95 -250.125 L 6.95 -251.375 L 6.95 -251.375 L 6.95 -250.125 L 6.95 -250.125 Z " stroke="#191919" stroke-width="0.35 px" style="stroke-width:0.35;stroke-miterlimit:4;stroke-dasharray:none;stroke-linecap:square;fill:#cccccc;fill-opacity:1.0;fill-rule: evenodd"/>
<path id="Cut017_f0019"  d="M 4.0 -250.125 L 6.95 -250.125 L 6.95 -250.125 L 4.0 -250.125 L 4.0 -250.125 Z " stroke="#191919" stroke-width="0.35 px" style="stroke-width:0.35;stroke-miterlimit:4;stroke-dasharray:none;stroke-linecap:square;fill:#cccccc;fill-opacity:1.0;fill-rule: evenodd"/>
<path id="Cut017_f0020"  d="M 4.0 -254.625 L 4.0 -250.125 L 4.0 -250.125 L 4.0 -254.625 L 4.0 -254.625 Z " stroke="#191919" stroke-width="0.35 px" style="stroke-width:0.35;stroke-miterlimit:4;stroke-dasharray:none;stroke-linecap:square;fill:#cccccc;fill-opacity:1.0;fill-rule: evenodd"/>
<path id="Cut017_f0021"  d="M 0.0 -254.625 L 4.0 -254.625 L 4.0 -254.625 L 0.0 -254.625 L 0.0 -254.625 Z " stroke="#191919" stroke-width="0.35 px" style="stroke-width:0.35;stroke-miterlimit:4;stroke-dasharray:none;stroke-linecap:square;fill:#cccccc;fill-opacity:1.0;fill-rule: evenodd"/>
<path id="Cut017_f0022"  d="M 0.0 -266.0 L 0.0 -254.625 L 0.0 -254.625 L 0.0 -266.0 L 0.0 -266.0 Z " stroke="#191919" stroke-width="0.35 px" style="stroke-width:0.35;stroke-miterlimit:4;stroke-dasharray:none;stroke-linecap:square;fill:#cccccc;fill-opacity:1.0;fill-rule: evenodd"/>
<path id="Cut017_f0023"  d="M 26.25 -266.0 L 0.0 -266.0 L 0.0 -266.0 L 26.25 -266.0 L 26.25 -266.0 Z " stroke="#191919" stroke-width="0.35 px" style="stroke-width:0.35;stroke-miterlimit:4;stroke-dasharray:none;stroke-linecap:square;fill:#cccccc;fill-opacity:1.0;fill-rule: evenodd"/>
<path id="Cut017_f0024"  d="M 26.25 -262.0 L 26.25 -266.0 L 26.25 -266.0 L 26.25 -262.0 L 26.25 -262.0 Z " stroke="#191919" stroke-width="0.35 px" style="stroke-width:0.35;stroke-miterlimit:4;stroke-dasharray:none;stroke-linecap:square;fill:#cccccc;fill-opacity:1.0;fill-rule: evenodd"/>
<path id="Cut017_f0025"  d="M 50.875 -262.0 L 26.25 -262.0 L 26.25 -262.0 L 50.875 -262.0 L 50.875 -262.0 Z " stroke="#191919" stroke-width="0.35 px" style="stroke-width:0.35;stroke-miterlimit:4;stroke-dasharray:none;stroke-linecap:square;fill:#cccccc;fill-opacity:1.0;fill-rule: evenodd"/>
<path id="Cut017_f0026"  d="M 50.875 -259.05 L 50.875 -262.0 L 50.875 -262.0 L 50.875 -259.05 L 50.875 -259.05 Z " stroke="#191919" stroke-width="0.35 px" style="stroke-width:0.35;stroke-miterlimit:4;stroke-dasharray:none;stroke-linecap:square;fill:#cccccc;fill-opacity:1.0;fill-rule: evenodd"/>
<path id="Cut017_f0027"  d="M 49.625 -259.05 L 50.875 -259.05 L 50.875 -259.05 L 49.625 -259.05 L 49.625 -259.05 Z " stroke="#191919" stroke-width="0.35 px" style="stroke-width:0.35;stroke-miterlimit:4;stroke-dasharray:none;stroke-linecap:square;fill:#cccccc;fill-opacity:1.0;fill-rule: evenodd"/>
<path id="Cut017_f0028"  d="M 49.625 -256.4 L 49.625 -259.05 L 49.625 -259.05 L 49.625 -256.4 L 49.625 -256.4 Z " stroke="#191919" stroke-width="0.35 px" style="stroke-width:0.35;stroke-miterlimit:4;stroke-dasharray:none;stroke-linecap:square;fill:#cccccc;fill-opacity:1.0;fill-rule: evenodd"/>
<path id="Cut017_f0029"  d="M 50.875 -256.4 L 49.625 -256.4 L 49.625 -256.4 L 50.875 -256.4 L 50.875 -256.4 Z " stroke="#191919" stroke-width="0.35 px" style="stroke-width:0.35;stroke-miterlimit:4;stroke-dasharray:none;stroke-linecap:square;fill:#cccccc;fill-opacity:1.0;fill-rule: evenodd"/>
<path id="Cut017_f0030"  d="M 50.875 -253.75 L 50.875 -256.4 L 50.875 -256.4 L 50.875 -253.75 L 50.875 -253.75 Z " stroke="#191919" stroke-width="0.35 px" style="stroke-width:0.35;stroke-miterlimit:4;stroke-dasharray:none;stroke-linecap:square;fill:#cccccc;fill-opacity:1.0;fill-rule: evenodd"/>
<path id="Cut017_f0031"  d="M 54.125 -253.75 L 50.875 -253.75 L 50.875 -253.75 L 54.125 -253.75 L 54.125 -253.75 Z " stroke="#191919" stroke-width="0.35 px" style="stroke-width:0.35;stroke-miterlimit:4;stroke-dasharray:none;stroke-linecap:square;fill:#cccccc;fill-opacity:1.0;fill-rule: evenodd"/>
<path id="Cut017_f0032"  d="M 54.125 -256.4 L 54.125 -253.75 L 54.125 -253.75 L 54.125 -256.4 L 54.125 -256.4 Z " stroke="#191919" stroke-width="0.35 px" style="stroke-width:0.35;stroke-miterlimit:4;stroke-dasharray:none;stroke-linecap:square;fill:#cccccc;fill-opacity:1.0;fill-rule: evenodd"/>
<path id="Cut017_f0033"  d="M 55.375 -256.4 L 54.125 -256.4 L 54.125 -256.4 L 55.375 -256.4 L 55.375 -256.4 Z " stroke="#191919" stroke-width="0.35 px" style="stroke-width:0.35;stroke-miterlimit:4;stroke-dasharray:none;stroke-linecap:square;fill:#cccccc;fill-opacity:1.0;fill-rule: evenodd"/>
<path id="Cut017_f0034"  d="M 55.375 -259.05 L 55.375 -256.4 L 55.375 -256.4 L 55.375 -259.05 L 55.375 -259.05 Z " stroke="#191919" stroke-width="0.35 px" style="stroke-width:0.35;stroke-miterlimit:4;stroke-dasharray:none;stroke-linecap:square;fill:#cccccc;fill-opacity:1.0;fill-rule: evenodd"/>
<path id="Cut017_f0035"  d="M 54.125 -259.05 L 55.375 -259.05 L 55.375 -259.05 L 54.125 -259.05 L 54.125 -259.05 Z " stroke="#191919" stroke-width="0.35 px" style="stroke-width:0.35;stroke-miterlimit:4;stroke-dasharray:none;stroke-linecap:square;fill:#cccccc;fill-opacity:1.0;fill-rule: evenodd"/>
<path id="Cut017_f0036"  d="M 54.125 -262.0 L 54.125 -259.05 L 54.125 -259.05 L 54.125 -262.0 L 54.125 -262.0 Z " stroke="#191919" stroke-width="0.35 px" style="stroke-width:0.35;stroke-miterlimit:4;stroke-dasharray:none;stroke-linecap:square;fill:#cccccc;fill-opacity:1.0;fill-rule: evenodd"/>
<path id="Cut017_f0037"  d="M 78.75 -262.0 L 54.125 -262.0 L 54.125 -262.0 L 78.75 -262.0 L 78.75 -262.0 Z " stroke="#191919" stroke-width="0.35 px" style="stroke-width:0.35;stroke-miterlimit:4;stroke-dasharray:none;stroke-linecap:square;fill:#cccccc;fill-opacity:1.0;fill-rule: evenodd"/>
<path id="Cut017_f0038"  d="M 78.75 -266.0 L 78.75 -262.0 L 78.75 -262.0 L 78.75 -266.0 L 78.75 -266.0 Z " stroke="#191919" stroke-width="0.35 px" style="stroke-width:0.35;stroke-miterlimit:4;stroke-dasharray:none;stroke-linecap:square;fill:#cccccc;fill-opacity:1.0;fill-rule: evenodd"/>
<path id="Cut017_f0039"  d="M 131.25 -266.0 L 78.75 -266.0 L 78.75 -266.0 L 131.25 -266.0 L 131.25 -266.0 Z " stroke="#191919" stroke-width="0.35 px" style="stroke-width:0.35;stroke-miterlimit:4;stroke-dasharray:none;stroke-linecap:square;fill:#cccccc;fill-opacity:1.0;fill-rule: evenodd"/>
<path id="Cut017_f0040"  d="M 131.25 -262.0 L 131.25 -266.0 L 131.25 -266.0 L 131.25 -262.0 L 131.25 -262.0 Z " stroke="#191919" stroke-width="0.35 px" style="stroke-width:0.35;stroke-miterlimit:4;stroke-dasharray:none;stroke-linecap:square;fill:#cccccc;fill-opacity:1.0;fill-rule: evenodd"/>
<path id="Cut017_f0041"  d="M 155.875 -262.0 L 131.25 -262.0 L 131.25 -262.0 L 155.875 -262.0 L 155.875 -262.0 Z " stroke="#191919" stroke-width="0.35 px" style="stroke-width:0.35;stroke-miterlimit:4;stroke-dasharray:none;stroke-linecap:square;fill:#cccccc;fill-opacity:1.0;fill-rule: evenodd"/>
<path id="Cut017_f0042"  d="M 155.875 -259.05 L 155.875 -262.0 L 155.875 -262.0 L 155.875 -259.05 L 155.875 -259.05 Z " stroke="#191919" stroke-width="0.35 px" style="stroke-width:0.35;stroke-miterlimit:4;stroke-dasharray:none;stroke-linecap:square;fill:#cccccc;fill-opacity:1.0;fill-rule: evenodd"/>
<path id="Cut017_f0043"  d="M 154.625 -259.05 L 155.875 -259.05 L 155.875 -259.05 L 154.625 -259.05 L 154.625 -259.05 Z " stroke="#191919" stroke-width="0.35 px" style="stroke-width:0.35;stroke-miterlimit:4;stroke-dasharray:none;stroke-linecap:square;fill:#cccccc;fill-opacity:1.0;fill-rule: evenodd"/>
<path id="Cut017_f0044"  d="M 154.625 -256.4 L 154.625 -259.05 L 154.625 -259.05 L 154.625 -256.4 L 154.625 -256.4 Z " stroke="#191919" stroke-width="0.35 px" style="stroke-width:0.35;stroke-miterlimit:4;stroke-dasharray:none;stroke-linecap:square;fill:#cccccc;fill-opacity:1.0;fill-rule: evenodd"/>
<path id="Cut017_f0045"  d="M 155.875 -256.4 L 154.625 -256.4 L 154.625 -256.4 L 155.875 -256.4 L 155.875 -256.4 Z " stroke="#191919" stroke-width="0.35 px" style="stroke-width:0.35;stroke-miterlimit:4;stroke-dasharray:none;stroke-linecap:square;fill:#cccccc;fill-opacity:1.0;fill-rule: evenodd"/>
<path id="Cut017_f0046"  d="M 155.875 -253.75 L 155.875 -256.4 L 155.875 -256.4 L 155.875 -253.75 L 155.875 -253.75 Z " stroke="#191919" stroke-width="0.35 px" style="stroke-width:0.35;stroke-miterlimit:4;stroke-dasharray:none;stroke-linecap:square;fill:#cccccc;fill-opacity:1.0;fill-rule: evenodd"/>
<path id="Cut017_f0047"  d="M 159.125 -253.75 L 155.875 -253.75 L 155.875 -253.75 L 159.125 -253.75 L 159.125 -253.75 Z " stroke="#191919" stroke-width="0.35 px" style="stroke-width:0.35;stroke-miterlimit:4;stroke-dasharray:none;stroke-linecap:square;fill:#cccccc;fill-opacity:1.0;fill-rule: evenodd"/>
<path id="Cut017_f0048"  d="M 159.125 -256.4 L 159.125 -253.75 L 159.125 -253.75 L 159.125 -256.4 L 159.125 -256.4 Z " stroke="#191919" stroke-width="0.35 px" style="stroke-width:0.35;stroke-miterlimit:4;stroke-dasharray:none;stroke-linecap:square;fill:#cccccc;fill-opacity:1.0;fill-rule: evenodd"/>
<path id="Cut017_f0049"  d="M 160.375 -256.4 L 159.125 -256.4 L 159.125 -256.4 L 160.375 -256.4 L 160.375 -256.4 Z " stroke="#191919" stroke-width="0.35 px" style="stroke-width:0.35;stroke-miterlimit:4;stroke-dasharray:none;stroke-linecap:square;fill:#cccccc;fill-opacity:1.0;fill-rule: evenodd"/>
<path id="Cut017_f0050"  d="M 160.375 -259.05 L 160.375 -256.4 L 160.375 -256.4 L 160.375 -259.05 L 160.375 -259.05 Z " stroke="#191919" stroke-width="0.35 px" style="stroke-width:0.35;stroke-miterlimit:4;stroke-dasharray:none;stroke-linecap:square;fill:#cccccc;fill-opacity:1.0;fill-rule: evenodd"/>
<path id="Cut017_f0051"  d="M 159.125 -259.05 L 160.375 -259.05 L 160.375 -259.05 L 159.125 -259.05 L 159.125 -259.05 Z " stroke="#191919" stroke-width="0.35 px" style="stroke-width:0.35;stroke-miterlimit:4;stroke-dasharray:none;stroke-linecap:square;fill:#cccccc;fill-opacity:1.0;fill-rule: evenodd"/>
<path id="Cut017_f0052"  d="M 159.125 -262.0 L 159.125 -259.05 L 159.125 -259.05 L 159.125 -262.0 L 159.125 -262.0 Z " stroke="#191919" stroke-width="0.35 px" style="stroke-width:0.35;stroke-miterlimit:4;stroke-dasharray:none;stroke-linecap:square;fill:#cccccc;fill-opacity:1.0;fill-rule: evenodd"/>
<path id="Cut017_f0053"  d="M 183.75 -262.0 L 159.125 -262.0 L 159.125 -262.0 L 183.75 -262.0 L 183.75 -262.0 Z " stroke="#191919" stroke-width="0.35 px" style="stroke-width:0.35;stroke-miterlimit:4;stroke-dasharray:none;stroke-linecap:square;fill:#cccccc;fill-opacity:1.0;fill-rule: evenodd"/>
<path id="Cut017_f0054"  d="M 183.75 -266.0 L 183.75 -262.0 L 183.75 -262.0 L 183.75 -266.0 L 183.75 -266.0 Z " stroke="#191919" stroke-width="0.35 px" style="stroke-width:0.35;stroke-miterlimit:4;stroke-dasharray:none;stroke-linecap:square;fill:#cccccc;fill-opacity:1.0;fill-rule: evenodd"/>
<path id="Cut017_f0055"  d="M 210.0 -266.0 L 183.75 -266.0 L 183.75 -266.0 L 210.0 -266.0 L 210.0 -266.0 Z " stroke="#191919" stroke-width="0.35 px" style="stroke-width:0.35;stroke-miterlimit:4;stroke-dasharray:none;stroke-linecap:square;fill:#cccccc;fill-opacity:1.0;fill-rule: evenodd"/>
<path id="Cut017_f0056"  d="M 210.0 -254.625 L 210.0 -266.0 L 210.0 -266.0 L 210.0 -254.625 L 210.0 -254.625 Z " stroke="#191919" stroke-width="0.35 px" style="stroke-width:0.35;stroke-miterlimit:4;stroke-dasharray:none;stroke-linecap:square;fill:#cccccc;fill-opacity:1.0;fill-rule: evenodd"/>
<path id="Cut017_f0057"  d="M 206.0 -254.625 L 210.0 -254.625 L 210.0 -254.625 L 206.0 -254.625 L 206.0 -254.625 Z " stroke="#191919" stroke-width="0.35 px" style="stroke-width:0.35;stroke-miterlimit:4;stroke-dasharray:none;stroke-linecap:square;fill:#cccccc;fill-opacity:1.0;fill-rule: evenodd"/>
<path id="Cut017_f0058"  d="M 206.0 -250.125 L 206.0 -254.625 L 206.0 -254.625 L 206.0 -250.125 L 206.0 -250.125 Z " stroke="#191919" stroke-width="0.35 px" style="stroke-width:0.35;stroke-miterlimit:4;stroke-dasharray:none;stroke-linecap:square;fill:#cccccc;fill-opacity:1.0;fill-rule: evenodd"/>
<path id="Cut017_f0059"  d="M 203.05 -250.125 L 206.0 -250.125 L 206.0 -250.125 L 203.05 -250.125 L 203.05 -250.125 Z " stroke="#191919" stroke-width="0.35 px" style="stroke-width:0.35;stroke-miterlimit:4;stroke-dasharray:none;stroke-linecap:square;fill:#cccccc;fill-opacity:1.0;fill-rule: evenodd"/>
<path id="Cut017_f0060"  d="M 203.05 -251.375 L 203.05 -250.125 L 203.05 -250.125 L 203.05 -251.375 L 203.05 -251.375 Z " stroke="#191919" stroke-width="0.35 px" style="stroke-width:0.35;stroke-miterlimit:4;stroke-dasharray:none;stroke-linecap:square;fill:#cccccc;fill-opacity:1.0;fill-rule: evenodd"/>
<path id="Cut017_f0061"  d="M 200.4 -251.375 L 203.05 -251.375 L 203.05 -251.375 L 200.4 -251.375 L 200.4 -251.375 Z " stroke="#191919" stroke-width="0.35 px" style="stroke-width:0.35;stroke-miterlimit:4;stroke-dasharray:none;stroke-linecap:square;fill:#cccccc;fill-opacity:1.0;fill-rule: evenodd"/>
<path id="Cut017_f0062"  d="M 200.4 -250.125 L 200.4 -251.375 L 200.4 -251.375 L 200.4 -250.125 L 200.4 -250.125 Z " stroke="#191919" stroke-width="0.35 px" style="stroke-width:0.35;stroke-miterlimit:4;stroke-dasharray:none;stroke-linecap:square;fill:#cccccc;fill-opacity:1.0;fill-rule: evenodd"/>
<path id="Cut017_f0063"  d="M 197.75 -250.125 L 200.4 -250.125 L 200.4 -250.125 L 197.75 -250.125 L 197.75 -250.125 Z " stroke="#191919" stroke-width="0.35 px" style="stroke-width:0.35;stroke-miterlimit:4;stroke-dasharray:none;stroke-linecap:square;fill:#cccccc;fill-opacity:1.0;fill-rule: evenodd"/>
<path id="Cut017_f0064"  d="M 197.75 -246.875 L 197.75 -250.125 L 197.75 -250.125 L 197.75 -246.875 L 197.75 -246.875 Z " stroke="#191919" stroke-width="0.35 px" style="stroke-width:0.35;stroke-miterlimit:4;stroke-dasharray:none;stroke-linecap:square;fill:#cccccc;fill-opacity:1.0;fill-rule: evenodd"/>
<path id="Cut017_f0065"  d="M 200.4 -246.875 L 197.75 -246.875 L 197.75 -246.875 L 200.4 -246.875 L 200.4 -246.875 Z " stroke="#191919" stroke-width="0.35 px" style="stroke-width:0.35;stroke-miterlimit:4;stroke-dasharray:none;stroke-linecap:square;fill:#cccccc;fill-opacity:1.0;fill-rule: evenodd"/>
<path id="Cut017_f0066"  d="M 200.4 -245.625 L 200.4 -246.875 L 200.4 -246.875 L 200.4 -245.625 L 200.4 -245.625 Z " stroke="#191919" stroke-width="0.35 px" style="stroke-width:0.35;stroke-miterlimit:4;stroke-dasharray:none;stroke-linecap:square;fill:#cccccc;fill-opacity:1.0;fill-rule: evenodd"/>
<path id="Cut017_f0067"  d="M 203.05 -245.625 L 200.4 -245.625 L 200.4 -245.625 L 203.05 -245.625 L 203.05 -245.625 Z " stroke="#191919" stroke-width="0.35 px" style="stroke-width:0.35;stroke-miterlimit:4;stroke-dasharray:none;stroke-linecap:square;fill:#cccccc;fill-opacity:1.0;fill-rule: evenodd"/>
<path id="Cut017_f0068"  d="M 203.05 -246.875 L 203.05 -245.625 L 203.05 -245.625 L 203.05 -246.875 L 203.05 -246.875 Z " stroke="#191919" stroke-width="0.35 px" style="stroke-width:0.35;stroke-miterlimit:4;stroke-dasharray:none;stroke-linecap:square;fill:#cccccc;fill-opacity:1.0;fill-rule: evenodd"/>
<path id="Cut017_f0069"  d="M 206.0 -246.875 L 203.05 -246.875 L 203.05 -246.875 L 206.0 -246.875 L 206.0 -246.875 Z " stroke="#191919" stroke-width="0.35 px" style="stroke-width:0.35;stroke-miterlimit:4;stroke-dasharray:none;stroke-linecap:square;fill:#cccccc;fill-opacity:1.0;fill-rule: evenodd"/>
<path id="Cut017_f0070"  d="M 206.0 -242.375 L 206.0 -246.875 L 206.0 -246.875 L 206.0 -242.375 L 206.0 -242.375 Z " stroke="#191919" stroke-width="0.35 px" style="stroke-width:0.35;stroke-miterlimit:4;stroke-dasharray:none;stroke-linecap:square;fill:#cccccc;fill-opacity:1.0;fill-rule: evenodd"/>
<path id="Cut017_f0071"  d="M 210.0 -242.375 L 206.0 -242.375 L 206.0 -242.375 L 210.0 -242.375 L 210.0 -242.375 Z " stroke="#191919" stroke-width="0.35 px" style="stroke-width:0.35;stroke-miterlimit:4;stroke-dasharray:none;stroke-linecap:square;fill:#cccccc;fill-opacity:1.0;fill-rule: evenodd"/>
<path id="Cut017_f0072"  d="M 210.0 -231.0 L 210.0 -242.375 L 210.0 -242.375 L 210.0 -231.0 L 210.0 -231.0 Z " stroke="#191919" stroke-width="0.35 px" style="stroke-width:0.35;stroke-miterlimit:4;stroke-dasharray:none;stroke-linecap:square;fill:#cccccc;fill-opacity:1.0;fill-rule: evenodd"/>
<path id="Cut017_f0073"  d="M 210.0 -216.0 L 210.0 -216.0 L 210.0 -231.0 L 210.0 -231.0 L 210.0 -216.0 Z " stroke="#191919" stroke-width="0.35 px" style="stroke-width:0.35;stroke-miterlimit:4;stroke-dasharray:none;stroke-linecap:square;fill:#cccccc;fill-opacity:1.0;fill-rule: evenodd"/>
<circle cx="52.0" cy="-224.0" r="1.6" stroke="#191919" stroke-width="0.35 px" style="stroke-width:0.35;stroke-miterlimit:4;stroke-dasharray:none;stroke-linecap:square;fill:#cccccc"/>
<circle cx="152.0" cy="-224.0" r="1.6" stroke="#191919" stroke-width="0.35 px" style="stroke-width:0.35;stroke-miterlimit:4;stroke-dasharray:none;stroke-linecap:square;fill:#cccccc"/>
<title>b'E_case_back001'</title>
</g>
</svg>