<?xml version="1.0"?>
<!DOCTYPE svg PUBLIC "-//W3C//DTD SVG 1.1//EN" "http://www.w3.org/Graphics/SVG/1.1/DTD/svg11.dtd">
<svg width="73.44000000000001mm" height="201.44000000000005mm" viewBox="0 0 73.44000000000001 201.44000000000005" xmlns="http://www.w3.org/2000/svg" version="1.1">
<g id="Cut010" transform="translate(0.720000,200.720000) scale(1,-1)">
<path id="Cut010_f0000"  d="M 0.0 200.00000000000006 L 0.0 0.0 L 36.00000000000001 0.0 L 36.00000000000001 2.0 L 72.0 2.0000000000000004 L 72.00000000000001 198.00000000000006 L 36.00000000000001 198.00000000000006 L 36.00000000000001 200.00000000000006 L 0.0 200.00000000000006 Z " stroke="#191919" stroke-width="0.35 px" style="stroke-width:0.35;stroke-miterlimit:4;stroke-dasharray:none;stroke-linecap:square;fill:#cccccc;fill-opacity:1.0;fill-rule: evenodd"/>
<path id="Cut010_f0001"  d="M 36.00000000000001 0.0 L 36.00000000000001 0.0 L -4.440892098500626e-16 0.0 L 0.0 0.0 L 36.00000000000001 0.0 Z " stroke="#191919" stroke-width="0.35 px" style="stroke-width:0.35;stroke-miterlimit:4;stroke-dasharray:none;stroke-linecap:square;fill:#cccccc;fill-opacity:1.0;fill-rule: evenodd"/>
<path id="Cut010_f0002"  d="M 36.00000000000001 2.0000000000000004 L 36.00000000000001 0.0 L 36.00000000000001 0.0 L 36.00000000000001 2.0 L 36.00000000000001 2.0000000000000004 Z " stroke="#191919" stroke-width="0.35 px" style="stroke-width:0.35;stroke-miterlimit:4;stroke-dasharray:none;stroke-linecap:square;fill:#cccccc;fill-opacity:1.0;fill-rule: evenodd"/>
<path id="Cut010_f0003"  d="M 72.00000000000001 2.0000000000000004 L 36.00000000000001 2.0000000000000004 L 36.00000000000001 2.0000000000000004 L 72.0 2.0000000000000004 L 72.00000000000001 2.0000000000000004 Z " stroke="#191919" stroke-width="0.35 px" style="stroke-width:0.35;stroke-miterlimit:4;stroke-dasharray:none;stroke-linecap:square;fill:#cccccc;fill-opacity:1.0;fill-rule: evenodd"/>
<path id="Cut010_f0004"  d="M 72.00000000000001 198.0 L 72.00000000000001 2.0 L 72.00000000000001 2.0000000000000004 L 72.00000000000001 198.00000000000006 L 72.00000000000001 198.00000000000006 Z " stroke="#191919" stroke-width="0.35 px" style="stroke-width:0.35;stroke-miterlimit:4;stroke-dasharray:none;stroke-linecap:square;fill:#cccccc;fill-opacity:1.0;fill-rule: evenodd"/>
<path id="Cut010_f0005"  d="M 36.00000000000001 198.00000000000006 L 36.00000000000001 198.00000000000006 L 72.0 198.00000000000006 L 72.00000000000001 198.00000000000006 L 36.00000000000001 198.00000000000006 Z " stroke="#191919" stroke-width="0.35 px" style="stroke-width:0.35;stroke-miterlimit:4;stroke-dasharray:none;stroke-linecap:square;fill:#cccccc;fill-opacity:1.0;fill-rule: evenodd"/>
<path id="Cut010_f0006"  d="M 36.00000000000001 200.00000000000006 L 36.00000000000001 198.00000000000006 L 36.00000000000001 198.00000000000006 L 36.00000000000001 200.00000000000006 L 36.00000000000001 200.00000000000006 Z " stroke="#191919" stroke-width="0.35 px" style="stroke-width:0.35;stroke-miterlimit:4;stroke-dasharray:none;stroke-linecap:square;fill:#cccccc;fill-opacity:1.0;fill-rule: evenodd"/>
<path id="Cut010_f0007"  d="M 36.0 200.00000000000006 L 0.0 200.00000000000006 L -4.440892098500625e-16 200.00000000000006 L 36.00000000000001 200.00000000000006 L 36.00000000000001 200.00000000000006 Z " stroke="#191919" stroke-width="0.35 px" style="stroke-width:0.35;stroke-miterlimit:4;stroke-dasharray:none;stroke-linecap:square;fill:#cccccc;fill-opacity:1.0;fill-rule: evenodd"/>
<path id="Cut010_f0008"  d="M -4.440892098500626e-16 0.0 L 0.0 0.0 L 0.0 200.0 L -4.440892098500625e-16 200.00000000000006 L -4.440892098500626e-16 0.0 Z " stroke="#191919" stroke-width="0.35 px" style="stroke-width:0.35;stroke-miterlimit:4;stroke-dasharray:none;stroke-linecap:square;fill:#cccccc;fill-opacity:1.0;fill-rule: evenodd"/>
<path id="Cut010_f0009"  d="M 36.00000000000001 2.0000000000000004 L 72.0 2.0000000000000004 L 72.00000000000001 198.00000000000006 L 36.00000000000001 198.00000000000006 L 36.00000000000001 200.00000000000006 L -4.440892098500626e-16 200.00000000000006 L -4.440892098500626e-16 0.0 L 36.00000000000001 0.0 L 36.00000000000001 2.0 Z " stroke="#191919" stroke-width="0.35 px" style="stroke-width:0.35;stroke-miterlimit:4;stroke-dasharray:none;stroke-linecap:square;fill:#cccccc;fill-opacity:1.0;fill-rule: evenodd"/>
<title>b'Cut010'</title>
</g>
</svg>