<?xml version="1.0"?>
<!DOCTYPE svg PUBLIC "-//W3C//DTD SVG 1.1//EN" "http://www.w3.org/Graphics/SVG/1.1/DTD/svg11.dtd">
<svg width="204.00000000000006mm" height="76.00000000000001mm" viewBox="0 0 204.00000000000006 76.00000000000001" xmlns="http://www.w3.org/2000/svg" version="1.1">
<g id="Cut" transform="translate(2.000000,2.000000) scale(1,-1)">
<path id="Cut_f0000"  d="M 0.0 -36.00000000000001 L 0.0 -36.00000000000001 L 0.0 -72.00000000000001 L 0.0 -72.00000000000001 L 0.0 -36.0 Z " stroke="#191919" stroke-width="0.35 px" style="stroke-width:0.35;stroke-miterlimit:4;stroke-dasharray:none;stroke-linecap:square;fill:#cccccc;fill-opacity:1.0;fill-rule: evenodd"/>
<path id="Cut_f0001"  d="M 2.0000000000000004 -36.00000000000001 L 2.0000000000000004 0.0 L 198.00000000000006 0.0 L 198.00000000000006 -36.0 L 200.00000000000006 -36.00000000000001 L 200.00000000000006 -72.00000000000001 L 0.0 -72.00000000000001 L 0.0 -36.0 L 2.0 -36.00000000000001 Z " stroke="#191919" stroke-width="0.35 px" style="stroke-width:0.35;stroke-miterlimit:4;stroke-dasharray:none;stroke-linecap:square;fill:#cccccc;fill-opacity:1.0;fill-rule: evenodd"/>
<path id="Cut_f0002"  d="M 0.0 -72.00000000000001 L 0.0 -72.00000000000001 L 200.0 -72.00000000000001 L 200.00000000000006 -72.00000000000001 L 0.0 -72.00000000000001 Z " stroke="#191919" stroke-width="0.35 px" style="stroke-width:0.35;stroke-miterlimit:4;stroke-dasharray:none;stroke-linecap:square;fill:#cccccc;fill-opacity:1.0;fill-rule: evenodd"/>
<path id="Cut_f0003"  d="M 198.00000000000006 -36.00000000000001 L 200.00000000000006 -36.00000000000001 L 200.00000000000006 -72.00000000000001 L 0.0 -72.00000000000001 L 0.0 -36.0 L 2.0 -36.00000000000001 L 2.0000000000000004 -4.440892098500626e-16 L 198.00000000000006 -4.440892098500626e-16 L 198.00000000000006 -36.0 Z " stroke="#191919" stroke-width="0.35 px" style="stroke-width:0.35;stroke-miterlimit:4;stroke-dasharray:none;stroke-linecap:square;fill:#cccccc;fill-opacity:1.0;fill-rule: evenodd"/>
<path id="Cut_f0004"  d="M 2.0000000000000004 -36.00000000000001 L 0.0 -36.00000000000001 L 0.0 -36.00000000000001 L 2.0 -36.00000000000001 L 2.0000000000000004 -36.00000000000001 Z " stroke="#191919" stroke-width="0.35 px" style="stroke-width:0.35;stroke-miterlimit:4;stroke-dasharray:none;stroke-linecap:square;fill:#cccccc;fill-opacity:1.0;fill-rule: evenodd"/>
<path id="Cut_f0005"  d="M 198.0 -4.440892098500626e-16 L 2.0 -4.440892098500626e-16 L 2.0000000000000004 0.0 L 198.00000000000006 0.0 L 198.00000000000006 -4.440892098500625e-16 Z " stroke="#191919" stroke-width="0.35 px" style="stroke-width:0.35;stroke-miterlimit:4;stroke-dasharray:none;stroke-linecap:square;fill:#cccccc;fill-opacity:1.0;fill-rule: evenodd"/>
<path id="Cut_f0006"  d="M 198.00000000000006 -36.00000000000001 L 198.00000000000006 0.0 L 198.00000000000006 -4.440892098500625e-16 L 198.00000000000006 -36.0 L 198.00000000000006 -36.00000000000001 Z " stroke="#191919" stroke-width="0.35 px" style="stroke-width:0.35;stroke-miterlimit:4;stroke-dasharray:none;stroke-linecap:square;fill:#cccccc;fill-opacity:1.0;fill-rule: evenodd"/>
<path id="Cut_f0007"  d="M 200.00000000000006 -36.00000000000001 L 198.00000000000006 -36.00000000000001 L 198.00000000000006 -36.00000000000001 L 200.00000000000006 -36.00000000000001 L 200.00000000000006 -36.00000000000001 Z " stroke="#191919" stroke-width="0.35 px" style="stroke-width:0.35;stroke-miterlimit:4;stroke-dasharray:none;stroke-linecap:square;fill:#cccccc;fill-opacity:1.0;fill-rule: evenodd"/>
<path id="Cut_f0008"  d="M 200.00000000000006 -72.0 L 200.00000000000006 -36.0 L 200.00000000000006 -36.00000000000001 L 200.00000000000006 -72.00000000000001 L 200.00000000000006 -72.00000000000001 Z " stroke="#191919" stroke-width="0.35 px" style="stroke-width:0.35;stroke-miterlimit:4;stroke-dasharray:none;stroke-linecap:square;fill:#cccccc;fill-opacity:1.0;fill-rule: evenodd"/>
<path id="Cut_f0009"  d="M 2.0000000000000004 -4.440892098500626e-16 L 2.0000000000000004 0.0 L 2.0000000000000004 -36.0 L 2.0000000000000004 -36.00000000000001 L 2.0000000000000004 -4.440892098500626e-16 Z " stroke="#191919" stroke-width="0.35 px" style="stroke-width:0.35;stroke-miterlimit:4;stroke-dasharray:none;stroke-linecap:square;fill:#cccccc;fill-opacity:1.0;fill-rule: evenodd"/>
<title>b'Cut'</title>
</g>
</svg>