%TF.GenerationSoftware,KiCad,Pcbnew,8.0.6*%
%TF.CreationDate,2025-01-22T12:45:06+00:00*%
%TF.ProjectId,custom_driver,63757374-6f6d-45f6-9472-697665722e6b,rev?*%
%TF.SameCoordinates,Original*%
%TF.FileFunction,Copper,L2,Bot*%
%TF.FilePolarity,Positive*%
%FSLAX46Y46*%
G04 Gerber Fmt 4.6, Leading zero omitted, Abs format (unit mm)*
G04 Created by KiCad (PCBNEW 8.0.6) date 2025-01-22 12:45:06*
%MOMM*%
%LPD*%
G01*
G04 APERTURE LIST*
%TA.AperFunction,ComponentPad*%
%ADD10C,1.600000*%
%TD*%
%TA.AperFunction,ComponentPad*%
%ADD11O,1.600000X1.600000*%
%TD*%
%TA.AperFunction,ComponentPad*%
%ADD12R,2.000000X2.000000*%
%TD*%
%TA.AperFunction,ComponentPad*%
%ADD13C,2.000000*%
%TD*%
%TA.AperFunction,ComponentPad*%
%ADD14R,1.700000X1.700000*%
%TD*%
%TA.AperFunction,ComponentPad*%
%ADD15O,1.700000X1.700000*%
%TD*%
%TA.AperFunction,ComponentPad*%
%ADD16R,1.130000X1.130000*%
%TD*%
%TA.AperFunction,ComponentPad*%
%ADD17C,1.130000*%
%TD*%
%TA.AperFunction,ComponentPad*%
%ADD18C,2.400000*%
%TD*%
%TA.AperFunction,ComponentPad*%
%ADD19O,2.400000X2.400000*%
%TD*%
%TA.AperFunction,Conductor*%
%ADD20C,0.800000*%
%TD*%
%TA.AperFunction,Conductor*%
%ADD21C,0.500000*%
%TD*%
%ADD22C,0.350000*%
G04 APERTURE END LIST*
D10*
%TO.P,R8,1*%
%TO.N,D4*%
X113000000Y-67000000D03*
D11*
%TO.P,R8,2*%
%TO.N,+12V*%
X105380000Y-67000000D03*
%TD*%
D10*
%TO.P,R7,1*%
%TO.N,D3*%
X113810000Y-97000000D03*
D11*
%TO.P,R7,2*%
%TO.N,+12V*%
X106190000Y-97000000D03*
%TD*%
D10*
%TO.P,R6,1*%
%TO.N,+12V*%
X109000000Y-80000000D03*
D11*
%TO.P,R6,2*%
%TO.N,D2*%
X116620000Y-80000000D03*
%TD*%
D10*
%TO.P,R5,1*%
%TO.N,D1*%
X117000000Y-109000000D03*
D11*
%TO.P,R5,2*%
%TO.N,+12V*%
X109380000Y-109000000D03*
%TD*%
D12*
%TO.P,Q4,1,G*%
%TO.N,G4*%
X119000000Y-71000000D03*
D13*
%TO.P,Q4,2,D*%
%TO.N,D4*%
X119000000Y-68460000D03*
%TO.P,Q4,3,S*%
%TO.N,S4*%
X119000000Y-65920000D03*
%TD*%
D14*
%TO.P,J9,1,Pin_1*%
%TO.N,+12V*%
X105000000Y-74460000D03*
D15*
%TO.P,J9,2,Pin_2*%
%TO.N,D4*%
X105000000Y-77000000D03*
%TD*%
D14*
%TO.P,J6,1,Pin_1*%
%TO.N,GND*%
X175600000Y-119000000D03*
D15*
%TO.P,J6,2,Pin_2*%
%TO.N,UVS*%
X175600000Y-116460000D03*
%TD*%
D14*
%TO.P,J8,1,Pin_1*%
%TO.N,+12V*%
X105400000Y-82700000D03*
D15*
%TO.P,J8,2,Pin_2*%
%TO.N,D2*%
X105400000Y-85240000D03*
%TD*%
D14*
%TO.P,J4,1,Pin_1*%
%TO.N,GND*%
X170300000Y-72400000D03*
D15*
%TO.P,J4,2,Pin_2*%
%TO.N,GRS*%
X167760000Y-72400000D03*
%TD*%
D10*
%TO.P,R3,1*%
%TO.N,GND*%
X139685000Y-91000000D03*
D11*
%TO.P,R3,2*%
%TO.N,S3*%
X147305000Y-91000000D03*
%TD*%
D14*
%TO.P,J1,1,Pin_1*%
%TO.N,+12V*%
X105400000Y-112700000D03*
D15*
%TO.P,J1,2,Pin_2*%
%TO.N,D1*%
X105400000Y-115240000D03*
%TD*%
D16*
%TO.P,U2,1*%
%TO.N,G4*%
X146000000Y-68060000D03*
D17*
%TO.P,U2,2*%
%TO.N,S4*%
X143460000Y-68060000D03*
%TO.P,U2,3*%
%TO.N,GRO*%
X140920000Y-68060000D03*
%TO.P,U2,4,GND*%
%TO.N,GND*%
X138380000Y-68060000D03*
%TO.P,U2,5*%
%TO.N,UVO*%
X138380000Y-76000000D03*
%TO.P,U2,6*%
%TO.N,S2*%
X140920000Y-76000000D03*
%TO.P,U2,7*%
%TO.N,G2*%
X143460000Y-76000000D03*
%TO.P,U2,8,V+*%
%TO.N,+12V*%
X146000000Y-76000000D03*
%TD*%
D14*
%TO.P,J7,1,Pin_1*%
%TO.N,GND*%
X175600000Y-110025000D03*
D15*
%TO.P,J7,2,Pin_2*%
%TO.N,UVS*%
X175600000Y-107485000D03*
%TO.P,J7,3,Pin_3*%
%TO.N,UVO*%
X175600000Y-104945000D03*
%TD*%
D14*
%TO.P,J3,1,Pin_1*%
%TO.N,GND*%
X175600000Y-85300000D03*
D15*
%TO.P,J3,2,Pin_2*%
%TO.N,+12V*%
X175600000Y-82760000D03*
%TD*%
D12*
%TO.P,Q1,1,G*%
%TO.N,G1*%
X122000000Y-116080000D03*
D13*
%TO.P,Q1,2,D*%
%TO.N,D1*%
X122000000Y-113540000D03*
%TO.P,Q1,3,S*%
%TO.N,S1*%
X122000000Y-111000000D03*
%TD*%
D12*
%TO.P,Q2,1,G*%
%TO.N,G2*%
X121000000Y-85080000D03*
D13*
%TO.P,Q2,2,D*%
%TO.N,D2*%
X121000000Y-82540000D03*
%TO.P,Q2,3,S*%
%TO.N,S2*%
X121000000Y-80000000D03*
%TD*%
D18*
%TO.P,R1,1*%
%TO.N,S1*%
X127000000Y-115000000D03*
D19*
%TO.P,R1,2*%
%TO.N,GND*%
X167640000Y-115000000D03*
%TD*%
D10*
%TO.P,R4,1*%
%TO.N,GND*%
X139685000Y-65000000D03*
D11*
%TO.P,R4,2*%
%TO.N,S4*%
X147305000Y-65000000D03*
%TD*%
D14*
%TO.P,J5,1,Pin_1*%
%TO.N,GND*%
X160525000Y-72400000D03*
D15*
%TO.P,J5,2,Pin_2*%
%TO.N,GRS*%
X157985000Y-72400000D03*
%TO.P,J5,3,Pin_3*%
%TO.N,GRO*%
X155445000Y-72400000D03*
%TD*%
D12*
%TO.P,Q3,1,G*%
%TO.N,G3*%
X119000000Y-103080000D03*
D13*
%TO.P,Q3,2,D*%
%TO.N,D3*%
X119000000Y-100540000D03*
%TO.P,Q3,3,S*%
%TO.N,S3*%
X119000000Y-98000000D03*
%TD*%
D18*
%TO.P,R2,1*%
%TO.N,S2*%
X129000000Y-82000000D03*
D19*
%TO.P,R2,2*%
%TO.N,GND*%
X169640000Y-82000000D03*
%TD*%
D16*
%TO.P,U1,1*%
%TO.N,G3*%
X147000000Y-97000000D03*
D17*
%TO.P,U1,2*%
%TO.N,S3*%
X144460000Y-97000000D03*
%TO.P,U1,3*%
%TO.N,GRO*%
X141920000Y-97000000D03*
%TO.P,U1,4,GND*%
%TO.N,GND*%
X139380000Y-97000000D03*
%TO.P,U1,5*%
%TO.N,UVO*%
X139380000Y-104940000D03*
%TO.P,U1,6*%
%TO.N,S1*%
X141920000Y-104940000D03*
%TO.P,U1,7*%
%TO.N,G1*%
X144460000Y-104940000D03*
%TO.P,U1,8,V+*%
%TO.N,+12V*%
X147000000Y-104940000D03*
%TD*%
D14*
%TO.P,J2,1,Pin_1*%
%TO.N,+12V*%
X105400000Y-103700000D03*
D15*
%TO.P,J2,2,Pin_2*%
%TO.N,D3*%
X105400000Y-106240000D03*
%TD*%
D20*
%TO.N,+12V*%
X146000000Y-76000000D02*
X149000000Y-76000000D01*
X105000000Y-74460000D02*
X108460000Y-74460000D01*
X107700000Y-103700000D02*
X105400000Y-103700000D01*
X162000000Y-96000000D02*
X162000000Y-100000000D01*
X110000000Y-106000000D02*
X107700000Y-103700000D01*
X110000000Y-109000000D02*
X110000000Y-107000000D01*
X162000000Y-95157919D02*
X162000000Y-96000000D01*
X107300000Y-82700000D02*
X105400000Y-82700000D01*
X110000000Y-80000000D02*
X110000000Y-107000000D01*
X107300000Y-112700000D02*
X110000000Y-110000000D01*
X111000000Y-108000000D02*
X143940000Y-108000000D01*
X110000000Y-110000000D02*
X110000000Y-109000000D01*
X149000000Y-76000000D02*
X162000000Y-89000000D01*
X108460000Y-74460000D02*
X110000000Y-76000000D01*
X110000000Y-107000000D02*
X110000000Y-106000000D01*
X174397919Y-82760000D02*
X162000000Y-95157919D01*
X175600000Y-82760000D02*
X174397919Y-82760000D01*
X110000000Y-76000000D02*
X110000000Y-80000000D01*
X105400000Y-112700000D02*
X107300000Y-112700000D01*
X110000000Y-80000000D02*
X107300000Y-82700000D01*
X157060000Y-104940000D02*
X147000000Y-104940000D01*
X143940000Y-108000000D02*
X147000000Y-104940000D01*
X162000000Y-100000000D02*
X157060000Y-104940000D01*
X162000000Y-89000000D02*
X162000000Y-96000000D01*
X110000000Y-109000000D02*
X111000000Y-108000000D01*
D21*
%TO.N,UVO*%
X138380000Y-76000000D02*
X135000000Y-79380000D01*
X135000000Y-79380000D02*
X135000000Y-100560000D01*
X135000000Y-100560000D02*
X139380000Y-104940000D01*
%TD*%
%TA.AperFunction,Conductor*%
%TO.N,GND*%
G36*
X184442539Y-62520185D02*
G01*
X184488294Y-62572989D01*
X184499500Y-62624500D01*
X184499500Y-121375500D01*
X184479815Y-121442539D01*
X184427011Y-121488294D01*
X184375500Y-121499500D01*
X95624500Y-121499500D01*
X95557461Y-121479815D01*
X95511706Y-121427011D01*
X95500500Y-121375500D01*
X95500500Y-97878711D01*
X98149500Y-97878711D01*
X98149500Y-98121288D01*
X98181161Y-98361785D01*
X98243947Y-98596104D01*
X98336773Y-98820205D01*
X98336776Y-98820212D01*
X98458064Y-99030289D01*
X98458066Y-99030292D01*
X98458067Y-99030293D01*
X98605733Y-99222736D01*
X98605739Y-99222743D01*
X98777256Y-99394260D01*
X98777262Y-99394265D01*
X98969711Y-99541936D01*
X99179788Y-99663224D01*
X99403900Y-99756054D01*
X99638211Y-99818838D01*
X99818586Y-99842584D01*
X99878711Y-99850500D01*
X99878712Y-99850500D01*
X100121289Y-99850500D01*
X100169388Y-99844167D01*
X100361789Y-99818838D01*
X100596100Y-99756054D01*
X100820212Y-99663224D01*
X101030289Y-99541936D01*
X101222738Y-99394265D01*
X101394265Y-99222738D01*
X101541936Y-99030289D01*
X101663224Y-98820212D01*
X101756054Y-98596100D01*
X101818838Y-98361789D01*
X101850500Y-98121288D01*
X101850500Y-97878712D01*
X101845290Y-97839141D01*
X101823350Y-97672483D01*
X101818838Y-97638211D01*
X101756054Y-97403900D01*
X101663224Y-97179788D01*
X101559422Y-96999998D01*
X104884532Y-96999998D01*
X104884532Y-97000001D01*
X104904364Y-97226686D01*
X104904366Y-97226697D01*
X104963258Y-97446488D01*
X104963261Y-97446497D01*
X105059431Y-97652732D01*
X105059432Y-97652734D01*
X105189954Y-97839141D01*
X105350858Y-98000045D01*
X105350861Y-98000047D01*
X105537266Y-98130568D01*
X105743504Y-98226739D01*
X105963308Y-98285635D01*
X106125230Y-98299801D01*
X106189998Y-98305468D01*
X106190000Y-98305468D01*
X106190002Y-98305468D01*
X106246673Y-98300509D01*
X106416692Y-98285635D01*
X106636496Y-98226739D01*
X106842734Y-98130568D01*
X107029139Y-98000047D01*
X107190047Y-97839139D01*
X107320568Y-97652734D01*
X107416739Y-97446496D01*
X107475635Y-97226692D01*
X107495468Y-97000000D01*
X107475635Y-96773308D01*
X107416739Y-96553504D01*
X107320568Y-96347266D01*
X107212319Y-96192669D01*
X107190045Y-96160858D01*
X107029141Y-95999954D01*
X106842734Y-95869432D01*
X106842732Y-95869431D01*
X106636497Y-95773261D01*
X106636488Y-95773258D01*
X106416697Y-95714366D01*
X106416693Y-95714365D01*
X106416692Y-95714365D01*
X106416691Y-95714364D01*
X106416686Y-95714364D01*
X106190002Y-95694532D01*
X106189998Y-95694532D01*
X105963313Y-95714364D01*
X105963302Y-95714366D01*
X105743511Y-95773258D01*
X105743502Y-95773261D01*
X105537267Y-95869431D01*
X105537265Y-95869432D01*
X105350858Y-95999954D01*
X105189954Y-96160858D01*
X105059432Y-96347265D01*
X105059431Y-96347267D01*
X104963261Y-96553502D01*
X104963258Y-96553511D01*
X104904366Y-96773302D01*
X104904364Y-96773313D01*
X104884532Y-96999998D01*
X101559422Y-96999998D01*
X101541936Y-96969711D01*
X101394265Y-96777262D01*
X101394260Y-96777256D01*
X101222743Y-96605739D01*
X101222736Y-96605733D01*
X101030293Y-96458067D01*
X101030292Y-96458066D01*
X101030289Y-96458064D01*
X100838381Y-96347266D01*
X100820214Y-96336777D01*
X100820205Y-96336773D01*
X100596104Y-96243947D01*
X100404733Y-96192669D01*
X100361789Y-96181162D01*
X100361788Y-96181161D01*
X100361785Y-96181161D01*
X100121289Y-96149500D01*
X100121288Y-96149500D01*
X99878712Y-96149500D01*
X99878711Y-96149500D01*
X99638214Y-96181161D01*
X99403895Y-96243947D01*
X99179794Y-96336773D01*
X99179785Y-96336777D01*
X98969706Y-96458067D01*
X98777263Y-96605733D01*
X98777256Y-96605739D01*
X98605739Y-96777256D01*
X98605733Y-96777263D01*
X98458067Y-96969706D01*
X98336777Y-97179785D01*
X98336773Y-97179794D01*
X98243947Y-97403895D01*
X98181161Y-97638214D01*
X98149500Y-97878711D01*
X95500500Y-97878711D01*
X95500500Y-76999999D01*
X103644341Y-76999999D01*
X103644341Y-77000000D01*
X103664936Y-77235403D01*
X103664938Y-77235413D01*
X103726094Y-77463655D01*
X103726096Y-77463659D01*
X103726097Y-77463663D01*
X103825965Y-77677830D01*
X103825967Y-77677834D01*
X103934281Y-77832521D01*
X103961505Y-77871401D01*
X104128599Y-78038495D01*
X104225384Y-78106265D01*
X104322165Y-78174032D01*
X104322167Y-78174033D01*
X104322170Y-78174035D01*
X104536337Y-78273903D01*
X104764592Y-78335063D01*
X104952918Y-78351539D01*
X104999999Y-78355659D01*
X105000000Y-78355659D01*
X105000001Y-78355659D01*
X105039234Y-78352226D01*
X105235408Y-78335063D01*
X105463663Y-78273903D01*
X105677830Y-78174035D01*
X105871401Y-78038495D01*
X106038495Y-77871401D01*
X106174035Y-77677830D01*
X106273903Y-77463663D01*
X106335063Y-77235408D01*
X106355659Y-77000000D01*
X106335063Y-76764592D01*
X106273903Y-76536337D01*
X106174035Y-76322171D01*
X106094705Y-76208876D01*
X106038496Y-76128600D01*
X106038495Y-76128599D01*
X105916567Y-76006671D01*
X105883084Y-75945351D01*
X105888068Y-75875659D01*
X105929939Y-75819725D01*
X105960915Y-75802810D01*
X106092331Y-75753796D01*
X106207546Y-75667546D01*
X106293796Y-75552331D01*
X106301149Y-75532615D01*
X106335258Y-75441167D01*
X106377129Y-75385233D01*
X106442593Y-75360816D01*
X106451440Y-75360500D01*
X108035638Y-75360500D01*
X108102677Y-75380185D01*
X108123319Y-75396819D01*
X109063181Y-76336681D01*
X109096666Y-76398004D01*
X109099500Y-76424362D01*
X109099500Y-78572201D01*
X109079815Y-78639240D01*
X109027011Y-78684995D01*
X108986308Y-78695729D01*
X108773312Y-78714364D01*
X108773302Y-78714366D01*
X108553511Y-78773258D01*
X108553502Y-78773261D01*
X108347267Y-78869431D01*
X108347265Y-78869432D01*
X108160858Y-78999954D01*
X107999954Y-79160858D01*
X107869432Y-79347265D01*
X107869431Y-79347267D01*
X107773261Y-79553502D01*
X107773258Y-79553511D01*
X107714366Y-79773302D01*
X107714364Y-79773313D01*
X107694532Y-79999998D01*
X107694532Y-80000001D01*
X107714364Y-80226686D01*
X107714366Y-80226697D01*
X107773258Y-80446488D01*
X107773261Y-80446497D01*
X107809228Y-80523628D01*
X107869432Y-80652734D01*
X107879532Y-80667159D01*
X107893905Y-80687685D01*
X107916232Y-80753891D01*
X107899220Y-80821658D01*
X107880010Y-80846488D01*
X106963319Y-81763181D01*
X106901996Y-81796666D01*
X106875638Y-81799500D01*
X106851440Y-81799500D01*
X106784401Y-81779815D01*
X106738646Y-81727011D01*
X106735258Y-81718833D01*
X106693797Y-81607671D01*
X106693793Y-81607664D01*
X106607547Y-81492455D01*
X106607544Y-81492452D01*
X106492335Y-81406206D01*
X106492328Y-81406202D01*
X106357482Y-81355908D01*
X106357483Y-81355908D01*
X106297883Y-81349501D01*
X106297881Y-81349500D01*
X106297873Y-81349500D01*
X106297864Y-81349500D01*
X104502129Y-81349500D01*
X104502123Y-81349501D01*
X104442516Y-81355908D01*
X104307671Y-81406202D01*
X104307664Y-81406206D01*
X104192455Y-81492452D01*
X104192452Y-81492455D01*
X104106206Y-81607664D01*
X104106202Y-81607671D01*
X104055908Y-81742517D01*
X104049501Y-81802116D01*
X104049500Y-81802135D01*
X104049500Y-83597870D01*
X104049501Y-83597876D01*
X104055908Y-83657483D01*
X104106202Y-83792328D01*
X104106206Y-83792335D01*
X104192452Y-83907544D01*
X104192455Y-83907547D01*
X104307664Y-83993793D01*
X104307671Y-83993797D01*
X104439081Y-84042810D01*
X104495015Y-84084681D01*
X104519432Y-84150145D01*
X104504580Y-84218418D01*
X104483430Y-84246673D01*
X104361503Y-84368600D01*
X104225965Y-84562169D01*
X104225964Y-84562171D01*
X104126098Y-84776335D01*
X104126094Y-84776344D01*
X104064938Y-85004586D01*
X104064936Y-85004596D01*
X104044341Y-85239999D01*
X104044341Y-85240000D01*
X104064936Y-85475403D01*
X104064938Y-85475413D01*
X104126094Y-85703655D01*
X104126096Y-85703659D01*
X104126097Y-85703663D01*
X104171020Y-85800000D01*
X104225965Y-85917830D01*
X104225967Y-85917834D01*
X104334281Y-86072521D01*
X104361505Y-86111401D01*
X104528599Y-86278495D01*
X104591199Y-86322328D01*
X104722165Y-86414032D01*
X104722167Y-86414033D01*
X104722170Y-86414035D01*
X104936337Y-86513903D01*
X104936343Y-86513904D01*
X104936344Y-86513905D01*
X104973262Y-86523797D01*
X105164592Y-86575063D01*
X105352918Y-86591539D01*
X105399999Y-86595659D01*
X105400000Y-86595659D01*
X105400001Y-86595659D01*
X105439234Y-86592226D01*
X105635408Y-86575063D01*
X105863663Y-86513903D01*
X106077830Y-86414035D01*
X106271401Y-86278495D01*
X106438495Y-86111401D01*
X106574035Y-85917830D01*
X106673903Y-85703663D01*
X106735063Y-85475408D01*
X106755659Y-85240000D01*
X106735063Y-85004592D01*
X106673903Y-84776337D01*
X106574035Y-84562171D01*
X106465012Y-84406470D01*
X106438496Y-84368600D01*
X106412516Y-84342620D01*
X106316567Y-84246671D01*
X106283084Y-84185351D01*
X106288068Y-84115659D01*
X106329939Y-84059725D01*
X106360915Y-84042810D01*
X106492331Y-83993796D01*
X106607546Y-83907546D01*
X106693796Y-83792331D01*
X106708200Y-83753713D01*
X106735258Y-83681167D01*
X106777129Y-83625233D01*
X106842593Y-83600816D01*
X106851440Y-83600500D01*
X107388693Y-83600500D01*
X107388694Y-83600499D01*
X107562666Y-83565895D01*
X107644606Y-83531953D01*
X107726547Y-83498013D01*
X107816617Y-83437830D01*
X107874036Y-83399464D01*
X108887819Y-82385679D01*
X108949142Y-82352195D01*
X109018833Y-82357179D01*
X109074767Y-82399050D01*
X109099184Y-82464515D01*
X109099500Y-82473361D01*
X109099500Y-103526638D01*
X109079815Y-103593677D01*
X109027011Y-103639432D01*
X108957853Y-103649376D01*
X108894297Y-103620351D01*
X108887819Y-103614319D01*
X108274035Y-103000535D01*
X108274030Y-103000531D01*
X108214961Y-102961064D01*
X108214960Y-102961063D01*
X108126544Y-102901985D01*
X108126542Y-102901984D01*
X108044607Y-102868046D01*
X108044606Y-102868046D01*
X107962666Y-102834105D01*
X107962658Y-102834103D01*
X107788696Y-102799500D01*
X107788692Y-102799500D01*
X107788691Y-102799500D01*
X106851440Y-102799500D01*
X106784401Y-102779815D01*
X106738646Y-102727011D01*
X106735258Y-102718833D01*
X106693797Y-102607671D01*
X106693793Y-102607664D01*
X106607547Y-102492455D01*
X106607544Y-102492452D01*
X106492335Y-102406206D01*
X106492328Y-102406202D01*
X106357482Y-102355908D01*
X106357483Y-102355908D01*
X106297883Y-102349501D01*
X106297881Y-102349500D01*
X106297873Y-102349500D01*
X106297864Y-102349500D01*
X104502129Y-102349500D01*
X104502123Y-102349501D01*
X104442516Y-102355908D01*
X104307671Y-102406202D01*
X104307664Y-102406206D01*
X104192455Y-102492452D01*
X104192452Y-102492455D01*
X104106206Y-102607664D01*
X104106202Y-102607671D01*
X104055908Y-102742517D01*
X104049501Y-102802116D01*
X104049500Y-102802135D01*
X104049500Y-104597870D01*
X104049501Y-104597876D01*
X104055908Y-104657483D01*
X104106202Y-104792328D01*
X104106206Y-104792335D01*
X104192452Y-104907544D01*
X104192455Y-104907547D01*
X104307664Y-104993793D01*
X104307671Y-104993797D01*
X104439081Y-105042810D01*
X104495015Y-105084681D01*
X104519432Y-105150145D01*
X104504580Y-105218418D01*
X104483430Y-105246673D01*
X104361503Y-105368600D01*
X104225965Y-105562169D01*
X104225964Y-105562171D01*
X104126098Y-105776335D01*
X104126094Y-105776344D01*
X104064938Y-106004586D01*
X104064936Y-106004596D01*
X104044341Y-106239999D01*
X104044341Y-106240000D01*
X104064936Y-106475403D01*
X104064938Y-106475413D01*
X104126094Y-106703655D01*
X104126096Y-106703659D01*
X104126097Y-106703663D01*
X104174363Y-106807169D01*
X104225965Y-106917830D01*
X104225967Y-106917834D01*
X104266346Y-106975500D01*
X104361505Y-107111401D01*
X104528599Y-107278495D01*
X104625384Y-107346265D01*
X104722165Y-107414032D01*
X104722167Y-107414033D01*
X104722170Y-107414035D01*
X104936337Y-107513903D01*
X105164592Y-107575063D01*
X105352918Y-107591539D01*
X105399999Y-107595659D01*
X105400000Y-107595659D01*
X105400001Y-107595659D01*
X105439234Y-107592226D01*
X105635408Y-107575063D01*
X105863663Y-107513903D01*
X106077830Y-107414035D01*
X106271401Y-107278495D01*
X106438495Y-107111401D01*
X106574035Y-106917830D01*
X106673903Y-106703663D01*
X106735063Y-106475408D01*
X106755659Y-106240000D01*
X106735063Y-106004592D01*
X106673903Y-105776337D01*
X106574035Y-105562171D01*
X106554887Y-105534825D01*
X106438496Y-105368600D01*
X106419618Y-105349722D01*
X106316567Y-105246671D01*
X106283084Y-105185351D01*
X106288068Y-105115659D01*
X106329939Y-105059725D01*
X106360915Y-105042810D01*
X106492331Y-104993796D01*
X106607546Y-104907546D01*
X106693796Y-104792331D01*
X106724410Y-104710251D01*
X106735258Y-104681167D01*
X106777129Y-104625233D01*
X106842593Y-104600816D01*
X106851440Y-104600500D01*
X107275638Y-104600500D01*
X107342677Y-104620185D01*
X107363319Y-104636819D01*
X109063181Y-106336681D01*
X109096666Y-106398004D01*
X109099500Y-106424362D01*
X109099500Y-107633633D01*
X109079815Y-107700672D01*
X109027011Y-107746427D01*
X109007596Y-107753407D01*
X108933503Y-107773261D01*
X108727267Y-107869431D01*
X108727265Y-107869432D01*
X108540858Y-107999954D01*
X108379954Y-108160858D01*
X108249432Y-108347265D01*
X108249431Y-108347267D01*
X108153261Y-108553502D01*
X108153258Y-108553511D01*
X108094366Y-108773302D01*
X108094364Y-108773313D01*
X108074532Y-108999998D01*
X108074532Y-109000001D01*
X108094364Y-109226686D01*
X108094366Y-109226697D01*
X108153258Y-109446488D01*
X108153261Y-109446497D01*
X108249431Y-109652732D01*
X108249432Y-109652734D01*
X108379954Y-109839141D01*
X108544689Y-110003876D01*
X108543184Y-110005380D01*
X108576801Y-110055867D01*
X108577936Y-110125728D01*
X108546088Y-110180411D01*
X106963319Y-111763181D01*
X106901996Y-111796666D01*
X106875638Y-111799500D01*
X106851440Y-111799500D01*
X106784401Y-111779815D01*
X106738646Y-111727011D01*
X106735258Y-111718833D01*
X106693797Y-111607671D01*
X106693793Y-111607664D01*
X106607547Y-111492455D01*
X106607544Y-111492452D01*
X106492335Y-111406206D01*
X106492328Y-111406202D01*
X106357482Y-111355908D01*
X106357483Y-111355908D01*
X106297883Y-111349501D01*
X106297881Y-111349500D01*
X106297873Y-111349500D01*
X106297864Y-111349500D01*
X104502129Y-111349500D01*
X104502123Y-111349501D01*
X104442516Y-111355908D01*
X104307671Y-111406202D01*
X104307664Y-111406206D01*
X104192455Y-111492452D01*
X104192452Y-111492455D01*
X104106206Y-111607664D01*
X104106202Y-111607671D01*
X104055908Y-111742517D01*
X104049501Y-111802116D01*
X104049500Y-111802135D01*
X104049500Y-113597870D01*
X104049501Y-113597876D01*
X104055908Y-113657483D01*
X104106202Y-113792328D01*
X104106206Y-113792335D01*
X104192452Y-113907544D01*
X104192455Y-113907547D01*
X104307664Y-113993793D01*
X104307671Y-113993797D01*
X104439081Y-114042810D01*
X104495015Y-114084681D01*
X104519432Y-114150145D01*
X104504580Y-114218418D01*
X104483430Y-114246673D01*
X104361503Y-114368600D01*
X104225965Y-114562169D01*
X104225964Y-114562171D01*
X104126098Y-114776335D01*
X104126094Y-114776344D01*
X104064938Y-115004586D01*
X104064936Y-115004596D01*
X104044341Y-115239999D01*
X104044341Y-115240000D01*
X104064936Y-115475403D01*
X104064938Y-115475413D01*
X104126094Y-115703655D01*
X104126096Y-115703659D01*
X104126097Y-115703663D01*
X104142888Y-115739671D01*
X104225965Y-115917830D01*
X104225967Y-115917834D01*
X104280936Y-115996337D01*
X104361505Y-116111401D01*
X104528599Y-116278495D01*
X104625384Y-116346265D01*
X104722165Y-116414032D01*
X104722167Y-116414033D01*
X104722170Y-116414035D01*
X104936337Y-116513903D01*
X105164592Y-116575063D01*
X105352918Y-116591539D01*
X105399999Y-116595659D01*
X105400000Y-116595659D01*
X105400001Y-116595659D01*
X105439234Y-116592226D01*
X105635408Y-116575063D01*
X105863663Y-116513903D01*
X106077830Y-116414035D01*
X106271401Y-116278495D01*
X106438495Y-116111401D01*
X106574035Y-115917830D01*
X106673903Y-115703663D01*
X106735063Y-115475408D01*
X106755659Y-115240000D01*
X106735063Y-115004592D01*
X106673903Y-114776337D01*
X106574035Y-114562171D01*
X106547221Y-114523877D01*
X106438496Y-114368600D01*
X106438495Y-114368599D01*
X106316567Y-114246671D01*
X106283084Y-114185351D01*
X106288068Y-114115659D01*
X106329939Y-114059725D01*
X106360915Y-114042810D01*
X106492331Y-113993796D01*
X106607546Y-113907546D01*
X106693796Y-113792331D01*
X106701149Y-113772615D01*
X106735258Y-113681167D01*
X106777129Y-113625233D01*
X106842593Y-113600816D01*
X106851440Y-113600500D01*
X107388693Y-113600500D01*
X107388694Y-113600499D01*
X107562666Y-113565895D01*
X107644606Y-113531953D01*
X107726547Y-113498013D01*
X107726549Y-113498011D01*
X107726552Y-113498010D01*
X107814955Y-113438939D01*
X107814955Y-113438938D01*
X107814959Y-113438936D01*
X107874036Y-113399464D01*
X110273505Y-110999994D01*
X120494357Y-110999994D01*
X120494357Y-111000005D01*
X120514890Y-111247812D01*
X120514892Y-111247824D01*
X120575936Y-111488881D01*
X120675826Y-111716606D01*
X120811833Y-111924782D01*
X120811836Y-111924785D01*
X120980256Y-112107738D01*
X121063008Y-112172147D01*
X121103821Y-112228857D01*
X121107496Y-112298630D01*
X121072864Y-112359313D01*
X121063014Y-112367848D01*
X121004400Y-112413469D01*
X120980257Y-112432261D01*
X120811833Y-112615217D01*
X120675826Y-112823393D01*
X120575936Y-113051118D01*
X120514892Y-113292175D01*
X120514890Y-113292187D01*
X120494357Y-113539994D01*
X120494357Y-113540005D01*
X120514890Y-113787812D01*
X120514892Y-113787824D01*
X120575936Y-114028881D01*
X120671470Y-114246674D01*
X120675827Y-114256607D01*
X120806742Y-114456988D01*
X120826929Y-114523877D01*
X120807749Y-114591063D01*
X120762367Y-114633637D01*
X120757670Y-114636201D01*
X120642455Y-114722452D01*
X120642452Y-114722455D01*
X120556206Y-114837664D01*
X120556202Y-114837671D01*
X120505908Y-114972517D01*
X120499501Y-115032116D01*
X120499501Y-115032123D01*
X120499500Y-115032135D01*
X120499500Y-117127870D01*
X120499501Y-117127876D01*
X120505908Y-117187483D01*
X120556202Y-117322328D01*
X120556206Y-117322335D01*
X120642452Y-117437544D01*
X120642455Y-117437547D01*
X120757664Y-117523793D01*
X120757671Y-117523797D01*
X120892517Y-117574091D01*
X120892516Y-117574091D01*
X120899444Y-117574835D01*
X120952127Y-117580500D01*
X123047872Y-117580499D01*
X123107483Y-117574091D01*
X123242331Y-117523796D01*
X123357546Y-117437546D01*
X123443796Y-117322331D01*
X123494091Y-117187483D01*
X123500500Y-117127873D01*
X123500499Y-115032128D01*
X123497045Y-114999995D01*
X125294732Y-114999995D01*
X125294732Y-115000004D01*
X125313777Y-115254154D01*
X125321037Y-115285964D01*
X125370492Y-115502637D01*
X125463607Y-115739888D01*
X125591041Y-115960612D01*
X125749950Y-116159877D01*
X125936783Y-116333232D01*
X126147366Y-116476805D01*
X126147371Y-116476807D01*
X126147372Y-116476808D01*
X126147373Y-116476809D01*
X126269328Y-116535538D01*
X126376992Y-116587387D01*
X126376993Y-116587387D01*
X126376996Y-116587389D01*
X126620542Y-116662513D01*
X126872565Y-116700500D01*
X127127435Y-116700500D01*
X127379458Y-116662513D01*
X127623004Y-116587389D01*
X127852634Y-116476805D01*
X128063217Y-116333232D01*
X128250050Y-116159877D01*
X128408959Y-115960612D01*
X128536393Y-115739888D01*
X128629508Y-115502637D01*
X128686222Y-115254157D01*
X128695905Y-115124938D01*
X128705268Y-115000004D01*
X128705268Y-114999995D01*
X128687913Y-114768409D01*
X128686534Y-114750000D01*
X165953968Y-114750000D01*
X167091518Y-114750000D01*
X167080889Y-114768409D01*
X167040000Y-114921009D01*
X167040000Y-115078991D01*
X167080889Y-115231591D01*
X167091518Y-115250000D01*
X165953968Y-115250000D01*
X165954274Y-115254079D01*
X165954275Y-115254086D01*
X166010967Y-115502475D01*
X166010973Y-115502494D01*
X166104058Y-115739671D01*
X166104057Y-115739671D01*
X166231455Y-115960328D01*
X166390320Y-116159540D01*
X166577097Y-116332842D01*
X166787616Y-116476371D01*
X166787624Y-116476376D01*
X167017176Y-116586921D01*
X167017174Y-116586921D01*
X167260652Y-116662024D01*
X167260660Y-116662026D01*
X167390000Y-116681520D01*
X167390000Y-115548482D01*
X167408409Y-115559111D01*
X167561009Y-115600000D01*
X167718991Y-115600000D01*
X167871591Y-115559111D01*
X167890000Y-115548482D01*
X167890000Y-116681519D01*
X168019339Y-116662026D01*
X168019347Y-116662024D01*
X168262824Y-116586921D01*
X168492376Y-116476376D01*
X168492377Y-116476375D01*
X168516396Y-116459999D01*
X174244341Y-116459999D01*
X174244341Y-116460000D01*
X174264936Y-116695403D01*
X174264938Y-116695413D01*
X174326094Y-116923655D01*
X174326096Y-116923659D01*
X174326097Y-116923663D01*
X174398527Y-117078990D01*
X174425962Y-117137824D01*
X174425967Y-117137834D01*
X174460732Y-117187483D01*
X174561501Y-117331396D01*
X174561506Y-117331402D01*
X174683818Y-117453714D01*
X174717303Y-117515037D01*
X174712319Y-117584729D01*
X174670447Y-117640662D01*
X174639471Y-117657577D01*
X174507912Y-117706646D01*
X174507906Y-117706649D01*
X174392812Y-117792809D01*
X174392809Y-117792812D01*
X174306649Y-117907906D01*
X174306645Y-117907913D01*
X174256403Y-118042620D01*
X174256401Y-118042627D01*
X174250000Y-118102155D01*
X174250000Y-118750000D01*
X175166988Y-118750000D01*
X175134075Y-118807007D01*
X175100000Y-118934174D01*
X175100000Y-119065826D01*
X175134075Y-119192993D01*
X175166988Y-119250000D01*
X174250000Y-119250000D01*
X174250000Y-119897844D01*
X174256401Y-119957372D01*
X174256403Y-119957379D01*
X174306645Y-120092086D01*
X174306649Y-120092093D01*
X174392809Y-120207187D01*
X174392812Y-120207190D01*
X174507906Y-120293350D01*
X174507913Y-120293354D01*
X174642620Y-120343596D01*
X174642627Y-120343598D01*
X174702155Y-120349999D01*
X174702172Y-120350000D01*
X175350000Y-120350000D01*
X175350000Y-119433012D01*
X175407007Y-119465925D01*
X175534174Y-119500000D01*
X175665826Y-119500000D01*
X175792993Y-119465925D01*
X175850000Y-119433012D01*
X175850000Y-120350000D01*
X176497828Y-120350000D01*
X176497844Y-120349999D01*
X176557372Y-120343598D01*
X176557379Y-120343596D01*
X176692086Y-120293354D01*
X176692093Y-120293350D01*
X176807187Y-120207190D01*
X176807190Y-120207187D01*
X176893350Y-120092093D01*
X176893354Y-120092086D01*
X176943596Y-119957379D01*
X176943598Y-119957372D01*
X176949999Y-119897844D01*
X176950000Y-119897827D01*
X176950000Y-119250000D01*
X176033012Y-119250000D01*
X176065925Y-119192993D01*
X176100000Y-119065826D01*
X176100000Y-118934174D01*
X176065925Y-118807007D01*
X176033012Y-118750000D01*
X176950000Y-118750000D01*
X176950000Y-118102172D01*
X176949999Y-118102155D01*
X176943598Y-118042627D01*
X176943596Y-118042620D01*
X176893354Y-117907913D01*
X176893350Y-117907906D01*
X176807190Y-117792812D01*
X176807187Y-117792809D01*
X176692093Y-117706649D01*
X176692088Y-117706646D01*
X176560528Y-117657577D01*
X176504595Y-117615705D01*
X176480178Y-117550241D01*
X176495030Y-117481968D01*
X176516175Y-117453720D01*
X176638495Y-117331401D01*
X176774035Y-117137830D01*
X176778680Y-117127870D01*
X176785667Y-117112884D01*
X176873903Y-116923663D01*
X176935063Y-116695408D01*
X176955659Y-116460000D01*
X176935063Y-116224592D01*
X176873903Y-115996337D01*
X176774035Y-115782171D01*
X176744429Y-115739888D01*
X176638494Y-115588597D01*
X176471402Y-115421506D01*
X176471395Y-115421501D01*
X176277834Y-115285967D01*
X176277830Y-115285965D01*
X176277828Y-115285964D01*
X176063663Y-115186097D01*
X176063659Y-115186096D01*
X176063655Y-115186094D01*
X175835413Y-115124938D01*
X175835403Y-115124936D01*
X175600001Y-115104341D01*
X175599999Y-115104341D01*
X175364596Y-115124936D01*
X175364586Y-115124938D01*
X175136344Y-115186094D01*
X175136335Y-115186098D01*
X174922171Y-115285964D01*
X174922169Y-115285965D01*
X174728597Y-115421505D01*
X174561505Y-115588597D01*
X174425965Y-115782169D01*
X174425964Y-115782171D01*
X174326098Y-115996335D01*
X174326094Y-115996344D01*
X174264938Y-116224586D01*
X174264936Y-116224596D01*
X174244341Y-116459999D01*
X168516396Y-116459999D01*
X168702905Y-116332840D01*
X168889679Y-116159540D01*
X169048544Y-115960328D01*
X169175941Y-115739671D01*
X169269026Y-115502494D01*
X169269032Y-115502475D01*
X169325724Y-115254086D01*
X169325725Y-115254079D01*
X169326032Y-115250000D01*
X168188482Y-115250000D01*
X168199111Y-115231591D01*
X168240000Y-115078991D01*
X168240000Y-114921009D01*
X168199111Y-114768409D01*
X168188482Y-114750000D01*
X169326031Y-114750000D01*
X169325725Y-114745920D01*
X169325724Y-114745913D01*
X169269032Y-114497524D01*
X169269026Y-114497505D01*
X169175941Y-114260328D01*
X169175942Y-114260328D01*
X169048544Y-114039671D01*
X168889679Y-113840459D01*
X168702905Y-113667159D01*
X168492377Y-113523624D01*
X168492376Y-113523623D01*
X168262823Y-113413078D01*
X168262825Y-113413078D01*
X168019354Y-113337977D01*
X168019348Y-113337976D01*
X167890000Y-113318479D01*
X167890000Y-114451517D01*
X167871591Y-114440889D01*
X167718991Y-114400000D01*
X167561009Y-114400000D01*
X167408409Y-114440889D01*
X167390000Y-114451517D01*
X167390000Y-113318479D01*
X167260651Y-113337976D01*
X167260645Y-113337977D01*
X167017175Y-113413078D01*
X166787624Y-113523623D01*
X166787616Y-113523628D01*
X166577097Y-113667157D01*
X166390320Y-113840459D01*
X166231455Y-114039671D01*
X166104058Y-114260328D01*
X166010973Y-114497505D01*
X166010967Y-114497524D01*
X165954275Y-114745913D01*
X165954274Y-114745920D01*
X165953968Y-114750000D01*
X128686534Y-114750000D01*
X128686222Y-114745843D01*
X128629508Y-114497363D01*
X128536393Y-114260112D01*
X128408959Y-114039388D01*
X128250050Y-113840123D01*
X128063217Y-113666768D01*
X127852634Y-113523195D01*
X127852630Y-113523193D01*
X127852627Y-113523191D01*
X127852626Y-113523190D01*
X127623006Y-113412612D01*
X127623008Y-113412612D01*
X127379466Y-113337489D01*
X127379462Y-113337488D01*
X127379458Y-113337487D01*
X127253350Y-113318479D01*
X127127440Y-113299500D01*
X127127435Y-113299500D01*
X126872565Y-113299500D01*
X126872559Y-113299500D01*
X126715609Y-113323157D01*
X126620542Y-113337487D01*
X126620539Y-113337488D01*
X126620533Y-113337489D01*
X126376992Y-113412612D01*
X126147373Y-113523190D01*
X126147372Y-113523191D01*
X125936782Y-113666768D01*
X125749952Y-113840121D01*
X125749950Y-113840123D01*
X125591041Y-114039388D01*
X125463608Y-114260109D01*
X125370492Y-114497362D01*
X125370490Y-114497369D01*
X125313777Y-114745845D01*
X125294732Y-114999995D01*
X123497045Y-114999995D01*
X123494091Y-114972517D01*
X123443796Y-114837669D01*
X123443795Y-114837668D01*
X123443793Y-114837664D01*
X123357547Y-114722455D01*
X123357544Y-114722452D01*
X123242332Y-114636204D01*
X123237635Y-114633639D01*
X123188232Y-114584232D01*
X123173382Y-114515958D01*
X123193257Y-114456989D01*
X123324173Y-114256607D01*
X123424063Y-114028881D01*
X123485108Y-113787821D01*
X123493946Y-113681167D01*
X123505643Y-113540005D01*
X123505643Y-113539994D01*
X123485109Y-113292187D01*
X123485107Y-113292175D01*
X123424063Y-113051118D01*
X123324173Y-112823393D01*
X123188166Y-112615217D01*
X123166557Y-112591744D01*
X123019744Y-112432262D01*
X122936991Y-112367852D01*
X122896179Y-112311143D01*
X122892504Y-112241370D01*
X122927136Y-112180687D01*
X122936985Y-112172151D01*
X123019744Y-112107738D01*
X123188164Y-111924785D01*
X123324173Y-111716607D01*
X123424063Y-111488881D01*
X123485108Y-111247821D01*
X123486403Y-111232190D01*
X123505643Y-111000005D01*
X123505643Y-110999994D01*
X123485109Y-110752187D01*
X123485107Y-110752175D01*
X123424063Y-110511118D01*
X123324173Y-110283393D01*
X123188166Y-110075217D01*
X123118965Y-110000045D01*
X123019744Y-109892262D01*
X122823509Y-109739526D01*
X122823507Y-109739525D01*
X122823506Y-109739524D01*
X122604811Y-109621172D01*
X122604802Y-109621169D01*
X122369616Y-109540429D01*
X122124335Y-109499500D01*
X121875665Y-109499500D01*
X121630383Y-109540429D01*
X121395197Y-109621169D01*
X121395188Y-109621172D01*
X121176493Y-109739524D01*
X120980257Y-109892261D01*
X120811833Y-110075217D01*
X120675826Y-110283393D01*
X120575936Y-110511118D01*
X120514892Y-110752175D01*
X120514890Y-110752187D01*
X120494357Y-110999994D01*
X110273505Y-110999994D01*
X110699464Y-110574035D01*
X110798013Y-110426547D01*
X110824659Y-110362218D01*
X110865895Y-110262666D01*
X110900500Y-110088691D01*
X110900500Y-109911308D01*
X110900500Y-109424361D01*
X110920185Y-109357322D01*
X110936819Y-109336680D01*
X111336680Y-108936819D01*
X111398003Y-108903334D01*
X111424361Y-108900500D01*
X115572202Y-108900500D01*
X115639241Y-108920185D01*
X115684996Y-108972989D01*
X115695730Y-109013693D01*
X115714364Y-109226686D01*
X115714366Y-109226697D01*
X115773258Y-109446488D01*
X115773261Y-109446497D01*
X115869431Y-109652732D01*
X115869432Y-109652734D01*
X115999954Y-109839141D01*
X116160858Y-110000045D01*
X116160861Y-110000047D01*
X116347266Y-110130568D01*
X116553504Y-110226739D01*
X116773308Y-110285635D01*
X116935230Y-110299801D01*
X116999998Y-110305468D01*
X117000000Y-110305468D01*
X117000002Y-110305468D01*
X117056673Y-110300509D01*
X117226692Y-110285635D01*
X117446496Y-110226739D01*
X117652734Y-110130568D01*
X117839139Y-110000047D01*
X118000047Y-109839139D01*
X118130568Y-109652734D01*
X118226739Y-109446496D01*
X118285635Y-109226692D01*
X118304270Y-109013692D01*
X118329722Y-108948624D01*
X118386313Y-108907645D01*
X118427798Y-108900500D01*
X144028693Y-108900500D01*
X144028694Y-108900499D01*
X144202666Y-108865895D01*
X144284606Y-108831953D01*
X144366547Y-108798013D01*
X144457359Y-108737334D01*
X144465868Y-108731649D01*
X144476251Y-108724710D01*
X144514036Y-108699464D01*
X147207786Y-106005711D01*
X147259466Y-105974735D01*
X147409722Y-105929156D01*
X147548193Y-105855142D01*
X147606646Y-105840500D01*
X157148693Y-105840500D01*
X157148694Y-105840499D01*
X157322666Y-105805895D01*
X157418772Y-105766086D01*
X157486547Y-105738013D01*
X157600820Y-105661658D01*
X157634036Y-105639464D01*
X158328501Y-104944999D01*
X174244341Y-104944999D01*
X174244341Y-104945000D01*
X174264936Y-105180403D01*
X174264938Y-105180413D01*
X174326094Y-105408655D01*
X174326096Y-105408659D01*
X174326097Y-105408663D01*
X174397678Y-105562169D01*
X174425965Y-105622830D01*
X174425967Y-105622834D01*
X174561501Y-105816395D01*
X174561506Y-105816402D01*
X174728597Y-105983493D01*
X174728603Y-105983498D01*
X174914158Y-106113425D01*
X174957783Y-106168002D01*
X174964977Y-106237500D01*
X174933454Y-106299855D01*
X174914158Y-106316575D01*
X174728597Y-106446505D01*
X174561505Y-106613597D01*
X174425965Y-106807169D01*
X174425964Y-106807171D01*
X174326098Y-107021335D01*
X174326094Y-107021344D01*
X174264938Y-107249586D01*
X174264936Y-107249596D01*
X174244341Y-107484999D01*
X174244341Y-107485000D01*
X174264936Y-107720403D01*
X174264938Y-107720413D01*
X174326094Y-107948655D01*
X174326096Y-107948659D01*
X174326097Y-107948663D01*
X174425045Y-108160858D01*
X174425965Y-108162830D01*
X174425967Y-108162834D01*
X174534281Y-108317521D01*
X174561501Y-108356396D01*
X174561506Y-108356402D01*
X174683818Y-108478714D01*
X174717303Y-108540037D01*
X174712319Y-108609729D01*
X174670447Y-108665662D01*
X174639471Y-108682577D01*
X174507912Y-108731646D01*
X174507906Y-108731649D01*
X174392812Y-108817809D01*
X174392809Y-108817812D01*
X174306649Y-108932906D01*
X174306645Y-108932913D01*
X174256403Y-109067620D01*
X174256401Y-109067627D01*
X174250000Y-109127155D01*
X174250000Y-109775000D01*
X175166988Y-109775000D01*
X175134075Y-109832007D01*
X175100000Y-109959174D01*
X175100000Y-110090826D01*
X175134075Y-110217993D01*
X175166988Y-110275000D01*
X174250000Y-110275000D01*
X174250000Y-110922844D01*
X174256401Y-110982372D01*
X174256403Y-110982379D01*
X174306645Y-111117086D01*
X174306649Y-111117093D01*
X174392809Y-111232187D01*
X174392812Y-111232190D01*
X174507906Y-111318350D01*
X174507913Y-111318354D01*
X174642620Y-111368596D01*
X174642627Y-111368598D01*
X174702155Y-111374999D01*
X174702172Y-111375000D01*
X175350000Y-111375000D01*
X175350000Y-110458012D01*
X175407007Y-110490925D01*
X175534174Y-110525000D01*
X175665826Y-110525000D01*
X175792993Y-110490925D01*
X175850000Y-110458012D01*
X175850000Y-111375000D01*
X176497828Y-111375000D01*
X176497844Y-111374999D01*
X176557372Y-111368598D01*
X176557379Y-111368596D01*
X176692086Y-111318354D01*
X176692093Y-111318350D01*
X176807187Y-111232190D01*
X176807190Y-111232187D01*
X176893350Y-111117093D01*
X176893354Y-111117086D01*
X176943596Y-110982379D01*
X176943598Y-110982372D01*
X176949999Y-110922844D01*
X176950000Y-110922827D01*
X176950000Y-110275000D01*
X176033012Y-110275000D01*
X176065925Y-110217993D01*
X176100000Y-110090826D01*
X176100000Y-109959174D01*
X176065925Y-109832007D01*
X176033012Y-109775000D01*
X176950000Y-109775000D01*
X176950000Y-109127172D01*
X176949999Y-109127155D01*
X176943598Y-109067627D01*
X176943596Y-109067620D01*
X176893354Y-108932913D01*
X176893350Y-108932906D01*
X176807190Y-108817812D01*
X176807187Y-108817809D01*
X176692093Y-108731649D01*
X176692088Y-108731646D01*
X176560528Y-108682577D01*
X176504595Y-108640705D01*
X176480178Y-108575241D01*
X176495030Y-108506968D01*
X176516175Y-108478720D01*
X176638495Y-108356401D01*
X176774035Y-108162830D01*
X176873903Y-107948663D01*
X176935063Y-107720408D01*
X176955659Y-107485000D01*
X176935063Y-107249592D01*
X176873903Y-107021337D01*
X176774035Y-106807171D01*
X176701559Y-106703663D01*
X176638494Y-106613597D01*
X176471402Y-106446506D01*
X176471396Y-106446501D01*
X176285842Y-106316575D01*
X176242217Y-106261998D01*
X176235023Y-106192500D01*
X176266546Y-106130145D01*
X176285842Y-106113425D01*
X176325423Y-106085710D01*
X176471401Y-105983495D01*
X176638495Y-105816401D01*
X176774035Y-105622830D01*
X176873903Y-105408663D01*
X176935063Y-105180408D01*
X176955659Y-104945000D01*
X176935063Y-104709592D01*
X176873903Y-104481337D01*
X176774035Y-104267171D01*
X176718237Y-104187482D01*
X176638494Y-104073597D01*
X176471402Y-103906506D01*
X176471395Y-103906501D01*
X176277834Y-103770967D01*
X176277830Y-103770965D01*
X176277828Y-103770964D01*
X176063663Y-103671097D01*
X176063659Y-103671096D01*
X176063655Y-103671094D01*
X175835413Y-103609938D01*
X175835403Y-103609936D01*
X175600001Y-103589341D01*
X175599999Y-103589341D01*
X175364596Y-103609936D01*
X175364586Y-103609938D01*
X175136344Y-103671094D01*
X175136335Y-103671098D01*
X174922171Y-103770964D01*
X174922169Y-103770965D01*
X174728597Y-103906505D01*
X174561505Y-104073597D01*
X174425965Y-104267169D01*
X174425964Y-104267171D01*
X174326098Y-104481335D01*
X174326094Y-104481344D01*
X174264938Y-104709586D01*
X174264936Y-104709596D01*
X174244341Y-104944999D01*
X158328501Y-104944999D01*
X162699464Y-100574036D01*
X162758232Y-100486083D01*
X162798013Y-100426547D01*
X162833411Y-100341088D01*
X162865895Y-100262666D01*
X162900500Y-100088692D01*
X162900500Y-99911308D01*
X162900500Y-97878711D01*
X178149500Y-97878711D01*
X178149500Y-98121288D01*
X178181161Y-98361785D01*
X178243947Y-98596104D01*
X178336773Y-98820205D01*
X178336776Y-98820212D01*
X178458064Y-99030289D01*
X178458066Y-99030292D01*
X178458067Y-99030293D01*
X178605733Y-99222736D01*
X178605739Y-99222743D01*
X178777256Y-99394260D01*
X178777262Y-99394265D01*
X178969711Y-99541936D01*
X179179788Y-99663224D01*
X179403900Y-99756054D01*
X179638211Y-99818838D01*
X179818586Y-99842584D01*
X179878711Y-99850500D01*
X179878712Y-99850500D01*
X180121289Y-99850500D01*
X180169388Y-99844167D01*
X180361789Y-99818838D01*
X180596100Y-99756054D01*
X180820212Y-99663224D01*
X181030289Y-99541936D01*
X181222738Y-99394265D01*
X181394265Y-99222738D01*
X181541936Y-99030289D01*
X181663224Y-98820212D01*
X181756054Y-98596100D01*
X181818838Y-98361789D01*
X181850500Y-98121288D01*
X181850500Y-97878712D01*
X181845290Y-97839141D01*
X181823350Y-97672483D01*
X181818838Y-97638211D01*
X181756054Y-97403900D01*
X181663224Y-97179788D01*
X181541936Y-96969711D01*
X181394265Y-96777262D01*
X181394260Y-96777256D01*
X181222743Y-96605739D01*
X181222736Y-96605733D01*
X181030293Y-96458067D01*
X181030292Y-96458066D01*
X181030289Y-96458064D01*
X180838381Y-96347266D01*
X180820214Y-96336777D01*
X180820205Y-96336773D01*
X180596104Y-96243947D01*
X180404733Y-96192669D01*
X180361789Y-96181162D01*
X180361788Y-96181161D01*
X180361785Y-96181161D01*
X180121289Y-96149500D01*
X180121288Y-96149500D01*
X179878712Y-96149500D01*
X179878711Y-96149500D01*
X179638214Y-96181161D01*
X179403895Y-96243947D01*
X179179794Y-96336773D01*
X179179785Y-96336777D01*
X178969706Y-96458067D01*
X178777263Y-96605733D01*
X178777256Y-96605739D01*
X178605739Y-96777256D01*
X178605733Y-96777263D01*
X178458067Y-96969706D01*
X178336777Y-97179785D01*
X178336773Y-97179794D01*
X178243947Y-97403895D01*
X178181161Y-97638214D01*
X178149500Y-97878711D01*
X162900500Y-97878711D01*
X162900500Y-95911309D01*
X162900500Y-95582280D01*
X162920185Y-95515241D01*
X162936814Y-95494604D01*
X174038319Y-84393098D01*
X174099642Y-84359614D01*
X174169334Y-84364598D01*
X174225267Y-84406470D01*
X174249684Y-84471934D01*
X174250000Y-84480780D01*
X174250000Y-85050000D01*
X175166988Y-85050000D01*
X175134075Y-85107007D01*
X175100000Y-85234174D01*
X175100000Y-85365826D01*
X175134075Y-85492993D01*
X175166988Y-85550000D01*
X174250000Y-85550000D01*
X174250000Y-86197844D01*
X174256401Y-86257372D01*
X174256403Y-86257379D01*
X174306645Y-86392086D01*
X174306649Y-86392093D01*
X174392809Y-86507187D01*
X174392812Y-86507190D01*
X174507906Y-86593350D01*
X174507913Y-86593354D01*
X174642620Y-86643596D01*
X174642627Y-86643598D01*
X174702155Y-86649999D01*
X174702172Y-86650000D01*
X175350000Y-86650000D01*
X175350000Y-85733012D01*
X175407007Y-85765925D01*
X175534174Y-85800000D01*
X175665826Y-85800000D01*
X175792993Y-85765925D01*
X175850000Y-85733012D01*
X175850000Y-86650000D01*
X176497828Y-86650000D01*
X176497844Y-86649999D01*
X176557372Y-86643598D01*
X176557379Y-86643596D01*
X176692086Y-86593354D01*
X176692093Y-86593350D01*
X176807187Y-86507190D01*
X176807190Y-86507187D01*
X176893350Y-86392093D01*
X176893354Y-86392086D01*
X176943596Y-86257379D01*
X176943598Y-86257372D01*
X176949999Y-86197844D01*
X176950000Y-86197827D01*
X176950000Y-85550000D01*
X176033012Y-85550000D01*
X176065925Y-85492993D01*
X176100000Y-85365826D01*
X176100000Y-85234174D01*
X176065925Y-85107007D01*
X176033012Y-85050000D01*
X176950000Y-85050000D01*
X176950000Y-84402172D01*
X176949999Y-84402155D01*
X176943598Y-84342627D01*
X176943596Y-84342620D01*
X176893354Y-84207913D01*
X176893350Y-84207906D01*
X176807190Y-84092812D01*
X176807187Y-84092809D01*
X176692093Y-84006649D01*
X176692088Y-84006646D01*
X176560528Y-83957577D01*
X176504595Y-83915705D01*
X176480178Y-83850241D01*
X176495030Y-83781968D01*
X176516175Y-83753720D01*
X176638495Y-83631401D01*
X176774035Y-83437830D01*
X176873903Y-83223663D01*
X176935063Y-82995408D01*
X176955659Y-82760000D01*
X176935063Y-82524592D01*
X176873903Y-82296337D01*
X176774035Y-82082171D01*
X176771809Y-82078991D01*
X176638494Y-81888597D01*
X176471402Y-81721506D01*
X176471395Y-81721501D01*
X176277834Y-81585967D01*
X176277830Y-81585965D01*
X176277828Y-81585964D01*
X176063663Y-81486097D01*
X176063659Y-81486096D01*
X176063655Y-81486094D01*
X175835413Y-81424938D01*
X175835403Y-81424936D01*
X175600001Y-81404341D01*
X175599999Y-81404341D01*
X175364596Y-81424936D01*
X175364586Y-81424938D01*
X175136344Y-81486094D01*
X175136335Y-81486098D01*
X174922171Y-81585964D01*
X174922169Y-81585965D01*
X174728600Y-81721503D01*
X174700104Y-81750000D01*
X174626921Y-81823182D01*
X174565601Y-81856666D01*
X174539242Y-81859500D01*
X174309222Y-81859500D01*
X174135260Y-81894103D01*
X174135248Y-81894106D01*
X174053311Y-81928045D01*
X174053312Y-81928046D01*
X173971374Y-81961985D01*
X173914482Y-82000000D01*
X173914481Y-82000001D01*
X173823880Y-82060537D01*
X173823879Y-82060538D01*
X163112181Y-92772237D01*
X163050858Y-92805722D01*
X162981166Y-92800738D01*
X162925233Y-92758866D01*
X162900816Y-92693402D01*
X162900500Y-92684556D01*
X162900500Y-88911306D01*
X162900499Y-88911304D01*
X162865896Y-88737341D01*
X162865893Y-88737332D01*
X162798016Y-88573459D01*
X162798009Y-88573446D01*
X162699465Y-88425966D01*
X162699464Y-88425965D01*
X162574035Y-88300536D01*
X159380506Y-85107007D01*
X156023500Y-81750000D01*
X167953968Y-81750000D01*
X169091518Y-81750000D01*
X169080889Y-81768409D01*
X169040000Y-81921009D01*
X169040000Y-82078991D01*
X169080889Y-82231591D01*
X169091518Y-82250000D01*
X167953968Y-82250000D01*
X167954274Y-82254079D01*
X167954275Y-82254086D01*
X168010967Y-82502475D01*
X168010973Y-82502494D01*
X168104058Y-82739671D01*
X168104057Y-82739671D01*
X168231455Y-82960328D01*
X168390320Y-83159540D01*
X168577097Y-83332842D01*
X168787616Y-83476371D01*
X168787624Y-83476376D01*
X169017176Y-83586921D01*
X169017174Y-83586921D01*
X169260652Y-83662024D01*
X169260660Y-83662026D01*
X169390000Y-83681520D01*
X169390000Y-82548482D01*
X169408409Y-82559111D01*
X169561009Y-82600000D01*
X169718991Y-82600000D01*
X169871591Y-82559111D01*
X169890000Y-82548482D01*
X169890000Y-83681519D01*
X170019339Y-83662026D01*
X170019347Y-83662024D01*
X170262824Y-83586921D01*
X170492376Y-83476376D01*
X170492377Y-83476375D01*
X170702905Y-83332840D01*
X170889679Y-83159540D01*
X171048544Y-82960328D01*
X171175941Y-82739671D01*
X171269026Y-82502494D01*
X171269032Y-82502475D01*
X171325724Y-82254086D01*
X171325725Y-82254079D01*
X171326032Y-82250000D01*
X170188482Y-82250000D01*
X170199111Y-82231591D01*
X170240000Y-82078991D01*
X170240000Y-81921009D01*
X170199111Y-81768409D01*
X170188482Y-81750000D01*
X171326031Y-81750000D01*
X171325725Y-81745920D01*
X171325724Y-81745913D01*
X171269032Y-81497524D01*
X171269026Y-81497505D01*
X171175941Y-81260328D01*
X171175942Y-81260328D01*
X171048544Y-81039671D01*
X170889679Y-80840459D01*
X170702905Y-80667159D01*
X170492377Y-80523624D01*
X170492376Y-80523623D01*
X170262823Y-80413078D01*
X170262825Y-80413078D01*
X170019354Y-80337977D01*
X170019348Y-80337976D01*
X169890000Y-80318479D01*
X169890000Y-81451517D01*
X169871591Y-81440889D01*
X169718991Y-81400000D01*
X169561009Y-81400000D01*
X169408409Y-81440889D01*
X169390000Y-81451517D01*
X169390000Y-80318479D01*
X169260651Y-80337976D01*
X169260645Y-80337977D01*
X169017175Y-80413078D01*
X168787624Y-80523623D01*
X168787616Y-80523628D01*
X168577097Y-80667157D01*
X168390320Y-80840459D01*
X168231455Y-81039671D01*
X168104058Y-81260328D01*
X168010973Y-81497505D01*
X168010967Y-81497524D01*
X167954275Y-81745913D01*
X167954274Y-81745920D01*
X167953968Y-81750000D01*
X156023500Y-81750000D01*
X149574041Y-75300540D01*
X149574038Y-75300537D01*
X149510394Y-75258012D01*
X149426544Y-75201985D01*
X149426542Y-75201984D01*
X149332310Y-75162953D01*
X149262666Y-75134105D01*
X149262658Y-75134103D01*
X149088696Y-75099500D01*
X149088692Y-75099500D01*
X149088691Y-75099500D01*
X146606646Y-75099500D01*
X146548193Y-75084858D01*
X146409723Y-75010844D01*
X146208876Y-74949917D01*
X146000000Y-74929345D01*
X145791123Y-74949917D01*
X145590276Y-75010844D01*
X145405181Y-75109779D01*
X145405174Y-75109783D01*
X145242932Y-75242932D01*
X145109783Y-75405174D01*
X145109779Y-75405181D01*
X145010844Y-75590276D01*
X144949917Y-75791123D01*
X144929345Y-76000000D01*
X144949917Y-76208876D01*
X145010844Y-76409723D01*
X145109779Y-76594818D01*
X145109783Y-76594825D01*
X145242932Y-76757067D01*
X145405174Y-76890216D01*
X145405181Y-76890220D01*
X145424414Y-76900500D01*
X145590278Y-76989156D01*
X145791126Y-77050083D01*
X146000000Y-77070655D01*
X146208874Y-77050083D01*
X146409722Y-76989156D01*
X146548193Y-76915142D01*
X146606646Y-76900500D01*
X148575638Y-76900500D01*
X148642677Y-76920185D01*
X148663319Y-76936819D01*
X161063181Y-89336680D01*
X161096666Y-89398003D01*
X161099500Y-89424361D01*
X161099500Y-99575638D01*
X161079815Y-99642677D01*
X161063181Y-99663319D01*
X156723319Y-104003181D01*
X156661996Y-104036666D01*
X156635638Y-104039500D01*
X147606646Y-104039500D01*
X147548193Y-104024858D01*
X147409723Y-103950844D01*
X147208876Y-103889917D01*
X147000000Y-103869345D01*
X146791123Y-103889917D01*
X146590276Y-103950844D01*
X146405181Y-104049779D01*
X146405174Y-104049783D01*
X146242932Y-104182932D01*
X146109783Y-104345174D01*
X146109779Y-104345181D01*
X146010844Y-104530276D01*
X145965265Y-104680528D01*
X145934286Y-104732213D01*
X145733600Y-104932899D01*
X145672277Y-104966384D01*
X145602585Y-104961400D01*
X145546652Y-104919528D01*
X145522517Y-104857374D01*
X145510083Y-104731126D01*
X145449156Y-104530278D01*
X145422997Y-104481337D01*
X145350220Y-104345181D01*
X145350216Y-104345174D01*
X145217067Y-104182932D01*
X145054825Y-104049783D01*
X145054818Y-104049779D01*
X144869723Y-103950844D01*
X144668876Y-103889917D01*
X144460000Y-103869345D01*
X144251123Y-103889917D01*
X144050276Y-103950844D01*
X143865181Y-104049779D01*
X143865174Y-104049783D01*
X143702932Y-104182932D01*
X143569783Y-104345174D01*
X143569779Y-104345181D01*
X143470844Y-104530276D01*
X143409917Y-104731123D01*
X143389345Y-104940000D01*
X143409917Y-105148876D01*
X143470844Y-105349723D01*
X143569779Y-105534818D01*
X143569783Y-105534825D01*
X143702932Y-105697067D01*
X143865174Y-105830216D01*
X143865181Y-105830220D01*
X144050272Y-105929153D01*
X144050278Y-105929156D01*
X144251126Y-105990083D01*
X144377373Y-106002517D01*
X144442158Y-106028676D01*
X144482518Y-106085710D01*
X144485635Y-106155510D01*
X144452899Y-106213600D01*
X143603319Y-107063181D01*
X143541996Y-107096666D01*
X143515638Y-107099500D01*
X111024500Y-107099500D01*
X110957461Y-107079815D01*
X110911706Y-107027011D01*
X110900500Y-106975500D01*
X110900500Y-96999998D01*
X112504532Y-96999998D01*
X112504532Y-97000001D01*
X112524364Y-97226686D01*
X112524366Y-97226697D01*
X112583258Y-97446488D01*
X112583261Y-97446497D01*
X112679431Y-97652732D01*
X112679432Y-97652734D01*
X112809954Y-97839141D01*
X112970858Y-98000045D01*
X112970861Y-98000047D01*
X113157266Y-98130568D01*
X113363504Y-98226739D01*
X113583308Y-98285635D01*
X113745230Y-98299801D01*
X113809998Y-98305468D01*
X113810000Y-98305468D01*
X113810002Y-98305468D01*
X113866673Y-98300509D01*
X114036692Y-98285635D01*
X114256496Y-98226739D01*
X114462734Y-98130568D01*
X114649139Y-98000047D01*
X114649192Y-97999994D01*
X117494357Y-97999994D01*
X117494357Y-98000005D01*
X117514890Y-98247812D01*
X117514892Y-98247824D01*
X117575936Y-98488881D01*
X117675826Y-98716606D01*
X117811833Y-98924782D01*
X117811836Y-98924785D01*
X117980256Y-99107738D01*
X118063008Y-99172147D01*
X118103821Y-99228857D01*
X118107496Y-99298630D01*
X118072864Y-99359313D01*
X118063014Y-99367848D01*
X118029073Y-99394266D01*
X117980257Y-99432261D01*
X117811833Y-99615217D01*
X117675826Y-99823393D01*
X117575936Y-100051118D01*
X117514892Y-100292175D01*
X117514890Y-100292187D01*
X117494357Y-100539994D01*
X117494357Y-100540005D01*
X117514890Y-100787812D01*
X117514892Y-100787824D01*
X117575936Y-101028881D01*
X117675825Y-101256603D01*
X117675827Y-101256607D01*
X117806742Y-101456988D01*
X117826929Y-101523877D01*
X117807749Y-101591063D01*
X117762367Y-101633637D01*
X117757670Y-101636201D01*
X117642455Y-101722452D01*
X117642452Y-101722455D01*
X117556206Y-101837664D01*
X117556202Y-101837671D01*
X117505908Y-101972517D01*
X117499501Y-102032116D01*
X117499501Y-102032123D01*
X117499500Y-102032135D01*
X117499500Y-104127870D01*
X117499501Y-104127876D01*
X117505908Y-104187483D01*
X117556202Y-104322328D01*
X117556206Y-104322335D01*
X117642452Y-104437544D01*
X117642455Y-104437547D01*
X117757664Y-104523793D01*
X117757671Y-104523797D01*
X117892517Y-104574091D01*
X117892516Y-104574091D01*
X117899444Y-104574835D01*
X117952127Y-104580500D01*
X120047872Y-104580499D01*
X120107483Y-104574091D01*
X120242331Y-104523796D01*
X120357546Y-104437546D01*
X120443796Y-104322331D01*
X120494091Y-104187483D01*
X120500500Y-104127873D01*
X120500499Y-102032128D01*
X120494091Y-101972517D01*
X120443796Y-101837669D01*
X120443795Y-101837668D01*
X120443793Y-101837664D01*
X120357547Y-101722455D01*
X120357544Y-101722452D01*
X120242332Y-101636204D01*
X120237635Y-101633639D01*
X120188232Y-101584232D01*
X120173382Y-101515958D01*
X120193257Y-101456989D01*
X120324173Y-101256607D01*
X120424063Y-101028881D01*
X120485108Y-100787821D01*
X120497861Y-100633920D01*
X134249499Y-100633920D01*
X134278340Y-100778907D01*
X134278343Y-100778917D01*
X134334914Y-100915492D01*
X134367812Y-100964727D01*
X134367813Y-100964730D01*
X134417046Y-101038414D01*
X134417052Y-101038421D01*
X138276956Y-104898323D01*
X138310441Y-104959646D01*
X138312678Y-104973849D01*
X138329917Y-105148876D01*
X138390844Y-105349723D01*
X138489779Y-105534818D01*
X138489783Y-105534825D01*
X138622932Y-105697067D01*
X138785174Y-105830216D01*
X138785181Y-105830220D01*
X138970272Y-105929153D01*
X138970278Y-105929156D01*
X139171126Y-105990083D01*
X139380000Y-106010655D01*
X139588874Y-105990083D01*
X139789722Y-105929156D01*
X139974824Y-105830217D01*
X140137067Y-105697067D01*
X140270217Y-105534824D01*
X140369156Y-105349722D01*
X140430083Y-105148874D01*
X140450655Y-104940000D01*
X140849345Y-104940000D01*
X140869917Y-105148876D01*
X140930844Y-105349723D01*
X141029779Y-105534818D01*
X141029783Y-105534825D01*
X141162932Y-105697067D01*
X141325174Y-105830216D01*
X141325181Y-105830220D01*
X141510272Y-105929153D01*
X141510278Y-105929156D01*
X141711126Y-105990083D01*
X141920000Y-106010655D01*
X142128874Y-105990083D01*
X142329722Y-105929156D01*
X142514824Y-105830217D01*
X142677067Y-105697067D01*
X142810217Y-105534824D01*
X142909156Y-105349722D01*
X142970083Y-105148874D01*
X142990655Y-104940000D01*
X142970083Y-104731126D01*
X142909156Y-104530278D01*
X142882997Y-104481337D01*
X142810220Y-104345181D01*
X142810216Y-104345174D01*
X142677067Y-104182932D01*
X142514825Y-104049783D01*
X142514818Y-104049779D01*
X142329723Y-103950844D01*
X142128876Y-103889917D01*
X141920000Y-103869345D01*
X141711123Y-103889917D01*
X141510276Y-103950844D01*
X141325181Y-104049779D01*
X141325174Y-104049783D01*
X141162932Y-104182932D01*
X141029783Y-104345174D01*
X141029779Y-104345181D01*
X140930844Y-104530276D01*
X140869917Y-104731123D01*
X140849345Y-104940000D01*
X140450655Y-104940000D01*
X140430083Y-104731126D01*
X140369156Y-104530278D01*
X140342997Y-104481337D01*
X140270220Y-104345181D01*
X140270216Y-104345174D01*
X140137067Y-104182932D01*
X139974825Y-104049783D01*
X139974818Y-104049779D01*
X139789723Y-103950844D01*
X139588876Y-103889917D01*
X139413849Y-103872678D01*
X139349062Y-103846517D01*
X139338323Y-103836956D01*
X135786819Y-100285451D01*
X135753334Y-100224128D01*
X135750500Y-100197770D01*
X135750500Y-97000000D01*
X138309847Y-97000000D01*
X138330409Y-97208774D01*
X138391309Y-97409534D01*
X138469892Y-97556552D01*
X138469893Y-97556552D01*
X139010000Y-97016446D01*
X139010000Y-97048711D01*
X139035215Y-97142815D01*
X139083926Y-97227186D01*
X139152814Y-97296074D01*
X139237185Y-97344785D01*
X139331289Y-97370000D01*
X139363553Y-97370000D01*
X138823445Y-97910106D01*
X138970465Y-97988690D01*
X139171227Y-98049590D01*
X139171223Y-98049590D01*
X139380000Y-98070152D01*
X139588774Y-98049590D01*
X139789532Y-97988690D01*
X139936553Y-97910105D01*
X139396448Y-97370000D01*
X139428711Y-97370000D01*
X139522815Y-97344785D01*
X139607186Y-97296074D01*
X139676074Y-97227186D01*
X139724785Y-97142815D01*
X139750000Y-97048711D01*
X139750000Y-97016447D01*
X140290105Y-97556552D01*
X140368690Y-97409532D01*
X140429590Y-97208774D01*
X140450152Y-97000000D01*
X140849345Y-97000000D01*
X140869917Y-97208876D01*
X140930844Y-97409723D01*
X141029779Y-97594818D01*
X141029783Y-97594825D01*
X141162932Y-97757067D01*
X141325174Y-97890216D01*
X141325181Y-97890220D01*
X141385659Y-97922546D01*
X141510278Y-97989156D01*
X141711126Y-98050083D01*
X141920000Y-98070655D01*
X142128874Y-98050083D01*
X142329722Y-97989156D01*
X142514824Y-97890217D01*
X142677067Y-97757067D01*
X142810217Y-97594824D01*
X142909156Y-97409722D01*
X142970083Y-97208874D01*
X142990655Y-97000000D01*
X143389345Y-97000000D01*
X143409917Y-97208876D01*
X143470844Y-97409723D01*
X143569779Y-97594818D01*
X143569783Y-97594825D01*
X143702932Y-97757067D01*
X143865174Y-97890216D01*
X143865181Y-97890220D01*
X143925659Y-97922546D01*
X144050278Y-97989156D01*
X144251126Y-98050083D01*
X144460000Y-98070655D01*
X144668874Y-98050083D01*
X144869722Y-97989156D01*
X145054824Y-97890217D01*
X145217067Y-97757067D01*
X145350217Y-97594824D01*
X145449156Y-97409722D01*
X145510083Y-97208874D01*
X145530655Y-97000000D01*
X145510083Y-96791126D01*
X145449156Y-96590278D01*
X145350217Y-96405176D01*
X145350216Y-96405174D01*
X145335412Y-96387135D01*
X145934500Y-96387135D01*
X145934500Y-97612870D01*
X145934501Y-97612876D01*
X145940908Y-97672483D01*
X145991202Y-97807328D01*
X145991206Y-97807335D01*
X146077452Y-97922544D01*
X146077455Y-97922547D01*
X146192664Y-98008793D01*
X146192671Y-98008797D01*
X146327517Y-98059091D01*
X146327516Y-98059091D01*
X146334444Y-98059835D01*
X146387127Y-98065500D01*
X147612872Y-98065499D01*
X147672483Y-98059091D01*
X147807331Y-98008796D01*
X147922546Y-97922546D01*
X148008796Y-97807331D01*
X148059091Y-97672483D01*
X148065500Y-97612873D01*
X148065499Y-96387128D01*
X148059091Y-96327517D01*
X148027921Y-96243947D01*
X148008797Y-96192671D01*
X148008793Y-96192664D01*
X147922547Y-96077455D01*
X147922544Y-96077452D01*
X147807335Y-95991206D01*
X147807328Y-95991202D01*
X147672482Y-95940908D01*
X147672483Y-95940908D01*
X147612883Y-95934501D01*
X147612881Y-95934500D01*
X147612873Y-95934500D01*
X147612864Y-95934500D01*
X146387129Y-95934500D01*
X146387123Y-95934501D01*
X146327516Y-95940908D01*
X146192671Y-95991202D01*
X146192664Y-95991206D01*
X146077455Y-96077452D01*
X146077452Y-96077455D01*
X145991206Y-96192664D01*
X145991202Y-96192671D01*
X145940908Y-96327517D01*
X145934501Y-96387116D01*
X145934501Y-96387123D01*
X145934500Y-96387135D01*
X145335412Y-96387135D01*
X145217067Y-96242932D01*
X145054825Y-96109783D01*
X145054818Y-96109779D01*
X144869723Y-96010844D01*
X144668876Y-95949917D01*
X144460000Y-95929345D01*
X144251123Y-95949917D01*
X144050276Y-96010844D01*
X143865181Y-96109779D01*
X143865174Y-96109783D01*
X143702932Y-96242932D01*
X143569783Y-96405174D01*
X143569779Y-96405181D01*
X143470844Y-96590276D01*
X143409917Y-96791123D01*
X143389345Y-97000000D01*
X142990655Y-97000000D01*
X142970083Y-96791126D01*
X142909156Y-96590278D01*
X142810217Y-96405176D01*
X142810216Y-96405174D01*
X142677067Y-96242932D01*
X142514825Y-96109783D01*
X142514818Y-96109779D01*
X142329723Y-96010844D01*
X142128876Y-95949917D01*
X141920000Y-95929345D01*
X141711123Y-95949917D01*
X141510276Y-96010844D01*
X141325181Y-96109779D01*
X141325174Y-96109783D01*
X141162932Y-96242932D01*
X141029783Y-96405174D01*
X141029779Y-96405181D01*
X140930844Y-96590276D01*
X140869917Y-96791123D01*
X140849345Y-97000000D01*
X140450152Y-97000000D01*
X140429590Y-96791225D01*
X140368690Y-96590465D01*
X140290106Y-96443445D01*
X139750000Y-96983551D01*
X139750000Y-96951289D01*
X139724785Y-96857185D01*
X139676074Y-96772814D01*
X139607186Y-96703926D01*
X139522815Y-96655215D01*
X139428711Y-96630000D01*
X139396448Y-96630000D01*
X139936552Y-96089893D01*
X139936552Y-96089892D01*
X139789534Y-96011309D01*
X139588772Y-95950409D01*
X139588776Y-95950409D01*
X139380000Y-95929847D01*
X139171225Y-95950409D01*
X138970471Y-96011307D01*
X138823446Y-96089893D01*
X139363553Y-96630000D01*
X139331289Y-96630000D01*
X139237185Y-96655215D01*
X139152814Y-96703926D01*
X139083926Y-96772814D01*
X139035215Y-96857185D01*
X139010000Y-96951289D01*
X139010000Y-96983552D01*
X138469893Y-96443446D01*
X138391307Y-96590471D01*
X138330409Y-96791225D01*
X138309847Y-97000000D01*
X135750500Y-97000000D01*
X135750500Y-90999997D01*
X138380034Y-90999997D01*
X138380034Y-91000002D01*
X138399858Y-91226599D01*
X138399860Y-91226610D01*
X138458730Y-91446317D01*
X138458735Y-91446331D01*
X138554863Y-91652478D01*
X138605974Y-91725472D01*
X139285000Y-91046446D01*
X139285000Y-91052661D01*
X139312259Y-91154394D01*
X139364920Y-91245606D01*
X139439394Y-91320080D01*
X139530606Y-91372741D01*
X139632339Y-91400000D01*
X139638553Y-91400000D01*
X138959526Y-92079025D01*
X139032513Y-92130132D01*
X139032521Y-92130136D01*
X139238668Y-92226264D01*
X139238682Y-92226269D01*
X139458389Y-92285139D01*
X139458400Y-92285141D01*
X139684998Y-92304966D01*
X139685002Y-92304966D01*
X139911599Y-92285141D01*
X139911610Y-92285139D01*
X140131317Y-92226269D01*
X140131331Y-92226264D01*
X140337478Y-92130136D01*
X140410471Y-92079024D01*
X139731447Y-91400000D01*
X139737661Y-91400000D01*
X139839394Y-91372741D01*
X139930606Y-91320080D01*
X140005080Y-91245606D01*
X140057741Y-91154394D01*
X140085000Y-91052661D01*
X140085000Y-91046447D01*
X140764024Y-91725471D01*
X140815136Y-91652478D01*
X140911264Y-91446331D01*
X140911269Y-91446317D01*
X140970139Y-91226610D01*
X140970141Y-91226599D01*
X140989966Y-91000002D01*
X140989966Y-90999998D01*
X145999532Y-90999998D01*
X145999532Y-91000001D01*
X146019364Y-91226686D01*
X146019366Y-91226697D01*
X146078258Y-91446488D01*
X146078261Y-91446497D01*
X146174431Y-91652732D01*
X146174432Y-91652734D01*
X146304954Y-91839141D01*
X146465858Y-92000045D01*
X146465861Y-92000047D01*
X146652266Y-92130568D01*
X146858504Y-92226739D01*
X147078308Y-92285635D01*
X147240230Y-92299801D01*
X147304998Y-92305468D01*
X147305000Y-92305468D01*
X147305002Y-92305468D01*
X147361673Y-92300509D01*
X147531692Y-92285635D01*
X147751496Y-92226739D01*
X147957734Y-92130568D01*
X148144139Y-92000047D01*
X148305047Y-91839139D01*
X148435568Y-91652734D01*
X148531739Y-91446496D01*
X148590635Y-91226692D01*
X148610468Y-91000000D01*
X148590635Y-90773308D01*
X148531739Y-90553504D01*
X148435568Y-90347266D01*
X148305047Y-90160861D01*
X148305045Y-90160858D01*
X148144141Y-89999954D01*
X147957734Y-89869432D01*
X147957732Y-89869431D01*
X147751497Y-89773261D01*
X147751488Y-89773258D01*
X147531697Y-89714366D01*
X147531693Y-89714365D01*
X147531692Y-89714365D01*
X147531691Y-89714364D01*
X147531686Y-89714364D01*
X147305002Y-89694532D01*
X147304998Y-89694532D01*
X147078313Y-89714364D01*
X147078302Y-89714366D01*
X146858511Y-89773258D01*
X146858502Y-89773261D01*
X146652267Y-89869431D01*
X146652265Y-89869432D01*
X146465858Y-89999954D01*
X146304954Y-90160858D01*
X146174432Y-90347265D01*
X146174431Y-90347267D01*
X146078261Y-90553502D01*
X146078258Y-90553511D01*
X146019366Y-90773302D01*
X146019364Y-90773313D01*
X145999532Y-90999998D01*
X140989966Y-90999998D01*
X140989966Y-90999997D01*
X140970141Y-90773400D01*
X140970139Y-90773389D01*
X140911269Y-90553682D01*
X140911264Y-90553668D01*
X140815136Y-90347521D01*
X140815132Y-90347513D01*
X140764025Y-90274526D01*
X140085000Y-90953551D01*
X140085000Y-90947339D01*
X140057741Y-90845606D01*
X140005080Y-90754394D01*
X139930606Y-90679920D01*
X139839394Y-90627259D01*
X139737661Y-90600000D01*
X139731448Y-90600000D01*
X140410472Y-89920974D01*
X140337478Y-89869863D01*
X140131331Y-89773735D01*
X140131317Y-89773730D01*
X139911610Y-89714860D01*
X139911599Y-89714858D01*
X139685002Y-89695034D01*
X139684998Y-89695034D01*
X139458400Y-89714858D01*
X139458389Y-89714860D01*
X139238682Y-89773730D01*
X139238673Y-89773734D01*
X139032516Y-89869866D01*
X139032512Y-89869868D01*
X138959526Y-89920973D01*
X138959526Y-89920974D01*
X139638553Y-90600000D01*
X139632339Y-90600000D01*
X139530606Y-90627259D01*
X139439394Y-90679920D01*
X139364920Y-90754394D01*
X139312259Y-90845606D01*
X139285000Y-90947339D01*
X139285000Y-90953552D01*
X138605974Y-90274526D01*
X138605973Y-90274526D01*
X138554868Y-90347512D01*
X138554866Y-90347516D01*
X138458734Y-90553673D01*
X138458730Y-90553682D01*
X138399860Y-90773389D01*
X138399858Y-90773400D01*
X138380034Y-90999997D01*
X135750500Y-90999997D01*
X135750500Y-79742229D01*
X135770185Y-79675190D01*
X135786814Y-79654553D01*
X138338326Y-77103040D01*
X138399647Y-77069557D01*
X138413836Y-77067322D01*
X138588874Y-77050083D01*
X138789722Y-76989156D01*
X138974824Y-76890217D01*
X139137067Y-76757067D01*
X139270217Y-76594824D01*
X139369156Y-76409722D01*
X139430083Y-76208874D01*
X139450655Y-76000000D01*
X139849345Y-76000000D01*
X139869917Y-76208876D01*
X139930844Y-76409723D01*
X140029779Y-76594818D01*
X140029783Y-76594825D01*
X140162932Y-76757067D01*
X140325174Y-76890216D01*
X140325181Y-76890220D01*
X140344414Y-76900500D01*
X140510278Y-76989156D01*
X140711126Y-77050083D01*
X140920000Y-77070655D01*
X141128874Y-77050083D01*
X141329722Y-76989156D01*
X141514824Y-76890217D01*
X141677067Y-76757067D01*
X141810217Y-76594824D01*
X141909156Y-76409722D01*
X141970083Y-76208874D01*
X141990655Y-76000000D01*
X142389345Y-76000000D01*
X142409917Y-76208876D01*
X142470844Y-76409723D01*
X142569779Y-76594818D01*
X142569783Y-76594825D01*
X142702932Y-76757067D01*
X142865174Y-76890216D01*
X142865181Y-76890220D01*
X142884414Y-76900500D01*
X143050278Y-76989156D01*
X143251126Y-77050083D01*
X143460000Y-77070655D01*
X143668874Y-77050083D01*
X143869722Y-76989156D01*
X144054824Y-76890217D01*
X144217067Y-76757067D01*
X144350217Y-76594824D01*
X144449156Y-76409722D01*
X144510083Y-76208874D01*
X144530655Y-76000000D01*
X144510083Y-75791126D01*
X144449156Y-75590278D01*
X144369455Y-75441167D01*
X144350220Y-75405181D01*
X144350216Y-75405174D01*
X144217067Y-75242932D01*
X144054825Y-75109783D01*
X144054818Y-75109779D01*
X143869723Y-75010844D01*
X143668876Y-74949917D01*
X143460000Y-74929345D01*
X143251123Y-74949917D01*
X143050276Y-75010844D01*
X142865181Y-75109779D01*
X142865174Y-75109783D01*
X142702932Y-75242932D01*
X142569783Y-75405174D01*
X142569779Y-75405181D01*
X142470844Y-75590276D01*
X142409917Y-75791123D01*
X142389345Y-76000000D01*
X141990655Y-76000000D01*
X141970083Y-75791126D01*
X141909156Y-75590278D01*
X141829455Y-75441167D01*
X141810220Y-75405181D01*
X141810216Y-75405174D01*
X141677067Y-75242932D01*
X141514825Y-75109783D01*
X141514818Y-75109779D01*
X141329723Y-75010844D01*
X141128876Y-74949917D01*
X140920000Y-74929345D01*
X140711123Y-74949917D01*
X140510276Y-75010844D01*
X140325181Y-75109779D01*
X140325174Y-75109783D01*
X140162932Y-75242932D01*
X140029783Y-75405174D01*
X140029779Y-75405181D01*
X139930844Y-75590276D01*
X139869917Y-75791123D01*
X139849345Y-76000000D01*
X139450655Y-76000000D01*
X139430083Y-75791126D01*
X139369156Y-75590278D01*
X139289455Y-75441167D01*
X139270220Y-75405181D01*
X139270216Y-75405174D01*
X139137067Y-75242932D01*
X138974825Y-75109783D01*
X138974818Y-75109779D01*
X138789723Y-75010844D01*
X138588876Y-74949917D01*
X138380000Y-74929345D01*
X138171123Y-74949917D01*
X137970276Y-75010844D01*
X137785181Y-75109779D01*
X137785174Y-75109783D01*
X137622932Y-75242932D01*
X137489783Y-75405174D01*
X137489779Y-75405181D01*
X137390844Y-75590276D01*
X137329917Y-75791123D01*
X137312679Y-75966146D01*
X137286518Y-76030933D01*
X137276957Y-76041673D01*
X134417050Y-78901580D01*
X134417044Y-78901588D01*
X134367812Y-78975268D01*
X134367813Y-78975269D01*
X134334921Y-79024496D01*
X134334914Y-79024508D01*
X134278342Y-79161086D01*
X134278340Y-79161092D01*
X134249500Y-79306079D01*
X134249500Y-79306082D01*
X134249500Y-100633918D01*
X134249500Y-100633920D01*
X134249499Y-100633920D01*
X120497861Y-100633920D01*
X120497861Y-100633918D01*
X120505643Y-100540005D01*
X120505643Y-100539994D01*
X120485109Y-100292187D01*
X120485107Y-100292175D01*
X120424063Y-100051118D01*
X120324173Y-99823393D01*
X120188166Y-99615217D01*
X120120702Y-99541932D01*
X120019744Y-99432262D01*
X119936991Y-99367852D01*
X119896179Y-99311143D01*
X119892504Y-99241370D01*
X119927136Y-99180687D01*
X119936985Y-99172151D01*
X120019744Y-99107738D01*
X120188164Y-98924785D01*
X120324173Y-98716607D01*
X120424063Y-98488881D01*
X120485108Y-98247821D01*
X120495593Y-98121288D01*
X120505643Y-98000005D01*
X120505643Y-97999994D01*
X120485109Y-97752187D01*
X120485107Y-97752175D01*
X120424063Y-97511118D01*
X120324173Y-97283393D01*
X120188166Y-97075217D01*
X120163765Y-97048711D01*
X120019744Y-96892262D01*
X119823509Y-96739526D01*
X119823507Y-96739525D01*
X119823506Y-96739524D01*
X119604811Y-96621172D01*
X119604802Y-96621169D01*
X119369616Y-96540429D01*
X119124335Y-96499500D01*
X118875665Y-96499500D01*
X118630383Y-96540429D01*
X118395197Y-96621169D01*
X118395188Y-96621172D01*
X118176493Y-96739524D01*
X117980257Y-96892261D01*
X117811833Y-97075217D01*
X117675826Y-97283393D01*
X117575936Y-97511118D01*
X117514892Y-97752175D01*
X117514890Y-97752187D01*
X117494357Y-97999994D01*
X114649192Y-97999994D01*
X114810047Y-97839139D01*
X114940568Y-97652734D01*
X115036739Y-97446496D01*
X115095635Y-97226692D01*
X115115468Y-97000000D01*
X115095635Y-96773308D01*
X115036739Y-96553504D01*
X114940568Y-96347266D01*
X114832319Y-96192669D01*
X114810045Y-96160858D01*
X114649141Y-95999954D01*
X114462734Y-95869432D01*
X114462732Y-95869431D01*
X114256497Y-95773261D01*
X114256488Y-95773258D01*
X114036697Y-95714366D01*
X114036693Y-95714365D01*
X114036692Y-95714365D01*
X114036691Y-95714364D01*
X114036686Y-95714364D01*
X113810002Y-95694532D01*
X113809998Y-95694532D01*
X113583313Y-95714364D01*
X113583302Y-95714366D01*
X113363511Y-95773258D01*
X113363502Y-95773261D01*
X113157267Y-95869431D01*
X113157265Y-95869432D01*
X112970858Y-95999954D01*
X112809954Y-96160858D01*
X112679432Y-96347265D01*
X112679431Y-96347267D01*
X112583261Y-96553502D01*
X112583258Y-96553511D01*
X112524366Y-96773302D01*
X112524364Y-96773313D01*
X112504532Y-96999998D01*
X110900500Y-96999998D01*
X110900500Y-79999998D01*
X115314532Y-79999998D01*
X115314532Y-80000001D01*
X115334364Y-80226686D01*
X115334366Y-80226697D01*
X115393258Y-80446488D01*
X115393261Y-80446497D01*
X115489431Y-80652732D01*
X115489432Y-80652734D01*
X115619954Y-80839141D01*
X115780858Y-81000045D01*
X115780861Y-81000047D01*
X115967266Y-81130568D01*
X116173504Y-81226739D01*
X116173509Y-81226740D01*
X116173511Y-81226741D01*
X116226415Y-81240916D01*
X116393308Y-81285635D01*
X116555230Y-81299801D01*
X116619998Y-81305468D01*
X116620000Y-81305468D01*
X116620002Y-81305468D01*
X116676673Y-81300509D01*
X116846692Y-81285635D01*
X117066496Y-81226739D01*
X117272734Y-81130568D01*
X117459139Y-81000047D01*
X117620047Y-80839139D01*
X117750568Y-80652734D01*
X117846739Y-80446496D01*
X117905635Y-80226692D01*
X117925468Y-80000000D01*
X117925467Y-79999994D01*
X119494357Y-79999994D01*
X119494357Y-80000005D01*
X119514890Y-80247812D01*
X119514892Y-80247824D01*
X119575936Y-80488881D01*
X119675826Y-80716606D01*
X119811833Y-80924782D01*
X119811836Y-80924785D01*
X119980256Y-81107738D01*
X120063008Y-81172147D01*
X120103821Y-81228857D01*
X120107496Y-81298630D01*
X120072864Y-81359313D01*
X120063014Y-81367848D01*
X120021706Y-81400000D01*
X119980257Y-81432261D01*
X119811833Y-81615217D01*
X119675826Y-81823393D01*
X119575936Y-82051118D01*
X119514892Y-82292175D01*
X119514890Y-82292187D01*
X119494357Y-82539994D01*
X119494357Y-82540005D01*
X119514890Y-82787812D01*
X119514892Y-82787824D01*
X119575936Y-83028881D01*
X119675825Y-83256603D01*
X119675827Y-83256607D01*
X119806742Y-83456988D01*
X119826929Y-83523877D01*
X119807749Y-83591063D01*
X119762367Y-83633637D01*
X119757670Y-83636201D01*
X119642455Y-83722452D01*
X119642452Y-83722455D01*
X119556206Y-83837664D01*
X119556202Y-83837671D01*
X119505908Y-83972517D01*
X119502239Y-84006649D01*
X119499501Y-84032123D01*
X119499500Y-84032135D01*
X119499500Y-86127870D01*
X119499501Y-86127876D01*
X119505908Y-86187483D01*
X119556202Y-86322328D01*
X119556206Y-86322335D01*
X119642452Y-86437544D01*
X119642455Y-86437547D01*
X119757664Y-86523793D01*
X119757671Y-86523797D01*
X119892517Y-86574091D01*
X119892516Y-86574091D01*
X119899444Y-86574835D01*
X119952127Y-86580500D01*
X122047872Y-86580499D01*
X122107483Y-86574091D01*
X122242331Y-86523796D01*
X122357546Y-86437546D01*
X122443796Y-86322331D01*
X122494091Y-86187483D01*
X122500500Y-86127873D01*
X122500499Y-84032128D01*
X122494091Y-83972517D01*
X122469858Y-83907546D01*
X122443797Y-83837671D01*
X122443793Y-83837664D01*
X122357547Y-83722455D01*
X122357544Y-83722452D01*
X122242332Y-83636204D01*
X122237635Y-83633639D01*
X122188232Y-83584232D01*
X122173382Y-83515958D01*
X122193257Y-83456989D01*
X122324173Y-83256607D01*
X122424063Y-83028881D01*
X122485108Y-82787821D01*
X122485109Y-82787812D01*
X122505643Y-82540005D01*
X122505643Y-82539994D01*
X122485109Y-82292187D01*
X122485107Y-82292175D01*
X122424063Y-82051118D01*
X122401638Y-81999995D01*
X127294732Y-81999995D01*
X127294732Y-82000000D01*
X127313777Y-82254154D01*
X127370490Y-82502630D01*
X127370492Y-82502637D01*
X127463608Y-82739890D01*
X127490536Y-82786531D01*
X127591041Y-82960612D01*
X127749950Y-83159877D01*
X127936783Y-83333232D01*
X128147366Y-83476805D01*
X128147371Y-83476807D01*
X128147372Y-83476808D01*
X128147373Y-83476809D01*
X128228668Y-83515958D01*
X128376992Y-83587387D01*
X128376993Y-83587387D01*
X128376996Y-83587389D01*
X128620542Y-83662513D01*
X128872565Y-83700500D01*
X129127435Y-83700500D01*
X129379458Y-83662513D01*
X129623004Y-83587389D01*
X129852634Y-83476805D01*
X130063217Y-83333232D01*
X130250050Y-83159877D01*
X130408959Y-82960612D01*
X130536393Y-82739888D01*
X130629508Y-82502637D01*
X130686222Y-82254157D01*
X130705268Y-82000000D01*
X130702419Y-81961987D01*
X130687521Y-81763181D01*
X130686222Y-81745843D01*
X130629508Y-81497363D01*
X130536393Y-81260112D01*
X130408959Y-81039388D01*
X130250050Y-80840123D01*
X130063217Y-80666768D01*
X129852634Y-80523195D01*
X129852630Y-80523193D01*
X129852627Y-80523191D01*
X129852626Y-80523190D01*
X129623006Y-80412612D01*
X129623008Y-80412612D01*
X129379466Y-80337489D01*
X129379462Y-80337488D01*
X129379458Y-80337487D01*
X129253350Y-80318479D01*
X129127440Y-80299500D01*
X129127435Y-80299500D01*
X128872565Y-80299500D01*
X128872559Y-80299500D01*
X128715609Y-80323157D01*
X128620542Y-80337487D01*
X128620539Y-80337488D01*
X128620533Y-80337489D01*
X128376992Y-80412612D01*
X128147373Y-80523190D01*
X128147372Y-80523191D01*
X127936782Y-80666768D01*
X127749952Y-80840121D01*
X127749950Y-80840123D01*
X127591041Y-81039388D01*
X127463608Y-81260109D01*
X127370492Y-81497362D01*
X127370490Y-81497369D01*
X127313777Y-81745845D01*
X127294732Y-81999995D01*
X122401638Y-81999995D01*
X122324173Y-81823393D01*
X122188166Y-81615217D01*
X122161237Y-81585964D01*
X122019744Y-81432262D01*
X121936991Y-81367852D01*
X121896179Y-81311143D01*
X121892504Y-81241370D01*
X121927136Y-81180687D01*
X121936985Y-81172151D01*
X122019744Y-81107738D01*
X122188164Y-80924785D01*
X122324173Y-80716607D01*
X122424063Y-80488881D01*
X122485108Y-80247821D01*
X122485109Y-80247812D01*
X122505643Y-80000005D01*
X122505643Y-79999994D01*
X122485109Y-79752187D01*
X122485107Y-79752175D01*
X122424063Y-79511118D01*
X122324173Y-79283393D01*
X122188166Y-79075217D01*
X122096156Y-78975268D01*
X122019744Y-78892262D01*
X121823509Y-78739526D01*
X121823507Y-78739525D01*
X121823506Y-78739524D01*
X121604811Y-78621172D01*
X121604802Y-78621169D01*
X121369616Y-78540429D01*
X121124335Y-78499500D01*
X120875665Y-78499500D01*
X120630383Y-78540429D01*
X120395197Y-78621169D01*
X120395188Y-78621172D01*
X120176493Y-78739524D01*
X120133152Y-78773258D01*
X119980256Y-78892262D01*
X119971671Y-78901588D01*
X119811833Y-79075217D01*
X119675826Y-79283393D01*
X119575936Y-79511118D01*
X119514892Y-79752175D01*
X119514890Y-79752187D01*
X119494357Y-79999994D01*
X117925467Y-79999994D01*
X117919801Y-79935230D01*
X117905635Y-79773308D01*
X117846739Y-79553504D01*
X117750568Y-79347266D01*
X117620047Y-79160861D01*
X117620045Y-79160858D01*
X117459141Y-78999954D01*
X117272734Y-78869432D01*
X117272732Y-78869431D01*
X117066497Y-78773261D01*
X117066488Y-78773258D01*
X116846697Y-78714366D01*
X116846693Y-78714365D01*
X116846692Y-78714365D01*
X116846691Y-78714364D01*
X116846686Y-78714364D01*
X116620002Y-78694532D01*
X116619998Y-78694532D01*
X116393313Y-78714364D01*
X116393302Y-78714366D01*
X116173511Y-78773258D01*
X116173502Y-78773261D01*
X115967267Y-78869431D01*
X115967265Y-78869432D01*
X115780858Y-78999954D01*
X115619954Y-79160858D01*
X115489432Y-79347265D01*
X115489431Y-79347267D01*
X115393261Y-79553502D01*
X115393258Y-79553511D01*
X115334366Y-79773302D01*
X115334364Y-79773313D01*
X115314532Y-79999998D01*
X110900500Y-79999998D01*
X110900500Y-75911307D01*
X110900499Y-75911303D01*
X110887247Y-75844681D01*
X110865895Y-75737334D01*
X110798013Y-75573453D01*
X110798012Y-75573452D01*
X110798009Y-75573446D01*
X110699464Y-75425964D01*
X110699461Y-75425960D01*
X109034035Y-73760535D01*
X109034030Y-73760531D01*
X108974961Y-73721064D01*
X108974960Y-73721063D01*
X108886544Y-73661985D01*
X108886542Y-73661984D01*
X108804607Y-73628046D01*
X108804606Y-73628046D01*
X108722666Y-73594105D01*
X108722658Y-73594103D01*
X108548696Y-73559500D01*
X108548692Y-73559500D01*
X108548691Y-73559500D01*
X106451440Y-73559500D01*
X106384401Y-73539815D01*
X106338646Y-73487011D01*
X106335258Y-73478833D01*
X106293797Y-73367671D01*
X106293793Y-73367664D01*
X106207547Y-73252455D01*
X106207544Y-73252452D01*
X106092335Y-73166206D01*
X106092328Y-73166202D01*
X105957482Y-73115908D01*
X105957483Y-73115908D01*
X105897883Y-73109501D01*
X105897881Y-73109500D01*
X105897873Y-73109500D01*
X105897864Y-73109500D01*
X104102129Y-73109500D01*
X104102123Y-73109501D01*
X104042516Y-73115908D01*
X103907671Y-73166202D01*
X103907664Y-73166206D01*
X103792455Y-73252452D01*
X103792452Y-73252455D01*
X103706206Y-73367664D01*
X103706202Y-73367671D01*
X103655908Y-73502517D01*
X103649501Y-73562116D01*
X103649500Y-73562135D01*
X103649500Y-75357870D01*
X103649501Y-75357876D01*
X103655908Y-75417483D01*
X103706202Y-75552328D01*
X103706206Y-75552335D01*
X103792452Y-75667544D01*
X103792455Y-75667547D01*
X103907664Y-75753793D01*
X103907671Y-75753797D01*
X104039081Y-75802810D01*
X104095015Y-75844681D01*
X104119432Y-75910145D01*
X104104580Y-75978418D01*
X104083430Y-76006673D01*
X103961503Y-76128600D01*
X103825965Y-76322169D01*
X103825964Y-76322171D01*
X103726098Y-76536335D01*
X103726094Y-76536344D01*
X103664938Y-76764586D01*
X103664936Y-76764596D01*
X103644341Y-76999999D01*
X95500500Y-76999999D01*
X95500500Y-67878711D01*
X98149500Y-67878711D01*
X98149500Y-68121288D01*
X98181161Y-68361785D01*
X98243947Y-68596104D01*
X98335473Y-68817067D01*
X98336776Y-68820212D01*
X98458064Y-69030289D01*
X98458066Y-69030292D01*
X98458067Y-69030293D01*
X98605733Y-69222736D01*
X98605739Y-69222743D01*
X98777256Y-69394260D01*
X98777262Y-69394265D01*
X98969711Y-69541936D01*
X99179788Y-69663224D01*
X99403900Y-69756054D01*
X99638211Y-69818838D01*
X99818586Y-69842584D01*
X99878711Y-69850500D01*
X99878712Y-69850500D01*
X100121289Y-69850500D01*
X100169388Y-69844167D01*
X100361789Y-69818838D01*
X100596100Y-69756054D01*
X100820212Y-69663224D01*
X101030289Y-69541936D01*
X101222738Y-69394265D01*
X101394265Y-69222738D01*
X101541936Y-69030289D01*
X101663224Y-68820212D01*
X101756054Y-68596100D01*
X101818838Y-68361789D01*
X101850500Y-68121288D01*
X101850500Y-67878712D01*
X101845290Y-67839141D01*
X101832685Y-67743393D01*
X101818838Y-67638211D01*
X101756054Y-67403900D01*
X101663224Y-67179788D01*
X101559422Y-66999998D01*
X104074532Y-66999998D01*
X104074532Y-67000001D01*
X104094364Y-67226686D01*
X104094366Y-67226697D01*
X104153258Y-67446488D01*
X104153261Y-67446497D01*
X104249431Y-67652732D01*
X104249432Y-67652734D01*
X104379954Y-67839141D01*
X104540858Y-68000045D01*
X104540861Y-68000047D01*
X104727266Y-68130568D01*
X104933504Y-68226739D01*
X105153308Y-68285635D01*
X105315230Y-68299801D01*
X105379998Y-68305468D01*
X105380000Y-68305468D01*
X105380002Y-68305468D01*
X105436673Y-68300509D01*
X105606692Y-68285635D01*
X105826496Y-68226739D01*
X106032734Y-68130568D01*
X106219139Y-68000047D01*
X106380047Y-67839139D01*
X106510568Y-67652734D01*
X106606739Y-67446496D01*
X106665635Y-67226692D01*
X106684600Y-67009917D01*
X106685468Y-67000001D01*
X106685468Y-66999998D01*
X111694532Y-66999998D01*
X111694532Y-67000001D01*
X111714364Y-67226686D01*
X111714366Y-67226697D01*
X111773258Y-67446488D01*
X111773261Y-67446497D01*
X111869431Y-67652732D01*
X111869432Y-67652734D01*
X111999954Y-67839141D01*
X112160858Y-68000045D01*
X112160861Y-68000047D01*
X112347266Y-68130568D01*
X112553504Y-68226739D01*
X112773308Y-68285635D01*
X112935230Y-68299801D01*
X112999998Y-68305468D01*
X113000000Y-68305468D01*
X113000002Y-68305468D01*
X113056673Y-68300509D01*
X113226692Y-68285635D01*
X113446496Y-68226739D01*
X113652734Y-68130568D01*
X113839139Y-68000047D01*
X114000047Y-67839139D01*
X114130568Y-67652734D01*
X114226739Y-67446496D01*
X114285635Y-67226692D01*
X114304600Y-67009917D01*
X114305468Y-67000001D01*
X114305468Y-66999998D01*
X114285635Y-66773313D01*
X114285635Y-66773308D01*
X114226739Y-66553504D01*
X114130568Y-66347266D01*
X114000047Y-66160861D01*
X114000045Y-66160858D01*
X113839141Y-65999954D01*
X113724945Y-65919994D01*
X117494357Y-65919994D01*
X117494357Y-65920005D01*
X117514890Y-66167812D01*
X117514892Y-66167824D01*
X117575936Y-66408881D01*
X117675826Y-66636606D01*
X117811833Y-66844782D01*
X117811836Y-66844785D01*
X117980256Y-67027738D01*
X118063008Y-67092147D01*
X118103821Y-67148857D01*
X118107496Y-67218630D01*
X118072864Y-67279313D01*
X118063014Y-67287848D01*
X118043634Y-67302933D01*
X117980257Y-67352261D01*
X117811833Y-67535217D01*
X117675826Y-67743393D01*
X117575936Y-67971118D01*
X117514892Y-68212175D01*
X117514890Y-68212187D01*
X117494357Y-68459994D01*
X117494357Y-68460005D01*
X117514890Y-68707812D01*
X117514892Y-68707824D01*
X117575936Y-68948881D01*
X117675825Y-69176603D01*
X117675827Y-69176607D01*
X117806742Y-69376988D01*
X117826929Y-69443877D01*
X117807749Y-69511063D01*
X117762367Y-69553637D01*
X117757670Y-69556201D01*
X117642455Y-69642452D01*
X117642452Y-69642455D01*
X117556206Y-69757664D01*
X117556202Y-69757671D01*
X117505908Y-69892517D01*
X117499501Y-69952116D01*
X117499501Y-69952123D01*
X117499500Y-69952135D01*
X117499500Y-72047870D01*
X117499501Y-72047876D01*
X117505908Y-72107483D01*
X117556202Y-72242328D01*
X117556206Y-72242335D01*
X117642452Y-72357544D01*
X117642455Y-72357547D01*
X117757664Y-72443793D01*
X117757671Y-72443797D01*
X117892517Y-72494091D01*
X117892516Y-72494091D01*
X117899444Y-72494835D01*
X117952127Y-72500500D01*
X120047872Y-72500499D01*
X120107483Y-72494091D01*
X120242331Y-72443796D01*
X120300836Y-72399999D01*
X154089341Y-72399999D01*
X154089341Y-72400000D01*
X154109936Y-72635403D01*
X154109938Y-72635413D01*
X154171094Y-72863655D01*
X154171096Y-72863659D01*
X154171097Y-72863663D01*
X154251004Y-73035023D01*
X154270965Y-73077830D01*
X154270967Y-73077834D01*
X154379281Y-73232521D01*
X154406505Y-73271401D01*
X154573599Y-73438495D01*
X154631208Y-73478833D01*
X154767165Y-73574032D01*
X154767167Y-73574033D01*
X154767170Y-73574035D01*
X154981337Y-73673903D01*
X155209592Y-73735063D01*
X155380319Y-73750000D01*
X155444999Y-73755659D01*
X155445000Y-73755659D01*
X155445001Y-73755659D01*
X155509681Y-73750000D01*
X155680408Y-73735063D01*
X155908663Y-73673903D01*
X156122830Y-73574035D01*
X156316401Y-73438495D01*
X156483495Y-73271401D01*
X156613425Y-73085842D01*
X156668002Y-73042217D01*
X156737500Y-73035023D01*
X156799855Y-73066546D01*
X156816575Y-73085842D01*
X156946500Y-73271395D01*
X156946505Y-73271401D01*
X157113599Y-73438495D01*
X157171208Y-73478833D01*
X157307165Y-73574032D01*
X157307167Y-73574033D01*
X157307170Y-73574035D01*
X157521337Y-73673903D01*
X157749592Y-73735063D01*
X157920319Y-73750000D01*
X157984999Y-73755659D01*
X157985000Y-73755659D01*
X157985001Y-73755659D01*
X158049681Y-73750000D01*
X158220408Y-73735063D01*
X158448663Y-73673903D01*
X158662830Y-73574035D01*
X158856401Y-73438495D01*
X158978717Y-73316178D01*
X159040036Y-73282696D01*
X159109728Y-73287680D01*
X159165662Y-73329551D01*
X159182577Y-73360528D01*
X159231646Y-73492088D01*
X159231649Y-73492093D01*
X159317809Y-73607187D01*
X159317812Y-73607190D01*
X159432906Y-73693350D01*
X159432913Y-73693354D01*
X159567620Y-73743596D01*
X159567627Y-73743598D01*
X159627155Y-73749999D01*
X159627172Y-73750000D01*
X160275000Y-73750000D01*
X160275000Y-72833012D01*
X160332007Y-72865925D01*
X160459174Y-72900000D01*
X160590826Y-72900000D01*
X160717993Y-72865925D01*
X160775000Y-72833012D01*
X160775000Y-73750000D01*
X161422828Y-73750000D01*
X161422844Y-73749999D01*
X161482372Y-73743598D01*
X161482379Y-73743596D01*
X161617086Y-73693354D01*
X161617093Y-73693350D01*
X161732187Y-73607190D01*
X161732190Y-73607187D01*
X161818350Y-73492093D01*
X161818354Y-73492086D01*
X161868596Y-73357379D01*
X161868598Y-73357372D01*
X161874999Y-73297844D01*
X161875000Y-73297827D01*
X161875000Y-72650000D01*
X160958012Y-72650000D01*
X160990925Y-72592993D01*
X161025000Y-72465826D01*
X161025000Y-72399999D01*
X166404341Y-72399999D01*
X166404341Y-72400000D01*
X166424936Y-72635403D01*
X166424938Y-72635413D01*
X166486094Y-72863655D01*
X166486096Y-72863659D01*
X166486097Y-72863663D01*
X166566004Y-73035023D01*
X166585965Y-73077830D01*
X166585967Y-73077834D01*
X166694281Y-73232521D01*
X166721505Y-73271401D01*
X166888599Y-73438495D01*
X166946208Y-73478833D01*
X167082165Y-73574032D01*
X167082167Y-73574033D01*
X167082170Y-73574035D01*
X167296337Y-73673903D01*
X167524592Y-73735063D01*
X167695319Y-73750000D01*
X167759999Y-73755659D01*
X167760000Y-73755659D01*
X167760001Y-73755659D01*
X167824681Y-73750000D01*
X167995408Y-73735063D01*
X168223663Y-73673903D01*
X168437830Y-73574035D01*
X168631401Y-73438495D01*
X168753717Y-73316178D01*
X168815036Y-73282696D01*
X168884728Y-73287680D01*
X168940662Y-73329551D01*
X168957577Y-73360528D01*
X169006646Y-73492088D01*
X169006649Y-73492093D01*
X169092809Y-73607187D01*
X169092812Y-73607190D01*
X169207906Y-73693350D01*
X169207913Y-73693354D01*
X169342620Y-73743596D01*
X169342627Y-73743598D01*
X169402155Y-73749999D01*
X169402172Y-73750000D01*
X170050000Y-73750000D01*
X170050000Y-72833012D01*
X170107007Y-72865925D01*
X170234174Y-72900000D01*
X170365826Y-72900000D01*
X170492993Y-72865925D01*
X170550000Y-72833012D01*
X170550000Y-73750000D01*
X171197828Y-73750000D01*
X171197844Y-73749999D01*
X171257372Y-73743598D01*
X171257379Y-73743596D01*
X171392086Y-73693354D01*
X171392093Y-73693350D01*
X171507187Y-73607190D01*
X171507190Y-73607187D01*
X171593350Y-73492093D01*
X171593354Y-73492086D01*
X171643596Y-73357379D01*
X171643598Y-73357372D01*
X171649999Y-73297844D01*
X171650000Y-73297827D01*
X171650000Y-72650000D01*
X170733012Y-72650000D01*
X170765925Y-72592993D01*
X170800000Y-72465826D01*
X170800000Y-72334174D01*
X170765925Y-72207007D01*
X170733012Y-72150000D01*
X171650000Y-72150000D01*
X171650000Y-71502172D01*
X171649999Y-71502155D01*
X171643598Y-71442627D01*
X171643596Y-71442620D01*
X171593354Y-71307913D01*
X171593350Y-71307906D01*
X171507190Y-71192812D01*
X171507187Y-71192809D01*
X171392093Y-71106649D01*
X171392086Y-71106645D01*
X171257379Y-71056403D01*
X171257372Y-71056401D01*
X171197844Y-71050000D01*
X170550000Y-71050000D01*
X170550000Y-71966988D01*
X170492993Y-71934075D01*
X170365826Y-71900000D01*
X170234174Y-71900000D01*
X170107007Y-71934075D01*
X170050000Y-71966988D01*
X170050000Y-71050000D01*
X169402155Y-71050000D01*
X169342627Y-71056401D01*
X169342620Y-71056403D01*
X169207913Y-71106645D01*
X169207906Y-71106649D01*
X169092812Y-71192809D01*
X169092809Y-71192812D01*
X169006649Y-71307906D01*
X169006645Y-71307913D01*
X168957578Y-71439470D01*
X168915707Y-71495404D01*
X168850242Y-71519821D01*
X168781969Y-71504969D01*
X168753715Y-71483819D01*
X168709366Y-71439470D01*
X168631401Y-71361505D01*
X168631397Y-71361502D01*
X168631396Y-71361501D01*
X168437834Y-71225967D01*
X168437830Y-71225965D01*
X168366727Y-71192809D01*
X168223663Y-71126097D01*
X168223659Y-71126096D01*
X168223655Y-71126094D01*
X167995413Y-71064938D01*
X167995403Y-71064936D01*
X167760001Y-71044341D01*
X167759999Y-71044341D01*
X167524596Y-71064936D01*
X167524586Y-71064938D01*
X167296344Y-71126094D01*
X167296335Y-71126098D01*
X167082171Y-71225964D01*
X167082169Y-71225965D01*
X166888597Y-71361505D01*
X166721505Y-71528597D01*
X166585965Y-71722169D01*
X166585964Y-71722171D01*
X166486098Y-71936335D01*
X166486094Y-71936344D01*
X166424938Y-72164586D01*
X166424936Y-72164596D01*
X166404341Y-72399999D01*
X161025000Y-72399999D01*
X161025000Y-72334174D01*
X160990925Y-72207007D01*
X160958012Y-72150000D01*
X161875000Y-72150000D01*
X161875000Y-71502172D01*
X161874999Y-71502155D01*
X161868598Y-71442627D01*
X161868596Y-71442620D01*
X161818354Y-71307913D01*
X161818350Y-71307906D01*
X161732190Y-71192812D01*
X161732187Y-71192809D01*
X161617093Y-71106649D01*
X161617086Y-71106645D01*
X161482379Y-71056403D01*
X161482372Y-71056401D01*
X161422844Y-71050000D01*
X160775000Y-71050000D01*
X160775000Y-71966988D01*
X160717993Y-71934075D01*
X160590826Y-71900000D01*
X160459174Y-71900000D01*
X160332007Y-71934075D01*
X160275000Y-71966988D01*
X160275000Y-71050000D01*
X159627155Y-71050000D01*
X159567627Y-71056401D01*
X159567620Y-71056403D01*
X159432913Y-71106645D01*
X159432906Y-71106649D01*
X159317812Y-71192809D01*
X159317809Y-71192812D01*
X159231649Y-71307906D01*
X159231645Y-71307913D01*
X159182578Y-71439470D01*
X159140707Y-71495404D01*
X159075242Y-71519821D01*
X159006969Y-71504969D01*
X158978715Y-71483819D01*
X158934366Y-71439470D01*
X158856401Y-71361505D01*
X158856397Y-71361502D01*
X158856396Y-71361501D01*
X158662834Y-71225967D01*
X158662830Y-71225965D01*
X158591727Y-71192809D01*
X158448663Y-71126097D01*
X158448659Y-71126096D01*
X158448655Y-71126094D01*
X158220413Y-71064938D01*
X158220403Y-71064936D01*
X157985001Y-71044341D01*
X157984999Y-71044341D01*
X157749596Y-71064936D01*
X157749586Y-71064938D01*
X157521344Y-71126094D01*
X157521335Y-71126098D01*
X157307171Y-71225964D01*
X157307169Y-71225965D01*
X157113597Y-71361505D01*
X156946505Y-71528597D01*
X156816575Y-71714158D01*
X156761998Y-71757783D01*
X156692500Y-71764977D01*
X156630145Y-71733454D01*
X156613425Y-71714158D01*
X156483494Y-71528597D01*
X156316402Y-71361506D01*
X156316395Y-71361501D01*
X156122834Y-71225967D01*
X156122830Y-71225965D01*
X156051727Y-71192809D01*
X155908663Y-71126097D01*
X155908659Y-71126096D01*
X155908655Y-71126094D01*
X155680413Y-71064938D01*
X155680403Y-71064936D01*
X155445001Y-71044341D01*
X155444999Y-71044341D01*
X155209596Y-71064936D01*
X155209586Y-71064938D01*
X154981344Y-71126094D01*
X154981335Y-71126098D01*
X154767171Y-71225964D01*
X154767169Y-71225965D01*
X154573597Y-71361505D01*
X154406505Y-71528597D01*
X154270965Y-71722169D01*
X154270964Y-71722171D01*
X154171098Y-71936335D01*
X154171094Y-71936344D01*
X154109938Y-72164586D01*
X154109936Y-72164596D01*
X154089341Y-72399999D01*
X120300836Y-72399999D01*
X120357546Y-72357546D01*
X120443796Y-72242331D01*
X120494091Y-72107483D01*
X120500500Y-72047873D01*
X120500499Y-69952128D01*
X120494091Y-69892517D01*
X120443796Y-69757669D01*
X120443795Y-69757668D01*
X120443793Y-69757664D01*
X120357547Y-69642455D01*
X120357544Y-69642452D01*
X120242332Y-69556204D01*
X120237635Y-69553639D01*
X120188232Y-69504232D01*
X120173382Y-69435958D01*
X120193257Y-69376989D01*
X120324173Y-69176607D01*
X120424063Y-68948881D01*
X120485108Y-68707821D01*
X120488005Y-68672864D01*
X120505643Y-68460005D01*
X120505643Y-68459994D01*
X120485109Y-68212187D01*
X120485107Y-68212175D01*
X120446571Y-68060000D01*
X137309847Y-68060000D01*
X137330409Y-68268774D01*
X137391309Y-68469534D01*
X137469892Y-68616552D01*
X137469893Y-68616552D01*
X138010000Y-68076446D01*
X138010000Y-68108711D01*
X138035215Y-68202815D01*
X138083926Y-68287186D01*
X138152814Y-68356074D01*
X138237185Y-68404785D01*
X138331289Y-68430000D01*
X138363553Y-68430000D01*
X137823445Y-68970106D01*
X137970465Y-69048690D01*
X138171227Y-69109590D01*
X138171223Y-69109590D01*
X138380000Y-69130152D01*
X138588774Y-69109590D01*
X138789532Y-69048690D01*
X138936553Y-68970105D01*
X138396448Y-68430000D01*
X138428711Y-68430000D01*
X138522815Y-68404785D01*
X138607186Y-68356074D01*
X138676074Y-68287186D01*
X138724785Y-68202815D01*
X138750000Y-68108711D01*
X138750000Y-68076447D01*
X139290105Y-68616552D01*
X139368690Y-68469532D01*
X139429590Y-68268774D01*
X139450152Y-68060000D01*
X139849345Y-68060000D01*
X139869917Y-68268876D01*
X139930844Y-68469723D01*
X140029779Y-68654818D01*
X140029783Y-68654825D01*
X140162932Y-68817067D01*
X140325174Y-68950216D01*
X140325181Y-68950220D01*
X140385659Y-68982546D01*
X140510278Y-69049156D01*
X140711126Y-69110083D01*
X140920000Y-69130655D01*
X141128874Y-69110083D01*
X141329722Y-69049156D01*
X141514824Y-68950217D01*
X141677067Y-68817067D01*
X141810217Y-68654824D01*
X141909156Y-68469722D01*
X141970083Y-68268874D01*
X141990655Y-68060000D01*
X142389345Y-68060000D01*
X142409917Y-68268876D01*
X142470844Y-68469723D01*
X142569779Y-68654818D01*
X142569783Y-68654825D01*
X142702932Y-68817067D01*
X142865174Y-68950216D01*
X142865181Y-68950220D01*
X142925659Y-68982546D01*
X143050278Y-69049156D01*
X143251126Y-69110083D01*
X143460000Y-69130655D01*
X143668874Y-69110083D01*
X143869722Y-69049156D01*
X144054824Y-68950217D01*
X144217067Y-68817067D01*
X144350217Y-68654824D01*
X144449156Y-68469722D01*
X144510083Y-68268874D01*
X144530655Y-68060000D01*
X144510083Y-67851126D01*
X144449156Y-67650278D01*
X144350217Y-67465176D01*
X144350216Y-67465174D01*
X144335412Y-67447135D01*
X144934500Y-67447135D01*
X144934500Y-68672870D01*
X144934501Y-68672876D01*
X144940908Y-68732483D01*
X144991202Y-68867328D01*
X144991206Y-68867335D01*
X145077452Y-68982544D01*
X145077455Y-68982547D01*
X145192664Y-69068793D01*
X145192671Y-69068797D01*
X145327517Y-69119091D01*
X145327516Y-69119091D01*
X145334444Y-69119835D01*
X145387127Y-69125500D01*
X146612872Y-69125499D01*
X146672483Y-69119091D01*
X146807331Y-69068796D01*
X146922546Y-68982546D01*
X147008796Y-68867331D01*
X147059091Y-68732483D01*
X147065500Y-68672873D01*
X147065499Y-67878711D01*
X178149500Y-67878711D01*
X178149500Y-68121288D01*
X178181161Y-68361785D01*
X178243947Y-68596104D01*
X178335473Y-68817067D01*
X178336776Y-68820212D01*
X178458064Y-69030289D01*
X178458066Y-69030292D01*
X178458067Y-69030293D01*
X178605733Y-69222736D01*
X178605739Y-69222743D01*
X178777256Y-69394260D01*
X178777262Y-69394265D01*
X178969711Y-69541936D01*
X179179788Y-69663224D01*
X179403900Y-69756054D01*
X179638211Y-69818838D01*
X179818586Y-69842584D01*
X179878711Y-69850500D01*
X179878712Y-69850500D01*
X180121289Y-69850500D01*
X180169388Y-69844167D01*
X180361789Y-69818838D01*
X180596100Y-69756054D01*
X180820212Y-69663224D01*
X181030289Y-69541936D01*
X181222738Y-69394265D01*
X181394265Y-69222738D01*
X181541936Y-69030289D01*
X181663224Y-68820212D01*
X181756054Y-68596100D01*
X181818838Y-68361789D01*
X181850500Y-68121288D01*
X181850500Y-67878712D01*
X181845290Y-67839141D01*
X181832685Y-67743393D01*
X181818838Y-67638211D01*
X181756054Y-67403900D01*
X181663224Y-67179788D01*
X181541936Y-66969711D01*
X181394265Y-66777262D01*
X181394260Y-66777256D01*
X181222743Y-66605739D01*
X181222736Y-66605733D01*
X181030293Y-66458067D01*
X181030292Y-66458066D01*
X181030289Y-66458064D01*
X180838381Y-66347266D01*
X180820214Y-66336777D01*
X180820205Y-66336773D01*
X180596104Y-66243947D01*
X180361785Y-66181161D01*
X180121289Y-66149500D01*
X180121288Y-66149500D01*
X179878712Y-66149500D01*
X179878711Y-66149500D01*
X179638214Y-66181161D01*
X179403895Y-66243947D01*
X179179794Y-66336773D01*
X179179785Y-66336777D01*
X178969706Y-66458067D01*
X178777263Y-66605733D01*
X178777256Y-66605739D01*
X178605739Y-66777256D01*
X178605733Y-66777263D01*
X178458067Y-66969706D01*
X178458064Y-66969710D01*
X178458064Y-66969711D01*
X178441817Y-66997851D01*
X178336777Y-67179785D01*
X178336773Y-67179794D01*
X178243947Y-67403895D01*
X178181161Y-67638214D01*
X178149500Y-67878711D01*
X147065499Y-67878711D01*
X147065499Y-67447128D01*
X147059091Y-67387517D01*
X147045941Y-67352261D01*
X147008797Y-67252671D01*
X147008793Y-67252664D01*
X146922547Y-67137455D01*
X146922544Y-67137452D01*
X146807335Y-67051206D01*
X146807328Y-67051202D01*
X146672482Y-67000908D01*
X146672483Y-67000908D01*
X146612883Y-66994501D01*
X146612881Y-66994500D01*
X146612873Y-66994500D01*
X146612864Y-66994500D01*
X145387129Y-66994500D01*
X145387123Y-66994501D01*
X145327516Y-67000908D01*
X145192671Y-67051202D01*
X145192664Y-67051206D01*
X145077455Y-67137452D01*
X145077452Y-67137455D01*
X144991206Y-67252664D01*
X144991202Y-67252671D01*
X144940908Y-67387517D01*
X144934569Y-67446488D01*
X144934501Y-67447123D01*
X144934500Y-67447135D01*
X144335412Y-67447135D01*
X144217067Y-67302932D01*
X144054825Y-67169783D01*
X144054818Y-67169779D01*
X143869723Y-67070844D01*
X143668876Y-67009917D01*
X143460000Y-66989345D01*
X143251123Y-67009917D01*
X143050276Y-67070844D01*
X142865181Y-67169779D01*
X142865174Y-67169783D01*
X142702932Y-67302932D01*
X142569783Y-67465174D01*
X142569779Y-67465181D01*
X142470844Y-67650276D01*
X142409917Y-67851123D01*
X142389345Y-68060000D01*
X141990655Y-68060000D01*
X141970083Y-67851126D01*
X141909156Y-67650278D01*
X141810217Y-67465176D01*
X141810216Y-67465174D01*
X141677067Y-67302932D01*
X141514825Y-67169783D01*
X141514818Y-67169779D01*
X141329723Y-67070844D01*
X141128876Y-67009917D01*
X140920000Y-66989345D01*
X140711123Y-67009917D01*
X140510276Y-67070844D01*
X140325181Y-67169779D01*
X140325174Y-67169783D01*
X140162932Y-67302932D01*
X140029783Y-67465174D01*
X140029779Y-67465181D01*
X139930844Y-67650276D01*
X139869917Y-67851123D01*
X139849345Y-68060000D01*
X139450152Y-68060000D01*
X139429590Y-67851225D01*
X139368690Y-67650465D01*
X139290106Y-67503445D01*
X138750000Y-68043551D01*
X138750000Y-68011289D01*
X138724785Y-67917185D01*
X138676074Y-67832814D01*
X138607186Y-67763926D01*
X138522815Y-67715215D01*
X138428711Y-67690000D01*
X138396448Y-67690000D01*
X138936552Y-67149893D01*
X138936552Y-67149892D01*
X138789534Y-67071309D01*
X138588772Y-67010409D01*
X138588776Y-67010409D01*
X138380000Y-66989847D01*
X138171225Y-67010409D01*
X137970471Y-67071307D01*
X137823446Y-67149893D01*
X138363553Y-67690000D01*
X138331289Y-67690000D01*
X138237185Y-67715215D01*
X138152814Y-67763926D01*
X138083926Y-67832814D01*
X138035215Y-67917185D01*
X138010000Y-68011289D01*
X138010000Y-68043552D01*
X137469893Y-67503446D01*
X137391307Y-67650471D01*
X137330409Y-67851225D01*
X137309847Y-68060000D01*
X120446571Y-68060000D01*
X120424063Y-67971118D01*
X120324173Y-67743393D01*
X120188166Y-67535217D01*
X120123693Y-67465181D01*
X120019744Y-67352262D01*
X119936991Y-67287852D01*
X119896179Y-67231143D01*
X119892504Y-67161370D01*
X119927136Y-67100687D01*
X119936985Y-67092151D01*
X120019744Y-67027738D01*
X120188164Y-66844785D01*
X120324173Y-66636607D01*
X120424063Y-66408881D01*
X120485108Y-66167821D01*
X120499010Y-66000047D01*
X120505643Y-65920005D01*
X120505643Y-65919994D01*
X120485109Y-65672187D01*
X120485107Y-65672175D01*
X120424063Y-65431118D01*
X120324173Y-65203393D01*
X120191289Y-64999997D01*
X138380034Y-64999997D01*
X138380034Y-65000002D01*
X138399858Y-65226599D01*
X138399860Y-65226610D01*
X138458730Y-65446317D01*
X138458735Y-65446331D01*
X138554863Y-65652478D01*
X138605974Y-65725472D01*
X139285000Y-65046446D01*
X139285000Y-65052661D01*
X139312259Y-65154394D01*
X139364920Y-65245606D01*
X139439394Y-65320080D01*
X139530606Y-65372741D01*
X139632339Y-65400000D01*
X139638553Y-65400000D01*
X138959526Y-66079025D01*
X139032513Y-66130132D01*
X139032521Y-66130136D01*
X139238668Y-66226264D01*
X139238682Y-66226269D01*
X139458389Y-66285139D01*
X139458400Y-66285141D01*
X139684998Y-66304966D01*
X139685002Y-66304966D01*
X139911599Y-66285141D01*
X139911610Y-66285139D01*
X140131317Y-66226269D01*
X140131331Y-66226264D01*
X140337478Y-66130136D01*
X140410471Y-66079024D01*
X139731447Y-65400000D01*
X139737661Y-65400000D01*
X139839394Y-65372741D01*
X139930606Y-65320080D01*
X140005080Y-65245606D01*
X140057741Y-65154394D01*
X140085000Y-65052661D01*
X140085000Y-65046447D01*
X140764024Y-65725471D01*
X140815136Y-65652478D01*
X140911264Y-65446331D01*
X140911269Y-65446317D01*
X140970139Y-65226610D01*
X140970141Y-65226599D01*
X140989966Y-65000002D01*
X140989966Y-64999998D01*
X145999532Y-64999998D01*
X145999532Y-65000001D01*
X146019364Y-65226686D01*
X146019366Y-65226697D01*
X146078258Y-65446488D01*
X146078261Y-65446497D01*
X146174431Y-65652732D01*
X146174432Y-65652734D01*
X146304954Y-65839141D01*
X146465858Y-66000045D01*
X146465861Y-66000047D01*
X146652266Y-66130568D01*
X146858504Y-66226739D01*
X147078308Y-66285635D01*
X147240230Y-66299801D01*
X147304998Y-66305468D01*
X147305000Y-66305468D01*
X147305002Y-66305468D01*
X147361673Y-66300509D01*
X147531692Y-66285635D01*
X147751496Y-66226739D01*
X147957734Y-66130568D01*
X148144139Y-66000047D01*
X148305047Y-65839139D01*
X148435568Y-65652734D01*
X148531739Y-65446496D01*
X148590635Y-65226692D01*
X148610468Y-65000000D01*
X148610049Y-64995215D01*
X148590635Y-64773313D01*
X148590635Y-64773308D01*
X148531739Y-64553504D01*
X148435568Y-64347266D01*
X148305047Y-64160861D01*
X148305045Y-64160858D01*
X148144141Y-63999954D01*
X147957734Y-63869432D01*
X147957732Y-63869431D01*
X147751497Y-63773261D01*
X147751488Y-63773258D01*
X147531697Y-63714366D01*
X147531693Y-63714365D01*
X147531692Y-63714365D01*
X147531691Y-63714364D01*
X147531686Y-63714364D01*
X147305002Y-63694532D01*
X147304998Y-63694532D01*
X147078313Y-63714364D01*
X147078302Y-63714366D01*
X146858511Y-63773258D01*
X146858502Y-63773261D01*
X146652267Y-63869431D01*
X146652265Y-63869432D01*
X146465858Y-63999954D01*
X146304954Y-64160858D01*
X146174432Y-64347265D01*
X146174431Y-64347267D01*
X146078261Y-64553502D01*
X146078258Y-64553511D01*
X146019366Y-64773302D01*
X146019364Y-64773313D01*
X145999532Y-64999998D01*
X140989966Y-64999998D01*
X140989966Y-64999997D01*
X140970141Y-64773400D01*
X140970139Y-64773389D01*
X140911269Y-64553682D01*
X140911264Y-64553668D01*
X140815136Y-64347521D01*
X140815132Y-64347513D01*
X140764025Y-64274526D01*
X140085000Y-64953551D01*
X140085000Y-64947339D01*
X140057741Y-64845606D01*
X140005080Y-64754394D01*
X139930606Y-64679920D01*
X139839394Y-64627259D01*
X139737661Y-64600000D01*
X139731448Y-64600000D01*
X140410472Y-63920974D01*
X140337478Y-63869863D01*
X140131331Y-63773735D01*
X140131317Y-63773730D01*
X139911610Y-63714860D01*
X139911599Y-63714858D01*
X139685002Y-63695034D01*
X139684998Y-63695034D01*
X139458400Y-63714858D01*
X139458389Y-63714860D01*
X139238682Y-63773730D01*
X139238673Y-63773734D01*
X139032516Y-63869866D01*
X139032512Y-63869868D01*
X138959526Y-63920973D01*
X138959526Y-63920974D01*
X139638553Y-64600000D01*
X139632339Y-64600000D01*
X139530606Y-64627259D01*
X139439394Y-64679920D01*
X139364920Y-64754394D01*
X139312259Y-64845606D01*
X139285000Y-64947339D01*
X139285000Y-64953552D01*
X138605974Y-64274526D01*
X138605973Y-64274526D01*
X138554868Y-64347512D01*
X138554866Y-64347516D01*
X138458734Y-64553673D01*
X138458730Y-64553682D01*
X138399860Y-64773389D01*
X138399858Y-64773400D01*
X138380034Y-64999997D01*
X120191289Y-64999997D01*
X120188166Y-64995217D01*
X120144091Y-64947339D01*
X120019744Y-64812262D01*
X119823509Y-64659526D01*
X119823507Y-64659525D01*
X119823506Y-64659524D01*
X119604811Y-64541172D01*
X119604802Y-64541169D01*
X119369616Y-64460429D01*
X119124335Y-64419500D01*
X118875665Y-64419500D01*
X118630383Y-64460429D01*
X118395197Y-64541169D01*
X118395188Y-64541172D01*
X118176493Y-64659524D01*
X117980257Y-64812261D01*
X117811833Y-64995217D01*
X117675826Y-65203393D01*
X117575936Y-65431118D01*
X117514892Y-65672175D01*
X117514890Y-65672187D01*
X117494357Y-65919994D01*
X113724945Y-65919994D01*
X113652734Y-65869432D01*
X113652732Y-65869431D01*
X113446497Y-65773261D01*
X113446488Y-65773258D01*
X113226697Y-65714366D01*
X113226693Y-65714365D01*
X113226692Y-65714365D01*
X113226691Y-65714364D01*
X113226686Y-65714364D01*
X113000002Y-65694532D01*
X112999998Y-65694532D01*
X112773313Y-65714364D01*
X112773302Y-65714366D01*
X112553511Y-65773258D01*
X112553502Y-65773261D01*
X112347267Y-65869431D01*
X112347265Y-65869432D01*
X112160858Y-65999954D01*
X111999954Y-66160858D01*
X111869432Y-66347265D01*
X111869431Y-66347267D01*
X111773261Y-66553502D01*
X111773258Y-66553511D01*
X111714366Y-66773302D01*
X111714364Y-66773313D01*
X111694532Y-66999998D01*
X106685468Y-66999998D01*
X106665635Y-66773313D01*
X106665635Y-66773308D01*
X106606739Y-66553504D01*
X106510568Y-66347266D01*
X106380047Y-66160861D01*
X106380045Y-66160858D01*
X106219141Y-65999954D01*
X106032734Y-65869432D01*
X106032732Y-65869431D01*
X105826497Y-65773261D01*
X105826488Y-65773258D01*
X105606697Y-65714366D01*
X105606693Y-65714365D01*
X105606692Y-65714365D01*
X105606691Y-65714364D01*
X105606686Y-65714364D01*
X105380002Y-65694532D01*
X105379998Y-65694532D01*
X105153313Y-65714364D01*
X105153302Y-65714366D01*
X104933511Y-65773258D01*
X104933502Y-65773261D01*
X104727267Y-65869431D01*
X104727265Y-65869432D01*
X104540858Y-65999954D01*
X104379954Y-66160858D01*
X104249432Y-66347265D01*
X104249431Y-66347267D01*
X104153261Y-66553502D01*
X104153258Y-66553511D01*
X104094366Y-66773302D01*
X104094364Y-66773313D01*
X104074532Y-66999998D01*
X101559422Y-66999998D01*
X101541936Y-66969711D01*
X101394265Y-66777262D01*
X101394260Y-66777256D01*
X101222743Y-66605739D01*
X101222736Y-66605733D01*
X101030293Y-66458067D01*
X101030292Y-66458066D01*
X101030289Y-66458064D01*
X100838381Y-66347266D01*
X100820214Y-66336777D01*
X100820205Y-66336773D01*
X100596104Y-66243947D01*
X100361785Y-66181161D01*
X100121289Y-66149500D01*
X100121288Y-66149500D01*
X99878712Y-66149500D01*
X99878711Y-66149500D01*
X99638214Y-66181161D01*
X99403895Y-66243947D01*
X99179794Y-66336773D01*
X99179785Y-66336777D01*
X98969706Y-66458067D01*
X98777263Y-66605733D01*
X98777256Y-66605739D01*
X98605739Y-66777256D01*
X98605733Y-66777263D01*
X98458067Y-66969706D01*
X98458064Y-66969710D01*
X98458064Y-66969711D01*
X98441817Y-66997851D01*
X98336777Y-67179785D01*
X98336773Y-67179794D01*
X98243947Y-67403895D01*
X98181161Y-67638214D01*
X98149500Y-67878711D01*
X95500500Y-67878711D01*
X95500500Y-62624500D01*
X95520185Y-62557461D01*
X95572989Y-62511706D01*
X95624500Y-62500500D01*
X184375500Y-62500500D01*
X184442539Y-62520185D01*
G37*
%TD.AperFunction*%
%TD*%
D22*
X113000000Y-67000000D03*
X105380000Y-67000000D03*
X113810000Y-97000000D03*
X106190000Y-97000000D03*
X109000000Y-80000000D03*
X116620000Y-80000000D03*
X117000000Y-109000000D03*
X109380000Y-109000000D03*
X119000000Y-71000000D03*
X119000000Y-68460000D03*
X119000000Y-65920000D03*
X105000000Y-74460000D03*
X105000000Y-77000000D03*
X175600000Y-119000000D03*
X175600000Y-116460000D03*
X105400000Y-82700000D03*
X105400000Y-85240000D03*
X170300000Y-72400000D03*
X167760000Y-72400000D03*
X139685000Y-91000000D03*
X147305000Y-91000000D03*
X105400000Y-112700000D03*
X105400000Y-115240000D03*
X146000000Y-68060000D03*
X143460000Y-68060000D03*
X140920000Y-68060000D03*
X138380000Y-68060000D03*
X138380000Y-76000000D03*
X140920000Y-76000000D03*
X143460000Y-76000000D03*
X146000000Y-76000000D03*
X180000000Y-68000000D03*
X175600000Y-110025000D03*
X175600000Y-107485000D03*
X175600000Y-104945000D03*
X175600000Y-85300000D03*
X175600000Y-82760000D03*
X100000000Y-98000000D03*
X122000000Y-116080000D03*
X122000000Y-113540000D03*
X122000000Y-111000000D03*
X121000000Y-85080000D03*
X121000000Y-82540000D03*
X121000000Y-80000000D03*
X127000000Y-115000000D03*
X167640000Y-115000000D03*
X139685000Y-65000000D03*
X147305000Y-65000000D03*
X100000000Y-68000000D03*
X160525000Y-72400000D03*
X157985000Y-72400000D03*
X155445000Y-72400000D03*
X119000000Y-103080000D03*
X119000000Y-100540000D03*
X119000000Y-98000000D03*
X129000000Y-82000000D03*
X169640000Y-82000000D03*
X147000000Y-97000000D03*
X144460000Y-97000000D03*
X141920000Y-97000000D03*
X139380000Y-97000000D03*
X139380000Y-104940000D03*
X141920000Y-104940000D03*
X144460000Y-104940000D03*
X147000000Y-104940000D03*
X105400000Y-103700000D03*
X105400000Y-106240000D03*
X180000000Y-98000000D03*
M02*
