  0
SECTION
  2
HEADER
  9
$ACADVER
  1
AC1015
  9
$ACADMAINTVER
 70
    18
  9
$DWGCODEPAGE
  3
ANSI_1252
  9
$INSBASE
 10
0.0
 20
0.0
 30
0.0
  9
$EXTMIN
 10
0.0
 20
0.0
 30
0.0
  9
$EXTMAX
 10
84.0
 20
118.8
 30
0.0
  9
$LIMMIN
 10
0.0
 20
0.0
  9
$LIMMAX
 10
84.0
 20
118.8
  9
$ORTHOMODE
 70
     0
  9
$REGENMODE
 70
     1
  9
$FILLMODE
 70
     1
  9
$QTEXTMODE
 70
     0
  9
$MIRRTEXT
 70
     0
  9
$LTSCALE
 40
0.4
  9
$ATTMODE
 70
     1
  9
$TEXTSIZE
 40
0.2
  9
$TRACEWID
 40
0.05
  9
$TEXTSTYLE
  7
Standard
  9
$CLAYER
  8
0
  9
$CELTYPE
  6
ByLayer
  9
$CECOLOR
 62
   256
  9
$CELTSCALE
 40
1.0
  9
$DISPSILH
 70
     0
  9
$DIMSCALE
 40
1.0
  9
$DIMASZ
 40
1.799999999999999
  9
$DIMEXO
 40
0.0625
  9
$DIMDLI
 40
0.38
  9
$DIMRND
 40
0.0
  9
$DIMDLE
 40
0.0
  9
$DIMEXE
 40
0.18
  9
$DIMTP
 40
0.0
  9
$DIMTM
 40
0.0
  9
$DIMTXT
 40
1.799999999999999
  9
$DIMCEN
 40
0.09
  9
$DIMTSZ
 40
0.0
  9
$DIMTOL
 70
     0
  9
$DIMLIM
 70
     0
  9
$DIMTIH
 70
     1
  9
$DIMTOH
 70
     1
  9
$DIMSE1
 70
     0
  9
$DIMSE2
 70
     0
  9
$DIMTAD
 70
     0
  9
$DIMZIN
 70
     0
  9
$DIMBLK
  1

  9
$DIMASO
 70
     1
  9
$DIMSHO
 70
     1
  9
$DIMPOST
  1

  9
$DIMAPOST
  1

  9
$DIMALT
 70
     0
  9
$DIMALTD
 70
     2
  9
$DIMALTF
 40
25.4
  9
$DIMLFAC
 40
1.0
  9
$DIMTOFL
 70
     0
  9
$DIMTVP
 40
0.0
  9
$DIMTIX
 70
     0
  9
$DIMSOXD
 70
     0
  9
$DIMSAH
 70
     0
  9
$DIMBLK1
  1

  9
$DIMBLK2
  1

  9
$DIMSTYLE
  2
Standard
  9
$DIMCLRD
 70
     0
  9
$DIMCLRE
 70
     0
  9
$DIMCLRT
 70
     0
  9
$DIMTFAC
 40
1.0
  9
$DIMGAP
 40
0.09
  9
$DIMJUST
 70
     0
  9
$DIMSD1
 70
     0
  9
$DIMSD2
 70
     0
  9
$DIMTOLJ
 70
     1
  9
$DIMTZIN
 70
     0
  9
$DIMALTZ
 70
     0
  9
$DIMALTTZ
 70
     0
  9
$DIMUPT
 70
     0
  9
$DIMDEC
 70
     4
  9
$DIMTDEC
 70
     4
  9
$DIMALTU
 70
     2
  9
$DIMALTTD
 70
     2
  9
$DIMTXSTY
  7
Standard
  9
$DIMAUNIT
 70
     0
  9
$DIMADEC
 70
     0
  9
$DIMALTRND
 40
0.0
  9
$DIMAZIN
 70
     0
  9
$DIMDSEP
 70
    46
  9
$DIMATFIT
 70
     3
  9
$DIMFRAC
 70
     0
  9
$DIMLDRBLK
  1

  9
$DIMLUNIT
 70
     2
  9
$DIMLWD
 70
    -2
  9
$DIMLWE
 70
    -2
  9
$DIMTMOVE
 70
     0
  9
$LUNITS
 70
     2
  9
$LUPREC
 70
     4
  9
$SKETCHINC
 40
0.1
  9
$FILLETRAD
 40
0.0
  9
$AUNITS
 70
     0
  9
$AUPREC
 70
     0
  9
$MENU
  1
.
  9
$ELEVATION
 40
0.0
  9
$PELEVATION
 40
0.0
  9
$THICKNESS
 40
0.0
  9
$LIMCHECK
 70
     0
  9
$CHAMFERA
 40
0.0
  9
$CHAMFERB
 40
0.0
  9
$CHAMFERC
 40
0.0
  9
$CHAMFERD
 40
0.0
  9
$SKPOLY
 70
     0
  9
$TDCREATE
 40
2457218.103889120
  9
$TDUCREATE
 40
2457218.020555787
  9
$TDUPDATE
 40
2457218.103889120
  9
$TDUUPDATE
 40
2457218.020555787
  9
$TDINDWG
 40
0.0001633102
  9
$TDUSRTIMER
 40
0.0001633102
  9
$USRTIMER
 70
     1
  9
$ANGBASE
 50
0.0
  9
$ANGDIR
 70
     0
  9
$PDMODE
 70
     0
  9
$PDSIZE
 40
0.0
  9
$PLINEWID
 40
0.0
  9
$SPLFRAME
 70
     0
  9
$SPLINETYPE
 70
     6
  9
$SPLINESEGS
 70
     8
  9
$HANDSEED
  5
7D0
  9
$SURFTAB1
 70
     6
  9
$SURFTAB2
 70
     6
  9
$SURFTYPE
 70
     6
  9
$SURFU
 70
     6
  9
$SURFV
 70
     6
  9
$UCSBASE
  2

  9
$UCSNAME
  2

  9
$UCSORG
 10
0.0
 20
0.0
 30
0.0
  9
$UCSXDIR
 10
1.0
 20
0.0
 30
0.0
  9
$UCSYDIR
 10
0.0
 20
1.0
 30
0.0
  9
$UCSORTHOREF
  2

  9
$UCSORTHOVIEW
 70
     0
  9
$UCSORGTOP
 10
0.0
 20
0.0
 30
0.0
  9
$UCSORGBOTTOM
 10
0.0
 20
0.0
 30
0.0
  9
$UCSORGLEFT
 10
0.0
 20
0.0
 30
0.0
  9
$UCSORGRIGHT
 10
0.0
 20
0.0
 30
0.0
  9
$UCSORGFRONT
 10
0.0
 20
0.0
 30
0.0
  9
$UCSORGBACK
 10
0.0
 20
0.0
 30
0.0
  9
$PUCSBASE
  2

  9
$PUCSNAME
  2

  9
$PUCSORG
 10
0.0
 20
0.0
 30
0.0
  9
$PUCSXDIR
 10
1.0
 20
0.0
 30
0.0
  9
$PUCSYDIR
 10
0.0
 20
1.0
 30
0.0
  9
$PUCSORTHOREF
  2

  9
$PUCSORTHOVIEW
 70
     0
  9
$PUCSORGTOP
 10
0.0
 20
0.0
 30
0.0
  9
$PUCSORGBOTTOM
 10
0.0
 20
0.0
 30
0.0
  9
$PUCSORGLEFT
 10
0.0
 20
0.0
 30
0.0
  9
$PUCSORGRIGHT
 10
0.0
 20
0.0
 30
0.0
  9
$PUCSORGFRONT
 10
0.0
 20
0.0
 30
0.0
  9
$PUCSORGBACK
 10
0.0
 20
0.0
 30
0.0
  9
$USERI1
 70
     0
  9
$USERI2
 70
     0
  9
$USERI3
 70
     0
  9
$USERI4
 70
     0
  9
$USERI5
 70
     0
  9
$USERR1
 40
0.0
  9
$USERR2
 40
0.0
  9
$USERR3
 40
0.0
  9
$USERR4
 40
0.0
  9
$USERR5
 40
0.0
  9
$WORLDVIEW
 70
     1
  9
$SHADEDGE
 70
     3
  9
$SHADEDIF
 70
    70
  9
$TILEMODE
 70
     1
  9
$MAXACTVP
 70
    64
  9
$PINSBASE
 10
0.0
 20
0.0
 30
0.0
  9
$PLIMCHECK
 70
     0
  9
$PEXTMIN
 10
0.0
 20
0.0
 30
0.0
  9
$PEXTMAX
 10
84.0
 20
118.8
 30
0.0
  9
$PLIMMIN
 10
0.0
 20
0.0
  9
$PLIMMAX
 10
84.0
 20
118.8
  9
$UNITMODE
 70
     0
  9
$VISRETAIN
 70
     1
  9
$PLINEGEN
 70
     0
  9
$PSLTSCALE
 70
     1
  9
$TREEDEPTH
 70
  3020
  9
$CMLSTYLE
  2
Standard
  9
$CMLJUST
 70
     0
  9
$CMLSCALE
 40
1.0
  9
$PROXYGRAPHICS
 70
     1
  9
$MEASUREMENT
 70
     1
  9
$CELWEIGHT
370
    -1
  9
$ENDCAPS
280
     0
  9
$JOINSTYLE
280
     0
  9
$LWDISPLAY
290
     0
  9
$INSUNITS
 70
     4
  9
$HYPERLINKBASE
  1

  9
$STYLESHEET
  1

  9
$XEDIT
290
     1
  9
$CEPSNTYPE
380
     0
  9
$PSTYLEMODE
290
     1
  9
$FINGERPRINTGUID
  2
{65AE6BDE-939C-4777-A02E-2B66FDB2A186}
  9
$VERSIONGUID
  2
{17C8E060-63BC-4AA3-986F-42F95038E4A5}
  9
$EXTNAMES
290
     1
  9
$PSVPSCALE
 40
0.0
  9
$OLESTARTUP
290
     0
  0
ENDSEC
  0
SECTION
  2
CLASSES
  0
CLASS
  1
ACDBDICTIONARYWDFLT
  2
AcDbDictionaryWithDefault
  3
ObjectDBX Classes
 90
        0
280
     0
281
     0
  0
CLASS
  1
MATERIAL
  2
AcDbMaterial
  3
ObjectDBX Classes
 90
     1153
280
     0
281
     0
  0
CLASS
  1
VISUALSTYLE
  2
AcDbVisualStyle
  3
ObjectDBX Classes
 90
     4095
280
     0
281
     0
  0
CLASS
  1
SCALE
  2
AcDbScale
  3
ObjectDBX Classes
 90
     1153
280
     0
281
     0
  0
CLASS
  1
TABLESTYLE
  2
AcDbTableStyle
  3
ObjectDBX Classes
 90
     4095
280
     0
281
     0
  0
CLASS
  1
MLEADERSTYLE
  2
AcDbMLeaderStyle
  3
ACDB_MLEADERSTYLE_CLASS
 90
     4095
280
     0
281
     0
  0
CLASS
  1
DICTIONARYVAR
  2
AcDbDictionaryVar
  3
ObjectDBX Classes
 90
        0
280
     0
281
     0
  0
CLASS
  1
IMAGE
  2
AcDbRasterImage
  3
ISM
 90
     2175
280
     0
281
     1
  0
CLASS
  1
IMAGEDEF
  2
AcDbRasterImageDef
  3
ISM
 90
        0
280
     0
281
     0
  0
CLASS
  1
IMAGEDEF_REACTOR
  2
AcDbRasterImageDefReactor
  3
ISM
 90
        1
280
     0
281
     0
  0
CLASS
  1
RASTERVARIABLES
  2
AcDbRasterVariables
  3
ISM
 90
        0
280
     0
281
     0
  0
CLASS
  1
SORTENTSTABLE
  2
AcDbSortentsTable
  3
ObjectDBX Classes
 90
        0
280
     0
281
     0
  0
CLASS
  1
CELLSTYLEMAP
  2
AcDbCellStyleMap
  3
ObjectDBX Classes
 90
     1152
280
     0
281
     0
  0
CLASS
  1
ACDBPLACEHOLDER
  2
AcDbPlaceHolder
  3
ObjectDBX Classes
 90
        0
280
     0
281
     0
  0
CLASS
  1
LAYOUT
  2
AcDbLayout
  3
ObjectDBX Classes
 90
        0
280
     0
281
     0
  0
ENDSEC
  0
SECTION
  2
TABLES
  0
TABLE
  2
VPORT
  5
8
330
0
100
AcDbSymbolTable
 70
     1
  0
VPORT
  5
62
330
8
100
AcDbSymbolTableRecord
100
AcDbViewportTableRecord
  2
*Active
 70
     0
 10
0.0
 20
0.0
 11
1.0
 21
1.0
 12
42.0
 22
59.40000000000001
 13
0.0
 23
0.0
 14
1.0
 24
1.0
 15
0.0
 25
0.0
 16
0.0
 26
0.0
 36
1.0
 17
0.0
 27
0.0
 37
0.0
 40
118.8
 41
0.707070707070707
 42
50.0
 43
0.0
 44
0.0
 50
0.0
 51
0.0
 71
     0
 72
   100
 73
     1
 74
     1
 75
     0
 76
     0
 77
     0
 78
     0
281
     0
 65
     1
110
0.0
120
0.0
130
0.0
111
1.0
121
0.0
131
0.0
112
0.0
122
1.0
132
0.0
 79
     0
146
0.0
  0
ENDTAB
  0
TABLE
  2
LTYPE
  5
5
330
0
100
AcDbSymbolTable
 70
    59
  0
LTYPE
  5
66
330
5
100
AcDbSymbolTableRecord
100
AcDbLinetypeTableRecord
  2
ByBlock
 70
     0
  3

 72
    65
 73
     0
 40
0.0
  0
LTYPE
  5
67
330
5
100
AcDbSymbolTableRecord
100
AcDbLinetypeTableRecord
  2
ByLayer
 70
     0
  3

 72
    65
 73
     0
 40
0.0
  0
LTYPE
  5
68
330
5
100
AcDbSymbolTableRecord
100
AcDbLinetypeTableRecord
  2
Continuous
 70
     0
  3
Solid line
 72
    65
 73
     0
 40
0.0
  0
LTYPE
  5
85
330
5
100
AcDbSymbolTableRecord
100
AcDbLinetypeTableRecord
  2
Section_View_Lines
 70
     0
  3
Section View Lines
 72
    65
 73
     4
 40
0.8406
 49
0.6614
 74
     0
 49
-0.0827
 74
     0
 49
0.0138
 74
     0
 49
-0.0827
 74
     0
  0
LTYPE
  5
86
330
5
100
AcDbSymbolTableRecord
100
AcDbLinetypeTableRecord
  2
CHAIN
 70
     0
  3
Chain ____ _ ____ _ ____ _ ____ _ ____ _ ____
 72
    65
 73
     4
 40
0.3543
 49
0.2362
 74
     0
 49
-0.0295
 74
     0
 49
0.0591
 74
     0
 49
-0.0295
 74
     0
  0
LTYPE
  5
87
330
5
100
AcDbSymbolTableRecord
100
AcDbLinetypeTableRecord
  2
DASH_DOT
 70
     0
  3
Dash dot _._._._._._._._._._._._._._._.
 72
    65
 73
     4
 40
0.182
 49
0.1181
 74
     0
 49
-0.0295
 74
     0
 49
0.0049
 74
     0
 49
-0.0295
 74
     0
  0
LTYPE
  5
88
330
5
100
AcDbSymbolTableRecord
100
AcDbLinetypeTableRecord
  2
DASH_DOUBLE_DOT
 70
     0
  3
Dash Double Dot __ __ . __ __ . __ __ . __ _
 72
    65
 73
     6
 40
0.2164
 49
0.1181
 74
     0
 49
-0.0295
 74
     0
 49
0.0049
 74
     0
 49
-0.0295
 74
     0
 49
0.0049
 74
     0
 49
-0.0295
 74
     0
  0
LTYPE
  5
89
330
5
100
AcDbSymbolTableRecord
100
AcDbLinetypeTableRecord
  2
DASH_TRIPLE_DOT
 70
     0
  3
Dash Triple-Dot _ . . . _ . . . _ . . . _
 72
    65
 73
     8
 40
0.2508
 49
0.1181
 74
     0
 49
-0.0295
 74
     0
 49
0.0049
 74
     0
 49
-0.0295
 74
     0
 49
0.0049
 74
     0
 49
-0.0295
 74
     0
 49
0.0049
 74
     0
 49
-0.0295
 74
     0
  0
LTYPE
  5
8A
330
5
100
AcDbSymbolTableRecord
100
AcDbLinetypeTableRecord
  2
DASHED
 70
     0
  3
Dashed __ __ __ __ __ __ __ __ __ __ __ __ __ _
 72
    65
 73
     2
 40
0.2068
 49
0.1655
 74
     0
 49
-0.0413
 74
     0
  0
LTYPE
  5
8B
330
5
100
AcDbSymbolTableRecord
100
AcDbLinetypeTableRecord
  2
DASHED_SPACE
 70
     0
  3
Dashed Space __ __ __ __ __ __ __ __ __ __ __ _
 72
    65
 73
     2
 40
0.2067
 49
0.1654
 74
     0
 49
-0.0413
 74
     0
  0
LTYPE
  5
8C
330
5
100
AcDbSymbolTableRecord
100
AcDbLinetypeTableRecord
  2
DOTTED
 70
     0
  3
Dotted . . . . . . . . . . . . . . . . . . . . 
 72
    65
 73
     2
 40
0.0481
 49
0.0068
 74
     0
 49
-0.0413
 74
     0
  0
LTYPE
  5
8D
330
5
100
AcDbSymbolTableRecord
100
AcDbLinetypeTableRecord
  2
DOUBLE_DASH_CHAIN
 70
     0
  3
Double Dash Chain ___ _ _ ___ _ _ ___ _ _ ___ _
 72
    65
 73
     6
 40
1.240299999999999
 49
0.6614
 74
     0
 49
-0.0827
 74
     0
 49
0.1654
 74
     0
 49
-0.0827
 74
     0
 49
0.1654
 74
     0
 49
-0.0827
 74
     0
  0
LTYPE
  5
8E
330
5
100
AcDbSymbolTableRecord
100
AcDbLinetypeTableRecord
  2
DOUBLE_DASH_DOT
 70
     0
  3
Double Dash Dot __ __ . __ __ . __ __ . __ _
 72
    65
 73
     6
 40
0.3296
 49
0.1181
 74
     0
 49
-0.0295
 74
     0
 49
0.1181
 74
     0
 49
-0.0295
 74
     0
 49
0.0049
 74
     0
 49
-0.0295
 74
     0
  0
LTYPE
  5
8F
330
5
100
AcDbSymbolTableRecord
100
AcDbLinetypeTableRecord
  2
DOUBLE_DASH_DOUBLE_DOT
 70
     0
  3
Double Dash Double Dot _ _ . . _ _ . . _ _
 72
    65
 73
     8
 40
0.364
 49
0.1181
 74
     0
 49
-0.0295
 74
     0
 49
0.1181
 74
     0
 49
-0.0295
 74
     0
 49
0.0049
 74
     0
 49
-0.0295
 74
     0
 49
0.0049
 74
     0
 49
-0.0295
 74
     0
  0
LTYPE
  5
90
330
5
100
AcDbSymbolTableRecord
100
AcDbLinetypeTableRecord
  2
DOUBLE_DASH_TRIPLE_DOT
 70
     0
  3
Double Dash Triple Dot __ __ . . . __ __ . . .
 72
    65
 73
    10
 40
0.3984
 49
0.1181
 74
     0
 49
-0.0295
 74
     0
 49
0.1181
 74
     0
 49
-0.0295
 74
     0
 49
0.0049
 74
     0
 49
-0.0295
 74
     0
 49
0.0049
 74
     0
 49
-0.0295
 74
     0
 49
0.0049
 74
     0
 49
-0.0295
 74
     0
  0
LTYPE
  5
91
330
5
100
AcDbSymbolTableRecord
100
AcDbLinetypeTableRecord
  2
LONG_DASH_DOTTED
 70
     0
  3
Long Dash Dotted ____ . ____ . ____ . ____ . _
 72
    65
 73
     4
 40
0.3001
 49
0.2362
 74
     0
 49
-0.0295
 74
     0
 49
0.0049
 74
     0
 49
-0.0295
 74
     0
  0
LTYPE
  5
92
330
5
100
AcDbSymbolTableRecord
100
AcDbLinetypeTableRecord
  2
LONG_DASH_DOUBLE_DOT
 70
     0
  3
Long Dash Double Dot ____ . . ____ . . ____ . .
 72
    65
 73
     6
 40
0.3345
 49
0.2362
 74
     0
 49
-0.0295
 74
     0
 49
0.0049
 74
     0
 49
-0.0295
 74
     0
 49
0.0049
 74
     0
 49
-0.0295
 74
     0
  0
LTYPE
  5
93
330
5
100
AcDbSymbolTableRecord
100
AcDbLinetypeTableRecord
  2
LONG_DASH_TRIPLE_DOT
 70
     0
  3
Long Dash Triple Dot ____ ... ____ ... ____
 72
    65
 73
     8
 40
0.3689
 49
0.2362
 74
     0
 49
-0.0295
 74
     0
 49
0.0049
 74
     0
 49
-0.0295
 74
     0
 49
0.0049
 74
     0
 49
-0.0295
 74
     0
 49
0.0049
 74
     0
 49
-0.0295
 74
     0
  0
LTYPE
  5
94
330
5
100
AcDbSymbolTableRecord
100
AcDbLinetypeTableRecord
  2
BORDER
 70
     0
  3
Border __ __ . __ __ . __ __ . __ __ . __ __ .
 72
    65
 73
     6
 40
44.45
 49
12.7
 74
     0
 49
-6.349999999999999
 74
     0
 49
12.7
 74
     0
 49
-6.349999999999999
 74
     0
 49
0.0
 74
     0
 49
-6.349999999999999
 74
     0
  0
LTYPE
  5
95
330
5
100
AcDbSymbolTableRecord
100
AcDbLinetypeTableRecord
  2
BORDER2
 70
     0
  3
Border (.5x) __.__.__.__.__.__.__.__.__.__.__.
 72
    65
 73
     6
 40
22.225
 49
6.349999999999999
 74
     0
 49
-3.174999999999999
 74
     0
 49
6.349999999999999
 74
     0
 49
-3.174999999999999
 74
     0
 49
0.0
 74
     0
 49
-3.174999999999999
 74
     0
  0
LTYPE
  5
96
330
5
100
AcDbSymbolTableRecord
100
AcDbLinetypeTableRecord
  2
BORDERX2
 70
     0
  3
Border (2x) ____  ____  .  ____  ____  .  ___
 72
    65
 73
     6
 40
88.9
 49
25.4
 74
     0
 49
-12.7
 74
     0
 49
25.4
 74
     0
 49
-12.7
 74
     0
 49
0.0
 74
     0
 49
-12.7
 74
     0
  0
LTYPE
  5
97
330
5
100
AcDbSymbolTableRecord
100
AcDbLinetypeTableRecord
  2
CENTER
 70
     0
  3
Center ____ _ ____ _ ____ _ ____ _ ____ _ ____
 72
    65
 73
     4
 40
50.8
 49
31.75
 74
     0
 49
-6.349999999999999
 74
     0
 49
6.349999999999999
 74
     0
 49
-6.349999999999999
 74
     0
  0
LTYPE
  5
98
330
5
100
AcDbSymbolTableRecord
100
AcDbLinetypeTableRecord
  2
CENTER2
 70
     0
  3
Center (.5x) ___ _ ___ _ ___ _ ___ _ ___ _ ___
 72
    65
 73
     4
 40
28.575
 49
19.05
 74
     0
 49
-3.174999999999999
 74
     0
 49
3.174999999999999
 74
     0
 49
-3.174999999999999
 74
     0
  0
LTYPE
  5
99
330
5
100
AcDbSymbolTableRecord
100
AcDbLinetypeTableRecord
  2
CENTERX2
 70
     0
  3
Center (2x) ________  __  ________  __  _____
 72
    65
 73
     4
 40
101.6
 49
63.5
 74
     0
 49
-12.7
 74
     0
 49
12.7
 74
     0
 49
-12.7
 74
     0
  0
LTYPE
  5
9A
330
5
100
AcDbSymbolTableRecord
100
AcDbLinetypeTableRecord
  2
DASHDOT2
 70
     0
  3
Dash dot (.5x) _._._._._._._._._._._._._._._.
 72
    65
 73
     4
 40
12.7
 49
6.349999999999999
 74
     0
 49
-3.174999999999999
 74
     0
 49
0.0
 74
     0
 49
-3.174999999999999
 74
     0
  0
LTYPE
  5
9B
330
5
100
AcDbSymbolTableRecord
100
AcDbLinetypeTableRecord
  2
DASHDOTX2
 70
     0
  3
Dash dot (2x) ____  .  ____  .  ____  .  ___
 72
    65
 73
     4
 40
50.8
 49
25.4
 74
     0
 49
-12.7
 74
     0
 49
0.0
 74
     0
 49
-12.7
 74
     0
  0
LTYPE
  5
9C
330
5
100
AcDbSymbolTableRecord
100
AcDbLinetypeTableRecord
  2
DASHED2
 70
     0
  3
Dashed (.5x) _ _ _ _ _ _ _ _ _ _ _ _ _ _ _ _ _
 72
    65
 73
     2
 40
9.524999999999998
 49
6.349999999999999
 74
     0
 49
-3.174999999999999
 74
     0
  0
LTYPE
  5
9D
330
5
100
AcDbSymbolTableRecord
100
AcDbLinetypeTableRecord
  2
DASHEDX2
 70
     0
  3
Dashed (2x) ____  ____  ____  ____  ____  ___
 72
    65
 73
     2
 40
38.1
 49
25.4
 74
     0
 49
-12.7
 74
     0
  0
LTYPE
  5
9E
330
5
100
AcDbSymbolTableRecord
100
AcDbLinetypeTableRecord
  2
DIVIDE
 70
     0
  3
Divide ____ . . ____ . . ____ . . ____ . . ____
 72
    65
 73
     6
 40
31.75
 49
12.7
 74
     0
 49
-6.349999999999999
 74
     0
 49
0.0
 74
     0
 49
-6.349999999999999
 74
     0
 49
0.0
 74
     0
 49
-6.349999999999999
 74
     0
  0
LTYPE
  5
9F
330
5
100
AcDbSymbolTableRecord
100
AcDbLinetypeTableRecord
  2
DIVIDE2
 70
     0
  3
Divide (.5x) __..__..__..__..__..__..__..__.._
 72
    65
 73
     6
 40
15.875
 49
6.349999999999999
 74
     0
 49
-3.174999999999999
 74
     0
 49
0.0
 74
     0
 49
-3.174999999999999
 74
     0
 49
0.0
 74
     0
 49
-3.174999999999999
 74
     0
  0
LTYPE
  5
A0
330
5
100
AcDbSymbolTableRecord
100
AcDbLinetypeTableRecord
  2
DIVIDEX2
 70
     0
  3
Divide (2x) ________  .  .  ________  .  .  _
 72
    65
 73
     6
 40
63.49999999999999
 49
25.4
 74
     0
 49
-12.7
 74
     0
 49
0.0
 74
     0
 49
-12.7
 74
     0
 49
0.0
 74
     0
 49
-12.7
 74
     0
  0
LTYPE
  5
A1
330
5
100
AcDbSymbolTableRecord
100
AcDbLinetypeTableRecord
  2
DOT
 70
     0
  3
Dot . . . . . . . . . . . . . . . . . . . . . .
 72
    65
 73
     2
 40
6.349999999999999
 49
0.0
 74
     0
 49
-6.349999999999999
 74
     0
  0
LTYPE
  5
A2
330
5
100
AcDbSymbolTableRecord
100
AcDbLinetypeTableRecord
  2
DOT2
 70
     0
  3
Dot (.5x) .....................................
 72
    65
 73
     2
 40
3.174999999999999
 49
0.0
 74
     0
 49
-3.174999999999999
 74
     0
  0
LTYPE
  5
A3
330
5
100
AcDbSymbolTableRecord
100
AcDbLinetypeTableRecord
  2
DOTX2
 70
     0
  3
Dot (2x) .  .  .  .  .  .  .  .  .  .  .  .  . 
 72
    65
 73
     2
 40
12.7
 49
0.0
 74
     0
 49
-12.7
 74
     0
  0
LTYPE
  5
A4
330
5
100
AcDbSymbolTableRecord
100
AcDbLinetypeTableRecord
  2
HIDDEN
 70
     0
  3
Hidden __ __ __ __ __ __ __ __ __ __ __ __ __ _
 72
    65
 73
     2
 40
9.524999999999998
 49
6.349999999999999
 74
     0
 49
-3.174999999999999
 74
     0
  0
LTYPE
  5
A5
330
5
100
AcDbSymbolTableRecord
100
AcDbLinetypeTableRecord
  2
HIDDEN2
 70
     0
  3
Hidden (.5x) _ _ _ _ _ _ _ _ _ _ _ _ _ _ _ _ _
 72
    65
 73
     2
 40
4.762499999999999
 49
3.174999999999999
 74
     0
 49
-1.587499999999999
 74
     0
  0
LTYPE
  5
A6
330
5
100
AcDbSymbolTableRecord
100
AcDbLinetypeTableRecord
  2
HIDDENX2
 70
     0
  3
Hidden (2x) ____ ____ ____ ____ ____ ____ ____
 72
    65
 73
     2
 40
19.05
 49
12.7
 74
     0
 49
-6.349999999999999
 74
     0
  0
LTYPE
  5
A7
330
5
100
AcDbSymbolTableRecord
100
AcDbLinetypeTableRecord
  2
PHANTOM
 70
     0
  3
Phantom ______  __  __  ______  __  __  ______
 72
    65
 73
     6
 40
63.5
 49
31.75
 74
     0
 49
-6.349999999999999
 74
     0
 49
6.349999999999999
 74
     0
 49
-6.349999999999999
 74
     0
 49
6.349999999999999
 74
     0
 49
-6.349999999999999
 74
     0
  0
LTYPE
  5
A8
330
5
100
AcDbSymbolTableRecord
100
AcDbLinetypeTableRecord
  2
PHANTOM2
 70
     0
  3
Phantom (.5x) ___ _ _ ___ _ _ ___ _ _ ___ _ _
 72
    65
 73
     6
 40
31.75
 49
15.875
 74
     0
 49
-3.174999999999999
 74
     0
 49
3.174999999999999
 74
     0
 49
-3.174999999999999
 74
     0
 49
3.174999999999999
 74
     0
 49
-3.174999999999999
 74
     0
  0
LTYPE
  5
A9
330
5
100
AcDbSymbolTableRecord
100
AcDbLinetypeTableRecord
  2
PHANTOMX2
 70
     0
  3
Phantom (2x) ____________    ____    ____   _
 72
    65
 73
     6
 40
127.0
 49
63.5
 74
     0
 49
-12.7
 74
     0
 49
12.7
 74
     0
 49
-12.7
 74
     0
 49
12.7
 74
     0
 49
-12.7
 74
     0
  0
LTYPE
  5
AA
330
5
100
AcDbSymbolTableRecord
100
AcDbLinetypeTableRecord
  2
ACAD_ISO02W100
 70
     0
  3
ISO dash __ __ __ __ __ __ __ __ __ __ __ __ __
 72
    65
 73
     2
 40
15.0
 49
12.0
 74
     0
 49
-3.0
 74
     0
  0
LTYPE
  5
AB
330
5
100
AcDbSymbolTableRecord
100
AcDbLinetypeTableRecord
  2
ACAD_ISO03W100
 70
     0
  3
ISO dash space __    __    __    __    __    __
 72
    65
 73
     2
 40
30.0
 49
12.0
 74
     0
 49
-18.0
 74
     0
  0
LTYPE
  5
AC
330
5
100
AcDbSymbolTableRecord
100
AcDbLinetypeTableRecord
  2
ACAD_ISO04W100
 70
     0
  3
ISO long-dash dot ____ . ____ . ____ . ____ . _
 72
    65
 73
     4
 40
30.0
 49
24.0
 74
     0
 49
-3.0
 74
     0
 49
0.0
 74
     0
 49
-3.0
 74
     0
  0
LTYPE
  5
AD
330
5
100
AcDbSymbolTableRecord
100
AcDbLinetypeTableRecord
  2
ACAD_ISO05W100
 70
     0
  3
ISO long-dash double-dot ____ .. ____ .. ____ .
 72
    65
 73
     6
 40
33.0
 49
24.0
 74
     0
 49
-3.0
 74
     0
 49
0.0
 74
     0
 49
-3.0
 74
     0
 49
0.0
 74
     0
 49
-3.0
 74
     0
  0
LTYPE
  5
AE
330
5
100
AcDbSymbolTableRecord
100
AcDbLinetypeTableRecord
  2
ACAD_ISO06W100
 70
     0
  3
ISO long-dash triple-dot ____ ... ____ ... ____
 72
    65
 73
     8
 40
36.0
 49
24.0
 74
     0
 49
-3.0
 74
     0
 49
0.0
 74
     0
 49
-3.0
 74
     0
 49
0.0
 74
     0
 49
-3.0
 74
     0
 49
0.0
 74
     0
 49
-3.0
 74
     0
  0
LTYPE
  5
AF
330
5
100
AcDbSymbolTableRecord
100
AcDbLinetypeTableRecord
  2
ACAD_ISO07W100
 70
     0
  3
ISO dot . . . . . . . . . . . . . . . . . . . .
 72
    65
 73
     2
 40
3.0
 49
0.0
 74
     0
 49
-3.0
 74
     0
  0
LTYPE
  5
B0
330
5
100
AcDbSymbolTableRecord
100
AcDbLinetypeTableRecord
  2
ACAD_ISO08W100
 70
     0
  3
ISO long-dash short-dash ____ __ ____ __ ____ _
 72
    65
 73
     4
 40
36.0
 49
24.0
 74
     0
 49
-3.0
 74
     0
 49
6.0
 74
     0
 49
-3.0
 74
     0
  0
LTYPE
  5
B1
330
5
100
AcDbSymbolTableRecord
100
AcDbLinetypeTableRecord
  2
ACAD_ISO09W100
 70
     0
  3
ISO long-dash double-short-dash ____ __ __ ____
 72
    65
 73
     6
 40
45.0
 49
24.0
 74
     0
 49
-3.0
 74
     0
 49
6.0
 74
     0
 49
-3.0
 74
     0
 49
6.0
 74
     0
 49
-3.0
 74
     0
  0
LTYPE
  5
B2
330
5
100
AcDbSymbolTableRecord
100
AcDbLinetypeTableRecord
  2
ACAD_ISO10W100
 70
     0
  3
ISO dash dot __ . __ . __ . __ . __ . __ . __ .
 72
    65
 73
     4
 40
18.0
 49
12.0
 74
     0
 49
-3.0
 74
     0
 49
0.0
 74
     0
 49
-3.0
 74
     0
  0
LTYPE
  5
B3
330
5
100
AcDbSymbolTableRecord
100
AcDbLinetypeTableRecord
  2
ACAD_ISO11W100
 70
     0
  3
ISO double-dash dot __ __ . __ __ . __ __ . __ 
 72
    65
 73
     6
 40
33.0
 49
12.0
 74
     0
 49
-3.0
 74
     0
 49
12.0
 74
     0
 49
-3.0
 74
     0
 49
0.0
 74
     0
 49
-3.0
 74
     0
  0
LTYPE
  5
B4
330
5
100
AcDbSymbolTableRecord
100
AcDbLinetypeTableRecord
  2
ACAD_ISO12W100
 70
     0
  3
ISO dash double-dot __ . . __ . . __ . . __ . .
 72
    65
 73
     6
 40
21.0
 49
12.0
 74
     0
 49
-3.0
 74
     0
 49
0.0
 74
     0
 49
-3.0
 74
     0
 49
0.0
 74
     0
 49
-3.0
 74
     0
  0
LTYPE
  5
B5
330
5
100
AcDbSymbolTableRecord
100
AcDbLinetypeTableRecord
  2
ACAD_ISO13W100
 70
     0
  3
ISO double-dash double-dot __ __ . . __ __ . . 
 72
    65
 73
     8
 40
36.0
 49
12.0
 74
     0
 49
-3.0
 74
     0
 49
12.0
 74
     0
 49
-3.0
 74
     0
 49
0.0
 74
     0
 49
-3.0
 74
     0
 49
0.0
 74
     0
 49
-3.0
 74
     0
  0
LTYPE
  5
B6
330
5
100
AcDbSymbolTableRecord
100
AcDbLinetypeTableRecord
  2
ACAD_ISO14W100
 70
     0
  3
ISO dash triple-dot __ . . . __ . . . __ . . . 
 72
    65
 73
     8
 40
24.0
 49
12.0
 74
     0
 49
-3.0
 74
     0
 49
0.0
 74
     0
 49
-3.0
 74
     0
 49
0.0
 74
     0
 49
-3.0
 74
     0
 49
0.0
 74
     0
 49
-3.0
 74
     0
  0
LTYPE
  5
B7
330
5
100
AcDbSymbolTableRecord
100
AcDbLinetypeTableRecord
  2
ACAD_ISO15W100
 70
     0
  3
ISO double-dash triple-dot __ __ . . . __ __ . 
 72
    65
 73
    10
 40
39.0
 49
12.0
 74
     0
 49
-3.0
 74
     0
 49
12.0
 74
     0
 49
-3.0
 74
     0
 49
0.0
 74
     0
 49
-3.0
 74
     0
 49
0.0
 74
     0
 49
-3.0
 74
     0
 49
0.0
 74
     0
 49
-3.0
 74
     0
  0
LTYPE
  5
BA
330
5
100
AcDbSymbolTableRecord
100
AcDbLinetypeTableRecord
  2
FENCELINE1
 70
     0
  3
Fenceline circle ----0-----0----0-----0----0---
 72
    65
 73
     4
 40
36.83
 49
6.349999999999999
 74
     0
 49
-2.54
 74
     4
 75
   133
340
B9
 46
2.54
 50
0.0
 44
-2.54
 45
0.0
 49
-2.54
 74
     0
 49
25.4
 74
     0
  0
LTYPE
  5
BB
330
5
100
AcDbSymbolTableRecord
100
AcDbLinetypeTableRecord
  2
FENCELINE2
 70
     0
  3
Fenceline square ----[]-----[]----[]-----[]----
 72
    65
 73
     4
 40
36.83
 49
6.349999999999999
 74
     0
 49
-2.54
 74
     4
 75
   132
340
B9
 46
2.54
 50
0.0
 44
-2.54
 45
0.0
 49
-2.54
 74
     0
 49
25.4
 74
     0
  0
LTYPE
  5
BC
330
5
100
AcDbSymbolTableRecord
100
AcDbLinetypeTableRecord
  2
TRACKS
 70
     0
  3
Tracks -|-|-|-|-|-|-|-|-|-|-|-|-|-|-|-|-|-|-|-|
 72
    65
 73
     2
 40
7.62
 49
3.81
 74
     4
 75
   130
340
B9
 46
6.349999999999999
 50
0.0
 44
0.0
 45
0.0
 49
3.81
 74
     0
  0
LTYPE
  5
BD
330
5
100
AcDbSymbolTableRecord
100
AcDbLinetypeTableRecord
  2
BATTING
 70
     0
  3
Batting SSSSSSSSSSSSSSSSSSSSSSSSSSSSSSSSSSSSSSS
 72
    65
 73
     4
 40
10.16254
 49
0.00254
 74
     0
 49
-2.54
 74
     4
 75
   134
340
B9
 46
2.54
 50
0.0
 44
-2.54
 45
0.0
 49
-5.08
 74
     4
 75
   134
340
B9
 46
2.54
 50
180.0
 44
2.54
 45
0.0
 49
-2.54
 74
     0
  0
LTYPE
  5
BE
330
5
100
AcDbSymbolTableRecord
100
AcDbLinetypeTableRecord
  2
HOT_WATER_SUPPLY
 70
     0
  3
Hot water supply ---- HW ---- HW ---- HW ----
 72
    65
 73
     3
 40
22.86
 49
12.7
 74
     0
 49
-5.08
 74
     2
 75
     0
340
60
 46
2.54
 50
0.0
 44
-2.54
 45
-1.27
  9
HW
 49
-5.08
 74
     0
  0
LTYPE
  5
BF
330
5
100
AcDbSymbolTableRecord
100
AcDbLinetypeTableRecord
  2
GAS_LINE
 70
     0
  3
Gas line ----GAS----GAS----GAS----GAS----GAS---
 72
    65
 73
     3
 40
24.13
 49
12.7
 74
     0
 49
-5.08
 74
     2
 75
     0
340
60
 46
2.54
 50
0.0
 44
-2.54
 45
-1.27
  9
GAS
 49
-6.349999999999999
 74
     0
  0
LTYPE
  5
C0
330
5
100
AcDbSymbolTableRecord
100
AcDbLinetypeTableRecord
  2
ZIGZAG
 70
     0
  3
Zig zag /\/\/\/\/\/\/\/\/\/\/\/\/\/\/\/\/\/\/\/
 72
    65
 73
     4
 40
20.32254
 49
0.00254
 74
     0
 49
-5.08
 74
     4
 75
   131
340
B9
 46
5.08
 50
0.0
 44
-5.08
 45
0.0
 49
-10.16
 74
     4
 75
   131
340
B9
 46
5.08
 50
180.0
 44
5.08
 45
0.0
 49
-5.08
 74
     0
  0
ENDTAB
  0
TABLE
  2
LAYER
  5
2
330
0
100
AcDbSymbolTable
 70
    29
  0
LAYER
  5
5F
330
2
100
AcDbSymbolTableRecord
100
AcDbLayerTableRecord
  2
0
 70
     0
 62
     7
  6
Continuous
370
    -3
390
F
  0
LAYER
  5
C7
330
2
100
AcDbSymbolTableRecord
100
AcDbLayerTableRecord
  2
Centerline (ISO)
 70
     0
 62
     7
  6
Continuous
370
     5
390
F
  0
LAYER
  5
C9
330
2
100
AcDbSymbolTableRecord
100
AcDbLayerTableRecord
  2
Dimension (ISO)
 70
     0
 62
     7
  6
Continuous
370
     5
390
F
  0
LAYER
  5
CA
330
2
100
AcDbSymbolTableRecord
100
AcDbLayerTableRecord
  2
Hatch (ISO)
 70
     0
 62
     7
  6
Continuous
370
     9
390
F
  0
LAYER
  5
D0
330
2
100
AcDbSymbolTableRecord
100
AcDbLayerTableRecord
  2
Section Line (ISO)
 70
     0
 62
     7
  6
CHAIN
370
    20
390
F
  0
LAYER
  5
D2
330
2
100
AcDbSymbolTableRecord
100
AcDbLayerTableRecord
  2
Symbol (ISO)
 70
     0
 62
     7
  6
Continuous
370
     5
390
F
  0
LAYER
  5
D3
330
2
100
AcDbSymbolTableRecord
100
AcDbLayerTableRecord
  2
Title (ISO)
 70
     0
 62
     7
  6
Continuous
370
    20
390
F
  0
LAYER
  5
D4
330
2
100
AcDbSymbolTableRecord
100
AcDbLayerTableRecord
  2
Title Block Outline
 70
     0
 62
     7
  6
Continuous
370
    30
390
F
  0
LAYER
  5
D7
330
2
100
AcDbSymbolTableRecord
100
AcDbLayerTableRecord
  2
Visible (ISO)
 70
     0
 62
     7
  6
Continuous
370
    18
390
F
  0
LAYER
  5
178
330
2
100
AcDbSymbolTableRecord
100
AcDbLayerTableRecord
  2
Defpoints
 70
     0
 62
     7
  6
Continuous
290
     0
370
    -3
390
F
  0
ENDTAB
  0
TABLE
  2
STYLE
  5
3
330
0
100
AcDbSymbolTable
 70
    10
  0
STYLE
  5
60
330
3
100
AcDbSymbolTableRecord
100
AcDbTextStyleTableRecord
  2
Standard
 70
     0
 40
0.0
 41
1.0
 50
0.0
 71
     0
 42
0.2
  3
txt
  4

  0
STYLE
  5
65
330
3
100
AcDbSymbolTableRecord
100
AcDbTextStyleTableRecord
  2
Annotative
 70
     0
 40
0.0
 41
1.0
 50
0.0
 71
     0
 42
0.2
  3
txt
  4

1001
AcadAnnotative
1000
AnnotativeData
1002
{
1070
     1
1070
     1
1002
}
  0
STYLE
  5
B9
330
3
100
AcDbSymbolTableRecord
100
AcDbTextStyleTableRecord
  2

 70
     1
 40
0.0
 41
1.0
 50
0.0
 71
     0
 42
0.2
  3
ltypeshp.shx
  4

  0
STYLE
  5
DC
330
3
100
AcDbSymbolTableRecord
100
AcDbTextStyleTableRecord
  2
Label Text (ISO)
 70
     0
 40
0.0
 41
1.0
 50
0.0
 71
     0
 42
0.2
  3
tahoma.ttf
  4

1001
ACAD
1000
Tahoma
1071
      256
  0
STYLE
  5
DD
330
3
100
AcDbSymbolTableRecord
100
AcDbTextStyleTableRecord
  2
Note Text (ISO)
 70
     0
 40
0.0
 41
1.0
 50
0.0
 71
     0
 42
0.2
  3
tahoma.ttf
  4

1001
ACAD
1000
Tahoma
1071
      256
  0
STYLE
  5
DE
330
3
100
AcDbSymbolTableRecord
100
AcDbTextStyleTableRecord
  2
Title Block 1.5
 70
     0
 40
0.0
 41
1.0
 50
0.0
 71
     0
 42
0.2
  3
romand.shx
  4

  0
STYLE
  5
DF
330
3
100
AcDbSymbolTableRecord
100
AcDbTextStyleTableRecord
  2
Title Block 3
 70
     0
 40
0.0
 41
1.0
 50
0.0
 71
     0
 42
0.2
  3
romand.shx
  4

  0
STYLE
  5
E0
330
3
100
AcDbSymbolTableRecord
100
AcDbTextStyleTableRecord
  2
Title Block 4
 70
     0
 40
0.0
 41
1.0
 50
0.0
 71
     0
 42
0.2
  3
romand.shx
  4

  0
STYLE
  5
14B
330
3
100
AcDbSymbolTableRecord
100
AcDbTextStyleTableRecord
  2
Text Style289
 70
     0
 40
0.0
 41
1.0
 50
0.0
 71
     0
 42
0.2
  3

  4

1001
ACAD
1000
Arial
1071
 33554688
  0
STYLE
  5
652
330
3
100
AcDbSymbolTableRecord
100
AcDbTextStyleTableRecord
  2
Text Style11
 70
     0
 40
0.0
 41
1.0
 50
0.0
 71
     0
 42
0.2
  3
AIGDT___.TTF
  4

1001
ACAD
1000
AIGDT
1071
      514
  0
ENDTAB
  0
TABLE
  2
VIEW
  5
6
330
0
100
AcDbSymbolTable
 70
     0
  0
ENDTAB
  0
TABLE
  2
UCS
  5
7
330
0
100
AcDbSymbolTable
 70
     0
  0
ENDTAB
  0
TABLE
  2
APPID
  5
9
330
0
100
AcDbSymbolTable
 70
     4
  0
APPID
  5
61
330
9
100
AcDbSymbolTableRecord
100
AcDbRegAppTableRecord
  2
ACAD
 70
     0
  0
APPID
  5
69
330
9
100
AcDbSymbolTableRecord
100
AcDbRegAppTableRecord
  2
AcadAnnotative
 70
     0
  0
APPID
  5
14F
330
9
100
AcDbSymbolTableRecord
100
AcDbRegAppTableRecord
  2
AcadAnnoPO
 70
     0
  0
APPID
  5
7C7
330
9
100
AcDbSymbolTableRecord
100
AcDbRegAppTableRecord
  2
ACAD_MLEADERVER
 70
     0
  0
ENDTAB
  0
TABLE
  2
DIMSTYLE
  5
A
330
0
100
AcDbSymbolTable
 70
    15
100
AcDbDimStyleTable
 71
     2
340
E9
340
63
  0
DIMSTYLE
105
63
330
A
100
AcDbSymbolTableRecord
100
AcDbDimStyleTableRecord
  2
Standard
 70
     0
340
60
  0
DIMSTYLE
105
64
330
A
100
AcDbSymbolTableRecord
100
AcDbDimStyleTableRecord
  2
Annotative
 70
     0
340
60
1001
AcadAnnotative
1000
AnnotativeData
1002
{
1070
     1
1070
     1
1002
}
  0
DIMSTYLE
105
E1
330
A
100
AcDbSymbolTableRecord
100
AcDbDimStyleTableRecord
  2
Default - Method 1b (ISO)
 70
     0
 40
0.4
 41
2.5
 42
0.0
 43
5.999999999999999
 44
3.174999999999999
 45
0.00000001
 46
10.0
 73
     0
 77
     1
 78
     8
 79
     2
140
3.5
143
0.03937
147
0.762
171
     3
172
     1
176
   256
177
   256
178
   256
179
     1
271
     1
272
     2
274
     3
278
    44
284
     8
286
     8
340
DD
371
    -1
372
    -1
  0
DIMSTYLE
105
E2
330
A
100
AcDbSymbolTableRecord
100
AcDbDimStyleTableRecord
  2
Default - Method 1b (ISO)$7
 70
     0
 40
0.4
 41
2.5
 42
0.0
 43
5.999999999999999
 44
3.174999999999999
 45
0.00000001
 46
10.0
 73
     0
 77
     1
 78
     8
 79
     2
140
3.5
143
0.03937
147
0.762
171
     3
172
     1
176
   256
177
   256
178
   256
179
     1
271
     1
272
     2
274
     3
278
    44
284
     8
286
     8
340
DD
371
    -1
372
    -1
  0
DIMSTYLE
105
E3
330
A
100
AcDbSymbolTableRecord
100
AcDbDimStyleTableRecord
  2
Default - Method 2a (ISO)
 70
     0
 40
0.4
 41
2.5
 42
0.0
 43
5.999999999999999
 44
3.174999999999999
 45
0.00000001
 46
10.0
 77
     1
 78
     8
 79
     2
140
3.5
143
0.03937
147
0.762
171
     3
172
     1
176
   256
177
   256
178
   256
179
     1
271
     1
272
     2
274
     3
278
    44
284
     8
286
     8
340
DD
371
    -1
372
    -1
  0
DIMSTYLE
105
E4
330
A
100
AcDbSymbolTableRecord
100
AcDbDimStyleTableRecord
  2
Default - Method 2a (ISO)$7
 70
     0
 40
0.4
 41
2.5
 42
0.0
 43
5.999999999999999
 44
3.174999999999999
 45
0.00000001
 46
10.0
 77
     1
 78
     8
 79
     2
140
3.5
143
0.03937
147
0.762
171
     3
172
     1
176
   256
177
   256
178
   256
179
     1
271
     1
272
     2
274
     3
278
    44
284
     8
286
     8
340
DD
371
    -1
372
    -1
  0
DIMSTYLE
105
E5
330
A
100
AcDbSymbolTableRecord
100
AcDbDimStyleTableRecord
  2
Default - Method 2b (ISO)
 70
     0
 40
0.4
 41
2.5
 42
0.0
 43
5.999999999999999
 44
3.174999999999999
 45
0.00000001
 46
10.0
 77
     1
 78
     8
 79
     2
140
3.5
143
0.03937
147
0.762
171
     3
172
     1
176
   256
177
   256
178
   256
179
     1
271
     1
272
     2
274
     3
278
    44
284
     8
286
     8
340
DD
371
    -1
372
    -1
  0
DIMSTYLE
105
E6
330
A
100
AcDbSymbolTableRecord
100
AcDbDimStyleTableRecord
  2
Default - Method 2b (ISO)$7
 70
     0
 40
0.4
 41
2.5
 42
0.0
 43
5.999999999999999
 44
3.174999999999999
 45
0.00000001
 46
10.0
 77
     1
 78
     8
 79
     2
140
3.5
143
0.03937
147
0.762
171
     3
172
     1
176
   256
177
   256
178
   256
179
     1
271
     1
272
     2
274
     3
278
    44
284
     8
286
     8
340
DD
371
    -1
372
    -1
  0
DIMSTYLE
105
E7
330
A
100
AcDbSymbolTableRecord
100
AcDbDimStyleTableRecord
  2
Default - mm [in] (ISO)
 70
     0
  4
 in
 40
0.4
 41
2.5
 42
0.0
 43
5.999999999999999
 44
3.174999999999999
 45
0.00000001
 46
10.0
 73
     0
 74
     0
 77
     1
 78
     8
 79
     2
140
3.5
143
0.03937
147
0.762
170
     1
171
     1
172
     1
176
   256
177
   256
178
   256
179
     3
271
     1
272
     1
274
     1
275
     1
278
    44
284
     8
285
     8
286
     8
340
DD
371
    -1
372
    -1
  0
DIMSTYLE
105
E8
330
A
100
AcDbSymbolTableRecord
100
AcDbDimStyleTableRecord
  2
Default - mm [in] (ISO)$7
 70
     0
  4
 in
 40
0.4
 41
2.5
 42
0.0
 43
5.999999999999999
 44
3.174999999999999
 45
0.00000001
 46
10.0
 73
     0
 74
     0
 77
     1
 78
     8
 79
     2
140
3.5
143
0.03937
147
0.762
170
     1
171
     1
172
     1
176
   256
177
   256
178
   256
179
     3
271
     1
272
     1
274
     1
275
     1
278
    44
284
     8
285
     8
286
     8
340
DD
371
    -1
372
    -1
  0
DIMSTYLE
105
E9
102
{ACAD_REACTORS
330
177
330
251
330
38B
330
46E
330
55F
330
689
102
}
330
A
100
AcDbSymbolTableRecord
100
AcDbDimStyleTableRecord
  2
Default (ISO)
 70
     0
 40
0.4
 41
2.5
 42
0.0
 43
5.999999999999999
 44
3.174999999999999
 45
0.00000001
 46
10.0
 73
     0
 74
     0
 77
     1
140
3.5
143
0.03937
146
1.001485756465366
147
0.762
171
     3
172
     1
176
   256
177
   256
178
   256
179
     1
271
     1
272
     2
274
     3
278
    44
340
DD
371
    -1
372
    -1
  0
DIMSTYLE
105
EA
330
A
100
AcDbSymbolTableRecord
100
AcDbDimStyleTableRecord
  2
Default (ISO)$7
 70
     0
 40
0.4
 41
2.5
 42
0.0
 43
5.999999999999999
 44
3.174999999999999
 45
0.00000001
 46
10.0
 73
     0
 74
     0
 77
     1
140
3.5
143
0.03937
146
1.001485756465366
147
0.762
171
     3
172
     1
176
   256
177
   256
178
   256
179
     1
271
     1
272
     2
274
     3
278
    44
340
DD
371
    -1
372
    -1
  0
DIMSTYLE
105
EB
330
A
100
AcDbSymbolTableRecord
100
AcDbDimStyleTableRecord
  2
Alternate (ISO)
 70
     0
 40
0.4
 41
2.5
340
60
342
EC
  0
DIMSTYLE
105
FD
330
A
100
AcDbSymbolTableRecord
100
AcDbDimStyleTableRecord
  2
Datum (ISO)
 70
     0
 40
0.4
 41
2.5
340
60
342
EC
  0
DIMSTYLE
105
10C
330
A
100
AcDbSymbolTableRecord
100
AcDbDimStyleTableRecord
  2
Large (ISO)
 70
     0
 40
0.4
 41
5.0
340
60
342
EC
  0
ENDTAB
  0
TABLE
  2
BLOCK_RECORD
  5
1
330
0
100
AcDbSymbolTable
 70
    13
  0
BLOCK_RECORD
  5
77
102
{ACAD_XDICTIONARY
360
788
102
}
330
1
100
AcDbSymbolTableRecord
100
AcDbBlockTableRecord
  2
*Model_Space
340
7A
  0
BLOCK_RECORD
  5
73
330
1
100
AcDbSymbolTableRecord
100
AcDbBlockTableRecord
  2
*Paper_Space
340
76
  0
BLOCK_RECORD
  5
7B
330
1
100
AcDbSymbolTableRecord
100
AcDbBlockTableRecord
  2
*Paper_Space0
340
7E
  0
BLOCK_RECORD
  5
EC
330
1
100
AcDbSymbolTableRecord
100
AcDbBlockTableRecord
  2
_Closed
340
0
  0
BLOCK_RECORD
  5
F3
330
1
100
AcDbSymbolTableRecord
100
AcDbBlockTableRecord
  2
DatumFilled45
340
0
  0
BLOCK_RECORD
  5
FE
330
1
100
AcDbSymbolTableRecord
100
AcDbBlockTableRecord
  2
Filled-1
340
0
  0
BLOCK_RECORD
  5
10D
330
1
100
AcDbSymbolTableRecord
100
AcDbBlockTableRecord
  2
Title Blocks Makerrbeam title
340
0
102
{BLKREFS
331
150
102
}
  0
BLOCK_RECORD
  5
154
330
1
100
AcDbSymbolTableRecord
100
AcDbBlockTableRecord
  2
Borders Makerbeam A4
340
0
102
{BLKREFS
331
15B
102
}
  0
BLOCK_RECORD
  5
179
330
1
100
AcDbSymbolTableRecord
100
AcDbBlockTableRecord
  2
*D6
340
0
  0
BLOCK_RECORD
  5
252
330
1
100
AcDbSymbolTableRecord
100
AcDbBlockTableRecord
  2
*D7
340
0
  0
BLOCK_RECORD
  5
329
330
1
100
AcDbSymbolTableRecord
100
AcDbBlockTableRecord
  2
2dTransSection0
340
0
102
{BLKREFS
331
348
102
}
  0
BLOCK_RECORD
  5
38C
330
1
100
AcDbSymbolTableRecord
100
AcDbBlockTableRecord
  2
*D9
340
0
  0
BLOCK_RECORD
  5
46F
330
1
100
AcDbSymbolTableRecord
100
AcDbBlockTableRecord
  2
*D10
340
0
  0
BLOCK_RECORD
  5
560
330
1
100
AcDbSymbolTableRecord
100
AcDbBlockTableRecord
  2
*D11
340
0
  0
BLOCK_RECORD
  5
68A
330
1
100
AcDbSymbolTableRecord
100
AcDbBlockTableRecord
  2
*D12
340
0
  0
ENDTAB
  0
ENDSEC
  0
SECTION
  2
BLOCKS
  0
BLOCK
  5
78
330
77
100
AcDbEntity
  8
0
100
AcDbBlockBegin
  2
*Model_Space
 70
     0
 10
0.0
 20
0.0
 30
0.0
  3
*Model_Space
  1

  0
ENDBLK
  5
79
330
77
100
AcDbEntity
  8
0
100
AcDbBlockEnd
  0
BLOCK
  5
74
330
73
100
AcDbEntity
 67
     1
  8
0
100
AcDbBlockBegin
  2
*Paper_Space
 70
     0
 10
0.0
 20
0.0
 30
0.0
  3
*Paper_Space
  1

  0
ENDBLK
  5
75
330
73
100
AcDbEntity
 67
     1
  8
0
100
AcDbBlockEnd
  0
BLOCK
  5
7C
330
7B
100
AcDbEntity
 67
     1
  8
0
100
AcDbBlockBegin
  2
*Paper_Space0
 70
     0
 10
0.0
 20
0.0
 30
0.0
  3
*Paper_Space0
  1

  0
ENDBLK
  5
7D
330
7B
100
AcDbEntity
 67
     1
  8
0
100
AcDbBlockEnd
  0
BLOCK
  5
F1
330
EC
100
AcDbEntity
  8
0
100
AcDbBlockBegin
  2
_Closed
 70
     0
 10
0.0
 20
0.0
 30
0.0
  3
_Closed
  1

  0
LINE
  5
ED
330
EC
100
AcDbEntity
  8
0
  6
ByBlock
 62
     0
370
    -2
100
AcDbLine
 10
-1.0
 20
0.1666666666666666
 30
0.0
 11
0.0
 21
0.0
 31
0.0
  0
LINE
  5
EE
330
EC
100
AcDbEntity
  8
0
  6
ByBlock
 62
     0
370
    -2
100
AcDbLine
 10
0.0
 20
0.0
 30
0.0
 11
-1.0
 21
-0.1666666666666666
 31
0.0
  0
LINE
  5
EF
330
EC
100
AcDbEntity
  8
0
  6
ByBlock
 62
     0
370
    -2
100
AcDbLine
 10
-1.0
 20
0.1666666666666666
 30
0.0
 11
-1.0
 21
-0.1666666666666666
 31
0.0
  0
LINE
  5
F0
330
EC
100
AcDbEntity
  8
0
  6
ByBlock
 62
     0
370
    -2
100
AcDbLine
 10
0.0
 20
0.0
 30
0.0
 11
-1.0
 21
0.0
 31
0.0
  0
ENDBLK
  5
F2
330
EC
100
AcDbEntity
  8
0
100
AcDbBlockEnd
  0
BLOCK
  5
F4
330
F3
100
AcDbEntity
  8
0
100
AcDbBlockBegin
  2
DatumFilled45
 70
     0
 10
0.0
 20
0.0
 30
0.0
  3
DatumFilled45
  1

  0
POLYLINE
  5
F6
330
F3
100
AcDbEntity
  8
0
 62
     0
100
AcDb2dPolyline
 66
     1
 10
0.0
 20
0.0
 30
0.0
 70
   128
  0
VERTEX
  5
F7
330
F6
100
AcDbEntity
  8
0
 62
     0
100
AcDbVertex
100
AcDb2dVertex
 10
0.0
 20
1.0
 30
0.0
  0
VERTEX
  5
F8
330
F6
100
AcDbEntity
  8
0
 62
     0
100
AcDbVertex
100
AcDb2dVertex
 10
0.0
 20
-1.0
 30
0.0
  0
VERTEX
  5
FA
330
F6
100
AcDbEntity
  8
0
 62
     0
100
AcDbVertex
100
AcDb2dVertex
 10
-1.0
 20
0.0
 30
0.0
  0
VERTEX
  5
FB
330
F6
100
AcDbEntity
  8
0
 62
     0
100
AcDbVertex
100
AcDb2dVertex
 10
0.0
 20
1.0
 30
0.0
  0
SEQEND
  5
F9
330
F6
100
AcDbEntity
  8
0
 62
     0
  0
SOLID
  5
FC
330
F3
100
AcDbEntity
  8
0
 62
     0
100
AcDbTrace
 10
0.0
 20
1.0
 30
0.0
 11
0.0
 21
-1.0
 31
0.0
 12
-1.0
 22
0.0
 32
0.0
 13
0.0
 23
1.0
 33
0.0
  0
ENDBLK
  5
F5
330
F3
100
AcDbEntity
  8
0
100
AcDbBlockEnd
  0
BLOCK
  5
FF
330
FE
100
AcDbEntity
  8
0
100
AcDbBlockBegin
  2
Filled-1
 70
     0
 10
0.0
 20
0.0
 30
0.0
  3
Filled-1
  1

  0
LINE
  5
101
330
FE
100
AcDbEntity
  8
0
 62
     0
100
AcDbLine
 10
-1.0
 20
0.0
 30
0.0
 11
0.0
 21
0.0
 31
0.0
  0
POLYLINE
  5
102
330
FE
100
AcDbEntity
  8
0
 62
     0
100
AcDb2dPolyline
 66
     1
 10
0.0
 20
0.0
 30
0.0
 70
   128
  0
VERTEX
  5
103
330
102
100
AcDbEntity
  8
0
 62
     0
100
AcDbVertex
100
AcDb2dVertex
 10
-1.0
 20
-0.1
 30
0.0
  0
VERTEX
  5
104
330
102
100
AcDbEntity
  8
0
 62
     0
100
AcDbVertex
100
AcDb2dVertex
 10
0.0
 20
0.0
 30
0.0
  0
VERTEX
  5
106
330
102
100
AcDbEntity
  8
0
 62
     0
100
AcDbVertex
100
AcDb2dVertex
 10
-1.0
 20
0.1
 30
0.0
  0
VERTEX
  5
107
330
102
100
AcDbEntity
  8
0
 62
     0
100
AcDbVertex
100
AcDb2dVertex
 10
-1.0
 20
-0.1
 30
0.0
  0
SEQEND
  5
105
330
102
100
AcDbEntity
  8
0
 62
     0
  0
SOLID
  5
108
330
FE
100
AcDbEntity
  8
0
 62
     0
100
AcDbTrace
 10
-1.0
 20
-0.1
 30
0.0
 11
0.0
 21
0.0
 31
0.0
 12
-1.0
 22
0.1
 32
0.0
 13
-1.0
 23
-0.1
 33
0.0
  0
LINE
  5
109
330
FE
100
AcDbEntity
  8
0
 62
     0
100
AcDbLine
 10
-1.0
 20
-0.1
 30
0.0
 11
0.0
 21
0.0
 31
0.0
  0
LINE
  5
10A
330
FE
100
AcDbEntity
  8
0
 62
     0
100
AcDbLine
 10
0.0
 20
0.0
 30
0.0
 11
-1.0
 21
0.1
 31
0.0
  0
LINE
  5
10B
330
FE
100
AcDbEntity
  8
0
 62
     0
100
AcDbLine
 10
-1.0
 20
0.1
 30
0.0
 11
-1.0
 21
-0.1
 31
0.0
  0
ENDBLK
  5
100
330
FE
100
AcDbEntity
  8
0
100
AcDbBlockEnd
  0
BLOCK
  5
10E
330
10D
100
AcDbEntity
  8
0
100
AcDbBlockBegin
  2
Title Blocks Makerrbeam title
 70
     2
 10
0.0
 20
0.0
 30
0.0
  3
Title Blocks Makerrbeam title
  1

  0
IMAGE
  5
110
330
10D
100
AcDbEntity
  8
0
 92
      140
310
8C00000001000000840000000600000005000000D0E750DDF27D6B407CD48E543E2643400000000000000000A7E750DDF27D6B40A6D2B55107D3484000000000000000004C9942D44C136F40A6D2B55107D348400000000000000000759942D44C136F407CD48E543E2643400000000000000000D0E750DDF27D6B407CD48E
310
543E2643400000000000000000
100
AcDbRasterImage
 90
        0
 10
219.9358965473352
 20
38.29877716993448
 30
0.0
 11
0.1170091102446671
 21
0.0
 31
0.0
 12
-0.0000000000000121
 22
0.1170091102446671
 32
0.0
 13
245.0
 23
97.0
340
112
 70
     7
280
     0
281
    50
282
    50
283
     0
360
113
 71
     1
 91
        2
 14
-0.5
 24
-0.5
 14
244.5
 24
96.5
  0
LINE
  5
114
330
10D
100
AcDbEntity
  8
Title (ISO)
100
AcDbLine
 10
249.4080149940401
 20
59.37007064954049
 30
0.0
 11
249.4080149940402
 21
35.37007064954058
 31
0.0
  0
LINE
  5
115
330
10D
100
AcDbEntity
  8
Title (ISO)
100
AcDbLine
 10
69.40801499404009
 20
35.37007064954038
 30
0.0
 11
69.40801499404006
 21
59.37007064954032
 31
0.0
  0
LINE
  5
116
330
10D
100
AcDbEntity
  8
Title (ISO)
100
AcDbLine
 10
129.4080149940401
 20
59.37007064954045
 30
0.0
 11
129.4080149940401
 21
35.37007064954038
 31
0.0
  0
LINE
  5
117
330
10D
100
AcDbEntity
  8
Title (ISO)
100
AcDbLine
 10
129.4080149940401
 20
35.37007064954038
 30
0.0
 11
69.40801499404
 21
35.37007064954032
 31
0.0
  0
LINE
  5
118
330
10D
100
AcDbEntity
  8
Title (ISO)
100
AcDbLine
 10
129.4080149940401
 20
35.37007064954038
 30
0.0
 11
189.4080149940401
 21
35.37007064954045
 31
0.0
  0
LINE
  5
119
330
10D
100
AcDbEntity
  8
Title (ISO)
100
AcDbLine
 10
189.4080149940401
 20
35.37007064954045
 30
0.0
 11
189.40801499404
 21
59.37007064954041
 31
0.0
  0
LINE
  5
11A
330
10D
100
AcDbEntity
  8
Title (ISO)
100
AcDbLine
 10
189.4080149940401
 20
35.37007064954045
 30
0.0
 11
249.4080149940399
 21
35.37007064954055
 31
0.0
  0
LINE
  5
11B
330
10D
100
AcDbEntity
  8
Title (ISO)
100
AcDbLine
 10
189.4080149940401
 20
51.3700706495404
 30
0.0
 11
249.4080149940401
 21
51.37007064954048
 31
0.0
  0
CIRCLE
  5
11C
330
10D
100
AcDbEntity
  8
Title (ISO)
100
AcDbCircle
 10
166.9624124952159
 20
49.87007064954044
 30
0.0
 40
3.999999999999999
  0
CIRCLE
  5
11D
330
10D
100
AcDbEntity
  8
Title (ISO)
100
AcDbCircle
 10
166.9624124952159
 20
49.87007064954044
 30
0.0
 40
2.500000000000012
  0
LINE
  5
11E
330
10D
100
AcDbEntity
  8
Title (ISO)
100
AcDbLine
 10
174.962412495216
 20
52.37007064954044
 30
0.0
 11
174.962412495216
 21
47.37007064954044
 31
0.0
  0
LINE
  5
11F
330
10D
100
AcDbEntity
  8
Title (ISO)
100
AcDbLine
 10
174.962412495216
 20
47.37007064954044
 30
0.0
 11
183.4790269490084
 21
45.87007064954044
 31
0.0
  0
LINE
  5
120
330
10D
100
AcDbEntity
  8
Title (ISO)
100
AcDbLine
 10
183.4790269490084
 20
45.87007064954044
 30
0.0
 11
183.4790269490084
 21
53.87007064954044
 31
0.0
  0
LINE
  5
121
330
10D
100
AcDbEntity
  8
Title (ISO)
100
AcDbLine
 10
183.4790269490084
 20
53.87007064954044
 30
0.0
 11
174.962412495216
 21
52.37007064954044
 31
0.0
  0
LINE
  5
122
330
10D
100
AcDbEntity
  8
Title (ISO)
  6
LONG_DASH_DOTTED
 48
12.5814561843872
100
AcDbLine
 10
166.9624124952159
 20
54.66524146305241
 30
0.0
 11
166.9624124952159
 21
45.07489983602847
 31
0.0
  0
LINE
  5
123
330
10D
100
AcDbEntity
  8
Title (ISO)
  6
LONG_DASH_DOTTED
 48
12.5814561843872
100
AcDbLine
 10
171.7575833087279
 20
49.87007064954044
 30
0.0
 11
162.1672416817039
 21
49.87007064954044
 31
0.0
  0
LINE
  5
124
330
10D
100
AcDbEntity
  8
Title (ISO)
100
AcDbLine
 10
69.40801499404007
 20
51.37007064954033
 30
0.0
 11
129.4080149940401
 21
51.37007064954044
 31
0.0
  0
LINE
  5
125
330
10D
100
AcDbEntity
  8
Title (ISO)
100
AcDbLine
 10
69.40801499404009
 20
43.37007064954033
 30
0.0
 11
129.4080149940401
 21
43.37007064954035
 31
0.0
  0
LINE
  5
126
330
10D
100
AcDbEntity
  8
Title (ISO)
  6
LONG_DASH_DOTTED
 48
13.66601085662842
100
AcDbLine
 10
174.3074104866459
 20
49.87007064954044
 30
0.0
 11
184.724458075183
 21
49.87007064954045
 31
0.0
  0
LINE
  5
127
330
10D
100
AcDbEntity
  8
Title (ISO)
100
AcDbLine
 10
249.4080149940401
 20
60.68706259957083
 30
0.0
 11
249.40801499404
 21
67.37007064954056
 31
0.0
  0
LINE
  5
128
330
10D
100
AcDbEntity
  8
Title (ISO)
100
AcDbLine
 10
249.40801499404
 20
67.37007064954056
 30
0.0
 11
69.40801499404003
 21
67.37007064954037
 31
0.0
  0
LINE
  5
129
330
10D
100
AcDbEntity
  8
Title (ISO)
100
AcDbLine
 10
69.40801499404004
 20
67.37007064954037
 30
0.0
 11
69.40801499404006
 21
59.37007064954032
 31
0.0
  0
LINE
  5
12A
330
10D
100
AcDbEntity
  8
Title (ISO)
100
AcDbLine
 10
69.40801499404009
 20
35.37007064954038
 30
0.0
 11
249.4080149940402
 21
35.37007064954058
 31
0.0
  0
LINE
  5
12B
330
10D
100
AcDbEntity
  8
Title (ISO)
100
AcDbLine
 10
69.40801499404004
 20
67.37007064954037
 30
0.0
 11
159.40801499404
 21
67.37007064954037
 31
0.0
  0
LINE
  5
12C
330
10D
100
AcDbEntity
  8
Title (ISO)
100
AcDbLine
 10
159.40801499404
 20
67.37007064954037
 30
0.0
 11
159.40801499404
 21
75.37007064954038
 31
0.0
  0
LINE
  5
12D
330
10D
100
AcDbEntity
  8
Title (ISO)
100
AcDbLine
 10
159.40801499404
 20
75.37007064954038
 30
0.0
 11
69.40801499404004
 21
75.37007064954036
 31
0.0
  0
LINE
  5
12E
330
10D
100
AcDbEntity
  8
Title (ISO)
100
AcDbLine
 10
69.40801499404004
 20
75.37007064954036
 30
0.0
 11
69.40801499404004
 21
67.37007064954037
 31
0.0
  0
LINE
  5
12F
330
10D
100
AcDbEntity
  8
Title (ISO)
100
AcDbLine
 10
159.40801499404
 20
75.37007064954038
 30
0.0
 11
249.4080149940401
 21
75.37007064954038
 31
0.0
  0
LINE
  5
130
330
10D
100
AcDbEntity
  8
Title (ISO)
100
AcDbLine
 10
249.4080149940401
 20
75.37007064954038
 30
0.0
 11
249.40801499404
 21
67.37007064954056
 31
0.0
  0
LINE
  5
131
330
10D
100
AcDbEntity
  8
Title (ISO)
100
AcDbLine
 10
249.40801499404
 20
67.37007064954056
 30
0.0
 11
159.40801499404
 21
67.37007064954056
 31
0.0
  0
LINE
  5
132
330
10D
100
AcDbEntity
  8
Title (ISO)
100
AcDbLine
 10
159.40801499404
 20
67.37007064954056
 30
0.0
 11
159.40801499404
 21
75.37007064954038
 31
0.0
  0
LINE
  5
133
330
10D
100
AcDbEntity
  8
Title (ISO)
100
AcDbLine
 10
69.40801499404006
 20
59.37007064954032
 30
0.0
 11
129.4080149940401
 21
59.37007064954045
 31
0.0
  0
LINE
  5
134
330
10D
100
AcDbEntity
  8
Title (ISO)
100
AcDbLine
 10
159.40801499404
 20
67.37007064954056
 30
0.0
 11
159.40801499404
 21
59.37007064954038
 31
0.0
  0
LINE
  5
135
330
10D
100
AcDbEntity
  8
Title (ISO)
100
AcDbLine
 10
159.40801499404
 20
59.37007064954038
 30
0.0
 11
129.4080149940401
 21
59.37007064954045
 31
0.0
  0
LINE
  5
136
330
10D
100
AcDbEntity
  8
Title (ISO)
100
AcDbLine
 10
159.40801499404
 20
59.37007064954038
 30
0.0
 11
249.4080149940401
 21
59.37007064954049
 31
0.0
  0
LINE
  5
137
330
10D
100
AcDbEntity
  8
Title (ISO)
100
AcDbLine
 10
129.4080149940401
 20
43.37007064954035
 30
0.0
 11
189.4080149940401
 21
43.37007064954044
 31
0.0
  0
LINE
  5
138
330
10D
100
AcDbEntity
  8
Title (ISO)
100
AcDbLine
 10
219.4080149940401
 20
51.37007064954044
 30
0.0
 11
219.4080149940401
 21
35.37007064954055
 31
0.0
  0
MTEXT
  5
139
330
10D
100
AcDbEntity
  8
Title (ISO)
 62
     7
100
AcDbMText
 10
132.3003554919998
 20
53.87007064954044
 30
0.0
 40
3.499999940395355
 41
0.0
 71
     7
 72
     1
  1
\fArial|b1|i0;\H3.5000;America
  7
Title Block 1.5
 73
     1
 44
1.0
1001
ACAD
1000
MTEXTBEGIN
1070
    73
1070
     1
1070
    44
1040
1.0
1070
    74
1070
     0
1000
MTEXTEND
  0
MTEXT
  5
13B
330
10D
100
AcDbEntity
  8
Title (ISO)
 62
     7
100
AcDbMText
 10
71.40801499404007
 20
73.27759673247266
 30
0.0
 40
3.499999940395355
 41
0.0
 71
     1
 72
     1
  1
\fArial|b1|i0;\H3.5000;Title: black anodised, corner cube
  7
Title Block 4
 73
     1
 44
1.0
1001
ACAD
1000
MTEXTBEGIN
1070
    73
1070
     1
1070
    44
1040
1.0
1070
    74
1070
     0
1000
MTEXTEND
  0
MTEXT
  5
13C
330
10D
100
AcDbEntity
  8
Title (ISO)
 62
     7
100
AcDbMText
 10
132.3003554919998
 20
40.94228583550064
 30
0.0
 40
3.499999940395355
 41
52.67365059307476
 71
     1
 72
     1
  1
\fArial|b1|i0;\H3.5000;Weight:  0,005 kg
  7
Title Block 3
 73
     1
 44
1.0
1001
ACAD
1000
MTEXTBEGIN
1070
    73
1070
     1
1070
    44
1040
1.0
1070
    74
1070
     0
1000
MTEXTEND
  0
MTEXT
  5
13D
330
10D
100
AcDbEntity
  8
Title (ISO)
 62
     7
100
AcDbMText
 10
218.5684773262463
 20
58.4880729712216
 30
0.0
 40
2.5
 41
53.92186686396598
 71
     1
 72
     1
  1
\fArial|b1|i0;\W0.65;\H2.5000;25=±0,5
  7
Title Block 3
 73
     1
 44
1.0
1001
ACAD
1000
MTEXTBEGIN
1070
    73
1070
     1
1070
    44
1040
1.0
1070
    74
1070
     0
1000
MTEXTEND
  0
MTEXT
  5
13E
330
10D
100
AcDbEntity
  8
Title (ISO)
 62
     7
100
AcDbMText
 10
71.40801499404007
 20
53.52262756392994
 30
0.0
 40
3.499999940395355
 41
0.0
 71
     7
 72
     1
  1
\fArial|b1|i0;\H3.5000;Scale:
  7
Title Block 1.5
 73
     1
 44
1.0
1001
ACAD
1000
MTEXTBEGIN
1070
    73
1070
     1
1070
    44
1040
1.0
1070
    74
1070
     0
1000
MTEXTEND
  0
MTEXT
  5
13F
330
10D
100
AcDbEntity
  8
Title (ISO)
 62
     7
100
AcDbMText
 10
92.40801499404007
 20
53.52262756392994
 30
0.0
 40
3.499999940395355
 41
0.0
 71
     7
 72
     1
  1
\fArial|b1|i0;\H3.5000;2.5:1
  7
Title Block 1.5
 73
     1
 44
1.0
1001
ACAD
1000
MTEXTBEGIN
1070
    73
1070
     1
1070
    44
1040
1.0
1070
    74
1070
     0
1000
MTEXTEND
  0
MTEXT
  5
140
330
10D
100
AcDbEntity
  8
Title (ISO)
 62
     7
100
AcDbMText
 10
71.40801499404009
 20
45.18261095775527
 30
0.0
 40
3.499999940395355
 41
0.0
 71
     7
 72
     1
  1
\fArial|b1|i0;\H3.5000;Date:
  7
Title Block 1.5
 73
     1
 44
1.0
1001
ACAD
1000
MTEXTBEGIN
1070
    73
1070
     1
1070
    44
1040
1.0
1070
    74
1070
     0
1000
MTEXTEND
  0
MTEXT
  5
141
330
10D
100
AcDbEntity
  8
Title (ISO)
 62
     7
100
AcDbMText
 10
71.40801499404007
 20
36.93953198595445
 30
0.0
 40
3.499999940395355
 41
0.0
 71
     7
 72
     1
  1
\fArial|b1|i0;\H3.5000;Dimension:
  7
Title Block 1.5
 73
     1
 44
1.0
1001
ACAD
1000
MTEXTBEGIN
1070
    73
1070
     1
1070
    44
1040
1.0
1070
    74
1070
     0
1000
MTEXTEND
  0
MTEXT
  5
142
330
10D
100
AcDbEntity
  8
Title (ISO)
 62
     7
100
AcDbMText
 10
101.4080149940401
 20
36.93953198595445
 30
0.0
 40
3.499999940395355
 41
0.0
 71
     7
 72
     1
  1
\fArial|b1|i0;\H3.5000;mm
  7
Title Block 1.5
 73
     1
 44
1.0
1001
ACAD
1000
MTEXTBEGIN
1070
    73
1070
     1
1070
    44
1040
1.0
1070
    74
1070
     0
1000
MTEXTEND
  0
MTEXT
  5
143
330
10D
100
AcDbEntity
  8
Title (ISO)
 62
     7
100
AcDbMText
 10
190.8808356640163
 20
45.39552080773841
 30
0.0
 40
3.499999940395355
 41
0.0
 71
     1
 72
     1
  1
\fArial|b1|i0;\H3.5000;Format: A4
  7
Title Block 3
 73
     1
 44
1.0
1001
ACAD
1000
MTEXTBEGIN
1070
    73
1070
     1
1070
    44
1040
1.0
1070
    74
1070
     0
1000
MTEXTEND
  0
MTEXT
  5
144
330
10D
100
AcDbEntity
  8
Title (ISO)
 62
     7
100
AcDbMText
 10
191.4947389806583
 20
53.87007064954044
 30
0.0
 40
3.000000119209289
 41
0.0
 71
     7
 72
     1
  1
\fArial|b1|i0;\H3.0000;Tolerance:
  7
Title Block 1.5
 73
     1
 44
1.0
1001
ACAD
1000
MTEXTBEGIN
1070
    73
1070
     1
1070
    44
1040
1.0
1070
    74
1070
     0
1000
MTEXTEND
  0
MTEXT
  5
145
330
10D
100
AcDbEntity
  8
Title (ISO)
 62
     7
100
AcDbMText
 10
161.40801499404
 20
73.27759673247266
 30
0.0
 40
3.499999940395355
 41
0.0
 71
     1
 72
     1
  1
\fArial|b1|i0;\H3.5000;Article number: 103105
  7
Title Block 4
 73
     1
 44
1.0
1001
ACAD
1000
MTEXTBEGIN
1070
    73
1070
     1
1070
    44
1040
1.0
1070
    74
1070
     0
1000
MTEXTEND
  0
MTEXT
  5
146
330
10D
100
AcDbEntity
  8
Title (ISO)
 62
     7
100
AcDbMText
 10
71.40801499403996
 20
64.88661624647083
 30
0.0
 40
3.499999940395355
 41
0.0
 71
     1
 72
     1
  1
\fArial|b1|i0;\H3.5000;Description: 15x15x15
  7
Title Block 4
 73
     1
 44
1.0
1001
ACAD
1000
MTEXTBEGIN
1070
    73
1070
     1
1070
    44
1040
1.0
1070
    74
1070
     0
1000
MTEXTEND
  0
MTEXT
  5
147
330
10D
100
AcDbEntity
  8
Title (ISO)
 62
     7
100
AcDbMText
 10
161.40801499404
 20
64.88661624647083
 30
0.0
 40
3.499999940395355
 41
0.0
 71
     1
 72
     1
  1
\fArial|b1|i0;\H3.5000;Material: Aluminum 6061
  7
Title Block 4
 73
     1
 44
1.0
1001
ACAD
1000
MTEXTBEGIN
1070
    73
1070
     1
1070
    44
1040
1.0
1070
    74
1070
     0
1000
MTEXTEND
  0
MTEXT
  5
148
330
10D
100
AcDbEntity
  8
Title (ISO)
 62
     7
100
AcDbMText
 10
218.5684773262463
 20
54.66524146305241
 30
0.0
 40
2.5
 41
53.92186686396598
 71
     1
 72
     1
  1
\fArial|b1|i0;\W0.65;\H2.5000;25,0=±0,05
  7
Title Block 3
 73
     1
 44
1.0
1001
ACAD
1000
MTEXTBEGIN
1070
    73
1070
     1
1070
    44
1040
1.0
1070
    74
1070
     0
1000
MTEXTEND
  0
MTEXT
  5
149
330
10D
100
AcDbEntity
  8
Title (ISO)
100
AcDbMText
 10
132.3003554919998
 20
49.87007064954044
 30
0.0
 40
3.499999940395355
 41
25.53506135940552
 71
     1
 72
     1
  1
\fArial|b1|i0;\H3.5000;Projection:
  7
Note Text (ISO)
 73
     1
 44
1.0
1001
ACAD
1000
MTEXTBEGIN
1070
    73
1070
     1
1070
    44
1040
1.0
1070
    74
1070
     0
1000
MTEXTEND
  0
ATTDEF
  5
14C
102
{ACAD_XDICTIONARY
360
795
102
}
330
10D
100
AcDbEntity
  8
Title (ISO)
 62
     7
100
AcDbText
 10
92.02124828848479
 20
45.47278431154657
 30
0.0
 40
3.499999940395355
  1
18-4-2017
  7
Text Style289
100
AcDbAttributeDefinition
  3
CREATION DATE
  2
CREATION_DATE_001
 70
     0
  0
ENDBLK
  5
10F
330
10D
100
AcDbEntity
  8
0
100
AcDbBlockEnd
  0
BLOCK
  5
155
330
154
100
AcDbEntity
  8
0
100
AcDbBlockBegin
  2
Borders Makerbeam A4
 70
     0
 10
0.0
 20
0.0
 30
0.0
  3
Borders Makerbeam A4
  1

  0
LINE
  5
157
330
154
100
AcDbEntity
  8
Title Block Outline
100
AcDbLine
 10
17.5
 20
287.0
 30
0.0
 11
197.5
 21
287.0
 31
0.0
  0
LINE
  5
158
330
154
100
AcDbEntity
  8
Title Block Outline
100
AcDbLine
 10
197.5
 20
287.0
 30
0.0
 11
197.5
 21
10.00000000000003
 31
0.0
  0
LINE
  5
159
330
154
100
AcDbEntity
  8
Title Block Outline
100
AcDbLine
 10
197.5
 20
10.00000000000002
 30
0.0
 11
17.50000000000007
 21
9.999999999999998
 31
0.0
  0
LINE
  5
15A
330
154
100
AcDbEntity
  8
Title Block Outline
100
AcDbLine
 10
17.50000000000005
 20
9.999999999999998
 30
0.0
 11
17.5
 21
287.0
 31
0.0
  0
ENDBLK
  5
156
330
154
100
AcDbEntity
  8
0
100
AcDbBlockEnd
  0
BLOCK
  5
17A
330
179
100
AcDbEntity
  8
0
100
AcDbBlockBegin
  2
*D6
 70
     1
 10
0.0
 20
0.0
 30
0.0
  3
*D6
  1

  0
LINE
  5
248
330
179
100
AcDbEntity
  8
Dimension (ISO)
100
AcDbLine
 10
32.14126133846473
 20
77.82429237545352
 30
0.0
 11
32.14126133846473
 21
82.06261912008661
 31
0.0
  0
LINE
  5
249
330
179
100
AcDbEntity
  8
Dimension (ISO)
100
AcDbLine
 10
47.14126133846472
 20
77.82429237545352
 30
0.0
 11
47.14126133846472
 21
82.06261912008661
 31
0.0
  0
LINE
  5
24A
330
179
100
AcDbEntity
  8
Dimension (ISO)
100
AcDbLine
 10
33.14126133846473
 20
80.79261912008661
 30
0.0
 11
46.14126133846473
 21
80.79261912008661
 31
0.0
  0
SOLID
  5
24B
330
179
100
AcDbEntity
  8
Dimension (ISO)
100
AcDbTrace
 10
33.14126133846473
 20
80.95928578675328
 30
0.0
 11
33.14126133846473
 21
80.62595245341993
 31
0.0
 12
32.14126133846473
 22
80.79261912008661
 32
0.0
 13
32.14126133846473
 23
80.79261912008661
 33
0.0
  0
SOLID
  5
24C
330
179
100
AcDbEntity
  8
Dimension (ISO)
100
AcDbTrace
 10
46.14126133846473
 20
80.95928578675328
 30
0.0
 11
46.14126133846473
 21
80.62595245341993
 31
0.0
 12
47.14126133846472
 22
80.79261912008661
 32
0.0
 13
47.14126133846472
 23
80.79261912008661
 33
0.0
  0
MTEXT
  5
24D
330
179
100
AcDbEntity
  8
Dimension (ISO)
100
AcDbMText
 10
37.86680088427108
 20
82.53126734036868
 30
0.0
 40
1.4
 41
0.0
 71
     1
 72
     1
  1
\A1;{\fAIGDT|b0|i0;\H1.4000;o\fTahoma|b0|i0;\H1.4000;}15
  7
Note Text (ISO)
 73
     1
 44
1.0
1001
ACAD
1000
MTEXTBEGIN
1070
    73
1070
     1
1070
    44
1040
1.0
1070
    74
1070
     0
1000
MTEXTEND
  0
POINT
  5
24E
330
179
100
AcDbEntity
  8
Defpoints
 62
     0
100
AcDbPoint
 10
32.14126133846473
 20
77.82429237545352
 30
0.0
  0
POINT
  5
24F
330
179
100
AcDbEntity
  8
Defpoints
 62
     0
100
AcDbPoint
 10
47.14126133846472
 20
77.82429237545352
 30
0.0
  0
POINT
  5
250
330
179
100
AcDbEntity
  8
Defpoints
 62
     0
100
AcDbPoint
 10
47.14126133846472
 20
80.79261912008661
 30
0.0
  0
ENDBLK
  5
17B
330
179
100
AcDbEntity
  8
0
100
AcDbBlockEnd
  0
BLOCK
  5
253
330
252
100
AcDbEntity
  8
0
100
AcDbBlockBegin
  2
*D7
 70
     1
 10
0.0
 20
0.0
 30
0.0
  3
*D7
  1

  0
LINE
  5
320
330
252
100
AcDbEntity
  8
Dimension (ISO)
100
AcDbLine
 10
32.14126133846473
 20
62.82429237545352
 30
0.0
 11
26.87126133846474
 21
62.82429237545352
 31
0.0
  0
LINE
  5
321
330
252
100
AcDbEntity
  8
Dimension (ISO)
100
AcDbLine
 10
32.14126133846473
 20
77.82429237545352
 30
0.0
 11
26.87126133846474
 21
77.82429237545354
 31
0.0
  0
LINE
  5
322
330
252
100
AcDbEntity
  8
Dimension (ISO)
100
AcDbLine
 10
28.14126133846474
 20
63.82429237545352
 30
0.0
 11
28.14126133846475
 21
76.82429237545354
 31
0.0
  0
SOLID
  5
323
330
252
100
AcDbEntity
  8
Dimension (ISO)
100
AcDbTrace
 10
27.97459467179808
 20
63.82429237545352
 30
0.0
 11
28.30792800513141
 21
63.82429237545352
 31
0.0
 12
28.14126133846474
 22
62.82429237545352
 32
0.0
 13
28.14126133846474
 23
62.82429237545352
 33
0.0
  0
SOLID
  5
324
330
252
100
AcDbEntity
  8
Dimension (ISO)
100
AcDbTrace
 10
27.97459467179808
 20
76.82429237545354
 30
0.0
 11
28.30792800513141
 21
76.82429237545354
 31
0.0
 12
28.14126133846475
 22
77.82429237545354
 32
0.0
 13
28.14126133846475
 23
77.82429237545354
 33
0.0
  0
MTEXT
  5
325
330
252
100
AcDbEntity
  8
Dimension (ISO)
100
AcDbMText
 10
26.40261311818266
 20
68.54983192125986
 30
0.0
 40
1.4
 41
0.0
 71
     1
 72
     1
  1
\A1;{\fAIGDT|b0|i0;\H1.4000;o\fTahoma|b0|i0;\H1.4000;}15
  7
Note Text (ISO)
 11
0.0000000000000001
 21
1.0
 31
0.0
 73
     1
 44
1.0
1001
ACAD
1000
MTEXTBEGIN
1070
    73
1070
     1
1070
    44
1040
1.0
1070
    74
1070
     0
1000
MTEXTEND
  0
POINT
  5
326
330
252
100
AcDbEntity
  8
Defpoints
 62
     0
100
AcDbPoint
 10
32.14126133846473
 20
62.82429237545352
 30
0.0
  0
POINT
  5
327
330
252
100
AcDbEntity
  8
Defpoints
 62
     0
100
AcDbPoint
 10
32.14126133846473
 20
77.82429237545352
 30
0.0
  0
POINT
  5
328
330
252
100
AcDbEntity
  8
Defpoints
 62
     0
100
AcDbPoint
 10
28.14126133846475
 20
77.82429237545354
 30
0.0
  0
ENDBLK
  5
254
330
252
100
AcDbEntity
  8
0
100
AcDbBlockEnd
  0
BLOCK
  5
32A
330
329
100
AcDbEntity
  8
0
100
AcDbBlockBegin
  2
2dTransSection0
 70
     0
 10
0.0
 20
0.0
 30
0.0
  3
2dTransSection0
  1

  0
LINE
  5
32C
330
329
100
AcDbEntity
  8
Section Line (ISO)
  6
Continuous
370
    40
100
AcDbLine
 10
124.5320293224391
 20
175.8107309386338
 30
0.0
 11
121.5389666501907
 21
175.8107309386338
 31
0.0
  0
LINE
  5
32D
330
329
100
AcDbEntity
  8
Section Line (ISO)
  6
Continuous
370
    40
100
AcDbLine
 10
78.60140259995495
 20
175.8107309386338
 30
0.0
 11
75.60833992770652
 21
175.8107309386338
 31
0.0
  0
LINE
  5
32E
330
329
100
AcDbEntity
  8
Section Line (ISO)
  6
Continuous
100
AcDbLine
 10
123.0354979863149
 20
173.3107309386338
 30
0.0
 11
123.0354979863149
 21
175.8107309386338
 31
0.0
  0
POLYLINE
  5
32F
330
329
100
AcDbEntity
  8
Section Line (ISO)
  6
Continuous
100
AcDb2dPolyline
 66
     1
 10
0.0
 20
0.0
 30
0.0
 70
   128
  0
VERTEX
  5
330
330
32F
100
AcDbEntity
  8
Section Line (ISO)
  6
Continuous
100
AcDbVertex
100
AcDb2dVertex
 10
123.5354980808305
 20
173.3107309013809
 30
0.0
  0
VERTEX
  5
331
330
32F
100
AcDbEntity
  8
Section Line (ISO)
  6
Continuous
100
AcDbVertex
100
AcDb2dVertex
 10
123.0354985576677
 20
175.8107309386338
 30
0.0
  0
VERTEX
  5
333
330
32F
100
AcDbEntity
  8
Section Line (ISO)
  6
Continuous
100
AcDbVertex
100
AcDb2dVertex
 10
122.5354975443887
 20
173.3107309013809
 30
0.0
  0
VERTEX
  5
334
330
32F
100
AcDbEntity
  8
Section Line (ISO)
  6
Continuous
100
AcDbVertex
100
AcDb2dVertex
 10
123.5354980808305
 20
173.3107309013809
 30
0.0
  0
SEQEND
  5
332
330
32F
100
AcDbEntity
  8
Section Line (ISO)
  6
Continuous
  0
SOLID
  5
335
330
329
100
AcDbEntity
  8
Section Line (ISO)
100
AcDbTrace
 10
123.5354980808305
 20
173.3107309013809
 30
0.0
 11
123.0354985576677
 21
175.8107309386338
 31
0.0
 12
122.5354975443887
 22
173.3107309013809
 32
0.0
 13
123.5354980808305
 23
173.3107309013809
 33
0.0
  0
LINE
  5
336
330
329
100
AcDbEntity
  8
Section Line (ISO)
  6
Continuous
100
AcDbLine
 10
123.5354979863149
 20
173.3107309386338
 30
0.0
 11
123.0354979863149
 21
175.8107309386338
 31
0.0
  0
LINE
  5
337
330
329
100
AcDbEntity
  8
Section Line (ISO)
  6
Continuous
100
AcDbLine
 10
123.0354979863149
 20
175.8107309386338
 30
0.0
 11
122.5354979863149
 21
173.3107309386338
 31
0.0
  0
LINE
  5
338
330
329
100
AcDbEntity
  8
Section Line (ISO)
  6
Continuous
100
AcDbLine
 10
122.5354979863149
 20
173.3107309386338
 30
0.0
 11
123.5354979863149
 21
173.3107309386338
 31
0.0
  0
LINE
  5
339
330
329
100
AcDbEntity
  8
Section Line (ISO)
  6
Continuous
100
AcDbLine
 10
123.0354979863149
 20
170.5915733399401
 30
0.0
 11
123.0354979863149
 21
173.3107309386338
 31
0.0
  0
LINE
  5
33A
330
329
100
AcDbEntity
  8
Section Line (ISO)
  6
Continuous
100
AcDbLine
 10
77.10487126383073
 20
173.3107309386338
 30
0.0
 11
77.10487126383073
 21
175.8107309386338
 31
0.0
  0
POLYLINE
  5
33B
330
329
100
AcDbEntity
  8
Section Line (ISO)
  6
Continuous
100
AcDb2dPolyline
 66
     1
 10
0.0
 20
0.0
 30
0.0
 70
   128
  0
VERTEX
  5
33C
330
33B
100
AcDbEntity
  8
Section Line (ISO)
  6
Continuous
100
AcDbVertex
100
AcDb2dVertex
 10
77.60487109241961
 20
173.3107309013809
 30
0.0
  0
VERTEX
  5
33D
330
33B
100
AcDbEntity
  8
Section Line (ISO)
  6
Continuous
100
AcDbVertex
100
AcDb2dVertex
 10
77.10487156925677
 20
175.8107309386338
 30
0.0
  0
VERTEX
  5
33F
330
33B
100
AcDbEntity
  8
Section Line (ISO)
  6
Continuous
100
AcDbVertex
100
AcDb2dVertex
 10
76.60487055597781
 20
173.3107309013809
 30
0.0
  0
VERTEX
  5
340
330
33B
100
AcDbEntity
  8
Section Line (ISO)
  6
Continuous
100
AcDbVertex
100
AcDb2dVertex
 10
77.60487109241961
 20
173.3107309013809
 30
0.0
  0
SEQEND
  5
33E
330
33B
100
AcDbEntity
  8
Section Line (ISO)
  6
Continuous
  0
SOLID
  5
341
330
329
100
AcDbEntity
  8
Section Line (ISO)
100
AcDbTrace
 10
77.60487109241961
 20
173.3107309013809
 30
0.0
 11
77.10487156925677
 21
175.8107309386338
 31
0.0
 12
76.60487055597781
 22
173.3107309013809
 32
0.0
 13
77.60487109241961
 23
173.3107309013809
 33
0.0
  0
LINE
  5
342
330
329
100
AcDbEntity
  8
Section Line (ISO)
  6
Continuous
100
AcDbLine
 10
77.60487126383075
 20
173.3107309386338
 30
0.0
 11
77.10487126383073
 21
175.8107309386338
 31
0.0
  0
LINE
  5
343
330
329
100
AcDbEntity
  8
Section Line (ISO)
  6
Continuous
100
AcDbLine
 10
77.10487126383073
 20
175.8107309386338
 30
0.0
 11
76.60487126383074
 21
173.3107309386338
 31
0.0
  0
LINE
  5
344
330
329
100
AcDbEntity
  8
Section Line (ISO)
  6
Continuous
100
AcDbLine
 10
76.60487126383074
 20
173.3107309386338
 30
0.0
 11
77.60487126383075
 21
173.3107309386338
 31
0.0
  0
LINE
  5
345
330
329
100
AcDbEntity
  8
Section Line (ISO)
  6
Continuous
100
AcDbLine
 10
77.10487126383073
 20
170.5915733399401
 30
0.0
 11
77.10487126383073
 21
173.3107309386338
 31
0.0
  0
MTEXT
  5
346
330
329
100
AcDbEntity
  8
Section Line (ISO)
100
AcDbMText
 10
120.8023437564884
 20
162.0607311770524
 30
0.0
 40
5.24999976158142
 41
0.0
 71
     7
 72
     1
  1
A
  7
Label Text (ISO)
 73
     1
 44
1.0
1001
ACAD
1000
MTEXTBEGIN
1070
    73
1070
     1
1070
    44
1040
1.0
1070
    74
1070
     0
1000
MTEXTEND
  0
MTEXT
  5
347
330
329
100
AcDbEntity
  8
Section Line (ISO)
100
AcDbMText
 10
74.87171703400425
 20
162.0607311770524
 30
0.0
 40
5.24999976158142
 41
0.0
 71
     7
 72
     1
  1
A
  7
Label Text (ISO)
 73
     1
 44
1.0
1001
ACAD
1000
MTEXTBEGIN
1070
    73
1070
     1
1070
    44
1040
1.0
1070
    74
1070
     0
1000
MTEXTEND
  0
ENDBLK
  5
32B
330
329
100
AcDbEntity
  8
0
100
AcDbBlockEnd
  0
BLOCK
  5
38D
330
38C
100
AcDbEntity
  8
0
100
AcDbBlockBegin
  2
*D9
 70
     1
 10
0.0
 20
0.0
 30
0.0
  3
*D9
  1

  0
LINE
  5
464
330
38C
100
AcDbEntity
  8
Dimension (ISO)
100
AcDbLine
 10
44.14126133846472
 20
48.89638486945267
 30
0.0
 11
44.14126133846472
 21
52.66638486945268
 31
0.0
  0
LINE
  5
465
330
38C
100
AcDbEntity
  8
Dimension (ISO)
100
AcDbLine
 10
35.14126133846472
 20
48.89638486945267
 30
0.0
 11
35.14126133846472
 21
52.66638486945268
 31
0.0
  0
LINE
  5
466
330
38C
100
AcDbEntity
  8
Dimension (ISO)
100
AcDbLine
 10
43.14126133846472
 20
51.39638486945267
 30
0.0
 11
36.14126133846472
 21
51.39638486945267
 31
0.0
  0
SOLID
  5
467
330
38C
100
AcDbEntity
  8
Dimension (ISO)
100
AcDbTrace
 10
43.14126133846472
 20
51.56305153611934
 30
0.0
 11
43.14126133846472
 21
51.22971820278601
 31
0.0
 12
44.14126133846472
 22
51.39638486945267
 32
0.0
 13
44.14126133846472
 23
51.39638486945267
 33
0.0
  0
SOLID
  5
468
330
38C
100
AcDbEntity
  8
Dimension (ISO)
100
AcDbTrace
 10
36.14126133846472
 20
51.56305153611934
 30
0.0
 11
36.14126133846472
 21
51.22971820278601
 31
0.0
 12
35.14126133846472
 22
51.39638486945267
 32
0.0
 13
35.14126133846472
 23
51.39638486945267
 33
0.0
  0
MTEXT
  5
469
102
{ACAD_XDICTIONARY
360
7CE
102
}
330
38C
100
AcDbEntity
  8
Dimension (ISO)
100
AcDbMText
 10
36.47598262792073
 20
53.57505995340163
 30
0.0
 40
1.4
 41
0.0
 71
     1
 72
     1
  1
\A1;{\U+00D8}9{ (3x)}
  7
Note Text (ISO)
 73
     1
 44
1.0
1001
ACAD
1000
MTEXTBEGIN
1070
    73
1070
     1
1070
    44
1040
1.0
1070
    74
1070
     0
1000
MTEXTEND
  0
POINT
  5
46A
330
38C
100
AcDbEntity
  8
Defpoints
 62
     0
100
AcDbPoint
 10
44.14126133846472
 20
48.89638486945267
 30
0.0
  0
POINT
  5
46B
330
38C
100
AcDbEntity
  8
Defpoints
 62
     0
100
AcDbPoint
 10
35.14126133846472
 20
48.89638486945267
 30
0.0
  0
POINT
  5
46C
330
38C
100
AcDbEntity
  8
Defpoints
 62
     0
100
AcDbPoint
 10
35.14126133846472
 20
51.39638486945267
 30
0.0
  0
ENDBLK
  5
38E
330
38C
100
AcDbEntity
  8
0
100
AcDbBlockEnd
  0
BLOCK
  5
470
330
46F
100
AcDbEntity
  8
0
100
AcDbBlockBegin
  2
*D10
 70
     1
 10
0.0
 20
0.0
 30
0.0
  3
*D10
  1

  0
LINE
  5
554
330
46F
100
AcDbEntity
  8
Dimension (ISO)
100
AcDbLine
 10
41.14126133846473
 20
33.89638486945268
 30
0.0
 11
41.14126133846473
 21
27.95990945408453
 31
0.0
  0
LINE
  5
555
330
46F
100
AcDbEntity
  8
Dimension (ISO)
100
AcDbLine
 10
38.14126133846473
 20
33.89638486945268
 30
0.0
 11
38.14126133846473
 21
27.95990945408453
 31
0.0
  0
LINE
  5
556
330
46F
100
AcDbEntity
  8
Dimension (ISO)
100
AcDbLine
 10
40.14126133846473
 20
29.22990945408454
 30
0.0
 11
39.14126133846473
 21
29.22990945408454
 31
0.0
  0
LINE
  5
557
330
46F
100
AcDbEntity
  8
Dimension (ISO)
100
AcDbLine
 10
38.14126133846473
 20
29.22990945408454
 30
0.0
 11
27.88780857813663
 21
29.22990945408454
 31
0.0
  0
SOLID
  5
558
330
46F
100
AcDbEntity
  8
Dimension (ISO)
100
AcDbTrace
 10
40.14126133846473
 20
29.3965761207512
 30
0.0
 11
40.14126133846473
 21
29.06324278741787
 31
0.0
 12
41.14126133846473
 22
29.22990945408454
 32
0.0
 13
41.14126133846473
 23
29.22990945408454
 33
0.0
  0
SOLID
  5
559
330
46F
100
AcDbEntity
  8
Dimension (ISO)
100
AcDbTrace
 10
39.14126133846473
 20
29.3965761207512
 30
0.0
 11
39.14126133846473
 21
29.06324278741787
 31
0.0
 12
38.14126133846473
 22
29.22990945408454
 32
0.0
 13
38.14126133846473
 23
29.22990945408454
 33
0.0
  0
MTEXT
  5
55A
330
46F
100
AcDbEntity
  8
Dimension (ISO)
100
AcDbMText
 10
28.19260857813663
 20
31.66794424023863
 30
0.0
 40
1.4
 41
0.0
 71
     1
 72
     1
  1
\A1;{\fAIGDT|b0|i0;\H1.4000;n\fTahoma|b0|i0;\H1.4000;}3{ (3x)}
  7
Note Text (ISO)
 73
     1
 44
1.0
1001
ACAD
1000
MTEXTBEGIN
1070
    73
1070
     1
1070
    44
1040
1.0
1070
    74
1070
     0
1000
MTEXTEND
  0
POINT
  5
55B
330
46F
100
AcDbEntity
  8
Defpoints
 62
     0
100
AcDbPoint
 10
41.14126133846473
 20
33.89638486945268
 30
0.0
  0
POINT
  5
55C
330
46F
100
AcDbEntity
  8
Defpoints
 62
     0
100
AcDbPoint
 10
38.14126133846473
 20
33.89638486945268
 30
0.0
  0
POINT
  5
55D
330
46F
100
AcDbEntity
  8
Defpoints
 62
     0
100
AcDbPoint
 10
38.14126133846473
 20
29.22990945408454
 30
0.0
  0
ENDBLK
  5
471
330
46F
100
AcDbEntity
  8
0
100
AcDbBlockEnd
  0
BLOCK
  5
561
330
560
100
AcDbEntity
  8
0
100
AcDbBlockBegin
  2
*D11
 70
     1
 10
0.0
 20
0.0
 30
0.0
  3
*D11
  1

  0
LINE
  5
62E
330
560
100
AcDbEntity
  8
Dimension (ISO)
100
AcDbLine
 10
32.14126133846472
 20
48.89638486945267
 30
0.0
 11
26.87126133846474
 21
48.89638486945267
 31
0.0
  0
LINE
  5
62F
330
560
100
AcDbEntity
  8
Dimension (ISO)
100
AcDbLine
 10
32.14126133846472
 20
33.89638486945268
 30
0.0
 11
26.87126133846474
 21
33.89638486945268
 31
0.0
  0
LINE
  5
630
330
560
100
AcDbEntity
  8
Dimension (ISO)
100
AcDbLine
 10
28.14126133846474
 20
47.89638486945267
 30
0.0
 11
28.14126133846473
 21
34.89638486945267
 31
0.0
  0
SOLID
  5
631
330
560
100
AcDbEntity
  8
Dimension (ISO)
100
AcDbTrace
 10
27.97459467179807
 20
47.89638486945267
 30
0.0
 11
28.30792800513141
 21
47.89638486945267
 31
0.0
 12
28.14126133846474
 22
48.89638486945267
 32
0.0
 13
28.14126133846474
 23
48.89638486945267
 33
0.0
  0
SOLID
  5
632
330
560
100
AcDbEntity
  8
Dimension (ISO)
100
AcDbTrace
 10
27.97459467179807
 20
34.89638486945267
 30
0.0
 11
28.3079280051314
 21
34.89638486945267
 31
0.0
 12
28.14126133846473
 22
33.89638486945268
 32
0.0
 13
28.14126133846473
 23
33.89638486945268
 33
0.0
  0
MTEXT
  5
633
330
560
100
AcDbEntity
  8
Dimension (ISO)
100
AcDbMText
 10
26.40261311818266
 20
39.62192441525902
 30
0.0
 40
1.4
 41
0.0
 71
     1
 72
     1
  1
\A1;{\fAIGDT|b0|i0;\H1.4000;o\fTahoma|b0|i0;\H1.4000;}15
  7
Note Text (ISO)
 11
0.0000000000000001
 21
1.0
 31
0.0
 73
     1
 44
1.0
1001
ACAD
1000
MTEXTBEGIN
1070
    73
1070
     1
1070
    44
1040
1.0
1070
    74
1070
     0
1000
MTEXTEND
  0
POINT
  5
634
330
560
100
AcDbEntity
  8
Defpoints
 62
     0
100
AcDbPoint
 10
32.14126133846472
 20
48.89638486945267
 30
0.0
  0
POINT
  5
635
330
560
100
AcDbEntity
  8
Defpoints
 62
     0
100
AcDbPoint
 10
32.14126133846472
 20
33.89638486945268
 30
0.0
  0
POINT
  5
636
330
560
100
AcDbEntity
  8
Defpoints
 62
     0
100
AcDbPoint
 10
28.14126133846473
 20
33.89638486945268
 30
0.0
  0
ENDBLK
  5
562
330
560
100
AcDbEntity
  8
0
100
AcDbBlockEnd
  0
BLOCK
  5
68B
330
68A
100
AcDbEntity
  8
0
100
AcDbBlockBegin
  2
*D12
 70
     1
 10
0.0
 20
0.0
 30
0.0
  3
*D12
  1

  0
LINE
  5
77C
330
68A
100
AcDbEntity
  8
Dimension (ISO)
100
AcDbLine
 10
44.14126133846472
 20
35.39638486945268
 30
0.0
 11
51.89350892848485
 21
35.39638486945267
 31
0.0
  0
LINE
  5
77D
330
68A
100
AcDbEntity
  8
Dimension (ISO)
100
AcDbLine
 10
47.14126133846472
 20
33.89638486945268
 30
0.0
 11
51.89350892848485
 21
33.89638486945267
 31
0.0
  0
LINE
  5
77E
330
68A
100
AcDbEntity
  8
Dimension (ISO)
100
AcDbLine
 10
50.62350892848486
 20
36.39638486945267
 30
0.0
 11
50.62350892848486
 21
37.39638486945267
 31
0.0
  0
LINE
  5
77F
330
68A
100
AcDbEntity
  8
Dimension (ISO)
100
AcDbLine
 10
50.62350892848486
 20
32.89638486945267
 30
0.0
 11
50.62350892848486
 21
28.91458876468437
 31
0.0
  0
LINE
  5
780
330
68A
100
AcDbEntity
  8
Dimension (ISO)
100
AcDbLine
 10
50.62350892848486
 20
35.39638486945267
 30
0.0
 11
50.62350892848486
 21
33.89638486945267
 31
0.0
  0
SOLID
  5
781
330
68A
100
AcDbEntity
  8
Dimension (ISO)
100
AcDbTrace
 10
50.45684226181819
 20
36.39638486945267
 30
0.0
 11
50.79017559515152
 21
36.39638486945267
 31
0.0
 12
50.62350892848486
 22
35.39638486945267
 32
0.0
 13
50.62350892848486
 23
35.39638486945267
 33
0.0
  0
SOLID
  5
782
330
68A
100
AcDbEntity
  8
Dimension (ISO)
100
AcDbTrace
 10
50.45684226181819
 20
32.89638486945267
 30
0.0
 11
50.79017559515152
 21
32.89638486945267
 31
0.0
 12
50.62350892848486
 22
33.89638486945267
 32
0.0
 13
50.62350892848486
 23
33.89638486945267
 33
0.0
  0
MTEXT
  5
783
330
68A
100
AcDbEntity
  8
Dimension (ISO)
100
AcDbMText
 10
48.56612330054663
 20
29.21938876468438
 30
0.0
 40
1.4
 41
0.0
 71
     1
 72
     1
  1
\A1;1,5
  7
Note Text (ISO)
 11
0.0000000000000001
 21
1.0
 31
0.0
 73
     1
 44
1.0
1001
ACAD
1000
MTEXTBEGIN
1070
    73
1070
     1
1070
    44
1040
1.0
1070
    74
1070
     0
1000
MTEXTEND
  0
POINT
  5
784
330
68A
100
AcDbEntity
  8
Defpoints
 62
     0
100
AcDbPoint
 10
44.14126133846472
 20
35.39638486945268
 30
0.0
  0
POINT
  5
785
330
68A
100
AcDbEntity
  8
Defpoints
 62
     0
100
AcDbPoint
 10
47.14126133846472
 20
33.89638486945268
 30
0.0
  0
POINT
  5
786
330
68A
100
AcDbEntity
  8
Defpoints
 62
     0
100
AcDbPoint
 10
50.62350892848486
 20
33.89638486945267
 30
0.0
  0
ENDBLK
  5
68C
330
68A
100
AcDbEntity
  8
0
100
AcDbBlockEnd
  0
ENDSEC
  0
SECTION
  2
ENTITIES
  0
INSERT
  5
150
330
77
100
AcDbEntity
  8
0
100
AcDbBlockReference
 66
     1
  2
Title Blocks Makerrbeam title
 10
-20.76320599761607
 20
-10.14802825981613
 30
0.0
 41
0.4
 42
0.4
 43
0.4
  0
ATTRIB
  5
153
102
{ACAD_XDICTIONARY
360
798
102
}
330
150
100
AcDbEntity
  8
Title (ISO)
 62
     7
100
AcDbText
 10
16.04529331777785
 20
8.041085464802497
 30
0.0
 40
1.399999976158142
  1
18-4-2017
  7
Text Style289
100
AcDbAttribute
  2
CREATION_DATE_001
 70
     0
  0
SEQEND
  5
152
330
150
100
AcDbEntity
  8
0
  0
INSERT
  5
15B
330
77
100
AcDbEntity
  8
0
100
AcDbBlockReference
  2
Borders Makerbeam A4
 10
0.0
 20
0.0
 30
0.0
 41
0.4
 42
0.4
 43
0.4
  0
CIRCLE
  5
15C
330
77
100
AcDbEntity
  8
Visible (ISO)
100
AcDbCircle
 10
39.64126133846473
 20
70.32429237545352
 30
0.0
 40
4.500000000000001
  0
CIRCLE
  5
15D
330
77
100
AcDbEntity
  8
Visible (ISO)
100
AcDbCircle
 10
39.64126133846473
 20
70.32429237545352
 30
0.0
 40
1.500000000000003
  0
LINE
  5
15E
330
77
100
AcDbEntity
  8
Visible (ISO)
100
AcDbLine
 10
47.14126133846472
 20
77.82429237545352
 30
0.0
 11
47.14126133846472
 21
62.82429237545352
 31
0.0
  0
LINE
  5
15F
330
77
100
AcDbEntity
  8
Visible (ISO)
100
AcDbLine
 10
47.14126133846472
 20
62.82429237545352
 30
0.0
 11
32.14126133846473
 21
62.82429237545352
 31
0.0
  0
LINE
  5
160
330
77
100
AcDbEntity
  8
Visible (ISO)
100
AcDbLine
 10
32.14126133846473
 20
62.82429237545352
 30
0.0
 11
32.14126133846473
 21
77.82429237545352
 31
0.0
  0
LINE
  5
161
330
77
100
AcDbEntity
  8
Visible (ISO)
100
AcDbLine
 10
32.14126133846473
 20
77.82429237545352
 30
0.0
 11
47.14126133846472
 21
77.82429237545352
 31
0.0
  0
ELLIPSE
  5
162
330
77
100
AcDbEntity
  8
Visible (ISO)
100
AcDbEllipse
 10
67.16324916497305
 20
101.2465676803779
 30
0.0
 11
3.185055538854485
 21
-5.509568553102967
 31
0.0
210
0.0
220
0.0
230
1.0
 40
0.5769784850932585
 41
5.528102896540699
 42
5.694693364378593
  0
ELLIPSE
  5
163
330
77
100
AcDbEntity
  8
Visible (ISO)
100
AcDbEllipse
 10
67.16324916497305
 20
101.2465676803779
 30
0.0
 11
6.36396103067893
 21
0.000000000001631
 31
0.0
210
0.0
220
0.0
230
1.0
 40
0.5780931159157247
 41
0.5899405244010341
 42
0.7632146400158311
  0
ELLIPSE
  5
164
330
77
100
AcDbEntity
  8
Visible (ISO)
100
AcDbEllipse
 10
62.92060847785188
 20
103.6897419631308
 30
0.0
 11
0.7485483173760196
 21
1.299875154218104
 31
0.0
210
0.0
220
0.0
230
1.0
 40
0.5780931159154675
 41
0.783471904639467
 42
2.35812074895081
  0
ELLIPSE
  5
165
330
77
100
AcDbEntity
  8
Visible (ISO)
100
AcDbEllipse
 10
61.85994830607159
 20
104.300535533819
 30
0.0
 11
0.74854831737602
 21
1.299875154218103
 31
0.0
210
0.0
220
0.0
230
1.0
 40
0.5780931159154676
 41
0.0
 42
6.283185307179586
  0
ELLIPSE
  5
166
330
77
100
AcDbEntity
  8
Visible (ISO)
100
AcDbEllipse
 10
67.16324916497305
 20
101.2465676803779
 30
0.0
 11
6.36396103067893
 21
0.000000000001631
 31
0.0
210
0.0
220
0.0
230
1.0
 40
0.5780931159157247
 41
2.378378013577122
 42
2.551652129191075
  0
ELLIPSE
  5
167
330
77
100
AcDbEntity
  8
Visible (ISO)
100
AcDbEllipse
 10
67.16324916497305
 20
101.2465676803779
 30
0.0
 11
3.185055538854484
 21
-5.509568553102967
 31
0.0
210
0.0
220
0.0
230
1.0
 40
0.5769784850932585
 41
3.73208052658696
 42
3.903449064524343
  0
ELLIPSE
  5
168
330
77
100
AcDbEntity
  8
Visible (ISO)
100
AcDbEllipse
 10
67.16324916497305
 20
101.2465676803779
 30
0.0
 11
-3.185055538852363
 21
-5.509568553104189
 31
0.0
210
0.0
220
0.0
230
1.0
 40
0.5769784850935161
 41
2.379736242653389
 42
2.551104780592295
  0
ELLIPSE
  5
169
330
77
100
AcDbEntity
  8
Visible (ISO)
100
AcDbEllipse
 10
71.40588985209046
 20
103.689741963133
 30
0.0
 11
-0.7485483173770199
 21
1.299875154217527
 31
0.0
210
0.0
220
0.0
230
1.0
 40
0.5780931159159821
 41
3.92506455822745
 42
5.499713402541448
  0
ELLIPSE
  5
16A
330
77
100
AcDbEntity
  8
Visible (ISO)
100
AcDbEllipse
 10
72.4665500238698
 20
104.3005355338217
 30
0.0
 11
0.7485483173768645
 21
-1.299875154217616
 31
0.0
210
0.0
220
0.0
230
1.0
 40
0.5780931159159822
 41
0.0
 42
6.283185307179586
  0
ELLIPSE
  5
16B
330
77
100
AcDbEntity
  8
Visible (ISO)
100
AcDbEllipse
 10
67.16324916497305
 20
101.2465676803779
 30
0.0
 11
-3.185055538852362
 21
-5.509568553104189
 31
0.0
210
0.0
220
0.0
230
1.0
 40
0.5769784850935161
 41
0.5884919428008609
 42
0.7550824106392433
  0
ELLIPSE
  5
16C
330
77
100
AcDbEntity
  8
Visible (ISO)
100
AcDbEllipse
 10
67.16324916497305
 20
96.34128493132266
 30
0.0
 11
-1.500000000000002
 21
0.0000000000000892
 31
0.0
210
0.0
220
0.0
230
1.0
 40
0.5758617009853119
 41
0.7892806245248334
 42
2.352312029065434
  0
ELLIPSE
  5
16D
330
77
100
AcDbEntity
  8
Visible (ISO)
100
AcDbEllipse
 10
67.16324916497305
 20
95.11496424405885
 30
0.0
 11
1.500000000000002
 21
0.0000000000000001
 31
0.0
210
0.0
220
0.0
230
1.0
 40
0.5758617009853119
 41
0.0
 42
6.283185307179586
  0
LINE
  5
16E
330
77
100
AcDbEntity
  8
Visible (ISO)
100
AcDbLine
 10
67.16324916496834
 20
113.4861068235819
 30
0.0
 11
67.16324916496834
 21
101.2228999509438
 31
0.0
  0
LINE
  5
16F
330
77
100
AcDbEntity
  8
Visible (ISO)
100
AcDbLine
 10
56.55664744717483
 20
107.3781711166942
 30
0.0
 11
67.16324916496834
 21
113.4861068235819
 31
0.0
  0
LINE
  5
170
330
77
100
AcDbEntity
  8
Visible (ISO)
100
AcDbLine
 10
56.55664744717483
 20
95.11496424405612
 30
0.0
 11
56.55664744717483
 21
107.3781711166942
 31
0.0
  0
LINE
  5
171
330
77
100
AcDbEntity
  8
Visible (ISO)
100
AcDbLine
 10
67.16324916496834
 20
101.2228999509438
 30
0.0
 11
56.55664744717483
 21
95.11496424405612
 31
0.0
  0
LINE
  5
172
330
77
100
AcDbEntity
  8
Visible (ISO)
100
AcDbLine
 10
67.16324916497777
 20
89.00702853717383
 30
0.0
 11
56.55664744717483
 21
95.11496424405612
 31
0.0
  0
LINE
  5
173
330
77
100
AcDbEntity
  8
Visible (ISO)
100
AcDbLine
 10
67.16324916497777
 20
89.00702853717383
 30
0.0
 11
77.76985088277126
 21
95.11496424406157
 31
0.0
  0
LINE
  5
174
330
77
100
AcDbEntity
  8
Visible (ISO)
100
AcDbLine
 10
77.76985088277126
 20
95.11496424406157
 30
0.0
 11
67.16324916496834
 21
101.2228999509438
 31
0.0
  0
LINE
  5
175
330
77
100
AcDbEntity
  8
Visible (ISO)
100
AcDbLine
 10
77.76985088277126
 20
95.11496424406157
 30
0.0
 11
77.76985088277126
 21
107.3781711166996
 31
0.0
  0
LINE
  5
176
330
77
100
AcDbEntity
  8
Visible (ISO)
100
AcDbLine
 10
67.16324916496834
 20
113.4861068235819
 30
0.0
 11
77.76985088277126
 21
107.3781711166996
 31
0.0
  0
DIMENSION
  5
177
330
77
100
AcDbEntity
  8
Dimension (ISO)
100
AcDbDimension
  2
*D6
 10
47.14126133846472
 20
80.79261912008661
 30
0.0
 11
39.64126133846473
 21
80.79261912008661
 31
0.0
 70
   160
  1
{\fAIGDT|b0|i0;\H1.4000;o\fTahoma|b0|i0;\H1.4000;}<>
 42
15.0
  3
Default (ISO)
100
AcDbAlignedDimension
 13
32.14126133846473
 23
77.82429237545352
 33
0.0
 14
47.14126133846472
 24
77.82429237545352
 34
0.0
 50
180.0
100
AcDbRotatedDimension
1001
ACAD
1000
DSTYLE
1002
{
1070
   172
1070
     0
1070
   289
1070
     1
1070
   271
1070
     0
1070
   272
1070
     0
1070
    48
1040
0.0
1070
    47
1040
0.0
1002
}
  0
DIMENSION
  5
251
330
77
100
AcDbEntity
  8
Dimension (ISO)
100
AcDbDimension
  2
*D7
 10
28.14126133846475
 20
77.82429237545354
 30
0.0
 11
28.14126133846473
 21
70.32429237545352
 31
0.0
 70
   160
  1
{\fAIGDT|b0|i0;\H1.4000;o\fTahoma|b0|i0;\H1.4000;}<>
 42
15.00000000000001
  3
Default (ISO)
100
AcDbAlignedDimension
 13
32.14126133846473
 23
62.82429237545352
 33
0.0
 14
32.14126133846473
 24
77.82429237545352
 34
0.0
 50
90.0
100
AcDbRotatedDimension
1001
ACAD
1000
DSTYLE
1002
{
1070
   172
1070
     0
1070
   289
1070
     1
1070
   271
1070
     0
1070
   272
1070
     0
1070
    48
1040
0.0
1070
    47
1040
0.0
1002
}
  0
INSERT
  5
348
330
77
100
AcDbEntity
  8
Section Line (ISO)
100
AcDbBlockReference
  2
2dTransSection0
 10
0.0
 20
0.0
 30
0.0
 41
0.4
 42
0.4
 43
0.4
  0
LINE
  5
349
330
77
100
AcDbEntity
  8
Visible (ISO)
100
AcDbLine
 10
41.14126133846473
 20
35.39638486945268
 30
0.0
 11
41.14126133846473
 21
33.89638486945268
 31
0.0
  0
LINE
  5
34A
330
77
100
AcDbEntity
  8
Visible (ISO)
100
AcDbLine
 10
41.14126133846473
 20
33.89638486945268
 30
0.0
 11
47.14126133846472
 21
33.89638486945268
 31
0.0
  0
LINE
  5
34B
330
77
100
AcDbEntity
  8
Visible (ISO)
100
AcDbLine
 10
47.14126133846472
 20
33.89638486945268
 30
0.0
 11
47.14126133846472
 21
36.89638486945268
 31
0.0
  0
LINE
  5
34C
330
77
100
AcDbEntity
  8
Visible (ISO)
100
AcDbLine
 10
47.14126133846472
 20
36.89638486945268
 30
0.0
 11
44.14126133846472
 21
36.89638486945268
 31
0.0
  0
LINE
  5
34D
330
77
100
AcDbEntity
  8
Visible (ISO)
100
AcDbLine
 10
44.14126133846472
 20
36.89638486945268
 30
0.0
 11
44.14126133846472
 21
35.39638486945268
 31
0.0
  0
LINE
  5
34E
330
77
100
AcDbEntity
  8
Visible (ISO)
100
AcDbLine
 10
44.14126133846472
 20
35.39638486945268
 30
0.0
 11
41.14126133846473
 21
35.39638486945268
 31
0.0
  0
LINE
  5
34F
330
77
100
AcDbEntity
  8
Visible (ISO)
100
AcDbLine
 10
38.14126133846473
 20
33.89638486945268
 30
0.0
 11
38.14126133846473
 21
35.39638486945268
 31
0.0
  0
LINE
  5
350
330
77
100
AcDbEntity
  8
Visible (ISO)
100
AcDbLine
 10
38.14126133846473
 20
35.39638486945268
 30
0.0
 11
35.14126133846473
 21
35.39638486945268
 31
0.0
  0
LINE
  5
351
330
77
100
AcDbEntity
  8
Visible (ISO)
100
AcDbLine
 10
35.14126133846473
 20
35.39638486945268
 30
0.0
 11
35.14126133846473
 21
36.89638486945268
 31
0.0
  0
LINE
  5
352
330
77
100
AcDbEntity
  8
Visible (ISO)
100
AcDbLine
 10
35.14126133846473
 20
36.89638486945268
 30
0.0
 11
33.64126133846472
 21
36.89638486945268
 31
0.0
  0
LINE
  5
353
330
77
100
AcDbEntity
  8
Visible (ISO)
100
AcDbLine
 10
33.64126133846472
 20
36.89638486945268
 30
0.0
 11
33.64126133846472
 21
39.89638486945267
 31
0.0
  0
LINE
  5
354
330
77
100
AcDbEntity
  8
Visible (ISO)
100
AcDbLine
 10
33.64126133846472
 20
39.89638486945267
 30
0.0
 11
32.14126133846472
 21
39.89638486945267
 31
0.0
  0
LINE
  5
355
330
77
100
AcDbEntity
  8
Visible (ISO)
100
AcDbLine
 10
32.14126133846472
 20
39.89638486945267
 30
0.0
 11
32.14126133846472
 21
33.89638486945268
 31
0.0
  0
LINE
  5
356
330
77
100
AcDbEntity
  8
Visible (ISO)
100
AcDbLine
 10
32.14126133846472
 20
33.89638486945268
 30
0.0
 11
38.14126133846473
 21
33.89638486945268
 31
0.0
  0
LINE
  5
357
330
77
100
AcDbEntity
  8
Visible (ISO)
100
AcDbLine
 10
44.14126133846472
 20
48.89638486945267
 30
0.0
 11
44.14126133846472
 21
45.89638486945267
 31
0.0
  0
LINE
  5
358
330
77
100
AcDbEntity
  8
Visible (ISO)
100
AcDbLine
 10
44.14126133846472
 20
45.89638486945267
 30
0.0
 11
47.14126133846472
 21
45.89638486945267
 31
0.0
  0
LINE
  5
359
330
77
100
AcDbEntity
  8
Visible (ISO)
100
AcDbLine
 10
47.14126133846472
 20
45.89638486945267
 30
0.0
 11
47.14126133846472
 21
48.89638486945267
 31
0.0
  0
LINE
  5
35A
330
77
100
AcDbEntity
  8
Visible (ISO)
100
AcDbLine
 10
47.14126133846472
 20
48.89638486945267
 30
0.0
 11
44.14126133846472
 21
48.89638486945267
 31
0.0
  0
LINE
  5
35B
330
77
100
AcDbEntity
  8
Visible (ISO)
100
AcDbLine
 10
35.14126133846473
 20
45.89638486945267
 30
0.0
 11
35.14126133846472
 21
48.89638486945267
 31
0.0
  0
LINE
  5
35C
330
77
100
AcDbEntity
  8
Visible (ISO)
100
AcDbLine
 10
35.14126133846472
 20
48.89638486945267
 30
0.0
 11
32.14126133846472
 21
48.89638486945267
 31
0.0
  0
LINE
  5
35D
330
77
100
AcDbEntity
  8
Visible (ISO)
100
AcDbLine
 10
32.14126133846472
 20
48.89638486945267
 30
0.0
 11
32.14126133846472
 21
42.89638486945267
 31
0.0
  0
LINE
  5
35E
330
77
100
AcDbEntity
  8
Visible (ISO)
100
AcDbLine
 10
32.14126133846472
 20
42.89638486945267
 30
0.0
 11
33.64126133846472
 21
42.89638486945267
 31
0.0
  0
LINE
  5
35F
330
77
100
AcDbEntity
  8
Visible (ISO)
100
AcDbLine
 10
33.64126133846472
 20
42.89638486945267
 30
0.0
 11
33.64126133846472
 21
45.89638486945267
 31
0.0
  0
LINE
  5
360
330
77
100
AcDbEntity
  8
Visible (ISO)
100
AcDbLine
 10
33.64126133846472
 20
45.89638486945267
 30
0.0
 11
35.14126133846473
 21
45.89638486945267
 31
0.0
  0
LINE
  5
361
330
77
100
AcDbEntity
  8
Visible (ISO)
100
AcDbLine
 10
35.14126133846473
 20
48.89638486945267
 30
0.0
 11
44.14126133846472
 21
48.89638486945267
 31
0.0
  0
LINE
  5
362
330
77
100
AcDbEntity
  8
Visible (ISO)
100
AcDbLine
 10
36.45928082312526
 20
44.57836538479213
 30
0.0
 11
35.14126133846472
 21
45.89638486945267
 31
0.0
  0
ARC
  5
363
330
77
100
AcDbEntity
  8
Visible (ISO)
100
AcDbCircle
 10
39.64126133846472
 20
41.39638486945267
 30
0.0
 40
4.500000000000002
100
AcDbArc
 50
44.99999999999993
 51
135.0
  0
LINE
  5
364
330
77
100
AcDbEntity
  8
Visible (ISO)
100
AcDbLine
 10
44.14126133846472
 20
45.89638486945267
 30
0.0
 11
42.82324185380419
 21
44.57836538479214
 31
0.0
  0
LINE
  5
365
330
77
100
AcDbEntity
  8
Visible (ISO)
100
AcDbLine
 10
42.82324185380419
 20
38.21440435411322
 30
0.0
 11
44.14126133846473
 21
36.89638486945268
 31
0.0
  0
ARC
  5
366
330
77
100
AcDbEntity
  8
Visible (ISO)
100
AcDbCircle
 10
39.64126133846472
 20
41.39638486945267
 30
0.0
 40
4.500000000000002
100
AcDbArc
 50
224.9999999999999
 51
315.0
  0
LINE
  5
367
330
77
100
AcDbEntity
  8
Visible (ISO)
100
AcDbLine
 10
35.14126133846473
 20
36.89638486945268
 30
0.0
 11
36.45928082312526
 21
38.21440435411321
 31
0.0
  0
LINE
  5
368
330
77
100
AcDbEntity
  8
Visible (ISO)
100
AcDbLine
 10
41.14126133846472
 20
35.39638486945268
 30
0.0
 11
38.14126133846473
 21
35.39638486945268
 31
0.0
  0
LINE
  5
369
330
77
100
AcDbEntity
  8
Visible (ISO)
100
AcDbLine
 10
41.14126133846473
 20
33.89638486945268
 30
0.0
 11
38.14126133846471
 21
33.89638486945268
 31
0.0
  0
LINE
  5
36A
330
77
100
AcDbEntity
  8
Visible (ISO)
100
AcDbLine
 10
32.14126133846472
 20
39.89638486945267
 30
0.0
 11
32.14126133846472
 21
42.89638486945267
 31
0.0
  0
ARC
  5
36B
330
77
100
AcDbEntity
  8
Visible (ISO)
100
AcDbCircle
 10
39.64126133846472
 20
41.39638486945267
 30
0.0
 40
4.500000000000001
100
AcDbArc
 50
314.9999999999999
 51
44.99999999999992
  0
LINE
  5
36C
330
77
100
AcDbEntity
  8
Visible (ISO)
100
AcDbLine
 10
47.14126133846472
 20
45.89638486945267
 30
0.0
 11
47.14126133846472
 21
36.89638486945268
 31
0.0
  0
ARC
  5
36D
330
77
100
AcDbEntity
  8
Visible (ISO)
100
AcDbCircle
 10
39.64126133846472
 20
41.39638486945267
 30
0.0
 40
4.500000000000001
100
AcDbArc
 50
134.9999999999999
 51
224.9999999999999
  0
LINE
  5
36E
330
77
100
AcDbEntity
  8
Visible (ISO)
100
AcDbLine
 10
33.64126133846472
 20
42.89638486945267
 30
0.0
 11
33.64126133846472
 21
39.89638486945267
 31
0.0
  0
MTEXT
  5
36F
330
77
100
AcDbEntity
  8
Symbol (ISO)
100
AcDbMText
 10
37.2578273521998
 20
56.01134105693962
 30
0.0
 40
2.099999904632568
 41
0.0
 71
     7
 72
     1
  1
A-A
  7
Label Text (ISO)
 73
     1
 44
1.0
1001
ACAD
1000
MTEXTBEGIN
1070
    73
1070
     1
1070
    44
1040
1.0
1070
    74
1070
     0
1000
MTEXTEND
  0
HATCH
  5
388
330
77
100
AcDbEntity
  8
Hatch (ISO)
100
AcDbHatch
 10
0.0
 20
0.0
 30
0.0
210
0.0
220
0.0
230
1.0
  2
ANSI31
 70
     0
 71
     0
 91
        4
 92
        1
 93
        6
 72
     1
 10
35.14126133846473
 20
45.89638486945267
 11
35.14126133846473
 21
48.89638486945267
 72
     1
 10
35.14126133846472
 20
48.89638486945267
 11
32.14126133846472
 21
48.89638486945267
 72
     1
 10
32.14126133846472
 20
48.89638486945267
 11
32.14126133846472
 21
42.89638486945267
 72
     1
 10
32.14126133846472
 20
42.89638486945267
 11
33.64126133846472
 21
42.89638486945267
 72
     1
 10
33.64126133846472
 20
42.89638486945267
 11
33.64126133846472
 21
45.89638486945267
 72
     1
 10
33.64126133846472
 20
45.89638486945267
 11
35.14126133846473
 21
45.89638486945267
 97
        0
 92
        1
 93
        4
 72
     1
 10
44.14126133846472
 20
48.89638486945267
 11
44.14126133846472
 21
45.89638486945267
 72
     1
 10
44.14126133846472
 20
45.89638486945267
 11
47.14126133846472
 21
45.89638486945267
 72
     1
 10
47.14126133846472
 20
45.89638486945267
 11
47.14126133846472
 21
48.89638486945267
 72
     1
 10
47.14126133846472
 20
48.89638486945267
 11
44.14126133846472
 21
48.89638486945267
 97
        0
 92
        1
 93
        8
 72
     1
 10
38.14126133846473
 20
33.89638486945268
 11
38.14126133846473
 21
35.39638486945268
 72
     1
 10
38.14126133846473
 20
35.39638486945268
 11
35.14126133846473
 21
35.39638486945268
 72
     1
 10
35.14126133846473
 20
35.39638486945268
 11
35.14126133846473
 21
36.89638486945268
 72
     1
 10
35.14126133846473
 20
36.89638486945268
 11
33.64126133846472
 21
36.89638486945268
 72
     1
 10
33.64126133846472
 20
36.89638486945268
 11
33.64126133846472
 21
39.89638486945267
 72
     1
 10
33.64126133846472
 20
39.89638486945267
 11
32.14126133846472
 21
39.89638486945267
 72
     1
 10
32.14126133846472
 20
39.89638486945267
 11
32.14126133846472
 21
33.89638486945267
 72
     1
 10
32.14126133846472
 20
33.89638486945268
 11
38.14126133846473
 21
33.89638486945268
 97
        0
 92
        1
 93
        6
 72
     1
 10
41.14126133846473
 20
35.39638486945268
 11
41.14126133846473
 21
33.89638486945268
 72
     1
 10
41.14126133846473
 20
33.89638486945268
 11
47.14126133846472
 21
33.89638486945268
 72
     1
 10
47.14126133846472
 20
33.89638486945268
 11
47.14126133846472
 21
36.89638486945268
 72
     1
 10
47.14126133846472
 20
36.89638486945268
 11
44.14126133846472
 21
36.89638486945268
 72
     1
 10
44.14126133846472
 20
36.89638486945268
 11
44.14126133846472
 21
35.39638486945268
 72
     1
 10
44.14126133846472
 20
35.39638486945268
 11
41.14126133846472
 21
35.39638486945268
 97
        0
 75
     0
 76
     1
 52
0.0
 41
10.16
 77
     0
 78
     1
 53
45.0
 43
0.0
 44
0.0
 45
-0.8980256121069153
 46
0.8980256121069153
 79
     0
 98
        1
 10
39.64126133846472
 20
41.39638486945267
  0
LINE
  5
389
330
77
100
AcDbEntity
  8
Centerline (ISO)
  6
CHAIN
 48
23.99096870422363
100
AcDbLine
 10
39.64126133846473
 20
78.82429237545352
 30
0.0
 11
39.64126133846473
 21
61.82429237545353
 31
0.0
  0
LINE
  5
38A
330
77
100
AcDbEntity
  8
Centerline (ISO)
  6
CHAIN
 48
23.99096870422363
100
AcDbLine
 10
31.14126133846473
 20
70.32429237545352
 30
0.0
 11
48.14126133846473
 21
70.32429237545352
 31
0.0
  0
DIMENSION
  5
38B
330
77
100
AcDbEntity
  8
Dimension (ISO)
100
AcDbDimension
  2
*D9
 10
35.14126133846472
 20
51.39638486945267
 30
0.0
 11
39.64126133846472
 21
51.39638486945267
 31
0.0
 70
   160
  1
{Ø}<>{ (3x)}
 42
9.000000000000007
  3
Default (ISO)
100
AcDbAlignedDimension
 13
44.14126133846472
 23
48.89638486945267
 33
0.0
 14
35.14126133846472
 24
48.89638486945267
 34
0.0
 50
180.0
100
AcDbRotatedDimension
1001
ACAD
1000
DSTYLE
1002
{
1070
   172
1070
     0
1070
   289
1070
     1
1070
   271
1070
     0
1070
   272
1070
     2
1070
    48
1040
0.0
1070
    47
1040
0.0
1002
}
  0
LINE
  5
46D
330
77
100
AcDbEntity
  8
Centerline (ISO)
  6
CHAIN
 48
23.99096870422363
100
AcDbLine
 10
39.64126133846472
 20
50.14242873941836
 30
0.0
 11
39.64126133846476
 21
32.06443767047015
 31
0.0
  0
DIMENSION
  5
46E
330
77
100
AcDbEntity
  8
Dimension (ISO)
100
AcDbDimension
  2
*D10
 10
38.14126133846473
 20
29.22990945408454
 30
0.0
 11
31.46382977184008
 21
29.22990945408454
 31
0.0
 70
   160
  1
{\fAIGDT|b0|i0;\H1.4000;n\fTahoma|b0|i0;\H1.4000;}<>{ (3x)}
 42
3.000000000000007
  3
Default (ISO)
100
AcDbAlignedDimension
 13
41.14126133846473
 23
33.89638486945268
 33
0.0
 14
38.14126133846473
 24
33.89638486945268
 34
0.0
 50
180.0
100
AcDbRotatedDimension
1001
ACAD
1000
DSTYLE
1002
{
1070
   172
1070
     0
1070
   289
1070
     2
1070
   271
1070
     0
1070
   272
1070
     2
1070
    48
1040
0.0
1070
    47
1040
0.0
1002
}
  0
LINE
  5
55E
330
77
100
AcDbEntity
  8
Centerline (ISO)
  6
CHAIN
 48
23.99096870422363
100
AcDbLine
 10
48.93699096899096
 20
41.39638486945267
 30
0.0
 11
30.24924677171608
 21
41.39638486945267
 31
0.0
  0
DIMENSION
  5
55F
330
77
100
AcDbEntity
  8
Dimension (ISO)
100
AcDbDimension
  2
*D11
 10
28.14126133846473
 20
33.89638486945268
 30
0.0
 11
28.14126133846473
 21
41.39638486945267
 31
0.0
 70
   160
  1
{\fAIGDT|b0|i0;\H1.4000;o\fTahoma|b0|i0;\H1.4000;}<>
 42
15.0
  3
Default (ISO)
100
AcDbAlignedDimension
 13
32.14126133846472
 23
48.89638486945267
 33
0.0
 14
32.14126133846472
 24
33.89638486945268
 34
0.0
 50
90.0
100
AcDbRotatedDimension
1001
ACAD
1000
DSTYLE
1002
{
1070
   172
1070
     0
1070
   289
1070
     1
1070
   271
1070
     0
1070
   272
1070
     2
1070
    48
1040
0.0
1070
    47
1040
0.0
1002
}
  0
ELLIPSE
  5
637
330
77
100
AcDbEntity
  8
Visible (ISO)
100
AcDbEllipse
 10
44.23151577017423
 20
104.3084298588568
 30
0.0
 11
2.25
 21
-3.897114317029974
 31
0.0
210
0.0
220
0.0
230
1.0
 40
0.577350269189626
 41
0.0
 42
6.283185307179586
  0
ELLIPSE
  5
638
330
77
100
AcDbEntity
  8
Visible (ISO)
100
AcDbEllipse
 10
38.92821491127513
 20
101.2465676803779
 30
0.0
 11
3.181980515339465
 21
5.511351921262152
 31
0.0
210
0.0
220
0.0
230
1.0
 40
0.577350269189626
 41
5.497787143782137
 42
6.549265354405743
  0
ELLIPSE
  5
639
330
77
100
AcDbEntity
  8
Visible (ISO)
100
AcDbEllipse
 10
38.92821491127513
 20
101.2465676803779
 30
0.0
 11
6.36396103067893
 21
-0.0000000000000003
 31
0.0
210
0.0
220
0.0
230
1.0
 40
0.5773502691896258
 41
6.017105259953425
 42
7.068583470577034
  0
ELLIPSE
  5
63A
330
77
100
AcDbEntity
  8
Visible (ISO)
100
AcDbEllipse
 10
34.68557422415584
 20
98.79707793759472
 30
0.0
 11
-2.25
 21
3.897114317029973
 31
0.0
210
0.0
220
0.0
230
1.0
 40
0.5773502691896259
 41
5.319551273722648
 42
5.966070717340816
  0
ELLIPSE
  5
63B
330
77
100
AcDbEntity
  8
Visible (ISO)
100
AcDbEllipse
 10
34.68557422415584
 20
98.79707793759472
 30
0.0
 11
2.25
 21
-3.897114317029973
 31
0.0
210
0.0
220
0.0
230
1.0
 40
0.5773502691896259
 41
0.3171145898387682
 42
0.9636340334569377
  0
ELLIPSE
  5
63C
330
77
100
AcDbEntity
  8
Visible (ISO)
100
AcDbEllipse
 10
38.92821491127513
 20
101.2465676803779
 30
0.0
 11
6.36396103067893
 21
-0.0000000000000003
 31
0.0
210
0.0
220
0.0
230
1.0
 40
0.5773502691896258
 41
2.356194490192344
 42
3.407672700815953
  0
ELLIPSE
  5
63D
330
77
100
AcDbEntity
  8
Visible (ISO)
100
AcDbEllipse
 10
38.92821491127513
 20
101.2465676803779
 30
0.0
 11
3.181980515339465
 21
5.511351921262152
 31
0.0
210
0.0
220
0.0
230
1.0
 40
0.577350269189626
 41
2.87551260636363
 42
3.926990816987239
  0
LINE
  5
63E
330
77
100
AcDbEntity
  8
Visible (ISO)
100
AcDbLine
 10
38.92821491127513
 20
97.72091953477326
 30
0.0
 11
38.92821491127513
 21
96.05041525767127
 31
0.0
  0
LINE
  5
63F
330
77
100
AcDbEntity
  8
Visible (ISO)
100
AcDbLine
 10
34.42821491127512
 20
103.8446438917312
 30
0.0
 11
35.87491405237602
 21
103.0093917531802
 31
0.0
  0
ELLIPSE
  5
640
330
77
100
AcDbEntity
  8
Visible (ISO)
100
AcDbEllipse
 10
38.92821491127513
 20
95.12284332341994
 30
0.0
 11
4.5
 21
-0.0000000000002687
 31
0.0
210
0.0
220
0.0
230
1.0
 40
0.5773502691896257
 41
0.0
 42
6.283185307179586
  0
ELLIPSE
  5
641
330
77
100
AcDbEntity
  8
Visible (ISO)
100
AcDbEllipse
 10
38.92821491127513
 20
106.1455471659442
 30
0.0
 11
4.5
 21
0.0
 31
0.0
210
0.0
220
0.0
230
1.0
 40
0.5773502691896257
 41
5.319551273722646
 42
5.966070717340818
  0
ELLIPSE
  5
642
330
77
100
AcDbEntity
  8
Visible (ISO)
100
AcDbEllipse
 10
38.92821491127513
 20
106.1455471659442
 30
0.0
 11
-4.5
 21
0.0000000000000001
 31
0.0
210
0.0
220
0.0
230
1.0
 40
0.5773502691896258
 41
0.3171145898387674
 42
0.9636340334569382
  0
ELLIPSE
  5
643
330
77
100
AcDbEntity
  8
Visible (ISO)
100
AcDbEllipse
 10
38.92821491127513
 20
101.2465676803779
 30
0.0
 11
-3.181980515339466
 21
5.511351921262152
 31
0.0
210
0.0
220
0.0
230
1.0
 40
0.5773502691896258
 41
2.356194490192346
 42
3.407672700815956
  0
LINE
  5
644
330
77
100
AcDbEntity
  8
Visible (ISO)
100
AcDbLine
 10
41.98151577017423
 20
103.0093917531802
 30
0.0
 11
43.42821491127512
 21
103.8446438917312
 31
0.0
  0
ELLIPSE
  5
645
330
77
100
AcDbEntity
  8
Visible (ISO)
100
AcDbEllipse
 10
43.17085559839441
 20
98.79707793759472
 30
0.0
 11
2.250000000000006
 21
3.897114317029982
 31
0.0
210
0.0
220
0.0
230
1.0
 40
0.5773502691896259
 41
0.3171145898387664
 42
0.9636340334569366
  0
ELLIPSE
  5
646
330
77
100
AcDbEntity
  8
Visible (ISO)
100
AcDbEllipse
 10
43.17085559839441
 20
98.79707793759472
 30
0.0
 11
-2.249999999999999
 21
-3.89711431702997
 31
0.0
210
0.0
220
0.0
230
1.0
 40
0.5773502691896259
 41
5.319551273722648
 42
5.966070717340819
  0
ELLIPSE
  5
647
330
77
100
AcDbEntity
  8
Visible (ISO)
100
AcDbEllipse
 10
38.92821491127513
 20
101.2465676803779
 30
0.0
 11
-3.181980515339466
 21
5.511351921262152
 31
0.0
210
0.0
220
0.0
230
1.0
 40
0.5773502691896258
 41
6.017105259953428
 42
7.068583470577035
  0
ELLIPSE
  5
648
330
77
100
AcDbEntity
  8
Visible (ISO)
100
AcDbEllipse
 10
33.62491405237602
 20
104.3084298588568
 30
0.0
 11
2.25
 21
3.897114317029973
 31
0.0
210
0.0
220
0.0
230
1.0
 40
0.5773502691896259
 41
0.0
 42
6.283185307179586
  0
LINE
  5
649
330
77
100
AcDbEntity
  8
Visible (ISO)
100
AcDbLine
 10
28.32161319347692
 20
95.12284332341994
 30
0.0
 11
38.92821491127513
 21
88.999118966462
 31
0.0
  0
LINE
  5
64A
330
77
100
AcDbEntity
  8
Visible (ISO)
100
AcDbLine
 10
28.32161319347692
 20
107.3702920373358
 30
0.0
 11
28.32161319347692
 21
95.12284332341994
 31
0.0
  0
LINE
  5
64B
330
77
100
AcDbEntity
  8
Visible (ISO)
100
AcDbLine
 10
38.92821491127513
 20
101.2465676803779
 30
0.0
 11
38.92821491127513
 21
113.4940163942937
 31
0.0
  0
LINE
  5
64C
330
77
100
AcDbEntity
  8
Visible (ISO)
100
AcDbLine
 10
38.92821491127513
 20
113.4940163942937
 30
0.0
 11
28.32161319347692
 21
107.3702920373358
 31
0.0
  0
LINE
  5
64D
330
77
100
AcDbEntity
  8
Visible (ISO)
100
AcDbLine
 10
38.92821491127513
 20
101.2465676803779
 30
0.0
 11
28.32161319347692
 21
95.12284332341994
 31
0.0
  0
LINE
  5
64E
330
77
100
AcDbEntity
  8
Visible (ISO)
100
AcDbLine
 10
38.92821491127513
 20
113.4940163942937
 30
0.0
 11
49.53481662907334
 21
107.3702920373358
 31
0.0
  0
LINE
  5
64F
330
77
100
AcDbEntity
  8
Visible (ISO)
100
AcDbLine
 10
49.53481662907334
 20
107.3702920373358
 30
0.0
 11
49.53481662907334
 21
95.12284332341994
 31
0.0
  0
LINE
  5
650
330
77
100
AcDbEntity
  8
Visible (ISO)
100
AcDbLine
 10
38.92821491127513
 20
88.999118966462
 30
0.0
 11
49.53481662907334
 21
95.12284332341994
 31
0.0
  0
LINE
  5
651
330
77
100
AcDbEntity
  8
Visible (ISO)
100
AcDbLine
 10
49.53481662907334
 20
95.12284332341994
 30
0.0
 11
38.92821491127513
 21
101.2465676803779
 31
0.0
  0
MTEXT
  5
653
330
77
100
AcDbEntity
  8
Dimension (ISO)
100
AcDbMText
 10
24.75081959878308
 20
99.68270535299588
 30
0.0
 40
1.399999976158142
 41
0.0
 71
     7
 72
     1
  1
{\Q30.000;\W0.816;\H0.816x;n}
  7
Text Style11
 11
0.8660254037845028
 21
0.4999999999998888
 31
0.0
 73
     1
 44
1.0
1001
ACAD
1000
MTEXTBEGIN
1070
    73
1070
     1
1070
    44
1040
1.0
1070
    74
1070
     0
1000
MTEXTEND
  0
MTEXT
  5
654
330
77
100
AcDbEntity
  8
Dimension (ISO)
100
AcDbMText
 10
25.84754143705512
 20
100.5805431789609
 30
0.0
 40
1.399999976158142
 41
0.0
 71
     7
 72
     1
  1
{\Q30.000;\W0.816;\H0.816x;9}
  7
Note Text (ISO)
 11
0.8660254037845028
 21
0.4999999999998888
 31
0.0
 73
     1
 44
1.0
1001
ACAD
1000
MTEXTBEGIN
1070
    73
1070
     1
1070
    44
1040
1.0
1070
    74
1070
     0
1000
MTEXTEND
  0
LINE
  5
655
330
77
100
AcDbEntity
  8
Dimension (ISO)
100
AcDbLine
 10
31.15004031822311
 20
102.8795608422337
 30
0.0
 11
30.44293353703656
 21
102.47131255177
 31
0.0
  0
POLYLINE
  5
656
330
77
100
AcDbEntity
  8
Dimension (ISO)
100
AcDb2dPolyline
 66
     1
 10
0.0
 20
0.0
 30
0.0
 70
   128
  0
VERTEX
  5
657
330
656
100
AcDbEntity
  8
Dimension (ISO)
100
AcDbVertex
100
AcDb2dVertex
 10
31.15004033592381
 20
103.0428601589616
 30
0.0
  0
VERTEX
  5
658
330
656
100
AcDbEntity
  8
Dimension (ISO)
100
AcDbVertex
100
AcDb2dVertex
 10
30.44293353703656
 20
102.47131255177
 30
0.0
  0
VERTEX
  5
65A
330
656
100
AcDbEntity
  8
Dimension (ISO)
100
AcDbVertex
100
AcDb2dVertex
 10
31.15004033592381
 20
102.7162615459451
 30
0.0
  0
VERTEX
  5
65B
330
656
100
AcDbEntity
  8
Dimension (ISO)
100
AcDbVertex
100
AcDb2dVertex
 10
31.15004033592381
 20
103.0428601589616
 30
0.0
  0
SEQEND
  5
659
330
656
100
AcDbEntity
  8
Dimension (ISO)
  0
SOLID
  5
65C
330
77
100
AcDbEntity
  8
Dimension (ISO)
100
AcDbTrace
 10
31.15004033592381
 20
103.0428601589616
 30
0.0
 11
30.44293353703656
 21
102.47131255177
 31
0.0
 12
31.15004033592381
 22
102.7162615459451
 32
0.0
 13
31.15004033592381
 23
103.0428601589616
 33
0.0
  0
LINE
  5
65D
330
77
100
AcDbEntity
  8
Dimension (ISO)
100
AcDbLine
 10
31.15004031822313
 20
103.0428601584193
 30
0.0
 11
30.44293353703656
 21
102.47131255177
 31
0.0
  0
LINE
  5
65E
330
77
100
AcDbEntity
  8
Dimension (ISO)
100
AcDbLine
 10
30.44293353703656
 20
102.47131255177
 30
0.0
 11
31.15004031822309
 21
102.7162615260482
 31
0.0
  0
LINE
  5
65F
330
77
100
AcDbEntity
  8
Dimension (ISO)
100
AcDbLine
 10
31.15004031822309
 20
102.7162615260482
 30
0.0
 11
31.15004031822313
 21
103.0428601584193
 31
0.0
  0
LINE
  5
660
330
77
100
AcDbEntity
  8
Dimension (ISO)
100
AcDbLine
 10
36.09978778652894
 20
105.7372988754799
 30
0.0
 11
36.80689456771549
 21
106.1455471659437
 31
0.0
  0
POLYLINE
  5
661
330
77
100
AcDbEntity
  8
Dimension (ISO)
100
AcDb2dPolyline
 66
     1
 10
0.0
 20
0.0
 30
0.0
 70
   128
  0
VERTEX
  5
662
330
661
100
AcDbEntity
  8
Dimension (ISO)
100
AcDbVertex
100
AcDb2dVertex
 10
36.099787689716
 20
105.5739995474904
 30
0.0
  0
VERTEX
  5
663
330
661
100
AcDbEntity
  8
Dimension (ISO)
100
AcDbVertex
100
AcDb2dVertex
 10
36.80689475682416
 20
106.1455472751267
 30
0.0
  0
VERTEX
  5
665
330
661
100
AcDbEntity
  8
Dimension (ISO)
100
AcDbVertex
100
AcDb2dVertex
 10
36.099787689716
 20
105.9005980916814
 30
0.0
  0
VERTEX
  5
666
330
661
100
AcDbEntity
  8
Dimension (ISO)
100
AcDbVertex
100
AcDb2dVertex
 10
36.099787689716
 20
105.5739995474904
 30
0.0
  0
SEQEND
  5
664
330
661
100
AcDbEntity
  8
Dimension (ISO)
  0
SOLID
  5
667
330
77
100
AcDbEntity
  8
Dimension (ISO)
100
AcDbTrace
 10
36.099787689716
 20
105.5739995474904
 30
0.0
 11
36.80689475682416
 21
106.1455472751267
 31
0.0
 12
36.099787689716
 22
105.9005980916814
 32
0.0
 13
36.099787689716
 23
105.5739995474904
 33
0.0
  0
LINE
  5
668
330
77
100
AcDbEntity
  8
Dimension (ISO)
100
AcDbLine
 10
36.09978778652891
 20
105.5739995592944
 30
0.0
 11
36.80689456771549
 21
106.1455471659437
 31
0.0
  0
LINE
  5
669
330
77
100
AcDbEntity
  8
Dimension (ISO)
100
AcDbLine
 10
36.80689456771549
 20
106.1455471659437
 30
0.0
 11
36.09978778652896
 21
105.9005981916655
 31
0.0
  0
LINE
  5
66A
330
77
100
AcDbEntity
  8
Dimension (ISO)
100
AcDbLine
 10
36.09978778652896
 20
105.9005981916655
 30
0.0
 11
36.09978778652891
 21
105.5739995592944
 31
0.0
  0
LINE
  5
66B
330
77
100
AcDbEntity
  8
Dimension (ISO)
100
AcDbLine
 10
31.15004031822311
 20
102.8795608422337
 30
0.0
 11
36.09978778652894
 21
105.7372988754799
 31
0.0
  0
LINE
  5
66C
330
77
100
AcDbEntity
  8
Dimension (ISO)
100
AcDbLine
 10
30.44293353703656
 20
102.47131255177
 30
0.0
 11
25.619926595068
 21
99.68674819552187
 31
0.0
  0
LINE
  5
66D
330
77
100
AcDbEntity
  8
Dimension (ISO)
100
AcDbLine
 10
25.619926595068
 20
99.68674819552187
 30
0.0
 11
24.47827221603918
 21
99.02761373246825
 31
0.0
  0
MTEXT
  5
66E
330
77
100
AcDbEntity
  8
Dimension (ISO)
100
AcDbMText
 10
52.59615533790235
 20
99.45045488346128
 30
0.0
 40
1.399999976158142
 41
0.0
 71
     7
 72
     1
  1
{\Q29.936;\W0.816;\H0.817x;n}
  7
Text Style11
 11
0.8660252245748583
 21
0.5000003103999697
 31
0.0
 73
     1
 44
1.0
1001
ACAD
1000
MTEXTBEGIN
1070
    73
1070
     1
1070
    44
1040
1.0
1070
    74
1070
     0
1000
MTEXTEND
  0
MTEXT
  5
66F
330
77
100
AcDbEntity
  8
Dimension (ISO)
100
AcDbMText
 10
53.71159022421709
 20
100.3575828999934
 30
0.0
 40
1.399999976158142
 41
0.0
 71
     7
 72
     1
  1
{\Q29.936;\W0.816;\H0.817x;3}
  7
Note Text (ISO)
 11
0.8660252245748583
 21
0.5000003103999697
 31
0.0
 73
     1
 44
1.0
1001
ACAD
1000
MTEXTBEGIN
1070
    73
1070
     1
1070
    44
1040
1.0
1070
    74
1070
     0
1000
MTEXTEND
  0
LINE
  5
670
330
77
100
AcDbEntity
  8
Dimension (ISO)
100
AcDbLine
 10
61.50639520869278
 20
104.0964113889143
 30
0.0
 11
60.79928901393518
 21
103.6881630991048
 31
0.0
  0
POLYLINE
  5
671
330
77
100
AcDbEntity
  8
Dimension (ISO)
100
AcDb2dPolyline
 66
     1
 10
0.0
 20
0.0
 30
0.0
 70
   128
  0
VERTEX
  5
672
330
671
100
AcDbEntity
  8
Dimension (ISO)
100
AcDbVertex
100
AcDb2dVertex
 10
61.5062130907431
 20
104.2598157938631
 30
0.0
  0
VERTEX
  5
673
330
671
100
AcDbEntity
  8
Dimension (ISO)
100
AcDbVertex
100
AcDb2dVertex
 10
60.79928901393518
 20
103.6881630991048
 30
0.0
  0
VERTEX
  5
675
330
671
100
AcDbEntity
  8
Dimension (ISO)
100
AcDbVertex
100
AcDb2dVertex
 10
61.50657736204385
 20
103.9330070044047
 30
0.0
  0
VERTEX
  5
676
330
671
100
AcDbEntity
  8
Dimension (ISO)
100
AcDbVertex
100
AcDb2dVertex
 10
61.5062130907431
 20
104.2598157938631
 30
0.0
  0
SEQEND
  5
674
330
671
100
AcDbEntity
  8
Dimension (ISO)
  0
SOLID
  5
677
330
77
100
AcDbEntity
  8
Dimension (ISO)
100
AcDbTrace
 10
61.5062130907431
 20
104.2598157938631
 30
0.0
 11
60.79928901393518
 21
103.6881630991048
 31
0.0
 12
61.50657736204385
 22
103.9330070044047
 32
0.0
 13
61.5062130907431
 23
104.2598157938631
 33
0.0
  0
LINE
  5
678
330
77
100
AcDbEntity
  8
Dimension (ISO)
100
AcDbLine
 10
61.50621307303163
 20
104.259815793327
 30
0.0
 11
60.79928901393518
 21
103.6881630991048
 31
0.0
  0
LINE
  5
679
330
77
100
AcDbEntity
  8
Dimension (ISO)
100
AcDbLine
 10
60.79928901393518
 20
103.6881630991048
 30
0.0
 11
61.50657734435393
 21
103.9330069845016
 31
0.0
  0
LINE
  5
67A
330
77
100
AcDbEntity
  8
Dimension (ISO)
100
AcDbLine
 10
61.50657734435393
 20
103.9330069845016
 30
0.0
 11
61.50621307303163
 21
104.259815793327
 31
0.0
  0
LINE
  5
67B
330
77
100
AcDbEntity
  8
Dimension (ISO)
100
AcDbLine
 10
62.21350140345038
 20
104.5046596787237
 30
0.0
 11
62.92060759820799
 21
104.9129079685332
 31
0.0
  0
POLYLINE
  5
67C
330
77
100
AcDbEntity
  8
Dimension (ISO)
100
AcDb2dPolyline
 66
     1
 10
0.0
 20
0.0
 30
0.0
 70
   128
  0
VERTEX
  5
67D
330
67C
100
AcDbEntity
  8
Dimension (ISO)
100
AcDbVertex
100
AcDb2dVertex
 10
62.21368357454053
 20
104.3412552699989
 30
0.0
  0
VERTEX
  5
67E
330
67C
100
AcDbEntity
  8
Dimension (ISO)
100
AcDbVertex
100
AcDb2dVertex
 10
62.92060750229858
 20
104.9129079131602
 30
0.0
  0
VERTEX
  5
680
330
67C
100
AcDbEntity
  8
Dimension (ISO)
100
AcDbVertex
100
AcDb2dVertex
 10
62.21331930316301
 20
104.6680641283271
 30
0.0
  0
VERTEX
  5
681
330
67C
100
AcDbEntity
  8
Dimension (ISO)
100
AcDbVertex
100
AcDb2dVertex
 10
62.21368357454053
 20
104.3412552699989
 30
0.0
  0
SEQEND
  5
67F
330
67C
100
AcDbEntity
  8
Dimension (ISO)
  0
SOLID
  5
682
330
77
100
AcDbEntity
  8
Dimension (ISO)
100
AcDbTrace
 10
62.21368357454053
 20
104.3412552699989
 30
0.0
 11
62.92060750229858
 21
104.9129079131602
 31
0.0
 12
62.21331930316301
 22
104.6680641283271
 32
0.0
 13
62.21368357454053
 23
104.3412552699989
 33
0.0
  0
LINE
  5
683
330
77
100
AcDbEntity
  8
Dimension (ISO)
100
AcDbLine
 10
62.21368353911154
 20
104.341255274311
 30
0.0
 11
62.92060759820799
 21
104.9129079685332
 31
0.0
  0
LINE
  5
684
330
77
100
AcDbEntity
  8
Dimension (ISO)
100
AcDbLine
 10
62.92060759820799
 20
104.9129079685332
 30
0.0
 11
62.21331926778923
 21
104.6680640831365
 31
0.0
  0
LINE
  5
685
330
77
100
AcDbEntity
  8
Dimension (ISO)
100
AcDbLine
 10
62.21331926778923
 20
104.6680640831365
 30
0.0
 11
62.21368353911154
 21
104.341255274311
 31
0.0
  0
LINE
  5
686
330
77
100
AcDbEntity
  8
Dimension (ISO)
100
AcDbLine
 10
61.50639520869278
 20
104.0964113889143
 30
0.0
 11
62.21350140345038
 21
104.5046596787237
 31
0.0
  0
LINE
  5
687
330
77
100
AcDbEntity
  8
Dimension (ISO)
100
AcDbLine
 10
60.79928901393518
 20
103.6881630991048
 30
0.0
 11
53.465816762901
 21
99.4541774162667
 31
0.0
  0
LINE
  5
688
330
77
100
AcDbEntity
  8
Dimension (ISO)
100
AcDbLine
 10
53.465816762901
 20
99.4541774162667
 30
0.0
 11
52.32416333068698
 21
98.79504295426944
 31
0.0
  0
DIMENSION
  5
689
330
77
100
AcDbEntity
  8
Dimension (ISO)
100
AcDbDimension
  2
*D12
 10
50.62350892848486
 20
33.89638486945267
 30
0.0
 11
50.62350892848485
 21
30.40548681706853
 31
0.0
 70
   160
  1
<>
 42
1.5
  3
Default (ISO)
100
AcDbAlignedDimension
 13
44.14126133846472
 23
35.39638486945268
 33
0.0
 14
47.14126133846472
 24
33.89638486945268
 34
0.0
 50
90.0
100
AcDbRotatedDimension
1001
ACAD
1000
DSTYLE
1002
{
1070
   172
1070
     1
1070
   289
1070
     1
1070
   271
1070
     1
1070
   272
1070
     2
1070
    48
1040
0.0
1070
    47
1040
0.0
1002
}
  0
ENDSEC
  0
SECTION
  2
OBJECTS
  0
DICTIONARY
  5
C
330
0
100
AcDbDictionary
281
     1
  3
ACAD_COLOR
350
6E
  3
ACAD_GROUP
350
D
  3
ACAD_IMAGE_DICT
350
111
  3
ACAD_IMAGE_VARS
350
787
  3
ACAD_LAYOUT
350
6D
  3
ACAD_MATERIAL
350
10
  3
ACAD_MLEADERSTYLE
350
71
  3
ACAD_MLINESTYLE
350
6A
  3
ACAD_PLOTSETTINGS
350
6C
  3
ACAD_PLOTSTYLENAME
350
E
  3
ACAD_SCALELIST
350
3D
  3
ACAD_TABLESTYLE
350
6F
  3
ACAD_VISUALSTYLE
350
29
  3
ACDB_RECOMPOSE_DATA
350
79B
  3
AcDbVariableDictionary
350
7F
  3
DWGPROPS
350
79C
  0
DICTIONARY
  5
788
330
77
100
AcDbDictionary
280
     1
281
     1
  3
ACAD_SORTENTS
360
789
  0
IMAGEDEF_REACTOR
  5
113
330
110
100
AcDbRasterImageDefReactor
 90
        2
330
110
  0
DICTIONARY
  5
795
330
14C
100
AcDbDictionary
280
     1
281
     1
  3
ACAD_MLATT
360
797
  3
ACAD_XREC_ROUNDTRIP
360
796
  0
DICTIONARY
  5
7CE
330
469
100
AcDbDictionary
280
     1
281
     1
  3
ACAD_MTEXT_RT
360
7CF
  0
DICTIONARY
  5
798
330
153
100
AcDbDictionary
280
     1
281
     1
  3
ACAD_MLATT
360
79A
  3
ACAD_XREC_ROUNDTRIP
360
799
  0
DICTIONARY
  5
6E
102
{ACAD_REACTORS
330
C
102
}
330
C
100
AcDbDictionary
281
     1
  0
DICTIONARY
  5
D
102
{ACAD_REACTORS
330
C
102
}
330
C
100
AcDbDictionary
281
     1
  0
DICTIONARY
  5
111
102
{ACAD_REACTORS
330
C
102
}
330
C
100
AcDbDictionary
281
     1
  3
OAImg2129683712
350
112
  0
RASTERVARIABLES
  5
787
102
{ACAD_REACTORS
330
C
102
}
330
C
100
AcDbRasterVariables
 90
        0
 70
     0
 71
     1
 72
     1
  0
DICTIONARY
  5
6D
102
{ACAD_REACTORS
330
C
102
}
330
C
100
AcDbDictionary
281
     1
  3
Layout1
350
76
  3
Layout2
350
7E
  3
Model
350
7A
  0
DICTIONARY
  5
10
102
{ACAD_REACTORS
330
C
102
}
330
C
100
AcDbDictionary
281
     1
  3
ByBlock
350
19
  3
ByLayer
350
11
  3
Global
350
21
  0
DICTIONARY
  5
71
102
{ACAD_REACTORS
330
C
102
}
330
C
100
AcDbDictionary
281
     1
  3
Standard
350
72
  0
DICTIONARY
  5
6A
102
{ACAD_REACTORS
330
C
102
}
330
C
100
AcDbDictionary
281
     1
  3
Standard
350
6B
  0
DICTIONARY
  5
6C
102
{ACAD_REACTORS
330
C
102
}
330
C
100
AcDbDictionary
281
     1
  0
ACDBDICTIONARYWDFLT
  5
E
102
{ACAD_REACTORS
330
C
102
}
330
C
100
AcDbDictionary
281
     1
  3
Normal
350
F
100
AcDbDictionaryWithDefault
340
F
  0
DICTIONARY
  5
3D
102
{ACAD_REACTORS
330
C
102
}
330
C
100
AcDbDictionary
281
     1
  3
A0
350
3E
  3
A1
350
3F
  3
A2
350
40
  3
A3
350
41
  3
A4
350
42
  3
A5
350
43
  3
A6
350
44
  3
A7
350
45
  3
A8
350
46
  3
A9
350
47
  3
B0
350
48
  3
B1
350
49
  3
B2
350
4A
  3
B3
350
4B
  3
B4
350
4C
  3
B5
350
4D
  3
B6
350
4E
  3
B7
350
4F
  3
B8
350
50
  3
B9
350
51
  3
C0
350
52
  3
C1
350
53
  3
C2
350
54
  3
C3
350
55
  3
C4
350
56
  3
C5
350
57
  3
C6
350
58
  3
C7
350
59
  3
C8
350
5A
  3
C9
350
5B
  3
D0
350
5C
  3
D1
350
5D
  3
D2
350
5E
  0
DICTIONARY
  5
6F
102
{ACAD_REACTORS
330
C
102
}
330
C
100
AcDbDictionary
281
     1
  3
Standard
350
70
  0
DICTIONARY
  5
29
102
{ACAD_REACTORS
330
C
102
}
330
C
100
AcDbDictionary
281
     1
  3
2dWireframe
350
2F
  3
3D Hidden
350
31
  3
3dWireframe
350
30
  3
Basic
350
2E
  3
Brighten
350
35
  3
ColorChange
350
39
  3
Conceptual
350
32
  3
Dim
350
34
  3
EdgeColorOff
350
3C
  3
Facepattern
350
38
  3
Flat
350
2A
  3
FlatWithEdges
350
2B
  3
Gouraud
350
2C
  3
GouraudWithEdges
350
2D
  3
JitterOff
350
3A
  3
Linepattern
350
37
  3
OverhangOff
350
3B
  3
Realistic
350
33
  3
Thicken
350
36
  0
XRECORD
  5
79B
102
{ACAD_REACTORS
330
C
102
}
330
C
100
AcDbXrecord
280
     1
 90
        1
330
70
330
14C
330
153
330
46E
  0
DICTIONARY
  5
7F
102
{ACAD_REACTORS
330
C
102
}
330
C
100
AcDbDictionary
281
     1
  3
CANNOSCALE
350
82
  3
CMLEADERSTYLE
350
81
  3
CTABLESTYLE
350
80
  3
DIMASSOC
350
791
  3
HIDETEXT
350
790
  3
INDEXCTL
350
78F
  3
LAYEREVAL
350
78C
  3
LAYERNOTIFY
350
78D
  3
LIGHTINGUNITS
350
78B
  3
MSLTSCALE
350
78A
  3
SORTENTS
350
78E
  3
XCLIPFRAME
350
792
  0
XRECORD
  5
79C
102
{ACAD_REACTORS
330
C
102
}
330
C
100
AcDbXrecord
280
     1
  1
DWGPROPS COOKIE
  2

  3

  4
Jeff
  6

  7

  8

  9

300
Manager=
301
Company=
302
Category=
303
Part Number=103105
304
Description=
305
Project=
306
Designer=Jeff
307
Engineer=
308
Authority=
309
Cost Center=
 40
0.0001630671296296
 41
2457218.10388912
 42
2457218.10388912
  1

 90
       16
300
Vendor=
300
User Status=
300
Design Status=WorkInProgress
300
Checked by=
300
Engr Approved by=
300
Mfg Approved by=
  0
SORTENTSTABLE
  5
789
102
{ACAD_REACTORS
330
788
102
}
330
788
100
AcDbSortentsTable
330
77
331
638
  5
638
331
67C
  5
67C
331
34B
  5
34B
331
66B
  5
66B
331
649
  5
649
331
36D
  5
36D
331
16D
  5
16D
331
35C
  5
35C
331
164
  5
164
331
67A
  5
67A
331
349
  5
349
331
647
  5
647
331
36B
  5
36B
331
669
  5
669
331
251
  5
251
331
16B
  5
16B
331
35A
  5
35A
331
162
  5
162
331
678
  5
678
331
667
  5
667
331
645
  5
645
331
38B
  5
38B
331
369
  5
369
331
169
  5
169
331
689
  5
689
331
656
  5
656
331
358
  5
358
331
160
  5
160
331
643
  5
643
331
389
  5
389
331
687
  5
687
331
654
  5
654
331
367
  5
367
331
356
  5
356
331
15E
  5
15E
331
641
  5
641
331
685
  5
685
331
354
  5
354
331
365
  5
365
331
176
  5
176
331
15C
  5
15C
331
661
  5
661
331
63F
  5
63F
331
683
  5
683
331
352
  5
352
331
650
  5
650
331
363
  5
363
331
174
  5
174
331
65F
  5
65F
331
63D
  5
63D
331
350
  5
350
331
64E
  5
64E
331
670
  5
670
331
55F
  5
55F
331
361
  5
361
331
172
  5
172
331
65D
  5
65D
331
63B
  5
63B
331
34E
  5
34E
331
64C
  5
64C
331
66E
  5
66E
331
46E
  5
46E
331
170
  5
170
331
35F
  5
35F
331
167
  5
167
331
639
  5
639
331
34C
  5
34C
331
66C
  5
66C
331
64A
  5
64A
331
36E
  5
36E
331
16E
  5
16E
331
35D
  5
35D
331
165
  5
165
331
67B
  5
67B
331
34A
  5
34A
331
66A
  5
66A
331
648
  5
648
331
36C
  5
36C
331
16C
  5
16C
331
637
  5
637
331
35B
  5
35B
331
163
  5
163
331
679
  5
679
331
348
  5
348
331
668
  5
668
331
646
  5
646
331
36A
  5
36A
331
16A
  5
16A
331
359
  5
359
331
161
  5
161
331
150
  5
150
331
644
  5
644
331
38A
  5
38A
331
368
  5
368
331
168
  5
168
331
688
  5
688
331
677
  5
677
331
655
  5
655
331
357
  5
357
331
15F
  5
15F
331
642
  5
642
331
388
  5
388
331
686
  5
686
331
355
  5
355
331
653
  5
653
331
366
  5
366
331
177
  5
177
331
15D
  5
15D
331
640
  5
640
331
684
  5
684
331
353
  5
353
331
651
  5
651
331
364
  5
364
331
175
  5
175
331
15B
  5
15B
331
660
  5
660
331
63E
  5
63E
331
682
  5
682
331
351
  5
351
331
671
  5
671
331
64F
  5
64F
331
362
  5
362
331
173
  5
173
331
65E
  5
65E
331
63C
  5
63C
331
34F
  5
34F
331
64D
  5
64D
331
66F
  5
66F
331
55E
  5
55E
331
360
  5
360
331
171
  5
171
331
65C
  5
65C
331
63A
  5
63A
331
34D
  5
34D
331
64B
  5
64B
331
66D
  5
66D
331
46D
  5
46D
331
36F
  5
36F
331
16F
  5
16F
331
35E
  5
35E
331
166
  5
166
  0
XRECORD
  5
797
102
{ACAD_REACTORS
330
795
102
}
330
795
100
AcDbXrecord
280
     1
 70
     4
 70
     0
 70
     0
 40
1.0
  2
CREATION_DATE
  1
Embedded Object
 10
92.40801499404007
 20
48.98710894474027
 30
0.0
 40
3.499999940395355
 41
0.0
 46
0.0
 71
     1
 72
     5
  1
18-4-2017
  7
Text Style289
 73
     1
 44
1.0
  0
XRECORD
  5
796
102
{ACAD_REACTORS
330
795
102
}
330
795
100
AcDbXrecord
280
     1
102
ACAD_MATT_HEIGHT
140
3.499999940395355
  0
XRECORD
  5
7CF
102
{ACAD_REACTORS
330
7CE
102
}
330
7CE
100
AcDbXrecord
280
     1
 40
17146.0
  1
\A1;{Ø}9{ (3x)}
  0
XRECORD
  5
79A
102
{ACAD_REACTORS
330
798
102
}
330
798
100
AcDbXrecord
280
     1
 70
     2
 70
     0
 70
     0
 40
1.0
  2
CREATION_DATE
  1
Embedded Object
 10
16.19999999999996
 20
9.446815318079977
 30
0.0
 40
1.399999976158142
 41
0.0
 46
0.0
 71
     1
 72
     5
  1
18-4-2017
  7
Text Style289
 73
     1
 44
1.0
  0
XRECORD
  5
799
102
{ACAD_REACTORS
330
798
102
}
330
798
100
AcDbXrecord
280
     1
102
ACAD_MATT_HEIGHT
140
1.399999976158142
  0
IMAGEDEF
  5
112
102
{ACAD_REACTORS
330
111
330
113
102
}
330
111
100
AcDbRasterImageDef
 90
        0
  1
G:\Makerbeam\IDW\1031054.bmp
 10
245.0
 20
97.0
 11
0.2645502645502646
 21
0.2645502645502646
280
     1
281
     2
  0
LAYOUT
  5
76
102
{ACAD_XDICTIONARY
360
7C8
102
}
102
{ACAD_REACTORS
330
6D
102
}
330
6D
100
AcDbPlotSettings
  1

  2

  4

  6

 40
0.0
 41
0.0
 42
0.0
 43
0.0
 44
0.0
 45
0.0
 46
0.0
 47
0.0
 48
0.0
 49
0.0
140
0.0
141
0.0
142
1.0
143
1.0
 70
   688
 72
     0
 73
     0
 74
     5
  7

 75
    16
147
1.0
148
0.0
149
0.0
100
AcDbLayout
  1
Layout1
 70
     1
 71
     1
 10
0.0
 20
0.0
 11
12.0
 21
9.0
 12
0.0
 22
0.0
 32
0.0
 14
0.0
 24
0.0
 34
0.0
 15
0.0
 25
0.0
 35
0.0
146
0.0
 13
0.0
 23
0.0
 33
0.0
 16
1.0
 26
0.0
 36
0.0
 17
0.0
 27
1.0
 37
0.0
 76
     0
330
73
  0
LAYOUT
  5
7E
102
{ACAD_XDICTIONARY
360
7CC
102
}
102
{ACAD_REACTORS
330
6D
102
}
330
6D
100
AcDbPlotSettings
  1

  2

  4

  6

 40
0.0
 41
0.0
 42
0.0
 43
0.0
 44
0.0
 45
0.0
 46
0.0
 47
0.0
 48
0.0
 49
0.0
140
0.0
141
0.0
142
1.0
143
1.0
 70
   688
 72
     0
 73
     0
 74
     5
  7

 75
    16
147
1.0
148
0.0
149
0.0
100
AcDbLayout
  1
Layout2
 70
     1
 71
     2
 10
0.0
 20
0.0
 11
12.0
 21
9.0
 12
0.0
 22
0.0
 32
0.0
 14
0.0
 24
0.0
 34
0.0
 15
0.0
 25
0.0
 35
0.0
146
0.0
 13
0.0
 23
0.0
 33
0.0
 16
1.0
 26
0.0
 36
0.0
 17
0.0
 27
1.0
 37
0.0
 76
     0
330
7B
  0
LAYOUT
  5
7A
102
{ACAD_XDICTIONARY
360
7CA
102
}
102
{ACAD_REACTORS
330
6D
102
}
330
6D
100
AcDbPlotSettings
  1

  2

  4

  6

 40
0.0
 41
0.0
 42
0.0
 43
0.0
 44
0.0
 45
0.0
 46
0.0
 47
0.0
 48
0.0
 49
0.0
140
0.0
141
0.0
142
1.0
143
1.0
 70
  1712
 72
     0
 73
     0
 74
     0
  7

 75
     0
147
1.0
148
0.0
149
0.0
100
AcDbLayout
  1
Model
 70
     1
 71
     0
 10
0.0
 20
0.0
 11
12.0
 21
9.0
 12
0.0
 22
0.0
 32
0.0
 14
0.0
 24
0.0
 34
0.0
 15
0.0
 25
0.0
 35
0.0
146
0.0
 13
0.0
 23
0.0
 33
0.0
 16
1.0
 26
0.0
 36
0.0
 17
0.0
 27
1.0
 37
0.0
 76
     0
330
77
  0
MATERIAL
  5
19
102
{ACAD_XDICTIONARY
360
1A
102
}
102
{ACAD_REACTORS
330
10
102
}
330
10
100
AcDbMaterial
  1
ByBlock
 72
     0
 43
0.0208333333333333
 43
0.0
 43
0.0
 43
0.0
 43
0.0
 43
0.0208333333333333
 43
0.0
 43
0.0
 43
0.0
 43
0.0
 43
1.0
 43
0.0
 43
0.0
 43
0.0
 43
0.0
 43
1.0
 77
     0
 47
0.0208333333333333
 47
0.0
 47
0.0
 47
0.0
 47
0.0
 47
0.0208333333333333
 47
0.0
 47
0.0
 47
0.0
 47
0.0
 47
1.0
 47
0.0
 47
0.0
 47
0.0
 47
0.0
 47
1.0
171
     0
 49
0.0208333333333333
 49
0.0
 49
0.0
 49
0.0
 49
0.0
 49
0.0208333333333333
 49
0.0
 49
0.0
 49
0.0
 49
0.0
 49
1.0
 49
0.0
 49
0.0
 49
0.0
 49
0.0
 49
1.0
175
     0
142
0.0208333333333333
142
0.0
142
0.0
142
0.0
142
0.0
142
0.0208333333333333
142
0.0
142
0.0
142
0.0
142
0.0
142
1.0
142
0.0
142
0.0
142
0.0
142
0.0
142
1.0
179
     0
144
0.0208333333333333
144
0.0
144
0.0
144
0.0
144
0.0
144
0.0208333333333333
144
0.0
144
0.0
144
0.0
144
0.0
144
1.0
144
0.0
144
0.0
144
0.0
144
0.0
144
1.0
147
0.0208333333333333
147
0.0
147
0.0
147
0.0
147
0.0
147
0.0208333333333333
147
0.0
147
0.0
147
0.0
147
0.0
147
1.0
147
0.0
147
0.0
147
0.0
147
0.0
147
1.0
  0
MATERIAL
  5
11
102
{ACAD_XDICTIONARY
360
12
102
}
102
{ACAD_REACTORS
330
10
102
}
330
10
100
AcDbMaterial
  1
ByLayer
 72
     0
 43
0.0208333333333333
 43
0.0
 43
0.0
 43
0.0
 43
0.0
 43
0.0208333333333333
 43
0.0
 43
0.0
 43
0.0
 43
0.0
 43
1.0
 43
0.0
 43
0.0
 43
0.0
 43
0.0
 43
1.0
 77
     0
 47
0.0208333333333333
 47
0.0
 47
0.0
 47
0.0
 47
0.0
 47
0.0208333333333333
 47
0.0
 47
0.0
 47
0.0
 47
0.0
 47
1.0
 47
0.0
 47
0.0
 47
0.0
 47
0.0
 47
1.0
171
     0
 49
0.0208333333333333
 49
0.0
 49
0.0
 49
0.0
 49
0.0
 49
0.0208333333333333
 49
0.0
 49
0.0
 49
0.0
 49
0.0
 49
1.0
 49
0.0
 49
0.0
 49
0.0
 49
0.0
 49
1.0
175
     0
142
0.0208333333333333
142
0.0
142
0.0
142
0.0
142
0.0
142
0.0208333333333333
142
0.0
142
0.0
142
0.0
142
0.0
142
1.0
142
0.0
142
0.0
142
0.0
142
0.0
142
1.0
179
     0
144
0.0208333333333333
144
0.0
144
0.0
144
0.0
144
0.0
144
0.0208333333333333
144
0.0
144
0.0
144
0.0
144
0.0
144
1.0
144
0.0
144
0.0
144
0.0
144
0.0
144
1.0
147
0.0208333333333333
147
0.0
147
0.0
147
0.0
147
0.0
147
0.0208333333333333
147
0.0
147
0.0
147
0.0
147
0.0
147
1.0
147
0.0
147
0.0
147
0.0
147
0.0
147
1.0
  0
MATERIAL
  5
21
102
{ACAD_XDICTIONARY
360
22
102
}
102
{ACAD_REACTORS
330
10
102
}
330
10
100
AcDbMaterial
  1
Global
 72
     0
 43
0.0208333333333333
 43
0.0
 43
0.0
 43
0.0
 43
0.0
 43
0.0208333333333333
 43
0.0
 43
0.0
 43
0.0
 43
0.0
 43
1.0
 43
0.0
 43
0.0
 43
0.0
 43
0.0
 43
1.0
 77
     0
 47
0.0208333333333333
 47
0.0
 47
0.0
 47
0.0
 47
0.0
 47
0.0208333333333333
 47
0.0
 47
0.0
 47
0.0
 47
0.0
 47
1.0
 47
0.0
 47
0.0
 47
0.0
 47
0.0
 47
1.0
171
     0
 49
0.0208333333333333
 49
0.0
 49
0.0
 49
0.0
 49
0.0
 49
0.0208333333333333
 49
0.0
 49
0.0
 49
0.0
 49
0.0
 49
1.0
 49
0.0
 49
0.0
 49
0.0
 49
0.0
 49
1.0
175
     0
142
0.0208333333333333
142
0.0
142
0.0
142
0.0
142
0.0
142
0.0208333333333333
142
0.0
142
0.0
142
0.0
142
0.0
142
1.0
142
0.0
142
0.0
142
0.0
142
0.0
142
1.0
179
     0
144
0.0208333333333333
144
0.0
144
0.0
144
0.0
144
0.0
144
0.0208333333333333
144
0.0
144
0.0
144
0.0
144
0.0
144
1.0
144
0.0
144
0.0
144
0.0
144
0.0
144
1.0
147
0.0208333333333333
147
0.0
147
0.0
147
0.0
147
0.0
147
0.0208333333333333
147
0.0
147
0.0
147
0.0
147
0.0
147
1.0
147
0.0
147
0.0
147
0.0
147
0.0
147
1.0
  0
MLEADERSTYLE
  5
72
102
{ACAD_REACTORS
330
71
102
}
330
71
100
AcDbMLeaderStyle
170
     2
171
     1
172
     0
 90
        2
 40
0.0
 41
0.0
173
     1
 91
-1056964608
340
66
 92
       -2
290
     1
 42
0.09
291
     1
 43
0.36
  3
Standard
 44
0.18
300

342
60
174
     1
178
     6
175
     1
176
     0
 93
-1056964608
 45
0.18
292
     0
297
     0
 46
0.18
 94
-1056964608
 47
1.0
 49
1.0
140
1.0
293
     1
141
0.0
294
     1
177
     0
142
1.0
295
     0
296
     0
143
0.125
1001
ACAD_MLEADERVER
1070
     2
  0
MLINESTYLE
  5
6B
102
{ACAD_REACTORS
330
6A
102
}
330
6A
100
AcDbMlineStyle
  2
STANDARD
 70
     0
  3

 62
   256
 51
90.0
 52
90.0
 71
     2
 49
0.5
 62
   256
  6
BYLAYER
 49
-0.5
 62
   256
  6
BYLAYER
  0
ACDBPLACEHOLDER
  5
F
102
{ACAD_REACTORS
330
E
102
}
330
E
  0
SCALE
  5
3E
102
{ACAD_REACTORS
330
3D
102
}
330
3D
100
AcDbScale
 70
     0
300
1:1
140
1.0
141
1.0
290
     1
  0
SCALE
  5
3F
102
{ACAD_REACTORS
330
3D
102
}
330
3D
100
AcDbScale
 70
     0
300
1:2
140
1.0
141
2.0
290
     0
  0
SCALE
  5
40
102
{ACAD_REACTORS
330
3D
102
}
330
3D
100
AcDbScale
 70
     0
300
1:4
140
1.0
141
4.0
290
     0
  0
SCALE
  5
41
102
{ACAD_REACTORS
330
3D
102
}
330
3D
100
AcDbScale
 70
     0
300
1:5
140
1.0
141
5.0
290
     0
  0
SCALE
  5
42
102
{ACAD_REACTORS
330
3D
102
}
330
3D
100
AcDbScale
 70
     0
300
1:8
140
1.0
141
8.0
290
     0
  0
SCALE
  5
43
102
{ACAD_REACTORS
330
3D
102
}
330
3D
100
AcDbScale
 70
     0
300
1:10
140
1.0
141
10.0
290
     0
  0
SCALE
  5
44
102
{ACAD_REACTORS
330
3D
102
}
330
3D
100
AcDbScale
 70
     0
300
1:16
140
1.0
141
16.0
290
     0
  0
SCALE
  5
45
102
{ACAD_REACTORS
330
3D
102
}
330
3D
100
AcDbScale
 70
     0
300
1:20
140
1.0
141
20.0
290
     0
  0
SCALE
  5
46
102
{ACAD_REACTORS
330
3D
102
}
330
3D
100
AcDbScale
 70
     0
300
1:30
140
1.0
141
30.0
290
     0
  0
SCALE
  5
47
102
{ACAD_REACTORS
330
3D
102
}
330
3D
100
AcDbScale
 70
     0
300
1:40
140
1.0
141
40.0
290
     0
  0
SCALE
  5
48
102
{ACAD_REACTORS
330
3D
102
}
330
3D
100
AcDbScale
 70
     0
300
1:50
140
1.0
141
50.0
290
     0
  0
SCALE
  5
49
102
{ACAD_REACTORS
330
3D
102
}
330
3D
100
AcDbScale
 70
     0
300
1:100
140
1.0
141
100.0
290
     0
  0
SCALE
  5
4A
102
{ACAD_REACTORS
330
3D
102
}
330
3D
100
AcDbScale
 70
     0
300
2:1
140
2.0
141
1.0
290
     0
  0
SCALE
  5
4B
102
{ACAD_REACTORS
330
3D
102
}
330
3D
100
AcDbScale
 70
     0
300
4:1
140
4.0
141
1.0
290
     0
  0
SCALE
  5
4C
102
{ACAD_REACTORS
330
3D
102
}
330
3D
100
AcDbScale
 70
     0
300
8:1
140
8.0
141
1.0
290
     0
  0
SCALE
  5
4D
102
{ACAD_REACTORS
330
3D
102
}
330
3D
100
AcDbScale
 70
     0
300
10:1
140
10.0
141
1.0
290
     0
  0
SCALE
  5
4E
102
{ACAD_REACTORS
330
3D
102
}
330
3D
100
AcDbScale
 70
     0
300
100:1
140
100.0
141
1.0
290
     0
  0
SCALE
  5
4F
102
{ACAD_REACTORS
330
3D
102
}
330
3D
100
AcDbScale
 70
     0
300
1/128" = 1'-0"
140
0.0078125
141
12.0
290
     0
  0
SCALE
  5
50
102
{ACAD_REACTORS
330
3D
102
}
330
3D
100
AcDbScale
 70
     0
300
1/64" = 1'-0"
140
0.015625
141
12.0
290
     0
  0
SCALE
  5
51
102
{ACAD_REACTORS
330
3D
102
}
330
3D
100
AcDbScale
 70
     0
300
1/32" = 1'-0"
140
0.03125
141
12.0
290
     0
  0
SCALE
  5
52
102
{ACAD_REACTORS
330
3D
102
}
330
3D
100
AcDbScale
 70
     0
300
1/16" = 1'-0"
140
0.0625
141
12.0
290
     0
  0
SCALE
  5
53
102
{ACAD_REACTORS
330
3D
102
}
330
3D
100
AcDbScale
 70
     0
300
3/32" = 1'-0"
140
0.09375
141
12.0
290
     0
  0
SCALE
  5
54
102
{ACAD_REACTORS
330
3D
102
}
330
3D
100
AcDbScale
 70
     0
300
1/8" = 1'-0"
140
0.125
141
12.0
290
     0
  0
SCALE
  5
55
102
{ACAD_REACTORS
330
3D
102
}
330
3D
100
AcDbScale
 70
     0
300
3/16" = 1'-0"
140
0.1875
141
12.0
290
     0
  0
SCALE
  5
56
102
{ACAD_REACTORS
330
3D
102
}
330
3D
100
AcDbScale
 70
     0
300
1/4" = 1'-0"
140
0.25
141
12.0
290
     0
  0
SCALE
  5
57
102
{ACAD_REACTORS
330
3D
102
}
330
3D
100
AcDbScale
 70
     0
300
3/8" = 1'-0"
140
0.375
141
12.0
290
     0
  0
SCALE
  5
58
102
{ACAD_REACTORS
330
3D
102
}
330
3D
100
AcDbScale
 70
     0
300
1/2" = 1'-0"
140
0.5
141
12.0
290
     0
  0
SCALE
  5
59
102
{ACAD_REACTORS
330
3D
102
}
330
3D
100
AcDbScale
 70
     0
300
3/4" = 1'-0"
140
0.75
141
12.0
290
     0
  0
SCALE
  5
5A
102
{ACAD_REACTORS
330
3D
102
}
330
3D
100
AcDbScale
 70
     0
300
1" = 1'-0"
140
1.0
141
12.0
290
     0
  0
SCALE
  5
5B
102
{ACAD_REACTORS
330
3D
102
}
330
3D
100
AcDbScale
 70
     0
300
1-1/2" = 1'-0"
140
1.5
141
12.0
290
     0
  0
SCALE
  5
5C
102
{ACAD_REACTORS
330
3D
102
}
330
3D
100
AcDbScale
 70
     0
300
3" = 1'-0"
140
3.0
141
12.0
290
     0
  0
SCALE
  5
5D
102
{ACAD_REACTORS
330
3D
102
}
330
3D
100
AcDbScale
 70
     0
300
6" = 1'-0"
140
6.0
141
12.0
290
     0
  0
SCALE
  5
5E
102
{ACAD_REACTORS
330
3D
102
}
330
3D
100
AcDbScale
 70
     0
300
1'-0" = 1'-0"
140
12.0
141
12.0
290
     0
  0
TABLESTYLE
  5
70
102
{ACAD_XDICTIONARY
360
793
102
}
102
{ACAD_REACTORS
330
6F
102
}
330
6F
100
AcDbTableStyle
  3
Standard
 70
     0
 71
     0
 40
0.06
 41
0.06
280
     0
281
     0
  7
Standard
140
0.18
170
     2
 62
     0
 63
     7
283
     0
274
    -2
284
     1
 64
     0
275
    -2
285
     1
 65
     0
276
    -2
286
     1
 66
     0
277
    -2
287
     1
 67
     0
278
    -2
288
     1
 68
     0
279
    -2
289
     1
 69
     0
  7
Standard
140
0.25
170
     5
 62
     0
 63
     7
283
     0
274
    -2
284
     1
 64
     0
275
    -2
285
     1
 65
     0
276
    -2
286
     1
 66
     0
277
    -2
287
     1
 67
     0
278
    -2
288
     1
 68
     0
279
    -2
289
     1
 69
     0
  7
Standard
140
0.18
170
     5
 62
     0
 63
     7
283
     0
274
    -2
284
     1
 64
     0
275
    -2
285
     1
 65
     0
276
    -2
286
     1
 66
     0
277
    -2
287
     1
 67
     0
278
    -2
288
     1
 68
     0
279
    -2
289
     1
 69
     0
  0
VISUALSTYLE
  5
2F
102
{ACAD_XDICTIONARY
360
7AA
102
}
102
{ACAD_REACTORS
330
29
102
}
330
29
100
AcDbVisualStyle
  2
2dWireframe
 70
     4
 71
     0
 72
     2
 73
     0
 90
        0
 40
-0.6
 41
-30.0
 62
     5
 63
     7
 74
     1
 91
        4
 64
     7
 65
   257
 75
     1
175
     1
 42
1.0
 92
        0
 66
   257
 43
1.0
 76
     1
 77
     6
 78
     2
 67
     7
 79
     5
170
     0
171
     0
290
     0
174
     0
 93
        1
 44
0.0
173
     0
291
     0
 45
0.0
1001
ACAD
1000
AcDbSavedByObjectVersion
1070
     0
  0
VISUALSTYLE
  5
31
102
{ACAD_XDICTIONARY
360
7AE
102
}
102
{ACAD_REACTORS
330
29
102
}
330
29
100
AcDbVisualStyle
  2
3D Hidden
 70
     6
 71
     1
 72
     2
 73
     2
 90
        0
 40
-0.6
 41
-30.0
 62
     5
 63
     7
 74
     2
 91
        2
 64
     7
 65
   257
 75
     2
175
     1
 42
179.0
 92
        0
 66
   257
 43
1.0
 76
     1
 77
     6
 78
     2
 67
     7
 79
     3
170
     0
171
     0
290
     0
174
     0
 93
        1
 44
0.0
173
     0
291
     0
 45
0.0
1001
ACAD
1000
AcDbSavedByObjectVersion
1070
     0
  0
VISUALSTYLE
  5
30
102
{ACAD_XDICTIONARY
360
7AC
102
}
102
{ACAD_REACTORS
330
29
102
}
330
29
100
AcDbVisualStyle
  2
3dWireframe
 70
     5
 71
     0
 72
     2
 73
     0
 90
        0
 40
-0.6
 41
-30.0
 62
     5
 63
     7
 74
     1
 91
        4
 64
     7
 65
   257
 75
     1
175
     1
 42
1.0
 92
        0
 66
   257
 43
1.0
 76
     1
 77
     6
 78
     2
 67
     7
 79
     5
170
     0
171
     0
290
     0
174
     0
 93
        1
 44
0.0
173
     0
291
     0
 45
0.0
1001
ACAD
1000
AcDbSavedByObjectVersion
1070
     0
  0
VISUALSTYLE
  5
2E
102
{ACAD_XDICTIONARY
360
7A8
102
}
102
{ACAD_REACTORS
330
29
102
}
330
29
100
AcDbVisualStyle
  2
Basic
 70
     7
 71
     1
 72
     0
 73
     1
 90
        0
 40
-0.6
 41
-30.0
 62
     5
 63
     7
 74
     0
 91
        4
 64
     7
 65
   257
 75
     1
175
     1
 42
1.0
 92
        8
 66
     7
 43
1.0
 76
     1
 77
     6
 78
     2
 67
     7
 79
     5
170
     0
171
     0
290
     0
174
     0
 93
        1
 44
0.0
173
     0
291
     1
 45
0.0
1001
ACAD
1000
AcDbSavedByObjectVersion
1070
     0
  0
VISUALSTYLE
  5
35
102
{ACAD_XDICTIONARY
360
7B6
102
}
102
{ACAD_REACTORS
330
29
102
}
330
29
100
AcDbVisualStyle
  2
Brighten
 70
    12
 71
     2
 72
     2
 73
     0
 90
        0
 40
-0.6
 41
-30.0
 62
     5
 63
     7
 74
     1
 91
        4
 64
     7
 65
   257
 75
     1
175
     1
 42
1.0
 92
        8
 66
     7
 43
1.0
 76
     1
 77
     6
 78
     2
 67
     7
 79
     5
170
     0
171
     0
290
     0
174
     0
 93
        1
 44
50.0
173
     0
291
     1
 45
0.0
1001
ACAD
1000
AcDbSavedByObjectVersion
1070
     0
  0
VISUALSTYLE
  5
39
102
{ACAD_XDICTIONARY
360
7BE
102
}
102
{ACAD_REACTORS
330
29
102
}
330
29
100
AcDbVisualStyle
  2
ColorChange
 70
    16
 71
     2
 72
     2
 73
     3
 90
        0
 40
-0.6
 41
-30.0
 62
     5
 63
     8
 74
     1
 91
        4
 64
     7
 65
   257
 75
     1
175
     1
 42
1.0
 92
        8
 66
     8
 43
1.0
 76
     1
 77
     6
 78
     2
 67
     7
 79
     5
170
     0
171
     0
290
     0
174
     0
 93
        1
 44
0.0
173
     0
291
     1
 45
0.0
1001
ACAD
1000
AcDbSavedByObjectVersion
1070
     0
  0
VISUALSTYLE
  5
32
102
{ACAD_XDICTIONARY
360
7B0
102
}
102
{ACAD_REACTORS
330
29
102
}
330
29
100
AcDbVisualStyle
  2
Conceptual
 70
     9
 71
     3
 72
     2
 73
     0
 90
        0
 40
-0.6
 41
-30.0
 62
     5
 63
     7
 74
     2
 91
        2
 64
     7
 65
   257
 75
     1
175
     1
 42
179.0
 92
        8
 66
     7
 43
1.0
 76
     1
 77
     6
 78
     2
 67
     7
 79
     3
170
     0
171
     0
290
     0
174
     0
 93
        1
 44
0.0
173
     0
291
     0
 45
0.0
1001
ACAD
1000
AcDbSavedByObjectVersion
1070
     0
  0
VISUALSTYLE
  5
34
102
{ACAD_XDICTIONARY
360
7B4
102
}
102
{ACAD_REACTORS
330
29
102
}
330
29
100
AcDbVisualStyle
  2
Dim
 70
    11
 71
     2
 72
     2
 73
     0
 90
        0
 40
-0.6
 41
-30.0
 62
     5
 63
     7
 74
     1
 91
        4
 64
     7
 65
   257
 75
     1
175
     1
 42
1.0
 92
        8
 66
     7
 43
1.0
 76
     1
 77
     6
 78
     2
 67
     7
 79
     5
170
     0
171
     0
290
     0
174
     0
 93
        1
 44
-50.0
173
     0
291
     1
 45
0.0
1001
ACAD
1000
AcDbSavedByObjectVersion
1070
     0
  0
VISUALSTYLE
  5
3C
102
{ACAD_XDICTIONARY
360
7C4
102
}
102
{ACAD_REACTORS
330
29
102
}
330
29
100
AcDbVisualStyle
  2
EdgeColorOff
 70
    22
 71
     2
 72
     2
 73
     0
 90
        0
 40
-0.6
 41
-30.0
 62
     5
 63
     7
 74
     1
 91
        4
 64
     7
 65
   257
 75
     1
175
     1
 42
1.0
 92
        8
 66
     7
 43
1.0
 76
     1
 77
     6
 78
     2
 67
     7
 79
     5
170
     0
171
     0
290
     0
174
     0
 93
        1
 44
0.0
173
     0
291
     1
 45
0.0
1001
ACAD
1000
AcDbSavedByObjectVersion
1070
     0
  0
VISUALSTYLE
  5
38
102
{ACAD_XDICTIONARY
360
7BC
102
}
102
{ACAD_REACTORS
330
29
102
}
330
29
100
AcDbVisualStyle
  2
Facepattern
 70
    15
 71
     2
 72
     2
 73
     0
 90
        0
 40
-0.6
 41
-30.0
 62
     5
 63
     7
 74
     1
 91
        4
 64
     7
 65
   257
 75
     1
175
     1
 42
1.0
 92
        8
 66
     7
 43
1.0
 76
     1
 77
     6
 78
     2
 67
     7
 79
     5
170
     0
171
     0
290
     0
174
     0
 93
        1
 44
0.0
173
     0
291
     1
 45
0.0
1001
ACAD
1000
AcDbSavedByObjectVersion
1070
     0
  0
VISUALSTYLE
  5
2A
102
{ACAD_XDICTIONARY
360
7A0
102
}
102
{ACAD_REACTORS
330
29
102
}
330
29
100
AcDbVisualStyle
  2
Flat
 70
     0
 71
     2
 72
     1
 73
     1
 90
        2
 40
-0.6
 41
30.0
 62
     5
 63
     7
 74
     0
 91
        4
 64
     7
 65
   257
 75
     1
175
     1
 42
1.0
 92
        8
 66
     7
 43
1.0
 76
     1
 77
     6
 78
     2
 67
     7
 79
     5
170
     0
171
     0
290
     0
174
     0
 93
       13
 44
0.0
173
     0
291
     1
 45
0.0
1001
ACAD
1000
AcDbSavedByObjectVersion
1070
     0
  0
VISUALSTYLE
  5
2B
102
{ACAD_XDICTIONARY
360
7A2
102
}
102
{ACAD_REACTORS
330
29
102
}
330
29
100
AcDbVisualStyle
  2
FlatWithEdges
 70
     1
 71
     2
 72
     1
 73
     1
 90
        2
 40
-0.6
 41
30.0
 62
     5
 63
     7
 74
     1
 91
        4
 64
     7
 65
   257
 75
     1
175
     1
 42
1.0
 92
        0
 66
   257
 43
1.0
 76
     1
 77
     6
 78
     2
 67
     7
 79
     5
170
     0
171
     0
290
     0
174
     0
 93
       13
 44
0.0
173
     0
291
     1
 45
0.0
1001
ACAD
1000
AcDbSavedByObjectVersion
1070
     0
  0
VISUALSTYLE
  5
2C
102
{ACAD_XDICTIONARY
360
7A4
102
}
102
{ACAD_REACTORS
330
29
102
}
330
29
100
AcDbVisualStyle
  2
Gouraud
 70
     2
 71
     2
 72
     2
 73
     1
 90
        2
 40
-0.6
 41
30.0
 62
     5
 63
     7
 74
     0
 91
        4
 64
     7
 65
   257
 75
     1
175
     1
 42
1.0
 92
        0
 66
     7
 43
1.0
 76
     1
 77
     6
 78
     2
 67
     7
 79
     5
170
     0
171
     0
290
     0
174
     0
 93
       13
 44
0.0
173
     0
291
     1
 45
0.0
1001
ACAD
1000
AcDbSavedByObjectVersion
1070
     0
  0
VISUALSTYLE
  5
2D
102
{ACAD_XDICTIONARY
360
7A6
102
}
102
{ACAD_REACTORS
330
29
102
}
330
29
100
AcDbVisualStyle
  2
GouraudWithEdges
 70
     3
 71
     2
 72
     2
 73
     1
 90
        2
 40
-0.6
 41
30.0
 62
     5
 63
     7
 74
     1
 91
        4
 64
     7
 65
   257
 75
     1
175
     1
 42
1.0
 92
        0
 66
   257
 43
1.0
 76
     1
 77
     6
 78
     2
 67
     7
 79
     5
170
     0
171
     0
290
     0
174
     0
 93
       13
 44
0.0
173
     0
291
     1
 45
0.0
1001
ACAD
1000
AcDbSavedByObjectVersion
1070
     0
  0
VISUALSTYLE
  5
3A
102
{ACAD_XDICTIONARY
360
7C0
102
}
102
{ACAD_REACTORS
330
29
102
}
330
29
100
AcDbVisualStyle
  2
JitterOff
 70
    20
 71
     2
 72
     2
 73
     0
 90
        0
 40
-0.6
 41
-30.0
 62
     5
 63
     7
 74
     1
 91
        4
 64
     7
 65
   257
 75
     1
175
     1
 42
1.0
 92
       10
 66
     7
 43
1.0
 76
     1
 77
     6
 78
     2
 67
     7
 79
     5
170
     0
171
     0
290
     0
174
     0
 93
        1
 44
0.0
173
     0
291
     1
 45
0.0
1001
ACAD
1000
AcDbSavedByObjectVersion
1070
     0
  0
VISUALSTYLE
  5
37
102
{ACAD_XDICTIONARY
360
7BA
102
}
102
{ACAD_REACTORS
330
29
102
}
330
29
100
AcDbVisualStyle
  2
Linepattern
 70
    14
 71
     2
 72
     2
 73
     0
 90
        0
 40
-0.6
 41
-30.0
 62
     5
 63
     7
 74
     1
 91
        4
 64
     7
 65
   257
 75
     7
175
     7
 42
1.0
 92
        8
 66
     7
 43
1.0
 76
     1
 77
     6
 78
     2
 67
     7
 79
     5
170
     0
171
     0
290
     0
174
     0
 93
        1
 44
0.0
173
     0
291
     1
 45
0.0
1001
ACAD
1000
AcDbSavedByObjectVersion
1070
     0
  0
VISUALSTYLE
  5
3B
102
{ACAD_XDICTIONARY
360
7C2
102
}
102
{ACAD_REACTORS
330
29
102
}
330
29
100
AcDbVisualStyle
  2
OverhangOff
 70
    21
 71
     2
 72
     2
 73
     0
 90
        0
 40
-0.6
 41
-30.0
 62
     5
 63
     7
 74
     1
 91
        4
 64
     7
 65
   257
 75
     1
175
     1
 42
1.0
 92
        9
 66
     7
 43
1.0
 76
     1
 77
     6
 78
     2
 67
     7
 79
     5
170
     0
171
     0
290
     0
174
     0
 93
        1
 44
0.0
173
     0
291
     1
 45
0.0
1001
ACAD
1000
AcDbSavedByObjectVersion
1070
     0
  0
VISUALSTYLE
  5
33
102
{ACAD_XDICTIONARY
360
7B2
102
}
102
{ACAD_REACTORS
330
29
102
}
330
29
100
AcDbVisualStyle
  2
Realistic
 70
     8
 71
     2
 72
     2
 73
     0
 90
        0
 40
-0.6
 41
-30.0
 62
     5
 63
     7
 74
     1
 91
        0
 64
     7
 65
   257
 75
     1
175
     1
 42
1.0
 92
        8
 66
     8
 43
1.0
 76
     1
 77
     6
 78
     2
 67
     7
 79
     5
170
     0
171
     0
290
     0
174
     0
 93
       13
 44
0.0
173
     0
291
     0
 45
0.0
1001
ACAD
1000
AcDbSavedByObjectVersion
1070
     0
  0
VISUALSTYLE
  5
36
102
{ACAD_XDICTIONARY
360
7B8
102
}
102
{ACAD_REACTORS
330
29
102
}
330
29
100
AcDbVisualStyle
  2
Thicken
 70
    13
 71
     2
 72
     2
 73
     0
 90
        0
 40
-0.6
 41
-30.0
 62
     5
 63
     7
 74
     1
 91
        4
 64
     7
 65
   257
 75
     1
175
     1
 42
1.0
 92
       12
 66
     7
 43
1.0
 76
     1
 77
     6
 78
     2
 67
     7
 79
     5
170
     0
171
     0
290
     0
174
     0
 93
        1
 44
0.0
173
     0
291
     1
 45
0.0
1001
ACAD
1000
AcDbSavedByObjectVersion
1070
     0
  0
DICTIONARYVAR
  5
82
102
{ACAD_REACTORS
330
7F
102
}
330
7F
100
DictionaryVariables
280
     0
  1
1:1
  0
DICTIONARYVAR
  5
81
102
{ACAD_REACTORS
330
7F
102
}
330
7F
100
DictionaryVariables
280
     0
  1
STANDARD
  0
DICTIONARYVAR
  5
80
102
{ACAD_REACTORS
330
7F
102
}
330
7F
100
DictionaryVariables
280
     0
  1
STANDARD
  0
DICTIONARYVAR
  5
791
102
{ACAD_REACTORS
330
7F
102
}
330
7F
100
DictionaryVariables
280
     0
  1
1
  0
DICTIONARYVAR
  5
790
102
{ACAD_REACTORS
330
7F
102
}
330
7F
100
DictionaryVariables
280
     0
  1
1
  0
DICTIONARYVAR
  5
78F
102
{ACAD_REACTORS
330
7F
102
}
330
7F
100
DictionaryVariables
280
     0
  1
0
  0
DICTIONARYVAR
  5
78C
102
{ACAD_REACTORS
330
7F
102
}
330
7F
100
DictionaryVariables
280
     0
  1
0
  0
DICTIONARYVAR
  5
78D
102
{ACAD_REACTORS
330
7F
102
}
330
7F
100
DictionaryVariables
280
     0
  1
0
  0
DICTIONARYVAR
  5
78B
102
{ACAD_REACTORS
330
7F
102
}
330
7F
100
DictionaryVariables
280
     0
  1
2
  0
DICTIONARYVAR
  5
78A
102
{ACAD_REACTORS
330
7F
102
}
330
7F
100
DictionaryVariables
280
     0
  1
1
  0
DICTIONARYVAR
  5
78E
102
{ACAD_REACTORS
330
7F
102
}
330
7F
100
DictionaryVariables
280
     0
  1
127
  0
DICTIONARYVAR
  5
792
102
{ACAD_REACTORS
330
7F
102
}
330
7F
100
DictionaryVariables
280
     0
  1
2
  0
DICTIONARY
  5
7C8
330
76
100
AcDbDictionary
280
     1
281
     1
  3
ACAD_XREC_ROUNDTRIP
360
7C9
  0
DICTIONARY
  5
7CC
330
7E
100
AcDbDictionary
280
     1
281
     1
  3
ACAD_XREC_ROUNDTRIP
360
7CD
  0
DICTIONARY
  5
7CA
330
7A
100
AcDbDictionary
280
     1
281
     1
  3
ACAD_XREC_ROUNDTRIP
360
7CB
  0
DICTIONARY
  5
1A
330
19
100
AcDbDictionary
280
     1
281
     1
  3
ACAD_XREC_ROUNDTRIP
360
79E
  3
BUMPTILE
360
1C
  3
DIFFUSETILE
360
1B
  3
OPACITYTILE
360
1F
  3
REFLECTIONTILE
360
1E
  3
REFRACTIONTILE
360
20
  3
SPECULARTILE
360
1D
  0
DICTIONARY
  5
12
330
11
100
AcDbDictionary
280
     1
281
     1
  3
ACAD_XREC_ROUNDTRIP
360
79D
  3
BUMPTILE
360
14
  3
DIFFUSETILE
360
13
  3
OPACITYTILE
360
17
  3
REFLECTIONTILE
360
16
  3
REFRACTIONTILE
360
18
  3
SPECULARTILE
360
15
  0
DICTIONARY
  5
22
330
21
100
AcDbDictionary
280
     1
281
     1
  3
ACAD_XREC_ROUNDTRIP
360
79F
  3
BUMPTILE
360
24
  3
DIFFUSETILE
360
23
  3
OPACITYTILE
360
27
  3
REFLECTIONTILE
360
26
  3
REFRACTIONTILE
360
28
  3
SPECULARTILE
360
25
  0
DICTIONARY
  5
793
330
70
100
AcDbDictionary
280
     1
281
     1
  3
ACAD_ROUNDTRIP_2008_TABLESTYLE_CELLSTYLEMAP
360
794
  3
ACAD_XREC_ROUNDTRIP
360
7C6
  0
DICTIONARY
  5
7AA
330
2F
100
AcDbDictionary
280
     1
281
     1
  3
ACAD_XREC_ROUNDTRIP
360
7AB
  0
DICTIONARY
  5
7AE
330
31
100
AcDbDictionary
280
     1
281
     1
  3
ACAD_XREC_ROUNDTRIP
360
7AF
  0
DICTIONARY
  5
7AC
330
30
100
AcDbDictionary
280
     1
281
     1
  3
ACAD_XREC_ROUNDTRIP
360
7AD
  0
DICTIONARY
  5
7A8
330
2E
100
AcDbDictionary
280
     1
281
     1
  3
ACAD_XREC_ROUNDTRIP
360
7A9
  0
DICTIONARY
  5
7B6
330
35
100
AcDbDictionary
280
     1
281
     1
  3
ACAD_XREC_ROUNDTRIP
360
7B7
  0
DICTIONARY
  5
7BE
330
39
100
AcDbDictionary
280
     1
281
     1
  3
ACAD_XREC_ROUNDTRIP
360
7BF
  0
DICTIONARY
  5
7B0
330
32
100
AcDbDictionary
280
     1
281
     1
  3
ACAD_XREC_ROUNDTRIP
360
7B1
  0
DICTIONARY
  5
7B4
330
34
100
AcDbDictionary
280
     1
281
     1
  3
ACAD_XREC_ROUNDTRIP
360
7B5
  0
DICTIONARY
  5
7C4
330
3C
100
AcDbDictionary
280
     1
281
     1
  3
ACAD_XREC_ROUNDTRIP
360
7C5
  0
DICTIONARY
  5
7BC
330
38
100
AcDbDictionary
280
     1
281
     1
  3
ACAD_XREC_ROUNDTRIP
360
7BD
  0
DICTIONARY
  5
7A0
330
2A
100
AcDbDictionary
280
     1
281
     1
  3
ACAD_XREC_ROUNDTRIP
360
7A1
  0
DICTIONARY
  5
7A2
330
2B
100
AcDbDictionary
280
     1
281
     1
  3
ACAD_XREC_ROUNDTRIP
360
7A3
  0
DICTIONARY
  5
7A4
330
2C
100
AcDbDictionary
280
     1
281
     1
  3
ACAD_XREC_ROUNDTRIP
360
7A5
  0
DICTIONARY
  5
7A6
330
2D
100
AcDbDictionary
280
     1
281
     1
  3
ACAD_XREC_ROUNDTRIP
360
7A7
  0
DICTIONARY
  5
7C0
330
3A
100
AcDbDictionary
280
     1
281
     1
  3
ACAD_XREC_ROUNDTRIP
360
7C1
  0
DICTIONARY
  5
7BA
330
37
100
AcDbDictionary
280
     1
281
     1
  3
ACAD_XREC_ROUNDTRIP
360
7BB
  0
DICTIONARY
  5
7C2
330
3B
100
AcDbDictionary
280
     1
281
     1
  3
ACAD_XREC_ROUNDTRIP
360
7C3
  0
DICTIONARY
  5
7B2
330
33
100
AcDbDictionary
280
     1
281
     1
  3
ACAD_XREC_ROUNDTRIP
360
7B3
  0
DICTIONARY
  5
7B8
330
36
100
AcDbDictionary
280
     1
281
     1
  3
ACAD_XREC_ROUNDTRIP
360
7B9
  0
XRECORD
  5
7C9
102
{ACAD_REACTORS
330
7C8
102
}
330
7C8
100
AcDbXrecord
280
     1
102
SHADEPLOT
 70
     0
102
SHADEPLOTRESLEVEL
 70
     2
102
SHADEPLOTCUSTOMDPI
 70
   300
  0
XRECORD
  5
7CD
102
{ACAD_REACTORS
330
7CC
102
}
330
7CC
100
AcDbXrecord
280
     1
102
SHADEPLOT
 70
     0
102
SHADEPLOTRESLEVEL
 70
     2
102
SHADEPLOTCUSTOMDPI
 70
   300
  0
XRECORD
  5
7CB
102
{ACAD_REACTORS
330
7CA
102
}
330
7CA
100
AcDbXrecord
280
     1
102
SHADEPLOT
 70
     0
102
SHADEPLOTRESLEVEL
 70
     2
102
SHADEPLOTCUSTOMDPI
 70
   300
  0
XRECORD
  5
79E
102
{ACAD_REACTORS
330
1A
102
}
330
1A
100
AcDbXrecord
280
     1
102
MATERIAL
148
0.0
149
0.0
149
0.0
 93
        0
 94
      127
282
     0
 72
     0
 77
     0
171
     0
175
     0
179
     0
273
     0
  0
XRECORD
  5
1C
102
{ACAD_REACTORS
330
1A
102
}
330
1A
100
AcDbXrecord
280
     1
270
     1
271
     1
  0
XRECORD
  5
1B
102
{ACAD_REACTORS
330
1A
102
}
330
1A
100
AcDbXrecord
280
     1
270
     1
271
     1
  0
XRECORD
  5
1F
102
{ACAD_REACTORS
330
1A
102
}
330
1A
100
AcDbXrecord
280
     1
270
     1
271
     1
  0
XRECORD
  5
1E
102
{ACAD_REACTORS
330
1A
102
}
330
1A
100
AcDbXrecord
280
     1
270
     1
271
     1
  0
XRECORD
  5
20
102
{ACAD_REACTORS
330
1A
102
}
330
1A
100
AcDbXrecord
280
     1
270
     1
271
     1
  0
XRECORD
  5
1D
102
{ACAD_REACTORS
330
1A
102
}
330
1A
100
AcDbXrecord
280
     1
270
     1
271
     1
  0
XRECORD
  5
79D
102
{ACAD_REACTORS
330
12
102
}
330
12
100
AcDbXrecord
280
     1
102
MATERIAL
148
0.0
149
0.0
149
0.0
 93
        0
 94
      127
282
     0
 72
     0
 77
     0
171
     0
175
     0
179
     0
273
     0
  0
XRECORD
  5
14
102
{ACAD_REACTORS
330
12
102
}
330
12
100
AcDbXrecord
280
     1
270
     1
271
     1
  0
XRECORD
  5
13
102
{ACAD_REACTORS
330
12
102
}
330
12
100
AcDbXrecord
280
     1
270
     1
271
     1
  0
XRECORD
  5
17
102
{ACAD_REACTORS
330
12
102
}
330
12
100
AcDbXrecord
280
     1
270
     1
271
     1
  0
XRECORD
  5
16
102
{ACAD_REACTORS
330
12
102
}
330
12
100
AcDbXrecord
280
     1
270
     1
271
     1
  0
XRECORD
  5
18
102
{ACAD_REACTORS
330
12
102
}
330
12
100
AcDbXrecord
280
     1
270
     1
271
     1
  0
XRECORD
  5
15
102
{ACAD_REACTORS
330
12
102
}
330
12
100
AcDbXrecord
280
     1
270
     1
271
     1
  0
XRECORD
  5
79F
102
{ACAD_REACTORS
330
22
102
}
330
22
100
AcDbXrecord
280
     1
102
MATERIAL
148
0.0
149
0.0
149
0.0
 93
        0
 94
      127
282
     0
 72
     0
 77
     0
171
     0
175
     0
179
     0
273
     0
  0
XRECORD
  5
24
102
{ACAD_REACTORS
330
22
102
}
330
22
100
AcDbXrecord
280
     1
270
     1
271
     1
  0
XRECORD
  5
23
102
{ACAD_REACTORS
330
22
102
}
330
22
100
AcDbXrecord
280
     1
270
     1
271
     1
  0
XRECORD
  5
27
102
{ACAD_REACTORS
330
22
102
}
330
22
100
AcDbXrecord
280
     1
270
     1
271
     1
  0
XRECORD
  5
26
102
{ACAD_REACTORS
330
22
102
}
330
22
100
AcDbXrecord
280
     1
270
     1
271
     1
  0
XRECORD
  5
28
102
{ACAD_REACTORS
330
22
102
}
330
22
100
AcDbXrecord
280
     1
270
     1
271
     1
  0
XRECORD
  5
25
102
{ACAD_REACTORS
330
22
102
}
330
22
100
AcDbXrecord
280
     1
270
     1
271
     1
  0
CELLSTYLEMAP
  5
794
102
{ACAD_REACTORS
330
793
102
}
330
793
100
AcDbCellStyleMap
 90
        3
300
CELLSTYLE
  1
TABLEFORMAT_BEGIN
 90
        5
170
     1
 91
        0
 92
    32768
 62
   257
 93
        1
300
CONTENTFORMAT
  1
CONTENTFORMAT_BEGIN
 90
        0
 91
        0
 92
      512
 93
        0
300

 40
0.0
140
1.0
 94
        5
 62
     0
340
60
144
0.25
309
CONTENTFORMAT_END
171
     0
 94
        0
309
TABLEFORMAT_END
  1
CELLSTYLE_BEGIN
 90
        1
 91
        1
300
_TITLE
309
CELLSTYLE_END
300
CELLSTYLE
  1
TABLEFORMAT_BEGIN
 90
        5
170
     1
 91
        0
 92
        0
 62
   257
 93
        1
300
CONTENTFORMAT
  1
CONTENTFORMAT_BEGIN
 90
        0
 91
        0
 92
      512
 93
        0
300

 40
0.0
140
1.0
 94
        5
 62
     0
340
60
144
0.18
309
CONTENTFORMAT_END
171
     0
 94
        0
309
TABLEFORMAT_END
  1
CELLSTYLE_BEGIN
 90
        2
 91
        1
300
_HEADER
309
CELLSTYLE_END
300
CELLSTYLE
  1
TABLEFORMAT_BEGIN
 90
        5
170
     1
 91
        0
 92
        0
 62
   257
 93
        1
300
CONTENTFORMAT
  1
CONTENTFORMAT_BEGIN
 90
        0
 91
        0
 92
      512
 93
        0
300

 40
0.0
140
1.0
 94
        2
 62
     0
340
60
144
0.18
309
CONTENTFORMAT_END
171
     0
 94
        0
309
TABLEFORMAT_END
  1
CELLSTYLE_BEGIN
 90
        3
 91
        2
300
_DATA
309
CELLSTYLE_END
  0
XRECORD
  5
7C6
102
{ACAD_REACTORS
330
793
102
}
330
793
100
AcDbXrecord
280
     1
102
ACAD_ROUNDTRIP_PRE2007_TABLESTYLE
 90
      512
 91
        0
  1

 92
      512
 93
        0
  2

 94
      512
 95
        0
  3

  0
XRECORD
  5
7AB
102
{ACAD_REACTORS
330
7AA
102
}
330
7AA
100
AcDbXrecord
280
     1
102
RTVSPropertyOp0
 70
     1
102
RTVSPropertyOp1
 70
     1
102
RTVSPropertyOp2
 70
     1
102
RTVSPropertyOp3
 70
     1
102
RTVSPropertyOp4
 70
     1
102
RTVSPropertyOp5
 70
     1
102
RTVSPropertyOp6
 70
     1
102
RTVSPropertyOp7
 70
     1
102
RTVSPropertyOp8
 70
     1
102
RTVSPropertyOp9
 70
     1
102
RTVSPropertyOp10
 70
     1
102
RTVSPropertyOp11
 70
     1
102
RTVSPropertyOp12
 70
     1
102
RTVSPropertyOp13
 70
     1
102
RTVSPropertyOp14
 70
     1
102
RTVSPropertyOp15
 70
     1
102
RTVSPropertyOp16
 70
     1
102
RTVSPropertyOp17
 70
     1
102
RTVSPropertyOp18
 70
     1
102
RTVSPropertyOp19
 70
     1
102
RTVSPropertyOp20
 70
     1
102
RTVSPropertyOp21
 70
     1
102
RTVSPropertyOp22
 70
     1
102
RTVSPropertyOp23
 70
     1
102
RTVSPropertyOp24
 70
     1
102
RTVSPropertyOp25
 70
     1
102
RTVSPropertyOp26
 70
     1
102
RTVSPropertyOp27
 70
     1
  0
XRECORD
  5
7AF
102
{ACAD_REACTORS
330
7AE
102
}
330
7AE
100
AcDbXrecord
280
     1
102
RTVSPropertyOp0
 70
     1
102
RTVSPropertyOp1
 70
     1
102
RTVSPropertyOp2
 70
     1
102
RTVSPropertyOp3
 70
     1
102
RTVSPropertyOp4
 70
     1
102
RTVSPropertyOp5
 70
     1
102
RTVSPropertyOp6
 70
     1
102
RTVSPropertyOp7
 70
     1
102
RTVSPropertyOp8
 70
     1
102
RTVSPropertyOp9
 70
     1
102
RTVSPropertyOp10
 70
     1
102
RTVSPropertyOp11
 70
     1
102
RTVSPropertyOp12
 70
     1
102
RTVSPropertyOp13
 70
     1
102
RTVSPropertyOp14
 70
     1
102
RTVSPropertyOp15
 70
     1
102
RTVSPropertyOp16
 70
     1
102
RTVSPropertyOp17
 70
     1
102
RTVSPropertyOp18
 70
     1
102
RTVSPropertyOp19
 70
     1
102
RTVSPropertyOp20
 70
     1
102
RTVSPropertyOp21
 70
     1
102
RTVSPropertyOp22
 70
     1
102
RTVSPropertyOp23
 70
     1
102
RTVSPropertyOp24
 70
     1
102
RTVSPropertyOp25
 70
     1
102
RTVSPropertyOp26
 70
     1
102
RTVSPropertyOp27
 70
     1
  0
XRECORD
  5
7AD
102
{ACAD_REACTORS
330
7AC
102
}
330
7AC
100
AcDbXrecord
280
     1
102
RTVSPropertyOp0
 70
     1
102
RTVSPropertyOp1
 70
     1
102
RTVSPropertyOp2
 70
     1
102
RTVSPropertyOp3
 70
     1
102
RTVSPropertyOp4
 70
     1
102
RTVSPropertyOp5
 70
     1
102
RTVSPropertyOp6
 70
     1
102
RTVSPropertyOp7
 70
     1
102
RTVSPropertyOp8
 70
     1
102
RTVSPropertyOp9
 70
     1
102
RTVSPropertyOp10
 70
     1
102
RTVSPropertyOp11
 70
     1
102
RTVSPropertyOp12
 70
     1
102
RTVSPropertyOp13
 70
     1
102
RTVSPropertyOp14
 70
     1
102
RTVSPropertyOp15
 70
     1
102
RTVSPropertyOp16
 70
     1
102
RTVSPropertyOp17
 70
     1
102
RTVSPropertyOp18
 70
     1
102
RTVSPropertyOp19
 70
     1
102
RTVSPropertyOp20
 70
     1
102
RTVSPropertyOp21
 70
     1
102
RTVSPropertyOp22
 70
     1
102
RTVSPropertyOp23
 70
     1
102
RTVSPropertyOp24
 70
     1
102
RTVSPropertyOp25
 70
     1
102
RTVSPropertyOp26
 70
     1
102
RTVSPropertyOp27
 70
     1
  0
XRECORD
  5
7A9
102
{ACAD_REACTORS
330
7A8
102
}
330
7A8
100
AcDbXrecord
280
     1
102
RTVSPropertyOp0
 70
     1
102
RTVSPropertyOp1
 70
     1
102
RTVSPropertyOp2
 70
     1
102
RTVSPropertyOp3
 70
     1
102
RTVSPropertyOp4
 70
     1
102
RTVSPropertyOp5
 70
     1
102
RTVSPropertyOp6
 70
     1
102
RTVSPropertyOp7
 70
     1
102
RTVSPropertyOp8
 70
     1
102
RTVSPropertyOp9
 70
     1
102
RTVSPropertyOp10
 70
     1
102
RTVSPropertyOp11
 70
     1
102
RTVSPropertyOp12
 70
     1
102
RTVSPropertyOp13
 70
     1
102
RTVSPropertyOp14
 70
     1
102
RTVSPropertyOp15
 70
     1
102
RTVSPropertyOp16
 70
     1
102
RTVSPropertyOp17
 70
     1
102
RTVSPropertyOp18
 70
     1
102
RTVSPropertyOp19
 70
     1
102
RTVSPropertyOp20
 70
     1
102
RTVSPropertyOp21
 70
     1
102
RTVSPropertyOp22
 70
     1
102
RTVSPropertyOp23
 70
     1
102
RTVSPropertyOp24
 70
     1
102
RTVSPropertyOp25
 70
     1
102
RTVSPropertyOp26
 70
     1
102
RTVSPropertyOp27
 70
     1
  0
XRECORD
  5
7B7
102
{ACAD_REACTORS
330
7B6
102
}
330
7B6
100
AcDbXrecord
280
     1
102
RTVSPropertyOp0
 70
     1
102
RTVSPropertyOp1
 70
     1
102
RTVSPropertyOp2
 70
     1
102
RTVSPropertyOp3
 70
     1
102
RTVSPropertyOp4
 70
     1
102
RTVSPropertyOp5
 70
     1
102
RTVSPropertyOp6
 70
     1
102
RTVSPropertyOp7
 70
     1
102
RTVSPropertyOp8
 70
     1
102
RTVSPropertyOp9
 70
     1
102
RTVSPropertyOp10
 70
     1
102
RTVSPropertyOp11
 70
     1
102
RTVSPropertyOp12
 70
     1
102
RTVSPropertyOp13
 70
     1
102
RTVSPropertyOp14
 70
     1
102
RTVSPropertyOp15
 70
     1
102
RTVSPropertyOp16
 70
     1
102
RTVSPropertyOp17
 70
     1
102
RTVSPropertyOp18
 70
     1
102
RTVSPropertyOp19
 70
     1
102
RTVSPropertyOp20
 70
     1
102
RTVSPropertyOp21
 70
     1
102
RTVSPropertyOp22
 70
     1
102
RTVSPropertyOp23
 70
     1
102
RTVSPropertyOp24
 70
     1
102
RTVSPropertyOp25
 70
     1
102
RTVSPropertyOp26
 70
     1
102
RTVSPropertyOp27
 70
     1
  0
XRECORD
  5
7BF
102
{ACAD_REACTORS
330
7BE
102
}
330
7BE
100
AcDbXrecord
280
     1
102
RTVSPropertyOp0
 70
     1
102
RTVSPropertyOp1
 70
     1
102
RTVSPropertyOp2
 70
     1
102
RTVSPropertyOp3
 70
     1
102
RTVSPropertyOp4
 70
     1
102
RTVSPropertyOp5
 70
     1
102
RTVSPropertyOp6
 70
     1
102
RTVSPropertyOp7
 70
     1
102
RTVSPropertyOp8
 70
     1
102
RTVSPropertyOp9
 70
     1
102
RTVSPropertyOp10
 70
     1
102
RTVSPropertyOp11
 70
     1
102
RTVSPropertyOp12
 70
     1
102
RTVSPropertyOp13
 70
     1
102
RTVSPropertyOp14
 70
     1
102
RTVSPropertyOp15
 70
     1
102
RTVSPropertyOp16
 70
     1
102
RTVSPropertyOp17
 70
     1
102
RTVSPropertyOp18
 70
     1
102
RTVSPropertyOp19
 70
     1
102
RTVSPropertyOp20
 70
     1
102
RTVSPropertyOp21
 70
     1
102
RTVSPropertyOp22
 70
     1
102
RTVSPropertyOp23
 70
     1
102
RTVSPropertyOp24
 70
     1
102
RTVSPropertyOp25
 70
     1
102
RTVSPropertyOp26
 70
     1
102
RTVSPropertyOp27
 70
     1
  0
XRECORD
  5
7B1
102
{ACAD_REACTORS
330
7B0
102
}
330
7B0
100
AcDbXrecord
280
     1
102
RTVSPropertyOp0
 70
     1
102
RTVSPropertyOp1
 70
     1
102
RTVSPropertyOp2
 70
     1
102
RTVSPropertyOp3
 70
     1
102
RTVSPropertyOp4
 70
     1
102
RTVSPropertyOp5
 70
     1
102
RTVSPropertyOp6
 70
     1
102
RTVSPropertyOp7
 70
     1
102
RTVSPropertyOp8
 70
     1
102
RTVSPropertyOp9
 70
     1
102
RTVSPropertyOp10
 70
     1
102
RTVSPropertyOp11
 70
     1
102
RTVSPropertyOp12
 70
     1
102
RTVSPropertyOp13
 70
     1
102
RTVSPropertyOp14
 70
     1
102
RTVSPropertyOp15
 70
     1
102
RTVSPropertyOp16
 70
     1
102
RTVSPropertyOp17
 70
     1
102
RTVSPropertyOp18
 70
     1
102
RTVSPropertyOp19
 70
     1
102
RTVSPropertyOp20
 70
     1
102
RTVSPropertyOp21
 70
     1
102
RTVSPropertyOp22
 70
     1
102
RTVSPropertyOp23
 70
     1
102
RTVSPropertyOp24
 70
     1
102
RTVSPropertyOp25
 70
     1
102
RTVSPropertyOp26
 70
     1
102
RTVSPropertyOp27
 70
     1
  0
XRECORD
  5
7B5
102
{ACAD_REACTORS
330
7B4
102
}
330
7B4
100
AcDbXrecord
280
     1
102
RTVSPropertyOp0
 70
     1
102
RTVSPropertyOp1
 70
     1
102
RTVSPropertyOp2
 70
     1
102
RTVSPropertyOp3
 70
     1
102
RTVSPropertyOp4
 70
     1
102
RTVSPropertyOp5
 70
     1
102
RTVSPropertyOp6
 70
     1
102
RTVSPropertyOp7
 70
     1
102
RTVSPropertyOp8
 70
     1
102
RTVSPropertyOp9
 70
     1
102
RTVSPropertyOp10
 70
     1
102
RTVSPropertyOp11
 70
     1
102
RTVSPropertyOp12
 70
     1
102
RTVSPropertyOp13
 70
     1
102
RTVSPropertyOp14
 70
     1
102
RTVSPropertyOp15
 70
     1
102
RTVSPropertyOp16
 70
     1
102
RTVSPropertyOp17
 70
     1
102
RTVSPropertyOp18
 70
     1
102
RTVSPropertyOp19
 70
     1
102
RTVSPropertyOp20
 70
     1
102
RTVSPropertyOp21
 70
     1
102
RTVSPropertyOp22
 70
     1
102
RTVSPropertyOp23
 70
     1
102
RTVSPropertyOp24
 70
     1
102
RTVSPropertyOp25
 70
     1
102
RTVSPropertyOp26
 70
     1
102
RTVSPropertyOp27
 70
     1
  0
XRECORD
  5
7C5
102
{ACAD_REACTORS
330
7C4
102
}
330
7C4
100
AcDbXrecord
280
     1
102
RTVSPropertyOp0
 70
     0
102
RTVSPropertyOp1
 70
     0
102
RTVSPropertyOp2
 70
     0
102
RTVSPropertyOp3
 70
     0
102
RTVSPropertyOp4
 70
     0
102
RTVSPropertyOp5
 70
     0
102
RTVSPropertyOp6
 70
     0
102
RTVSPropertyOp7
 70
     0
102
RTVSPropertyOp8
 70
     0
102
RTVSPropertyOp9
 70
     0
102
RTVSPropertyOp10
 70
     0
102
RTVSPropertyOp11
 70
     0
102
RTVSPropertyOp12
 70
     0
102
RTVSPropertyOp13
 70
     0
102
RTVSPropertyOp14
 70
     2
102
RTVSPropertyOp15
 70
     0
102
RTVSPropertyOp16
 70
     0
102
RTVSPropertyOp17
 70
     0
102
RTVSPropertyOp18
 70
     0
102
RTVSPropertyOp19
 70
     0
102
RTVSPropertyOp20
 70
     0
102
RTVSPropertyOp21
 70
     0
102
RTVSPropertyOp22
 70
     0
102
RTVSPropertyOp23
 70
     0
102
RTVSPropertyOp24
 70
     0
102
RTVSPropertyOp25
 70
     0
102
RTVSPropertyOp26
 70
     0
102
RTVSPropertyOp27
 70
     0
  0
XRECORD
  5
7BD
102
{ACAD_REACTORS
330
7BC
102
}
330
7BC
100
AcDbXrecord
280
     1
102
RTVSPropertyOp0
 70
     1
102
RTVSPropertyOp1
 70
     1
102
RTVSPropertyOp2
 70
     1
102
RTVSPropertyOp3
 70
     1
102
RTVSPropertyOp4
 70
     1
102
RTVSPropertyOp5
 70
     1
102
RTVSPropertyOp6
 70
     1
102
RTVSPropertyOp7
 70
     1
102
RTVSPropertyOp8
 70
     1
102
RTVSPropertyOp9
 70
     1
102
RTVSPropertyOp10
 70
     1
102
RTVSPropertyOp11
 70
     1
102
RTVSPropertyOp12
 70
     1
102
RTVSPropertyOp13
 70
     1
102
RTVSPropertyOp14
 70
     1
102
RTVSPropertyOp15
 70
     1
102
RTVSPropertyOp16
 70
     1
102
RTVSPropertyOp17
 70
     1
102
RTVSPropertyOp18
 70
     1
102
RTVSPropertyOp19
 70
     1
102
RTVSPropertyOp20
 70
     1
102
RTVSPropertyOp21
 70
     1
102
RTVSPropertyOp22
 70
     1
102
RTVSPropertyOp23
 70
     1
102
RTVSPropertyOp24
 70
     1
102
RTVSPropertyOp25
 70
     1
102
RTVSPropertyOp26
 70
     1
102
RTVSPropertyOp27
 70
     1
  0
XRECORD
  5
7A1
102
{ACAD_REACTORS
330
7A0
102
}
330
7A0
100
AcDbXrecord
280
     1
102
RTVSPropertyOp0
 70
     1
102
RTVSPropertyOp1
 70
     1
102
RTVSPropertyOp2
 70
     1
102
RTVSPropertyOp3
 70
     1
102
RTVSPropertyOp4
 70
     1
102
RTVSPropertyOp5
 70
     1
102
RTVSPropertyOp6
 70
     1
102
RTVSPropertyOp7
 70
     1
102
RTVSPropertyOp8
 70
     1
102
RTVSPropertyOp9
 70
     1
102
RTVSPropertyOp10
 70
     1
102
RTVSPropertyOp11
 70
     1
102
RTVSPropertyOp12
 70
     1
102
RTVSPropertyOp13
 70
     1
102
RTVSPropertyOp14
 70
     1
102
RTVSPropertyOp15
 70
     1
102
RTVSPropertyOp16
 70
     1
102
RTVSPropertyOp17
 70
     1
102
RTVSPropertyOp18
 70
     1
102
RTVSPropertyOp19
 70
     1
102
RTVSPropertyOp20
 70
     1
102
RTVSPropertyOp21
 70
     1
102
RTVSPropertyOp22
 70
     1
102
RTVSPropertyOp23
 70
     1
102
RTVSPropertyOp24
 70
     1
102
RTVSPropertyOp25
 70
     1
102
RTVSPropertyOp26
 70
     1
102
RTVSPropertyOp27
 70
     1
  0
XRECORD
  5
7A3
102
{ACAD_REACTORS
330
7A2
102
}
330
7A2
100
AcDbXrecord
280
     1
102
RTVSPropertyOp0
 70
     1
102
RTVSPropertyOp1
 70
     1
102
RTVSPropertyOp2
 70
     1
102
RTVSPropertyOp3
 70
     1
102
RTVSPropertyOp4
 70
     1
102
RTVSPropertyOp5
 70
     1
102
RTVSPropertyOp6
 70
     1
102
RTVSPropertyOp7
 70
     1
102
RTVSPropertyOp8
 70
     1
102
RTVSPropertyOp9
 70
     1
102
RTVSPropertyOp10
 70
     1
102
RTVSPropertyOp11
 70
     1
102
RTVSPropertyOp12
 70
     1
102
RTVSPropertyOp13
 70
     1
102
RTVSPropertyOp14
 70
     1
102
RTVSPropertyOp15
 70
     1
102
RTVSPropertyOp16
 70
     1
102
RTVSPropertyOp17
 70
     1
102
RTVSPropertyOp18
 70
     1
102
RTVSPropertyOp19
 70
     1
102
RTVSPropertyOp20
 70
     1
102
RTVSPropertyOp21
 70
     1
102
RTVSPropertyOp22
 70
     1
102
RTVSPropertyOp23
 70
     1
102
RTVSPropertyOp24
 70
     1
102
RTVSPropertyOp25
 70
     1
102
RTVSPropertyOp26
 70
     1
102
RTVSPropertyOp27
 70
     1
  0
XRECORD
  5
7A5
102
{ACAD_REACTORS
330
7A4
102
}
330
7A4
100
AcDbXrecord
280
     1
102
RTVSPropertyOp0
 70
     1
102
RTVSPropertyOp1
 70
     1
102
RTVSPropertyOp2
 70
     1
102
RTVSPropertyOp3
 70
     1
102
RTVSPropertyOp4
 70
     1
102
RTVSPropertyOp5
 70
     1
102
RTVSPropertyOp6
 70
     1
102
RTVSPropertyOp7
 70
     1
102
RTVSPropertyOp8
 70
     1
102
RTVSPropertyOp9
 70
     1
102
RTVSPropertyOp10
 70
     1
102
RTVSPropertyOp11
 70
     1
102
RTVSPropertyOp12
 70
     1
102
RTVSPropertyOp13
 70
     1
102
RTVSPropertyOp14
 70
     1
102
RTVSPropertyOp15
 70
     1
102
RTVSPropertyOp16
 70
     1
102
RTVSPropertyOp17
 70
     1
102
RTVSPropertyOp18
 70
     1
102
RTVSPropertyOp19
 70
     1
102
RTVSPropertyOp20
 70
     1
102
RTVSPropertyOp21
 70
     1
102
RTVSPropertyOp22
 70
     1
102
RTVSPropertyOp23
 70
     1
102
RTVSPropertyOp24
 70
     1
102
RTVSPropertyOp25
 70
     1
102
RTVSPropertyOp26
 70
     1
102
RTVSPropertyOp27
 70
     1
  0
XRECORD
  5
7A7
102
{ACAD_REACTORS
330
7A6
102
}
330
7A6
100
AcDbXrecord
280
     1
102
RTVSPropertyOp0
 70
     1
102
RTVSPropertyOp1
 70
     1
102
RTVSPropertyOp2
 70
     1
102
RTVSPropertyOp3
 70
     1
102
RTVSPropertyOp4
 70
     1
102
RTVSPropertyOp5
 70
     1
102
RTVSPropertyOp6
 70
     1
102
RTVSPropertyOp7
 70
     1
102
RTVSPropertyOp8
 70
     1
102
RTVSPropertyOp9
 70
     1
102
RTVSPropertyOp10
 70
     1
102
RTVSPropertyOp11
 70
     1
102
RTVSPropertyOp12
 70
     1
102
RTVSPropertyOp13
 70
     1
102
RTVSPropertyOp14
 70
     1
102
RTVSPropertyOp15
 70
     1
102
RTVSPropertyOp16
 70
     1
102
RTVSPropertyOp17
 70
     1
102
RTVSPropertyOp18
 70
     1
102
RTVSPropertyOp19
 70
     1
102
RTVSPropertyOp20
 70
     1
102
RTVSPropertyOp21
 70
     1
102
RTVSPropertyOp22
 70
     1
102
RTVSPropertyOp23
 70
     1
102
RTVSPropertyOp24
 70
     1
102
RTVSPropertyOp25
 70
     1
102
RTVSPropertyOp26
 70
     1
102
RTVSPropertyOp27
 70
     1
  0
XRECORD
  5
7C1
102
{ACAD_REACTORS
330
7C0
102
}
330
7C0
100
AcDbXrecord
280
     1
102
RTVSPropertyOp0
 70
     0
102
RTVSPropertyOp1
 70
     0
102
RTVSPropertyOp2
 70
     0
102
RTVSPropertyOp3
 70
     0
102
RTVSPropertyOp4
 70
     0
102
RTVSPropertyOp5
 70
     0
102
RTVSPropertyOp6
 70
     0
102
RTVSPropertyOp7
 70
     0
102
RTVSPropertyOp8
 70
     0
102
RTVSPropertyOp9
 70
     0
102
RTVSPropertyOp10
 70
     0
102
RTVSPropertyOp11
 70
     0
102
RTVSPropertyOp12
 70
     0
102
RTVSPropertyOp13
 70
     0
102
RTVSPropertyOp14
 70
     2
102
RTVSPropertyOp15
 70
     0
102
RTVSPropertyOp16
 70
     0
102
RTVSPropertyOp17
 70
     0
102
RTVSPropertyOp18
 70
     0
102
RTVSPropertyOp19
 70
     0
102
RTVSPropertyOp20
 70
     0
102
RTVSPropertyOp21
 70
     0
102
RTVSPropertyOp22
 70
     0
102
RTVSPropertyOp23
 70
     0
102
RTVSPropertyOp24
 70
     0
102
RTVSPropertyOp25
 70
     0
102
RTVSPropertyOp26
 70
     0
102
RTVSPropertyOp27
 70
     0
  0
XRECORD
  5
7BB
102
{ACAD_REACTORS
330
7BA
102
}
330
7BA
100
AcDbXrecord
280
     1
102
RTVSPropertyOp0
 70
     1
102
RTVSPropertyOp1
 70
     1
102
RTVSPropertyOp2
 70
     1
102
RTVSPropertyOp3
 70
     1
102
RTVSPropertyOp4
 70
     1
102
RTVSPropertyOp5
 70
     1
102
RTVSPropertyOp6
 70
     1
102
RTVSPropertyOp7
 70
     1
102
RTVSPropertyOp8
 70
     1
102
RTVSPropertyOp9
 70
     1
102
RTVSPropertyOp10
 70
     1
102
RTVSPropertyOp11
 70
     1
102
RTVSPropertyOp12
 70
     1
102
RTVSPropertyOp13
 70
     1
102
RTVSPropertyOp14
 70
     1
102
RTVSPropertyOp15
 70
     1
102
RTVSPropertyOp16
 70
     1
102
RTVSPropertyOp17
 70
     1
102
RTVSPropertyOp18
 70
     1
102
RTVSPropertyOp19
 70
     1
102
RTVSPropertyOp20
 70
     1
102
RTVSPropertyOp21
 70
     1
102
RTVSPropertyOp22
 70
     1
102
RTVSPropertyOp23
 70
     1
102
RTVSPropertyOp24
 70
     1
102
RTVSPropertyOp25
 70
     1
102
RTVSPropertyOp26
 70
     1
102
RTVSPropertyOp27
 70
     1
  0
XRECORD
  5
7C3
102
{ACAD_REACTORS
330
7C2
102
}
330
7C2
100
AcDbXrecord
280
     1
102
RTVSPropertyOp0
 70
     0
102
RTVSPropertyOp1
 70
     0
102
RTVSPropertyOp2
 70
     0
102
RTVSPropertyOp3
 70
     0
102
RTVSPropertyOp4
 70
     0
102
RTVSPropertyOp5
 70
     0
102
RTVSPropertyOp6
 70
     0
102
RTVSPropertyOp7
 70
     0
102
RTVSPropertyOp8
 70
     0
102
RTVSPropertyOp9
 70
     0
102
RTVSPropertyOp10
 70
     0
102
RTVSPropertyOp11
 70
     0
102
RTVSPropertyOp12
 70
     0
102
RTVSPropertyOp13
 70
     0
102
RTVSPropertyOp14
 70
     2
102
RTVSPropertyOp15
 70
     0
102
RTVSPropertyOp16
 70
     0
102
RTVSPropertyOp17
 70
     0
102
RTVSPropertyOp18
 70
     0
102
RTVSPropertyOp19
 70
     0
102
RTVSPropertyOp20
 70
     0
102
RTVSPropertyOp21
 70
     0
102
RTVSPropertyOp22
 70
     0
102
RTVSPropertyOp23
 70
     0
102
RTVSPropertyOp24
 70
     0
102
RTVSPropertyOp25
 70
     0
102
RTVSPropertyOp26
 70
     0
102
RTVSPropertyOp27
 70
     0
  0
XRECORD
  5
7B3
102
{ACAD_REACTORS
330
7B2
102
}
330
7B2
100
AcDbXrecord
280
     1
102
RTVSPropertyOp0
 70
     1
102
RTVSPropertyOp1
 70
     1
102
RTVSPropertyOp2
 70
     1
102
RTVSPropertyOp3
 70
     1
102
RTVSPropertyOp4
 70
     1
102
RTVSPropertyOp5
 70
     1
102
RTVSPropertyOp6
 70
     1
102
RTVSPropertyOp7
 70
     1
102
RTVSPropertyOp8
 70
     1
102
RTVSPropertyOp9
 70
     1
102
RTVSPropertyOp10
 70
     1
102
RTVSPropertyOp11
 70
     1
102
RTVSPropertyOp12
 70
     1
102
RTVSPropertyOp13
 70
     1
102
RTVSPropertyOp14
 70
     1
102
RTVSPropertyOp15
 70
     1
102
RTVSPropertyOp16
 70
     1
102
RTVSPropertyOp17
 70
     1
102
RTVSPropertyOp18
 70
     1
102
RTVSPropertyOp19
 70
     1
102
RTVSPropertyOp20
 70
     1
102
RTVSPropertyOp21
 70
     1
102
RTVSPropertyOp22
 70
     1
102
RTVSPropertyOp23
 70
     1
102
RTVSPropertyOp24
 70
     1
102
RTVSPropertyOp25
 70
     1
102
RTVSPropertyOp26
 70
     1
102
RTVSPropertyOp27
 70
     1
  0
XRECORD
  5
7B9
102
{ACAD_REACTORS
330
7B8
102
}
330
7B8
100
AcDbXrecord
280
     1
102
RTVSPropertyOp0
 70
     1
102
RTVSPropertyOp1
 70
     1
102
RTVSPropertyOp2
 70
     1
102
RTVSPropertyOp3
 70
     1
102
RTVSPropertyOp4
 70
     1
102
RTVSPropertyOp5
 70
     1
102
RTVSPropertyOp6
 70
     1
102
RTVSPropertyOp7
 70
     1
102
RTVSPropertyOp8
 70
     1
102
RTVSPropertyOp9
 70
     1
102
RTVSPropertyOp10
 70
     1
102
RTVSPropertyOp11
 70
     1
102
RTVSPropertyOp12
 70
     1
102
RTVSPropertyOp13
 70
     1
102
RTVSPropertyOp14
 70
     1
102
RTVSPropertyOp15
 70
     1
102
RTVSPropertyOp16
 70
     1
102
RTVSPropertyOp17
 70
     1
102
RTVSPropertyOp18
 70
     1
102
RTVSPropertyOp19
 70
     1
102
RTVSPropertyOp20
 70
     1
102
RTVSPropertyOp21
 70
     1
102
RTVSPropertyOp22
 70
     1
102
RTVSPropertyOp23
 70
     1
102
RTVSPropertyOp24
 70
     1
102
RTVSPropertyOp25
 70
     1
102
RTVSPropertyOp26
 70
     1
102
RTVSPropertyOp27
 70
     1
  0
ENDSEC
  0
EOF
