%TF.GenerationSoftware,KiCad,Pcbnew,7.0.9-7.0.9~ubuntu22.04.1*%
%TF.CreationDate,2023-12-20T21:39:59+00:00*%
%TF.ProjectId,green_uv_led_pcb,67726565-6e5f-4757-965f-6c65645f7063,rev?*%
%TF.SameCoordinates,Original*%
%TF.FileFunction,AssemblyDrawing,Top*%
%FSLAX46Y46*%
G04 Gerber Fmt 4.6, Leading zero omitted, Abs format (unit mm)*
G04 Created by KiCad (PCBNEW 7.0.9-7.0.9~ubuntu22.04.1) date 2023-12-20 21:39:59*
%MOMM*%
%LPD*%
G01*
G04 APERTURE LIST*
%ADD10C,0.150000*%
%ADD11C,0.100000*%
%ADD12C,0.080000*%
G04 APERTURE END LIST*
D10*
X139357142Y-104954819D02*
X138880952Y-104954819D01*
X138880952Y-104954819D02*
X138880952Y-103954819D01*
X139690476Y-104431009D02*
X140023809Y-104431009D01*
X140166666Y-104954819D02*
X139690476Y-104954819D01*
X139690476Y-104954819D02*
X139690476Y-103954819D01*
X139690476Y-103954819D02*
X140166666Y-103954819D01*
X140595238Y-104954819D02*
X140595238Y-103954819D01*
X140595238Y-103954819D02*
X140833333Y-103954819D01*
X140833333Y-103954819D02*
X140976190Y-104002438D01*
X140976190Y-104002438D02*
X141071428Y-104097676D01*
X141071428Y-104097676D02*
X141119047Y-104192914D01*
X141119047Y-104192914D02*
X141166666Y-104383390D01*
X141166666Y-104383390D02*
X141166666Y-104526247D01*
X141166666Y-104526247D02*
X141119047Y-104716723D01*
X141119047Y-104716723D02*
X141071428Y-104811961D01*
X141071428Y-104811961D02*
X140976190Y-104907200D01*
X140976190Y-104907200D02*
X140833333Y-104954819D01*
X140833333Y-104954819D02*
X140595238Y-104954819D01*
D11*
X139392857Y-107226109D02*
X139392857Y-106726109D01*
X139392857Y-106726109D02*
X139511905Y-106726109D01*
X139511905Y-106726109D02*
X139583333Y-106749919D01*
X139583333Y-106749919D02*
X139630952Y-106797538D01*
X139630952Y-106797538D02*
X139654762Y-106845157D01*
X139654762Y-106845157D02*
X139678571Y-106940395D01*
X139678571Y-106940395D02*
X139678571Y-107011823D01*
X139678571Y-107011823D02*
X139654762Y-107107061D01*
X139654762Y-107107061D02*
X139630952Y-107154680D01*
X139630952Y-107154680D02*
X139583333Y-107202300D01*
X139583333Y-107202300D02*
X139511905Y-107226109D01*
X139511905Y-107226109D02*
X139392857Y-107226109D01*
X140154762Y-107226109D02*
X139869048Y-107226109D01*
X140011905Y-107226109D02*
X140011905Y-106726109D01*
X140011905Y-106726109D02*
X139964286Y-106797538D01*
X139964286Y-106797538D02*
X139916667Y-106845157D01*
X139916667Y-106845157D02*
X139869048Y-106868966D01*
X140464285Y-106726109D02*
X140511904Y-106726109D01*
X140511904Y-106726109D02*
X140559523Y-106749919D01*
X140559523Y-106749919D02*
X140583333Y-106773728D01*
X140583333Y-106773728D02*
X140607142Y-106821347D01*
X140607142Y-106821347D02*
X140630952Y-106916585D01*
X140630952Y-106916585D02*
X140630952Y-107035633D01*
X140630952Y-107035633D02*
X140607142Y-107130871D01*
X140607142Y-107130871D02*
X140583333Y-107178490D01*
X140583333Y-107178490D02*
X140559523Y-107202300D01*
X140559523Y-107202300D02*
X140511904Y-107226109D01*
X140511904Y-107226109D02*
X140464285Y-107226109D01*
X140464285Y-107226109D02*
X140416666Y-107202300D01*
X140416666Y-107202300D02*
X140392857Y-107178490D01*
X140392857Y-107178490D02*
X140369047Y-107130871D01*
X140369047Y-107130871D02*
X140345238Y-107035633D01*
X140345238Y-107035633D02*
X140345238Y-106916585D01*
X140345238Y-106916585D02*
X140369047Y-106821347D01*
X140369047Y-106821347D02*
X140392857Y-106773728D01*
X140392857Y-106773728D02*
X140416666Y-106749919D01*
X140416666Y-106749919D02*
X140464285Y-106726109D01*
D10*
X92805714Y-118464819D02*
X92805714Y-119274342D01*
X92805714Y-119274342D02*
X92853333Y-119369580D01*
X92853333Y-119369580D02*
X92900952Y-119417200D01*
X92900952Y-119417200D02*
X92996190Y-119464819D01*
X92996190Y-119464819D02*
X93186666Y-119464819D01*
X93186666Y-119464819D02*
X93281904Y-119417200D01*
X93281904Y-119417200D02*
X93329523Y-119369580D01*
X93329523Y-119369580D02*
X93377142Y-119274342D01*
X93377142Y-119274342D02*
X93377142Y-118464819D01*
X93710476Y-118464819D02*
X94043809Y-119464819D01*
X94043809Y-119464819D02*
X94377142Y-118464819D01*
X95472381Y-119464819D02*
X95472381Y-118464819D01*
X95472381Y-118845771D02*
X95567619Y-118798152D01*
X95567619Y-118798152D02*
X95758095Y-118798152D01*
X95758095Y-118798152D02*
X95853333Y-118845771D01*
X95853333Y-118845771D02*
X95900952Y-118893390D01*
X95900952Y-118893390D02*
X95948571Y-118988628D01*
X95948571Y-118988628D02*
X95948571Y-119274342D01*
X95948571Y-119274342D02*
X95900952Y-119369580D01*
X95900952Y-119369580D02*
X95853333Y-119417200D01*
X95853333Y-119417200D02*
X95758095Y-119464819D01*
X95758095Y-119464819D02*
X95567619Y-119464819D01*
X95567619Y-119464819D02*
X95472381Y-119417200D01*
X96805714Y-119464819D02*
X96805714Y-118941009D01*
X96805714Y-118941009D02*
X96758095Y-118845771D01*
X96758095Y-118845771D02*
X96662857Y-118798152D01*
X96662857Y-118798152D02*
X96472381Y-118798152D01*
X96472381Y-118798152D02*
X96377143Y-118845771D01*
X96805714Y-119417200D02*
X96710476Y-119464819D01*
X96710476Y-119464819D02*
X96472381Y-119464819D01*
X96472381Y-119464819D02*
X96377143Y-119417200D01*
X96377143Y-119417200D02*
X96329524Y-119321961D01*
X96329524Y-119321961D02*
X96329524Y-119226723D01*
X96329524Y-119226723D02*
X96377143Y-119131485D01*
X96377143Y-119131485D02*
X96472381Y-119083866D01*
X96472381Y-119083866D02*
X96710476Y-119083866D01*
X96710476Y-119083866D02*
X96805714Y-119036247D01*
X97281905Y-118798152D02*
X97281905Y-119464819D01*
X97281905Y-118893390D02*
X97329524Y-118845771D01*
X97329524Y-118845771D02*
X97424762Y-118798152D01*
X97424762Y-118798152D02*
X97567619Y-118798152D01*
X97567619Y-118798152D02*
X97662857Y-118845771D01*
X97662857Y-118845771D02*
X97710476Y-118941009D01*
X97710476Y-118941009D02*
X97710476Y-119464819D01*
X98186667Y-119464819D02*
X98186667Y-118464819D01*
X98281905Y-119083866D02*
X98567619Y-119464819D01*
X98567619Y-118798152D02*
X98186667Y-119179104D01*
X99710477Y-118560057D02*
X99758096Y-118512438D01*
X99758096Y-118512438D02*
X99853334Y-118464819D01*
X99853334Y-118464819D02*
X100091429Y-118464819D01*
X100091429Y-118464819D02*
X100186667Y-118512438D01*
X100186667Y-118512438D02*
X100234286Y-118560057D01*
X100234286Y-118560057D02*
X100281905Y-118655295D01*
X100281905Y-118655295D02*
X100281905Y-118750533D01*
X100281905Y-118750533D02*
X100234286Y-118893390D01*
X100234286Y-118893390D02*
X99662858Y-119464819D01*
X99662858Y-119464819D02*
X100281905Y-119464819D01*
X94791666Y-114424819D02*
X94791666Y-115139104D01*
X94791666Y-115139104D02*
X94744047Y-115281961D01*
X94744047Y-115281961D02*
X94648809Y-115377200D01*
X94648809Y-115377200D02*
X94505952Y-115424819D01*
X94505952Y-115424819D02*
X94410714Y-115424819D01*
X95696428Y-114758152D02*
X95696428Y-115424819D01*
X95458333Y-114377200D02*
X95220238Y-115091485D01*
X95220238Y-115091485D02*
X95839285Y-115091485D01*
X139457142Y-79204819D02*
X138980952Y-79204819D01*
X138980952Y-79204819D02*
X138980952Y-78204819D01*
X139790476Y-78681009D02*
X140123809Y-78681009D01*
X140266666Y-79204819D02*
X139790476Y-79204819D01*
X139790476Y-79204819D02*
X139790476Y-78204819D01*
X139790476Y-78204819D02*
X140266666Y-78204819D01*
X140695238Y-79204819D02*
X140695238Y-78204819D01*
X140695238Y-78204819D02*
X140933333Y-78204819D01*
X140933333Y-78204819D02*
X141076190Y-78252438D01*
X141076190Y-78252438D02*
X141171428Y-78347676D01*
X141171428Y-78347676D02*
X141219047Y-78442914D01*
X141219047Y-78442914D02*
X141266666Y-78633390D01*
X141266666Y-78633390D02*
X141266666Y-78776247D01*
X141266666Y-78776247D02*
X141219047Y-78966723D01*
X141219047Y-78966723D02*
X141171428Y-79061961D01*
X141171428Y-79061961D02*
X141076190Y-79157200D01*
X141076190Y-79157200D02*
X140933333Y-79204819D01*
X140933333Y-79204819D02*
X140695238Y-79204819D01*
D12*
X139509524Y-81865935D02*
X139509524Y-81065935D01*
X139509524Y-81065935D02*
X139700000Y-81065935D01*
X139700000Y-81065935D02*
X139814286Y-81104030D01*
X139814286Y-81104030D02*
X139890476Y-81180220D01*
X139890476Y-81180220D02*
X139928571Y-81256411D01*
X139928571Y-81256411D02*
X139966667Y-81408792D01*
X139966667Y-81408792D02*
X139966667Y-81523078D01*
X139966667Y-81523078D02*
X139928571Y-81675459D01*
X139928571Y-81675459D02*
X139890476Y-81751649D01*
X139890476Y-81751649D02*
X139814286Y-81827840D01*
X139814286Y-81827840D02*
X139700000Y-81865935D01*
X139700000Y-81865935D02*
X139509524Y-81865935D01*
X140652381Y-81065935D02*
X140500000Y-81065935D01*
X140500000Y-81065935D02*
X140423809Y-81104030D01*
X140423809Y-81104030D02*
X140385714Y-81142125D01*
X140385714Y-81142125D02*
X140309524Y-81256411D01*
X140309524Y-81256411D02*
X140271428Y-81408792D01*
X140271428Y-81408792D02*
X140271428Y-81713554D01*
X140271428Y-81713554D02*
X140309524Y-81789744D01*
X140309524Y-81789744D02*
X140347619Y-81827840D01*
X140347619Y-81827840D02*
X140423809Y-81865935D01*
X140423809Y-81865935D02*
X140576190Y-81865935D01*
X140576190Y-81865935D02*
X140652381Y-81827840D01*
X140652381Y-81827840D02*
X140690476Y-81789744D01*
X140690476Y-81789744D02*
X140728571Y-81713554D01*
X140728571Y-81713554D02*
X140728571Y-81523078D01*
X140728571Y-81523078D02*
X140690476Y-81446887D01*
X140690476Y-81446887D02*
X140652381Y-81408792D01*
X140652381Y-81408792D02*
X140576190Y-81370697D01*
X140576190Y-81370697D02*
X140423809Y-81370697D01*
X140423809Y-81370697D02*
X140347619Y-81408792D01*
X140347619Y-81408792D02*
X140309524Y-81446887D01*
X140309524Y-81446887D02*
X140271428Y-81523078D01*
D10*
X93805714Y-87964819D02*
X93805714Y-88774342D01*
X93805714Y-88774342D02*
X93853333Y-88869580D01*
X93853333Y-88869580D02*
X93900952Y-88917200D01*
X93900952Y-88917200D02*
X93996190Y-88964819D01*
X93996190Y-88964819D02*
X94186666Y-88964819D01*
X94186666Y-88964819D02*
X94281904Y-88917200D01*
X94281904Y-88917200D02*
X94329523Y-88869580D01*
X94329523Y-88869580D02*
X94377142Y-88774342D01*
X94377142Y-88774342D02*
X94377142Y-87964819D01*
X94710476Y-87964819D02*
X95043809Y-88964819D01*
X95043809Y-88964819D02*
X95377142Y-87964819D01*
X96472381Y-88964819D02*
X96472381Y-87964819D01*
X96472381Y-88345771D02*
X96567619Y-88298152D01*
X96567619Y-88298152D02*
X96758095Y-88298152D01*
X96758095Y-88298152D02*
X96853333Y-88345771D01*
X96853333Y-88345771D02*
X96900952Y-88393390D01*
X96900952Y-88393390D02*
X96948571Y-88488628D01*
X96948571Y-88488628D02*
X96948571Y-88774342D01*
X96948571Y-88774342D02*
X96900952Y-88869580D01*
X96900952Y-88869580D02*
X96853333Y-88917200D01*
X96853333Y-88917200D02*
X96758095Y-88964819D01*
X96758095Y-88964819D02*
X96567619Y-88964819D01*
X96567619Y-88964819D02*
X96472381Y-88917200D01*
X97805714Y-88964819D02*
X97805714Y-88441009D01*
X97805714Y-88441009D02*
X97758095Y-88345771D01*
X97758095Y-88345771D02*
X97662857Y-88298152D01*
X97662857Y-88298152D02*
X97472381Y-88298152D01*
X97472381Y-88298152D02*
X97377143Y-88345771D01*
X97805714Y-88917200D02*
X97710476Y-88964819D01*
X97710476Y-88964819D02*
X97472381Y-88964819D01*
X97472381Y-88964819D02*
X97377143Y-88917200D01*
X97377143Y-88917200D02*
X97329524Y-88821961D01*
X97329524Y-88821961D02*
X97329524Y-88726723D01*
X97329524Y-88726723D02*
X97377143Y-88631485D01*
X97377143Y-88631485D02*
X97472381Y-88583866D01*
X97472381Y-88583866D02*
X97710476Y-88583866D01*
X97710476Y-88583866D02*
X97805714Y-88536247D01*
X98281905Y-88298152D02*
X98281905Y-88964819D01*
X98281905Y-88393390D02*
X98329524Y-88345771D01*
X98329524Y-88345771D02*
X98424762Y-88298152D01*
X98424762Y-88298152D02*
X98567619Y-88298152D01*
X98567619Y-88298152D02*
X98662857Y-88345771D01*
X98662857Y-88345771D02*
X98710476Y-88441009D01*
X98710476Y-88441009D02*
X98710476Y-88964819D01*
X99186667Y-88964819D02*
X99186667Y-87964819D01*
X99281905Y-88583866D02*
X99567619Y-88964819D01*
X99567619Y-88298152D02*
X99186667Y-88679104D01*
X101281905Y-88964819D02*
X100710477Y-88964819D01*
X100996191Y-88964819D02*
X100996191Y-87964819D01*
X100996191Y-87964819D02*
X100900953Y-88107676D01*
X100900953Y-88107676D02*
X100805715Y-88202914D01*
X100805715Y-88202914D02*
X100710477Y-88250533D01*
X95791666Y-83924819D02*
X95791666Y-84639104D01*
X95791666Y-84639104D02*
X95744047Y-84781961D01*
X95744047Y-84781961D02*
X95648809Y-84877200D01*
X95648809Y-84877200D02*
X95505952Y-84924819D01*
X95505952Y-84924819D02*
X95410714Y-84924819D01*
X96220238Y-84020057D02*
X96267857Y-83972438D01*
X96267857Y-83972438D02*
X96363095Y-83924819D01*
X96363095Y-83924819D02*
X96601190Y-83924819D01*
X96601190Y-83924819D02*
X96696428Y-83972438D01*
X96696428Y-83972438D02*
X96744047Y-84020057D01*
X96744047Y-84020057D02*
X96791666Y-84115295D01*
X96791666Y-84115295D02*
X96791666Y-84210533D01*
X96791666Y-84210533D02*
X96744047Y-84353390D01*
X96744047Y-84353390D02*
X96172619Y-84924819D01*
X96172619Y-84924819D02*
X96791666Y-84924819D01*
X92262856Y-110272438D02*
X92167618Y-110224819D01*
X92167618Y-110224819D02*
X92024761Y-110224819D01*
X92024761Y-110224819D02*
X91881904Y-110272438D01*
X91881904Y-110272438D02*
X91786666Y-110367676D01*
X91786666Y-110367676D02*
X91739047Y-110462914D01*
X91739047Y-110462914D02*
X91691428Y-110653390D01*
X91691428Y-110653390D02*
X91691428Y-110796247D01*
X91691428Y-110796247D02*
X91739047Y-110986723D01*
X91739047Y-110986723D02*
X91786666Y-111081961D01*
X91786666Y-111081961D02*
X91881904Y-111177200D01*
X91881904Y-111177200D02*
X92024761Y-111224819D01*
X92024761Y-111224819D02*
X92119999Y-111224819D01*
X92119999Y-111224819D02*
X92262856Y-111177200D01*
X92262856Y-111177200D02*
X92310475Y-111129580D01*
X92310475Y-111129580D02*
X92310475Y-110796247D01*
X92310475Y-110796247D02*
X92119999Y-110796247D01*
X92739047Y-111224819D02*
X92739047Y-110558152D01*
X92739047Y-110748628D02*
X92786666Y-110653390D01*
X92786666Y-110653390D02*
X92834285Y-110605771D01*
X92834285Y-110605771D02*
X92929523Y-110558152D01*
X92929523Y-110558152D02*
X93024761Y-110558152D01*
X93739047Y-111177200D02*
X93643809Y-111224819D01*
X93643809Y-111224819D02*
X93453333Y-111224819D01*
X93453333Y-111224819D02*
X93358095Y-111177200D01*
X93358095Y-111177200D02*
X93310476Y-111081961D01*
X93310476Y-111081961D02*
X93310476Y-110701009D01*
X93310476Y-110701009D02*
X93358095Y-110605771D01*
X93358095Y-110605771D02*
X93453333Y-110558152D01*
X93453333Y-110558152D02*
X93643809Y-110558152D01*
X93643809Y-110558152D02*
X93739047Y-110605771D01*
X93739047Y-110605771D02*
X93786666Y-110701009D01*
X93786666Y-110701009D02*
X93786666Y-110796247D01*
X93786666Y-110796247D02*
X93310476Y-110891485D01*
X94596190Y-111177200D02*
X94500952Y-111224819D01*
X94500952Y-111224819D02*
X94310476Y-111224819D01*
X94310476Y-111224819D02*
X94215238Y-111177200D01*
X94215238Y-111177200D02*
X94167619Y-111081961D01*
X94167619Y-111081961D02*
X94167619Y-110701009D01*
X94167619Y-110701009D02*
X94215238Y-110605771D01*
X94215238Y-110605771D02*
X94310476Y-110558152D01*
X94310476Y-110558152D02*
X94500952Y-110558152D01*
X94500952Y-110558152D02*
X94596190Y-110605771D01*
X94596190Y-110605771D02*
X94643809Y-110701009D01*
X94643809Y-110701009D02*
X94643809Y-110796247D01*
X94643809Y-110796247D02*
X94167619Y-110891485D01*
X95072381Y-110558152D02*
X95072381Y-111224819D01*
X95072381Y-110653390D02*
X95120000Y-110605771D01*
X95120000Y-110605771D02*
X95215238Y-110558152D01*
X95215238Y-110558152D02*
X95358095Y-110558152D01*
X95358095Y-110558152D02*
X95453333Y-110605771D01*
X95453333Y-110605771D02*
X95500952Y-110701009D01*
X95500952Y-110701009D02*
X95500952Y-111224819D01*
X96739048Y-111224819D02*
X96739048Y-110224819D01*
X96739048Y-110605771D02*
X96834286Y-110558152D01*
X96834286Y-110558152D02*
X97024762Y-110558152D01*
X97024762Y-110558152D02*
X97120000Y-110605771D01*
X97120000Y-110605771D02*
X97167619Y-110653390D01*
X97167619Y-110653390D02*
X97215238Y-110748628D01*
X97215238Y-110748628D02*
X97215238Y-111034342D01*
X97215238Y-111034342D02*
X97167619Y-111129580D01*
X97167619Y-111129580D02*
X97120000Y-111177200D01*
X97120000Y-111177200D02*
X97024762Y-111224819D01*
X97024762Y-111224819D02*
X96834286Y-111224819D01*
X96834286Y-111224819D02*
X96739048Y-111177200D01*
X98072381Y-111224819D02*
X98072381Y-110701009D01*
X98072381Y-110701009D02*
X98024762Y-110605771D01*
X98024762Y-110605771D02*
X97929524Y-110558152D01*
X97929524Y-110558152D02*
X97739048Y-110558152D01*
X97739048Y-110558152D02*
X97643810Y-110605771D01*
X98072381Y-111177200D02*
X97977143Y-111224819D01*
X97977143Y-111224819D02*
X97739048Y-111224819D01*
X97739048Y-111224819D02*
X97643810Y-111177200D01*
X97643810Y-111177200D02*
X97596191Y-111081961D01*
X97596191Y-111081961D02*
X97596191Y-110986723D01*
X97596191Y-110986723D02*
X97643810Y-110891485D01*
X97643810Y-110891485D02*
X97739048Y-110843866D01*
X97739048Y-110843866D02*
X97977143Y-110843866D01*
X97977143Y-110843866D02*
X98072381Y-110796247D01*
X98548572Y-110558152D02*
X98548572Y-111224819D01*
X98548572Y-110653390D02*
X98596191Y-110605771D01*
X98596191Y-110605771D02*
X98691429Y-110558152D01*
X98691429Y-110558152D02*
X98834286Y-110558152D01*
X98834286Y-110558152D02*
X98929524Y-110605771D01*
X98929524Y-110605771D02*
X98977143Y-110701009D01*
X98977143Y-110701009D02*
X98977143Y-111224819D01*
X99453334Y-111224819D02*
X99453334Y-110224819D01*
X99548572Y-110843866D02*
X99834286Y-111224819D01*
X99834286Y-110558152D02*
X99453334Y-110939104D01*
X100977144Y-110320057D02*
X101024763Y-110272438D01*
X101024763Y-110272438D02*
X101120001Y-110224819D01*
X101120001Y-110224819D02*
X101358096Y-110224819D01*
X101358096Y-110224819D02*
X101453334Y-110272438D01*
X101453334Y-110272438D02*
X101500953Y-110320057D01*
X101500953Y-110320057D02*
X101548572Y-110415295D01*
X101548572Y-110415295D02*
X101548572Y-110510533D01*
X101548572Y-110510533D02*
X101500953Y-110653390D01*
X101500953Y-110653390D02*
X100929525Y-111224819D01*
X100929525Y-111224819D02*
X101548572Y-111224819D01*
X101066666Y-101454819D02*
X101066666Y-102169104D01*
X101066666Y-102169104D02*
X101019047Y-102311961D01*
X101019047Y-102311961D02*
X100923809Y-102407200D01*
X100923809Y-102407200D02*
X100780952Y-102454819D01*
X100780952Y-102454819D02*
X100685714Y-102454819D01*
X101447619Y-101454819D02*
X102066666Y-101454819D01*
X102066666Y-101454819D02*
X101733333Y-101835771D01*
X101733333Y-101835771D02*
X101876190Y-101835771D01*
X101876190Y-101835771D02*
X101971428Y-101883390D01*
X101971428Y-101883390D02*
X102019047Y-101931009D01*
X102019047Y-101931009D02*
X102066666Y-102026247D01*
X102066666Y-102026247D02*
X102066666Y-102264342D01*
X102066666Y-102264342D02*
X102019047Y-102359580D01*
X102019047Y-102359580D02*
X101971428Y-102407200D01*
X101971428Y-102407200D02*
X101876190Y-102454819D01*
X101876190Y-102454819D02*
X101590476Y-102454819D01*
X101590476Y-102454819D02*
X101495238Y-102407200D01*
X101495238Y-102407200D02*
X101447619Y-102359580D01*
X169357142Y-79204819D02*
X168880952Y-79204819D01*
X168880952Y-79204819D02*
X168880952Y-78204819D01*
X169690476Y-78681009D02*
X170023809Y-78681009D01*
X170166666Y-79204819D02*
X169690476Y-79204819D01*
X169690476Y-79204819D02*
X169690476Y-78204819D01*
X169690476Y-78204819D02*
X170166666Y-78204819D01*
X170595238Y-79204819D02*
X170595238Y-78204819D01*
X170595238Y-78204819D02*
X170833333Y-78204819D01*
X170833333Y-78204819D02*
X170976190Y-78252438D01*
X170976190Y-78252438D02*
X171071428Y-78347676D01*
X171071428Y-78347676D02*
X171119047Y-78442914D01*
X171119047Y-78442914D02*
X171166666Y-78633390D01*
X171166666Y-78633390D02*
X171166666Y-78776247D01*
X171166666Y-78776247D02*
X171119047Y-78966723D01*
X171119047Y-78966723D02*
X171071428Y-79061961D01*
X171071428Y-79061961D02*
X170976190Y-79157200D01*
X170976190Y-79157200D02*
X170833333Y-79204819D01*
X170833333Y-79204819D02*
X170595238Y-79204819D01*
D12*
X169409524Y-81865935D02*
X169409524Y-81065935D01*
X169409524Y-81065935D02*
X169600000Y-81065935D01*
X169600000Y-81065935D02*
X169714286Y-81104030D01*
X169714286Y-81104030D02*
X169790476Y-81180220D01*
X169790476Y-81180220D02*
X169828571Y-81256411D01*
X169828571Y-81256411D02*
X169866667Y-81408792D01*
X169866667Y-81408792D02*
X169866667Y-81523078D01*
X169866667Y-81523078D02*
X169828571Y-81675459D01*
X169828571Y-81675459D02*
X169790476Y-81751649D01*
X169790476Y-81751649D02*
X169714286Y-81827840D01*
X169714286Y-81827840D02*
X169600000Y-81865935D01*
X169600000Y-81865935D02*
X169409524Y-81865935D01*
X170133333Y-81065935D02*
X170666667Y-81065935D01*
X170666667Y-81065935D02*
X170323809Y-81865935D01*
D10*
X169357142Y-74954819D02*
X168880952Y-74954819D01*
X168880952Y-74954819D02*
X168880952Y-73954819D01*
X169690476Y-74431009D02*
X170023809Y-74431009D01*
X170166666Y-74954819D02*
X169690476Y-74954819D01*
X169690476Y-74954819D02*
X169690476Y-73954819D01*
X169690476Y-73954819D02*
X170166666Y-73954819D01*
X170595238Y-74954819D02*
X170595238Y-73954819D01*
X170595238Y-73954819D02*
X170833333Y-73954819D01*
X170833333Y-73954819D02*
X170976190Y-74002438D01*
X170976190Y-74002438D02*
X171071428Y-74097676D01*
X171071428Y-74097676D02*
X171119047Y-74192914D01*
X171119047Y-74192914D02*
X171166666Y-74383390D01*
X171166666Y-74383390D02*
X171166666Y-74526247D01*
X171166666Y-74526247D02*
X171119047Y-74716723D01*
X171119047Y-74716723D02*
X171071428Y-74811961D01*
X171071428Y-74811961D02*
X170976190Y-74907200D01*
X170976190Y-74907200D02*
X170833333Y-74954819D01*
X170833333Y-74954819D02*
X170595238Y-74954819D01*
D11*
X169630952Y-77226109D02*
X169630952Y-76726109D01*
X169630952Y-76726109D02*
X169750000Y-76726109D01*
X169750000Y-76726109D02*
X169821428Y-76749919D01*
X169821428Y-76749919D02*
X169869047Y-76797538D01*
X169869047Y-76797538D02*
X169892857Y-76845157D01*
X169892857Y-76845157D02*
X169916666Y-76940395D01*
X169916666Y-76940395D02*
X169916666Y-77011823D01*
X169916666Y-77011823D02*
X169892857Y-77107061D01*
X169892857Y-77107061D02*
X169869047Y-77154680D01*
X169869047Y-77154680D02*
X169821428Y-77202300D01*
X169821428Y-77202300D02*
X169750000Y-77226109D01*
X169750000Y-77226109D02*
X169630952Y-77226109D01*
X170083333Y-76726109D02*
X170392857Y-76726109D01*
X170392857Y-76726109D02*
X170226190Y-76916585D01*
X170226190Y-76916585D02*
X170297619Y-76916585D01*
X170297619Y-76916585D02*
X170345238Y-76940395D01*
X170345238Y-76940395D02*
X170369047Y-76964204D01*
X170369047Y-76964204D02*
X170392857Y-77011823D01*
X170392857Y-77011823D02*
X170392857Y-77130871D01*
X170392857Y-77130871D02*
X170369047Y-77178490D01*
X170369047Y-77178490D02*
X170345238Y-77202300D01*
X170345238Y-77202300D02*
X170297619Y-77226109D01*
X170297619Y-77226109D02*
X170154762Y-77226109D01*
X170154762Y-77226109D02*
X170107143Y-77202300D01*
X170107143Y-77202300D02*
X170083333Y-77178490D01*
D10*
X139457142Y-109204819D02*
X138980952Y-109204819D01*
X138980952Y-109204819D02*
X138980952Y-108204819D01*
X139790476Y-108681009D02*
X140123809Y-108681009D01*
X140266666Y-109204819D02*
X139790476Y-109204819D01*
X139790476Y-109204819D02*
X139790476Y-108204819D01*
X139790476Y-108204819D02*
X140266666Y-108204819D01*
X140695238Y-109204819D02*
X140695238Y-108204819D01*
X140695238Y-108204819D02*
X140933333Y-108204819D01*
X140933333Y-108204819D02*
X141076190Y-108252438D01*
X141076190Y-108252438D02*
X141171428Y-108347676D01*
X141171428Y-108347676D02*
X141219047Y-108442914D01*
X141219047Y-108442914D02*
X141266666Y-108633390D01*
X141266666Y-108633390D02*
X141266666Y-108776247D01*
X141266666Y-108776247D02*
X141219047Y-108966723D01*
X141219047Y-108966723D02*
X141171428Y-109061961D01*
X141171428Y-109061961D02*
X141076190Y-109157200D01*
X141076190Y-109157200D02*
X140933333Y-109204819D01*
X140933333Y-109204819D02*
X140695238Y-109204819D01*
D12*
X139128571Y-111865935D02*
X139128571Y-111065935D01*
X139128571Y-111065935D02*
X139319047Y-111065935D01*
X139319047Y-111065935D02*
X139433333Y-111104030D01*
X139433333Y-111104030D02*
X139509523Y-111180220D01*
X139509523Y-111180220D02*
X139547618Y-111256411D01*
X139547618Y-111256411D02*
X139585714Y-111408792D01*
X139585714Y-111408792D02*
X139585714Y-111523078D01*
X139585714Y-111523078D02*
X139547618Y-111675459D01*
X139547618Y-111675459D02*
X139509523Y-111751649D01*
X139509523Y-111751649D02*
X139433333Y-111827840D01*
X139433333Y-111827840D02*
X139319047Y-111865935D01*
X139319047Y-111865935D02*
X139128571Y-111865935D01*
X140347618Y-111865935D02*
X139890475Y-111865935D01*
X140119047Y-111865935D02*
X140119047Y-111065935D01*
X140119047Y-111065935D02*
X140042856Y-111180220D01*
X140042856Y-111180220D02*
X139966666Y-111256411D01*
X139966666Y-111256411D02*
X139890475Y-111294506D01*
X141033333Y-111332601D02*
X141033333Y-111865935D01*
X140842857Y-111027840D02*
X140652380Y-111599268D01*
X140652380Y-111599268D02*
X141147619Y-111599268D01*
D10*
X175214285Y-72654819D02*
X175214285Y-71654819D01*
X175214285Y-71654819D02*
X175547618Y-72369104D01*
X175547618Y-72369104D02*
X175880951Y-71654819D01*
X175880951Y-71654819D02*
X175880951Y-72654819D01*
X176499999Y-72654819D02*
X176404761Y-72607200D01*
X176404761Y-72607200D02*
X176357142Y-72559580D01*
X176357142Y-72559580D02*
X176309523Y-72464342D01*
X176309523Y-72464342D02*
X176309523Y-72178628D01*
X176309523Y-72178628D02*
X176357142Y-72083390D01*
X176357142Y-72083390D02*
X176404761Y-72035771D01*
X176404761Y-72035771D02*
X176499999Y-71988152D01*
X176499999Y-71988152D02*
X176642856Y-71988152D01*
X176642856Y-71988152D02*
X176738094Y-72035771D01*
X176738094Y-72035771D02*
X176785713Y-72083390D01*
X176785713Y-72083390D02*
X176833332Y-72178628D01*
X176833332Y-72178628D02*
X176833332Y-72464342D01*
X176833332Y-72464342D02*
X176785713Y-72559580D01*
X176785713Y-72559580D02*
X176738094Y-72607200D01*
X176738094Y-72607200D02*
X176642856Y-72654819D01*
X176642856Y-72654819D02*
X176499999Y-72654819D01*
X177690475Y-71988152D02*
X177690475Y-72654819D01*
X177261904Y-71988152D02*
X177261904Y-72511961D01*
X177261904Y-72511961D02*
X177309523Y-72607200D01*
X177309523Y-72607200D02*
X177404761Y-72654819D01*
X177404761Y-72654819D02*
X177547618Y-72654819D01*
X177547618Y-72654819D02*
X177642856Y-72607200D01*
X177642856Y-72607200D02*
X177690475Y-72559580D01*
X178166666Y-71988152D02*
X178166666Y-72654819D01*
X178166666Y-72083390D02*
X178214285Y-72035771D01*
X178214285Y-72035771D02*
X178309523Y-71988152D01*
X178309523Y-71988152D02*
X178452380Y-71988152D01*
X178452380Y-71988152D02*
X178547618Y-72035771D01*
X178547618Y-72035771D02*
X178595237Y-72131009D01*
X178595237Y-72131009D02*
X178595237Y-72654819D01*
X178928571Y-71988152D02*
X179309523Y-71988152D01*
X179071428Y-71654819D02*
X179071428Y-72511961D01*
X179071428Y-72511961D02*
X179119047Y-72607200D01*
X179119047Y-72607200D02*
X179214285Y-72654819D01*
X179214285Y-72654819D02*
X179309523Y-72654819D01*
X179642857Y-72654819D02*
X179642857Y-71988152D01*
X179642857Y-71654819D02*
X179595238Y-71702438D01*
X179595238Y-71702438D02*
X179642857Y-71750057D01*
X179642857Y-71750057D02*
X179690476Y-71702438D01*
X179690476Y-71702438D02*
X179642857Y-71654819D01*
X179642857Y-71654819D02*
X179642857Y-71750057D01*
X180119047Y-71988152D02*
X180119047Y-72654819D01*
X180119047Y-72083390D02*
X180166666Y-72035771D01*
X180166666Y-72035771D02*
X180261904Y-71988152D01*
X180261904Y-71988152D02*
X180404761Y-71988152D01*
X180404761Y-71988152D02*
X180499999Y-72035771D01*
X180499999Y-72035771D02*
X180547618Y-72131009D01*
X180547618Y-72131009D02*
X180547618Y-72654819D01*
X181452380Y-71988152D02*
X181452380Y-72797676D01*
X181452380Y-72797676D02*
X181404761Y-72892914D01*
X181404761Y-72892914D02*
X181357142Y-72940533D01*
X181357142Y-72940533D02*
X181261904Y-72988152D01*
X181261904Y-72988152D02*
X181119047Y-72988152D01*
X181119047Y-72988152D02*
X181023809Y-72940533D01*
X181452380Y-72607200D02*
X181357142Y-72654819D01*
X181357142Y-72654819D02*
X181166666Y-72654819D01*
X181166666Y-72654819D02*
X181071428Y-72607200D01*
X181071428Y-72607200D02*
X181023809Y-72559580D01*
X181023809Y-72559580D02*
X180976190Y-72464342D01*
X180976190Y-72464342D02*
X180976190Y-72178628D01*
X180976190Y-72178628D02*
X181023809Y-72083390D01*
X181023809Y-72083390D02*
X181071428Y-72035771D01*
X181071428Y-72035771D02*
X181166666Y-71988152D01*
X181166666Y-71988152D02*
X181357142Y-71988152D01*
X181357142Y-71988152D02*
X181452380Y-72035771D01*
X181928571Y-72654819D02*
X181928571Y-71654819D01*
X181928571Y-72131009D02*
X182499999Y-72131009D01*
X182499999Y-72654819D02*
X182499999Y-71654819D01*
X183119047Y-72654819D02*
X183023809Y-72607200D01*
X183023809Y-72607200D02*
X182976190Y-72559580D01*
X182976190Y-72559580D02*
X182928571Y-72464342D01*
X182928571Y-72464342D02*
X182928571Y-72178628D01*
X182928571Y-72178628D02*
X182976190Y-72083390D01*
X182976190Y-72083390D02*
X183023809Y-72035771D01*
X183023809Y-72035771D02*
X183119047Y-71988152D01*
X183119047Y-71988152D02*
X183261904Y-71988152D01*
X183261904Y-71988152D02*
X183357142Y-72035771D01*
X183357142Y-72035771D02*
X183404761Y-72083390D01*
X183404761Y-72083390D02*
X183452380Y-72178628D01*
X183452380Y-72178628D02*
X183452380Y-72464342D01*
X183452380Y-72464342D02*
X183404761Y-72559580D01*
X183404761Y-72559580D02*
X183357142Y-72607200D01*
X183357142Y-72607200D02*
X183261904Y-72654819D01*
X183261904Y-72654819D02*
X183119047Y-72654819D01*
X184023809Y-72654819D02*
X183928571Y-72607200D01*
X183928571Y-72607200D02*
X183880952Y-72511961D01*
X183880952Y-72511961D02*
X183880952Y-71654819D01*
X184785714Y-72607200D02*
X184690476Y-72654819D01*
X184690476Y-72654819D02*
X184500000Y-72654819D01*
X184500000Y-72654819D02*
X184404762Y-72607200D01*
X184404762Y-72607200D02*
X184357143Y-72511961D01*
X184357143Y-72511961D02*
X184357143Y-72131009D01*
X184357143Y-72131009D02*
X184404762Y-72035771D01*
X184404762Y-72035771D02*
X184500000Y-71988152D01*
X184500000Y-71988152D02*
X184690476Y-71988152D01*
X184690476Y-71988152D02*
X184785714Y-72035771D01*
X184785714Y-72035771D02*
X184833333Y-72131009D01*
X184833333Y-72131009D02*
X184833333Y-72226247D01*
X184833333Y-72226247D02*
X184357143Y-72321485D01*
X179238095Y-68454819D02*
X179238095Y-67454819D01*
X179238095Y-67931009D02*
X179809523Y-67931009D01*
X179809523Y-68454819D02*
X179809523Y-67454819D01*
X180238095Y-67550057D02*
X180285714Y-67502438D01*
X180285714Y-67502438D02*
X180380952Y-67454819D01*
X180380952Y-67454819D02*
X180619047Y-67454819D01*
X180619047Y-67454819D02*
X180714285Y-67502438D01*
X180714285Y-67502438D02*
X180761904Y-67550057D01*
X180761904Y-67550057D02*
X180809523Y-67645295D01*
X180809523Y-67645295D02*
X180809523Y-67740533D01*
X180809523Y-67740533D02*
X180761904Y-67883390D01*
X180761904Y-67883390D02*
X180190476Y-68454819D01*
X180190476Y-68454819D02*
X180809523Y-68454819D01*
X169357142Y-104954819D02*
X168880952Y-104954819D01*
X168880952Y-104954819D02*
X168880952Y-103954819D01*
X169690476Y-104431009D02*
X170023809Y-104431009D01*
X170166666Y-104954819D02*
X169690476Y-104954819D01*
X169690476Y-104954819D02*
X169690476Y-103954819D01*
X169690476Y-103954819D02*
X170166666Y-103954819D01*
X170595238Y-104954819D02*
X170595238Y-103954819D01*
X170595238Y-103954819D02*
X170833333Y-103954819D01*
X170833333Y-103954819D02*
X170976190Y-104002438D01*
X170976190Y-104002438D02*
X171071428Y-104097676D01*
X171071428Y-104097676D02*
X171119047Y-104192914D01*
X171119047Y-104192914D02*
X171166666Y-104383390D01*
X171166666Y-104383390D02*
X171166666Y-104526247D01*
X171166666Y-104526247D02*
X171119047Y-104716723D01*
X171119047Y-104716723D02*
X171071428Y-104811961D01*
X171071428Y-104811961D02*
X170976190Y-104907200D01*
X170976190Y-104907200D02*
X170833333Y-104954819D01*
X170833333Y-104954819D02*
X170595238Y-104954819D01*
D11*
X169392857Y-107226109D02*
X169392857Y-106726109D01*
X169392857Y-106726109D02*
X169511905Y-106726109D01*
X169511905Y-106726109D02*
X169583333Y-106749919D01*
X169583333Y-106749919D02*
X169630952Y-106797538D01*
X169630952Y-106797538D02*
X169654762Y-106845157D01*
X169654762Y-106845157D02*
X169678571Y-106940395D01*
X169678571Y-106940395D02*
X169678571Y-107011823D01*
X169678571Y-107011823D02*
X169654762Y-107107061D01*
X169654762Y-107107061D02*
X169630952Y-107154680D01*
X169630952Y-107154680D02*
X169583333Y-107202300D01*
X169583333Y-107202300D02*
X169511905Y-107226109D01*
X169511905Y-107226109D02*
X169392857Y-107226109D01*
X170154762Y-107226109D02*
X169869048Y-107226109D01*
X170011905Y-107226109D02*
X170011905Y-106726109D01*
X170011905Y-106726109D02*
X169964286Y-106797538D01*
X169964286Y-106797538D02*
X169916667Y-106845157D01*
X169916667Y-106845157D02*
X169869048Y-106868966D01*
X170630952Y-107226109D02*
X170345238Y-107226109D01*
X170488095Y-107226109D02*
X170488095Y-106726109D01*
X170488095Y-106726109D02*
X170440476Y-106797538D01*
X170440476Y-106797538D02*
X170392857Y-106845157D01*
X170392857Y-106845157D02*
X170345238Y-106868966D01*
D10*
X139357142Y-74954819D02*
X138880952Y-74954819D01*
X138880952Y-74954819D02*
X138880952Y-73954819D01*
X139690476Y-74431009D02*
X140023809Y-74431009D01*
X140166666Y-74954819D02*
X139690476Y-74954819D01*
X139690476Y-74954819D02*
X139690476Y-73954819D01*
X139690476Y-73954819D02*
X140166666Y-73954819D01*
X140595238Y-74954819D02*
X140595238Y-73954819D01*
X140595238Y-73954819D02*
X140833333Y-73954819D01*
X140833333Y-73954819D02*
X140976190Y-74002438D01*
X140976190Y-74002438D02*
X141071428Y-74097676D01*
X141071428Y-74097676D02*
X141119047Y-74192914D01*
X141119047Y-74192914D02*
X141166666Y-74383390D01*
X141166666Y-74383390D02*
X141166666Y-74526247D01*
X141166666Y-74526247D02*
X141119047Y-74716723D01*
X141119047Y-74716723D02*
X141071428Y-74811961D01*
X141071428Y-74811961D02*
X140976190Y-74907200D01*
X140976190Y-74907200D02*
X140833333Y-74954819D01*
X140833333Y-74954819D02*
X140595238Y-74954819D01*
D11*
X139630952Y-77226109D02*
X139630952Y-76726109D01*
X139630952Y-76726109D02*
X139750000Y-76726109D01*
X139750000Y-76726109D02*
X139821428Y-76749919D01*
X139821428Y-76749919D02*
X139869047Y-76797538D01*
X139869047Y-76797538D02*
X139892857Y-76845157D01*
X139892857Y-76845157D02*
X139916666Y-76940395D01*
X139916666Y-76940395D02*
X139916666Y-77011823D01*
X139916666Y-77011823D02*
X139892857Y-77107061D01*
X139892857Y-77107061D02*
X139869047Y-77154680D01*
X139869047Y-77154680D02*
X139821428Y-77202300D01*
X139821428Y-77202300D02*
X139750000Y-77226109D01*
X139750000Y-77226109D02*
X139630952Y-77226109D01*
X140107143Y-76773728D02*
X140130952Y-76749919D01*
X140130952Y-76749919D02*
X140178571Y-76726109D01*
X140178571Y-76726109D02*
X140297619Y-76726109D01*
X140297619Y-76726109D02*
X140345238Y-76749919D01*
X140345238Y-76749919D02*
X140369047Y-76773728D01*
X140369047Y-76773728D02*
X140392857Y-76821347D01*
X140392857Y-76821347D02*
X140392857Y-76868966D01*
X140392857Y-76868966D02*
X140369047Y-76940395D01*
X140369047Y-76940395D02*
X140083333Y-77226109D01*
X140083333Y-77226109D02*
X140392857Y-77226109D01*
D10*
X95214285Y-102654819D02*
X95214285Y-101654819D01*
X95214285Y-101654819D02*
X95547618Y-102369104D01*
X95547618Y-102369104D02*
X95880951Y-101654819D01*
X95880951Y-101654819D02*
X95880951Y-102654819D01*
X96499999Y-102654819D02*
X96404761Y-102607200D01*
X96404761Y-102607200D02*
X96357142Y-102559580D01*
X96357142Y-102559580D02*
X96309523Y-102464342D01*
X96309523Y-102464342D02*
X96309523Y-102178628D01*
X96309523Y-102178628D02*
X96357142Y-102083390D01*
X96357142Y-102083390D02*
X96404761Y-102035771D01*
X96404761Y-102035771D02*
X96499999Y-101988152D01*
X96499999Y-101988152D02*
X96642856Y-101988152D01*
X96642856Y-101988152D02*
X96738094Y-102035771D01*
X96738094Y-102035771D02*
X96785713Y-102083390D01*
X96785713Y-102083390D02*
X96833332Y-102178628D01*
X96833332Y-102178628D02*
X96833332Y-102464342D01*
X96833332Y-102464342D02*
X96785713Y-102559580D01*
X96785713Y-102559580D02*
X96738094Y-102607200D01*
X96738094Y-102607200D02*
X96642856Y-102654819D01*
X96642856Y-102654819D02*
X96499999Y-102654819D01*
X97690475Y-101988152D02*
X97690475Y-102654819D01*
X97261904Y-101988152D02*
X97261904Y-102511961D01*
X97261904Y-102511961D02*
X97309523Y-102607200D01*
X97309523Y-102607200D02*
X97404761Y-102654819D01*
X97404761Y-102654819D02*
X97547618Y-102654819D01*
X97547618Y-102654819D02*
X97642856Y-102607200D01*
X97642856Y-102607200D02*
X97690475Y-102559580D01*
X98166666Y-101988152D02*
X98166666Y-102654819D01*
X98166666Y-102083390D02*
X98214285Y-102035771D01*
X98214285Y-102035771D02*
X98309523Y-101988152D01*
X98309523Y-101988152D02*
X98452380Y-101988152D01*
X98452380Y-101988152D02*
X98547618Y-102035771D01*
X98547618Y-102035771D02*
X98595237Y-102131009D01*
X98595237Y-102131009D02*
X98595237Y-102654819D01*
X98928571Y-101988152D02*
X99309523Y-101988152D01*
X99071428Y-101654819D02*
X99071428Y-102511961D01*
X99071428Y-102511961D02*
X99119047Y-102607200D01*
X99119047Y-102607200D02*
X99214285Y-102654819D01*
X99214285Y-102654819D02*
X99309523Y-102654819D01*
X99642857Y-102654819D02*
X99642857Y-101988152D01*
X99642857Y-101654819D02*
X99595238Y-101702438D01*
X99595238Y-101702438D02*
X99642857Y-101750057D01*
X99642857Y-101750057D02*
X99690476Y-101702438D01*
X99690476Y-101702438D02*
X99642857Y-101654819D01*
X99642857Y-101654819D02*
X99642857Y-101750057D01*
X100119047Y-101988152D02*
X100119047Y-102654819D01*
X100119047Y-102083390D02*
X100166666Y-102035771D01*
X100166666Y-102035771D02*
X100261904Y-101988152D01*
X100261904Y-101988152D02*
X100404761Y-101988152D01*
X100404761Y-101988152D02*
X100499999Y-102035771D01*
X100499999Y-102035771D02*
X100547618Y-102131009D01*
X100547618Y-102131009D02*
X100547618Y-102654819D01*
X101452380Y-101988152D02*
X101452380Y-102797676D01*
X101452380Y-102797676D02*
X101404761Y-102892914D01*
X101404761Y-102892914D02*
X101357142Y-102940533D01*
X101357142Y-102940533D02*
X101261904Y-102988152D01*
X101261904Y-102988152D02*
X101119047Y-102988152D01*
X101119047Y-102988152D02*
X101023809Y-102940533D01*
X101452380Y-102607200D02*
X101357142Y-102654819D01*
X101357142Y-102654819D02*
X101166666Y-102654819D01*
X101166666Y-102654819D02*
X101071428Y-102607200D01*
X101071428Y-102607200D02*
X101023809Y-102559580D01*
X101023809Y-102559580D02*
X100976190Y-102464342D01*
X100976190Y-102464342D02*
X100976190Y-102178628D01*
X100976190Y-102178628D02*
X101023809Y-102083390D01*
X101023809Y-102083390D02*
X101071428Y-102035771D01*
X101071428Y-102035771D02*
X101166666Y-101988152D01*
X101166666Y-101988152D02*
X101357142Y-101988152D01*
X101357142Y-101988152D02*
X101452380Y-102035771D01*
X101928571Y-102654819D02*
X101928571Y-101654819D01*
X101928571Y-102131009D02*
X102499999Y-102131009D01*
X102499999Y-102654819D02*
X102499999Y-101654819D01*
X103119047Y-102654819D02*
X103023809Y-102607200D01*
X103023809Y-102607200D02*
X102976190Y-102559580D01*
X102976190Y-102559580D02*
X102928571Y-102464342D01*
X102928571Y-102464342D02*
X102928571Y-102178628D01*
X102928571Y-102178628D02*
X102976190Y-102083390D01*
X102976190Y-102083390D02*
X103023809Y-102035771D01*
X103023809Y-102035771D02*
X103119047Y-101988152D01*
X103119047Y-101988152D02*
X103261904Y-101988152D01*
X103261904Y-101988152D02*
X103357142Y-102035771D01*
X103357142Y-102035771D02*
X103404761Y-102083390D01*
X103404761Y-102083390D02*
X103452380Y-102178628D01*
X103452380Y-102178628D02*
X103452380Y-102464342D01*
X103452380Y-102464342D02*
X103404761Y-102559580D01*
X103404761Y-102559580D02*
X103357142Y-102607200D01*
X103357142Y-102607200D02*
X103261904Y-102654819D01*
X103261904Y-102654819D02*
X103119047Y-102654819D01*
X104023809Y-102654819D02*
X103928571Y-102607200D01*
X103928571Y-102607200D02*
X103880952Y-102511961D01*
X103880952Y-102511961D02*
X103880952Y-101654819D01*
X104785714Y-102607200D02*
X104690476Y-102654819D01*
X104690476Y-102654819D02*
X104500000Y-102654819D01*
X104500000Y-102654819D02*
X104404762Y-102607200D01*
X104404762Y-102607200D02*
X104357143Y-102511961D01*
X104357143Y-102511961D02*
X104357143Y-102131009D01*
X104357143Y-102131009D02*
X104404762Y-102035771D01*
X104404762Y-102035771D02*
X104500000Y-101988152D01*
X104500000Y-101988152D02*
X104690476Y-101988152D01*
X104690476Y-101988152D02*
X104785714Y-102035771D01*
X104785714Y-102035771D02*
X104833333Y-102131009D01*
X104833333Y-102131009D02*
X104833333Y-102226247D01*
X104833333Y-102226247D02*
X104357143Y-102321485D01*
X99238095Y-98454819D02*
X99238095Y-97454819D01*
X99238095Y-97931009D02*
X99809523Y-97931009D01*
X99809523Y-98454819D02*
X99809523Y-97454819D01*
X100190476Y-97454819D02*
X100809523Y-97454819D01*
X100809523Y-97454819D02*
X100476190Y-97835771D01*
X100476190Y-97835771D02*
X100619047Y-97835771D01*
X100619047Y-97835771D02*
X100714285Y-97883390D01*
X100714285Y-97883390D02*
X100761904Y-97931009D01*
X100761904Y-97931009D02*
X100809523Y-98026247D01*
X100809523Y-98026247D02*
X100809523Y-98264342D01*
X100809523Y-98264342D02*
X100761904Y-98359580D01*
X100761904Y-98359580D02*
X100714285Y-98407200D01*
X100714285Y-98407200D02*
X100619047Y-98454819D01*
X100619047Y-98454819D02*
X100333333Y-98454819D01*
X100333333Y-98454819D02*
X100238095Y-98407200D01*
X100238095Y-98407200D02*
X100190476Y-98359580D01*
X109357142Y-104954819D02*
X108880952Y-104954819D01*
X108880952Y-104954819D02*
X108880952Y-103954819D01*
X109690476Y-104431009D02*
X110023809Y-104431009D01*
X110166666Y-104954819D02*
X109690476Y-104954819D01*
X109690476Y-104954819D02*
X109690476Y-103954819D01*
X109690476Y-103954819D02*
X110166666Y-103954819D01*
X110595238Y-104954819D02*
X110595238Y-103954819D01*
X110595238Y-103954819D02*
X110833333Y-103954819D01*
X110833333Y-103954819D02*
X110976190Y-104002438D01*
X110976190Y-104002438D02*
X111071428Y-104097676D01*
X111071428Y-104097676D02*
X111119047Y-104192914D01*
X111119047Y-104192914D02*
X111166666Y-104383390D01*
X111166666Y-104383390D02*
X111166666Y-104526247D01*
X111166666Y-104526247D02*
X111119047Y-104716723D01*
X111119047Y-104716723D02*
X111071428Y-104811961D01*
X111071428Y-104811961D02*
X110976190Y-104907200D01*
X110976190Y-104907200D02*
X110833333Y-104954819D01*
X110833333Y-104954819D02*
X110595238Y-104954819D01*
D11*
X109630952Y-107226109D02*
X109630952Y-106726109D01*
X109630952Y-106726109D02*
X109750000Y-106726109D01*
X109750000Y-106726109D02*
X109821428Y-106749919D01*
X109821428Y-106749919D02*
X109869047Y-106797538D01*
X109869047Y-106797538D02*
X109892857Y-106845157D01*
X109892857Y-106845157D02*
X109916666Y-106940395D01*
X109916666Y-106940395D02*
X109916666Y-107011823D01*
X109916666Y-107011823D02*
X109892857Y-107107061D01*
X109892857Y-107107061D02*
X109869047Y-107154680D01*
X109869047Y-107154680D02*
X109821428Y-107202300D01*
X109821428Y-107202300D02*
X109750000Y-107226109D01*
X109750000Y-107226109D02*
X109630952Y-107226109D01*
X110154762Y-107226109D02*
X110250000Y-107226109D01*
X110250000Y-107226109D02*
X110297619Y-107202300D01*
X110297619Y-107202300D02*
X110321428Y-107178490D01*
X110321428Y-107178490D02*
X110369047Y-107107061D01*
X110369047Y-107107061D02*
X110392857Y-107011823D01*
X110392857Y-107011823D02*
X110392857Y-106821347D01*
X110392857Y-106821347D02*
X110369047Y-106773728D01*
X110369047Y-106773728D02*
X110345238Y-106749919D01*
X110345238Y-106749919D02*
X110297619Y-106726109D01*
X110297619Y-106726109D02*
X110202381Y-106726109D01*
X110202381Y-106726109D02*
X110154762Y-106749919D01*
X110154762Y-106749919D02*
X110130952Y-106773728D01*
X110130952Y-106773728D02*
X110107143Y-106821347D01*
X110107143Y-106821347D02*
X110107143Y-106940395D01*
X110107143Y-106940395D02*
X110130952Y-106988014D01*
X110130952Y-106988014D02*
X110154762Y-107011823D01*
X110154762Y-107011823D02*
X110202381Y-107035633D01*
X110202381Y-107035633D02*
X110297619Y-107035633D01*
X110297619Y-107035633D02*
X110345238Y-107011823D01*
X110345238Y-107011823D02*
X110369047Y-106988014D01*
X110369047Y-106988014D02*
X110392857Y-106940395D01*
D10*
X175214285Y-102654819D02*
X175214285Y-101654819D01*
X175214285Y-101654819D02*
X175547618Y-102369104D01*
X175547618Y-102369104D02*
X175880951Y-101654819D01*
X175880951Y-101654819D02*
X175880951Y-102654819D01*
X176499999Y-102654819D02*
X176404761Y-102607200D01*
X176404761Y-102607200D02*
X176357142Y-102559580D01*
X176357142Y-102559580D02*
X176309523Y-102464342D01*
X176309523Y-102464342D02*
X176309523Y-102178628D01*
X176309523Y-102178628D02*
X176357142Y-102083390D01*
X176357142Y-102083390D02*
X176404761Y-102035771D01*
X176404761Y-102035771D02*
X176499999Y-101988152D01*
X176499999Y-101988152D02*
X176642856Y-101988152D01*
X176642856Y-101988152D02*
X176738094Y-102035771D01*
X176738094Y-102035771D02*
X176785713Y-102083390D01*
X176785713Y-102083390D02*
X176833332Y-102178628D01*
X176833332Y-102178628D02*
X176833332Y-102464342D01*
X176833332Y-102464342D02*
X176785713Y-102559580D01*
X176785713Y-102559580D02*
X176738094Y-102607200D01*
X176738094Y-102607200D02*
X176642856Y-102654819D01*
X176642856Y-102654819D02*
X176499999Y-102654819D01*
X177690475Y-101988152D02*
X177690475Y-102654819D01*
X177261904Y-101988152D02*
X177261904Y-102511961D01*
X177261904Y-102511961D02*
X177309523Y-102607200D01*
X177309523Y-102607200D02*
X177404761Y-102654819D01*
X177404761Y-102654819D02*
X177547618Y-102654819D01*
X177547618Y-102654819D02*
X177642856Y-102607200D01*
X177642856Y-102607200D02*
X177690475Y-102559580D01*
X178166666Y-101988152D02*
X178166666Y-102654819D01*
X178166666Y-102083390D02*
X178214285Y-102035771D01*
X178214285Y-102035771D02*
X178309523Y-101988152D01*
X178309523Y-101988152D02*
X178452380Y-101988152D01*
X178452380Y-101988152D02*
X178547618Y-102035771D01*
X178547618Y-102035771D02*
X178595237Y-102131009D01*
X178595237Y-102131009D02*
X178595237Y-102654819D01*
X178928571Y-101988152D02*
X179309523Y-101988152D01*
X179071428Y-101654819D02*
X179071428Y-102511961D01*
X179071428Y-102511961D02*
X179119047Y-102607200D01*
X179119047Y-102607200D02*
X179214285Y-102654819D01*
X179214285Y-102654819D02*
X179309523Y-102654819D01*
X179642857Y-102654819D02*
X179642857Y-101988152D01*
X179642857Y-101654819D02*
X179595238Y-101702438D01*
X179595238Y-101702438D02*
X179642857Y-101750057D01*
X179642857Y-101750057D02*
X179690476Y-101702438D01*
X179690476Y-101702438D02*
X179642857Y-101654819D01*
X179642857Y-101654819D02*
X179642857Y-101750057D01*
X180119047Y-101988152D02*
X180119047Y-102654819D01*
X180119047Y-102083390D02*
X180166666Y-102035771D01*
X180166666Y-102035771D02*
X180261904Y-101988152D01*
X180261904Y-101988152D02*
X180404761Y-101988152D01*
X180404761Y-101988152D02*
X180499999Y-102035771D01*
X180499999Y-102035771D02*
X180547618Y-102131009D01*
X180547618Y-102131009D02*
X180547618Y-102654819D01*
X181452380Y-101988152D02*
X181452380Y-102797676D01*
X181452380Y-102797676D02*
X181404761Y-102892914D01*
X181404761Y-102892914D02*
X181357142Y-102940533D01*
X181357142Y-102940533D02*
X181261904Y-102988152D01*
X181261904Y-102988152D02*
X181119047Y-102988152D01*
X181119047Y-102988152D02*
X181023809Y-102940533D01*
X181452380Y-102607200D02*
X181357142Y-102654819D01*
X181357142Y-102654819D02*
X181166666Y-102654819D01*
X181166666Y-102654819D02*
X181071428Y-102607200D01*
X181071428Y-102607200D02*
X181023809Y-102559580D01*
X181023809Y-102559580D02*
X180976190Y-102464342D01*
X180976190Y-102464342D02*
X180976190Y-102178628D01*
X180976190Y-102178628D02*
X181023809Y-102083390D01*
X181023809Y-102083390D02*
X181071428Y-102035771D01*
X181071428Y-102035771D02*
X181166666Y-101988152D01*
X181166666Y-101988152D02*
X181357142Y-101988152D01*
X181357142Y-101988152D02*
X181452380Y-102035771D01*
X181928571Y-102654819D02*
X181928571Y-101654819D01*
X181928571Y-102131009D02*
X182499999Y-102131009D01*
X182499999Y-102654819D02*
X182499999Y-101654819D01*
X183119047Y-102654819D02*
X183023809Y-102607200D01*
X183023809Y-102607200D02*
X182976190Y-102559580D01*
X182976190Y-102559580D02*
X182928571Y-102464342D01*
X182928571Y-102464342D02*
X182928571Y-102178628D01*
X182928571Y-102178628D02*
X182976190Y-102083390D01*
X182976190Y-102083390D02*
X183023809Y-102035771D01*
X183023809Y-102035771D02*
X183119047Y-101988152D01*
X183119047Y-101988152D02*
X183261904Y-101988152D01*
X183261904Y-101988152D02*
X183357142Y-102035771D01*
X183357142Y-102035771D02*
X183404761Y-102083390D01*
X183404761Y-102083390D02*
X183452380Y-102178628D01*
X183452380Y-102178628D02*
X183452380Y-102464342D01*
X183452380Y-102464342D02*
X183404761Y-102559580D01*
X183404761Y-102559580D02*
X183357142Y-102607200D01*
X183357142Y-102607200D02*
X183261904Y-102654819D01*
X183261904Y-102654819D02*
X183119047Y-102654819D01*
X184023809Y-102654819D02*
X183928571Y-102607200D01*
X183928571Y-102607200D02*
X183880952Y-102511961D01*
X183880952Y-102511961D02*
X183880952Y-101654819D01*
X184785714Y-102607200D02*
X184690476Y-102654819D01*
X184690476Y-102654819D02*
X184500000Y-102654819D01*
X184500000Y-102654819D02*
X184404762Y-102607200D01*
X184404762Y-102607200D02*
X184357143Y-102511961D01*
X184357143Y-102511961D02*
X184357143Y-102131009D01*
X184357143Y-102131009D02*
X184404762Y-102035771D01*
X184404762Y-102035771D02*
X184500000Y-101988152D01*
X184500000Y-101988152D02*
X184690476Y-101988152D01*
X184690476Y-101988152D02*
X184785714Y-102035771D01*
X184785714Y-102035771D02*
X184833333Y-102131009D01*
X184833333Y-102131009D02*
X184833333Y-102226247D01*
X184833333Y-102226247D02*
X184357143Y-102321485D01*
X179238095Y-98454819D02*
X179238095Y-97454819D01*
X179238095Y-97931009D02*
X179809523Y-97931009D01*
X179809523Y-98454819D02*
X179809523Y-97454819D01*
X180714285Y-97788152D02*
X180714285Y-98454819D01*
X180476190Y-97407200D02*
X180238095Y-98121485D01*
X180238095Y-98121485D02*
X180857142Y-98121485D01*
X93162856Y-80512438D02*
X93067618Y-80464819D01*
X93067618Y-80464819D02*
X92924761Y-80464819D01*
X92924761Y-80464819D02*
X92781904Y-80512438D01*
X92781904Y-80512438D02*
X92686666Y-80607676D01*
X92686666Y-80607676D02*
X92639047Y-80702914D01*
X92639047Y-80702914D02*
X92591428Y-80893390D01*
X92591428Y-80893390D02*
X92591428Y-81036247D01*
X92591428Y-81036247D02*
X92639047Y-81226723D01*
X92639047Y-81226723D02*
X92686666Y-81321961D01*
X92686666Y-81321961D02*
X92781904Y-81417200D01*
X92781904Y-81417200D02*
X92924761Y-81464819D01*
X92924761Y-81464819D02*
X93019999Y-81464819D01*
X93019999Y-81464819D02*
X93162856Y-81417200D01*
X93162856Y-81417200D02*
X93210475Y-81369580D01*
X93210475Y-81369580D02*
X93210475Y-81036247D01*
X93210475Y-81036247D02*
X93019999Y-81036247D01*
X93639047Y-81464819D02*
X93639047Y-80798152D01*
X93639047Y-80988628D02*
X93686666Y-80893390D01*
X93686666Y-80893390D02*
X93734285Y-80845771D01*
X93734285Y-80845771D02*
X93829523Y-80798152D01*
X93829523Y-80798152D02*
X93924761Y-80798152D01*
X94639047Y-81417200D02*
X94543809Y-81464819D01*
X94543809Y-81464819D02*
X94353333Y-81464819D01*
X94353333Y-81464819D02*
X94258095Y-81417200D01*
X94258095Y-81417200D02*
X94210476Y-81321961D01*
X94210476Y-81321961D02*
X94210476Y-80941009D01*
X94210476Y-80941009D02*
X94258095Y-80845771D01*
X94258095Y-80845771D02*
X94353333Y-80798152D01*
X94353333Y-80798152D02*
X94543809Y-80798152D01*
X94543809Y-80798152D02*
X94639047Y-80845771D01*
X94639047Y-80845771D02*
X94686666Y-80941009D01*
X94686666Y-80941009D02*
X94686666Y-81036247D01*
X94686666Y-81036247D02*
X94210476Y-81131485D01*
X95496190Y-81417200D02*
X95400952Y-81464819D01*
X95400952Y-81464819D02*
X95210476Y-81464819D01*
X95210476Y-81464819D02*
X95115238Y-81417200D01*
X95115238Y-81417200D02*
X95067619Y-81321961D01*
X95067619Y-81321961D02*
X95067619Y-80941009D01*
X95067619Y-80941009D02*
X95115238Y-80845771D01*
X95115238Y-80845771D02*
X95210476Y-80798152D01*
X95210476Y-80798152D02*
X95400952Y-80798152D01*
X95400952Y-80798152D02*
X95496190Y-80845771D01*
X95496190Y-80845771D02*
X95543809Y-80941009D01*
X95543809Y-80941009D02*
X95543809Y-81036247D01*
X95543809Y-81036247D02*
X95067619Y-81131485D01*
X95972381Y-80798152D02*
X95972381Y-81464819D01*
X95972381Y-80893390D02*
X96020000Y-80845771D01*
X96020000Y-80845771D02*
X96115238Y-80798152D01*
X96115238Y-80798152D02*
X96258095Y-80798152D01*
X96258095Y-80798152D02*
X96353333Y-80845771D01*
X96353333Y-80845771D02*
X96400952Y-80941009D01*
X96400952Y-80941009D02*
X96400952Y-81464819D01*
X97639048Y-81464819D02*
X97639048Y-80464819D01*
X97639048Y-80845771D02*
X97734286Y-80798152D01*
X97734286Y-80798152D02*
X97924762Y-80798152D01*
X97924762Y-80798152D02*
X98020000Y-80845771D01*
X98020000Y-80845771D02*
X98067619Y-80893390D01*
X98067619Y-80893390D02*
X98115238Y-80988628D01*
X98115238Y-80988628D02*
X98115238Y-81274342D01*
X98115238Y-81274342D02*
X98067619Y-81369580D01*
X98067619Y-81369580D02*
X98020000Y-81417200D01*
X98020000Y-81417200D02*
X97924762Y-81464819D01*
X97924762Y-81464819D02*
X97734286Y-81464819D01*
X97734286Y-81464819D02*
X97639048Y-81417200D01*
X98972381Y-81464819D02*
X98972381Y-80941009D01*
X98972381Y-80941009D02*
X98924762Y-80845771D01*
X98924762Y-80845771D02*
X98829524Y-80798152D01*
X98829524Y-80798152D02*
X98639048Y-80798152D01*
X98639048Y-80798152D02*
X98543810Y-80845771D01*
X98972381Y-81417200D02*
X98877143Y-81464819D01*
X98877143Y-81464819D02*
X98639048Y-81464819D01*
X98639048Y-81464819D02*
X98543810Y-81417200D01*
X98543810Y-81417200D02*
X98496191Y-81321961D01*
X98496191Y-81321961D02*
X98496191Y-81226723D01*
X98496191Y-81226723D02*
X98543810Y-81131485D01*
X98543810Y-81131485D02*
X98639048Y-81083866D01*
X98639048Y-81083866D02*
X98877143Y-81083866D01*
X98877143Y-81083866D02*
X98972381Y-81036247D01*
X99448572Y-80798152D02*
X99448572Y-81464819D01*
X99448572Y-80893390D02*
X99496191Y-80845771D01*
X99496191Y-80845771D02*
X99591429Y-80798152D01*
X99591429Y-80798152D02*
X99734286Y-80798152D01*
X99734286Y-80798152D02*
X99829524Y-80845771D01*
X99829524Y-80845771D02*
X99877143Y-80941009D01*
X99877143Y-80941009D02*
X99877143Y-81464819D01*
X100353334Y-81464819D02*
X100353334Y-80464819D01*
X100448572Y-81083866D02*
X100734286Y-81464819D01*
X100734286Y-80798152D02*
X100353334Y-81179104D01*
X102448572Y-81464819D02*
X101877144Y-81464819D01*
X102162858Y-81464819D02*
X102162858Y-80464819D01*
X102162858Y-80464819D02*
X102067620Y-80607676D01*
X102067620Y-80607676D02*
X101972382Y-80702914D01*
X101972382Y-80702914D02*
X101877144Y-80750533D01*
X95791666Y-76424819D02*
X95791666Y-77139104D01*
X95791666Y-77139104D02*
X95744047Y-77281961D01*
X95744047Y-77281961D02*
X95648809Y-77377200D01*
X95648809Y-77377200D02*
X95505952Y-77424819D01*
X95505952Y-77424819D02*
X95410714Y-77424819D01*
X96791666Y-77424819D02*
X96220238Y-77424819D01*
X96505952Y-77424819D02*
X96505952Y-76424819D01*
X96505952Y-76424819D02*
X96410714Y-76567676D01*
X96410714Y-76567676D02*
X96315476Y-76662914D01*
X96315476Y-76662914D02*
X96220238Y-76710533D01*
X109357142Y-74954819D02*
X108880952Y-74954819D01*
X108880952Y-74954819D02*
X108880952Y-73954819D01*
X109690476Y-74431009D02*
X110023809Y-74431009D01*
X110166666Y-74954819D02*
X109690476Y-74954819D01*
X109690476Y-74954819D02*
X109690476Y-73954819D01*
X109690476Y-73954819D02*
X110166666Y-73954819D01*
X110595238Y-74954819D02*
X110595238Y-73954819D01*
X110595238Y-73954819D02*
X110833333Y-73954819D01*
X110833333Y-73954819D02*
X110976190Y-74002438D01*
X110976190Y-74002438D02*
X111071428Y-74097676D01*
X111071428Y-74097676D02*
X111119047Y-74192914D01*
X111119047Y-74192914D02*
X111166666Y-74383390D01*
X111166666Y-74383390D02*
X111166666Y-74526247D01*
X111166666Y-74526247D02*
X111119047Y-74716723D01*
X111119047Y-74716723D02*
X111071428Y-74811961D01*
X111071428Y-74811961D02*
X110976190Y-74907200D01*
X110976190Y-74907200D02*
X110833333Y-74954819D01*
X110833333Y-74954819D02*
X110595238Y-74954819D01*
D11*
X109630952Y-77226109D02*
X109630952Y-76726109D01*
X109630952Y-76726109D02*
X109750000Y-76726109D01*
X109750000Y-76726109D02*
X109821428Y-76749919D01*
X109821428Y-76749919D02*
X109869047Y-76797538D01*
X109869047Y-76797538D02*
X109892857Y-76845157D01*
X109892857Y-76845157D02*
X109916666Y-76940395D01*
X109916666Y-76940395D02*
X109916666Y-77011823D01*
X109916666Y-77011823D02*
X109892857Y-77107061D01*
X109892857Y-77107061D02*
X109869047Y-77154680D01*
X109869047Y-77154680D02*
X109821428Y-77202300D01*
X109821428Y-77202300D02*
X109750000Y-77226109D01*
X109750000Y-77226109D02*
X109630952Y-77226109D01*
X110392857Y-77226109D02*
X110107143Y-77226109D01*
X110250000Y-77226109D02*
X110250000Y-76726109D01*
X110250000Y-76726109D02*
X110202381Y-76797538D01*
X110202381Y-76797538D02*
X110154762Y-76845157D01*
X110154762Y-76845157D02*
X110107143Y-76868966D01*
D10*
X109457142Y-79204819D02*
X108980952Y-79204819D01*
X108980952Y-79204819D02*
X108980952Y-78204819D01*
X109790476Y-78681009D02*
X110123809Y-78681009D01*
X110266666Y-79204819D02*
X109790476Y-79204819D01*
X109790476Y-79204819D02*
X109790476Y-78204819D01*
X109790476Y-78204819D02*
X110266666Y-78204819D01*
X110695238Y-79204819D02*
X110695238Y-78204819D01*
X110695238Y-78204819D02*
X110933333Y-78204819D01*
X110933333Y-78204819D02*
X111076190Y-78252438D01*
X111076190Y-78252438D02*
X111171428Y-78347676D01*
X111171428Y-78347676D02*
X111219047Y-78442914D01*
X111219047Y-78442914D02*
X111266666Y-78633390D01*
X111266666Y-78633390D02*
X111266666Y-78776247D01*
X111266666Y-78776247D02*
X111219047Y-78966723D01*
X111219047Y-78966723D02*
X111171428Y-79061961D01*
X111171428Y-79061961D02*
X111076190Y-79157200D01*
X111076190Y-79157200D02*
X110933333Y-79204819D01*
X110933333Y-79204819D02*
X110695238Y-79204819D01*
D12*
X109509524Y-81865935D02*
X109509524Y-81065935D01*
X109509524Y-81065935D02*
X109700000Y-81065935D01*
X109700000Y-81065935D02*
X109814286Y-81104030D01*
X109814286Y-81104030D02*
X109890476Y-81180220D01*
X109890476Y-81180220D02*
X109928571Y-81256411D01*
X109928571Y-81256411D02*
X109966667Y-81408792D01*
X109966667Y-81408792D02*
X109966667Y-81523078D01*
X109966667Y-81523078D02*
X109928571Y-81675459D01*
X109928571Y-81675459D02*
X109890476Y-81751649D01*
X109890476Y-81751649D02*
X109814286Y-81827840D01*
X109814286Y-81827840D02*
X109700000Y-81865935D01*
X109700000Y-81865935D02*
X109509524Y-81865935D01*
X110690476Y-81065935D02*
X110309524Y-81065935D01*
X110309524Y-81065935D02*
X110271428Y-81446887D01*
X110271428Y-81446887D02*
X110309524Y-81408792D01*
X110309524Y-81408792D02*
X110385714Y-81370697D01*
X110385714Y-81370697D02*
X110576190Y-81370697D01*
X110576190Y-81370697D02*
X110652381Y-81408792D01*
X110652381Y-81408792D02*
X110690476Y-81446887D01*
X110690476Y-81446887D02*
X110728571Y-81523078D01*
X110728571Y-81523078D02*
X110728571Y-81713554D01*
X110728571Y-81713554D02*
X110690476Y-81789744D01*
X110690476Y-81789744D02*
X110652381Y-81827840D01*
X110652381Y-81827840D02*
X110576190Y-81865935D01*
X110576190Y-81865935D02*
X110385714Y-81865935D01*
X110385714Y-81865935D02*
X110309524Y-81827840D01*
X110309524Y-81827840D02*
X110271428Y-81789744D01*
D10*
X109457142Y-109204819D02*
X108980952Y-109204819D01*
X108980952Y-109204819D02*
X108980952Y-108204819D01*
X109790476Y-108681009D02*
X110123809Y-108681009D01*
X110266666Y-109204819D02*
X109790476Y-109204819D01*
X109790476Y-109204819D02*
X109790476Y-108204819D01*
X109790476Y-108204819D02*
X110266666Y-108204819D01*
X110695238Y-109204819D02*
X110695238Y-108204819D01*
X110695238Y-108204819D02*
X110933333Y-108204819D01*
X110933333Y-108204819D02*
X111076190Y-108252438D01*
X111076190Y-108252438D02*
X111171428Y-108347676D01*
X111171428Y-108347676D02*
X111219047Y-108442914D01*
X111219047Y-108442914D02*
X111266666Y-108633390D01*
X111266666Y-108633390D02*
X111266666Y-108776247D01*
X111266666Y-108776247D02*
X111219047Y-108966723D01*
X111219047Y-108966723D02*
X111171428Y-109061961D01*
X111171428Y-109061961D02*
X111076190Y-109157200D01*
X111076190Y-109157200D02*
X110933333Y-109204819D01*
X110933333Y-109204819D02*
X110695238Y-109204819D01*
D12*
X109128571Y-111865935D02*
X109128571Y-111065935D01*
X109128571Y-111065935D02*
X109319047Y-111065935D01*
X109319047Y-111065935D02*
X109433333Y-111104030D01*
X109433333Y-111104030D02*
X109509523Y-111180220D01*
X109509523Y-111180220D02*
X109547618Y-111256411D01*
X109547618Y-111256411D02*
X109585714Y-111408792D01*
X109585714Y-111408792D02*
X109585714Y-111523078D01*
X109585714Y-111523078D02*
X109547618Y-111675459D01*
X109547618Y-111675459D02*
X109509523Y-111751649D01*
X109509523Y-111751649D02*
X109433333Y-111827840D01*
X109433333Y-111827840D02*
X109319047Y-111865935D01*
X109319047Y-111865935D02*
X109128571Y-111865935D01*
X110347618Y-111865935D02*
X109890475Y-111865935D01*
X110119047Y-111865935D02*
X110119047Y-111065935D01*
X110119047Y-111065935D02*
X110042856Y-111180220D01*
X110042856Y-111180220D02*
X109966666Y-111256411D01*
X109966666Y-111256411D02*
X109890475Y-111294506D01*
X110614285Y-111065935D02*
X111109523Y-111065935D01*
X111109523Y-111065935D02*
X110842857Y-111370697D01*
X110842857Y-111370697D02*
X110957142Y-111370697D01*
X110957142Y-111370697D02*
X111033333Y-111408792D01*
X111033333Y-111408792D02*
X111071428Y-111446887D01*
X111071428Y-111446887D02*
X111109523Y-111523078D01*
X111109523Y-111523078D02*
X111109523Y-111713554D01*
X111109523Y-111713554D02*
X111071428Y-111789744D01*
X111071428Y-111789744D02*
X111033333Y-111827840D01*
X111033333Y-111827840D02*
X110957142Y-111865935D01*
X110957142Y-111865935D02*
X110728571Y-111865935D01*
X110728571Y-111865935D02*
X110652380Y-111827840D01*
X110652380Y-111827840D02*
X110614285Y-111789744D01*
D10*
X95214285Y-72654819D02*
X95214285Y-71654819D01*
X95214285Y-71654819D02*
X95547618Y-72369104D01*
X95547618Y-72369104D02*
X95880951Y-71654819D01*
X95880951Y-71654819D02*
X95880951Y-72654819D01*
X96499999Y-72654819D02*
X96404761Y-72607200D01*
X96404761Y-72607200D02*
X96357142Y-72559580D01*
X96357142Y-72559580D02*
X96309523Y-72464342D01*
X96309523Y-72464342D02*
X96309523Y-72178628D01*
X96309523Y-72178628D02*
X96357142Y-72083390D01*
X96357142Y-72083390D02*
X96404761Y-72035771D01*
X96404761Y-72035771D02*
X96499999Y-71988152D01*
X96499999Y-71988152D02*
X96642856Y-71988152D01*
X96642856Y-71988152D02*
X96738094Y-72035771D01*
X96738094Y-72035771D02*
X96785713Y-72083390D01*
X96785713Y-72083390D02*
X96833332Y-72178628D01*
X96833332Y-72178628D02*
X96833332Y-72464342D01*
X96833332Y-72464342D02*
X96785713Y-72559580D01*
X96785713Y-72559580D02*
X96738094Y-72607200D01*
X96738094Y-72607200D02*
X96642856Y-72654819D01*
X96642856Y-72654819D02*
X96499999Y-72654819D01*
X97690475Y-71988152D02*
X97690475Y-72654819D01*
X97261904Y-71988152D02*
X97261904Y-72511961D01*
X97261904Y-72511961D02*
X97309523Y-72607200D01*
X97309523Y-72607200D02*
X97404761Y-72654819D01*
X97404761Y-72654819D02*
X97547618Y-72654819D01*
X97547618Y-72654819D02*
X97642856Y-72607200D01*
X97642856Y-72607200D02*
X97690475Y-72559580D01*
X98166666Y-71988152D02*
X98166666Y-72654819D01*
X98166666Y-72083390D02*
X98214285Y-72035771D01*
X98214285Y-72035771D02*
X98309523Y-71988152D01*
X98309523Y-71988152D02*
X98452380Y-71988152D01*
X98452380Y-71988152D02*
X98547618Y-72035771D01*
X98547618Y-72035771D02*
X98595237Y-72131009D01*
X98595237Y-72131009D02*
X98595237Y-72654819D01*
X98928571Y-71988152D02*
X99309523Y-71988152D01*
X99071428Y-71654819D02*
X99071428Y-72511961D01*
X99071428Y-72511961D02*
X99119047Y-72607200D01*
X99119047Y-72607200D02*
X99214285Y-72654819D01*
X99214285Y-72654819D02*
X99309523Y-72654819D01*
X99642857Y-72654819D02*
X99642857Y-71988152D01*
X99642857Y-71654819D02*
X99595238Y-71702438D01*
X99595238Y-71702438D02*
X99642857Y-71750057D01*
X99642857Y-71750057D02*
X99690476Y-71702438D01*
X99690476Y-71702438D02*
X99642857Y-71654819D01*
X99642857Y-71654819D02*
X99642857Y-71750057D01*
X100119047Y-71988152D02*
X100119047Y-72654819D01*
X100119047Y-72083390D02*
X100166666Y-72035771D01*
X100166666Y-72035771D02*
X100261904Y-71988152D01*
X100261904Y-71988152D02*
X100404761Y-71988152D01*
X100404761Y-71988152D02*
X100499999Y-72035771D01*
X100499999Y-72035771D02*
X100547618Y-72131009D01*
X100547618Y-72131009D02*
X100547618Y-72654819D01*
X101452380Y-71988152D02*
X101452380Y-72797676D01*
X101452380Y-72797676D02*
X101404761Y-72892914D01*
X101404761Y-72892914D02*
X101357142Y-72940533D01*
X101357142Y-72940533D02*
X101261904Y-72988152D01*
X101261904Y-72988152D02*
X101119047Y-72988152D01*
X101119047Y-72988152D02*
X101023809Y-72940533D01*
X101452380Y-72607200D02*
X101357142Y-72654819D01*
X101357142Y-72654819D02*
X101166666Y-72654819D01*
X101166666Y-72654819D02*
X101071428Y-72607200D01*
X101071428Y-72607200D02*
X101023809Y-72559580D01*
X101023809Y-72559580D02*
X100976190Y-72464342D01*
X100976190Y-72464342D02*
X100976190Y-72178628D01*
X100976190Y-72178628D02*
X101023809Y-72083390D01*
X101023809Y-72083390D02*
X101071428Y-72035771D01*
X101071428Y-72035771D02*
X101166666Y-71988152D01*
X101166666Y-71988152D02*
X101357142Y-71988152D01*
X101357142Y-71988152D02*
X101452380Y-72035771D01*
X101928571Y-72654819D02*
X101928571Y-71654819D01*
X101928571Y-72131009D02*
X102499999Y-72131009D01*
X102499999Y-72654819D02*
X102499999Y-71654819D01*
X103119047Y-72654819D02*
X103023809Y-72607200D01*
X103023809Y-72607200D02*
X102976190Y-72559580D01*
X102976190Y-72559580D02*
X102928571Y-72464342D01*
X102928571Y-72464342D02*
X102928571Y-72178628D01*
X102928571Y-72178628D02*
X102976190Y-72083390D01*
X102976190Y-72083390D02*
X103023809Y-72035771D01*
X103023809Y-72035771D02*
X103119047Y-71988152D01*
X103119047Y-71988152D02*
X103261904Y-71988152D01*
X103261904Y-71988152D02*
X103357142Y-72035771D01*
X103357142Y-72035771D02*
X103404761Y-72083390D01*
X103404761Y-72083390D02*
X103452380Y-72178628D01*
X103452380Y-72178628D02*
X103452380Y-72464342D01*
X103452380Y-72464342D02*
X103404761Y-72559580D01*
X103404761Y-72559580D02*
X103357142Y-72607200D01*
X103357142Y-72607200D02*
X103261904Y-72654819D01*
X103261904Y-72654819D02*
X103119047Y-72654819D01*
X104023809Y-72654819D02*
X103928571Y-72607200D01*
X103928571Y-72607200D02*
X103880952Y-72511961D01*
X103880952Y-72511961D02*
X103880952Y-71654819D01*
X104785714Y-72607200D02*
X104690476Y-72654819D01*
X104690476Y-72654819D02*
X104500000Y-72654819D01*
X104500000Y-72654819D02*
X104404762Y-72607200D01*
X104404762Y-72607200D02*
X104357143Y-72511961D01*
X104357143Y-72511961D02*
X104357143Y-72131009D01*
X104357143Y-72131009D02*
X104404762Y-72035771D01*
X104404762Y-72035771D02*
X104500000Y-71988152D01*
X104500000Y-71988152D02*
X104690476Y-71988152D01*
X104690476Y-71988152D02*
X104785714Y-72035771D01*
X104785714Y-72035771D02*
X104833333Y-72131009D01*
X104833333Y-72131009D02*
X104833333Y-72226247D01*
X104833333Y-72226247D02*
X104357143Y-72321485D01*
X99238095Y-68454819D02*
X99238095Y-67454819D01*
X99238095Y-67931009D02*
X99809523Y-67931009D01*
X99809523Y-68454819D02*
X99809523Y-67454819D01*
X100809523Y-68454819D02*
X100238095Y-68454819D01*
X100523809Y-68454819D02*
X100523809Y-67454819D01*
X100523809Y-67454819D02*
X100428571Y-67597676D01*
X100428571Y-67597676D02*
X100333333Y-67692914D01*
X100333333Y-67692914D02*
X100238095Y-67740533D01*
X169457142Y-109204819D02*
X168980952Y-109204819D01*
X168980952Y-109204819D02*
X168980952Y-108204819D01*
X169790476Y-108681009D02*
X170123809Y-108681009D01*
X170266666Y-109204819D02*
X169790476Y-109204819D01*
X169790476Y-109204819D02*
X169790476Y-108204819D01*
X169790476Y-108204819D02*
X170266666Y-108204819D01*
X170695238Y-109204819D02*
X170695238Y-108204819D01*
X170695238Y-108204819D02*
X170933333Y-108204819D01*
X170933333Y-108204819D02*
X171076190Y-108252438D01*
X171076190Y-108252438D02*
X171171428Y-108347676D01*
X171171428Y-108347676D02*
X171219047Y-108442914D01*
X171219047Y-108442914D02*
X171266666Y-108633390D01*
X171266666Y-108633390D02*
X171266666Y-108776247D01*
X171266666Y-108776247D02*
X171219047Y-108966723D01*
X171219047Y-108966723D02*
X171171428Y-109061961D01*
X171171428Y-109061961D02*
X171076190Y-109157200D01*
X171076190Y-109157200D02*
X170933333Y-109204819D01*
X170933333Y-109204819D02*
X170695238Y-109204819D01*
D11*
%TO.C,D10*%
X141700000Y-108500000D02*
X141700000Y-105500000D01*
X141700000Y-107600000D02*
X140800000Y-108500000D01*
X141700000Y-105500000D02*
X138300000Y-105500000D01*
X138300000Y-108500000D02*
X141700000Y-108500000D01*
X138300000Y-105500000D02*
X138300000Y-108500000D01*
X141250000Y-107000000D02*
G75*
G03*
X141250000Y-107000000I-1250000J0D01*
G01*
%TO.C,J4*%
X90870000Y-112430000D02*
X98410000Y-112430000D01*
X90870000Y-117510000D02*
X90870000Y-112430000D01*
X98410000Y-112430000D02*
X99380000Y-113400000D01*
X99380000Y-113400000D02*
X99380000Y-117510000D01*
X99380000Y-114000000D02*
X100900000Y-114000000D01*
X99380000Y-116540000D02*
X100900000Y-116540000D01*
X99380000Y-117510000D02*
X90870000Y-117510000D01*
X100900000Y-113400000D02*
X99380000Y-113400000D01*
X100900000Y-114000000D02*
X100900000Y-113400000D01*
X100900000Y-115940000D02*
X99380000Y-115940000D01*
X100900000Y-116540000D02*
X100900000Y-115940000D01*
%TO.C,D6*%
X141750000Y-83150000D02*
X138450000Y-83150000D01*
X141750000Y-79850000D02*
X141750000Y-83150000D01*
X141350000Y-81500000D02*
X140600000Y-81500000D01*
X140600000Y-82000000D02*
X140600000Y-81000000D01*
X140600000Y-81500000D02*
X139600000Y-82000000D01*
X139600000Y-82000000D02*
X139600000Y-81000000D01*
X139600000Y-81000000D02*
X140600000Y-81500000D01*
X138850000Y-81500000D02*
X139600000Y-81500000D01*
X138450000Y-83150000D02*
X138450000Y-79850000D01*
X138450000Y-79850000D02*
X141750000Y-79850000D01*
%TO.C,J2*%
X91870000Y-81930000D02*
X99410000Y-81930000D01*
X91870000Y-87010000D02*
X91870000Y-81930000D01*
X99410000Y-81930000D02*
X100380000Y-82900000D01*
X100380000Y-82900000D02*
X100380000Y-87010000D01*
X100380000Y-83500000D02*
X101900000Y-83500000D01*
X100380000Y-86040000D02*
X101900000Y-86040000D01*
X100380000Y-87010000D02*
X91870000Y-87010000D01*
X101900000Y-82900000D02*
X100380000Y-82900000D01*
X101900000Y-83500000D02*
X101900000Y-82900000D01*
X101900000Y-85440000D02*
X100380000Y-85440000D01*
X101900000Y-86040000D02*
X101900000Y-85440000D01*
%TO.C,J3*%
X90970000Y-104190000D02*
X98510000Y-104190000D01*
X90970000Y-109270000D02*
X90970000Y-104190000D01*
X98510000Y-104190000D02*
X99480000Y-105160000D01*
X99480000Y-105160000D02*
X99480000Y-109270000D01*
X99480000Y-105760000D02*
X101000000Y-105760000D01*
X99480000Y-108300000D02*
X101000000Y-108300000D01*
X99480000Y-109270000D02*
X90970000Y-109270000D01*
X101000000Y-105160000D02*
X99480000Y-105160000D01*
X101000000Y-105760000D02*
X101000000Y-105160000D01*
X101000000Y-107700000D02*
X99480000Y-107700000D01*
X101000000Y-108300000D02*
X101000000Y-107700000D01*
%TO.C,D7*%
X171650000Y-83150000D02*
X168350000Y-83150000D01*
X171650000Y-79850000D02*
X171650000Y-83150000D01*
X171250000Y-81500000D02*
X170500000Y-81500000D01*
X170500000Y-82000000D02*
X170500000Y-81000000D01*
X170500000Y-81500000D02*
X169500000Y-82000000D01*
X169500000Y-82000000D02*
X169500000Y-81000000D01*
X169500000Y-81000000D02*
X170500000Y-81500000D01*
X168750000Y-81500000D02*
X169500000Y-81500000D01*
X168350000Y-83150000D02*
X168350000Y-79850000D01*
X168350000Y-79850000D02*
X171650000Y-79850000D01*
%TO.C,D3*%
X171700000Y-78500000D02*
X171700000Y-75500000D01*
X171700000Y-77600000D02*
X170800000Y-78500000D01*
X171700000Y-75500000D02*
X168300000Y-75500000D01*
X168300000Y-78500000D02*
X171700000Y-78500000D01*
X168300000Y-75500000D02*
X168300000Y-78500000D01*
X171250000Y-77000000D02*
G75*
G03*
X171250000Y-77000000I-1250000J0D01*
G01*
%TO.C,D14*%
X141750000Y-113150000D02*
X138450000Y-113150000D01*
X141750000Y-109850000D02*
X141750000Y-113150000D01*
X141350000Y-111500000D02*
X140600000Y-111500000D01*
X140600000Y-112000000D02*
X140600000Y-111000000D01*
X140600000Y-111500000D02*
X139600000Y-112000000D01*
X139600000Y-112000000D02*
X139600000Y-111000000D01*
X139600000Y-111000000D02*
X140600000Y-111500000D01*
X138850000Y-111500000D02*
X139600000Y-111500000D01*
X138450000Y-113150000D02*
X138450000Y-109850000D01*
X138450000Y-109850000D02*
X141750000Y-109850000D01*
%TO.C,D11*%
X171700000Y-108500000D02*
X171700000Y-105500000D01*
X171700000Y-107600000D02*
X170800000Y-108500000D01*
X171700000Y-105500000D02*
X168300000Y-105500000D01*
X168300000Y-108500000D02*
X171700000Y-108500000D01*
X168300000Y-105500000D02*
X168300000Y-108500000D01*
X171250000Y-107000000D02*
G75*
G03*
X171250000Y-107000000I-1250000J0D01*
G01*
%TO.C,D2*%
X141700000Y-78500000D02*
X141700000Y-75500000D01*
X141700000Y-77600000D02*
X140800000Y-78500000D01*
X141700000Y-75500000D02*
X138300000Y-75500000D01*
X138300000Y-78500000D02*
X141700000Y-78500000D01*
X138300000Y-75500000D02*
X138300000Y-78500000D01*
X141250000Y-77000000D02*
G75*
G03*
X141250000Y-77000000I-1250000J0D01*
G01*
%TO.C,D9*%
X111700000Y-108500000D02*
X111700000Y-105500000D01*
X111700000Y-107600000D02*
X110800000Y-108500000D01*
X111700000Y-105500000D02*
X108300000Y-105500000D01*
X108300000Y-108500000D02*
X111700000Y-108500000D01*
X108300000Y-105500000D02*
X108300000Y-108500000D01*
X111250000Y-107000000D02*
G75*
G03*
X111250000Y-107000000I-1250000J0D01*
G01*
%TO.C,J1*%
X91870000Y-74430000D02*
X99410000Y-74430000D01*
X91870000Y-79510000D02*
X91870000Y-74430000D01*
X99410000Y-74430000D02*
X100380000Y-75400000D01*
X100380000Y-75400000D02*
X100380000Y-79510000D01*
X100380000Y-76000000D02*
X101900000Y-76000000D01*
X100380000Y-78540000D02*
X101900000Y-78540000D01*
X100380000Y-79510000D02*
X91870000Y-79510000D01*
X101900000Y-75400000D02*
X100380000Y-75400000D01*
X101900000Y-76000000D02*
X101900000Y-75400000D01*
X101900000Y-77940000D02*
X100380000Y-77940000D01*
X101900000Y-78540000D02*
X101900000Y-77940000D01*
%TO.C,D1*%
X111700000Y-78500000D02*
X111700000Y-75500000D01*
X111700000Y-77600000D02*
X110800000Y-78500000D01*
X111700000Y-75500000D02*
X108300000Y-75500000D01*
X108300000Y-78500000D02*
X111700000Y-78500000D01*
X108300000Y-75500000D02*
X108300000Y-78500000D01*
X111250000Y-77000000D02*
G75*
G03*
X111250000Y-77000000I-1250000J0D01*
G01*
%TO.C,D5*%
X111750000Y-83150000D02*
X108450000Y-83150000D01*
X111750000Y-79850000D02*
X111750000Y-83150000D01*
X111350000Y-81500000D02*
X110600000Y-81500000D01*
X110600000Y-82000000D02*
X110600000Y-81000000D01*
X110600000Y-81500000D02*
X109600000Y-82000000D01*
X109600000Y-82000000D02*
X109600000Y-81000000D01*
X109600000Y-81000000D02*
X110600000Y-81500000D01*
X108850000Y-81500000D02*
X109600000Y-81500000D01*
X108450000Y-83150000D02*
X108450000Y-79850000D01*
X108450000Y-79850000D02*
X111750000Y-79850000D01*
%TO.C,D13*%
X111750000Y-113150000D02*
X108450000Y-113150000D01*
X111750000Y-109850000D02*
X111750000Y-113150000D01*
X111350000Y-111500000D02*
X110600000Y-111500000D01*
X110600000Y-112000000D02*
X110600000Y-111000000D01*
X110600000Y-111500000D02*
X109600000Y-112000000D01*
X109600000Y-112000000D02*
X109600000Y-111000000D01*
X109600000Y-111000000D02*
X110600000Y-111500000D01*
X108850000Y-111500000D02*
X109600000Y-111500000D01*
X108450000Y-113150000D02*
X108450000Y-109850000D01*
X108450000Y-109850000D02*
X111750000Y-109850000D01*
%TO.C,D15*%
X171750000Y-113150000D02*
X168450000Y-113150000D01*
X171750000Y-109850000D02*
X171750000Y-113150000D01*
X171350000Y-111500000D02*
X170600000Y-111500000D01*
X170600000Y-112000000D02*
X170600000Y-111000000D01*
X170600000Y-111500000D02*
X169600000Y-112000000D01*
X169600000Y-112000000D02*
X169600000Y-111000000D01*
X169600000Y-111000000D02*
X170600000Y-111500000D01*
X168850000Y-111500000D02*
X169600000Y-111500000D01*
X168450000Y-113150000D02*
X168450000Y-109850000D01*
X168450000Y-109850000D02*
X171750000Y-109850000D01*
%TD*%
M02*
