%TF.GenerationSoftware,KiCad,Pcbnew,8.0.6*%
%TF.CreationDate,2025-01-20T16:12:01+00:00*%
%TF.ProjectId,custom_driver,63757374-6f6d-45f6-9472-697665722e6b,rev?*%
%TF.SameCoordinates,Original*%
%TF.FileFunction,Legend,Top*%
%TF.FilePolarity,Positive*%
%FSLAX46Y46*%
G04 Gerber Fmt 4.6, Leading zero omitted, Abs format (unit mm)*
G04 Created by KiCad (PCBNEW 8.0.6) date 2025-01-20 16:12:01*
%MOMM*%
%LPD*%
G01*
G04 APERTURE LIST*
%ADD10C,0.100000*%
%ADD11C,0.150000*%
%ADD12C,0.120000*%
%ADD13C,0.127000*%
%ADD14C,0.200000*%
G04 APERTURE END LIST*
D10*
X150827693Y-88480262D02*
X150732455Y-88432643D01*
X150732455Y-88432643D02*
X150589598Y-88432643D01*
X150589598Y-88432643D02*
X150446741Y-88480262D01*
X150446741Y-88480262D02*
X150351503Y-88575500D01*
X150351503Y-88575500D02*
X150303884Y-88670738D01*
X150303884Y-88670738D02*
X150256265Y-88861214D01*
X150256265Y-88861214D02*
X150256265Y-89004071D01*
X150256265Y-89004071D02*
X150303884Y-89194547D01*
X150303884Y-89194547D02*
X150351503Y-89289785D01*
X150351503Y-89289785D02*
X150446741Y-89385024D01*
X150446741Y-89385024D02*
X150589598Y-89432643D01*
X150589598Y-89432643D02*
X150684836Y-89432643D01*
X150684836Y-89432643D02*
X150827693Y-89385024D01*
X150827693Y-89385024D02*
X150875312Y-89337404D01*
X150875312Y-89337404D02*
X150875312Y-89004071D01*
X150875312Y-89004071D02*
X150684836Y-89004071D01*
X151732455Y-89432643D02*
X151732455Y-88908833D01*
X151732455Y-88908833D02*
X151684836Y-88813595D01*
X151684836Y-88813595D02*
X151589598Y-88765976D01*
X151589598Y-88765976D02*
X151399122Y-88765976D01*
X151399122Y-88765976D02*
X151303884Y-88813595D01*
X151732455Y-89385024D02*
X151637217Y-89432643D01*
X151637217Y-89432643D02*
X151399122Y-89432643D01*
X151399122Y-89432643D02*
X151303884Y-89385024D01*
X151303884Y-89385024D02*
X151256265Y-89289785D01*
X151256265Y-89289785D02*
X151256265Y-89194547D01*
X151256265Y-89194547D02*
X151303884Y-89099309D01*
X151303884Y-89099309D02*
X151399122Y-89051690D01*
X151399122Y-89051690D02*
X151637217Y-89051690D01*
X151637217Y-89051690D02*
X151732455Y-89004071D01*
X152208646Y-88765976D02*
X152208646Y-89432643D01*
X152208646Y-88861214D02*
X152256265Y-88813595D01*
X152256265Y-88813595D02*
X152351503Y-88765976D01*
X152351503Y-88765976D02*
X152494360Y-88765976D01*
X152494360Y-88765976D02*
X152589598Y-88813595D01*
X152589598Y-88813595D02*
X152637217Y-88908833D01*
X152637217Y-88908833D02*
X152637217Y-89432643D01*
X153018170Y-88765976D02*
X153541979Y-88765976D01*
X153541979Y-88765976D02*
X153018170Y-89432643D01*
X153018170Y-89432643D02*
X153541979Y-89432643D01*
X153780075Y-88765976D02*
X154161027Y-88765976D01*
X153922932Y-89432643D02*
X153922932Y-88575500D01*
X153922932Y-88575500D02*
X153970551Y-88480262D01*
X153970551Y-88480262D02*
X154065789Y-88432643D01*
X154065789Y-88432643D02*
X154161027Y-88432643D01*
X154875313Y-89385024D02*
X154780075Y-89432643D01*
X154780075Y-89432643D02*
X154589599Y-89432643D01*
X154589599Y-89432643D02*
X154494361Y-89385024D01*
X154494361Y-89385024D02*
X154446742Y-89289785D01*
X154446742Y-89289785D02*
X154446742Y-88908833D01*
X154446742Y-88908833D02*
X154494361Y-88813595D01*
X154494361Y-88813595D02*
X154589599Y-88765976D01*
X154589599Y-88765976D02*
X154780075Y-88765976D01*
X154780075Y-88765976D02*
X154875313Y-88813595D01*
X154875313Y-88813595D02*
X154922932Y-88908833D01*
X154922932Y-88908833D02*
X154922932Y-89004071D01*
X154922932Y-89004071D02*
X154446742Y-89099309D01*
X155494361Y-89432643D02*
X155399123Y-89385024D01*
X155399123Y-89385024D02*
X155351504Y-89289785D01*
X155351504Y-89289785D02*
X155351504Y-88432643D01*
X156303885Y-89432643D02*
X156303885Y-88432643D01*
X156303885Y-89385024D02*
X156208647Y-89432643D01*
X156208647Y-89432643D02*
X156018171Y-89432643D01*
X156018171Y-89432643D02*
X155922933Y-89385024D01*
X155922933Y-89385024D02*
X155875314Y-89337404D01*
X155875314Y-89337404D02*
X155827695Y-89242166D01*
X155827695Y-89242166D02*
X155827695Y-88956452D01*
X155827695Y-88956452D02*
X155875314Y-88861214D01*
X155875314Y-88861214D02*
X155922933Y-88813595D01*
X155922933Y-88813595D02*
X156018171Y-88765976D01*
X156018171Y-88765976D02*
X156208647Y-88765976D01*
X156208647Y-88765976D02*
X156303885Y-88813595D01*
X157494362Y-89385024D02*
X157589600Y-89432643D01*
X157589600Y-89432643D02*
X157780076Y-89432643D01*
X157780076Y-89432643D02*
X157875314Y-89385024D01*
X157875314Y-89385024D02*
X157922933Y-89289785D01*
X157922933Y-89289785D02*
X157922933Y-89242166D01*
X157922933Y-89242166D02*
X157875314Y-89146928D01*
X157875314Y-89146928D02*
X157780076Y-89099309D01*
X157780076Y-89099309D02*
X157637219Y-89099309D01*
X157637219Y-89099309D02*
X157541981Y-89051690D01*
X157541981Y-89051690D02*
X157494362Y-88956452D01*
X157494362Y-88956452D02*
X157494362Y-88908833D01*
X157494362Y-88908833D02*
X157541981Y-88813595D01*
X157541981Y-88813595D02*
X157637219Y-88765976D01*
X157637219Y-88765976D02*
X157780076Y-88765976D01*
X157780076Y-88765976D02*
X157875314Y-88813595D01*
X158208648Y-88765976D02*
X158589600Y-88765976D01*
X158351505Y-88432643D02*
X158351505Y-89289785D01*
X158351505Y-89289785D02*
X158399124Y-89385024D01*
X158399124Y-89385024D02*
X158494362Y-89432643D01*
X158494362Y-89432643D02*
X158589600Y-89432643D01*
X158922934Y-89432643D02*
X158922934Y-88765976D01*
X158922934Y-88432643D02*
X158875315Y-88480262D01*
X158875315Y-88480262D02*
X158922934Y-88527881D01*
X158922934Y-88527881D02*
X158970553Y-88480262D01*
X158970553Y-88480262D02*
X158922934Y-88432643D01*
X158922934Y-88432643D02*
X158922934Y-88527881D01*
X159399124Y-89432643D02*
X159399124Y-88765976D01*
X159399124Y-88861214D02*
X159446743Y-88813595D01*
X159446743Y-88813595D02*
X159541981Y-88765976D01*
X159541981Y-88765976D02*
X159684838Y-88765976D01*
X159684838Y-88765976D02*
X159780076Y-88813595D01*
X159780076Y-88813595D02*
X159827695Y-88908833D01*
X159827695Y-88908833D02*
X159827695Y-89432643D01*
X159827695Y-88908833D02*
X159875314Y-88813595D01*
X159875314Y-88813595D02*
X159970552Y-88765976D01*
X159970552Y-88765976D02*
X160113409Y-88765976D01*
X160113409Y-88765976D02*
X160208648Y-88813595D01*
X160208648Y-88813595D02*
X160256267Y-88908833D01*
X160256267Y-88908833D02*
X160256267Y-89432643D01*
X161161028Y-88765976D02*
X161161028Y-89432643D01*
X160732457Y-88765976D02*
X160732457Y-89289785D01*
X160732457Y-89289785D02*
X160780076Y-89385024D01*
X160780076Y-89385024D02*
X160875314Y-89432643D01*
X160875314Y-89432643D02*
X161018171Y-89432643D01*
X161018171Y-89432643D02*
X161113409Y-89385024D01*
X161113409Y-89385024D02*
X161161028Y-89337404D01*
X161780076Y-89432643D02*
X161684838Y-89385024D01*
X161684838Y-89385024D02*
X161637219Y-89289785D01*
X161637219Y-89289785D02*
X161637219Y-88432643D01*
X162589600Y-89432643D02*
X162589600Y-88908833D01*
X162589600Y-88908833D02*
X162541981Y-88813595D01*
X162541981Y-88813595D02*
X162446743Y-88765976D01*
X162446743Y-88765976D02*
X162256267Y-88765976D01*
X162256267Y-88765976D02*
X162161029Y-88813595D01*
X162589600Y-89385024D02*
X162494362Y-89432643D01*
X162494362Y-89432643D02*
X162256267Y-89432643D01*
X162256267Y-89432643D02*
X162161029Y-89385024D01*
X162161029Y-89385024D02*
X162113410Y-89289785D01*
X162113410Y-89289785D02*
X162113410Y-89194547D01*
X162113410Y-89194547D02*
X162161029Y-89099309D01*
X162161029Y-89099309D02*
X162256267Y-89051690D01*
X162256267Y-89051690D02*
X162494362Y-89051690D01*
X162494362Y-89051690D02*
X162589600Y-89004071D01*
X162922934Y-88765976D02*
X163303886Y-88765976D01*
X163065791Y-88432643D02*
X163065791Y-89289785D01*
X163065791Y-89289785D02*
X163113410Y-89385024D01*
X163113410Y-89385024D02*
X163208648Y-89432643D01*
X163208648Y-89432643D02*
X163303886Y-89432643D01*
X163780077Y-89432643D02*
X163684839Y-89385024D01*
X163684839Y-89385024D02*
X163637220Y-89337404D01*
X163637220Y-89337404D02*
X163589601Y-89242166D01*
X163589601Y-89242166D02*
X163589601Y-88956452D01*
X163589601Y-88956452D02*
X163637220Y-88861214D01*
X163637220Y-88861214D02*
X163684839Y-88813595D01*
X163684839Y-88813595D02*
X163780077Y-88765976D01*
X163780077Y-88765976D02*
X163922934Y-88765976D01*
X163922934Y-88765976D02*
X164018172Y-88813595D01*
X164018172Y-88813595D02*
X164065791Y-88861214D01*
X164065791Y-88861214D02*
X164113410Y-88956452D01*
X164113410Y-88956452D02*
X164113410Y-89242166D01*
X164113410Y-89242166D02*
X164065791Y-89337404D01*
X164065791Y-89337404D02*
X164018172Y-89385024D01*
X164018172Y-89385024D02*
X163922934Y-89432643D01*
X163922934Y-89432643D02*
X163780077Y-89432643D01*
X164541982Y-89432643D02*
X164541982Y-88765976D01*
X164541982Y-88956452D02*
X164589601Y-88861214D01*
X164589601Y-88861214D02*
X164637220Y-88813595D01*
X164637220Y-88813595D02*
X164732458Y-88765976D01*
X164732458Y-88765976D02*
X164827696Y-88765976D01*
X165827697Y-88765976D02*
X166065792Y-89432643D01*
X166065792Y-89432643D02*
X166303887Y-88765976D01*
X166875316Y-88432643D02*
X166970554Y-88432643D01*
X166970554Y-88432643D02*
X167065792Y-88480262D01*
X167065792Y-88480262D02*
X167113411Y-88527881D01*
X167113411Y-88527881D02*
X167161030Y-88623119D01*
X167161030Y-88623119D02*
X167208649Y-88813595D01*
X167208649Y-88813595D02*
X167208649Y-89051690D01*
X167208649Y-89051690D02*
X167161030Y-89242166D01*
X167161030Y-89242166D02*
X167113411Y-89337404D01*
X167113411Y-89337404D02*
X167065792Y-89385024D01*
X167065792Y-89385024D02*
X166970554Y-89432643D01*
X166970554Y-89432643D02*
X166875316Y-89432643D01*
X166875316Y-89432643D02*
X166780078Y-89385024D01*
X166780078Y-89385024D02*
X166732459Y-89337404D01*
X166732459Y-89337404D02*
X166684840Y-89242166D01*
X166684840Y-89242166D02*
X166637221Y-89051690D01*
X166637221Y-89051690D02*
X166637221Y-88813595D01*
X166637221Y-88813595D02*
X166684840Y-88623119D01*
X166684840Y-88623119D02*
X166732459Y-88527881D01*
X166732459Y-88527881D02*
X166780078Y-88480262D01*
X166780078Y-88480262D02*
X166875316Y-88432643D01*
X167637221Y-89337404D02*
X167684840Y-89385024D01*
X167684840Y-89385024D02*
X167637221Y-89432643D01*
X167637221Y-89432643D02*
X167589602Y-89385024D01*
X167589602Y-89385024D02*
X167637221Y-89337404D01*
X167637221Y-89337404D02*
X167637221Y-89432643D01*
X168303887Y-88432643D02*
X168399125Y-88432643D01*
X168399125Y-88432643D02*
X168494363Y-88480262D01*
X168494363Y-88480262D02*
X168541982Y-88527881D01*
X168541982Y-88527881D02*
X168589601Y-88623119D01*
X168589601Y-88623119D02*
X168637220Y-88813595D01*
X168637220Y-88813595D02*
X168637220Y-89051690D01*
X168637220Y-89051690D02*
X168589601Y-89242166D01*
X168589601Y-89242166D02*
X168541982Y-89337404D01*
X168541982Y-89337404D02*
X168494363Y-89385024D01*
X168494363Y-89385024D02*
X168399125Y-89432643D01*
X168399125Y-89432643D02*
X168303887Y-89432643D01*
X168303887Y-89432643D02*
X168208649Y-89385024D01*
X168208649Y-89385024D02*
X168161030Y-89337404D01*
X168161030Y-89337404D02*
X168113411Y-89242166D01*
X168113411Y-89242166D02*
X168065792Y-89051690D01*
X168065792Y-89051690D02*
X168065792Y-88813595D01*
X168065792Y-88813595D02*
X168113411Y-88623119D01*
X168113411Y-88623119D02*
X168161030Y-88527881D01*
X168161030Y-88527881D02*
X168208649Y-88480262D01*
X168208649Y-88480262D02*
X168303887Y-88432643D01*
X169589601Y-89432643D02*
X169018173Y-89432643D01*
X169303887Y-89432643D02*
X169303887Y-88432643D01*
X169303887Y-88432643D02*
X169208649Y-88575500D01*
X169208649Y-88575500D02*
X169113411Y-88670738D01*
X169113411Y-88670738D02*
X169018173Y-88718357D01*
X150637217Y-90518777D02*
X150780074Y-90566396D01*
X150780074Y-90566396D02*
X150827693Y-90614015D01*
X150827693Y-90614015D02*
X150875312Y-90709253D01*
X150875312Y-90709253D02*
X150875312Y-90852110D01*
X150875312Y-90852110D02*
X150827693Y-90947348D01*
X150827693Y-90947348D02*
X150780074Y-90994968D01*
X150780074Y-90994968D02*
X150684836Y-91042587D01*
X150684836Y-91042587D02*
X150303884Y-91042587D01*
X150303884Y-91042587D02*
X150303884Y-90042587D01*
X150303884Y-90042587D02*
X150637217Y-90042587D01*
X150637217Y-90042587D02*
X150732455Y-90090206D01*
X150732455Y-90090206D02*
X150780074Y-90137825D01*
X150780074Y-90137825D02*
X150827693Y-90233063D01*
X150827693Y-90233063D02*
X150827693Y-90328301D01*
X150827693Y-90328301D02*
X150780074Y-90423539D01*
X150780074Y-90423539D02*
X150732455Y-90471158D01*
X150732455Y-90471158D02*
X150637217Y-90518777D01*
X150637217Y-90518777D02*
X150303884Y-90518777D01*
X151208646Y-90375920D02*
X151446741Y-91042587D01*
X151684836Y-90375920D02*
X151446741Y-91042587D01*
X151446741Y-91042587D02*
X151351503Y-91280682D01*
X151351503Y-91280682D02*
X151303884Y-91328301D01*
X151303884Y-91328301D02*
X151208646Y-91375920D01*
X152780075Y-90756872D02*
X153256265Y-90756872D01*
X152684837Y-91042587D02*
X153018170Y-90042587D01*
X153018170Y-90042587D02*
X153351503Y-91042587D01*
X153684837Y-91042587D02*
X153684837Y-90042587D01*
X153684837Y-90042587D02*
X154018170Y-90756872D01*
X154018170Y-90756872D02*
X154351503Y-90042587D01*
X154351503Y-90042587D02*
X154351503Y-91042587D01*
X156161027Y-90947348D02*
X156113408Y-90994968D01*
X156113408Y-90994968D02*
X155970551Y-91042587D01*
X155970551Y-91042587D02*
X155875313Y-91042587D01*
X155875313Y-91042587D02*
X155732456Y-90994968D01*
X155732456Y-90994968D02*
X155637218Y-90899729D01*
X155637218Y-90899729D02*
X155589599Y-90804491D01*
X155589599Y-90804491D02*
X155541980Y-90614015D01*
X155541980Y-90614015D02*
X155541980Y-90471158D01*
X155541980Y-90471158D02*
X155589599Y-90280682D01*
X155589599Y-90280682D02*
X155637218Y-90185444D01*
X155637218Y-90185444D02*
X155732456Y-90090206D01*
X155732456Y-90090206D02*
X155875313Y-90042587D01*
X155875313Y-90042587D02*
X155970551Y-90042587D01*
X155970551Y-90042587D02*
X156113408Y-90090206D01*
X156113408Y-90090206D02*
X156161027Y-90137825D01*
X156589599Y-91042587D02*
X156589599Y-90042587D01*
X157018170Y-91042587D02*
X157018170Y-90518777D01*
X157018170Y-90518777D02*
X156970551Y-90423539D01*
X156970551Y-90423539D02*
X156875313Y-90375920D01*
X156875313Y-90375920D02*
X156732456Y-90375920D01*
X156732456Y-90375920D02*
X156637218Y-90423539D01*
X156637218Y-90423539D02*
X156589599Y-90471158D01*
X157922932Y-91042587D02*
X157922932Y-90518777D01*
X157922932Y-90518777D02*
X157875313Y-90423539D01*
X157875313Y-90423539D02*
X157780075Y-90375920D01*
X157780075Y-90375920D02*
X157589599Y-90375920D01*
X157589599Y-90375920D02*
X157494361Y-90423539D01*
X157922932Y-90994968D02*
X157827694Y-91042587D01*
X157827694Y-91042587D02*
X157589599Y-91042587D01*
X157589599Y-91042587D02*
X157494361Y-90994968D01*
X157494361Y-90994968D02*
X157446742Y-90899729D01*
X157446742Y-90899729D02*
X157446742Y-90804491D01*
X157446742Y-90804491D02*
X157494361Y-90709253D01*
X157494361Y-90709253D02*
X157589599Y-90661634D01*
X157589599Y-90661634D02*
X157827694Y-90661634D01*
X157827694Y-90661634D02*
X157922932Y-90614015D01*
X158827694Y-90375920D02*
X158827694Y-91185444D01*
X158827694Y-91185444D02*
X158780075Y-91280682D01*
X158780075Y-91280682D02*
X158732456Y-91328301D01*
X158732456Y-91328301D02*
X158637218Y-91375920D01*
X158637218Y-91375920D02*
X158494361Y-91375920D01*
X158494361Y-91375920D02*
X158399123Y-91328301D01*
X158827694Y-90994968D02*
X158732456Y-91042587D01*
X158732456Y-91042587D02*
X158541980Y-91042587D01*
X158541980Y-91042587D02*
X158446742Y-90994968D01*
X158446742Y-90994968D02*
X158399123Y-90947348D01*
X158399123Y-90947348D02*
X158351504Y-90852110D01*
X158351504Y-90852110D02*
X158351504Y-90566396D01*
X158351504Y-90566396D02*
X158399123Y-90471158D01*
X158399123Y-90471158D02*
X158446742Y-90423539D01*
X158446742Y-90423539D02*
X158541980Y-90375920D01*
X158541980Y-90375920D02*
X158732456Y-90375920D01*
X158732456Y-90375920D02*
X158827694Y-90423539D01*
X159732456Y-91042587D02*
X159732456Y-90518777D01*
X159732456Y-90518777D02*
X159684837Y-90423539D01*
X159684837Y-90423539D02*
X159589599Y-90375920D01*
X159589599Y-90375920D02*
X159399123Y-90375920D01*
X159399123Y-90375920D02*
X159303885Y-90423539D01*
X159732456Y-90994968D02*
X159637218Y-91042587D01*
X159637218Y-91042587D02*
X159399123Y-91042587D01*
X159399123Y-91042587D02*
X159303885Y-90994968D01*
X159303885Y-90994968D02*
X159256266Y-90899729D01*
X159256266Y-90899729D02*
X159256266Y-90804491D01*
X159256266Y-90804491D02*
X159303885Y-90709253D01*
X159303885Y-90709253D02*
X159399123Y-90661634D01*
X159399123Y-90661634D02*
X159637218Y-90661634D01*
X159637218Y-90661634D02*
X159732456Y-90614015D01*
X160161028Y-90994968D02*
X160256266Y-91042587D01*
X160256266Y-91042587D02*
X160446742Y-91042587D01*
X160446742Y-91042587D02*
X160541980Y-90994968D01*
X160541980Y-90994968D02*
X160589599Y-90899729D01*
X160589599Y-90899729D02*
X160589599Y-90852110D01*
X160589599Y-90852110D02*
X160541980Y-90756872D01*
X160541980Y-90756872D02*
X160446742Y-90709253D01*
X160446742Y-90709253D02*
X160303885Y-90709253D01*
X160303885Y-90709253D02*
X160208647Y-90661634D01*
X160208647Y-90661634D02*
X160161028Y-90566396D01*
X160161028Y-90566396D02*
X160161028Y-90518777D01*
X160161028Y-90518777D02*
X160208647Y-90423539D01*
X160208647Y-90423539D02*
X160303885Y-90375920D01*
X160303885Y-90375920D02*
X160446742Y-90375920D01*
X160446742Y-90375920D02*
X160541980Y-90423539D01*
X161732457Y-90756872D02*
X162208647Y-90756872D01*
X161637219Y-91042587D02*
X161970552Y-90042587D01*
X161970552Y-90042587D02*
X162303885Y-91042587D01*
X162637219Y-90375920D02*
X162637219Y-91042587D01*
X162637219Y-90471158D02*
X162684838Y-90423539D01*
X162684838Y-90423539D02*
X162780076Y-90375920D01*
X162780076Y-90375920D02*
X162922933Y-90375920D01*
X162922933Y-90375920D02*
X163018171Y-90423539D01*
X163018171Y-90423539D02*
X163065790Y-90518777D01*
X163065790Y-90518777D02*
X163065790Y-91042587D01*
X163970552Y-91042587D02*
X163970552Y-90042587D01*
X163970552Y-90994968D02*
X163875314Y-91042587D01*
X163875314Y-91042587D02*
X163684838Y-91042587D01*
X163684838Y-91042587D02*
X163589600Y-90994968D01*
X163589600Y-90994968D02*
X163541981Y-90947348D01*
X163541981Y-90947348D02*
X163494362Y-90852110D01*
X163494362Y-90852110D02*
X163494362Y-90566396D01*
X163494362Y-90566396D02*
X163541981Y-90471158D01*
X163541981Y-90471158D02*
X163589600Y-90423539D01*
X163589600Y-90423539D02*
X163684838Y-90375920D01*
X163684838Y-90375920D02*
X163875314Y-90375920D01*
X163875314Y-90375920D02*
X163970552Y-90423539D01*
X165161029Y-90994968D02*
X165303886Y-91042587D01*
X165303886Y-91042587D02*
X165541981Y-91042587D01*
X165541981Y-91042587D02*
X165637219Y-90994968D01*
X165637219Y-90994968D02*
X165684838Y-90947348D01*
X165684838Y-90947348D02*
X165732457Y-90852110D01*
X165732457Y-90852110D02*
X165732457Y-90756872D01*
X165732457Y-90756872D02*
X165684838Y-90661634D01*
X165684838Y-90661634D02*
X165637219Y-90614015D01*
X165637219Y-90614015D02*
X165541981Y-90566396D01*
X165541981Y-90566396D02*
X165351505Y-90518777D01*
X165351505Y-90518777D02*
X165256267Y-90471158D01*
X165256267Y-90471158D02*
X165208648Y-90423539D01*
X165208648Y-90423539D02*
X165161029Y-90328301D01*
X165161029Y-90328301D02*
X165161029Y-90233063D01*
X165161029Y-90233063D02*
X165208648Y-90137825D01*
X165208648Y-90137825D02*
X165256267Y-90090206D01*
X165256267Y-90090206D02*
X165351505Y-90042587D01*
X165351505Y-90042587D02*
X165589600Y-90042587D01*
X165589600Y-90042587D02*
X165732457Y-90090206D01*
X166161029Y-91042587D02*
X166161029Y-90042587D01*
X166161029Y-90042587D02*
X166732457Y-91042587D01*
X166732457Y-91042587D02*
X166732457Y-90042587D01*
X167970553Y-91042587D02*
X167970553Y-90042587D01*
X167970553Y-90042587D02*
X168541981Y-91042587D01*
X168541981Y-91042587D02*
X168541981Y-90042587D01*
X169446743Y-90375920D02*
X169446743Y-91185444D01*
X169446743Y-91185444D02*
X169399124Y-91280682D01*
X169399124Y-91280682D02*
X169351505Y-91328301D01*
X169351505Y-91328301D02*
X169256267Y-91375920D01*
X169256267Y-91375920D02*
X169113410Y-91375920D01*
X169113410Y-91375920D02*
X169018172Y-91328301D01*
X169446743Y-90994968D02*
X169351505Y-91042587D01*
X169351505Y-91042587D02*
X169161029Y-91042587D01*
X169161029Y-91042587D02*
X169065791Y-90994968D01*
X169065791Y-90994968D02*
X169018172Y-90947348D01*
X169018172Y-90947348D02*
X168970553Y-90852110D01*
X168970553Y-90852110D02*
X168970553Y-90566396D01*
X168970553Y-90566396D02*
X169018172Y-90471158D01*
X169018172Y-90471158D02*
X169065791Y-90423539D01*
X169065791Y-90423539D02*
X169161029Y-90375920D01*
X169161029Y-90375920D02*
X169351505Y-90375920D01*
X169351505Y-90375920D02*
X169446743Y-90423539D01*
X170065791Y-91042587D02*
X169970553Y-90994968D01*
X169970553Y-90994968D02*
X169922934Y-90947348D01*
X169922934Y-90947348D02*
X169875315Y-90852110D01*
X169875315Y-90852110D02*
X169875315Y-90566396D01*
X169875315Y-90566396D02*
X169922934Y-90471158D01*
X169922934Y-90471158D02*
X169970553Y-90423539D01*
X169970553Y-90423539D02*
X170065791Y-90375920D01*
X170065791Y-90375920D02*
X170208648Y-90375920D01*
X170208648Y-90375920D02*
X170303886Y-90423539D01*
X170303886Y-90423539D02*
X170351505Y-90471158D01*
X170351505Y-90471158D02*
X170399124Y-90566396D01*
X170399124Y-90566396D02*
X170399124Y-90852110D01*
X170399124Y-90852110D02*
X170351505Y-90947348D01*
X170351505Y-90947348D02*
X170303886Y-90994968D01*
X170303886Y-90994968D02*
X170208648Y-91042587D01*
X170208648Y-91042587D02*
X170065791Y-91042587D01*
X170684839Y-90375920D02*
X171065791Y-90375920D01*
X170827696Y-90042587D02*
X170827696Y-90899729D01*
X170827696Y-90899729D02*
X170875315Y-90994968D01*
X170875315Y-90994968D02*
X170970553Y-91042587D01*
X170970553Y-91042587D02*
X171065791Y-91042587D01*
X171399125Y-91042587D02*
X171399125Y-90042587D01*
X171827696Y-91042587D02*
X171827696Y-90518777D01*
X171827696Y-90518777D02*
X171780077Y-90423539D01*
X171780077Y-90423539D02*
X171684839Y-90375920D01*
X171684839Y-90375920D02*
X171541982Y-90375920D01*
X171541982Y-90375920D02*
X171446744Y-90423539D01*
X171446744Y-90423539D02*
X171399125Y-90471158D01*
X172446744Y-91042587D02*
X172351506Y-90994968D01*
X172351506Y-90994968D02*
X172303887Y-90947348D01*
X172303887Y-90947348D02*
X172256268Y-90852110D01*
X172256268Y-90852110D02*
X172256268Y-90566396D01*
X172256268Y-90566396D02*
X172303887Y-90471158D01*
X172303887Y-90471158D02*
X172351506Y-90423539D01*
X172351506Y-90423539D02*
X172446744Y-90375920D01*
X172446744Y-90375920D02*
X172589601Y-90375920D01*
X172589601Y-90375920D02*
X172684839Y-90423539D01*
X172684839Y-90423539D02*
X172732458Y-90471158D01*
X172732458Y-90471158D02*
X172780077Y-90566396D01*
X172780077Y-90566396D02*
X172780077Y-90852110D01*
X172780077Y-90852110D02*
X172732458Y-90947348D01*
X172732458Y-90947348D02*
X172684839Y-90994968D01*
X172684839Y-90994968D02*
X172589601Y-91042587D01*
X172589601Y-91042587D02*
X172446744Y-91042587D01*
X150875312Y-92557292D02*
X150827693Y-92604912D01*
X150827693Y-92604912D02*
X150684836Y-92652531D01*
X150684836Y-92652531D02*
X150589598Y-92652531D01*
X150589598Y-92652531D02*
X150446741Y-92604912D01*
X150446741Y-92604912D02*
X150351503Y-92509673D01*
X150351503Y-92509673D02*
X150303884Y-92414435D01*
X150303884Y-92414435D02*
X150256265Y-92223959D01*
X150256265Y-92223959D02*
X150256265Y-92081102D01*
X150256265Y-92081102D02*
X150303884Y-91890626D01*
X150303884Y-91890626D02*
X150351503Y-91795388D01*
X150351503Y-91795388D02*
X150446741Y-91700150D01*
X150446741Y-91700150D02*
X150589598Y-91652531D01*
X150589598Y-91652531D02*
X150684836Y-91652531D01*
X150684836Y-91652531D02*
X150827693Y-91700150D01*
X150827693Y-91700150D02*
X150875312Y-91747769D01*
X151303884Y-92128721D02*
X151637217Y-92128721D01*
X151780074Y-92652531D02*
X151303884Y-92652531D01*
X151303884Y-92652531D02*
X151303884Y-91652531D01*
X151303884Y-91652531D02*
X151780074Y-91652531D01*
X152780074Y-92652531D02*
X152446741Y-92176340D01*
X152208646Y-92652531D02*
X152208646Y-91652531D01*
X152208646Y-91652531D02*
X152589598Y-91652531D01*
X152589598Y-91652531D02*
X152684836Y-91700150D01*
X152684836Y-91700150D02*
X152732455Y-91747769D01*
X152732455Y-91747769D02*
X152780074Y-91843007D01*
X152780074Y-91843007D02*
X152780074Y-91985864D01*
X152780074Y-91985864D02*
X152732455Y-92081102D01*
X152732455Y-92081102D02*
X152684836Y-92128721D01*
X152684836Y-92128721D02*
X152589598Y-92176340D01*
X152589598Y-92176340D02*
X152208646Y-92176340D01*
X153208646Y-92652531D02*
X153208646Y-91652531D01*
X153208646Y-91652531D02*
X153780074Y-92652531D01*
X153780074Y-92652531D02*
X153780074Y-91652531D01*
X155208646Y-91652531D02*
X155399122Y-91652531D01*
X155399122Y-91652531D02*
X155494360Y-91700150D01*
X155494360Y-91700150D02*
X155589598Y-91795388D01*
X155589598Y-91795388D02*
X155637217Y-91985864D01*
X155637217Y-91985864D02*
X155637217Y-92319197D01*
X155637217Y-92319197D02*
X155589598Y-92509673D01*
X155589598Y-92509673D02*
X155494360Y-92604912D01*
X155494360Y-92604912D02*
X155399122Y-92652531D01*
X155399122Y-92652531D02*
X155208646Y-92652531D01*
X155208646Y-92652531D02*
X155113408Y-92604912D01*
X155113408Y-92604912D02*
X155018170Y-92509673D01*
X155018170Y-92509673D02*
X154970551Y-92319197D01*
X154970551Y-92319197D02*
X154970551Y-91985864D01*
X154970551Y-91985864D02*
X155018170Y-91795388D01*
X155018170Y-91795388D02*
X155113408Y-91700150D01*
X155113408Y-91700150D02*
X155208646Y-91652531D01*
X156065789Y-92652531D02*
X156065789Y-91652531D01*
X156065789Y-92128721D02*
X156637217Y-92128721D01*
X156637217Y-92652531D02*
X156637217Y-91652531D01*
X157589598Y-92652531D02*
X157113408Y-92652531D01*
X157113408Y-92652531D02*
X157113408Y-91652531D01*
X158589599Y-91985864D02*
X158827694Y-92652531D01*
X158827694Y-92652531D02*
X159065789Y-91985864D01*
X159399123Y-91747769D02*
X159446742Y-91700150D01*
X159446742Y-91700150D02*
X159541980Y-91652531D01*
X159541980Y-91652531D02*
X159780075Y-91652531D01*
X159780075Y-91652531D02*
X159875313Y-91700150D01*
X159875313Y-91700150D02*
X159922932Y-91747769D01*
X159922932Y-91747769D02*
X159970551Y-91843007D01*
X159970551Y-91843007D02*
X159970551Y-91938245D01*
X159970551Y-91938245D02*
X159922932Y-92081102D01*
X159922932Y-92081102D02*
X159351504Y-92652531D01*
X159351504Y-92652531D02*
X159970551Y-92652531D01*
X160399123Y-92557292D02*
X160446742Y-92604912D01*
X160446742Y-92604912D02*
X160399123Y-92652531D01*
X160399123Y-92652531D02*
X160351504Y-92604912D01*
X160351504Y-92604912D02*
X160399123Y-92557292D01*
X160399123Y-92557292D02*
X160399123Y-92652531D01*
X161065789Y-91652531D02*
X161161027Y-91652531D01*
X161161027Y-91652531D02*
X161256265Y-91700150D01*
X161256265Y-91700150D02*
X161303884Y-91747769D01*
X161303884Y-91747769D02*
X161351503Y-91843007D01*
X161351503Y-91843007D02*
X161399122Y-92033483D01*
X161399122Y-92033483D02*
X161399122Y-92271578D01*
X161399122Y-92271578D02*
X161351503Y-92462054D01*
X161351503Y-92462054D02*
X161303884Y-92557292D01*
X161303884Y-92557292D02*
X161256265Y-92604912D01*
X161256265Y-92604912D02*
X161161027Y-92652531D01*
X161161027Y-92652531D02*
X161065789Y-92652531D01*
X161065789Y-92652531D02*
X160970551Y-92604912D01*
X160970551Y-92604912D02*
X160922932Y-92557292D01*
X160922932Y-92557292D02*
X160875313Y-92462054D01*
X160875313Y-92462054D02*
X160827694Y-92271578D01*
X160827694Y-92271578D02*
X160827694Y-92033483D01*
X160827694Y-92033483D02*
X160875313Y-91843007D01*
X160875313Y-91843007D02*
X160922932Y-91747769D01*
X160922932Y-91747769D02*
X160970551Y-91700150D01*
X160970551Y-91700150D02*
X161065789Y-91652531D01*
X150303884Y-94262475D02*
X150303884Y-93262475D01*
X150732455Y-94262475D02*
X150732455Y-93738665D01*
X150732455Y-93738665D02*
X150684836Y-93643427D01*
X150684836Y-93643427D02*
X150589598Y-93595808D01*
X150589598Y-93595808D02*
X150446741Y-93595808D01*
X150446741Y-93595808D02*
X150351503Y-93643427D01*
X150351503Y-93643427D02*
X150303884Y-93691046D01*
X151065789Y-93595808D02*
X151446741Y-93595808D01*
X151208646Y-93262475D02*
X151208646Y-94119617D01*
X151208646Y-94119617D02*
X151256265Y-94214856D01*
X151256265Y-94214856D02*
X151351503Y-94262475D01*
X151351503Y-94262475D02*
X151446741Y-94262475D01*
X151637218Y-93595808D02*
X152018170Y-93595808D01*
X151780075Y-93262475D02*
X151780075Y-94119617D01*
X151780075Y-94119617D02*
X151827694Y-94214856D01*
X151827694Y-94214856D02*
X151922932Y-94262475D01*
X151922932Y-94262475D02*
X152018170Y-94262475D01*
X152351504Y-93595808D02*
X152351504Y-94595808D01*
X152351504Y-93643427D02*
X152446742Y-93595808D01*
X152446742Y-93595808D02*
X152637218Y-93595808D01*
X152637218Y-93595808D02*
X152732456Y-93643427D01*
X152732456Y-93643427D02*
X152780075Y-93691046D01*
X152780075Y-93691046D02*
X152827694Y-93786284D01*
X152827694Y-93786284D02*
X152827694Y-94071998D01*
X152827694Y-94071998D02*
X152780075Y-94167236D01*
X152780075Y-94167236D02*
X152732456Y-94214856D01*
X152732456Y-94214856D02*
X152637218Y-94262475D01*
X152637218Y-94262475D02*
X152446742Y-94262475D01*
X152446742Y-94262475D02*
X152351504Y-94214856D01*
X153208647Y-94214856D02*
X153303885Y-94262475D01*
X153303885Y-94262475D02*
X153494361Y-94262475D01*
X153494361Y-94262475D02*
X153589599Y-94214856D01*
X153589599Y-94214856D02*
X153637218Y-94119617D01*
X153637218Y-94119617D02*
X153637218Y-94071998D01*
X153637218Y-94071998D02*
X153589599Y-93976760D01*
X153589599Y-93976760D02*
X153494361Y-93929141D01*
X153494361Y-93929141D02*
X153351504Y-93929141D01*
X153351504Y-93929141D02*
X153256266Y-93881522D01*
X153256266Y-93881522D02*
X153208647Y-93786284D01*
X153208647Y-93786284D02*
X153208647Y-93738665D01*
X153208647Y-93738665D02*
X153256266Y-93643427D01*
X153256266Y-93643427D02*
X153351504Y-93595808D01*
X153351504Y-93595808D02*
X153494361Y-93595808D01*
X153494361Y-93595808D02*
X153589599Y-93643427D01*
X154065790Y-94167236D02*
X154113409Y-94214856D01*
X154113409Y-94214856D02*
X154065790Y-94262475D01*
X154065790Y-94262475D02*
X154018171Y-94214856D01*
X154018171Y-94214856D02*
X154065790Y-94167236D01*
X154065790Y-94167236D02*
X154065790Y-94262475D01*
X154065790Y-93643427D02*
X154113409Y-93691046D01*
X154113409Y-93691046D02*
X154065790Y-93738665D01*
X154065790Y-93738665D02*
X154018171Y-93691046D01*
X154018171Y-93691046D02*
X154065790Y-93643427D01*
X154065790Y-93643427D02*
X154065790Y-93738665D01*
X155256265Y-93214856D02*
X154399123Y-94500570D01*
X156303884Y-93214856D02*
X155446742Y-94500570D01*
X157065789Y-93595808D02*
X157065789Y-94405332D01*
X157065789Y-94405332D02*
X157018170Y-94500570D01*
X157018170Y-94500570D02*
X156970551Y-94548189D01*
X156970551Y-94548189D02*
X156875313Y-94595808D01*
X156875313Y-94595808D02*
X156732456Y-94595808D01*
X156732456Y-94595808D02*
X156637218Y-94548189D01*
X157065789Y-94214856D02*
X156970551Y-94262475D01*
X156970551Y-94262475D02*
X156780075Y-94262475D01*
X156780075Y-94262475D02*
X156684837Y-94214856D01*
X156684837Y-94214856D02*
X156637218Y-94167236D01*
X156637218Y-94167236D02*
X156589599Y-94071998D01*
X156589599Y-94071998D02*
X156589599Y-93786284D01*
X156589599Y-93786284D02*
X156637218Y-93691046D01*
X156637218Y-93691046D02*
X156684837Y-93643427D01*
X156684837Y-93643427D02*
X156780075Y-93595808D01*
X156780075Y-93595808D02*
X156970551Y-93595808D01*
X156970551Y-93595808D02*
X157065789Y-93643427D01*
X157541980Y-94262475D02*
X157541980Y-93595808D01*
X157541980Y-93262475D02*
X157494361Y-93310094D01*
X157494361Y-93310094D02*
X157541980Y-93357713D01*
X157541980Y-93357713D02*
X157589599Y-93310094D01*
X157589599Y-93310094D02*
X157541980Y-93262475D01*
X157541980Y-93262475D02*
X157541980Y-93357713D01*
X157875313Y-93595808D02*
X158256265Y-93595808D01*
X158018170Y-93262475D02*
X158018170Y-94119617D01*
X158018170Y-94119617D02*
X158065789Y-94214856D01*
X158065789Y-94214856D02*
X158161027Y-94262475D01*
X158161027Y-94262475D02*
X158256265Y-94262475D01*
X158589599Y-94262475D02*
X158589599Y-93262475D01*
X159018170Y-94262475D02*
X159018170Y-93738665D01*
X159018170Y-93738665D02*
X158970551Y-93643427D01*
X158970551Y-93643427D02*
X158875313Y-93595808D01*
X158875313Y-93595808D02*
X158732456Y-93595808D01*
X158732456Y-93595808D02*
X158637218Y-93643427D01*
X158637218Y-93643427D02*
X158589599Y-93691046D01*
X159922932Y-93595808D02*
X159922932Y-94262475D01*
X159494361Y-93595808D02*
X159494361Y-94119617D01*
X159494361Y-94119617D02*
X159541980Y-94214856D01*
X159541980Y-94214856D02*
X159637218Y-94262475D01*
X159637218Y-94262475D02*
X159780075Y-94262475D01*
X159780075Y-94262475D02*
X159875313Y-94214856D01*
X159875313Y-94214856D02*
X159922932Y-94167236D01*
X160399123Y-94262475D02*
X160399123Y-93262475D01*
X160399123Y-93643427D02*
X160494361Y-93595808D01*
X160494361Y-93595808D02*
X160684837Y-93595808D01*
X160684837Y-93595808D02*
X160780075Y-93643427D01*
X160780075Y-93643427D02*
X160827694Y-93691046D01*
X160827694Y-93691046D02*
X160875313Y-93786284D01*
X160875313Y-93786284D02*
X160875313Y-94071998D01*
X160875313Y-94071998D02*
X160827694Y-94167236D01*
X160827694Y-94167236D02*
X160780075Y-94214856D01*
X160780075Y-94214856D02*
X160684837Y-94262475D01*
X160684837Y-94262475D02*
X160494361Y-94262475D01*
X160494361Y-94262475D02*
X160399123Y-94214856D01*
X161303885Y-94167236D02*
X161351504Y-94214856D01*
X161351504Y-94214856D02*
X161303885Y-94262475D01*
X161303885Y-94262475D02*
X161256266Y-94214856D01*
X161256266Y-94214856D02*
X161303885Y-94167236D01*
X161303885Y-94167236D02*
X161303885Y-94262475D01*
X162208646Y-94214856D02*
X162113408Y-94262475D01*
X162113408Y-94262475D02*
X161922932Y-94262475D01*
X161922932Y-94262475D02*
X161827694Y-94214856D01*
X161827694Y-94214856D02*
X161780075Y-94167236D01*
X161780075Y-94167236D02*
X161732456Y-94071998D01*
X161732456Y-94071998D02*
X161732456Y-93786284D01*
X161732456Y-93786284D02*
X161780075Y-93691046D01*
X161780075Y-93691046D02*
X161827694Y-93643427D01*
X161827694Y-93643427D02*
X161922932Y-93595808D01*
X161922932Y-93595808D02*
X162113408Y-93595808D01*
X162113408Y-93595808D02*
X162208646Y-93643427D01*
X162780075Y-94262475D02*
X162684837Y-94214856D01*
X162684837Y-94214856D02*
X162637218Y-94167236D01*
X162637218Y-94167236D02*
X162589599Y-94071998D01*
X162589599Y-94071998D02*
X162589599Y-93786284D01*
X162589599Y-93786284D02*
X162637218Y-93691046D01*
X162637218Y-93691046D02*
X162684837Y-93643427D01*
X162684837Y-93643427D02*
X162780075Y-93595808D01*
X162780075Y-93595808D02*
X162922932Y-93595808D01*
X162922932Y-93595808D02*
X163018170Y-93643427D01*
X163018170Y-93643427D02*
X163065789Y-93691046D01*
X163065789Y-93691046D02*
X163113408Y-93786284D01*
X163113408Y-93786284D02*
X163113408Y-94071998D01*
X163113408Y-94071998D02*
X163065789Y-94167236D01*
X163065789Y-94167236D02*
X163018170Y-94214856D01*
X163018170Y-94214856D02*
X162922932Y-94262475D01*
X162922932Y-94262475D02*
X162780075Y-94262475D01*
X163541980Y-94262475D02*
X163541980Y-93595808D01*
X163541980Y-93691046D02*
X163589599Y-93643427D01*
X163589599Y-93643427D02*
X163684837Y-93595808D01*
X163684837Y-93595808D02*
X163827694Y-93595808D01*
X163827694Y-93595808D02*
X163922932Y-93643427D01*
X163922932Y-93643427D02*
X163970551Y-93738665D01*
X163970551Y-93738665D02*
X163970551Y-94262475D01*
X163970551Y-93738665D02*
X164018170Y-93643427D01*
X164018170Y-93643427D02*
X164113408Y-93595808D01*
X164113408Y-93595808D02*
X164256265Y-93595808D01*
X164256265Y-93595808D02*
X164351504Y-93643427D01*
X164351504Y-93643427D02*
X164399123Y-93738665D01*
X164399123Y-93738665D02*
X164399123Y-94262475D01*
X165589598Y-93214856D02*
X164732456Y-94500570D01*
X165875313Y-94214856D02*
X165970551Y-94262475D01*
X165970551Y-94262475D02*
X166161027Y-94262475D01*
X166161027Y-94262475D02*
X166256265Y-94214856D01*
X166256265Y-94214856D02*
X166303884Y-94119617D01*
X166303884Y-94119617D02*
X166303884Y-94071998D01*
X166303884Y-94071998D02*
X166256265Y-93976760D01*
X166256265Y-93976760D02*
X166161027Y-93929141D01*
X166161027Y-93929141D02*
X166018170Y-93929141D01*
X166018170Y-93929141D02*
X165922932Y-93881522D01*
X165922932Y-93881522D02*
X165875313Y-93786284D01*
X165875313Y-93786284D02*
X165875313Y-93738665D01*
X165875313Y-93738665D02*
X165922932Y-93643427D01*
X165922932Y-93643427D02*
X166018170Y-93595808D01*
X166018170Y-93595808D02*
X166161027Y-93595808D01*
X166161027Y-93595808D02*
X166256265Y-93643427D01*
X167161027Y-93595808D02*
X167161027Y-94262475D01*
X166732456Y-93595808D02*
X166732456Y-94119617D01*
X166732456Y-94119617D02*
X166780075Y-94214856D01*
X166780075Y-94214856D02*
X166875313Y-94262475D01*
X166875313Y-94262475D02*
X167018170Y-94262475D01*
X167018170Y-94262475D02*
X167113408Y-94214856D01*
X167113408Y-94214856D02*
X167161027Y-94167236D01*
X167589599Y-94214856D02*
X167684837Y-94262475D01*
X167684837Y-94262475D02*
X167875313Y-94262475D01*
X167875313Y-94262475D02*
X167970551Y-94214856D01*
X167970551Y-94214856D02*
X168018170Y-94119617D01*
X168018170Y-94119617D02*
X168018170Y-94071998D01*
X168018170Y-94071998D02*
X167970551Y-93976760D01*
X167970551Y-93976760D02*
X167875313Y-93929141D01*
X167875313Y-93929141D02*
X167732456Y-93929141D01*
X167732456Y-93929141D02*
X167637218Y-93881522D01*
X167637218Y-93881522D02*
X167589599Y-93786284D01*
X167589599Y-93786284D02*
X167589599Y-93738665D01*
X167589599Y-93738665D02*
X167637218Y-93643427D01*
X167637218Y-93643427D02*
X167732456Y-93595808D01*
X167732456Y-93595808D02*
X167875313Y-93595808D01*
X167875313Y-93595808D02*
X167970551Y-93643427D01*
X168399123Y-94214856D02*
X168494361Y-94262475D01*
X168494361Y-94262475D02*
X168684837Y-94262475D01*
X168684837Y-94262475D02*
X168780075Y-94214856D01*
X168780075Y-94214856D02*
X168827694Y-94119617D01*
X168827694Y-94119617D02*
X168827694Y-94071998D01*
X168827694Y-94071998D02*
X168780075Y-93976760D01*
X168780075Y-93976760D02*
X168684837Y-93929141D01*
X168684837Y-93929141D02*
X168541980Y-93929141D01*
X168541980Y-93929141D02*
X168446742Y-93881522D01*
X168446742Y-93881522D02*
X168399123Y-93786284D01*
X168399123Y-93786284D02*
X168399123Y-93738665D01*
X168399123Y-93738665D02*
X168446742Y-93643427D01*
X168446742Y-93643427D02*
X168541980Y-93595808D01*
X168541980Y-93595808D02*
X168684837Y-93595808D01*
X168684837Y-93595808D02*
X168780075Y-93643427D01*
X169637218Y-94214856D02*
X169541980Y-94262475D01*
X169541980Y-94262475D02*
X169351504Y-94262475D01*
X169351504Y-94262475D02*
X169256266Y-94214856D01*
X169256266Y-94214856D02*
X169208647Y-94119617D01*
X169208647Y-94119617D02*
X169208647Y-93738665D01*
X169208647Y-93738665D02*
X169256266Y-93643427D01*
X169256266Y-93643427D02*
X169351504Y-93595808D01*
X169351504Y-93595808D02*
X169541980Y-93595808D01*
X169541980Y-93595808D02*
X169637218Y-93643427D01*
X169637218Y-93643427D02*
X169684837Y-93738665D01*
X169684837Y-93738665D02*
X169684837Y-93833903D01*
X169684837Y-93833903D02*
X169208647Y-93929141D01*
X170018171Y-94262475D02*
X170541980Y-93595808D01*
X170018171Y-93595808D02*
X170541980Y-94262475D01*
X170922933Y-93881522D02*
X171684838Y-93881522D01*
X150303884Y-95872419D02*
X150303884Y-94872419D01*
X150303884Y-94872419D02*
X150875312Y-95872419D01*
X150875312Y-95872419D02*
X150875312Y-94872419D01*
X151732455Y-95824800D02*
X151637217Y-95872419D01*
X151637217Y-95872419D02*
X151446741Y-95872419D01*
X151446741Y-95872419D02*
X151351503Y-95824800D01*
X151351503Y-95824800D02*
X151303884Y-95729561D01*
X151303884Y-95729561D02*
X151303884Y-95348609D01*
X151303884Y-95348609D02*
X151351503Y-95253371D01*
X151351503Y-95253371D02*
X151446741Y-95205752D01*
X151446741Y-95205752D02*
X151637217Y-95205752D01*
X151637217Y-95205752D02*
X151732455Y-95253371D01*
X151732455Y-95253371D02*
X151780074Y-95348609D01*
X151780074Y-95348609D02*
X151780074Y-95443847D01*
X151780074Y-95443847D02*
X151303884Y-95539085D01*
X152637217Y-95205752D02*
X152637217Y-95872419D01*
X152208646Y-95205752D02*
X152208646Y-95729561D01*
X152208646Y-95729561D02*
X152256265Y-95824800D01*
X152256265Y-95824800D02*
X152351503Y-95872419D01*
X152351503Y-95872419D02*
X152494360Y-95872419D01*
X152494360Y-95872419D02*
X152589598Y-95824800D01*
X152589598Y-95824800D02*
X152637217Y-95777180D01*
X153113408Y-95872419D02*
X153113408Y-95205752D01*
X153113408Y-95396228D02*
X153161027Y-95300990D01*
X153161027Y-95300990D02*
X153208646Y-95253371D01*
X153208646Y-95253371D02*
X153303884Y-95205752D01*
X153303884Y-95205752D02*
X153399122Y-95205752D01*
X153875313Y-95872419D02*
X153780075Y-95824800D01*
X153780075Y-95824800D02*
X153732456Y-95777180D01*
X153732456Y-95777180D02*
X153684837Y-95681942D01*
X153684837Y-95681942D02*
X153684837Y-95396228D01*
X153684837Y-95396228D02*
X153732456Y-95300990D01*
X153732456Y-95300990D02*
X153780075Y-95253371D01*
X153780075Y-95253371D02*
X153875313Y-95205752D01*
X153875313Y-95205752D02*
X154018170Y-95205752D01*
X154018170Y-95205752D02*
X154113408Y-95253371D01*
X154113408Y-95253371D02*
X154161027Y-95300990D01*
X154161027Y-95300990D02*
X154208646Y-95396228D01*
X154208646Y-95396228D02*
X154208646Y-95681942D01*
X154208646Y-95681942D02*
X154161027Y-95777180D01*
X154161027Y-95777180D02*
X154113408Y-95824800D01*
X154113408Y-95824800D02*
X154018170Y-95872419D01*
X154018170Y-95872419D02*
X153875313Y-95872419D01*
X154589599Y-95824800D02*
X154684837Y-95872419D01*
X154684837Y-95872419D02*
X154875313Y-95872419D01*
X154875313Y-95872419D02*
X154970551Y-95824800D01*
X154970551Y-95824800D02*
X155018170Y-95729561D01*
X155018170Y-95729561D02*
X155018170Y-95681942D01*
X155018170Y-95681942D02*
X154970551Y-95586704D01*
X154970551Y-95586704D02*
X154875313Y-95539085D01*
X154875313Y-95539085D02*
X154732456Y-95539085D01*
X154732456Y-95539085D02*
X154637218Y-95491466D01*
X154637218Y-95491466D02*
X154589599Y-95396228D01*
X154589599Y-95396228D02*
X154589599Y-95348609D01*
X154589599Y-95348609D02*
X154637218Y-95253371D01*
X154637218Y-95253371D02*
X154732456Y-95205752D01*
X154732456Y-95205752D02*
X154875313Y-95205752D01*
X154875313Y-95205752D02*
X154970551Y-95253371D01*
X155875313Y-95824800D02*
X155780075Y-95872419D01*
X155780075Y-95872419D02*
X155589599Y-95872419D01*
X155589599Y-95872419D02*
X155494361Y-95824800D01*
X155494361Y-95824800D02*
X155446742Y-95777180D01*
X155446742Y-95777180D02*
X155399123Y-95681942D01*
X155399123Y-95681942D02*
X155399123Y-95396228D01*
X155399123Y-95396228D02*
X155446742Y-95300990D01*
X155446742Y-95300990D02*
X155494361Y-95253371D01*
X155494361Y-95253371D02*
X155589599Y-95205752D01*
X155589599Y-95205752D02*
X155780075Y-95205752D01*
X155780075Y-95205752D02*
X155875313Y-95253371D01*
X156303885Y-95872419D02*
X156303885Y-95205752D01*
X156303885Y-94872419D02*
X156256266Y-94920038D01*
X156256266Y-94920038D02*
X156303885Y-94967657D01*
X156303885Y-94967657D02*
X156351504Y-94920038D01*
X156351504Y-94920038D02*
X156303885Y-94872419D01*
X156303885Y-94872419D02*
X156303885Y-94967657D01*
X157161027Y-95824800D02*
X157065789Y-95872419D01*
X157065789Y-95872419D02*
X156875313Y-95872419D01*
X156875313Y-95872419D02*
X156780075Y-95824800D01*
X156780075Y-95824800D02*
X156732456Y-95729561D01*
X156732456Y-95729561D02*
X156732456Y-95348609D01*
X156732456Y-95348609D02*
X156780075Y-95253371D01*
X156780075Y-95253371D02*
X156875313Y-95205752D01*
X156875313Y-95205752D02*
X157065789Y-95205752D01*
X157065789Y-95205752D02*
X157161027Y-95253371D01*
X157161027Y-95253371D02*
X157208646Y-95348609D01*
X157208646Y-95348609D02*
X157208646Y-95443847D01*
X157208646Y-95443847D02*
X156732456Y-95539085D01*
X157637218Y-95205752D02*
X157637218Y-95872419D01*
X157637218Y-95300990D02*
X157684837Y-95253371D01*
X157684837Y-95253371D02*
X157780075Y-95205752D01*
X157780075Y-95205752D02*
X157922932Y-95205752D01*
X157922932Y-95205752D02*
X158018170Y-95253371D01*
X158018170Y-95253371D02*
X158065789Y-95348609D01*
X158065789Y-95348609D02*
X158065789Y-95872419D01*
X158970551Y-95824800D02*
X158875313Y-95872419D01*
X158875313Y-95872419D02*
X158684837Y-95872419D01*
X158684837Y-95872419D02*
X158589599Y-95824800D01*
X158589599Y-95824800D02*
X158541980Y-95777180D01*
X158541980Y-95777180D02*
X158494361Y-95681942D01*
X158494361Y-95681942D02*
X158494361Y-95396228D01*
X158494361Y-95396228D02*
X158541980Y-95300990D01*
X158541980Y-95300990D02*
X158589599Y-95253371D01*
X158589599Y-95253371D02*
X158684837Y-95205752D01*
X158684837Y-95205752D02*
X158875313Y-95205752D01*
X158875313Y-95205752D02*
X158970551Y-95253371D01*
X159780075Y-95824800D02*
X159684837Y-95872419D01*
X159684837Y-95872419D02*
X159494361Y-95872419D01*
X159494361Y-95872419D02*
X159399123Y-95824800D01*
X159399123Y-95824800D02*
X159351504Y-95729561D01*
X159351504Y-95729561D02*
X159351504Y-95348609D01*
X159351504Y-95348609D02*
X159399123Y-95253371D01*
X159399123Y-95253371D02*
X159494361Y-95205752D01*
X159494361Y-95205752D02*
X159684837Y-95205752D01*
X159684837Y-95205752D02*
X159780075Y-95253371D01*
X159780075Y-95253371D02*
X159827694Y-95348609D01*
X159827694Y-95348609D02*
X159827694Y-95443847D01*
X159827694Y-95443847D02*
X159351504Y-95539085D01*
X160970551Y-94824800D02*
X160113409Y-96110514D01*
X161732456Y-95205752D02*
X161732456Y-96015276D01*
X161732456Y-96015276D02*
X161684837Y-96110514D01*
X161684837Y-96110514D02*
X161637218Y-96158133D01*
X161637218Y-96158133D02*
X161541980Y-96205752D01*
X161541980Y-96205752D02*
X161399123Y-96205752D01*
X161399123Y-96205752D02*
X161303885Y-96158133D01*
X161732456Y-95824800D02*
X161637218Y-95872419D01*
X161637218Y-95872419D02*
X161446742Y-95872419D01*
X161446742Y-95872419D02*
X161351504Y-95824800D01*
X161351504Y-95824800D02*
X161303885Y-95777180D01*
X161303885Y-95777180D02*
X161256266Y-95681942D01*
X161256266Y-95681942D02*
X161256266Y-95396228D01*
X161256266Y-95396228D02*
X161303885Y-95300990D01*
X161303885Y-95300990D02*
X161351504Y-95253371D01*
X161351504Y-95253371D02*
X161446742Y-95205752D01*
X161446742Y-95205752D02*
X161637218Y-95205752D01*
X161637218Y-95205752D02*
X161732456Y-95253371D01*
X162637218Y-95872419D02*
X162637218Y-95348609D01*
X162637218Y-95348609D02*
X162589599Y-95253371D01*
X162589599Y-95253371D02*
X162494361Y-95205752D01*
X162494361Y-95205752D02*
X162303885Y-95205752D01*
X162303885Y-95205752D02*
X162208647Y-95253371D01*
X162637218Y-95824800D02*
X162541980Y-95872419D01*
X162541980Y-95872419D02*
X162303885Y-95872419D01*
X162303885Y-95872419D02*
X162208647Y-95824800D01*
X162208647Y-95824800D02*
X162161028Y-95729561D01*
X162161028Y-95729561D02*
X162161028Y-95634323D01*
X162161028Y-95634323D02*
X162208647Y-95539085D01*
X162208647Y-95539085D02*
X162303885Y-95491466D01*
X162303885Y-95491466D02*
X162541980Y-95491466D01*
X162541980Y-95491466D02*
X162637218Y-95443847D01*
X163113409Y-95205752D02*
X163113409Y-95872419D01*
X163113409Y-95300990D02*
X163161028Y-95253371D01*
X163161028Y-95253371D02*
X163256266Y-95205752D01*
X163256266Y-95205752D02*
X163399123Y-95205752D01*
X163399123Y-95205752D02*
X163494361Y-95253371D01*
X163494361Y-95253371D02*
X163541980Y-95348609D01*
X163541980Y-95348609D02*
X163541980Y-95872419D01*
X163922933Y-95205752D02*
X164446742Y-95205752D01*
X164446742Y-95205752D02*
X163922933Y-95872419D01*
X163922933Y-95872419D02*
X164446742Y-95872419D01*
X164684838Y-95205752D02*
X165065790Y-95205752D01*
X164827695Y-95872419D02*
X164827695Y-95015276D01*
X164827695Y-95015276D02*
X164875314Y-94920038D01*
X164875314Y-94920038D02*
X164970552Y-94872419D01*
X164970552Y-94872419D02*
X165065790Y-94872419D01*
X165780076Y-95824800D02*
X165684838Y-95872419D01*
X165684838Y-95872419D02*
X165494362Y-95872419D01*
X165494362Y-95872419D02*
X165399124Y-95824800D01*
X165399124Y-95824800D02*
X165351505Y-95729561D01*
X165351505Y-95729561D02*
X165351505Y-95348609D01*
X165351505Y-95348609D02*
X165399124Y-95253371D01*
X165399124Y-95253371D02*
X165494362Y-95205752D01*
X165494362Y-95205752D02*
X165684838Y-95205752D01*
X165684838Y-95205752D02*
X165780076Y-95253371D01*
X165780076Y-95253371D02*
X165827695Y-95348609D01*
X165827695Y-95348609D02*
X165827695Y-95443847D01*
X165827695Y-95443847D02*
X165351505Y-95539085D01*
X166399124Y-95872419D02*
X166303886Y-95824800D01*
X166303886Y-95824800D02*
X166256267Y-95729561D01*
X166256267Y-95729561D02*
X166256267Y-94872419D01*
X167208648Y-95872419D02*
X167208648Y-94872419D01*
X167208648Y-95824800D02*
X167113410Y-95872419D01*
X167113410Y-95872419D02*
X166922934Y-95872419D01*
X166922934Y-95872419D02*
X166827696Y-95824800D01*
X166827696Y-95824800D02*
X166780077Y-95777180D01*
X166780077Y-95777180D02*
X166732458Y-95681942D01*
X166732458Y-95681942D02*
X166732458Y-95396228D01*
X166732458Y-95396228D02*
X166780077Y-95300990D01*
X166780077Y-95300990D02*
X166827696Y-95253371D01*
X166827696Y-95253371D02*
X166922934Y-95205752D01*
X166922934Y-95205752D02*
X167113410Y-95205752D01*
X167113410Y-95205752D02*
X167208648Y-95253371D01*
X167684839Y-95491466D02*
X168446744Y-95491466D01*
X168875315Y-95824800D02*
X168970553Y-95872419D01*
X168970553Y-95872419D02*
X169161029Y-95872419D01*
X169161029Y-95872419D02*
X169256267Y-95824800D01*
X169256267Y-95824800D02*
X169303886Y-95729561D01*
X169303886Y-95729561D02*
X169303886Y-95681942D01*
X169303886Y-95681942D02*
X169256267Y-95586704D01*
X169256267Y-95586704D02*
X169161029Y-95539085D01*
X169161029Y-95539085D02*
X169018172Y-95539085D01*
X169018172Y-95539085D02*
X168922934Y-95491466D01*
X168922934Y-95491466D02*
X168875315Y-95396228D01*
X168875315Y-95396228D02*
X168875315Y-95348609D01*
X168875315Y-95348609D02*
X168922934Y-95253371D01*
X168922934Y-95253371D02*
X169018172Y-95205752D01*
X169018172Y-95205752D02*
X169161029Y-95205752D01*
X169161029Y-95205752D02*
X169256267Y-95253371D01*
X169589601Y-95205752D02*
X169970553Y-95205752D01*
X169732458Y-94872419D02*
X169732458Y-95729561D01*
X169732458Y-95729561D02*
X169780077Y-95824800D01*
X169780077Y-95824800D02*
X169875315Y-95872419D01*
X169875315Y-95872419D02*
X169970553Y-95872419D01*
X170303887Y-95872419D02*
X170303887Y-95205752D01*
X170303887Y-94872419D02*
X170256268Y-94920038D01*
X170256268Y-94920038D02*
X170303887Y-94967657D01*
X170303887Y-94967657D02*
X170351506Y-94920038D01*
X170351506Y-94920038D02*
X170303887Y-94872419D01*
X170303887Y-94872419D02*
X170303887Y-94967657D01*
X170780077Y-95872419D02*
X170780077Y-95205752D01*
X170780077Y-95300990D02*
X170827696Y-95253371D01*
X170827696Y-95253371D02*
X170922934Y-95205752D01*
X170922934Y-95205752D02*
X171065791Y-95205752D01*
X171065791Y-95205752D02*
X171161029Y-95253371D01*
X171161029Y-95253371D02*
X171208648Y-95348609D01*
X171208648Y-95348609D02*
X171208648Y-95872419D01*
X171208648Y-95348609D02*
X171256267Y-95253371D01*
X171256267Y-95253371D02*
X171351505Y-95205752D01*
X171351505Y-95205752D02*
X171494362Y-95205752D01*
X171494362Y-95205752D02*
X171589601Y-95253371D01*
X171589601Y-95253371D02*
X171637220Y-95348609D01*
X171637220Y-95348609D02*
X171637220Y-95872419D01*
X172541981Y-95205752D02*
X172541981Y-95872419D01*
X172113410Y-95205752D02*
X172113410Y-95729561D01*
X172113410Y-95729561D02*
X172161029Y-95824800D01*
X172161029Y-95824800D02*
X172256267Y-95872419D01*
X172256267Y-95872419D02*
X172399124Y-95872419D01*
X172399124Y-95872419D02*
X172494362Y-95824800D01*
X172494362Y-95824800D02*
X172541981Y-95777180D01*
X173161029Y-95872419D02*
X173065791Y-95824800D01*
X173065791Y-95824800D02*
X173018172Y-95729561D01*
X173018172Y-95729561D02*
X173018172Y-94872419D01*
X173970553Y-95872419D02*
X173970553Y-95348609D01*
X173970553Y-95348609D02*
X173922934Y-95253371D01*
X173922934Y-95253371D02*
X173827696Y-95205752D01*
X173827696Y-95205752D02*
X173637220Y-95205752D01*
X173637220Y-95205752D02*
X173541982Y-95253371D01*
X173970553Y-95824800D02*
X173875315Y-95872419D01*
X173875315Y-95872419D02*
X173637220Y-95872419D01*
X173637220Y-95872419D02*
X173541982Y-95824800D01*
X173541982Y-95824800D02*
X173494363Y-95729561D01*
X173494363Y-95729561D02*
X173494363Y-95634323D01*
X173494363Y-95634323D02*
X173541982Y-95539085D01*
X173541982Y-95539085D02*
X173637220Y-95491466D01*
X173637220Y-95491466D02*
X173875315Y-95491466D01*
X173875315Y-95491466D02*
X173970553Y-95443847D01*
X174303887Y-95205752D02*
X174684839Y-95205752D01*
X174446744Y-94872419D02*
X174446744Y-95729561D01*
X174446744Y-95729561D02*
X174494363Y-95824800D01*
X174494363Y-95824800D02*
X174589601Y-95872419D01*
X174589601Y-95872419D02*
X174684839Y-95872419D01*
X175161030Y-95872419D02*
X175065792Y-95824800D01*
X175065792Y-95824800D02*
X175018173Y-95777180D01*
X175018173Y-95777180D02*
X174970554Y-95681942D01*
X174970554Y-95681942D02*
X174970554Y-95396228D01*
X174970554Y-95396228D02*
X175018173Y-95300990D01*
X175018173Y-95300990D02*
X175065792Y-95253371D01*
X175065792Y-95253371D02*
X175161030Y-95205752D01*
X175161030Y-95205752D02*
X175303887Y-95205752D01*
X175303887Y-95205752D02*
X175399125Y-95253371D01*
X175399125Y-95253371D02*
X175446744Y-95300990D01*
X175446744Y-95300990D02*
X175494363Y-95396228D01*
X175494363Y-95396228D02*
X175494363Y-95681942D01*
X175494363Y-95681942D02*
X175446744Y-95777180D01*
X175446744Y-95777180D02*
X175399125Y-95824800D01*
X175399125Y-95824800D02*
X175303887Y-95872419D01*
X175303887Y-95872419D02*
X175161030Y-95872419D01*
X175922935Y-95872419D02*
X175922935Y-95205752D01*
X175922935Y-95396228D02*
X175970554Y-95300990D01*
X175970554Y-95300990D02*
X176018173Y-95253371D01*
X176018173Y-95253371D02*
X176113411Y-95205752D01*
X176113411Y-95205752D02*
X176208649Y-95205752D01*
X177256268Y-94824800D02*
X176399126Y-96110514D01*
D11*
X176254819Y-98761904D02*
X175254819Y-98761904D01*
X175731009Y-98761904D02*
X175731009Y-98190476D01*
X176254819Y-98190476D02*
X175254819Y-98190476D01*
X175588152Y-97285714D02*
X176254819Y-97285714D01*
X175207200Y-97523809D02*
X175921485Y-97761904D01*
X175921485Y-97761904D02*
X175921485Y-97142857D01*
X176254819Y-68761904D02*
X175254819Y-68761904D01*
X175731009Y-68761904D02*
X175731009Y-68190476D01*
X176254819Y-68190476D02*
X175254819Y-68190476D01*
X175254819Y-67809523D02*
X175254819Y-67190476D01*
X175254819Y-67190476D02*
X175635771Y-67523809D01*
X175635771Y-67523809D02*
X175635771Y-67380952D01*
X175635771Y-67380952D02*
X175683390Y-67285714D01*
X175683390Y-67285714D02*
X175731009Y-67238095D01*
X175731009Y-67238095D02*
X175826247Y-67190476D01*
X175826247Y-67190476D02*
X176064342Y-67190476D01*
X176064342Y-67190476D02*
X176159580Y-67238095D01*
X176159580Y-67238095D02*
X176207200Y-67285714D01*
X176207200Y-67285714D02*
X176254819Y-67380952D01*
X176254819Y-67380952D02*
X176254819Y-67666666D01*
X176254819Y-67666666D02*
X176207200Y-67761904D01*
X176207200Y-67761904D02*
X176159580Y-67809523D01*
X96254819Y-68761904D02*
X95254819Y-68761904D01*
X95731009Y-68761904D02*
X95731009Y-68190476D01*
X96254819Y-68190476D02*
X95254819Y-68190476D01*
X95350057Y-67761904D02*
X95302438Y-67714285D01*
X95302438Y-67714285D02*
X95254819Y-67619047D01*
X95254819Y-67619047D02*
X95254819Y-67380952D01*
X95254819Y-67380952D02*
X95302438Y-67285714D01*
X95302438Y-67285714D02*
X95350057Y-67238095D01*
X95350057Y-67238095D02*
X95445295Y-67190476D01*
X95445295Y-67190476D02*
X95540533Y-67190476D01*
X95540533Y-67190476D02*
X95683390Y-67238095D01*
X95683390Y-67238095D02*
X96254819Y-67809523D01*
X96254819Y-67809523D02*
X96254819Y-67190476D01*
X96254819Y-98761904D02*
X95254819Y-98761904D01*
X95731009Y-98761904D02*
X95731009Y-98190476D01*
X96254819Y-98190476D02*
X95254819Y-98190476D01*
X96254819Y-97190476D02*
X96254819Y-97761904D01*
X96254819Y-97476190D02*
X95254819Y-97476190D01*
X95254819Y-97476190D02*
X95397676Y-97571428D01*
X95397676Y-97571428D02*
X95492914Y-97666666D01*
X95492914Y-97666666D02*
X95540533Y-97761904D01*
X116330057Y-68475238D02*
X116282438Y-68570476D01*
X116282438Y-68570476D02*
X116187200Y-68665714D01*
X116187200Y-68665714D02*
X116044342Y-68808571D01*
X116044342Y-68808571D02*
X115996723Y-68903809D01*
X115996723Y-68903809D02*
X115996723Y-68999047D01*
X116234819Y-68951428D02*
X116187200Y-69046666D01*
X116187200Y-69046666D02*
X116091961Y-69141904D01*
X116091961Y-69141904D02*
X115901485Y-69189523D01*
X115901485Y-69189523D02*
X115568152Y-69189523D01*
X115568152Y-69189523D02*
X115377676Y-69141904D01*
X115377676Y-69141904D02*
X115282438Y-69046666D01*
X115282438Y-69046666D02*
X115234819Y-68951428D01*
X115234819Y-68951428D02*
X115234819Y-68760952D01*
X115234819Y-68760952D02*
X115282438Y-68665714D01*
X115282438Y-68665714D02*
X115377676Y-68570476D01*
X115377676Y-68570476D02*
X115568152Y-68522857D01*
X115568152Y-68522857D02*
X115901485Y-68522857D01*
X115901485Y-68522857D02*
X116091961Y-68570476D01*
X116091961Y-68570476D02*
X116187200Y-68665714D01*
X116187200Y-68665714D02*
X116234819Y-68760952D01*
X116234819Y-68760952D02*
X116234819Y-68951428D01*
X115568152Y-67665714D02*
X116234819Y-67665714D01*
X115187200Y-67903809D02*
X115901485Y-68141904D01*
X115901485Y-68141904D02*
X115901485Y-67522857D01*
X96666666Y-76454819D02*
X96666666Y-77169104D01*
X96666666Y-77169104D02*
X96619047Y-77311961D01*
X96619047Y-77311961D02*
X96523809Y-77407200D01*
X96523809Y-77407200D02*
X96380952Y-77454819D01*
X96380952Y-77454819D02*
X96285714Y-77454819D01*
X97190476Y-77454819D02*
X97380952Y-77454819D01*
X97380952Y-77454819D02*
X97476190Y-77407200D01*
X97476190Y-77407200D02*
X97523809Y-77359580D01*
X97523809Y-77359580D02*
X97619047Y-77216723D01*
X97619047Y-77216723D02*
X97666666Y-77026247D01*
X97666666Y-77026247D02*
X97666666Y-76645295D01*
X97666666Y-76645295D02*
X97619047Y-76550057D01*
X97619047Y-76550057D02*
X97571428Y-76502438D01*
X97571428Y-76502438D02*
X97476190Y-76454819D01*
X97476190Y-76454819D02*
X97285714Y-76454819D01*
X97285714Y-76454819D02*
X97190476Y-76502438D01*
X97190476Y-76502438D02*
X97142857Y-76550057D01*
X97142857Y-76550057D02*
X97095238Y-76645295D01*
X97095238Y-76645295D02*
X97095238Y-76883390D01*
X97095238Y-76883390D02*
X97142857Y-76978628D01*
X97142857Y-76978628D02*
X97190476Y-77026247D01*
X97190476Y-77026247D02*
X97285714Y-77073866D01*
X97285714Y-77073866D02*
X97476190Y-77073866D01*
X97476190Y-77073866D02*
X97571428Y-77026247D01*
X97571428Y-77026247D02*
X97619047Y-76978628D01*
X97619047Y-76978628D02*
X97666666Y-76883390D01*
X180666666Y-115454819D02*
X180666666Y-116169104D01*
X180666666Y-116169104D02*
X180619047Y-116311961D01*
X180619047Y-116311961D02*
X180523809Y-116407200D01*
X180523809Y-116407200D02*
X180380952Y-116454819D01*
X180380952Y-116454819D02*
X180285714Y-116454819D01*
X181571428Y-115454819D02*
X181380952Y-115454819D01*
X181380952Y-115454819D02*
X181285714Y-115502438D01*
X181285714Y-115502438D02*
X181238095Y-115550057D01*
X181238095Y-115550057D02*
X181142857Y-115692914D01*
X181142857Y-115692914D02*
X181095238Y-115883390D01*
X181095238Y-115883390D02*
X181095238Y-116264342D01*
X181095238Y-116264342D02*
X181142857Y-116359580D01*
X181142857Y-116359580D02*
X181190476Y-116407200D01*
X181190476Y-116407200D02*
X181285714Y-116454819D01*
X181285714Y-116454819D02*
X181476190Y-116454819D01*
X181476190Y-116454819D02*
X181571428Y-116407200D01*
X181571428Y-116407200D02*
X181619047Y-116359580D01*
X181619047Y-116359580D02*
X181666666Y-116264342D01*
X181666666Y-116264342D02*
X181666666Y-116026247D01*
X181666666Y-116026247D02*
X181619047Y-115931009D01*
X181619047Y-115931009D02*
X181571428Y-115883390D01*
X181571428Y-115883390D02*
X181476190Y-115835771D01*
X181476190Y-115835771D02*
X181285714Y-115835771D01*
X181285714Y-115835771D02*
X181190476Y-115883390D01*
X181190476Y-115883390D02*
X181142857Y-115931009D01*
X181142857Y-115931009D02*
X181095238Y-116026247D01*
X96666666Y-84454819D02*
X96666666Y-85169104D01*
X96666666Y-85169104D02*
X96619047Y-85311961D01*
X96619047Y-85311961D02*
X96523809Y-85407200D01*
X96523809Y-85407200D02*
X96380952Y-85454819D01*
X96380952Y-85454819D02*
X96285714Y-85454819D01*
X97285714Y-84883390D02*
X97190476Y-84835771D01*
X97190476Y-84835771D02*
X97142857Y-84788152D01*
X97142857Y-84788152D02*
X97095238Y-84692914D01*
X97095238Y-84692914D02*
X97095238Y-84645295D01*
X97095238Y-84645295D02*
X97142857Y-84550057D01*
X97142857Y-84550057D02*
X97190476Y-84502438D01*
X97190476Y-84502438D02*
X97285714Y-84454819D01*
X97285714Y-84454819D02*
X97476190Y-84454819D01*
X97476190Y-84454819D02*
X97571428Y-84502438D01*
X97571428Y-84502438D02*
X97619047Y-84550057D01*
X97619047Y-84550057D02*
X97666666Y-84645295D01*
X97666666Y-84645295D02*
X97666666Y-84692914D01*
X97666666Y-84692914D02*
X97619047Y-84788152D01*
X97619047Y-84788152D02*
X97571428Y-84835771D01*
X97571428Y-84835771D02*
X97476190Y-84883390D01*
X97476190Y-84883390D02*
X97285714Y-84883390D01*
X97285714Y-84883390D02*
X97190476Y-84931009D01*
X97190476Y-84931009D02*
X97142857Y-84978628D01*
X97142857Y-84978628D02*
X97095238Y-85073866D01*
X97095238Y-85073866D02*
X97095238Y-85264342D01*
X97095238Y-85264342D02*
X97142857Y-85359580D01*
X97142857Y-85359580D02*
X97190476Y-85407200D01*
X97190476Y-85407200D02*
X97285714Y-85454819D01*
X97285714Y-85454819D02*
X97476190Y-85454819D01*
X97476190Y-85454819D02*
X97571428Y-85407200D01*
X97571428Y-85407200D02*
X97619047Y-85359580D01*
X97619047Y-85359580D02*
X97666666Y-85264342D01*
X97666666Y-85264342D02*
X97666666Y-85073866D01*
X97666666Y-85073866D02*
X97619047Y-84978628D01*
X97619047Y-84978628D02*
X97571428Y-84931009D01*
X97571428Y-84931009D02*
X97476190Y-84883390D01*
X167454819Y-65333333D02*
X168169104Y-65333333D01*
X168169104Y-65333333D02*
X168311961Y-65380952D01*
X168311961Y-65380952D02*
X168407200Y-65476190D01*
X168407200Y-65476190D02*
X168454819Y-65619047D01*
X168454819Y-65619047D02*
X168454819Y-65714285D01*
X167788152Y-64428571D02*
X168454819Y-64428571D01*
X167407200Y-64666666D02*
X168121485Y-64904761D01*
X168121485Y-64904761D02*
X168121485Y-64285714D01*
X143328333Y-89084819D02*
X142995000Y-88608628D01*
X142756905Y-89084819D02*
X142756905Y-88084819D01*
X142756905Y-88084819D02*
X143137857Y-88084819D01*
X143137857Y-88084819D02*
X143233095Y-88132438D01*
X143233095Y-88132438D02*
X143280714Y-88180057D01*
X143280714Y-88180057D02*
X143328333Y-88275295D01*
X143328333Y-88275295D02*
X143328333Y-88418152D01*
X143328333Y-88418152D02*
X143280714Y-88513390D01*
X143280714Y-88513390D02*
X143233095Y-88561009D01*
X143233095Y-88561009D02*
X143137857Y-88608628D01*
X143137857Y-88608628D02*
X142756905Y-88608628D01*
X143661667Y-88084819D02*
X144280714Y-88084819D01*
X144280714Y-88084819D02*
X143947381Y-88465771D01*
X143947381Y-88465771D02*
X144090238Y-88465771D01*
X144090238Y-88465771D02*
X144185476Y-88513390D01*
X144185476Y-88513390D02*
X144233095Y-88561009D01*
X144233095Y-88561009D02*
X144280714Y-88656247D01*
X144280714Y-88656247D02*
X144280714Y-88894342D01*
X144280714Y-88894342D02*
X144233095Y-88989580D01*
X144233095Y-88989580D02*
X144185476Y-89037200D01*
X144185476Y-89037200D02*
X144090238Y-89084819D01*
X144090238Y-89084819D02*
X143804524Y-89084819D01*
X143804524Y-89084819D02*
X143709286Y-89037200D01*
X143709286Y-89037200D02*
X143661667Y-88989580D01*
X98666666Y-114454819D02*
X98666666Y-115169104D01*
X98666666Y-115169104D02*
X98619047Y-115311961D01*
X98619047Y-115311961D02*
X98523809Y-115407200D01*
X98523809Y-115407200D02*
X98380952Y-115454819D01*
X98380952Y-115454819D02*
X98285714Y-115454819D01*
X99666666Y-115454819D02*
X99095238Y-115454819D01*
X99380952Y-115454819D02*
X99380952Y-114454819D01*
X99380952Y-114454819D02*
X99285714Y-114597676D01*
X99285714Y-114597676D02*
X99190476Y-114692914D01*
X99190476Y-114692914D02*
X99095238Y-114740533D01*
X147479819Y-72226904D02*
X148289342Y-72226904D01*
X148289342Y-72226904D02*
X148384580Y-72179285D01*
X148384580Y-72179285D02*
X148432200Y-72131666D01*
X148432200Y-72131666D02*
X148479819Y-72036428D01*
X148479819Y-72036428D02*
X148479819Y-71845952D01*
X148479819Y-71845952D02*
X148432200Y-71750714D01*
X148432200Y-71750714D02*
X148384580Y-71703095D01*
X148384580Y-71703095D02*
X148289342Y-71655476D01*
X148289342Y-71655476D02*
X147479819Y-71655476D01*
X147575057Y-71226904D02*
X147527438Y-71179285D01*
X147527438Y-71179285D02*
X147479819Y-71084047D01*
X147479819Y-71084047D02*
X147479819Y-70845952D01*
X147479819Y-70845952D02*
X147527438Y-70750714D01*
X147527438Y-70750714D02*
X147575057Y-70703095D01*
X147575057Y-70703095D02*
X147670295Y-70655476D01*
X147670295Y-70655476D02*
X147765533Y-70655476D01*
X147765533Y-70655476D02*
X147908390Y-70703095D01*
X147908390Y-70703095D02*
X148479819Y-71274523D01*
X148479819Y-71274523D02*
X148479819Y-70655476D01*
X180666666Y-104454819D02*
X180666666Y-105169104D01*
X180666666Y-105169104D02*
X180619047Y-105311961D01*
X180619047Y-105311961D02*
X180523809Y-105407200D01*
X180523809Y-105407200D02*
X180380952Y-105454819D01*
X180380952Y-105454819D02*
X180285714Y-105454819D01*
X181047619Y-104454819D02*
X181714285Y-104454819D01*
X181714285Y-104454819D02*
X181285714Y-105454819D01*
X179646666Y-82454819D02*
X179646666Y-83169104D01*
X179646666Y-83169104D02*
X179599047Y-83311961D01*
X179599047Y-83311961D02*
X179503809Y-83407200D01*
X179503809Y-83407200D02*
X179360952Y-83454819D01*
X179360952Y-83454819D02*
X179265714Y-83454819D01*
X180027619Y-82454819D02*
X180646666Y-82454819D01*
X180646666Y-82454819D02*
X180313333Y-82835771D01*
X180313333Y-82835771D02*
X180456190Y-82835771D01*
X180456190Y-82835771D02*
X180551428Y-82883390D01*
X180551428Y-82883390D02*
X180599047Y-82931009D01*
X180599047Y-82931009D02*
X180646666Y-83026247D01*
X180646666Y-83026247D02*
X180646666Y-83264342D01*
X180646666Y-83264342D02*
X180599047Y-83359580D01*
X180599047Y-83359580D02*
X180551428Y-83407200D01*
X180551428Y-83407200D02*
X180456190Y-83454819D01*
X180456190Y-83454819D02*
X180170476Y-83454819D01*
X180170476Y-83454819D02*
X180075238Y-83407200D01*
X180075238Y-83407200D02*
X180027619Y-83359580D01*
X116330057Y-113475238D02*
X116282438Y-113570476D01*
X116282438Y-113570476D02*
X116187200Y-113665714D01*
X116187200Y-113665714D02*
X116044342Y-113808571D01*
X116044342Y-113808571D02*
X115996723Y-113903809D01*
X115996723Y-113903809D02*
X115996723Y-113999047D01*
X116234819Y-113951428D02*
X116187200Y-114046666D01*
X116187200Y-114046666D02*
X116091961Y-114141904D01*
X116091961Y-114141904D02*
X115901485Y-114189523D01*
X115901485Y-114189523D02*
X115568152Y-114189523D01*
X115568152Y-114189523D02*
X115377676Y-114141904D01*
X115377676Y-114141904D02*
X115282438Y-114046666D01*
X115282438Y-114046666D02*
X115234819Y-113951428D01*
X115234819Y-113951428D02*
X115234819Y-113760952D01*
X115234819Y-113760952D02*
X115282438Y-113665714D01*
X115282438Y-113665714D02*
X115377676Y-113570476D01*
X115377676Y-113570476D02*
X115568152Y-113522857D01*
X115568152Y-113522857D02*
X115901485Y-113522857D01*
X115901485Y-113522857D02*
X116091961Y-113570476D01*
X116091961Y-113570476D02*
X116187200Y-113665714D01*
X116187200Y-113665714D02*
X116234819Y-113760952D01*
X116234819Y-113760952D02*
X116234819Y-113951428D01*
X116234819Y-112570476D02*
X116234819Y-113141904D01*
X116234819Y-112856190D02*
X115234819Y-112856190D01*
X115234819Y-112856190D02*
X115377676Y-112951428D01*
X115377676Y-112951428D02*
X115472914Y-113046666D01*
X115472914Y-113046666D02*
X115520533Y-113141904D01*
X116330057Y-80475238D02*
X116282438Y-80570476D01*
X116282438Y-80570476D02*
X116187200Y-80665714D01*
X116187200Y-80665714D02*
X116044342Y-80808571D01*
X116044342Y-80808571D02*
X115996723Y-80903809D01*
X115996723Y-80903809D02*
X115996723Y-80999047D01*
X116234819Y-80951428D02*
X116187200Y-81046666D01*
X116187200Y-81046666D02*
X116091961Y-81141904D01*
X116091961Y-81141904D02*
X115901485Y-81189523D01*
X115901485Y-81189523D02*
X115568152Y-81189523D01*
X115568152Y-81189523D02*
X115377676Y-81141904D01*
X115377676Y-81141904D02*
X115282438Y-81046666D01*
X115282438Y-81046666D02*
X115234819Y-80951428D01*
X115234819Y-80951428D02*
X115234819Y-80760952D01*
X115234819Y-80760952D02*
X115282438Y-80665714D01*
X115282438Y-80665714D02*
X115377676Y-80570476D01*
X115377676Y-80570476D02*
X115568152Y-80522857D01*
X115568152Y-80522857D02*
X115901485Y-80522857D01*
X115901485Y-80522857D02*
X116091961Y-80570476D01*
X116091961Y-80570476D02*
X116187200Y-80665714D01*
X116187200Y-80665714D02*
X116234819Y-80760952D01*
X116234819Y-80760952D02*
X116234819Y-80951428D01*
X115330057Y-80141904D02*
X115282438Y-80094285D01*
X115282438Y-80094285D02*
X115234819Y-79999047D01*
X115234819Y-79999047D02*
X115234819Y-79760952D01*
X115234819Y-79760952D02*
X115282438Y-79665714D01*
X115282438Y-79665714D02*
X115330057Y-79618095D01*
X115330057Y-79618095D02*
X115425295Y-79570476D01*
X115425295Y-79570476D02*
X115520533Y-79570476D01*
X115520533Y-79570476D02*
X115663390Y-79618095D01*
X115663390Y-79618095D02*
X116234819Y-80189523D01*
X116234819Y-80189523D02*
X116234819Y-79570476D01*
X147153333Y-111134819D02*
X146820000Y-110658628D01*
X146581905Y-111134819D02*
X146581905Y-110134819D01*
X146581905Y-110134819D02*
X146962857Y-110134819D01*
X146962857Y-110134819D02*
X147058095Y-110182438D01*
X147058095Y-110182438D02*
X147105714Y-110230057D01*
X147105714Y-110230057D02*
X147153333Y-110325295D01*
X147153333Y-110325295D02*
X147153333Y-110468152D01*
X147153333Y-110468152D02*
X147105714Y-110563390D01*
X147105714Y-110563390D02*
X147058095Y-110611009D01*
X147058095Y-110611009D02*
X146962857Y-110658628D01*
X146962857Y-110658628D02*
X146581905Y-110658628D01*
X148105714Y-111134819D02*
X147534286Y-111134819D01*
X147820000Y-111134819D02*
X147820000Y-110134819D01*
X147820000Y-110134819D02*
X147724762Y-110277676D01*
X147724762Y-110277676D02*
X147629524Y-110372914D01*
X147629524Y-110372914D02*
X147534286Y-110420533D01*
X143328333Y-63084819D02*
X142995000Y-62608628D01*
X142756905Y-63084819D02*
X142756905Y-62084819D01*
X142756905Y-62084819D02*
X143137857Y-62084819D01*
X143137857Y-62084819D02*
X143233095Y-62132438D01*
X143233095Y-62132438D02*
X143280714Y-62180057D01*
X143280714Y-62180057D02*
X143328333Y-62275295D01*
X143328333Y-62275295D02*
X143328333Y-62418152D01*
X143328333Y-62418152D02*
X143280714Y-62513390D01*
X143280714Y-62513390D02*
X143233095Y-62561009D01*
X143233095Y-62561009D02*
X143137857Y-62608628D01*
X143137857Y-62608628D02*
X142756905Y-62608628D01*
X144185476Y-62418152D02*
X144185476Y-63084819D01*
X143947381Y-62037200D02*
X143709286Y-62751485D01*
X143709286Y-62751485D02*
X144328333Y-62751485D01*
X155454819Y-66333333D02*
X156169104Y-66333333D01*
X156169104Y-66333333D02*
X156311961Y-66380952D01*
X156311961Y-66380952D02*
X156407200Y-66476190D01*
X156407200Y-66476190D02*
X156454819Y-66619047D01*
X156454819Y-66619047D02*
X156454819Y-66714285D01*
X155454819Y-65380952D02*
X155454819Y-65857142D01*
X155454819Y-65857142D02*
X155931009Y-65904761D01*
X155931009Y-65904761D02*
X155883390Y-65857142D01*
X155883390Y-65857142D02*
X155835771Y-65761904D01*
X155835771Y-65761904D02*
X155835771Y-65523809D01*
X155835771Y-65523809D02*
X155883390Y-65428571D01*
X155883390Y-65428571D02*
X155931009Y-65380952D01*
X155931009Y-65380952D02*
X156026247Y-65333333D01*
X156026247Y-65333333D02*
X156264342Y-65333333D01*
X156264342Y-65333333D02*
X156359580Y-65380952D01*
X156359580Y-65380952D02*
X156407200Y-65428571D01*
X156407200Y-65428571D02*
X156454819Y-65523809D01*
X156454819Y-65523809D02*
X156454819Y-65761904D01*
X156454819Y-65761904D02*
X156407200Y-65857142D01*
X156407200Y-65857142D02*
X156359580Y-65904761D01*
X116330057Y-100555238D02*
X116282438Y-100650476D01*
X116282438Y-100650476D02*
X116187200Y-100745714D01*
X116187200Y-100745714D02*
X116044342Y-100888571D01*
X116044342Y-100888571D02*
X115996723Y-100983809D01*
X115996723Y-100983809D02*
X115996723Y-101079047D01*
X116234819Y-101031428D02*
X116187200Y-101126666D01*
X116187200Y-101126666D02*
X116091961Y-101221904D01*
X116091961Y-101221904D02*
X115901485Y-101269523D01*
X115901485Y-101269523D02*
X115568152Y-101269523D01*
X115568152Y-101269523D02*
X115377676Y-101221904D01*
X115377676Y-101221904D02*
X115282438Y-101126666D01*
X115282438Y-101126666D02*
X115234819Y-101031428D01*
X115234819Y-101031428D02*
X115234819Y-100840952D01*
X115234819Y-100840952D02*
X115282438Y-100745714D01*
X115282438Y-100745714D02*
X115377676Y-100650476D01*
X115377676Y-100650476D02*
X115568152Y-100602857D01*
X115568152Y-100602857D02*
X115901485Y-100602857D01*
X115901485Y-100602857D02*
X116091961Y-100650476D01*
X116091961Y-100650476D02*
X116187200Y-100745714D01*
X116187200Y-100745714D02*
X116234819Y-100840952D01*
X116234819Y-100840952D02*
X116234819Y-101031428D01*
X115234819Y-100269523D02*
X115234819Y-99650476D01*
X115234819Y-99650476D02*
X115615771Y-99983809D01*
X115615771Y-99983809D02*
X115615771Y-99840952D01*
X115615771Y-99840952D02*
X115663390Y-99745714D01*
X115663390Y-99745714D02*
X115711009Y-99698095D01*
X115711009Y-99698095D02*
X115806247Y-99650476D01*
X115806247Y-99650476D02*
X116044342Y-99650476D01*
X116044342Y-99650476D02*
X116139580Y-99698095D01*
X116139580Y-99698095D02*
X116187200Y-99745714D01*
X116187200Y-99745714D02*
X116234819Y-99840952D01*
X116234819Y-99840952D02*
X116234819Y-100126666D01*
X116234819Y-100126666D02*
X116187200Y-100221904D01*
X116187200Y-100221904D02*
X116139580Y-100269523D01*
X148479819Y-101166904D02*
X149289342Y-101166904D01*
X149289342Y-101166904D02*
X149384580Y-101119285D01*
X149384580Y-101119285D02*
X149432200Y-101071666D01*
X149432200Y-101071666D02*
X149479819Y-100976428D01*
X149479819Y-100976428D02*
X149479819Y-100785952D01*
X149479819Y-100785952D02*
X149432200Y-100690714D01*
X149432200Y-100690714D02*
X149384580Y-100643095D01*
X149384580Y-100643095D02*
X149289342Y-100595476D01*
X149289342Y-100595476D02*
X148479819Y-100595476D01*
X149479819Y-99595476D02*
X149479819Y-100166904D01*
X149479819Y-99881190D02*
X148479819Y-99881190D01*
X148479819Y-99881190D02*
X148622676Y-99976428D01*
X148622676Y-99976428D02*
X148717914Y-100071666D01*
X148717914Y-100071666D02*
X148765533Y-100166904D01*
X98666666Y-105954819D02*
X98666666Y-106669104D01*
X98666666Y-106669104D02*
X98619047Y-106811961D01*
X98619047Y-106811961D02*
X98523809Y-106907200D01*
X98523809Y-106907200D02*
X98380952Y-106954819D01*
X98380952Y-106954819D02*
X98285714Y-106954819D01*
X99095238Y-106050057D02*
X99142857Y-106002438D01*
X99142857Y-106002438D02*
X99238095Y-105954819D01*
X99238095Y-105954819D02*
X99476190Y-105954819D01*
X99476190Y-105954819D02*
X99571428Y-106002438D01*
X99571428Y-106002438D02*
X99619047Y-106050057D01*
X99619047Y-106050057D02*
X99666666Y-106145295D01*
X99666666Y-106145295D02*
X99666666Y-106240533D01*
X99666666Y-106240533D02*
X99619047Y-106383390D01*
X99619047Y-106383390D02*
X99047619Y-106954819D01*
X99047619Y-106954819D02*
X99666666Y-106954819D01*
X149153333Y-78134819D02*
X148820000Y-77658628D01*
X148581905Y-78134819D02*
X148581905Y-77134819D01*
X148581905Y-77134819D02*
X148962857Y-77134819D01*
X148962857Y-77134819D02*
X149058095Y-77182438D01*
X149058095Y-77182438D02*
X149105714Y-77230057D01*
X149105714Y-77230057D02*
X149153333Y-77325295D01*
X149153333Y-77325295D02*
X149153333Y-77468152D01*
X149153333Y-77468152D02*
X149105714Y-77563390D01*
X149105714Y-77563390D02*
X149058095Y-77611009D01*
X149058095Y-77611009D02*
X148962857Y-77658628D01*
X148962857Y-77658628D02*
X148581905Y-77658628D01*
X149534286Y-77230057D02*
X149581905Y-77182438D01*
X149581905Y-77182438D02*
X149677143Y-77134819D01*
X149677143Y-77134819D02*
X149915238Y-77134819D01*
X149915238Y-77134819D02*
X150010476Y-77182438D01*
X150010476Y-77182438D02*
X150058095Y-77230057D01*
X150058095Y-77230057D02*
X150105714Y-77325295D01*
X150105714Y-77325295D02*
X150105714Y-77420533D01*
X150105714Y-77420533D02*
X150058095Y-77563390D01*
X150058095Y-77563390D02*
X149486667Y-78134819D01*
X149486667Y-78134819D02*
X150105714Y-78134819D01*
D10*
%TO.C,Q4*%
X116600000Y-73560000D02*
X117000000Y-73560000D01*
X116600000Y-73560000D02*
X116600000Y-73160000D01*
X117710000Y-73560000D02*
X117710000Y-63460000D01*
X121400000Y-73560000D02*
X117000000Y-73560000D01*
X121400000Y-73560000D02*
X121400000Y-73160000D01*
X116600000Y-63760000D02*
X116600000Y-63360000D01*
X116600000Y-63360000D02*
X117000000Y-63360000D01*
X121400000Y-63360000D02*
X121400000Y-63760000D01*
X121400000Y-63360000D02*
X121000000Y-63360000D01*
D12*
%TO.C,J9*%
X94910000Y-78330000D02*
X103540000Y-78330000D01*
X103540000Y-77360000D02*
X103950000Y-77360000D01*
X103540000Y-76640000D02*
X103950000Y-76640000D01*
X94910000Y-75730000D02*
X103540000Y-75730000D01*
X94910000Y-75611900D02*
X103540000Y-75611900D01*
X94910000Y-75493805D02*
X103540000Y-75493805D01*
X94910000Y-75375710D02*
X103540000Y-75375710D01*
X94910000Y-75257615D02*
X103540000Y-75257615D01*
X94910000Y-75139520D02*
X103540000Y-75139520D01*
X94910000Y-75021425D02*
X103540000Y-75021425D01*
X94910000Y-74903330D02*
X103540000Y-74903330D01*
X103540000Y-74820000D02*
X103890000Y-74820000D01*
X94910000Y-74785235D02*
X103540000Y-74785235D01*
X94910000Y-74667140D02*
X103540000Y-74667140D01*
X94910000Y-74549045D02*
X103540000Y-74549045D01*
X94910000Y-74430950D02*
X103540000Y-74430950D01*
X94910000Y-74312855D02*
X103540000Y-74312855D01*
X94910000Y-74194760D02*
X103540000Y-74194760D01*
X103540000Y-74100000D02*
X103890000Y-74100000D01*
X94910000Y-74076665D02*
X103540000Y-74076665D01*
X94910000Y-73958570D02*
X103540000Y-73958570D01*
X94910000Y-73840475D02*
X103540000Y-73840475D01*
X94910000Y-73722380D02*
X103540000Y-73722380D01*
X94910000Y-73604285D02*
X103540000Y-73604285D01*
X94910000Y-73486190D02*
X103540000Y-73486190D01*
X94910000Y-73368095D02*
X103540000Y-73368095D01*
X94910000Y-73250000D02*
X103540000Y-73250000D01*
X94910000Y-73130000D02*
X94910000Y-78330000D01*
X94910000Y-73130000D02*
X103540000Y-73130000D01*
X103540000Y-73130000D02*
X103540000Y-78330000D01*
X105000000Y-73130000D02*
X106110000Y-73130000D01*
X106110000Y-73130000D02*
X106110000Y-74460000D01*
%TO.C,J6*%
X174490000Y-120330000D02*
X174490000Y-119000000D01*
X175600000Y-120330000D02*
X174490000Y-120330000D01*
X177060000Y-120330000D02*
X177060000Y-115130000D01*
X185690000Y-120330000D02*
X177060000Y-120330000D01*
X185690000Y-120330000D02*
X185690000Y-115130000D01*
X185690000Y-120210000D02*
X177060000Y-120210000D01*
X185690000Y-120091905D02*
X177060000Y-120091905D01*
X185690000Y-119973810D02*
X177060000Y-119973810D01*
X185690000Y-119855715D02*
X177060000Y-119855715D01*
X185690000Y-119737620D02*
X177060000Y-119737620D01*
X185690000Y-119619525D02*
X177060000Y-119619525D01*
X185690000Y-119501430D02*
X177060000Y-119501430D01*
X185690000Y-119383335D02*
X177060000Y-119383335D01*
X177060000Y-119360000D02*
X176710000Y-119360000D01*
X185690000Y-119265240D02*
X177060000Y-119265240D01*
X185690000Y-119147145D02*
X177060000Y-119147145D01*
X185690000Y-119029050D02*
X177060000Y-119029050D01*
X185690000Y-118910955D02*
X177060000Y-118910955D01*
X185690000Y-118792860D02*
X177060000Y-118792860D01*
X185690000Y-118674765D02*
X177060000Y-118674765D01*
X177060000Y-118640000D02*
X176710000Y-118640000D01*
X185690000Y-118556670D02*
X177060000Y-118556670D01*
X185690000Y-118438575D02*
X177060000Y-118438575D01*
X185690000Y-118320480D02*
X177060000Y-118320480D01*
X185690000Y-118202385D02*
X177060000Y-118202385D01*
X185690000Y-118084290D02*
X177060000Y-118084290D01*
X185690000Y-117966195D02*
X177060000Y-117966195D01*
X185690000Y-117848100D02*
X177060000Y-117848100D01*
X185690000Y-117730000D02*
X177060000Y-117730000D01*
X177060000Y-116820000D02*
X176650000Y-116820000D01*
X177060000Y-116100000D02*
X176650000Y-116100000D01*
X185690000Y-115130000D02*
X177060000Y-115130000D01*
%TO.C,J8*%
X95310000Y-86570000D02*
X103940000Y-86570000D01*
X103940000Y-85600000D02*
X104350000Y-85600000D01*
X103940000Y-84880000D02*
X104350000Y-84880000D01*
X95310000Y-83970000D02*
X103940000Y-83970000D01*
X95310000Y-83851900D02*
X103940000Y-83851900D01*
X95310000Y-83733805D02*
X103940000Y-83733805D01*
X95310000Y-83615710D02*
X103940000Y-83615710D01*
X95310000Y-83497615D02*
X103940000Y-83497615D01*
X95310000Y-83379520D02*
X103940000Y-83379520D01*
X95310000Y-83261425D02*
X103940000Y-83261425D01*
X95310000Y-83143330D02*
X103940000Y-83143330D01*
X103940000Y-83060000D02*
X104290000Y-83060000D01*
X95310000Y-83025235D02*
X103940000Y-83025235D01*
X95310000Y-82907140D02*
X103940000Y-82907140D01*
X95310000Y-82789045D02*
X103940000Y-82789045D01*
X95310000Y-82670950D02*
X103940000Y-82670950D01*
X95310000Y-82552855D02*
X103940000Y-82552855D01*
X95310000Y-82434760D02*
X103940000Y-82434760D01*
X103940000Y-82340000D02*
X104290000Y-82340000D01*
X95310000Y-82316665D02*
X103940000Y-82316665D01*
X95310000Y-82198570D02*
X103940000Y-82198570D01*
X95310000Y-82080475D02*
X103940000Y-82080475D01*
X95310000Y-81962380D02*
X103940000Y-81962380D01*
X95310000Y-81844285D02*
X103940000Y-81844285D01*
X95310000Y-81726190D02*
X103940000Y-81726190D01*
X95310000Y-81608095D02*
X103940000Y-81608095D01*
X95310000Y-81490000D02*
X103940000Y-81490000D01*
X95310000Y-81370000D02*
X95310000Y-86570000D01*
X95310000Y-81370000D02*
X103940000Y-81370000D01*
X103940000Y-81370000D02*
X103940000Y-86570000D01*
X105400000Y-81370000D02*
X106510000Y-81370000D01*
X106510000Y-81370000D02*
X106510000Y-82700000D01*
%TO.C,J4*%
X171630000Y-73510000D02*
X170300000Y-73510000D01*
X171630000Y-72400000D02*
X171630000Y-73510000D01*
X167400000Y-70940000D02*
X167400000Y-71350000D01*
X168120000Y-70940000D02*
X168120000Y-71350000D01*
X169940000Y-70940000D02*
X169940000Y-71290000D01*
X170660000Y-70940000D02*
X170660000Y-71290000D01*
X171630000Y-70940000D02*
X166430000Y-70940000D01*
X166430000Y-62310000D02*
X166430000Y-70940000D01*
X169030000Y-62310000D02*
X169030000Y-70940000D01*
X169148100Y-62310000D02*
X169148100Y-70940000D01*
X169266195Y-62310000D02*
X169266195Y-70940000D01*
X169384290Y-62310000D02*
X169384290Y-70940000D01*
X169502385Y-62310000D02*
X169502385Y-70940000D01*
X169620480Y-62310000D02*
X169620480Y-70940000D01*
X169738575Y-62310000D02*
X169738575Y-70940000D01*
X169856670Y-62310000D02*
X169856670Y-70940000D01*
X169974765Y-62310000D02*
X169974765Y-70940000D01*
X170092860Y-62310000D02*
X170092860Y-70940000D01*
X170210955Y-62310000D02*
X170210955Y-70940000D01*
X170329050Y-62310000D02*
X170329050Y-70940000D01*
X170447145Y-62310000D02*
X170447145Y-70940000D01*
X170565240Y-62310000D02*
X170565240Y-70940000D01*
X170683335Y-62310000D02*
X170683335Y-70940000D01*
X170801430Y-62310000D02*
X170801430Y-70940000D01*
X170919525Y-62310000D02*
X170919525Y-70940000D01*
X171037620Y-62310000D02*
X171037620Y-70940000D01*
X171155715Y-62310000D02*
X171155715Y-70940000D01*
X171273810Y-62310000D02*
X171273810Y-70940000D01*
X171391905Y-62310000D02*
X171391905Y-70940000D01*
X171510000Y-62310000D02*
X171510000Y-70940000D01*
X171630000Y-62310000D02*
X171630000Y-70940000D01*
X171630000Y-62310000D02*
X166430000Y-62310000D01*
%TO.C,R3*%
X140225000Y-92370000D02*
X146765000Y-92370000D01*
X146765000Y-92370000D02*
X146765000Y-92040000D01*
X140225000Y-92040000D02*
X140225000Y-92370000D01*
X140225000Y-89960000D02*
X140225000Y-89630000D01*
X140225000Y-89630000D02*
X146765000Y-89630000D01*
X146765000Y-89630000D02*
X146765000Y-89960000D01*
%TO.C,J1*%
X95310000Y-116570000D02*
X103940000Y-116570000D01*
X103940000Y-115600000D02*
X104350000Y-115600000D01*
X103940000Y-114880000D02*
X104350000Y-114880000D01*
X95310000Y-113970000D02*
X103940000Y-113970000D01*
X95310000Y-113851900D02*
X103940000Y-113851900D01*
X95310000Y-113733805D02*
X103940000Y-113733805D01*
X95310000Y-113615710D02*
X103940000Y-113615710D01*
X95310000Y-113497615D02*
X103940000Y-113497615D01*
X95310000Y-113379520D02*
X103940000Y-113379520D01*
X95310000Y-113261425D02*
X103940000Y-113261425D01*
X95310000Y-113143330D02*
X103940000Y-113143330D01*
X103940000Y-113060000D02*
X104290000Y-113060000D01*
X95310000Y-113025235D02*
X103940000Y-113025235D01*
X95310000Y-112907140D02*
X103940000Y-112907140D01*
X95310000Y-112789045D02*
X103940000Y-112789045D01*
X95310000Y-112670950D02*
X103940000Y-112670950D01*
X95310000Y-112552855D02*
X103940000Y-112552855D01*
X95310000Y-112434760D02*
X103940000Y-112434760D01*
X103940000Y-112340000D02*
X104290000Y-112340000D01*
X95310000Y-112316665D02*
X103940000Y-112316665D01*
X95310000Y-112198570D02*
X103940000Y-112198570D01*
X95310000Y-112080475D02*
X103940000Y-112080475D01*
X95310000Y-111962380D02*
X103940000Y-111962380D01*
X95310000Y-111844285D02*
X103940000Y-111844285D01*
X95310000Y-111726190D02*
X103940000Y-111726190D01*
X95310000Y-111608095D02*
X103940000Y-111608095D01*
X95310000Y-111490000D02*
X103940000Y-111490000D01*
X95310000Y-111370000D02*
X95310000Y-116570000D01*
X95310000Y-111370000D02*
X103940000Y-111370000D01*
X103940000Y-111370000D02*
X103940000Y-116570000D01*
X105400000Y-111370000D02*
X106510000Y-111370000D01*
X106510000Y-111370000D02*
X106510000Y-112700000D01*
D13*
%TO.C,U2*%
X137395000Y-68855000D02*
X137395000Y-75205000D01*
X146985000Y-68855000D02*
X146985000Y-75205000D01*
D14*
X146100000Y-66995000D02*
G75*
G02*
X145900000Y-66995000I-100000J0D01*
G01*
X145900000Y-66995000D02*
G75*
G02*
X146100000Y-66995000I100000J0D01*
G01*
D12*
%TO.C,J7*%
X174490000Y-111355000D02*
X174490000Y-110025000D01*
X175600000Y-111355000D02*
X174490000Y-111355000D01*
X177060000Y-111355000D02*
X177060000Y-103615000D01*
X185690000Y-111355000D02*
X177060000Y-111355000D01*
X185690000Y-111355000D02*
X185690000Y-103615000D01*
X185690000Y-111235000D02*
X177060000Y-111235000D01*
X185690000Y-111116905D02*
X177060000Y-111116905D01*
X185690000Y-110998810D02*
X177060000Y-110998810D01*
X185690000Y-110880715D02*
X177060000Y-110880715D01*
X185690000Y-110762620D02*
X177060000Y-110762620D01*
X185690000Y-110644525D02*
X177060000Y-110644525D01*
X185690000Y-110526430D02*
X177060000Y-110526430D01*
X185690000Y-110408335D02*
X177060000Y-110408335D01*
X177060000Y-110385000D02*
X176710000Y-110385000D01*
X185690000Y-110290240D02*
X177060000Y-110290240D01*
X185690000Y-110172145D02*
X177060000Y-110172145D01*
X185690000Y-110054050D02*
X177060000Y-110054050D01*
X185690000Y-109935955D02*
X177060000Y-109935955D01*
X185690000Y-109817860D02*
X177060000Y-109817860D01*
X185690000Y-109699765D02*
X177060000Y-109699765D01*
X177060000Y-109665000D02*
X176710000Y-109665000D01*
X185690000Y-109581670D02*
X177060000Y-109581670D01*
X185690000Y-109463575D02*
X177060000Y-109463575D01*
X185690000Y-109345480D02*
X177060000Y-109345480D01*
X185690000Y-109227385D02*
X177060000Y-109227385D01*
X185690000Y-109109290D02*
X177060000Y-109109290D01*
X185690000Y-108991195D02*
X177060000Y-108991195D01*
X185690000Y-108873100D02*
X177060000Y-108873100D01*
X185690000Y-108755000D02*
X177060000Y-108755000D01*
X177060000Y-107845000D02*
X176650000Y-107845000D01*
X177060000Y-107125000D02*
X176650000Y-107125000D01*
X185690000Y-106215000D02*
X177060000Y-106215000D01*
X177060000Y-105305000D02*
X176650000Y-105305000D01*
X177060000Y-104585000D02*
X176650000Y-104585000D01*
X185690000Y-103615000D02*
X177060000Y-103615000D01*
%TO.C,J3*%
X174490000Y-86630000D02*
X174490000Y-85300000D01*
X175600000Y-86630000D02*
X174490000Y-86630000D01*
X177060000Y-86630000D02*
X177060000Y-81430000D01*
X185690000Y-86630000D02*
X177060000Y-86630000D01*
X185690000Y-86630000D02*
X185690000Y-81430000D01*
X185690000Y-86510000D02*
X177060000Y-86510000D01*
X185690000Y-86391905D02*
X177060000Y-86391905D01*
X185690000Y-86273810D02*
X177060000Y-86273810D01*
X185690000Y-86155715D02*
X177060000Y-86155715D01*
X185690000Y-86037620D02*
X177060000Y-86037620D01*
X185690000Y-85919525D02*
X177060000Y-85919525D01*
X185690000Y-85801430D02*
X177060000Y-85801430D01*
X185690000Y-85683335D02*
X177060000Y-85683335D01*
X177060000Y-85660000D02*
X176710000Y-85660000D01*
X185690000Y-85565240D02*
X177060000Y-85565240D01*
X185690000Y-85447145D02*
X177060000Y-85447145D01*
X185690000Y-85329050D02*
X177060000Y-85329050D01*
X185690000Y-85210955D02*
X177060000Y-85210955D01*
X185690000Y-85092860D02*
X177060000Y-85092860D01*
X185690000Y-84974765D02*
X177060000Y-84974765D01*
X177060000Y-84940000D02*
X176710000Y-84940000D01*
X185690000Y-84856670D02*
X177060000Y-84856670D01*
X185690000Y-84738575D02*
X177060000Y-84738575D01*
X185690000Y-84620480D02*
X177060000Y-84620480D01*
X185690000Y-84502385D02*
X177060000Y-84502385D01*
X185690000Y-84384290D02*
X177060000Y-84384290D01*
X185690000Y-84266195D02*
X177060000Y-84266195D01*
X185690000Y-84148100D02*
X177060000Y-84148100D01*
X185690000Y-84030000D02*
X177060000Y-84030000D01*
X177060000Y-83120000D02*
X176650000Y-83120000D01*
X177060000Y-82400000D02*
X176650000Y-82400000D01*
X185690000Y-81430000D02*
X177060000Y-81430000D01*
D10*
%TO.C,Q1*%
X116600000Y-118560000D02*
X117000000Y-118560000D01*
X116600000Y-118560000D02*
X116600000Y-118160000D01*
X117710000Y-118560000D02*
X117710000Y-108460000D01*
X121400000Y-118560000D02*
X117000000Y-118560000D01*
X121400000Y-118560000D02*
X121400000Y-118160000D01*
X116600000Y-108760000D02*
X116600000Y-108360000D01*
X116600000Y-108360000D02*
X117000000Y-108360000D01*
X121400000Y-108360000D02*
X121400000Y-108760000D01*
X121400000Y-108360000D02*
X121000000Y-108360000D01*
%TO.C,Q2*%
X116600000Y-85560000D02*
X117000000Y-85560000D01*
X116600000Y-85560000D02*
X116600000Y-85160000D01*
X117710000Y-85560000D02*
X117710000Y-75460000D01*
X121400000Y-85560000D02*
X117000000Y-85560000D01*
X121400000Y-85560000D02*
X121400000Y-85160000D01*
X116600000Y-75760000D02*
X116600000Y-75360000D01*
X116600000Y-75360000D02*
X117000000Y-75360000D01*
X121400000Y-75360000D02*
X121400000Y-75760000D01*
X121400000Y-75360000D02*
X121000000Y-75360000D01*
D12*
%TO.C,R1*%
X128200000Y-118320000D02*
X166440000Y-118320000D01*
X166440000Y-118320000D02*
X166440000Y-116440000D01*
X128200000Y-116440000D02*
X128200000Y-118320000D01*
X128200000Y-113560000D02*
X128200000Y-111680000D01*
X128200000Y-111680000D02*
X166440000Y-111680000D01*
X166440000Y-111680000D02*
X166440000Y-113560000D01*
%TO.C,R4*%
X140225000Y-66370000D02*
X146765000Y-66370000D01*
X146765000Y-66370000D02*
X146765000Y-66040000D01*
X140225000Y-66040000D02*
X140225000Y-66370000D01*
X140225000Y-63960000D02*
X140225000Y-63630000D01*
X140225000Y-63630000D02*
X146765000Y-63630000D01*
X146765000Y-63630000D02*
X146765000Y-63960000D01*
%TO.C,J5*%
X161855000Y-73510000D02*
X160525000Y-73510000D01*
X161855000Y-72400000D02*
X161855000Y-73510000D01*
X155085000Y-70940000D02*
X155085000Y-71350000D01*
X155805000Y-70940000D02*
X155805000Y-71350000D01*
X157625000Y-70940000D02*
X157625000Y-71350000D01*
X158345000Y-70940000D02*
X158345000Y-71350000D01*
X160165000Y-70940000D02*
X160165000Y-71290000D01*
X160885000Y-70940000D02*
X160885000Y-71290000D01*
X161855000Y-70940000D02*
X154115000Y-70940000D01*
X154115000Y-62310000D02*
X154115000Y-70940000D01*
X156715000Y-62310000D02*
X156715000Y-70940000D01*
X159255000Y-62310000D02*
X159255000Y-70940000D01*
X159373100Y-62310000D02*
X159373100Y-70940000D01*
X159491195Y-62310000D02*
X159491195Y-70940000D01*
X159609290Y-62310000D02*
X159609290Y-70940000D01*
X159727385Y-62310000D02*
X159727385Y-70940000D01*
X159845480Y-62310000D02*
X159845480Y-70940000D01*
X159963575Y-62310000D02*
X159963575Y-70940000D01*
X160081670Y-62310000D02*
X160081670Y-70940000D01*
X160199765Y-62310000D02*
X160199765Y-70940000D01*
X160317860Y-62310000D02*
X160317860Y-70940000D01*
X160435955Y-62310000D02*
X160435955Y-70940000D01*
X160554050Y-62310000D02*
X160554050Y-70940000D01*
X160672145Y-62310000D02*
X160672145Y-70940000D01*
X160790240Y-62310000D02*
X160790240Y-70940000D01*
X160908335Y-62310000D02*
X160908335Y-70940000D01*
X161026430Y-62310000D02*
X161026430Y-70940000D01*
X161144525Y-62310000D02*
X161144525Y-70940000D01*
X161262620Y-62310000D02*
X161262620Y-70940000D01*
X161380715Y-62310000D02*
X161380715Y-70940000D01*
X161498810Y-62310000D02*
X161498810Y-70940000D01*
X161616905Y-62310000D02*
X161616905Y-70940000D01*
X161735000Y-62310000D02*
X161735000Y-70940000D01*
X161855000Y-62310000D02*
X161855000Y-70940000D01*
X161855000Y-62310000D02*
X154115000Y-62310000D01*
D10*
%TO.C,Q3*%
X116600000Y-105640000D02*
X117000000Y-105640000D01*
X116600000Y-105640000D02*
X116600000Y-105240000D01*
X117710000Y-105640000D02*
X117710000Y-95540000D01*
X121400000Y-105640000D02*
X117000000Y-105640000D01*
X121400000Y-105640000D02*
X121400000Y-105240000D01*
X116600000Y-95840000D02*
X116600000Y-95440000D01*
X116600000Y-95440000D02*
X117000000Y-95440000D01*
X121400000Y-95440000D02*
X121400000Y-95840000D01*
X121400000Y-95440000D02*
X121000000Y-95440000D01*
D13*
%TO.C,U1*%
X138395000Y-97795000D02*
X138395000Y-104145000D01*
X147985000Y-97795000D02*
X147985000Y-104145000D01*
D14*
X147100000Y-95935000D02*
G75*
G02*
X146900000Y-95935000I-100000J0D01*
G01*
X146900000Y-95935000D02*
G75*
G02*
X147100000Y-95935000I100000J0D01*
G01*
D12*
%TO.C,J2*%
X95310000Y-107570000D02*
X103940000Y-107570000D01*
X103940000Y-106600000D02*
X104350000Y-106600000D01*
X103940000Y-105880000D02*
X104350000Y-105880000D01*
X95310000Y-104970000D02*
X103940000Y-104970000D01*
X95310000Y-104851900D02*
X103940000Y-104851900D01*
X95310000Y-104733805D02*
X103940000Y-104733805D01*
X95310000Y-104615710D02*
X103940000Y-104615710D01*
X95310000Y-104497615D02*
X103940000Y-104497615D01*
X95310000Y-104379520D02*
X103940000Y-104379520D01*
X95310000Y-104261425D02*
X103940000Y-104261425D01*
X95310000Y-104143330D02*
X103940000Y-104143330D01*
X103940000Y-104060000D02*
X104290000Y-104060000D01*
X95310000Y-104025235D02*
X103940000Y-104025235D01*
X95310000Y-103907140D02*
X103940000Y-103907140D01*
X95310000Y-103789045D02*
X103940000Y-103789045D01*
X95310000Y-103670950D02*
X103940000Y-103670950D01*
X95310000Y-103552855D02*
X103940000Y-103552855D01*
X95310000Y-103434760D02*
X103940000Y-103434760D01*
X103940000Y-103340000D02*
X104290000Y-103340000D01*
X95310000Y-103316665D02*
X103940000Y-103316665D01*
X95310000Y-103198570D02*
X103940000Y-103198570D01*
X95310000Y-103080475D02*
X103940000Y-103080475D01*
X95310000Y-102962380D02*
X103940000Y-102962380D01*
X95310000Y-102844285D02*
X103940000Y-102844285D01*
X95310000Y-102726190D02*
X103940000Y-102726190D01*
X95310000Y-102608095D02*
X103940000Y-102608095D01*
X95310000Y-102490000D02*
X103940000Y-102490000D01*
X95310000Y-102370000D02*
X95310000Y-107570000D01*
X95310000Y-102370000D02*
X103940000Y-102370000D01*
X103940000Y-102370000D02*
X103940000Y-107570000D01*
X105400000Y-102370000D02*
X106510000Y-102370000D01*
X106510000Y-102370000D02*
X106510000Y-103700000D01*
%TO.C,R2*%
X130200000Y-85320000D02*
X168440000Y-85320000D01*
X168440000Y-85320000D02*
X168440000Y-83440000D01*
X130200000Y-83440000D02*
X130200000Y-85320000D01*
X130200000Y-80560000D02*
X130200000Y-78680000D01*
X130200000Y-78680000D02*
X168440000Y-78680000D01*
X168440000Y-78680000D02*
X168440000Y-80560000D01*
%TD*%
M02*
