%TF.GenerationSoftware,KiCad,Pcbnew,8.0.6*%
%TF.CreationDate,2025-01-22T12:45:07+00:00*%
%TF.ProjectId,custom_driver,63757374-6f6d-45f6-9472-697665722e6b,rev?*%
%TF.SameCoordinates,Original*%
%TF.FileFunction,Copper,L1,Top*%
%TF.FilePolarity,Positive*%
%FSLAX46Y46*%
G04 Gerber Fmt 4.6, Leading zero omitted, Abs format (unit mm)*
G04 Created by KiCad (PCBNEW 8.0.6) date 2025-01-22 12:45:07*
%MOMM*%
%LPD*%
G01*
G04 APERTURE LIST*
%TA.AperFunction,ComponentPad*%
%ADD10C,1.600000*%
%TD*%
%TA.AperFunction,ComponentPad*%
%ADD11O,1.600000X1.600000*%
%TD*%
%TA.AperFunction,ComponentPad*%
%ADD12R,2.000000X2.000000*%
%TD*%
%TA.AperFunction,ComponentPad*%
%ADD13C,2.000000*%
%TD*%
%TA.AperFunction,ComponentPad*%
%ADD14R,1.700000X1.700000*%
%TD*%
%TA.AperFunction,ComponentPad*%
%ADD15O,1.700000X1.700000*%
%TD*%
%TA.AperFunction,ComponentPad*%
%ADD16R,1.130000X1.130000*%
%TD*%
%TA.AperFunction,ComponentPad*%
%ADD17C,1.130000*%
%TD*%
%TA.AperFunction,ComponentPad*%
%ADD18C,2.400000*%
%TD*%
%TA.AperFunction,ComponentPad*%
%ADD19O,2.400000X2.400000*%
%TD*%
%TA.AperFunction,Conductor*%
%ADD20C,0.500000*%
%TD*%
%TA.AperFunction,Conductor*%
%ADD21C,0.800000*%
%TD*%
%ADD22C,0.350000*%
G04 APERTURE END LIST*
D10*
%TO.P,R8,1*%
%TO.N,D4*%
X113000000Y-67000000D03*
D11*
%TO.P,R8,2*%
%TO.N,+12V*%
X105380000Y-67000000D03*
%TD*%
D10*
%TO.P,R7,1*%
%TO.N,D3*%
X113810000Y-97000000D03*
D11*
%TO.P,R7,2*%
%TO.N,+12V*%
X106190000Y-97000000D03*
%TD*%
D10*
%TO.P,R6,1*%
%TO.N,+12V*%
X109000000Y-80000000D03*
D11*
%TO.P,R6,2*%
%TO.N,D2*%
X116620000Y-80000000D03*
%TD*%
D10*
%TO.P,R5,1*%
%TO.N,D1*%
X117000000Y-109000000D03*
D11*
%TO.P,R5,2*%
%TO.N,+12V*%
X109380000Y-109000000D03*
%TD*%
D12*
%TO.P,Q4,1,G*%
%TO.N,G4*%
X119000000Y-71000000D03*
D13*
%TO.P,Q4,2,D*%
%TO.N,D4*%
X119000000Y-68460000D03*
%TO.P,Q4,3,S*%
%TO.N,S4*%
X119000000Y-65920000D03*
%TD*%
D14*
%TO.P,J9,1,Pin_1*%
%TO.N,+12V*%
X105000000Y-74460000D03*
D15*
%TO.P,J9,2,Pin_2*%
%TO.N,D4*%
X105000000Y-77000000D03*
%TD*%
D14*
%TO.P,J6,1,Pin_1*%
%TO.N,GND*%
X175600000Y-119000000D03*
D15*
%TO.P,J6,2,Pin_2*%
%TO.N,UVS*%
X175600000Y-116460000D03*
%TD*%
D14*
%TO.P,J8,1,Pin_1*%
%TO.N,+12V*%
X105400000Y-82700000D03*
D15*
%TO.P,J8,2,Pin_2*%
%TO.N,D2*%
X105400000Y-85240000D03*
%TD*%
D14*
%TO.P,J4,1,Pin_1*%
%TO.N,GND*%
X170300000Y-72400000D03*
D15*
%TO.P,J4,2,Pin_2*%
%TO.N,GRS*%
X167760000Y-72400000D03*
%TD*%
D10*
%TO.P,R3,1*%
%TO.N,GND*%
X139685000Y-91000000D03*
D11*
%TO.P,R3,2*%
%TO.N,S3*%
X147305000Y-91000000D03*
%TD*%
D14*
%TO.P,J1,1,Pin_1*%
%TO.N,+12V*%
X105400000Y-112700000D03*
D15*
%TO.P,J1,2,Pin_2*%
%TO.N,D1*%
X105400000Y-115240000D03*
%TD*%
D16*
%TO.P,U2,1*%
%TO.N,G4*%
X146000000Y-68060000D03*
D17*
%TO.P,U2,2*%
%TO.N,S4*%
X143460000Y-68060000D03*
%TO.P,U2,3*%
%TO.N,GRO*%
X140920000Y-68060000D03*
%TO.P,U2,4,GND*%
%TO.N,GND*%
X138380000Y-68060000D03*
%TO.P,U2,5*%
%TO.N,UVO*%
X138380000Y-76000000D03*
%TO.P,U2,6*%
%TO.N,S2*%
X140920000Y-76000000D03*
%TO.P,U2,7*%
%TO.N,G2*%
X143460000Y-76000000D03*
%TO.P,U2,8,V+*%
%TO.N,+12V*%
X146000000Y-76000000D03*
%TD*%
D14*
%TO.P,J7,1,Pin_1*%
%TO.N,GND*%
X175600000Y-110025000D03*
D15*
%TO.P,J7,2,Pin_2*%
%TO.N,UVS*%
X175600000Y-107485000D03*
%TO.P,J7,3,Pin_3*%
%TO.N,UVO*%
X175600000Y-104945000D03*
%TD*%
D14*
%TO.P,J3,1,Pin_1*%
%TO.N,GND*%
X175600000Y-85300000D03*
D15*
%TO.P,J3,2,Pin_2*%
%TO.N,+12V*%
X175600000Y-82760000D03*
%TD*%
D12*
%TO.P,Q1,1,G*%
%TO.N,G1*%
X122000000Y-116080000D03*
D13*
%TO.P,Q1,2,D*%
%TO.N,D1*%
X122000000Y-113540000D03*
%TO.P,Q1,3,S*%
%TO.N,S1*%
X122000000Y-111000000D03*
%TD*%
D12*
%TO.P,Q2,1,G*%
%TO.N,G2*%
X121000000Y-85080000D03*
D13*
%TO.P,Q2,2,D*%
%TO.N,D2*%
X121000000Y-82540000D03*
%TO.P,Q2,3,S*%
%TO.N,S2*%
X121000000Y-80000000D03*
%TD*%
D18*
%TO.P,R1,1*%
%TO.N,S1*%
X127000000Y-115000000D03*
D19*
%TO.P,R1,2*%
%TO.N,GND*%
X167640000Y-115000000D03*
%TD*%
D10*
%TO.P,R4,1*%
%TO.N,GND*%
X139685000Y-65000000D03*
D11*
%TO.P,R4,2*%
%TO.N,S4*%
X147305000Y-65000000D03*
%TD*%
D14*
%TO.P,J5,1,Pin_1*%
%TO.N,GND*%
X160525000Y-72400000D03*
D15*
%TO.P,J5,2,Pin_2*%
%TO.N,GRS*%
X157985000Y-72400000D03*
%TO.P,J5,3,Pin_3*%
%TO.N,GRO*%
X155445000Y-72400000D03*
%TD*%
D12*
%TO.P,Q3,1,G*%
%TO.N,G3*%
X119000000Y-103080000D03*
D13*
%TO.P,Q3,2,D*%
%TO.N,D3*%
X119000000Y-100540000D03*
%TO.P,Q3,3,S*%
%TO.N,S3*%
X119000000Y-98000000D03*
%TD*%
D18*
%TO.P,R2,1*%
%TO.N,S2*%
X129000000Y-82000000D03*
D19*
%TO.P,R2,2*%
%TO.N,GND*%
X169640000Y-82000000D03*
%TD*%
D16*
%TO.P,U1,1*%
%TO.N,G3*%
X147000000Y-97000000D03*
D17*
%TO.P,U1,2*%
%TO.N,S3*%
X144460000Y-97000000D03*
%TO.P,U1,3*%
%TO.N,GRO*%
X141920000Y-97000000D03*
%TO.P,U1,4,GND*%
%TO.N,GND*%
X139380000Y-97000000D03*
%TO.P,U1,5*%
%TO.N,UVO*%
X139380000Y-104940000D03*
%TO.P,U1,6*%
%TO.N,S1*%
X141920000Y-104940000D03*
%TO.P,U1,7*%
%TO.N,G1*%
X144460000Y-104940000D03*
%TO.P,U1,8,V+*%
%TO.N,+12V*%
X147000000Y-104940000D03*
%TD*%
D14*
%TO.P,J2,1,Pin_1*%
%TO.N,+12V*%
X105400000Y-103700000D03*
D15*
%TO.P,J2,2,Pin_2*%
%TO.N,D3*%
X105400000Y-106240000D03*
%TD*%
D20*
%TO.N,D4*%
X115080000Y-67000000D02*
X116540000Y-68460000D01*
X113000000Y-67000000D02*
X115080000Y-67000000D01*
D21*
%TO.N,+12V*%
X105000000Y-67380000D02*
X105380000Y-67000000D01*
X105000000Y-74460000D02*
X105000000Y-67380000D01*
D20*
%TO.N,D2*%
X119160000Y-82540000D02*
X116620000Y-80000000D01*
X121000000Y-82540000D02*
X119160000Y-82540000D01*
X115000000Y-80000000D02*
X116620000Y-80000000D01*
X109760000Y-85240000D02*
X115000000Y-80000000D01*
D21*
%TO.N,+12V*%
X106300000Y-82700000D02*
X109000000Y-80000000D01*
X105400000Y-82700000D02*
X106300000Y-82700000D01*
D20*
%TO.N,D3*%
X113810000Y-99890000D02*
X114460000Y-100540000D01*
X113810000Y-97000000D02*
X113810000Y-99890000D01*
D21*
%TO.N,+12V*%
X105400000Y-97790000D02*
X106190000Y-97000000D01*
X105400000Y-103700000D02*
X105400000Y-97790000D01*
D20*
%TO.N,D1*%
X111460000Y-113540000D02*
X122000000Y-113540000D01*
X109760000Y-115240000D02*
X111460000Y-113540000D01*
X121540000Y-113540000D02*
X122000000Y-113540000D01*
X117000000Y-109000000D02*
X121540000Y-113540000D01*
D21*
%TO.N,+12V*%
X105680000Y-112700000D02*
X109380000Y-109000000D01*
X105400000Y-112700000D02*
X105680000Y-112700000D01*
D20*
%TO.N,G1*%
X122000000Y-116080000D02*
X122000000Y-117000000D01*
X122000000Y-117000000D02*
X124000000Y-119000000D01*
%TO.N,S1*%
X127000000Y-115000000D02*
X123000000Y-111000000D01*
X123000000Y-111000000D02*
X122000000Y-111000000D01*
%TO.N,D1*%
X105400000Y-115240000D02*
X109760000Y-115240000D01*
%TO.N,D4*%
X116540000Y-68460000D02*
X119000000Y-68460000D01*
X105000000Y-77000000D02*
X108000000Y-77000000D01*
%TO.N,D3*%
X108760000Y-106240000D02*
X114460000Y-100540000D01*
X114460000Y-100540000D02*
X119000000Y-100540000D01*
X105400000Y-106240000D02*
X108760000Y-106240000D01*
%TO.N,GRS*%
X167760000Y-72400000D02*
X167760000Y-74240000D01*
X157985000Y-73985000D02*
X157985000Y-72400000D01*
X167000000Y-75000000D02*
X159000000Y-75000000D01*
X159000000Y-75000000D02*
X157985000Y-73985000D01*
X167760000Y-74240000D02*
X167000000Y-75000000D01*
%TO.N,GRO*%
X154000000Y-72000000D02*
X154400000Y-72400000D01*
X141920000Y-92080000D02*
X155445000Y-78555000D01*
X150000000Y-63000000D02*
X152000000Y-65000000D01*
X152000000Y-65000000D02*
X152000000Y-71000000D01*
X140920000Y-67080000D02*
X145000000Y-63000000D01*
X145000000Y-63000000D02*
X150000000Y-63000000D01*
X141920000Y-97000000D02*
X141920000Y-92080000D01*
X154400000Y-72400000D02*
X155445000Y-72400000D01*
X152000000Y-71000000D02*
X153000000Y-72000000D01*
X155445000Y-78555000D02*
X155445000Y-72400000D01*
X140920000Y-68060000D02*
X140920000Y-67080000D01*
X153000000Y-72000000D02*
X154000000Y-72000000D01*
%TO.N,UVS*%
X174515000Y-107485000D02*
X175600000Y-107485000D01*
X174460000Y-116460000D02*
X173000000Y-115000000D01*
X173000000Y-115000000D02*
X173000000Y-109000000D01*
X174460000Y-116460000D02*
X175600000Y-116460000D01*
X173000000Y-109000000D02*
X174515000Y-107485000D01*
%TO.N,UVO*%
X141320000Y-103000000D02*
X166000000Y-103000000D01*
X169055000Y-104945000D02*
X176600000Y-104945000D01*
X139380000Y-104940000D02*
X141320000Y-103000000D01*
X168000000Y-105000000D02*
X169000000Y-105000000D01*
X166000000Y-103000000D02*
X168000000Y-105000000D01*
X169000000Y-105000000D02*
X169055000Y-104945000D01*
%TO.N,D2*%
X105400000Y-85240000D02*
X109760000Y-85240000D01*
%TO.N,S1*%
X141920000Y-104940000D02*
X136860000Y-110000000D01*
X130000000Y-110000000D02*
X127000000Y-113000000D01*
X127000000Y-113000000D02*
X127000000Y-115000000D01*
X136860000Y-110000000D02*
X130000000Y-110000000D01*
%TO.N,G1*%
X136000000Y-119000000D02*
X144460000Y-110540000D01*
X124000000Y-119000000D02*
X136000000Y-119000000D01*
X144460000Y-110540000D02*
X144460000Y-104940000D01*
%TO.N,S2*%
X129000000Y-82000000D02*
X137000000Y-82000000D01*
X123080000Y-82000000D02*
X129000000Y-82000000D01*
X140920000Y-78080000D02*
X140920000Y-76000000D01*
X137000000Y-82000000D02*
X140920000Y-78080000D01*
%TO.N,G2*%
X143460000Y-76000000D02*
X143460000Y-79540000D01*
X143460000Y-79540000D02*
X137000000Y-86000000D01*
X137000000Y-86000000D02*
X124000000Y-86000000D01*
%TO.N,S3*%
X144460000Y-97000000D02*
X144460000Y-92540000D01*
X133015000Y-98015000D02*
X134015000Y-98015000D01*
X135000000Y-99000000D02*
X142460000Y-99000000D01*
X142460000Y-99000000D02*
X144460000Y-97000000D01*
X144460000Y-92540000D02*
X146000000Y-91000000D01*
X146000000Y-91000000D02*
X147305000Y-91000000D01*
X133000000Y-98000000D02*
X133015000Y-98015000D01*
X134015000Y-98015000D02*
X135000000Y-99000000D01*
X119000000Y-98000000D02*
X133000000Y-98000000D01*
%TO.N,G3*%
X143000000Y-101000000D02*
X147000000Y-97000000D01*
X133000000Y-101000000D02*
X143000000Y-101000000D01*
X119000000Y-103080000D02*
X120080000Y-102000000D01*
X132000000Y-102000000D02*
X133000000Y-101000000D01*
X120080000Y-102000000D02*
X132000000Y-102000000D01*
%TO.N,S4*%
X143000000Y-70000000D02*
X130000000Y-70000000D01*
X146520000Y-65000000D02*
X147305000Y-65000000D01*
X143460000Y-68060000D02*
X143460000Y-69540000D01*
X143460000Y-68060000D02*
X146520000Y-65000000D01*
X125920000Y-65920000D02*
X119000000Y-65920000D01*
X130000000Y-70000000D02*
X125920000Y-65920000D01*
X143460000Y-69540000D02*
X143000000Y-70000000D01*
%TO.N,G4*%
X119000000Y-71000000D02*
X126000000Y-71000000D01*
X146000000Y-70000000D02*
X146000000Y-68060000D01*
X127000000Y-72000000D02*
X144000000Y-72000000D01*
X126000000Y-71000000D02*
X127000000Y-72000000D01*
X144000000Y-72000000D02*
X146000000Y-70000000D01*
%TO.N,D4*%
X108000000Y-77000000D02*
X116540000Y-68460000D01*
%TD*%
%TA.AperFunction,Conductor*%
%TO.N,GND*%
G36*
X144205810Y-62520185D02*
G01*
X144251565Y-62572989D01*
X144261509Y-62642147D01*
X144232484Y-62705703D01*
X144226452Y-62712181D01*
X140337047Y-66601584D01*
X140337043Y-66601589D01*
X140291002Y-66670498D01*
X140291001Y-66670500D01*
X140283770Y-66681322D01*
X140254916Y-66724504D01*
X140254912Y-66724511D01*
X140198343Y-66861082D01*
X140198340Y-66861092D01*
X140169500Y-67006079D01*
X140169500Y-67250562D01*
X140149815Y-67317601D01*
X140141353Y-67329227D01*
X140029783Y-67465174D01*
X140029779Y-67465181D01*
X139930844Y-67650276D01*
X139869917Y-67851123D01*
X139849345Y-68060000D01*
X139869917Y-68268876D01*
X139930844Y-68469723D01*
X140029779Y-68654818D01*
X140029783Y-68654825D01*
X140162932Y-68817067D01*
X140325174Y-68950216D01*
X140325181Y-68950220D01*
X140448512Y-69016142D01*
X140498356Y-69065104D01*
X140513817Y-69133242D01*
X140489986Y-69198921D01*
X140434428Y-69241290D01*
X140390059Y-69249500D01*
X138908880Y-69249500D01*
X138841841Y-69229815D01*
X138796086Y-69177011D01*
X138786142Y-69107853D01*
X138815167Y-69044297D01*
X138850427Y-69016142D01*
X138936553Y-68970106D01*
X138396448Y-68430000D01*
X138428711Y-68430000D01*
X138522815Y-68404785D01*
X138607186Y-68356074D01*
X138676074Y-68287186D01*
X138724785Y-68202815D01*
X138750000Y-68108711D01*
X138750000Y-68076447D01*
X139290105Y-68616552D01*
X139368690Y-68469532D01*
X139429590Y-68268774D01*
X139450152Y-68060000D01*
X139429590Y-67851225D01*
X139368690Y-67650465D01*
X139290106Y-67503445D01*
X138750000Y-68043551D01*
X138750000Y-68011289D01*
X138724785Y-67917185D01*
X138676074Y-67832814D01*
X138607186Y-67763926D01*
X138522815Y-67715215D01*
X138428711Y-67690000D01*
X138396448Y-67690000D01*
X138936552Y-67149893D01*
X138936552Y-67149892D01*
X138789534Y-67071309D01*
X138588772Y-67010409D01*
X138588776Y-67010409D01*
X138380000Y-66989847D01*
X138171225Y-67010409D01*
X137970471Y-67071307D01*
X137823446Y-67149893D01*
X138363553Y-67690000D01*
X138331289Y-67690000D01*
X138237185Y-67715215D01*
X138152814Y-67763926D01*
X138083926Y-67832814D01*
X138035215Y-67917185D01*
X138010000Y-68011289D01*
X138010000Y-68043552D01*
X137469893Y-67503446D01*
X137391307Y-67650471D01*
X137330409Y-67851225D01*
X137309847Y-68060000D01*
X137330409Y-68268774D01*
X137391309Y-68469534D01*
X137469892Y-68616552D01*
X137469893Y-68616552D01*
X138010000Y-68076446D01*
X138010000Y-68108711D01*
X138035215Y-68202815D01*
X138083926Y-68287186D01*
X138152814Y-68356074D01*
X138237185Y-68404785D01*
X138331289Y-68430000D01*
X138363553Y-68430000D01*
X137823445Y-68970106D01*
X137909572Y-69016142D01*
X137959417Y-69065104D01*
X137974877Y-69133242D01*
X137951045Y-69198922D01*
X137895487Y-69241291D01*
X137851119Y-69249500D01*
X130362229Y-69249500D01*
X130295190Y-69229815D01*
X130274548Y-69213181D01*
X128352676Y-67291309D01*
X126398416Y-65337048D01*
X126398415Y-65337047D01*
X126398413Y-65337045D01*
X126349179Y-65304150D01*
X126316355Y-65282218D01*
X126275495Y-65254916D01*
X126275494Y-65254915D01*
X126275492Y-65254914D01*
X126275490Y-65254913D01*
X126138917Y-65198343D01*
X126138907Y-65198340D01*
X125993920Y-65169500D01*
X125993918Y-65169500D01*
X120369136Y-65169500D01*
X120302097Y-65149815D01*
X120265327Y-65113322D01*
X120225695Y-65052661D01*
X120191288Y-64999997D01*
X138380034Y-64999997D01*
X138380034Y-65000002D01*
X138399858Y-65226599D01*
X138399860Y-65226610D01*
X138458730Y-65446317D01*
X138458735Y-65446331D01*
X138554863Y-65652478D01*
X138605974Y-65725472D01*
X139285000Y-65046446D01*
X139285000Y-65052661D01*
X139312259Y-65154394D01*
X139364920Y-65245606D01*
X139439394Y-65320080D01*
X139530606Y-65372741D01*
X139632339Y-65400000D01*
X139638553Y-65400000D01*
X138959526Y-66079025D01*
X139032513Y-66130132D01*
X139032521Y-66130136D01*
X139238668Y-66226264D01*
X139238682Y-66226269D01*
X139458389Y-66285139D01*
X139458400Y-66285141D01*
X139684998Y-66304966D01*
X139685002Y-66304966D01*
X139911599Y-66285141D01*
X139911610Y-66285139D01*
X140131317Y-66226269D01*
X140131331Y-66226264D01*
X140337478Y-66130136D01*
X140410471Y-66079024D01*
X139731447Y-65400000D01*
X139737661Y-65400000D01*
X139839394Y-65372741D01*
X139930606Y-65320080D01*
X140005080Y-65245606D01*
X140057741Y-65154394D01*
X140085000Y-65052661D01*
X140085000Y-65046447D01*
X140764024Y-65725471D01*
X140815136Y-65652478D01*
X140911264Y-65446331D01*
X140911269Y-65446317D01*
X140970139Y-65226610D01*
X140970141Y-65226599D01*
X140989966Y-65000002D01*
X140989966Y-64999997D01*
X140970141Y-64773400D01*
X140970139Y-64773389D01*
X140911269Y-64553682D01*
X140911264Y-64553668D01*
X140815136Y-64347521D01*
X140815132Y-64347513D01*
X140764025Y-64274526D01*
X140085000Y-64953551D01*
X140085000Y-64947339D01*
X140057741Y-64845606D01*
X140005080Y-64754394D01*
X139930606Y-64679920D01*
X139839394Y-64627259D01*
X139737661Y-64600000D01*
X139731448Y-64600000D01*
X140410472Y-63920974D01*
X140337478Y-63869863D01*
X140131331Y-63773735D01*
X140131317Y-63773730D01*
X139911610Y-63714860D01*
X139911599Y-63714858D01*
X139685002Y-63695034D01*
X139684998Y-63695034D01*
X139458400Y-63714858D01*
X139458389Y-63714860D01*
X139238682Y-63773730D01*
X139238673Y-63773734D01*
X139032516Y-63869866D01*
X139032512Y-63869868D01*
X138959526Y-63920973D01*
X138959526Y-63920974D01*
X139638553Y-64600000D01*
X139632339Y-64600000D01*
X139530606Y-64627259D01*
X139439394Y-64679920D01*
X139364920Y-64754394D01*
X139312259Y-64845606D01*
X139285000Y-64947339D01*
X139285000Y-64953552D01*
X138605974Y-64274526D01*
X138605973Y-64274526D01*
X138554868Y-64347512D01*
X138554866Y-64347516D01*
X138458734Y-64553673D01*
X138458730Y-64553682D01*
X138399860Y-64773389D01*
X138399858Y-64773400D01*
X138380034Y-64999997D01*
X120191288Y-64999997D01*
X120188164Y-64995215D01*
X120019744Y-64812262D01*
X119823509Y-64659526D01*
X119823507Y-64659525D01*
X119823506Y-64659524D01*
X119604811Y-64541172D01*
X119604802Y-64541169D01*
X119369616Y-64460429D01*
X119124335Y-64419500D01*
X118875665Y-64419500D01*
X118630383Y-64460429D01*
X118395197Y-64541169D01*
X118395188Y-64541172D01*
X118176493Y-64659524D01*
X117980257Y-64812261D01*
X117811833Y-64995217D01*
X117675826Y-65203393D01*
X117575936Y-65431118D01*
X117514892Y-65672175D01*
X117514890Y-65672187D01*
X117494357Y-65919994D01*
X117494357Y-65920005D01*
X117514890Y-66167812D01*
X117514892Y-66167824D01*
X117575936Y-66408881D01*
X117675826Y-66636606D01*
X117811833Y-66844782D01*
X117811835Y-66844784D01*
X117811836Y-66844785D01*
X117980256Y-67027738D01*
X118063008Y-67092147D01*
X118103821Y-67148857D01*
X118107496Y-67218630D01*
X118072864Y-67279313D01*
X118063014Y-67287848D01*
X117980256Y-67352262D01*
X117811836Y-67535215D01*
X117736540Y-67650465D01*
X117734673Y-67653322D01*
X117681526Y-67698678D01*
X117630864Y-67709500D01*
X116902230Y-67709500D01*
X116835191Y-67689815D01*
X116814549Y-67673181D01*
X115558421Y-66417052D01*
X115558414Y-66417046D01*
X115484729Y-66367812D01*
X115484729Y-66367813D01*
X115435491Y-66334913D01*
X115298917Y-66278343D01*
X115298907Y-66278340D01*
X115153920Y-66249500D01*
X115153918Y-66249500D01*
X114126663Y-66249500D01*
X114059624Y-66229815D01*
X114025088Y-66196623D01*
X114000045Y-66160858D01*
X113839141Y-65999954D01*
X113652734Y-65869432D01*
X113652732Y-65869431D01*
X113446497Y-65773261D01*
X113446488Y-65773258D01*
X113226697Y-65714366D01*
X113226693Y-65714365D01*
X113226692Y-65714365D01*
X113226691Y-65714364D01*
X113226686Y-65714364D01*
X113000002Y-65694532D01*
X112999998Y-65694532D01*
X112773313Y-65714364D01*
X112773302Y-65714366D01*
X112553511Y-65773258D01*
X112553502Y-65773261D01*
X112347267Y-65869431D01*
X112347265Y-65869432D01*
X112160858Y-65999954D01*
X111999954Y-66160858D01*
X111869432Y-66347265D01*
X111869431Y-66347267D01*
X111773261Y-66553502D01*
X111773258Y-66553511D01*
X111714366Y-66773302D01*
X111714364Y-66773313D01*
X111694532Y-66999998D01*
X111694532Y-67000001D01*
X111714364Y-67226686D01*
X111714366Y-67226697D01*
X111773258Y-67446488D01*
X111773261Y-67446497D01*
X111869431Y-67652732D01*
X111869432Y-67652734D01*
X111999954Y-67839141D01*
X112160858Y-68000045D01*
X112160861Y-68000047D01*
X112347266Y-68130568D01*
X112553504Y-68226739D01*
X112773308Y-68285635D01*
X112935230Y-68299801D01*
X112999998Y-68305468D01*
X113000000Y-68305468D01*
X113000002Y-68305468D01*
X113056673Y-68300509D01*
X113226692Y-68285635D01*
X113446496Y-68226739D01*
X113652734Y-68130568D01*
X113839139Y-68000047D01*
X114000047Y-67839139D01*
X114025088Y-67803377D01*
X114079665Y-67759752D01*
X114126663Y-67750500D01*
X114717770Y-67750500D01*
X114784809Y-67770185D01*
X114805451Y-67786819D01*
X115390951Y-68372319D01*
X115424436Y-68433642D01*
X115419452Y-68503334D01*
X115390951Y-68547681D01*
X107725451Y-76213181D01*
X107664128Y-76246666D01*
X107637770Y-76249500D01*
X106187701Y-76249500D01*
X106120662Y-76229815D01*
X106086126Y-76196623D01*
X106038496Y-76128600D01*
X106038495Y-76128599D01*
X105916567Y-76006671D01*
X105883084Y-75945351D01*
X105888068Y-75875659D01*
X105929939Y-75819725D01*
X105960915Y-75802810D01*
X106092331Y-75753796D01*
X106207546Y-75667546D01*
X106293796Y-75552331D01*
X106344091Y-75417483D01*
X106350500Y-75357873D01*
X106350499Y-73562128D01*
X106344091Y-73502517D01*
X106340201Y-73492088D01*
X106293797Y-73367671D01*
X106293793Y-73367664D01*
X106207547Y-73252455D01*
X106207544Y-73252452D01*
X106092335Y-73166206D01*
X106092329Y-73166203D01*
X105981166Y-73124741D01*
X105925233Y-73082869D01*
X105900816Y-73017405D01*
X105900500Y-73008559D01*
X105900500Y-68271226D01*
X105920185Y-68204187D01*
X105972096Y-68158844D01*
X106032734Y-68130568D01*
X106219139Y-68000047D01*
X106380047Y-67839139D01*
X106510568Y-67652734D01*
X106606739Y-67446496D01*
X106665635Y-67226692D01*
X106684936Y-67006079D01*
X106685468Y-67000001D01*
X106685468Y-66999998D01*
X106673315Y-66861092D01*
X106665635Y-66773308D01*
X106606739Y-66553504D01*
X106510568Y-66347266D01*
X106380047Y-66160861D01*
X106380045Y-66160858D01*
X106219141Y-65999954D01*
X106032734Y-65869432D01*
X106032732Y-65869431D01*
X105826497Y-65773261D01*
X105826488Y-65773258D01*
X105606697Y-65714366D01*
X105606693Y-65714365D01*
X105606692Y-65714365D01*
X105606691Y-65714364D01*
X105606686Y-65714364D01*
X105380002Y-65694532D01*
X105379998Y-65694532D01*
X105153313Y-65714364D01*
X105153302Y-65714366D01*
X104933511Y-65773258D01*
X104933502Y-65773261D01*
X104727267Y-65869431D01*
X104727265Y-65869432D01*
X104540858Y-65999954D01*
X104379954Y-66160858D01*
X104249432Y-66347265D01*
X104249431Y-66347267D01*
X104153261Y-66553502D01*
X104153258Y-66553511D01*
X104094366Y-66773302D01*
X104094364Y-66773313D01*
X104074532Y-66999998D01*
X104074532Y-67000001D01*
X104094364Y-67226686D01*
X104094365Y-67226693D01*
X104097206Y-67237293D01*
X104098772Y-67285115D01*
X104100097Y-67285246D01*
X104099500Y-67291308D01*
X104099500Y-73008560D01*
X104079815Y-73075599D01*
X104027011Y-73121354D01*
X104018833Y-73124742D01*
X103907671Y-73166202D01*
X103907664Y-73166206D01*
X103792455Y-73252452D01*
X103792452Y-73252455D01*
X103706206Y-73367664D01*
X103706202Y-73367671D01*
X103655908Y-73502517D01*
X103649501Y-73562116D01*
X103649501Y-73562123D01*
X103649500Y-73562135D01*
X103649500Y-75357870D01*
X103649501Y-75357876D01*
X103655908Y-75417483D01*
X103706202Y-75552328D01*
X103706206Y-75552335D01*
X103792452Y-75667544D01*
X103792455Y-75667547D01*
X103907664Y-75753793D01*
X103907671Y-75753797D01*
X104039081Y-75802810D01*
X104095015Y-75844681D01*
X104119432Y-75910145D01*
X104104580Y-75978418D01*
X104083430Y-76006673D01*
X103961503Y-76128600D01*
X103825965Y-76322169D01*
X103825964Y-76322171D01*
X103726098Y-76536335D01*
X103726094Y-76536344D01*
X103664938Y-76764586D01*
X103664936Y-76764596D01*
X103644341Y-76999999D01*
X103644341Y-77000000D01*
X103664936Y-77235403D01*
X103664938Y-77235413D01*
X103726094Y-77463655D01*
X103726096Y-77463659D01*
X103726097Y-77463663D01*
X103804681Y-77632186D01*
X103825965Y-77677830D01*
X103825967Y-77677834D01*
X103913873Y-77803376D01*
X103961505Y-77871401D01*
X104128599Y-78038495D01*
X104225384Y-78106265D01*
X104322165Y-78174032D01*
X104322167Y-78174033D01*
X104322170Y-78174035D01*
X104536337Y-78273903D01*
X104764592Y-78335063D01*
X104952918Y-78351539D01*
X104999999Y-78355659D01*
X105000000Y-78355659D01*
X105000001Y-78355659D01*
X105039234Y-78352226D01*
X105235408Y-78335063D01*
X105463663Y-78273903D01*
X105677830Y-78174035D01*
X105871401Y-78038495D01*
X106038495Y-77871401D01*
X106086127Y-77803376D01*
X106140704Y-77759751D01*
X106187701Y-77750500D01*
X108073920Y-77750500D01*
X108171462Y-77731096D01*
X108218913Y-77721658D01*
X108355495Y-77665084D01*
X108404729Y-77632186D01*
X108478416Y-77582952D01*
X110061368Y-76000000D01*
X137309345Y-76000000D01*
X137329917Y-76208876D01*
X137390844Y-76409723D01*
X137489779Y-76594818D01*
X137489783Y-76594825D01*
X137622932Y-76757067D01*
X137785174Y-76890216D01*
X137785181Y-76890220D01*
X137970276Y-76989155D01*
X137970278Y-76989156D01*
X138171126Y-77050083D01*
X138380000Y-77070655D01*
X138588874Y-77050083D01*
X138789722Y-76989156D01*
X138974824Y-76890217D01*
X139137067Y-76757067D01*
X139270217Y-76594824D01*
X139369156Y-76409722D01*
X139430083Y-76208874D01*
X139450655Y-76000000D01*
X139430083Y-75791126D01*
X139369156Y-75590278D01*
X139348871Y-75552328D01*
X139270220Y-75405181D01*
X139270216Y-75405174D01*
X139137067Y-75242932D01*
X138974825Y-75109783D01*
X138974818Y-75109779D01*
X138789723Y-75010844D01*
X138588876Y-74949917D01*
X138380000Y-74929345D01*
X138171123Y-74949917D01*
X137970276Y-75010844D01*
X137785181Y-75109779D01*
X137785174Y-75109783D01*
X137622932Y-75242932D01*
X137489783Y-75405174D01*
X137489779Y-75405181D01*
X137390844Y-75590276D01*
X137329917Y-75791123D01*
X137309345Y-76000000D01*
X110061368Y-76000000D01*
X116814549Y-69246819D01*
X116875872Y-69213334D01*
X116902230Y-69210500D01*
X117630864Y-69210500D01*
X117697903Y-69230185D01*
X117734672Y-69266678D01*
X117806741Y-69376987D01*
X117826929Y-69443877D01*
X117807750Y-69511062D01*
X117762367Y-69553637D01*
X117757670Y-69556201D01*
X117642455Y-69642452D01*
X117642452Y-69642455D01*
X117556206Y-69757664D01*
X117556202Y-69757671D01*
X117505908Y-69892517D01*
X117499501Y-69952116D01*
X117499501Y-69952123D01*
X117499500Y-69952135D01*
X117499500Y-72047870D01*
X117499501Y-72047876D01*
X117505908Y-72107483D01*
X117556202Y-72242328D01*
X117556206Y-72242335D01*
X117642452Y-72357544D01*
X117642455Y-72357547D01*
X117757664Y-72443793D01*
X117757671Y-72443797D01*
X117892517Y-72494091D01*
X117892516Y-72494091D01*
X117899444Y-72494835D01*
X117952127Y-72500500D01*
X120047872Y-72500499D01*
X120107483Y-72494091D01*
X120242331Y-72443796D01*
X120357546Y-72357546D01*
X120443796Y-72242331D01*
X120494091Y-72107483D01*
X120500500Y-72047873D01*
X120500500Y-71874500D01*
X120520185Y-71807461D01*
X120572989Y-71761706D01*
X120624500Y-71750500D01*
X125637770Y-71750500D01*
X125704809Y-71770185D01*
X125725451Y-71786819D01*
X126417049Y-72478416D01*
X126521584Y-72582951D01*
X126521587Y-72582953D01*
X126521588Y-72582954D01*
X126644503Y-72665083D01*
X126644506Y-72665085D01*
X126701079Y-72688518D01*
X126701080Y-72688518D01*
X126781088Y-72721659D01*
X126897241Y-72744763D01*
X126916468Y-72748587D01*
X126926081Y-72750500D01*
X126926082Y-72750500D01*
X144073920Y-72750500D01*
X144171462Y-72731096D01*
X144218913Y-72721658D01*
X144355495Y-72665084D01*
X144424595Y-72618913D01*
X144478416Y-72582952D01*
X146582951Y-70478416D01*
X146623955Y-70417049D01*
X146665084Y-70355495D01*
X146721658Y-70218913D01*
X146731096Y-70171462D01*
X146750500Y-70073920D01*
X146750500Y-69173400D01*
X146770185Y-69106361D01*
X146802343Y-69076934D01*
X146800231Y-69074112D01*
X146880136Y-69014293D01*
X146922546Y-68982546D01*
X147008796Y-68867331D01*
X147059091Y-68732483D01*
X147065500Y-68672873D01*
X147065499Y-67447128D01*
X147059091Y-67387517D01*
X147052628Y-67370190D01*
X147008797Y-67252671D01*
X147008793Y-67252664D01*
X146922547Y-67137455D01*
X146922544Y-67137452D01*
X146807335Y-67051206D01*
X146807328Y-67051202D01*
X146672482Y-67000908D01*
X146672483Y-67000908D01*
X146612883Y-66994501D01*
X146612881Y-66994500D01*
X146612873Y-66994500D01*
X146612865Y-66994500D01*
X145886228Y-66994500D01*
X145819189Y-66974815D01*
X145773434Y-66922011D01*
X145763490Y-66852853D01*
X145792515Y-66789297D01*
X145798547Y-66782819D01*
X146027864Y-66553502D01*
X146460199Y-66121167D01*
X146521520Y-66087684D01*
X146591212Y-66092668D01*
X146618993Y-66107270D01*
X146652266Y-66130568D01*
X146858504Y-66226739D01*
X146858509Y-66226740D01*
X146858511Y-66226741D01*
X146911415Y-66240916D01*
X147078308Y-66285635D01*
X147240230Y-66299801D01*
X147304998Y-66305468D01*
X147305000Y-66305468D01*
X147305002Y-66305468D01*
X147361673Y-66300509D01*
X147531692Y-66285635D01*
X147751496Y-66226739D01*
X147957734Y-66130568D01*
X148144139Y-66000047D01*
X148305047Y-65839139D01*
X148435568Y-65652734D01*
X148531739Y-65446496D01*
X148590635Y-65226692D01*
X148610468Y-65000000D01*
X148610049Y-64995215D01*
X148591316Y-64781092D01*
X148590635Y-64773308D01*
X148531739Y-64553504D01*
X148435568Y-64347266D01*
X148305047Y-64160861D01*
X148305045Y-64160858D01*
X148144141Y-63999954D01*
X148110038Y-63976075D01*
X148066413Y-63921498D01*
X148059219Y-63852000D01*
X148090742Y-63789645D01*
X148150971Y-63754231D01*
X148181161Y-63750500D01*
X149637770Y-63750500D01*
X149704809Y-63770185D01*
X149725451Y-63786819D01*
X151213181Y-65274548D01*
X151246666Y-65335871D01*
X151249500Y-65362229D01*
X151249500Y-71073918D01*
X151249500Y-71073920D01*
X151249499Y-71073920D01*
X151278340Y-71218907D01*
X151278343Y-71218917D01*
X151334911Y-71355487D01*
X151334915Y-71355493D01*
X151334916Y-71355495D01*
X151338930Y-71361502D01*
X151338931Y-71361505D01*
X151338932Y-71361505D01*
X151393130Y-71442620D01*
X151417051Y-71478420D01*
X151417052Y-71478421D01*
X152417049Y-72478416D01*
X152521584Y-72582951D01*
X152521587Y-72582953D01*
X152521588Y-72582954D01*
X152644503Y-72665083D01*
X152644506Y-72665085D01*
X152701079Y-72688518D01*
X152701080Y-72688518D01*
X152781088Y-72721659D01*
X152897241Y-72744763D01*
X152916468Y-72748587D01*
X152926081Y-72750500D01*
X152926082Y-72750500D01*
X152926083Y-72750500D01*
X153073918Y-72750500D01*
X153637771Y-72750500D01*
X153704810Y-72770185D01*
X153725452Y-72786819D01*
X153817048Y-72878415D01*
X153817049Y-72878416D01*
X153921584Y-72982951D01*
X153921585Y-72982952D01*
X154044498Y-73065080D01*
X154044511Y-73065087D01*
X154180353Y-73121354D01*
X154181087Y-73121658D01*
X154272337Y-73139808D01*
X154334245Y-73172192D01*
X154349719Y-73190302D01*
X154406506Y-73271403D01*
X154573595Y-73438492D01*
X154573598Y-73438494D01*
X154573599Y-73438495D01*
X154641623Y-73486125D01*
X154685248Y-73540701D01*
X154694500Y-73587700D01*
X154694500Y-78192770D01*
X154674815Y-78259809D01*
X154658181Y-78280451D01*
X141337048Y-91601583D01*
X141315763Y-91633439D01*
X141294620Y-91665084D01*
X141274768Y-91694794D01*
X141254916Y-91724504D01*
X141254912Y-91724511D01*
X141198343Y-91861082D01*
X141198340Y-91861092D01*
X141169500Y-92006079D01*
X141169500Y-96190562D01*
X141149815Y-96257601D01*
X141141353Y-96269227D01*
X141029783Y-96405174D01*
X141029779Y-96405181D01*
X140930844Y-96590276D01*
X140869917Y-96791123D01*
X140849345Y-97000000D01*
X140869917Y-97208876D01*
X140930844Y-97409723D01*
X141029779Y-97594818D01*
X141029783Y-97594825D01*
X141162932Y-97757067D01*
X141325174Y-97890216D01*
X141325181Y-97890220D01*
X141510271Y-97989153D01*
X141510274Y-97989153D01*
X141510278Y-97989156D01*
X141568575Y-98006840D01*
X141627011Y-98045137D01*
X141655468Y-98108949D01*
X141644907Y-98178016D01*
X141598682Y-98230410D01*
X141532577Y-98249500D01*
X139765701Y-98249500D01*
X139698662Y-98229815D01*
X139652907Y-98177011D01*
X139642963Y-98107853D01*
X139671988Y-98044297D01*
X139729706Y-98006839D01*
X139789532Y-97988690D01*
X139936553Y-97910105D01*
X139396448Y-97370000D01*
X139428711Y-97370000D01*
X139522815Y-97344785D01*
X139607186Y-97296074D01*
X139676074Y-97227186D01*
X139724785Y-97142815D01*
X139750000Y-97048711D01*
X139750000Y-97016447D01*
X140290105Y-97556552D01*
X140368690Y-97409532D01*
X140429590Y-97208774D01*
X140450152Y-97000000D01*
X140429590Y-96791225D01*
X140368690Y-96590465D01*
X140290106Y-96443445D01*
X139750000Y-96983551D01*
X139750000Y-96951289D01*
X139724785Y-96857185D01*
X139676074Y-96772814D01*
X139607186Y-96703926D01*
X139522815Y-96655215D01*
X139428711Y-96630000D01*
X139396448Y-96630000D01*
X139936552Y-96089893D01*
X139936552Y-96089892D01*
X139789534Y-96011309D01*
X139588772Y-95950409D01*
X139588776Y-95950409D01*
X139380000Y-95929847D01*
X139171225Y-95950409D01*
X138970471Y-96011307D01*
X138823446Y-96089893D01*
X139363553Y-96630000D01*
X139331289Y-96630000D01*
X139237185Y-96655215D01*
X139152814Y-96703926D01*
X139083926Y-96772814D01*
X139035215Y-96857185D01*
X139010000Y-96951289D01*
X139010000Y-96983552D01*
X138469893Y-96443446D01*
X138391307Y-96590471D01*
X138330409Y-96791225D01*
X138309847Y-97000000D01*
X138330409Y-97208774D01*
X138391309Y-97409534D01*
X138469892Y-97556552D01*
X138469893Y-97556552D01*
X139010000Y-97016446D01*
X139010000Y-97048711D01*
X139035215Y-97142815D01*
X139083926Y-97227186D01*
X139152814Y-97296074D01*
X139237185Y-97344785D01*
X139331289Y-97370000D01*
X139363553Y-97370000D01*
X138823445Y-97910106D01*
X138970465Y-97988690D01*
X139030294Y-98006839D01*
X139088733Y-98045137D01*
X139117189Y-98108949D01*
X139106629Y-98178016D01*
X139060405Y-98230410D01*
X138994299Y-98249500D01*
X135362229Y-98249500D01*
X135295190Y-98229815D01*
X135274548Y-98213181D01*
X134493421Y-97432052D01*
X134493414Y-97432046D01*
X134419729Y-97382812D01*
X134419729Y-97382813D01*
X134370491Y-97349913D01*
X134233917Y-97293343D01*
X134233907Y-97293340D01*
X134088920Y-97264500D01*
X134088918Y-97264500D01*
X133161539Y-97264500D01*
X133137347Y-97262117D01*
X133073920Y-97249500D01*
X133073918Y-97249500D01*
X120369136Y-97249500D01*
X120302097Y-97229815D01*
X120265327Y-97193322D01*
X120232329Y-97142815D01*
X120188164Y-97075215D01*
X120019744Y-96892262D01*
X119823509Y-96739526D01*
X119823507Y-96739525D01*
X119823506Y-96739524D01*
X119604811Y-96621172D01*
X119604802Y-96621169D01*
X119369616Y-96540429D01*
X119124335Y-96499500D01*
X118875665Y-96499500D01*
X118630383Y-96540429D01*
X118395197Y-96621169D01*
X118395188Y-96621172D01*
X118176493Y-96739524D01*
X117980257Y-96892261D01*
X117811833Y-97075217D01*
X117675826Y-97283393D01*
X117575936Y-97511118D01*
X117514892Y-97752175D01*
X117514890Y-97752187D01*
X117494357Y-97999994D01*
X117494357Y-98000005D01*
X117514890Y-98247812D01*
X117514892Y-98247824D01*
X117575936Y-98488881D01*
X117675826Y-98716606D01*
X117811833Y-98924782D01*
X117811835Y-98924784D01*
X117811836Y-98924785D01*
X117980256Y-99107738D01*
X118063008Y-99172147D01*
X118103821Y-99228857D01*
X118107496Y-99298630D01*
X118072864Y-99359313D01*
X118063014Y-99367848D01*
X117980256Y-99432262D01*
X117811836Y-99615215D01*
X117780472Y-99663222D01*
X117734673Y-99733322D01*
X117681526Y-99778678D01*
X117630864Y-99789500D01*
X114822230Y-99789500D01*
X114755191Y-99769815D01*
X114734549Y-99753181D01*
X114596819Y-99615451D01*
X114563334Y-99554128D01*
X114560500Y-99527770D01*
X114560500Y-98126662D01*
X114580185Y-98059623D01*
X114613379Y-98025086D01*
X114649139Y-98000047D01*
X114810047Y-97839139D01*
X114940568Y-97652734D01*
X115036739Y-97446496D01*
X115095635Y-97226692D01*
X115114728Y-97008454D01*
X115115468Y-97000001D01*
X115115468Y-96999998D01*
X115102973Y-96857185D01*
X115095635Y-96773308D01*
X115036739Y-96553504D01*
X114940568Y-96347266D01*
X114832319Y-96192669D01*
X114810045Y-96160858D01*
X114649141Y-95999954D01*
X114462734Y-95869432D01*
X114462732Y-95869431D01*
X114256497Y-95773261D01*
X114256488Y-95773258D01*
X114036697Y-95714366D01*
X114036693Y-95714365D01*
X114036692Y-95714365D01*
X114036691Y-95714364D01*
X114036686Y-95714364D01*
X113810002Y-95694532D01*
X113809998Y-95694532D01*
X113583313Y-95714364D01*
X113583302Y-95714366D01*
X113363511Y-95773258D01*
X113363502Y-95773261D01*
X113157267Y-95869431D01*
X113157265Y-95869432D01*
X112970858Y-95999954D01*
X112809954Y-96160858D01*
X112679432Y-96347265D01*
X112679431Y-96347267D01*
X112583261Y-96553502D01*
X112583258Y-96553511D01*
X112524366Y-96773302D01*
X112524364Y-96773313D01*
X112504532Y-96999998D01*
X112504532Y-97000001D01*
X112524364Y-97226686D01*
X112524366Y-97226697D01*
X112583258Y-97446488D01*
X112583261Y-97446497D01*
X112679431Y-97652732D01*
X112679432Y-97652734D01*
X112809954Y-97839141D01*
X112970859Y-98000046D01*
X113006621Y-98025086D01*
X113050247Y-98079662D01*
X113059500Y-98126662D01*
X113059500Y-99963918D01*
X113059500Y-99963920D01*
X113059499Y-99963920D01*
X113088340Y-100108907D01*
X113088343Y-100108917D01*
X113144912Y-100245488D01*
X113144916Y-100245495D01*
X113166861Y-100278338D01*
X113166862Y-100278341D01*
X113227046Y-100368414D01*
X113227052Y-100368421D01*
X113310950Y-100452319D01*
X113344435Y-100513642D01*
X113339451Y-100583334D01*
X113310950Y-100627681D01*
X108485451Y-105453181D01*
X108424128Y-105486666D01*
X108397770Y-105489500D01*
X106587701Y-105489500D01*
X106520662Y-105469815D01*
X106486126Y-105436623D01*
X106438496Y-105368600D01*
X106419618Y-105349722D01*
X106316567Y-105246671D01*
X106283084Y-105185351D01*
X106288068Y-105115659D01*
X106329939Y-105059725D01*
X106360915Y-105042810D01*
X106492331Y-104993796D01*
X106607546Y-104907546D01*
X106693796Y-104792331D01*
X106744091Y-104657483D01*
X106750500Y-104597873D01*
X106750499Y-102802128D01*
X106744091Y-102742517D01*
X106736311Y-102721659D01*
X106693797Y-102607671D01*
X106693793Y-102607664D01*
X106607547Y-102492455D01*
X106607544Y-102492452D01*
X106492335Y-102406206D01*
X106492329Y-102406203D01*
X106381166Y-102364741D01*
X106325233Y-102322869D01*
X106300816Y-102257405D01*
X106300500Y-102248559D01*
X106300500Y-98409425D01*
X106320185Y-98342386D01*
X106372989Y-98296631D01*
X106413695Y-98285897D01*
X106416692Y-98285635D01*
X106636496Y-98226739D01*
X106842734Y-98130568D01*
X107029139Y-98000047D01*
X107190047Y-97839139D01*
X107320568Y-97652734D01*
X107416739Y-97446496D01*
X107475635Y-97226692D01*
X107494728Y-97008454D01*
X107495468Y-97000001D01*
X107495468Y-96999998D01*
X107482973Y-96857185D01*
X107475635Y-96773308D01*
X107416739Y-96553504D01*
X107320568Y-96347266D01*
X107212319Y-96192669D01*
X107190045Y-96160858D01*
X107029141Y-95999954D01*
X106842734Y-95869432D01*
X106842732Y-95869431D01*
X106636497Y-95773261D01*
X106636488Y-95773258D01*
X106416697Y-95714366D01*
X106416693Y-95714365D01*
X106416692Y-95714365D01*
X106416691Y-95714364D01*
X106416686Y-95714364D01*
X106190002Y-95694532D01*
X106189998Y-95694532D01*
X105963313Y-95714364D01*
X105963302Y-95714366D01*
X105743511Y-95773258D01*
X105743502Y-95773261D01*
X105537267Y-95869431D01*
X105537265Y-95869432D01*
X105350858Y-95999954D01*
X105189954Y-96160858D01*
X105059432Y-96347265D01*
X105059431Y-96347267D01*
X104963261Y-96553502D01*
X104963258Y-96553511D01*
X104904366Y-96773302D01*
X104904364Y-96773312D01*
X104885400Y-96990072D01*
X104859947Y-97055140D01*
X104849554Y-97066945D01*
X104700533Y-97215967D01*
X104698563Y-97218917D01*
X104698558Y-97218924D01*
X104601988Y-97363449D01*
X104575853Y-97426547D01*
X104534106Y-97527331D01*
X104534103Y-97527341D01*
X104505233Y-97672484D01*
X104499500Y-97701304D01*
X104499500Y-102248560D01*
X104479815Y-102315599D01*
X104427011Y-102361354D01*
X104418833Y-102364742D01*
X104307671Y-102406202D01*
X104307664Y-102406206D01*
X104192455Y-102492452D01*
X104192452Y-102492455D01*
X104106206Y-102607664D01*
X104106202Y-102607671D01*
X104055908Y-102742517D01*
X104049501Y-102802116D01*
X104049501Y-102802123D01*
X104049500Y-102802135D01*
X104049500Y-104597870D01*
X104049501Y-104597876D01*
X104055908Y-104657483D01*
X104106202Y-104792328D01*
X104106206Y-104792335D01*
X104192452Y-104907544D01*
X104192455Y-104907547D01*
X104307664Y-104993793D01*
X104307671Y-104993797D01*
X104439081Y-105042810D01*
X104495015Y-105084681D01*
X104519432Y-105150145D01*
X104504580Y-105218418D01*
X104483430Y-105246673D01*
X104361503Y-105368600D01*
X104225965Y-105562169D01*
X104225964Y-105562171D01*
X104126098Y-105776335D01*
X104126094Y-105776344D01*
X104064938Y-106004586D01*
X104064936Y-106004596D01*
X104044341Y-106239999D01*
X104044341Y-106240000D01*
X104064936Y-106475403D01*
X104064938Y-106475413D01*
X104126094Y-106703655D01*
X104126096Y-106703659D01*
X104126097Y-106703663D01*
X104193038Y-106847218D01*
X104225965Y-106917830D01*
X104225967Y-106917834D01*
X104298440Y-107021335D01*
X104361505Y-107111401D01*
X104528599Y-107278495D01*
X104625384Y-107346265D01*
X104722165Y-107414032D01*
X104722167Y-107414033D01*
X104722170Y-107414035D01*
X104936337Y-107513903D01*
X105164592Y-107575063D01*
X105352918Y-107591539D01*
X105399999Y-107595659D01*
X105400000Y-107595659D01*
X105400001Y-107595659D01*
X105439234Y-107592226D01*
X105635408Y-107575063D01*
X105863663Y-107513903D01*
X106077830Y-107414035D01*
X106271401Y-107278495D01*
X106438495Y-107111401D01*
X106486127Y-107043376D01*
X106540704Y-106999751D01*
X106587701Y-106990500D01*
X108833920Y-106990500D01*
X108931462Y-106971096D01*
X108978913Y-106961658D01*
X109115495Y-106905084D01*
X109164729Y-106872186D01*
X109238416Y-106822952D01*
X114734548Y-101326818D01*
X114795871Y-101293334D01*
X114822229Y-101290500D01*
X117630864Y-101290500D01*
X117697903Y-101310185D01*
X117734672Y-101346678D01*
X117806741Y-101456987D01*
X117826929Y-101523877D01*
X117807750Y-101591062D01*
X117762367Y-101633637D01*
X117757670Y-101636201D01*
X117642455Y-101722452D01*
X117642452Y-101722455D01*
X117556206Y-101837664D01*
X117556202Y-101837671D01*
X117505908Y-101972517D01*
X117499501Y-102032116D01*
X117499500Y-102032135D01*
X117499500Y-104127870D01*
X117499501Y-104127876D01*
X117505908Y-104187483D01*
X117556202Y-104322328D01*
X117556206Y-104322335D01*
X117642452Y-104437544D01*
X117642455Y-104437547D01*
X117757664Y-104523793D01*
X117757671Y-104523797D01*
X117892517Y-104574091D01*
X117892516Y-104574091D01*
X117899444Y-104574835D01*
X117952127Y-104580500D01*
X120047872Y-104580499D01*
X120107483Y-104574091D01*
X120242331Y-104523796D01*
X120357546Y-104437546D01*
X120443796Y-104322331D01*
X120494091Y-104187483D01*
X120500500Y-104127873D01*
X120500499Y-102874499D01*
X120520184Y-102807461D01*
X120572987Y-102761706D01*
X120624499Y-102750500D01*
X132073920Y-102750500D01*
X132171462Y-102731096D01*
X132218913Y-102721658D01*
X132355495Y-102665084D01*
X132404729Y-102632186D01*
X132478416Y-102582952D01*
X133274548Y-101786818D01*
X133335871Y-101753334D01*
X133362229Y-101750500D01*
X143073920Y-101750500D01*
X143171462Y-101731096D01*
X143218913Y-101721658D01*
X143355495Y-101665084D01*
X143404729Y-101632186D01*
X143478416Y-101582952D01*
X146959548Y-98101817D01*
X147020871Y-98068333D01*
X147047229Y-98065499D01*
X147612871Y-98065499D01*
X147612872Y-98065499D01*
X147672483Y-98059091D01*
X147807331Y-98008796D01*
X147922546Y-97922546D01*
X147955361Y-97878711D01*
X178149500Y-97878711D01*
X178149500Y-98121288D01*
X178181161Y-98361785D01*
X178243947Y-98596104D01*
X178322267Y-98785185D01*
X178336776Y-98820212D01*
X178458064Y-99030289D01*
X178458066Y-99030292D01*
X178458067Y-99030293D01*
X178605733Y-99222736D01*
X178605739Y-99222743D01*
X178777256Y-99394260D01*
X178777262Y-99394265D01*
X178969711Y-99541936D01*
X179179788Y-99663224D01*
X179403900Y-99756054D01*
X179638211Y-99818838D01*
X179818586Y-99842584D01*
X179878711Y-99850500D01*
X179878712Y-99850500D01*
X180121289Y-99850500D01*
X180169388Y-99844167D01*
X180361789Y-99818838D01*
X180596100Y-99756054D01*
X180820212Y-99663224D01*
X181030289Y-99541936D01*
X181222738Y-99394265D01*
X181394265Y-99222738D01*
X181541936Y-99030289D01*
X181663224Y-98820212D01*
X181756054Y-98596100D01*
X181818838Y-98361789D01*
X181850500Y-98121288D01*
X181850500Y-97878712D01*
X181845290Y-97839141D01*
X181823350Y-97672483D01*
X181818838Y-97638211D01*
X181756054Y-97403900D01*
X181663224Y-97179788D01*
X181541936Y-96969711D01*
X181394265Y-96777262D01*
X181394260Y-96777256D01*
X181222743Y-96605739D01*
X181222736Y-96605733D01*
X181030293Y-96458067D01*
X181030292Y-96458066D01*
X181030289Y-96458064D01*
X180838381Y-96347266D01*
X180820214Y-96336777D01*
X180820205Y-96336773D01*
X180596104Y-96243947D01*
X180404733Y-96192669D01*
X180361789Y-96181162D01*
X180361788Y-96181161D01*
X180361785Y-96181161D01*
X180121289Y-96149500D01*
X180121288Y-96149500D01*
X179878712Y-96149500D01*
X179878711Y-96149500D01*
X179638214Y-96181161D01*
X179403895Y-96243947D01*
X179179794Y-96336773D01*
X179179785Y-96336777D01*
X178969706Y-96458067D01*
X178777263Y-96605733D01*
X178777256Y-96605739D01*
X178605739Y-96777256D01*
X178605733Y-96777263D01*
X178458067Y-96969706D01*
X178336777Y-97179785D01*
X178336773Y-97179794D01*
X178243947Y-97403895D01*
X178181161Y-97638214D01*
X178149500Y-97878711D01*
X147955361Y-97878711D01*
X148008796Y-97807331D01*
X148059091Y-97672483D01*
X148065500Y-97612873D01*
X148065499Y-96387128D01*
X148059091Y-96327517D01*
X148037350Y-96269227D01*
X148008797Y-96192671D01*
X148008793Y-96192664D01*
X147922547Y-96077455D01*
X147922544Y-96077452D01*
X147807335Y-95991206D01*
X147807328Y-95991202D01*
X147672482Y-95940908D01*
X147672483Y-95940908D01*
X147612883Y-95934501D01*
X147612881Y-95934500D01*
X147612873Y-95934500D01*
X147612864Y-95934500D01*
X146387129Y-95934500D01*
X146387123Y-95934501D01*
X146327516Y-95940908D01*
X146192671Y-95991202D01*
X146192664Y-95991206D01*
X146077455Y-96077452D01*
X146077452Y-96077455D01*
X145991206Y-96192664D01*
X145991202Y-96192671D01*
X145940908Y-96327517D01*
X145934501Y-96387116D01*
X145934501Y-96387123D01*
X145934500Y-96387135D01*
X145934500Y-96952770D01*
X145914815Y-97019809D01*
X145898185Y-97040446D01*
X145809972Y-97128660D01*
X145731135Y-97207497D01*
X145669812Y-97240981D01*
X145600120Y-97235997D01*
X145544187Y-97194125D01*
X145519770Y-97128661D01*
X145520051Y-97107661D01*
X145530655Y-97000000D01*
X145510083Y-96791126D01*
X145449156Y-96590278D01*
X145350217Y-96405176D01*
X145350216Y-96405174D01*
X145238647Y-96269227D01*
X145211334Y-96204917D01*
X145210500Y-96190562D01*
X145210500Y-92902229D01*
X145230185Y-92835190D01*
X145246814Y-92814552D01*
X146175909Y-91885457D01*
X146237232Y-91851973D01*
X146306924Y-91856957D01*
X146351271Y-91885458D01*
X146465858Y-92000045D01*
X146465861Y-92000047D01*
X146652266Y-92130568D01*
X146858504Y-92226739D01*
X147078308Y-92285635D01*
X147240230Y-92299801D01*
X147304998Y-92305468D01*
X147305000Y-92305468D01*
X147305002Y-92305468D01*
X147361673Y-92300509D01*
X147531692Y-92285635D01*
X147751496Y-92226739D01*
X147957734Y-92130568D01*
X148144139Y-92000047D01*
X148305047Y-91839139D01*
X148435568Y-91652734D01*
X148531739Y-91446496D01*
X148590635Y-91226692D01*
X148610468Y-91000000D01*
X148590635Y-90773308D01*
X148531739Y-90553504D01*
X148435568Y-90347266D01*
X148305047Y-90160861D01*
X148305045Y-90160858D01*
X148144141Y-89999954D01*
X147957734Y-89869432D01*
X147957732Y-89869431D01*
X147751497Y-89773261D01*
X147751488Y-89773258D01*
X147531697Y-89714366D01*
X147531693Y-89714365D01*
X147531692Y-89714365D01*
X147531691Y-89714364D01*
X147531686Y-89714364D01*
X147305002Y-89694532D01*
X147304998Y-89694532D01*
X147078313Y-89714364D01*
X147078302Y-89714366D01*
X146858511Y-89773258D01*
X146858502Y-89773261D01*
X146652267Y-89869431D01*
X146652265Y-89869432D01*
X146465858Y-89999954D01*
X146304954Y-90160858D01*
X146279912Y-90196623D01*
X146225335Y-90240248D01*
X146178337Y-90249500D01*
X145926080Y-90249500D01*
X145781092Y-90278340D01*
X145781086Y-90278342D01*
X145644508Y-90334914D01*
X145644496Y-90334921D01*
X145595269Y-90367813D01*
X145521588Y-90417044D01*
X145521580Y-90417050D01*
X143877049Y-92061581D01*
X143830954Y-92130567D01*
X143830955Y-92130568D01*
X143794914Y-92184508D01*
X143738343Y-92321082D01*
X143738340Y-92321092D01*
X143709500Y-92466079D01*
X143709500Y-96190562D01*
X143689815Y-96257601D01*
X143681353Y-96269227D01*
X143569783Y-96405174D01*
X143569779Y-96405181D01*
X143470844Y-96590276D01*
X143409917Y-96791123D01*
X143392679Y-96966146D01*
X143366518Y-97030933D01*
X143356957Y-97041673D01*
X143191135Y-97207495D01*
X143129812Y-97240980D01*
X143060120Y-97235996D01*
X143004187Y-97194124D01*
X142979770Y-97128660D01*
X142980051Y-97107661D01*
X142990655Y-97000000D01*
X142970083Y-96791126D01*
X142909156Y-96590278D01*
X142810217Y-96405176D01*
X142810216Y-96405174D01*
X142698647Y-96269227D01*
X142671334Y-96204917D01*
X142670500Y-96190562D01*
X142670500Y-92442229D01*
X142690185Y-92375190D01*
X142706819Y-92354548D01*
X153311367Y-81750000D01*
X167953968Y-81750000D01*
X169091518Y-81750000D01*
X169080889Y-81768409D01*
X169040000Y-81921009D01*
X169040000Y-82078991D01*
X169080889Y-82231591D01*
X169091518Y-82250000D01*
X167953968Y-82250000D01*
X167954274Y-82254079D01*
X167954275Y-82254086D01*
X168010967Y-82502475D01*
X168010973Y-82502494D01*
X168104058Y-82739671D01*
X168104057Y-82739671D01*
X168231455Y-82960328D01*
X168390320Y-83159540D01*
X168577097Y-83332842D01*
X168787616Y-83476371D01*
X168787624Y-83476376D01*
X169017176Y-83586921D01*
X169017174Y-83586921D01*
X169260652Y-83662024D01*
X169260660Y-83662026D01*
X169390000Y-83681520D01*
X169390000Y-82548482D01*
X169408409Y-82559111D01*
X169561009Y-82600000D01*
X169718991Y-82600000D01*
X169871591Y-82559111D01*
X169890000Y-82548482D01*
X169890000Y-83681519D01*
X170019339Y-83662026D01*
X170019347Y-83662024D01*
X170262824Y-83586921D01*
X170492376Y-83476376D01*
X170492377Y-83476375D01*
X170702905Y-83332840D01*
X170889679Y-83159540D01*
X171048544Y-82960328D01*
X171164205Y-82759999D01*
X174244341Y-82759999D01*
X174244341Y-82760000D01*
X174264936Y-82995403D01*
X174264938Y-82995413D01*
X174326094Y-83223655D01*
X174326096Y-83223659D01*
X174326097Y-83223663D01*
X174343815Y-83261659D01*
X174425965Y-83437830D01*
X174425967Y-83437834D01*
X174503309Y-83548289D01*
X174561501Y-83631396D01*
X174561506Y-83631402D01*
X174683818Y-83753714D01*
X174717303Y-83815037D01*
X174712319Y-83884729D01*
X174670447Y-83940662D01*
X174639471Y-83957577D01*
X174507912Y-84006646D01*
X174507906Y-84006649D01*
X174392812Y-84092809D01*
X174392809Y-84092812D01*
X174306649Y-84207906D01*
X174306645Y-84207913D01*
X174256403Y-84342620D01*
X174256401Y-84342627D01*
X174250000Y-84402155D01*
X174250000Y-85050000D01*
X175166988Y-85050000D01*
X175134075Y-85107007D01*
X175100000Y-85234174D01*
X175100000Y-85365826D01*
X175134075Y-85492993D01*
X175166988Y-85550000D01*
X174250000Y-85550000D01*
X174250000Y-86197844D01*
X174256401Y-86257372D01*
X174256403Y-86257379D01*
X174306645Y-86392086D01*
X174306649Y-86392093D01*
X174392809Y-86507187D01*
X174392812Y-86507190D01*
X174507906Y-86593350D01*
X174507913Y-86593354D01*
X174642620Y-86643596D01*
X174642627Y-86643598D01*
X174702155Y-86649999D01*
X174702172Y-86650000D01*
X175350000Y-86650000D01*
X175350000Y-85733012D01*
X175407007Y-85765925D01*
X175534174Y-85800000D01*
X175665826Y-85800000D01*
X175792993Y-85765925D01*
X175850000Y-85733012D01*
X175850000Y-86650000D01*
X176497828Y-86650000D01*
X176497844Y-86649999D01*
X176557372Y-86643598D01*
X176557379Y-86643596D01*
X176692086Y-86593354D01*
X176692093Y-86593350D01*
X176807187Y-86507190D01*
X176807190Y-86507187D01*
X176893350Y-86392093D01*
X176893354Y-86392086D01*
X176943596Y-86257379D01*
X176943598Y-86257372D01*
X176949999Y-86197844D01*
X176950000Y-86197827D01*
X176950000Y-85550000D01*
X176033012Y-85550000D01*
X176065925Y-85492993D01*
X176100000Y-85365826D01*
X176100000Y-85234174D01*
X176065925Y-85107007D01*
X176033012Y-85050000D01*
X176950000Y-85050000D01*
X176950000Y-84402172D01*
X176949999Y-84402155D01*
X176943598Y-84342627D01*
X176943596Y-84342620D01*
X176893354Y-84207913D01*
X176893350Y-84207906D01*
X176807190Y-84092812D01*
X176807187Y-84092809D01*
X176692093Y-84006649D01*
X176692088Y-84006646D01*
X176560528Y-83957577D01*
X176504595Y-83915705D01*
X176480178Y-83850241D01*
X176495030Y-83781968D01*
X176516175Y-83753720D01*
X176638495Y-83631401D01*
X176774035Y-83437830D01*
X176873903Y-83223663D01*
X176935063Y-82995408D01*
X176955659Y-82760000D01*
X176935063Y-82524592D01*
X176873903Y-82296337D01*
X176774035Y-82082171D01*
X176771809Y-82078991D01*
X176638494Y-81888597D01*
X176471402Y-81721506D01*
X176471395Y-81721501D01*
X176277834Y-81585967D01*
X176277830Y-81585965D01*
X176277828Y-81585964D01*
X176063663Y-81486097D01*
X176063659Y-81486096D01*
X176063655Y-81486094D01*
X175835413Y-81424938D01*
X175835403Y-81424936D01*
X175600001Y-81404341D01*
X175599999Y-81404341D01*
X175364596Y-81424936D01*
X175364586Y-81424938D01*
X175136344Y-81486094D01*
X175136335Y-81486098D01*
X174922171Y-81585964D01*
X174922169Y-81585965D01*
X174728597Y-81721505D01*
X174561505Y-81888597D01*
X174425965Y-82082169D01*
X174425964Y-82082171D01*
X174326098Y-82296335D01*
X174326094Y-82296344D01*
X174264938Y-82524586D01*
X174264936Y-82524596D01*
X174244341Y-82759999D01*
X171164205Y-82759999D01*
X171175941Y-82739671D01*
X171269026Y-82502494D01*
X171269032Y-82502475D01*
X171325724Y-82254086D01*
X171325725Y-82254079D01*
X171326032Y-82250000D01*
X170188482Y-82250000D01*
X170199111Y-82231591D01*
X170240000Y-82078991D01*
X170240000Y-81921009D01*
X170199111Y-81768409D01*
X170188482Y-81750000D01*
X171326031Y-81750000D01*
X171325725Y-81745920D01*
X171325724Y-81745913D01*
X171269032Y-81497524D01*
X171269026Y-81497505D01*
X171175941Y-81260328D01*
X171175942Y-81260328D01*
X171048544Y-81039671D01*
X170889679Y-80840459D01*
X170702905Y-80667159D01*
X170492377Y-80523624D01*
X170492376Y-80523623D01*
X170262823Y-80413078D01*
X170262825Y-80413078D01*
X170019354Y-80337977D01*
X170019348Y-80337976D01*
X169890000Y-80318479D01*
X169890000Y-81451517D01*
X169871591Y-81440889D01*
X169718991Y-81400000D01*
X169561009Y-81400000D01*
X169408409Y-81440889D01*
X169390000Y-81451517D01*
X169390000Y-80318479D01*
X169260651Y-80337976D01*
X169260645Y-80337977D01*
X169017175Y-80413078D01*
X168787624Y-80523623D01*
X168787616Y-80523628D01*
X168577097Y-80667157D01*
X168390320Y-80840459D01*
X168231455Y-81039671D01*
X168104058Y-81260328D01*
X168010973Y-81497505D01*
X168010967Y-81497524D01*
X167954275Y-81745913D01*
X167954274Y-81745920D01*
X167953968Y-81750000D01*
X153311367Y-81750000D01*
X156027948Y-79033419D01*
X156027951Y-79033416D01*
X156110084Y-78910495D01*
X156166658Y-78773913D01*
X156166788Y-78773261D01*
X156166794Y-78773232D01*
X156195500Y-78628920D01*
X156195500Y-73587700D01*
X156215185Y-73520661D01*
X156248375Y-73486126D01*
X156316401Y-73438495D01*
X156483495Y-73271401D01*
X156613425Y-73085842D01*
X156668002Y-73042217D01*
X156737500Y-73035023D01*
X156799855Y-73066546D01*
X156816575Y-73085842D01*
X156946501Y-73271396D01*
X156946506Y-73271402D01*
X157113595Y-73438492D01*
X157113598Y-73438494D01*
X157113599Y-73438495D01*
X157181623Y-73486125D01*
X157225248Y-73540701D01*
X157234500Y-73587700D01*
X157234500Y-74058918D01*
X157234500Y-74058920D01*
X157234499Y-74058920D01*
X157263340Y-74203907D01*
X157263343Y-74203917D01*
X157319913Y-74340490D01*
X157319916Y-74340495D01*
X157333924Y-74361461D01*
X157402046Y-74463414D01*
X157402052Y-74463421D01*
X158521584Y-75582952D01*
X158521586Y-75582954D01*
X158532545Y-75590276D01*
X158595270Y-75632186D01*
X158644505Y-75665084D01*
X158644506Y-75665084D01*
X158644507Y-75665085D01*
X158644509Y-75665086D01*
X158781082Y-75721656D01*
X158781087Y-75721658D01*
X158781091Y-75721658D01*
X158781092Y-75721659D01*
X158926079Y-75750500D01*
X158926082Y-75750500D01*
X167073920Y-75750500D01*
X167171462Y-75731096D01*
X167218913Y-75721658D01*
X167355495Y-75665084D01*
X167404729Y-75632186D01*
X167404734Y-75632183D01*
X167467454Y-75590276D01*
X167478416Y-75582952D01*
X168342951Y-74718416D01*
X168425084Y-74595495D01*
X168481658Y-74458913D01*
X168501043Y-74361459D01*
X168510500Y-74313920D01*
X168510500Y-73587700D01*
X168530185Y-73520661D01*
X168563375Y-73486126D01*
X168631401Y-73438495D01*
X168753717Y-73316178D01*
X168815036Y-73282696D01*
X168884728Y-73287680D01*
X168940662Y-73329551D01*
X168957577Y-73360528D01*
X169006646Y-73492088D01*
X169006649Y-73492093D01*
X169092809Y-73607187D01*
X169092812Y-73607190D01*
X169207906Y-73693350D01*
X169207913Y-73693354D01*
X169342620Y-73743596D01*
X169342627Y-73743598D01*
X169402155Y-73749999D01*
X169402172Y-73750000D01*
X170050000Y-73750000D01*
X170050000Y-72833012D01*
X170107007Y-72865925D01*
X170234174Y-72900000D01*
X170365826Y-72900000D01*
X170492993Y-72865925D01*
X170550000Y-72833012D01*
X170550000Y-73750000D01*
X171197828Y-73750000D01*
X171197844Y-73749999D01*
X171257372Y-73743598D01*
X171257379Y-73743596D01*
X171392086Y-73693354D01*
X171392093Y-73693350D01*
X171507187Y-73607190D01*
X171507190Y-73607187D01*
X171593350Y-73492093D01*
X171593354Y-73492086D01*
X171643596Y-73357379D01*
X171643598Y-73357372D01*
X171649999Y-73297844D01*
X171650000Y-73297827D01*
X171650000Y-72650000D01*
X170733012Y-72650000D01*
X170765925Y-72592993D01*
X170800000Y-72465826D01*
X170800000Y-72334174D01*
X170765925Y-72207007D01*
X170733012Y-72150000D01*
X171650000Y-72150000D01*
X171650000Y-71502172D01*
X171649999Y-71502155D01*
X171643598Y-71442627D01*
X171643596Y-71442620D01*
X171593354Y-71307913D01*
X171593350Y-71307906D01*
X171507190Y-71192812D01*
X171507187Y-71192809D01*
X171392093Y-71106649D01*
X171392086Y-71106645D01*
X171257379Y-71056403D01*
X171257372Y-71056401D01*
X171197844Y-71050000D01*
X170550000Y-71050000D01*
X170550000Y-71966988D01*
X170492993Y-71934075D01*
X170365826Y-71900000D01*
X170234174Y-71900000D01*
X170107007Y-71934075D01*
X170050000Y-71966988D01*
X170050000Y-71050000D01*
X169402155Y-71050000D01*
X169342627Y-71056401D01*
X169342620Y-71056403D01*
X169207913Y-71106645D01*
X169207906Y-71106649D01*
X169092812Y-71192809D01*
X169092809Y-71192812D01*
X169006649Y-71307906D01*
X169006645Y-71307913D01*
X168957578Y-71439470D01*
X168915707Y-71495404D01*
X168850242Y-71519821D01*
X168781969Y-71504969D01*
X168753715Y-71483819D01*
X168706764Y-71436868D01*
X168631401Y-71361505D01*
X168631397Y-71361502D01*
X168631396Y-71361501D01*
X168437834Y-71225967D01*
X168437830Y-71225965D01*
X168437828Y-71225964D01*
X168223663Y-71126097D01*
X168223659Y-71126096D01*
X168223655Y-71126094D01*
X167995413Y-71064938D01*
X167995403Y-71064936D01*
X167760001Y-71044341D01*
X167759999Y-71044341D01*
X167524596Y-71064936D01*
X167524586Y-71064938D01*
X167296344Y-71126094D01*
X167296335Y-71126098D01*
X167082171Y-71225964D01*
X167082169Y-71225965D01*
X166888597Y-71361505D01*
X166721505Y-71528597D01*
X166585965Y-71722169D01*
X166585964Y-71722171D01*
X166486098Y-71936335D01*
X166486094Y-71936344D01*
X166424938Y-72164586D01*
X166424936Y-72164596D01*
X166404341Y-72399999D01*
X166404341Y-72400000D01*
X166424936Y-72635403D01*
X166424938Y-72635413D01*
X166486094Y-72863655D01*
X166486096Y-72863659D01*
X166486097Y-72863663D01*
X166541722Y-72982951D01*
X166585965Y-73077830D01*
X166585967Y-73077834D01*
X166652038Y-73172192D01*
X166721501Y-73271396D01*
X166721506Y-73271402D01*
X166888595Y-73438492D01*
X166888598Y-73438494D01*
X166888599Y-73438495D01*
X166956623Y-73486125D01*
X167000248Y-73540701D01*
X167009500Y-73587700D01*
X167009500Y-73877770D01*
X166989815Y-73944809D01*
X166973181Y-73965451D01*
X166725451Y-74213181D01*
X166664128Y-74246666D01*
X166637770Y-74249500D01*
X159362230Y-74249500D01*
X159295191Y-74229815D01*
X159274549Y-74213181D01*
X158771819Y-73710451D01*
X158738334Y-73649128D01*
X158735500Y-73622770D01*
X158735500Y-73587700D01*
X158755185Y-73520661D01*
X158788375Y-73486126D01*
X158856401Y-73438495D01*
X158978717Y-73316178D01*
X159040036Y-73282696D01*
X159109728Y-73287680D01*
X159165662Y-73329551D01*
X159182577Y-73360528D01*
X159231646Y-73492088D01*
X159231649Y-73492093D01*
X159317809Y-73607187D01*
X159317812Y-73607190D01*
X159432906Y-73693350D01*
X159432913Y-73693354D01*
X159567620Y-73743596D01*
X159567627Y-73743598D01*
X159627155Y-73749999D01*
X159627172Y-73750000D01*
X160275000Y-73750000D01*
X160275000Y-72833012D01*
X160332007Y-72865925D01*
X160459174Y-72900000D01*
X160590826Y-72900000D01*
X160717993Y-72865925D01*
X160775000Y-72833012D01*
X160775000Y-73750000D01*
X161422828Y-73750000D01*
X161422844Y-73749999D01*
X161482372Y-73743598D01*
X161482379Y-73743596D01*
X161617086Y-73693354D01*
X161617093Y-73693350D01*
X161732187Y-73607190D01*
X161732190Y-73607187D01*
X161818350Y-73492093D01*
X161818354Y-73492086D01*
X161868596Y-73357379D01*
X161868598Y-73357372D01*
X161874999Y-73297844D01*
X161875000Y-73297827D01*
X161875000Y-72650000D01*
X160958012Y-72650000D01*
X160990925Y-72592993D01*
X161025000Y-72465826D01*
X161025000Y-72334174D01*
X160990925Y-72207007D01*
X160958012Y-72150000D01*
X161875000Y-72150000D01*
X161875000Y-71502172D01*
X161874999Y-71502155D01*
X161868598Y-71442627D01*
X161868596Y-71442620D01*
X161818354Y-71307913D01*
X161818350Y-71307906D01*
X161732190Y-71192812D01*
X161732187Y-71192809D01*
X161617093Y-71106649D01*
X161617086Y-71106645D01*
X161482379Y-71056403D01*
X161482372Y-71056401D01*
X161422844Y-71050000D01*
X160775000Y-71050000D01*
X160775000Y-71966988D01*
X160717993Y-71934075D01*
X160590826Y-71900000D01*
X160459174Y-71900000D01*
X160332007Y-71934075D01*
X160275000Y-71966988D01*
X160275000Y-71050000D01*
X159627155Y-71050000D01*
X159567627Y-71056401D01*
X159567620Y-71056403D01*
X159432913Y-71106645D01*
X159432906Y-71106649D01*
X159317812Y-71192809D01*
X159317809Y-71192812D01*
X159231649Y-71307906D01*
X159231645Y-71307913D01*
X159182578Y-71439470D01*
X159140707Y-71495404D01*
X159075242Y-71519821D01*
X159006969Y-71504969D01*
X158978715Y-71483819D01*
X158931764Y-71436868D01*
X158856401Y-71361505D01*
X158856397Y-71361502D01*
X158856396Y-71361501D01*
X158662834Y-71225967D01*
X158662830Y-71225965D01*
X158662828Y-71225964D01*
X158448663Y-71126097D01*
X158448659Y-71126096D01*
X158448655Y-71126094D01*
X158220413Y-71064938D01*
X158220403Y-71064936D01*
X157985001Y-71044341D01*
X157984999Y-71044341D01*
X157749596Y-71064936D01*
X157749586Y-71064938D01*
X157521344Y-71126094D01*
X157521335Y-71126098D01*
X157307171Y-71225964D01*
X157307169Y-71225965D01*
X157113597Y-71361505D01*
X156946505Y-71528597D01*
X156816575Y-71714158D01*
X156761998Y-71757783D01*
X156692500Y-71764977D01*
X156630145Y-71733454D01*
X156613425Y-71714158D01*
X156483494Y-71528597D01*
X156316401Y-71361505D01*
X156316395Y-71361501D01*
X156122834Y-71225967D01*
X156122830Y-71225965D01*
X156122828Y-71225964D01*
X155908663Y-71126097D01*
X155908659Y-71126096D01*
X155908655Y-71126094D01*
X155680413Y-71064938D01*
X155680403Y-71064936D01*
X155445001Y-71044341D01*
X155444999Y-71044341D01*
X155209596Y-71064936D01*
X155209586Y-71064938D01*
X154981344Y-71126094D01*
X154981335Y-71126098D01*
X154767171Y-71225964D01*
X154767169Y-71225965D01*
X154573607Y-71361499D01*
X154573604Y-71361501D01*
X154573599Y-71361505D01*
X154573594Y-71361509D01*
X154569456Y-71364982D01*
X154568619Y-71363985D01*
X154512795Y-71394456D01*
X154443104Y-71389461D01*
X154417568Y-71376390D01*
X154395291Y-71361506D01*
X154395288Y-71361505D01*
X154386281Y-71355487D01*
X154355495Y-71334916D01*
X154355493Y-71334915D01*
X154355490Y-71334913D01*
X154218917Y-71278343D01*
X154218907Y-71278340D01*
X154073920Y-71249500D01*
X154073918Y-71249500D01*
X153362229Y-71249500D01*
X153295190Y-71229815D01*
X153274548Y-71213181D01*
X152786819Y-70725451D01*
X152753334Y-70664128D01*
X152750500Y-70637770D01*
X152750500Y-67878711D01*
X178149500Y-67878711D01*
X178149500Y-68121288D01*
X178181161Y-68361785D01*
X178243947Y-68596104D01*
X178336773Y-68820205D01*
X178336777Y-68820214D01*
X178356908Y-68855082D01*
X178458064Y-69030289D01*
X178458066Y-69030292D01*
X178458067Y-69030293D01*
X178605733Y-69222736D01*
X178605739Y-69222743D01*
X178777256Y-69394260D01*
X178777262Y-69394265D01*
X178969711Y-69541936D01*
X179179788Y-69663224D01*
X179403900Y-69756054D01*
X179638211Y-69818838D01*
X179818586Y-69842584D01*
X179878711Y-69850500D01*
X179878712Y-69850500D01*
X180121289Y-69850500D01*
X180169388Y-69844167D01*
X180361789Y-69818838D01*
X180596100Y-69756054D01*
X180820212Y-69663224D01*
X181030289Y-69541936D01*
X181222738Y-69394265D01*
X181394265Y-69222738D01*
X181541936Y-69030289D01*
X181663224Y-68820212D01*
X181756054Y-68596100D01*
X181818838Y-68361789D01*
X181850500Y-68121288D01*
X181850500Y-67878712D01*
X181845290Y-67839141D01*
X181832685Y-67743393D01*
X181818838Y-67638211D01*
X181756054Y-67403900D01*
X181663224Y-67179788D01*
X181541936Y-66969711D01*
X181394265Y-66777262D01*
X181394260Y-66777256D01*
X181222743Y-66605739D01*
X181222736Y-66605733D01*
X181030293Y-66458067D01*
X181030292Y-66458066D01*
X181030289Y-66458064D01*
X180838381Y-66347266D01*
X180820214Y-66336777D01*
X180820205Y-66336773D01*
X180596104Y-66243947D01*
X180361785Y-66181161D01*
X180121289Y-66149500D01*
X180121288Y-66149500D01*
X179878712Y-66149500D01*
X179878711Y-66149500D01*
X179638214Y-66181161D01*
X179403895Y-66243947D01*
X179179794Y-66336773D01*
X179179785Y-66336777D01*
X178969706Y-66458067D01*
X178777263Y-66605733D01*
X178777256Y-66605739D01*
X178605739Y-66777256D01*
X178605733Y-66777263D01*
X178458067Y-66969706D01*
X178458064Y-66969710D01*
X178458064Y-66969711D01*
X178441817Y-66997851D01*
X178336777Y-67179785D01*
X178336773Y-67179794D01*
X178243947Y-67403895D01*
X178181161Y-67638214D01*
X178149500Y-67878711D01*
X152750500Y-67878711D01*
X152750500Y-64926079D01*
X152721659Y-64781092D01*
X152721658Y-64781091D01*
X152721658Y-64781087D01*
X152718433Y-64773302D01*
X152665087Y-64644511D01*
X152665080Y-64644498D01*
X152582952Y-64521585D01*
X152582951Y-64521584D01*
X152478416Y-64417049D01*
X152478415Y-64417048D01*
X150773549Y-62712181D01*
X150740064Y-62650858D01*
X150745048Y-62581166D01*
X150786920Y-62525233D01*
X150852384Y-62500816D01*
X150861230Y-62500500D01*
X184375500Y-62500500D01*
X184442539Y-62520185D01*
X184488294Y-62572989D01*
X184499500Y-62624500D01*
X184499500Y-121375500D01*
X184479815Y-121442539D01*
X184427011Y-121488294D01*
X184375500Y-121499500D01*
X95624500Y-121499500D01*
X95557461Y-121479815D01*
X95511706Y-121427011D01*
X95500500Y-121375500D01*
X95500500Y-115239999D01*
X104044341Y-115239999D01*
X104044341Y-115240000D01*
X104064936Y-115475403D01*
X104064938Y-115475413D01*
X104126094Y-115703655D01*
X104126096Y-115703659D01*
X104126097Y-115703663D01*
X104204681Y-115872186D01*
X104225965Y-115917830D01*
X104225967Y-115917834D01*
X104313873Y-116043376D01*
X104361505Y-116111401D01*
X104528599Y-116278495D01*
X104625384Y-116346265D01*
X104722165Y-116414032D01*
X104722167Y-116414033D01*
X104722170Y-116414035D01*
X104936337Y-116513903D01*
X105164592Y-116575063D01*
X105352918Y-116591539D01*
X105399999Y-116595659D01*
X105400000Y-116595659D01*
X105400001Y-116595659D01*
X105439234Y-116592226D01*
X105635408Y-116575063D01*
X105863663Y-116513903D01*
X106077830Y-116414035D01*
X106271401Y-116278495D01*
X106438495Y-116111401D01*
X106486127Y-116043376D01*
X106540704Y-115999751D01*
X106587701Y-115990500D01*
X109833920Y-115990500D01*
X109931462Y-115971096D01*
X109978913Y-115961658D01*
X110115495Y-115905084D01*
X110164729Y-115872186D01*
X110238416Y-115822952D01*
X111734549Y-114326819D01*
X111795872Y-114293334D01*
X111822230Y-114290500D01*
X120630864Y-114290500D01*
X120697903Y-114310185D01*
X120734672Y-114346678D01*
X120806741Y-114456987D01*
X120826929Y-114523877D01*
X120807750Y-114591062D01*
X120762367Y-114633637D01*
X120757670Y-114636201D01*
X120642455Y-114722452D01*
X120642452Y-114722455D01*
X120556206Y-114837664D01*
X120556202Y-114837671D01*
X120505908Y-114972517D01*
X120499501Y-115032116D01*
X120499501Y-115032123D01*
X120499500Y-115032135D01*
X120499500Y-117127870D01*
X120499501Y-117127876D01*
X120505908Y-117187483D01*
X120556202Y-117322328D01*
X120556206Y-117322335D01*
X120642452Y-117437544D01*
X120642455Y-117437547D01*
X120757664Y-117523793D01*
X120757671Y-117523797D01*
X120802618Y-117540561D01*
X120892517Y-117574091D01*
X120952127Y-117580500D01*
X121467769Y-117580499D01*
X121534808Y-117600183D01*
X121555450Y-117616818D01*
X122538534Y-118599901D01*
X123417049Y-119478416D01*
X123521583Y-119582950D01*
X123521585Y-119582952D01*
X123644498Y-119665080D01*
X123644511Y-119665087D01*
X123781082Y-119721656D01*
X123781087Y-119721658D01*
X123781091Y-119721658D01*
X123781092Y-119721659D01*
X123926079Y-119750500D01*
X123926082Y-119750500D01*
X136073920Y-119750500D01*
X136171462Y-119731096D01*
X136218913Y-119721658D01*
X136355495Y-119665084D01*
X136404729Y-119632186D01*
X136478416Y-119582952D01*
X141311368Y-114750000D01*
X165953968Y-114750000D01*
X167091518Y-114750000D01*
X167080889Y-114768409D01*
X167040000Y-114921009D01*
X167040000Y-115078991D01*
X167080889Y-115231591D01*
X167091518Y-115250000D01*
X165953968Y-115250000D01*
X165954274Y-115254079D01*
X165954275Y-115254086D01*
X166010967Y-115502475D01*
X166010973Y-115502494D01*
X166104058Y-115739671D01*
X166104057Y-115739671D01*
X166231455Y-115960328D01*
X166390320Y-116159540D01*
X166577097Y-116332842D01*
X166787616Y-116476371D01*
X166787624Y-116476376D01*
X167017176Y-116586921D01*
X167017174Y-116586921D01*
X167260652Y-116662024D01*
X167260660Y-116662026D01*
X167390000Y-116681520D01*
X167390000Y-115548482D01*
X167408409Y-115559111D01*
X167561009Y-115600000D01*
X167718991Y-115600000D01*
X167871591Y-115559111D01*
X167890000Y-115548482D01*
X167890000Y-116681519D01*
X168019339Y-116662026D01*
X168019347Y-116662024D01*
X168262824Y-116586921D01*
X168492376Y-116476376D01*
X168492377Y-116476375D01*
X168702905Y-116332840D01*
X168889679Y-116159540D01*
X169048544Y-115960328D01*
X169175941Y-115739671D01*
X169269026Y-115502494D01*
X169269032Y-115502475D01*
X169325724Y-115254086D01*
X169325725Y-115254079D01*
X169326032Y-115250000D01*
X168188482Y-115250000D01*
X168199111Y-115231591D01*
X168240000Y-115078991D01*
X168240000Y-114921009D01*
X168199111Y-114768409D01*
X168188482Y-114750000D01*
X169326031Y-114750000D01*
X169325725Y-114745920D01*
X169325724Y-114745913D01*
X169269032Y-114497524D01*
X169269026Y-114497505D01*
X169175941Y-114260328D01*
X169175942Y-114260328D01*
X169048544Y-114039671D01*
X168889679Y-113840459D01*
X168702905Y-113667159D01*
X168492377Y-113523624D01*
X168492376Y-113523623D01*
X168262823Y-113413078D01*
X168262825Y-113413078D01*
X168019354Y-113337977D01*
X168019348Y-113337976D01*
X167890000Y-113318479D01*
X167890000Y-114451517D01*
X167871591Y-114440889D01*
X167718991Y-114400000D01*
X167561009Y-114400000D01*
X167408409Y-114440889D01*
X167390000Y-114451517D01*
X167390000Y-113318479D01*
X167260651Y-113337976D01*
X167260645Y-113337977D01*
X167017175Y-113413078D01*
X166787624Y-113523623D01*
X166787616Y-113523628D01*
X166577097Y-113667157D01*
X166390320Y-113840459D01*
X166231455Y-114039671D01*
X166104058Y-114260328D01*
X166010973Y-114497505D01*
X166010967Y-114497524D01*
X165954275Y-114745913D01*
X165954274Y-114745920D01*
X165953968Y-114750000D01*
X141311368Y-114750000D01*
X145042952Y-111018416D01*
X145104646Y-110926082D01*
X145125084Y-110895495D01*
X145172473Y-110781088D01*
X145181659Y-110758912D01*
X145210500Y-110613917D01*
X145210500Y-110466082D01*
X145210500Y-105749437D01*
X145230185Y-105682398D01*
X145238647Y-105670772D01*
X145350216Y-105534825D01*
X145350220Y-105534818D01*
X145449156Y-105349722D01*
X145510083Y-105148874D01*
X145530655Y-104940000D01*
X145510083Y-104731126D01*
X145449156Y-104530278D01*
X145359236Y-104362049D01*
X145350220Y-104345181D01*
X145350216Y-104345174D01*
X145217067Y-104182932D01*
X145054825Y-104049783D01*
X145054818Y-104049779D01*
X144931488Y-103983858D01*
X144881644Y-103934896D01*
X144866183Y-103866758D01*
X144890014Y-103801079D01*
X144945572Y-103758710D01*
X144989941Y-103750500D01*
X146470059Y-103750500D01*
X146537098Y-103770185D01*
X146582853Y-103822989D01*
X146592797Y-103892147D01*
X146563772Y-103955703D01*
X146528512Y-103983858D01*
X146405181Y-104049779D01*
X146405174Y-104049783D01*
X146242932Y-104182932D01*
X146109783Y-104345174D01*
X146109779Y-104345181D01*
X146010844Y-104530276D01*
X145949917Y-104731123D01*
X145929345Y-104940000D01*
X145949917Y-105148876D01*
X146010844Y-105349723D01*
X146109779Y-105534818D01*
X146109783Y-105534825D01*
X146242932Y-105697067D01*
X146405174Y-105830216D01*
X146405181Y-105830220D01*
X146590276Y-105929155D01*
X146590278Y-105929156D01*
X146791126Y-105990083D01*
X147000000Y-106010655D01*
X147208874Y-105990083D01*
X147409722Y-105929156D01*
X147594824Y-105830217D01*
X147757067Y-105697067D01*
X147890217Y-105534824D01*
X147989156Y-105349722D01*
X148050083Y-105148874D01*
X148070655Y-104940000D01*
X148050083Y-104731126D01*
X147989156Y-104530278D01*
X147899236Y-104362049D01*
X147890220Y-104345181D01*
X147890216Y-104345174D01*
X147757067Y-104182932D01*
X147594825Y-104049783D01*
X147594818Y-104049779D01*
X147471488Y-103983858D01*
X147421644Y-103934896D01*
X147406183Y-103866758D01*
X147430014Y-103801079D01*
X147485572Y-103758710D01*
X147529941Y-103750500D01*
X165637770Y-103750500D01*
X165704809Y-103770185D01*
X165725451Y-103786819D01*
X167417049Y-105478416D01*
X167473451Y-105534818D01*
X167521585Y-105582952D01*
X167644498Y-105665080D01*
X167644511Y-105665087D01*
X167781082Y-105721656D01*
X167781087Y-105721658D01*
X167781091Y-105721658D01*
X167781092Y-105721659D01*
X167926079Y-105750500D01*
X167926082Y-105750500D01*
X169073920Y-105750500D01*
X169171462Y-105731096D01*
X169218913Y-105721658D01*
X169259276Y-105704938D01*
X169306729Y-105695500D01*
X174412299Y-105695500D01*
X174479338Y-105715185D01*
X174513873Y-105748376D01*
X174561505Y-105816401D01*
X174728597Y-105983493D01*
X174728603Y-105983498D01*
X174914158Y-106113425D01*
X174957783Y-106168002D01*
X174964977Y-106237500D01*
X174933454Y-106299855D01*
X174914158Y-106316575D01*
X174728597Y-106446505D01*
X174561508Y-106613594D01*
X174511193Y-106685452D01*
X174456616Y-106729076D01*
X174433810Y-106735945D01*
X174412243Y-106740235D01*
X174296093Y-106763339D01*
X174296083Y-106763342D01*
X174216081Y-106796479D01*
X174216082Y-106796480D01*
X174159506Y-106819915D01*
X174118645Y-106847218D01*
X174036582Y-106902049D01*
X174036579Y-106902052D01*
X172417050Y-108521580D01*
X172417044Y-108521588D01*
X172367812Y-108595268D01*
X172367813Y-108595269D01*
X172334921Y-108644496D01*
X172334914Y-108644508D01*
X172278342Y-108781086D01*
X172278340Y-108781092D01*
X172249500Y-108926079D01*
X172249500Y-108926082D01*
X172249500Y-115073918D01*
X172249500Y-115073920D01*
X172249499Y-115073920D01*
X172278340Y-115218907D01*
X172278343Y-115218917D01*
X172334914Y-115355492D01*
X172367812Y-115404727D01*
X172367813Y-115404730D01*
X172417046Y-115478414D01*
X172417052Y-115478421D01*
X173981581Y-117042949D01*
X173981584Y-117042952D01*
X174027929Y-117073918D01*
X174104508Y-117125086D01*
X174241082Y-117181656D01*
X174241087Y-117181658D01*
X174241091Y-117181658D01*
X174241092Y-117181659D01*
X174386079Y-117210500D01*
X174386082Y-117210500D01*
X174386083Y-117210500D01*
X174412299Y-117210500D01*
X174479338Y-117230185D01*
X174513873Y-117263376D01*
X174561505Y-117331401D01*
X174683818Y-117453714D01*
X174717303Y-117515037D01*
X174712319Y-117584729D01*
X174670447Y-117640662D01*
X174639471Y-117657577D01*
X174507912Y-117706646D01*
X174507906Y-117706649D01*
X174392812Y-117792809D01*
X174392809Y-117792812D01*
X174306649Y-117907906D01*
X174306645Y-117907913D01*
X174256403Y-118042620D01*
X174256401Y-118042627D01*
X174250000Y-118102155D01*
X174250000Y-118750000D01*
X175166988Y-118750000D01*
X175134075Y-118807007D01*
X175100000Y-118934174D01*
X175100000Y-119065826D01*
X175134075Y-119192993D01*
X175166988Y-119250000D01*
X174250000Y-119250000D01*
X174250000Y-119897844D01*
X174256401Y-119957372D01*
X174256403Y-119957379D01*
X174306645Y-120092086D01*
X174306649Y-120092093D01*
X174392809Y-120207187D01*
X174392812Y-120207190D01*
X174507906Y-120293350D01*
X174507913Y-120293354D01*
X174642620Y-120343596D01*
X174642627Y-120343598D01*
X174702155Y-120349999D01*
X174702172Y-120350000D01*
X175350000Y-120350000D01*
X175350000Y-119433012D01*
X175407007Y-119465925D01*
X175534174Y-119500000D01*
X175665826Y-119500000D01*
X175792993Y-119465925D01*
X175850000Y-119433012D01*
X175850000Y-120350000D01*
X176497828Y-120350000D01*
X176497844Y-120349999D01*
X176557372Y-120343598D01*
X176557379Y-120343596D01*
X176692086Y-120293354D01*
X176692093Y-120293350D01*
X176807187Y-120207190D01*
X176807190Y-120207187D01*
X176893350Y-120092093D01*
X176893354Y-120092086D01*
X176943596Y-119957379D01*
X176943598Y-119957372D01*
X176949999Y-119897844D01*
X176950000Y-119897827D01*
X176950000Y-119250000D01*
X176033012Y-119250000D01*
X176065925Y-119192993D01*
X176100000Y-119065826D01*
X176100000Y-118934174D01*
X176065925Y-118807007D01*
X176033012Y-118750000D01*
X176950000Y-118750000D01*
X176950000Y-118102172D01*
X176949999Y-118102155D01*
X176943598Y-118042627D01*
X176943596Y-118042620D01*
X176893354Y-117907913D01*
X176893350Y-117907906D01*
X176807190Y-117792812D01*
X176807187Y-117792809D01*
X176692093Y-117706649D01*
X176692088Y-117706646D01*
X176560528Y-117657577D01*
X176504595Y-117615705D01*
X176480178Y-117550241D01*
X176495030Y-117481968D01*
X176516175Y-117453720D01*
X176638495Y-117331401D01*
X176774035Y-117137830D01*
X176778680Y-117127870D01*
X176785667Y-117112884D01*
X176873903Y-116923663D01*
X176935063Y-116695408D01*
X176955659Y-116460000D01*
X176935063Y-116224592D01*
X176873903Y-115996337D01*
X176774035Y-115782171D01*
X176744429Y-115739888D01*
X176638494Y-115588597D01*
X176471402Y-115421506D01*
X176471395Y-115421501D01*
X176447439Y-115404727D01*
X176377125Y-115355492D01*
X176277834Y-115285967D01*
X176277830Y-115285965D01*
X176277828Y-115285964D01*
X176063663Y-115186097D01*
X176063659Y-115186096D01*
X176063655Y-115186094D01*
X175835413Y-115124938D01*
X175835403Y-115124936D01*
X175600001Y-115104341D01*
X175599999Y-115104341D01*
X175364596Y-115124936D01*
X175364586Y-115124938D01*
X175136344Y-115186094D01*
X175136335Y-115186098D01*
X174922171Y-115285964D01*
X174922169Y-115285965D01*
X174728596Y-115421506D01*
X174693415Y-115456687D01*
X174632092Y-115490172D01*
X174562400Y-115485186D01*
X174518054Y-115456686D01*
X173786819Y-114725451D01*
X173753334Y-114664128D01*
X173750500Y-114637770D01*
X173750500Y-109362228D01*
X173770185Y-109295189D01*
X173786815Y-109274551D01*
X174039501Y-109021864D01*
X174100821Y-108988382D01*
X174170512Y-108993366D01*
X174226446Y-109035237D01*
X174250863Y-109100702D01*
X174250470Y-109122792D01*
X174250000Y-109127162D01*
X174250000Y-109775000D01*
X175166988Y-109775000D01*
X175134075Y-109832007D01*
X175100000Y-109959174D01*
X175100000Y-110090826D01*
X175134075Y-110217993D01*
X175166988Y-110275000D01*
X174250000Y-110275000D01*
X174250000Y-110922844D01*
X174256401Y-110982372D01*
X174256403Y-110982379D01*
X174306645Y-111117086D01*
X174306649Y-111117093D01*
X174392809Y-111232187D01*
X174392812Y-111232190D01*
X174507906Y-111318350D01*
X174507913Y-111318354D01*
X174642620Y-111368596D01*
X174642627Y-111368598D01*
X174702155Y-111374999D01*
X174702172Y-111375000D01*
X175350000Y-111375000D01*
X175350000Y-110458012D01*
X175407007Y-110490925D01*
X175534174Y-110525000D01*
X175665826Y-110525000D01*
X175792993Y-110490925D01*
X175850000Y-110458012D01*
X175850000Y-111375000D01*
X176497828Y-111375000D01*
X176497844Y-111374999D01*
X176557372Y-111368598D01*
X176557379Y-111368596D01*
X176692086Y-111318354D01*
X176692093Y-111318350D01*
X176807187Y-111232190D01*
X176807190Y-111232187D01*
X176893350Y-111117093D01*
X176893354Y-111117086D01*
X176943596Y-110982379D01*
X176943598Y-110982372D01*
X176949999Y-110922844D01*
X176950000Y-110922827D01*
X176950000Y-110275000D01*
X176033012Y-110275000D01*
X176065925Y-110217993D01*
X176100000Y-110090826D01*
X176100000Y-109959174D01*
X176065925Y-109832007D01*
X176033012Y-109775000D01*
X176950000Y-109775000D01*
X176950000Y-109127172D01*
X176949999Y-109127155D01*
X176943598Y-109067627D01*
X176943596Y-109067620D01*
X176893354Y-108932913D01*
X176893350Y-108932906D01*
X176807190Y-108817812D01*
X176807187Y-108817809D01*
X176692093Y-108731649D01*
X176692088Y-108731646D01*
X176560528Y-108682577D01*
X176504595Y-108640705D01*
X176480178Y-108575241D01*
X176495030Y-108506968D01*
X176516175Y-108478720D01*
X176638495Y-108356401D01*
X176774035Y-108162830D01*
X176873903Y-107948663D01*
X176935063Y-107720408D01*
X176955659Y-107485000D01*
X176935063Y-107249592D01*
X176873903Y-107021337D01*
X176774035Y-106807171D01*
X176766550Y-106796480D01*
X176638494Y-106613597D01*
X176471402Y-106446506D01*
X176471396Y-106446501D01*
X176285842Y-106316575D01*
X176242217Y-106261998D01*
X176235023Y-106192500D01*
X176266546Y-106130145D01*
X176285842Y-106113425D01*
X176308026Y-106097891D01*
X176471401Y-105983495D01*
X176638495Y-105816401D01*
X176702562Y-105724902D01*
X176757136Y-105681278D01*
X176779939Y-105674410D01*
X176818913Y-105666658D01*
X176955495Y-105610084D01*
X177078416Y-105527951D01*
X177182951Y-105423416D01*
X177265084Y-105300495D01*
X177321658Y-105163913D01*
X177345493Y-105044091D01*
X177350500Y-105018920D01*
X177350500Y-104871079D01*
X177321659Y-104726092D01*
X177321658Y-104726091D01*
X177321658Y-104726087D01*
X177321656Y-104726082D01*
X177265087Y-104589511D01*
X177265080Y-104589498D01*
X177182951Y-104466584D01*
X177182948Y-104466580D01*
X177078419Y-104362051D01*
X177078415Y-104362048D01*
X176955501Y-104279919D01*
X176955488Y-104279912D01*
X176818915Y-104223342D01*
X176818910Y-104223341D01*
X176779942Y-104215589D01*
X176718032Y-104183202D01*
X176702561Y-104165095D01*
X176638498Y-104073603D01*
X176638493Y-104073597D01*
X176471402Y-103906506D01*
X176471395Y-103906501D01*
X176277834Y-103770967D01*
X176277830Y-103770965D01*
X176233943Y-103750500D01*
X176063663Y-103671097D01*
X176063659Y-103671096D01*
X176063655Y-103671094D01*
X175835413Y-103609938D01*
X175835403Y-103609936D01*
X175600001Y-103589341D01*
X175599999Y-103589341D01*
X175364596Y-103609936D01*
X175364586Y-103609938D01*
X175136344Y-103671094D01*
X175136335Y-103671098D01*
X174922171Y-103770964D01*
X174922169Y-103770965D01*
X174728597Y-103906505D01*
X174561506Y-104073596D01*
X174513874Y-104141623D01*
X174459297Y-104185248D01*
X174412299Y-104194500D01*
X168981076Y-104194500D01*
X168952242Y-104200234D01*
X168952243Y-104200235D01*
X168836092Y-104223339D01*
X168836086Y-104223341D01*
X168795722Y-104240061D01*
X168748269Y-104249500D01*
X168362229Y-104249500D01*
X168295190Y-104229815D01*
X168274548Y-104213181D01*
X166478421Y-102417052D01*
X166478420Y-102417051D01*
X166386913Y-102355909D01*
X166355499Y-102334919D01*
X166355495Y-102334916D01*
X166355493Y-102334915D01*
X166355490Y-102334913D01*
X166218917Y-102278343D01*
X166218907Y-102278340D01*
X166073920Y-102249500D01*
X166073918Y-102249500D01*
X141393917Y-102249500D01*
X141246082Y-102249500D01*
X141246080Y-102249500D01*
X141101092Y-102278340D01*
X141101082Y-102278343D01*
X140964511Y-102334912D01*
X140964498Y-102334919D01*
X140841584Y-102417048D01*
X140841580Y-102417051D01*
X139421673Y-103836957D01*
X139360350Y-103870442D01*
X139346146Y-103872679D01*
X139171123Y-103889917D01*
X138970276Y-103950844D01*
X138785181Y-104049779D01*
X138785174Y-104049783D01*
X138622932Y-104182932D01*
X138489783Y-104345174D01*
X138489779Y-104345181D01*
X138390844Y-104530276D01*
X138329917Y-104731123D01*
X138309345Y-104940000D01*
X138329917Y-105148876D01*
X138390844Y-105349723D01*
X138489779Y-105534818D01*
X138489783Y-105534825D01*
X138622932Y-105697067D01*
X138785174Y-105830216D01*
X138785181Y-105830220D01*
X138970276Y-105929155D01*
X138970278Y-105929156D01*
X139171126Y-105990083D01*
X139380000Y-106010655D01*
X139487662Y-106000051D01*
X139556307Y-106013070D01*
X139607017Y-106061135D01*
X139623692Y-106128985D01*
X139601036Y-106195080D01*
X139587496Y-106211135D01*
X136585451Y-109213181D01*
X136524128Y-109246666D01*
X136497770Y-109249500D01*
X129926076Y-109249500D01*
X129897242Y-109255234D01*
X129897243Y-109255235D01*
X129781093Y-109278339D01*
X129781083Y-109278342D01*
X129701081Y-109311479D01*
X129701082Y-109311480D01*
X129644506Y-109334915D01*
X129613708Y-109355494D01*
X129521582Y-109417049D01*
X129521579Y-109417052D01*
X126417052Y-112521578D01*
X126417046Y-112521585D01*
X126379386Y-112577948D01*
X126379387Y-112577949D01*
X126334913Y-112644508D01*
X126278343Y-112781082D01*
X126278340Y-112781092D01*
X126251281Y-112917126D01*
X126218896Y-112979037D01*
X126158180Y-113013611D01*
X126088410Y-113009870D01*
X126041983Y-112980615D01*
X123478413Y-110417045D01*
X123429179Y-110384150D01*
X123396355Y-110362218D01*
X123396354Y-110362217D01*
X123396353Y-110362216D01*
X123373269Y-110346792D01*
X123328605Y-110293499D01*
X123324173Y-110283393D01*
X123224328Y-110130568D01*
X123188166Y-110075217D01*
X123118965Y-110000045D01*
X123019744Y-109892262D01*
X122823509Y-109739526D01*
X122823507Y-109739525D01*
X122823506Y-109739524D01*
X122604811Y-109621172D01*
X122604802Y-109621169D01*
X122369616Y-109540429D01*
X122124335Y-109499500D01*
X121875665Y-109499500D01*
X121630383Y-109540429D01*
X121395197Y-109621169D01*
X121395188Y-109621172D01*
X121176493Y-109739524D01*
X120980257Y-109892261D01*
X120811833Y-110075217D01*
X120675826Y-110283393D01*
X120575936Y-110511118D01*
X120514892Y-110752175D01*
X120514890Y-110752187D01*
X120494357Y-110999994D01*
X120494357Y-110999995D01*
X120505543Y-111134998D01*
X120491461Y-111203434D01*
X120442615Y-111253393D01*
X120374514Y-111269013D01*
X120308779Y-111245335D01*
X120294285Y-111232918D01*
X119423587Y-110362220D01*
X118326716Y-109265348D01*
X118293231Y-109204025D01*
X118290869Y-109166863D01*
X118305468Y-109000000D01*
X118304599Y-108990072D01*
X118291527Y-108840659D01*
X118285635Y-108773308D01*
X118226739Y-108553504D01*
X118130568Y-108347266D01*
X118032839Y-108207693D01*
X118000045Y-108160858D01*
X117839141Y-107999954D01*
X117652734Y-107869432D01*
X117652732Y-107869431D01*
X117446497Y-107773261D01*
X117446488Y-107773258D01*
X117226697Y-107714366D01*
X117226693Y-107714365D01*
X117226692Y-107714365D01*
X117226691Y-107714364D01*
X117226686Y-107714364D01*
X117000002Y-107694532D01*
X116999998Y-107694532D01*
X116773313Y-107714364D01*
X116773302Y-107714366D01*
X116553511Y-107773258D01*
X116553502Y-107773261D01*
X116347267Y-107869431D01*
X116347265Y-107869432D01*
X116160858Y-107999954D01*
X115999954Y-108160858D01*
X115869432Y-108347265D01*
X115869431Y-108347267D01*
X115773261Y-108553502D01*
X115773258Y-108553511D01*
X115714366Y-108773302D01*
X115714364Y-108773313D01*
X115694532Y-108999998D01*
X115694532Y-109000001D01*
X115714364Y-109226686D01*
X115714366Y-109226697D01*
X115773258Y-109446488D01*
X115773261Y-109446497D01*
X115869431Y-109652732D01*
X115869432Y-109652734D01*
X115999954Y-109839141D01*
X116160858Y-110000045D01*
X116160861Y-110000047D01*
X116347266Y-110130568D01*
X116553504Y-110226739D01*
X116553509Y-110226740D01*
X116553511Y-110226741D01*
X116606415Y-110240916D01*
X116773308Y-110285635D01*
X116935230Y-110299801D01*
X116999998Y-110305468D01*
X117000000Y-110305468D01*
X117000001Y-110305468D01*
X117020062Y-110303712D01*
X117166861Y-110290869D01*
X117235359Y-110304635D01*
X117265348Y-110326716D01*
X118473274Y-111534642D01*
X119516452Y-112577819D01*
X119549937Y-112639142D01*
X119544953Y-112708834D01*
X119503081Y-112764767D01*
X119437617Y-112789184D01*
X119428771Y-112789500D01*
X111386080Y-112789500D01*
X111241092Y-112818340D01*
X111241082Y-112818343D01*
X111104509Y-112874913D01*
X111104507Y-112874914D01*
X111063645Y-112902218D01*
X111063643Y-112902219D01*
X110981589Y-112957043D01*
X110981584Y-112957047D01*
X109485451Y-114453181D01*
X109424128Y-114486666D01*
X109397770Y-114489500D01*
X106587701Y-114489500D01*
X106520662Y-114469815D01*
X106486126Y-114436623D01*
X106438496Y-114368600D01*
X106380081Y-114310185D01*
X106316567Y-114246671D01*
X106283084Y-114185351D01*
X106288068Y-114115659D01*
X106329939Y-114059725D01*
X106360915Y-114042810D01*
X106492331Y-113993796D01*
X106607546Y-113907546D01*
X106693796Y-113792331D01*
X106744091Y-113657483D01*
X106750500Y-113597873D01*
X106750499Y-112954360D01*
X106770183Y-112887322D01*
X106786813Y-112866685D01*
X109313054Y-110340444D01*
X109374375Y-110306961D01*
X109389916Y-110304600D01*
X109606692Y-110285635D01*
X109826496Y-110226739D01*
X110032734Y-110130568D01*
X110219139Y-110000047D01*
X110380047Y-109839139D01*
X110510568Y-109652734D01*
X110606739Y-109446496D01*
X110665635Y-109226692D01*
X110685468Y-109000000D01*
X110684599Y-108990072D01*
X110671527Y-108840659D01*
X110665635Y-108773308D01*
X110606739Y-108553504D01*
X110510568Y-108347266D01*
X110412839Y-108207693D01*
X110380045Y-108160858D01*
X110219141Y-107999954D01*
X110032734Y-107869432D01*
X110032732Y-107869431D01*
X109826497Y-107773261D01*
X109826488Y-107773258D01*
X109606697Y-107714366D01*
X109606693Y-107714365D01*
X109606692Y-107714365D01*
X109606691Y-107714364D01*
X109606686Y-107714364D01*
X109380002Y-107694532D01*
X109379998Y-107694532D01*
X109153313Y-107714364D01*
X109153302Y-107714366D01*
X108933511Y-107773258D01*
X108933502Y-107773261D01*
X108727267Y-107869431D01*
X108727265Y-107869432D01*
X108540858Y-107999954D01*
X108379954Y-108160858D01*
X108249432Y-108347265D01*
X108249431Y-108347267D01*
X108153261Y-108553502D01*
X108153258Y-108553511D01*
X108094366Y-108773302D01*
X108094364Y-108773312D01*
X108075400Y-108990072D01*
X108049947Y-109055140D01*
X108039553Y-109066945D01*
X105793317Y-111313181D01*
X105731994Y-111346666D01*
X105705636Y-111349500D01*
X104502129Y-111349500D01*
X104502123Y-111349501D01*
X104442516Y-111355908D01*
X104307671Y-111406202D01*
X104307664Y-111406206D01*
X104192455Y-111492452D01*
X104192452Y-111492455D01*
X104106206Y-111607664D01*
X104106202Y-111607671D01*
X104055908Y-111742517D01*
X104049501Y-111802116D01*
X104049500Y-111802135D01*
X104049500Y-113597870D01*
X104049501Y-113597876D01*
X104055908Y-113657483D01*
X104106202Y-113792328D01*
X104106206Y-113792335D01*
X104192452Y-113907544D01*
X104192455Y-113907547D01*
X104307664Y-113993793D01*
X104307671Y-113993797D01*
X104439081Y-114042810D01*
X104495015Y-114084681D01*
X104519432Y-114150145D01*
X104504580Y-114218418D01*
X104483430Y-114246673D01*
X104361503Y-114368600D01*
X104225965Y-114562169D01*
X104225964Y-114562171D01*
X104126098Y-114776335D01*
X104126094Y-114776344D01*
X104064938Y-115004586D01*
X104064936Y-115004596D01*
X104044341Y-115239999D01*
X95500500Y-115239999D01*
X95500500Y-97878711D01*
X98149500Y-97878711D01*
X98149500Y-98121288D01*
X98181161Y-98361785D01*
X98243947Y-98596104D01*
X98322267Y-98785185D01*
X98336776Y-98820212D01*
X98458064Y-99030289D01*
X98458066Y-99030292D01*
X98458067Y-99030293D01*
X98605733Y-99222736D01*
X98605739Y-99222743D01*
X98777256Y-99394260D01*
X98777262Y-99394265D01*
X98969711Y-99541936D01*
X99179788Y-99663224D01*
X99403900Y-99756054D01*
X99638211Y-99818838D01*
X99818586Y-99842584D01*
X99878711Y-99850500D01*
X99878712Y-99850500D01*
X100121289Y-99850500D01*
X100169388Y-99844167D01*
X100361789Y-99818838D01*
X100596100Y-99756054D01*
X100820212Y-99663224D01*
X101030289Y-99541936D01*
X101222738Y-99394265D01*
X101394265Y-99222738D01*
X101541936Y-99030289D01*
X101663224Y-98820212D01*
X101756054Y-98596100D01*
X101818838Y-98361789D01*
X101850500Y-98121288D01*
X101850500Y-97878712D01*
X101845290Y-97839141D01*
X101823350Y-97672483D01*
X101818838Y-97638211D01*
X101756054Y-97403900D01*
X101663224Y-97179788D01*
X101541936Y-96969711D01*
X101394265Y-96777262D01*
X101394260Y-96777256D01*
X101222743Y-96605739D01*
X101222736Y-96605733D01*
X101030293Y-96458067D01*
X101030292Y-96458066D01*
X101030289Y-96458064D01*
X100838381Y-96347266D01*
X100820214Y-96336777D01*
X100820205Y-96336773D01*
X100596104Y-96243947D01*
X100404733Y-96192669D01*
X100361789Y-96181162D01*
X100361788Y-96181161D01*
X100361785Y-96181161D01*
X100121289Y-96149500D01*
X100121288Y-96149500D01*
X99878712Y-96149500D01*
X99878711Y-96149500D01*
X99638214Y-96181161D01*
X99403895Y-96243947D01*
X99179794Y-96336773D01*
X99179785Y-96336777D01*
X98969706Y-96458067D01*
X98777263Y-96605733D01*
X98777256Y-96605739D01*
X98605739Y-96777256D01*
X98605733Y-96777263D01*
X98458067Y-96969706D01*
X98336777Y-97179785D01*
X98336773Y-97179794D01*
X98243947Y-97403895D01*
X98181161Y-97638214D01*
X98149500Y-97878711D01*
X95500500Y-97878711D01*
X95500500Y-90999997D01*
X138380034Y-90999997D01*
X138380034Y-91000002D01*
X138399858Y-91226599D01*
X138399860Y-91226610D01*
X138458730Y-91446317D01*
X138458735Y-91446331D01*
X138554863Y-91652478D01*
X138605974Y-91725472D01*
X139285000Y-91046446D01*
X139285000Y-91052661D01*
X139312259Y-91154394D01*
X139364920Y-91245606D01*
X139439394Y-91320080D01*
X139530606Y-91372741D01*
X139632339Y-91400000D01*
X139638553Y-91400000D01*
X138959526Y-92079025D01*
X139032513Y-92130132D01*
X139032521Y-92130136D01*
X139238668Y-92226264D01*
X139238682Y-92226269D01*
X139458389Y-92285139D01*
X139458400Y-92285141D01*
X139684998Y-92304966D01*
X139685002Y-92304966D01*
X139911599Y-92285141D01*
X139911610Y-92285139D01*
X140131317Y-92226269D01*
X140131331Y-92226264D01*
X140337478Y-92130136D01*
X140410471Y-92079024D01*
X139731447Y-91400000D01*
X139737661Y-91400000D01*
X139839394Y-91372741D01*
X139930606Y-91320080D01*
X140005080Y-91245606D01*
X140057741Y-91154394D01*
X140085000Y-91052661D01*
X140085000Y-91046447D01*
X140764024Y-91725471D01*
X140815136Y-91652478D01*
X140911264Y-91446331D01*
X140911269Y-91446317D01*
X140970139Y-91226610D01*
X140970141Y-91226599D01*
X140989966Y-91000002D01*
X140989966Y-90999997D01*
X140970141Y-90773400D01*
X140970139Y-90773389D01*
X140911269Y-90553682D01*
X140911264Y-90553668D01*
X140815136Y-90347521D01*
X140815132Y-90347513D01*
X140764025Y-90274526D01*
X140085000Y-90953551D01*
X140085000Y-90947339D01*
X140057741Y-90845606D01*
X140005080Y-90754394D01*
X139930606Y-90679920D01*
X139839394Y-90627259D01*
X139737661Y-90600000D01*
X139731448Y-90600000D01*
X140410472Y-89920974D01*
X140337478Y-89869863D01*
X140131331Y-89773735D01*
X140131317Y-89773730D01*
X139911610Y-89714860D01*
X139911599Y-89714858D01*
X139685002Y-89695034D01*
X139684998Y-89695034D01*
X139458400Y-89714858D01*
X139458389Y-89714860D01*
X139238682Y-89773730D01*
X139238673Y-89773734D01*
X139032516Y-89869866D01*
X139032512Y-89869868D01*
X138959526Y-89920973D01*
X138959526Y-89920974D01*
X139638553Y-90600000D01*
X139632339Y-90600000D01*
X139530606Y-90627259D01*
X139439394Y-90679920D01*
X139364920Y-90754394D01*
X139312259Y-90845606D01*
X139285000Y-90947339D01*
X139285000Y-90953552D01*
X138605974Y-90274526D01*
X138605973Y-90274526D01*
X138554868Y-90347512D01*
X138554866Y-90347516D01*
X138458734Y-90553673D01*
X138458730Y-90553682D01*
X138399860Y-90773389D01*
X138399858Y-90773400D01*
X138380034Y-90999997D01*
X95500500Y-90999997D01*
X95500500Y-85239999D01*
X104044341Y-85239999D01*
X104044341Y-85240000D01*
X104064936Y-85475403D01*
X104064938Y-85475413D01*
X104126094Y-85703655D01*
X104126096Y-85703659D01*
X104126097Y-85703663D01*
X104197664Y-85857139D01*
X104225965Y-85917830D01*
X104225967Y-85917834D01*
X104313873Y-86043376D01*
X104361505Y-86111401D01*
X104528599Y-86278495D01*
X104591199Y-86322328D01*
X104722165Y-86414032D01*
X104722167Y-86414033D01*
X104722170Y-86414035D01*
X104936337Y-86513903D01*
X104936343Y-86513904D01*
X104936344Y-86513905D01*
X104973262Y-86523797D01*
X105164592Y-86575063D01*
X105352918Y-86591539D01*
X105399999Y-86595659D01*
X105400000Y-86595659D01*
X105400001Y-86595659D01*
X105439234Y-86592226D01*
X105635408Y-86575063D01*
X105863663Y-86513903D01*
X106077830Y-86414035D01*
X106271401Y-86278495D01*
X106438495Y-86111401D01*
X106486127Y-86043376D01*
X106540704Y-85999751D01*
X106587701Y-85990500D01*
X109833920Y-85990500D01*
X109931462Y-85971096D01*
X109978913Y-85961658D01*
X110115495Y-85905084D01*
X110187250Y-85857139D01*
X110238416Y-85822952D01*
X115274549Y-80786819D01*
X115335872Y-80753334D01*
X115362230Y-80750500D01*
X115493337Y-80750500D01*
X115560376Y-80770185D01*
X115594912Y-80803377D01*
X115619954Y-80839141D01*
X115780858Y-81000045D01*
X115780861Y-81000047D01*
X115967266Y-81130568D01*
X116173504Y-81226739D01*
X116173509Y-81226740D01*
X116173511Y-81226741D01*
X116207007Y-81235716D01*
X116393308Y-81285635D01*
X116555230Y-81299801D01*
X116619998Y-81305468D01*
X116620000Y-81305468D01*
X116620001Y-81305468D01*
X116640062Y-81303712D01*
X116786861Y-81290869D01*
X116855359Y-81304635D01*
X116885348Y-81326716D01*
X118577048Y-83018415D01*
X118577049Y-83018416D01*
X118681584Y-83122951D01*
X118681585Y-83122952D01*
X118804498Y-83205080D01*
X118804511Y-83205087D01*
X118928893Y-83256607D01*
X118941087Y-83261658D01*
X118941091Y-83261658D01*
X118941092Y-83261659D01*
X119086079Y-83290500D01*
X119086082Y-83290500D01*
X119630864Y-83290500D01*
X119697903Y-83310185D01*
X119734672Y-83346678D01*
X119806741Y-83456987D01*
X119826929Y-83523877D01*
X119807750Y-83591062D01*
X119762367Y-83633637D01*
X119757670Y-83636201D01*
X119642455Y-83722452D01*
X119642452Y-83722455D01*
X119556206Y-83837664D01*
X119556202Y-83837671D01*
X119505908Y-83972517D01*
X119502239Y-84006649D01*
X119499501Y-84032123D01*
X119499500Y-84032135D01*
X119499500Y-86127870D01*
X119499501Y-86127876D01*
X119505908Y-86187483D01*
X119556202Y-86322328D01*
X119556206Y-86322335D01*
X119642452Y-86437544D01*
X119642455Y-86437547D01*
X119757664Y-86523793D01*
X119757671Y-86523797D01*
X119892517Y-86574091D01*
X119892516Y-86574091D01*
X119899444Y-86574835D01*
X119952127Y-86580500D01*
X122047872Y-86580499D01*
X122107483Y-86574091D01*
X122242331Y-86523796D01*
X122357546Y-86437546D01*
X122443796Y-86322331D01*
X122494091Y-86187483D01*
X122500500Y-86127873D01*
X122500500Y-86073920D01*
X123249499Y-86073920D01*
X123278340Y-86218907D01*
X123278343Y-86218917D01*
X123334912Y-86355488D01*
X123334919Y-86355501D01*
X123417048Y-86478415D01*
X123417051Y-86478419D01*
X123521580Y-86582948D01*
X123521584Y-86582951D01*
X123644498Y-86665080D01*
X123644511Y-86665087D01*
X123781082Y-86721656D01*
X123781087Y-86721658D01*
X123781091Y-86721658D01*
X123781092Y-86721659D01*
X123926079Y-86750500D01*
X123926082Y-86750500D01*
X137073920Y-86750500D01*
X137171462Y-86731096D01*
X137218913Y-86721658D01*
X137355495Y-86665084D01*
X137404729Y-86632186D01*
X137478416Y-86582952D01*
X144042952Y-80018415D01*
X144070205Y-79977627D01*
X144125084Y-79895495D01*
X144172473Y-79781088D01*
X144181659Y-79758912D01*
X144210500Y-79613917D01*
X144210500Y-79466082D01*
X144210500Y-76809437D01*
X144230185Y-76742398D01*
X144238647Y-76730772D01*
X144350216Y-76594825D01*
X144350220Y-76594818D01*
X144449155Y-76409723D01*
X144449156Y-76409722D01*
X144510083Y-76208874D01*
X144530655Y-76000000D01*
X144929345Y-76000000D01*
X144949917Y-76208876D01*
X145010844Y-76409723D01*
X145109779Y-76594818D01*
X145109783Y-76594825D01*
X145242932Y-76757067D01*
X145405174Y-76890216D01*
X145405181Y-76890220D01*
X145590276Y-76989155D01*
X145590278Y-76989156D01*
X145791126Y-77050083D01*
X146000000Y-77070655D01*
X146208874Y-77050083D01*
X146409722Y-76989156D01*
X146594824Y-76890217D01*
X146757067Y-76757067D01*
X146890217Y-76594824D01*
X146989156Y-76409722D01*
X147050083Y-76208874D01*
X147070655Y-76000000D01*
X147050083Y-75791126D01*
X146989156Y-75590278D01*
X146968871Y-75552328D01*
X146890220Y-75405181D01*
X146890216Y-75405174D01*
X146757067Y-75242932D01*
X146594825Y-75109783D01*
X146594818Y-75109779D01*
X146409723Y-75010844D01*
X146208876Y-74949917D01*
X146000000Y-74929345D01*
X145791123Y-74949917D01*
X145590276Y-75010844D01*
X145405181Y-75109779D01*
X145405174Y-75109783D01*
X145242932Y-75242932D01*
X145109783Y-75405174D01*
X145109779Y-75405181D01*
X145010844Y-75590276D01*
X144949917Y-75791123D01*
X144929345Y-76000000D01*
X144530655Y-76000000D01*
X144510083Y-75791126D01*
X144449156Y-75590278D01*
X144428871Y-75552328D01*
X144350220Y-75405181D01*
X144350216Y-75405174D01*
X144217067Y-75242932D01*
X144054825Y-75109783D01*
X144054818Y-75109779D01*
X143869723Y-75010844D01*
X143668876Y-74949917D01*
X143460000Y-74929345D01*
X143251123Y-74949917D01*
X143050276Y-75010844D01*
X142865181Y-75109779D01*
X142865174Y-75109783D01*
X142702932Y-75242932D01*
X142569783Y-75405174D01*
X142569779Y-75405181D01*
X142470844Y-75590276D01*
X142409917Y-75791123D01*
X142389345Y-76000000D01*
X142409917Y-76208876D01*
X142470844Y-76409723D01*
X142569779Y-76594818D01*
X142569783Y-76594825D01*
X142681353Y-76730772D01*
X142708666Y-76795082D01*
X142709500Y-76809437D01*
X142709500Y-79177770D01*
X142689815Y-79244809D01*
X142673181Y-79265451D01*
X136725451Y-85213181D01*
X136664128Y-85246666D01*
X136637770Y-85249500D01*
X123926080Y-85249500D01*
X123781092Y-85278340D01*
X123781082Y-85278343D01*
X123644511Y-85334912D01*
X123644498Y-85334919D01*
X123521584Y-85417048D01*
X123521580Y-85417051D01*
X123417051Y-85521580D01*
X123417048Y-85521584D01*
X123334919Y-85644498D01*
X123334912Y-85644511D01*
X123278343Y-85781082D01*
X123278340Y-85781092D01*
X123249500Y-85926079D01*
X123249500Y-85926082D01*
X123249500Y-86073918D01*
X123249500Y-86073920D01*
X123249499Y-86073920D01*
X122500500Y-86073920D01*
X122500499Y-84032128D01*
X122494091Y-83972517D01*
X122469858Y-83907546D01*
X122443797Y-83837671D01*
X122443793Y-83837664D01*
X122357547Y-83722455D01*
X122357544Y-83722452D01*
X122242332Y-83636204D01*
X122237635Y-83633639D01*
X122188232Y-83584232D01*
X122173382Y-83515958D01*
X122193257Y-83456989D01*
X122324173Y-83256607D01*
X122424063Y-83028881D01*
X122485108Y-82787821D01*
X122489915Y-82729800D01*
X122515069Y-82664616D01*
X122571471Y-82623378D01*
X122641214Y-82619180D01*
X122682380Y-82636937D01*
X122724505Y-82665084D01*
X122724507Y-82665085D01*
X122724511Y-82665087D01*
X122861082Y-82721656D01*
X122861087Y-82721658D01*
X122861091Y-82721658D01*
X122861092Y-82721659D01*
X123006079Y-82750500D01*
X123006082Y-82750500D01*
X127398142Y-82750500D01*
X127465181Y-82770185D01*
X127505529Y-82812500D01*
X127591041Y-82960612D01*
X127749950Y-83159877D01*
X127936783Y-83333232D01*
X128147366Y-83476805D01*
X128147371Y-83476807D01*
X128147372Y-83476808D01*
X128147373Y-83476809D01*
X128228668Y-83515958D01*
X128376992Y-83587387D01*
X128376993Y-83587387D01*
X128376996Y-83587389D01*
X128620542Y-83662513D01*
X128872565Y-83700500D01*
X129127435Y-83700500D01*
X129379458Y-83662513D01*
X129623004Y-83587389D01*
X129852634Y-83476805D01*
X130063217Y-83333232D01*
X130250050Y-83159877D01*
X130408959Y-82960612D01*
X130494471Y-82812500D01*
X130545038Y-82764284D01*
X130601858Y-82750500D01*
X137073920Y-82750500D01*
X137177971Y-82729802D01*
X137218913Y-82721658D01*
X137287204Y-82693371D01*
X137355491Y-82665086D01*
X137355492Y-82665085D01*
X137355495Y-82665084D01*
X137432071Y-82613918D01*
X137478416Y-82582952D01*
X141502951Y-78558416D01*
X141585084Y-78435495D01*
X141641658Y-78298913D01*
X141662772Y-78192770D01*
X141670500Y-78153920D01*
X141670500Y-76809437D01*
X141690185Y-76742398D01*
X141698647Y-76730772D01*
X141810216Y-76594825D01*
X141810220Y-76594818D01*
X141909155Y-76409723D01*
X141909156Y-76409722D01*
X141970083Y-76208874D01*
X141990655Y-76000000D01*
X141970083Y-75791126D01*
X141909156Y-75590278D01*
X141888871Y-75552328D01*
X141810220Y-75405181D01*
X141810216Y-75405174D01*
X141677067Y-75242932D01*
X141514825Y-75109783D01*
X141514818Y-75109779D01*
X141329723Y-75010844D01*
X141128876Y-74949917D01*
X140920000Y-74929345D01*
X140711123Y-74949917D01*
X140510276Y-75010844D01*
X140325181Y-75109779D01*
X140325174Y-75109783D01*
X140162932Y-75242932D01*
X140029783Y-75405174D01*
X140029779Y-75405181D01*
X139930844Y-75590276D01*
X139869917Y-75791123D01*
X139849345Y-76000000D01*
X139869917Y-76208876D01*
X139930844Y-76409723D01*
X140029779Y-76594818D01*
X140029783Y-76594825D01*
X140141353Y-76730772D01*
X140168666Y-76795082D01*
X140169500Y-76809437D01*
X140169500Y-77717770D01*
X140149815Y-77784809D01*
X140133181Y-77805451D01*
X136725451Y-81213181D01*
X136664128Y-81246666D01*
X136637770Y-81249500D01*
X130601858Y-81249500D01*
X130534819Y-81229815D01*
X130494471Y-81187500D01*
X130448420Y-81107738D01*
X130408959Y-81039388D01*
X130250050Y-80840123D01*
X130063217Y-80666768D01*
X129852634Y-80523195D01*
X129852630Y-80523193D01*
X129852627Y-80523191D01*
X129852626Y-80523190D01*
X129623006Y-80412612D01*
X129623008Y-80412612D01*
X129379466Y-80337489D01*
X129379462Y-80337488D01*
X129379458Y-80337487D01*
X129253350Y-80318479D01*
X129127440Y-80299500D01*
X129127435Y-80299500D01*
X128872565Y-80299500D01*
X128872559Y-80299500D01*
X128715609Y-80323157D01*
X128620542Y-80337487D01*
X128620539Y-80337488D01*
X128620533Y-80337489D01*
X128376992Y-80412612D01*
X128147373Y-80523190D01*
X128147372Y-80523191D01*
X127936782Y-80666768D01*
X127749952Y-80840121D01*
X127749950Y-80840123D01*
X127591041Y-81039388D01*
X127505529Y-81187500D01*
X127454962Y-81235716D01*
X127398142Y-81249500D01*
X123006080Y-81249500D01*
X122861092Y-81278340D01*
X122861082Y-81278343D01*
X122724511Y-81334912D01*
X122724498Y-81334919D01*
X122601584Y-81417048D01*
X122601580Y-81417051D01*
X122497051Y-81521580D01*
X122414205Y-81645567D01*
X122360592Y-81690371D01*
X122291267Y-81699078D01*
X122228240Y-81668923D01*
X122207295Y-81644497D01*
X122188164Y-81615215D01*
X122019744Y-81432262D01*
X121936991Y-81367852D01*
X121896179Y-81311143D01*
X121892504Y-81241370D01*
X121927136Y-81180687D01*
X121936985Y-81172151D01*
X122019744Y-81107738D01*
X122188164Y-80924785D01*
X122324173Y-80716607D01*
X122424063Y-80488881D01*
X122485108Y-80247821D01*
X122485109Y-80247812D01*
X122505643Y-80000005D01*
X122505643Y-79999994D01*
X122485109Y-79752187D01*
X122485107Y-79752175D01*
X122424063Y-79511118D01*
X122324173Y-79283393D01*
X122188166Y-79075217D01*
X122118880Y-78999953D01*
X122019744Y-78892262D01*
X121823509Y-78739526D01*
X121823507Y-78739525D01*
X121823506Y-78739524D01*
X121604811Y-78621172D01*
X121604802Y-78621169D01*
X121369616Y-78540429D01*
X121124335Y-78499500D01*
X120875665Y-78499500D01*
X120630383Y-78540429D01*
X120395197Y-78621169D01*
X120395188Y-78621172D01*
X120176493Y-78739524D01*
X119980257Y-78892261D01*
X119811833Y-79075217D01*
X119675826Y-79283393D01*
X119575936Y-79511118D01*
X119514892Y-79752175D01*
X119514890Y-79752187D01*
X119494357Y-79999994D01*
X119494357Y-80000005D01*
X119514890Y-80247812D01*
X119514892Y-80247824D01*
X119575936Y-80488881D01*
X119675826Y-80716606D01*
X119811833Y-80924782D01*
X119811836Y-80924785D01*
X119980256Y-81107738D01*
X120063008Y-81172147D01*
X120103821Y-81228857D01*
X120107496Y-81298630D01*
X120072864Y-81359313D01*
X120063014Y-81367848D01*
X119980256Y-81432262D01*
X119920196Y-81497505D01*
X119811836Y-81615215D01*
X119734673Y-81733322D01*
X119681526Y-81778678D01*
X119630864Y-81789500D01*
X119522229Y-81789500D01*
X119455190Y-81769815D01*
X119434548Y-81753181D01*
X117946716Y-80265348D01*
X117913231Y-80204025D01*
X117910869Y-80166863D01*
X117925468Y-80000000D01*
X117925467Y-79999994D01*
X117919801Y-79935230D01*
X117905635Y-79773308D01*
X117846739Y-79553504D01*
X117750568Y-79347266D01*
X117620047Y-79160861D01*
X117620045Y-79160858D01*
X117459141Y-78999954D01*
X117272734Y-78869432D01*
X117272732Y-78869431D01*
X117066497Y-78773261D01*
X117066488Y-78773258D01*
X116846697Y-78714366D01*
X116846693Y-78714365D01*
X116846692Y-78714365D01*
X116846691Y-78714364D01*
X116846686Y-78714364D01*
X116620002Y-78694532D01*
X116619998Y-78694532D01*
X116393313Y-78714364D01*
X116393302Y-78714366D01*
X116173511Y-78773258D01*
X116173502Y-78773261D01*
X115967267Y-78869431D01*
X115967265Y-78869432D01*
X115780858Y-78999954D01*
X115619954Y-79160858D01*
X115594912Y-79196623D01*
X115540335Y-79240248D01*
X115493337Y-79249500D01*
X114926080Y-79249500D01*
X114781092Y-79278340D01*
X114781082Y-79278343D01*
X114644509Y-79334913D01*
X114644507Y-79334914D01*
X114603645Y-79362218D01*
X114603643Y-79362219D01*
X114521589Y-79417043D01*
X114521584Y-79417047D01*
X109485451Y-84453181D01*
X109424128Y-84486666D01*
X109397770Y-84489500D01*
X106587701Y-84489500D01*
X106520662Y-84469815D01*
X106486126Y-84436623D01*
X106438496Y-84368600D01*
X106412516Y-84342620D01*
X106316567Y-84246671D01*
X106283084Y-84185351D01*
X106288068Y-84115659D01*
X106329939Y-84059725D01*
X106360915Y-84042810D01*
X106492331Y-83993796D01*
X106607546Y-83907546D01*
X106693796Y-83792331D01*
X106744091Y-83657483D01*
X106750500Y-83597873D01*
X106750499Y-83548287D01*
X106770182Y-83481250D01*
X106805614Y-83445181D01*
X106813469Y-83439933D01*
X106816625Y-83437825D01*
X106874036Y-83399464D01*
X106874039Y-83399461D01*
X107313172Y-82960328D01*
X108933054Y-81340444D01*
X108994375Y-81306961D01*
X109009916Y-81304600D01*
X109226692Y-81285635D01*
X109446496Y-81226739D01*
X109652734Y-81130568D01*
X109839139Y-81000047D01*
X110000047Y-80839139D01*
X110130568Y-80652734D01*
X110226739Y-80446496D01*
X110285635Y-80226692D01*
X110305468Y-80000000D01*
X110305467Y-79999994D01*
X110299801Y-79935230D01*
X110285635Y-79773308D01*
X110226739Y-79553504D01*
X110130568Y-79347266D01*
X110000047Y-79160861D01*
X110000045Y-79160858D01*
X109839141Y-78999954D01*
X109652734Y-78869432D01*
X109652732Y-78869431D01*
X109446497Y-78773261D01*
X109446488Y-78773258D01*
X109226697Y-78714366D01*
X109226693Y-78714365D01*
X109226692Y-78714365D01*
X109226691Y-78714364D01*
X109226686Y-78714364D01*
X109000002Y-78694532D01*
X108999998Y-78694532D01*
X108773313Y-78714364D01*
X108773302Y-78714366D01*
X108553511Y-78773258D01*
X108553502Y-78773261D01*
X108347267Y-78869431D01*
X108347265Y-78869432D01*
X108160858Y-78999954D01*
X107999954Y-79160858D01*
X107869432Y-79347265D01*
X107869431Y-79347267D01*
X107773261Y-79553502D01*
X107773258Y-79553511D01*
X107714366Y-79773302D01*
X107714364Y-79773312D01*
X107695400Y-79990072D01*
X107669947Y-80055140D01*
X107659553Y-80066945D01*
X106411267Y-81315231D01*
X106349944Y-81348716D01*
X106310335Y-81350839D01*
X106297873Y-81349500D01*
X106297867Y-81349500D01*
X104502129Y-81349500D01*
X104502123Y-81349501D01*
X104442516Y-81355908D01*
X104307671Y-81406202D01*
X104307664Y-81406206D01*
X104192455Y-81492452D01*
X104192452Y-81492455D01*
X104106206Y-81607664D01*
X104106202Y-81607671D01*
X104055908Y-81742517D01*
X104049501Y-81802116D01*
X104049500Y-81802135D01*
X104049500Y-83597870D01*
X104049501Y-83597876D01*
X104055908Y-83657483D01*
X104106202Y-83792328D01*
X104106206Y-83792335D01*
X104192452Y-83907544D01*
X104192455Y-83907547D01*
X104307664Y-83993793D01*
X104307671Y-83993797D01*
X104439081Y-84042810D01*
X104495015Y-84084681D01*
X104519432Y-84150145D01*
X104504580Y-84218418D01*
X104483430Y-84246673D01*
X104361503Y-84368600D01*
X104225965Y-84562169D01*
X104225964Y-84562171D01*
X104126098Y-84776335D01*
X104126094Y-84776344D01*
X104064938Y-85004586D01*
X104064936Y-85004596D01*
X104044341Y-85239999D01*
X95500500Y-85239999D01*
X95500500Y-67878711D01*
X98149500Y-67878711D01*
X98149500Y-68121288D01*
X98181161Y-68361785D01*
X98243947Y-68596104D01*
X98336773Y-68820205D01*
X98336777Y-68820214D01*
X98356908Y-68855082D01*
X98458064Y-69030289D01*
X98458066Y-69030292D01*
X98458067Y-69030293D01*
X98605733Y-69222736D01*
X98605739Y-69222743D01*
X98777256Y-69394260D01*
X98777262Y-69394265D01*
X98969711Y-69541936D01*
X99179788Y-69663224D01*
X99403900Y-69756054D01*
X99638211Y-69818838D01*
X99818586Y-69842584D01*
X99878711Y-69850500D01*
X99878712Y-69850500D01*
X100121289Y-69850500D01*
X100169388Y-69844167D01*
X100361789Y-69818838D01*
X100596100Y-69756054D01*
X100820212Y-69663224D01*
X101030289Y-69541936D01*
X101222738Y-69394265D01*
X101394265Y-69222738D01*
X101541936Y-69030289D01*
X101663224Y-68820212D01*
X101756054Y-68596100D01*
X101818838Y-68361789D01*
X101850500Y-68121288D01*
X101850500Y-67878712D01*
X101845290Y-67839141D01*
X101832685Y-67743393D01*
X101818838Y-67638211D01*
X101756054Y-67403900D01*
X101663224Y-67179788D01*
X101541936Y-66969711D01*
X101394265Y-66777262D01*
X101394260Y-66777256D01*
X101222743Y-66605739D01*
X101222736Y-66605733D01*
X101030293Y-66458067D01*
X101030292Y-66458066D01*
X101030289Y-66458064D01*
X100838381Y-66347266D01*
X100820214Y-66336777D01*
X100820205Y-66336773D01*
X100596104Y-66243947D01*
X100361785Y-66181161D01*
X100121289Y-66149500D01*
X100121288Y-66149500D01*
X99878712Y-66149500D01*
X99878711Y-66149500D01*
X99638214Y-66181161D01*
X99403895Y-66243947D01*
X99179794Y-66336773D01*
X99179785Y-66336777D01*
X98969706Y-66458067D01*
X98777263Y-66605733D01*
X98777256Y-66605739D01*
X98605739Y-66777256D01*
X98605733Y-66777263D01*
X98458067Y-66969706D01*
X98458064Y-66969710D01*
X98458064Y-66969711D01*
X98441817Y-66997851D01*
X98336777Y-67179785D01*
X98336773Y-67179794D01*
X98243947Y-67403895D01*
X98181161Y-67638214D01*
X98149500Y-67878711D01*
X95500500Y-67878711D01*
X95500500Y-62624500D01*
X95520185Y-62557461D01*
X95572989Y-62511706D01*
X95624500Y-62500500D01*
X144138771Y-62500500D01*
X144205810Y-62520185D01*
G37*
%TD.AperFunction*%
%TD*%
D22*
X113000000Y-67000000D03*
X105380000Y-67000000D03*
X113810000Y-97000000D03*
X106190000Y-97000000D03*
X109000000Y-80000000D03*
X116620000Y-80000000D03*
X117000000Y-109000000D03*
X109380000Y-109000000D03*
X119000000Y-71000000D03*
X119000000Y-68460000D03*
X119000000Y-65920000D03*
X105000000Y-74460000D03*
X105000000Y-77000000D03*
X175600000Y-119000000D03*
X175600000Y-116460000D03*
X105400000Y-82700000D03*
X105400000Y-85240000D03*
X170300000Y-72400000D03*
X167760000Y-72400000D03*
X139685000Y-91000000D03*
X147305000Y-91000000D03*
X105400000Y-112700000D03*
X105400000Y-115240000D03*
X146000000Y-68060000D03*
X143460000Y-68060000D03*
X140920000Y-68060000D03*
X138380000Y-68060000D03*
X138380000Y-76000000D03*
X140920000Y-76000000D03*
X143460000Y-76000000D03*
X146000000Y-76000000D03*
X180000000Y-68000000D03*
X175600000Y-110025000D03*
X175600000Y-107485000D03*
X175600000Y-104945000D03*
X175600000Y-85300000D03*
X175600000Y-82760000D03*
X100000000Y-98000000D03*
X122000000Y-116080000D03*
X122000000Y-113540000D03*
X122000000Y-111000000D03*
X121000000Y-85080000D03*
X121000000Y-82540000D03*
X121000000Y-80000000D03*
X127000000Y-115000000D03*
X167640000Y-115000000D03*
X139685000Y-65000000D03*
X147305000Y-65000000D03*
X100000000Y-68000000D03*
X160525000Y-72400000D03*
X157985000Y-72400000D03*
X155445000Y-72400000D03*
X119000000Y-103080000D03*
X119000000Y-100540000D03*
X119000000Y-98000000D03*
X129000000Y-82000000D03*
X169640000Y-82000000D03*
X147000000Y-97000000D03*
X144460000Y-97000000D03*
X141920000Y-97000000D03*
X139380000Y-97000000D03*
X139380000Y-104940000D03*
X141920000Y-104940000D03*
X144460000Y-104940000D03*
X147000000Y-104940000D03*
X105400000Y-103700000D03*
X105400000Y-106240000D03*
X180000000Y-98000000D03*
M02*
