%TF.GenerationSoftware,KiCad,Pcbnew,7.0.9-7.0.9~ubuntu22.04.1*%
%TF.CreationDate,2023-12-20T21:39:59+00:00*%
%TF.ProjectId,green_uv_led_pcb,67726565-6e5f-4757-965f-6c65645f7063,rev?*%
%TF.SameCoordinates,Original*%
%TF.FileFunction,Other,ECO1*%
%FSLAX46Y46*%
G04 Gerber Fmt 4.6, Leading zero omitted, Abs format (unit mm)*
G04 Created by KiCad (PCBNEW 7.0.9-7.0.9~ubuntu22.04.1) date 2023-12-20 21:39:59*
%MOMM*%
%LPD*%
G01*
G04 APERTURE LIST*
%ADD10C,0.300000*%
%ADD11C,0.200000*%
%ADD12C,0.150000*%
G04 APERTURE END LIST*
D10*
X148000001Y-74378328D02*
X148928573Y-74378328D01*
X148928573Y-74378328D02*
X148428573Y-74949757D01*
X148428573Y-74949757D02*
X148642858Y-74949757D01*
X148642858Y-74949757D02*
X148785716Y-75021185D01*
X148785716Y-75021185D02*
X148857144Y-75092614D01*
X148857144Y-75092614D02*
X148928573Y-75235471D01*
X148928573Y-75235471D02*
X148928573Y-75592614D01*
X148928573Y-75592614D02*
X148857144Y-75735471D01*
X148857144Y-75735471D02*
X148785716Y-75806900D01*
X148785716Y-75806900D02*
X148642858Y-75878328D01*
X148642858Y-75878328D02*
X148214287Y-75878328D01*
X148214287Y-75878328D02*
X148071430Y-75806900D01*
X148071430Y-75806900D02*
X148000001Y-75735471D01*
X149857144Y-74378328D02*
X150000001Y-74378328D01*
X150000001Y-74378328D02*
X150142858Y-74449757D01*
X150142858Y-74449757D02*
X150214287Y-74521185D01*
X150214287Y-74521185D02*
X150285715Y-74664042D01*
X150285715Y-74664042D02*
X150357144Y-74949757D01*
X150357144Y-74949757D02*
X150357144Y-75306900D01*
X150357144Y-75306900D02*
X150285715Y-75592614D01*
X150285715Y-75592614D02*
X150214287Y-75735471D01*
X150214287Y-75735471D02*
X150142858Y-75806900D01*
X150142858Y-75806900D02*
X150000001Y-75878328D01*
X150000001Y-75878328D02*
X149857144Y-75878328D01*
X149857144Y-75878328D02*
X149714287Y-75806900D01*
X149714287Y-75806900D02*
X149642858Y-75735471D01*
X149642858Y-75735471D02*
X149571429Y-75592614D01*
X149571429Y-75592614D02*
X149500001Y-75306900D01*
X149500001Y-75306900D02*
X149500001Y-74949757D01*
X149500001Y-74949757D02*
X149571429Y-74664042D01*
X149571429Y-74664042D02*
X149642858Y-74521185D01*
X149642858Y-74521185D02*
X149714287Y-74449757D01*
X149714287Y-74449757D02*
X149857144Y-74378328D01*
X151000000Y-75735471D02*
X151071429Y-75806900D01*
X151071429Y-75806900D02*
X151000000Y-75878328D01*
X151000000Y-75878328D02*
X150928572Y-75806900D01*
X150928572Y-75806900D02*
X151000000Y-75735471D01*
X151000000Y-75735471D02*
X151000000Y-75878328D01*
X152000001Y-74378328D02*
X152142858Y-74378328D01*
X152142858Y-74378328D02*
X152285715Y-74449757D01*
X152285715Y-74449757D02*
X152357144Y-74521185D01*
X152357144Y-74521185D02*
X152428572Y-74664042D01*
X152428572Y-74664042D02*
X152500001Y-74949757D01*
X152500001Y-74949757D02*
X152500001Y-75306900D01*
X152500001Y-75306900D02*
X152428572Y-75592614D01*
X152428572Y-75592614D02*
X152357144Y-75735471D01*
X152357144Y-75735471D02*
X152285715Y-75806900D01*
X152285715Y-75806900D02*
X152142858Y-75878328D01*
X152142858Y-75878328D02*
X152000001Y-75878328D01*
X152000001Y-75878328D02*
X151857144Y-75806900D01*
X151857144Y-75806900D02*
X151785715Y-75735471D01*
X151785715Y-75735471D02*
X151714286Y-75592614D01*
X151714286Y-75592614D02*
X151642858Y-75306900D01*
X151642858Y-75306900D02*
X151642858Y-74949757D01*
X151642858Y-74949757D02*
X151714286Y-74664042D01*
X151714286Y-74664042D02*
X151785715Y-74521185D01*
X151785715Y-74521185D02*
X151857144Y-74449757D01*
X151857144Y-74449757D02*
X152000001Y-74378328D01*
X153428572Y-74378328D02*
X153571429Y-74378328D01*
X153571429Y-74378328D02*
X153714286Y-74449757D01*
X153714286Y-74449757D02*
X153785715Y-74521185D01*
X153785715Y-74521185D02*
X153857143Y-74664042D01*
X153857143Y-74664042D02*
X153928572Y-74949757D01*
X153928572Y-74949757D02*
X153928572Y-75306900D01*
X153928572Y-75306900D02*
X153857143Y-75592614D01*
X153857143Y-75592614D02*
X153785715Y-75735471D01*
X153785715Y-75735471D02*
X153714286Y-75806900D01*
X153714286Y-75806900D02*
X153571429Y-75878328D01*
X153571429Y-75878328D02*
X153428572Y-75878328D01*
X153428572Y-75878328D02*
X153285715Y-75806900D01*
X153285715Y-75806900D02*
X153214286Y-75735471D01*
X153214286Y-75735471D02*
X153142857Y-75592614D01*
X153142857Y-75592614D02*
X153071429Y-75306900D01*
X153071429Y-75306900D02*
X153071429Y-74949757D01*
X153071429Y-74949757D02*
X153142857Y-74664042D01*
X153142857Y-74664042D02*
X153214286Y-74521185D01*
X153214286Y-74521185D02*
X153285715Y-74449757D01*
X153285715Y-74449757D02*
X153428572Y-74378328D01*
X154857143Y-74378328D02*
X155000000Y-74378328D01*
X155000000Y-74378328D02*
X155142857Y-74449757D01*
X155142857Y-74449757D02*
X155214286Y-74521185D01*
X155214286Y-74521185D02*
X155285714Y-74664042D01*
X155285714Y-74664042D02*
X155357143Y-74949757D01*
X155357143Y-74949757D02*
X155357143Y-75306900D01*
X155357143Y-75306900D02*
X155285714Y-75592614D01*
X155285714Y-75592614D02*
X155214286Y-75735471D01*
X155214286Y-75735471D02*
X155142857Y-75806900D01*
X155142857Y-75806900D02*
X155000000Y-75878328D01*
X155000000Y-75878328D02*
X154857143Y-75878328D01*
X154857143Y-75878328D02*
X154714286Y-75806900D01*
X154714286Y-75806900D02*
X154642857Y-75735471D01*
X154642857Y-75735471D02*
X154571428Y-75592614D01*
X154571428Y-75592614D02*
X154500000Y-75306900D01*
X154500000Y-75306900D02*
X154500000Y-74949757D01*
X154500000Y-74949757D02*
X154571428Y-74664042D01*
X154571428Y-74664042D02*
X154642857Y-74521185D01*
X154642857Y-74521185D02*
X154714286Y-74449757D01*
X154714286Y-74449757D02*
X154857143Y-74378328D01*
X156285714Y-74378328D02*
X156428571Y-74378328D01*
X156428571Y-74378328D02*
X156571428Y-74449757D01*
X156571428Y-74449757D02*
X156642857Y-74521185D01*
X156642857Y-74521185D02*
X156714285Y-74664042D01*
X156714285Y-74664042D02*
X156785714Y-74949757D01*
X156785714Y-74949757D02*
X156785714Y-75306900D01*
X156785714Y-75306900D02*
X156714285Y-75592614D01*
X156714285Y-75592614D02*
X156642857Y-75735471D01*
X156642857Y-75735471D02*
X156571428Y-75806900D01*
X156571428Y-75806900D02*
X156428571Y-75878328D01*
X156428571Y-75878328D02*
X156285714Y-75878328D01*
X156285714Y-75878328D02*
X156142857Y-75806900D01*
X156142857Y-75806900D02*
X156071428Y-75735471D01*
X156071428Y-75735471D02*
X155999999Y-75592614D01*
X155999999Y-75592614D02*
X155928571Y-75306900D01*
X155928571Y-75306900D02*
X155928571Y-74949757D01*
X155928571Y-74949757D02*
X155999999Y-74664042D01*
X155999999Y-74664042D02*
X156071428Y-74521185D01*
X156071428Y-74521185D02*
X156142857Y-74449757D01*
X156142857Y-74449757D02*
X156285714Y-74378328D01*
X158571427Y-75878328D02*
X158571427Y-74878328D01*
X158571427Y-75021185D02*
X158642856Y-74949757D01*
X158642856Y-74949757D02*
X158785713Y-74878328D01*
X158785713Y-74878328D02*
X158999999Y-74878328D01*
X158999999Y-74878328D02*
X159142856Y-74949757D01*
X159142856Y-74949757D02*
X159214285Y-75092614D01*
X159214285Y-75092614D02*
X159214285Y-75878328D01*
X159214285Y-75092614D02*
X159285713Y-74949757D01*
X159285713Y-74949757D02*
X159428570Y-74878328D01*
X159428570Y-74878328D02*
X159642856Y-74878328D01*
X159642856Y-74878328D02*
X159785713Y-74949757D01*
X159785713Y-74949757D02*
X159857142Y-75092614D01*
X159857142Y-75092614D02*
X159857142Y-75878328D01*
X160571427Y-75878328D02*
X160571427Y-74878328D01*
X160571427Y-75021185D02*
X160642856Y-74949757D01*
X160642856Y-74949757D02*
X160785713Y-74878328D01*
X160785713Y-74878328D02*
X160999999Y-74878328D01*
X160999999Y-74878328D02*
X161142856Y-74949757D01*
X161142856Y-74949757D02*
X161214285Y-75092614D01*
X161214285Y-75092614D02*
X161214285Y-75878328D01*
X161214285Y-75092614D02*
X161285713Y-74949757D01*
X161285713Y-74949757D02*
X161428570Y-74878328D01*
X161428570Y-74878328D02*
X161642856Y-74878328D01*
X161642856Y-74878328D02*
X161785713Y-74949757D01*
X161785713Y-74949757D02*
X161857142Y-75092614D01*
X161857142Y-75092614D02*
X161857142Y-75878328D01*
D11*
X140000000Y-81500000D02*
X140000000Y-76413580D01*
X170000000Y-81500000D02*
X170000000Y-76413580D01*
X140000000Y-77000000D02*
X170000000Y-77000000D01*
X140000000Y-77000000D02*
X170000000Y-77000000D01*
X140000000Y-77000000D02*
X141126504Y-76413579D01*
X140000000Y-77000000D02*
X141126504Y-77586421D01*
X170000000Y-77000000D02*
X168873496Y-77586421D01*
X170000000Y-77000000D02*
X168873496Y-76413579D01*
D10*
X148000001Y-104378328D02*
X148928573Y-104378328D01*
X148928573Y-104378328D02*
X148428573Y-104949757D01*
X148428573Y-104949757D02*
X148642858Y-104949757D01*
X148642858Y-104949757D02*
X148785716Y-105021185D01*
X148785716Y-105021185D02*
X148857144Y-105092614D01*
X148857144Y-105092614D02*
X148928573Y-105235471D01*
X148928573Y-105235471D02*
X148928573Y-105592614D01*
X148928573Y-105592614D02*
X148857144Y-105735471D01*
X148857144Y-105735471D02*
X148785716Y-105806900D01*
X148785716Y-105806900D02*
X148642858Y-105878328D01*
X148642858Y-105878328D02*
X148214287Y-105878328D01*
X148214287Y-105878328D02*
X148071430Y-105806900D01*
X148071430Y-105806900D02*
X148000001Y-105735471D01*
X149857144Y-104378328D02*
X150000001Y-104378328D01*
X150000001Y-104378328D02*
X150142858Y-104449757D01*
X150142858Y-104449757D02*
X150214287Y-104521185D01*
X150214287Y-104521185D02*
X150285715Y-104664042D01*
X150285715Y-104664042D02*
X150357144Y-104949757D01*
X150357144Y-104949757D02*
X150357144Y-105306900D01*
X150357144Y-105306900D02*
X150285715Y-105592614D01*
X150285715Y-105592614D02*
X150214287Y-105735471D01*
X150214287Y-105735471D02*
X150142858Y-105806900D01*
X150142858Y-105806900D02*
X150000001Y-105878328D01*
X150000001Y-105878328D02*
X149857144Y-105878328D01*
X149857144Y-105878328D02*
X149714287Y-105806900D01*
X149714287Y-105806900D02*
X149642858Y-105735471D01*
X149642858Y-105735471D02*
X149571429Y-105592614D01*
X149571429Y-105592614D02*
X149500001Y-105306900D01*
X149500001Y-105306900D02*
X149500001Y-104949757D01*
X149500001Y-104949757D02*
X149571429Y-104664042D01*
X149571429Y-104664042D02*
X149642858Y-104521185D01*
X149642858Y-104521185D02*
X149714287Y-104449757D01*
X149714287Y-104449757D02*
X149857144Y-104378328D01*
X151000000Y-105735471D02*
X151071429Y-105806900D01*
X151071429Y-105806900D02*
X151000000Y-105878328D01*
X151000000Y-105878328D02*
X150928572Y-105806900D01*
X150928572Y-105806900D02*
X151000000Y-105735471D01*
X151000000Y-105735471D02*
X151000000Y-105878328D01*
X152000001Y-104378328D02*
X152142858Y-104378328D01*
X152142858Y-104378328D02*
X152285715Y-104449757D01*
X152285715Y-104449757D02*
X152357144Y-104521185D01*
X152357144Y-104521185D02*
X152428572Y-104664042D01*
X152428572Y-104664042D02*
X152500001Y-104949757D01*
X152500001Y-104949757D02*
X152500001Y-105306900D01*
X152500001Y-105306900D02*
X152428572Y-105592614D01*
X152428572Y-105592614D02*
X152357144Y-105735471D01*
X152357144Y-105735471D02*
X152285715Y-105806900D01*
X152285715Y-105806900D02*
X152142858Y-105878328D01*
X152142858Y-105878328D02*
X152000001Y-105878328D01*
X152000001Y-105878328D02*
X151857144Y-105806900D01*
X151857144Y-105806900D02*
X151785715Y-105735471D01*
X151785715Y-105735471D02*
X151714286Y-105592614D01*
X151714286Y-105592614D02*
X151642858Y-105306900D01*
X151642858Y-105306900D02*
X151642858Y-104949757D01*
X151642858Y-104949757D02*
X151714286Y-104664042D01*
X151714286Y-104664042D02*
X151785715Y-104521185D01*
X151785715Y-104521185D02*
X151857144Y-104449757D01*
X151857144Y-104449757D02*
X152000001Y-104378328D01*
X153428572Y-104378328D02*
X153571429Y-104378328D01*
X153571429Y-104378328D02*
X153714286Y-104449757D01*
X153714286Y-104449757D02*
X153785715Y-104521185D01*
X153785715Y-104521185D02*
X153857143Y-104664042D01*
X153857143Y-104664042D02*
X153928572Y-104949757D01*
X153928572Y-104949757D02*
X153928572Y-105306900D01*
X153928572Y-105306900D02*
X153857143Y-105592614D01*
X153857143Y-105592614D02*
X153785715Y-105735471D01*
X153785715Y-105735471D02*
X153714286Y-105806900D01*
X153714286Y-105806900D02*
X153571429Y-105878328D01*
X153571429Y-105878328D02*
X153428572Y-105878328D01*
X153428572Y-105878328D02*
X153285715Y-105806900D01*
X153285715Y-105806900D02*
X153214286Y-105735471D01*
X153214286Y-105735471D02*
X153142857Y-105592614D01*
X153142857Y-105592614D02*
X153071429Y-105306900D01*
X153071429Y-105306900D02*
X153071429Y-104949757D01*
X153071429Y-104949757D02*
X153142857Y-104664042D01*
X153142857Y-104664042D02*
X153214286Y-104521185D01*
X153214286Y-104521185D02*
X153285715Y-104449757D01*
X153285715Y-104449757D02*
X153428572Y-104378328D01*
X154857143Y-104378328D02*
X155000000Y-104378328D01*
X155000000Y-104378328D02*
X155142857Y-104449757D01*
X155142857Y-104449757D02*
X155214286Y-104521185D01*
X155214286Y-104521185D02*
X155285714Y-104664042D01*
X155285714Y-104664042D02*
X155357143Y-104949757D01*
X155357143Y-104949757D02*
X155357143Y-105306900D01*
X155357143Y-105306900D02*
X155285714Y-105592614D01*
X155285714Y-105592614D02*
X155214286Y-105735471D01*
X155214286Y-105735471D02*
X155142857Y-105806900D01*
X155142857Y-105806900D02*
X155000000Y-105878328D01*
X155000000Y-105878328D02*
X154857143Y-105878328D01*
X154857143Y-105878328D02*
X154714286Y-105806900D01*
X154714286Y-105806900D02*
X154642857Y-105735471D01*
X154642857Y-105735471D02*
X154571428Y-105592614D01*
X154571428Y-105592614D02*
X154500000Y-105306900D01*
X154500000Y-105306900D02*
X154500000Y-104949757D01*
X154500000Y-104949757D02*
X154571428Y-104664042D01*
X154571428Y-104664042D02*
X154642857Y-104521185D01*
X154642857Y-104521185D02*
X154714286Y-104449757D01*
X154714286Y-104449757D02*
X154857143Y-104378328D01*
X156285714Y-104378328D02*
X156428571Y-104378328D01*
X156428571Y-104378328D02*
X156571428Y-104449757D01*
X156571428Y-104449757D02*
X156642857Y-104521185D01*
X156642857Y-104521185D02*
X156714285Y-104664042D01*
X156714285Y-104664042D02*
X156785714Y-104949757D01*
X156785714Y-104949757D02*
X156785714Y-105306900D01*
X156785714Y-105306900D02*
X156714285Y-105592614D01*
X156714285Y-105592614D02*
X156642857Y-105735471D01*
X156642857Y-105735471D02*
X156571428Y-105806900D01*
X156571428Y-105806900D02*
X156428571Y-105878328D01*
X156428571Y-105878328D02*
X156285714Y-105878328D01*
X156285714Y-105878328D02*
X156142857Y-105806900D01*
X156142857Y-105806900D02*
X156071428Y-105735471D01*
X156071428Y-105735471D02*
X155999999Y-105592614D01*
X155999999Y-105592614D02*
X155928571Y-105306900D01*
X155928571Y-105306900D02*
X155928571Y-104949757D01*
X155928571Y-104949757D02*
X155999999Y-104664042D01*
X155999999Y-104664042D02*
X156071428Y-104521185D01*
X156071428Y-104521185D02*
X156142857Y-104449757D01*
X156142857Y-104449757D02*
X156285714Y-104378328D01*
X158571427Y-105878328D02*
X158571427Y-104878328D01*
X158571427Y-105021185D02*
X158642856Y-104949757D01*
X158642856Y-104949757D02*
X158785713Y-104878328D01*
X158785713Y-104878328D02*
X158999999Y-104878328D01*
X158999999Y-104878328D02*
X159142856Y-104949757D01*
X159142856Y-104949757D02*
X159214285Y-105092614D01*
X159214285Y-105092614D02*
X159214285Y-105878328D01*
X159214285Y-105092614D02*
X159285713Y-104949757D01*
X159285713Y-104949757D02*
X159428570Y-104878328D01*
X159428570Y-104878328D02*
X159642856Y-104878328D01*
X159642856Y-104878328D02*
X159785713Y-104949757D01*
X159785713Y-104949757D02*
X159857142Y-105092614D01*
X159857142Y-105092614D02*
X159857142Y-105878328D01*
X160571427Y-105878328D02*
X160571427Y-104878328D01*
X160571427Y-105021185D02*
X160642856Y-104949757D01*
X160642856Y-104949757D02*
X160785713Y-104878328D01*
X160785713Y-104878328D02*
X160999999Y-104878328D01*
X160999999Y-104878328D02*
X161142856Y-104949757D01*
X161142856Y-104949757D02*
X161214285Y-105092614D01*
X161214285Y-105092614D02*
X161214285Y-105878328D01*
X161214285Y-105092614D02*
X161285713Y-104949757D01*
X161285713Y-104949757D02*
X161428570Y-104878328D01*
X161428570Y-104878328D02*
X161642856Y-104878328D01*
X161642856Y-104878328D02*
X161785713Y-104949757D01*
X161785713Y-104949757D02*
X161857142Y-105092614D01*
X161857142Y-105092614D02*
X161857142Y-105878328D01*
D11*
X140000000Y-111500000D02*
X140000000Y-106413580D01*
X170000000Y-111500000D02*
X170000000Y-106413580D01*
X140000000Y-107000000D02*
X170000000Y-107000000D01*
X140000000Y-107000000D02*
X170000000Y-107000000D01*
X140000000Y-107000000D02*
X141126504Y-106413579D01*
X140000000Y-107000000D02*
X141126504Y-107586421D01*
X170000000Y-107000000D02*
X168873496Y-107586421D01*
X170000000Y-107000000D02*
X168873496Y-106413579D01*
D12*
X98452381Y-132804819D02*
X97880953Y-132804819D01*
X98166667Y-132804819D02*
X98166667Y-131804819D01*
X98166667Y-131804819D02*
X98071429Y-131947676D01*
X98071429Y-131947676D02*
X97976191Y-132042914D01*
X97976191Y-132042914D02*
X97880953Y-132090533D01*
X99357143Y-131804819D02*
X98880953Y-131804819D01*
X98880953Y-131804819D02*
X98833334Y-132281009D01*
X98833334Y-132281009D02*
X98880953Y-132233390D01*
X98880953Y-132233390D02*
X98976191Y-132185771D01*
X98976191Y-132185771D02*
X99214286Y-132185771D01*
X99214286Y-132185771D02*
X99309524Y-132233390D01*
X99309524Y-132233390D02*
X99357143Y-132281009D01*
X99357143Y-132281009D02*
X99404762Y-132376247D01*
X99404762Y-132376247D02*
X99404762Y-132614342D01*
X99404762Y-132614342D02*
X99357143Y-132709580D01*
X99357143Y-132709580D02*
X99309524Y-132757200D01*
X99309524Y-132757200D02*
X99214286Y-132804819D01*
X99214286Y-132804819D02*
X98976191Y-132804819D01*
X98976191Y-132804819D02*
X98880953Y-132757200D01*
X98880953Y-132757200D02*
X98833334Y-132709580D01*
X99833334Y-132709580D02*
X99880953Y-132757200D01*
X99880953Y-132757200D02*
X99833334Y-132804819D01*
X99833334Y-132804819D02*
X99785715Y-132757200D01*
X99785715Y-132757200D02*
X99833334Y-132709580D01*
X99833334Y-132709580D02*
X99833334Y-132804819D01*
X100500000Y-131804819D02*
X100595238Y-131804819D01*
X100595238Y-131804819D02*
X100690476Y-131852438D01*
X100690476Y-131852438D02*
X100738095Y-131900057D01*
X100738095Y-131900057D02*
X100785714Y-131995295D01*
X100785714Y-131995295D02*
X100833333Y-132185771D01*
X100833333Y-132185771D02*
X100833333Y-132423866D01*
X100833333Y-132423866D02*
X100785714Y-132614342D01*
X100785714Y-132614342D02*
X100738095Y-132709580D01*
X100738095Y-132709580D02*
X100690476Y-132757200D01*
X100690476Y-132757200D02*
X100595238Y-132804819D01*
X100595238Y-132804819D02*
X100500000Y-132804819D01*
X100500000Y-132804819D02*
X100404762Y-132757200D01*
X100404762Y-132757200D02*
X100357143Y-132709580D01*
X100357143Y-132709580D02*
X100309524Y-132614342D01*
X100309524Y-132614342D02*
X100261905Y-132423866D01*
X100261905Y-132423866D02*
X100261905Y-132185771D01*
X100261905Y-132185771D02*
X100309524Y-131995295D01*
X100309524Y-131995295D02*
X100357143Y-131900057D01*
X100357143Y-131900057D02*
X100404762Y-131852438D01*
X100404762Y-131852438D02*
X100500000Y-131804819D01*
X101452381Y-131804819D02*
X101547619Y-131804819D01*
X101547619Y-131804819D02*
X101642857Y-131852438D01*
X101642857Y-131852438D02*
X101690476Y-131900057D01*
X101690476Y-131900057D02*
X101738095Y-131995295D01*
X101738095Y-131995295D02*
X101785714Y-132185771D01*
X101785714Y-132185771D02*
X101785714Y-132423866D01*
X101785714Y-132423866D02*
X101738095Y-132614342D01*
X101738095Y-132614342D02*
X101690476Y-132709580D01*
X101690476Y-132709580D02*
X101642857Y-132757200D01*
X101642857Y-132757200D02*
X101547619Y-132804819D01*
X101547619Y-132804819D02*
X101452381Y-132804819D01*
X101452381Y-132804819D02*
X101357143Y-132757200D01*
X101357143Y-132757200D02*
X101309524Y-132709580D01*
X101309524Y-132709580D02*
X101261905Y-132614342D01*
X101261905Y-132614342D02*
X101214286Y-132423866D01*
X101214286Y-132423866D02*
X101214286Y-132185771D01*
X101214286Y-132185771D02*
X101261905Y-131995295D01*
X101261905Y-131995295D02*
X101309524Y-131900057D01*
X101309524Y-131900057D02*
X101357143Y-131852438D01*
X101357143Y-131852438D02*
X101452381Y-131804819D01*
X102404762Y-131804819D02*
X102500000Y-131804819D01*
X102500000Y-131804819D02*
X102595238Y-131852438D01*
X102595238Y-131852438D02*
X102642857Y-131900057D01*
X102642857Y-131900057D02*
X102690476Y-131995295D01*
X102690476Y-131995295D02*
X102738095Y-132185771D01*
X102738095Y-132185771D02*
X102738095Y-132423866D01*
X102738095Y-132423866D02*
X102690476Y-132614342D01*
X102690476Y-132614342D02*
X102642857Y-132709580D01*
X102642857Y-132709580D02*
X102595238Y-132757200D01*
X102595238Y-132757200D02*
X102500000Y-132804819D01*
X102500000Y-132804819D02*
X102404762Y-132804819D01*
X102404762Y-132804819D02*
X102309524Y-132757200D01*
X102309524Y-132757200D02*
X102261905Y-132709580D01*
X102261905Y-132709580D02*
X102214286Y-132614342D01*
X102214286Y-132614342D02*
X102166667Y-132423866D01*
X102166667Y-132423866D02*
X102166667Y-132185771D01*
X102166667Y-132185771D02*
X102214286Y-131995295D01*
X102214286Y-131995295D02*
X102261905Y-131900057D01*
X102261905Y-131900057D02*
X102309524Y-131852438D01*
X102309524Y-131852438D02*
X102404762Y-131804819D01*
X103357143Y-131804819D02*
X103452381Y-131804819D01*
X103452381Y-131804819D02*
X103547619Y-131852438D01*
X103547619Y-131852438D02*
X103595238Y-131900057D01*
X103595238Y-131900057D02*
X103642857Y-131995295D01*
X103642857Y-131995295D02*
X103690476Y-132185771D01*
X103690476Y-132185771D02*
X103690476Y-132423866D01*
X103690476Y-132423866D02*
X103642857Y-132614342D01*
X103642857Y-132614342D02*
X103595238Y-132709580D01*
X103595238Y-132709580D02*
X103547619Y-132757200D01*
X103547619Y-132757200D02*
X103452381Y-132804819D01*
X103452381Y-132804819D02*
X103357143Y-132804819D01*
X103357143Y-132804819D02*
X103261905Y-132757200D01*
X103261905Y-132757200D02*
X103214286Y-132709580D01*
X103214286Y-132709580D02*
X103166667Y-132614342D01*
X103166667Y-132614342D02*
X103119048Y-132423866D01*
X103119048Y-132423866D02*
X103119048Y-132185771D01*
X103119048Y-132185771D02*
X103166667Y-131995295D01*
X103166667Y-131995295D02*
X103214286Y-131900057D01*
X103214286Y-131900057D02*
X103261905Y-131852438D01*
X103261905Y-131852438D02*
X103357143Y-131804819D01*
X104880953Y-132804819D02*
X104880953Y-132138152D01*
X104880953Y-132233390D02*
X104928572Y-132185771D01*
X104928572Y-132185771D02*
X105023810Y-132138152D01*
X105023810Y-132138152D02*
X105166667Y-132138152D01*
X105166667Y-132138152D02*
X105261905Y-132185771D01*
X105261905Y-132185771D02*
X105309524Y-132281009D01*
X105309524Y-132281009D02*
X105309524Y-132804819D01*
X105309524Y-132281009D02*
X105357143Y-132185771D01*
X105357143Y-132185771D02*
X105452381Y-132138152D01*
X105452381Y-132138152D02*
X105595238Y-132138152D01*
X105595238Y-132138152D02*
X105690477Y-132185771D01*
X105690477Y-132185771D02*
X105738096Y-132281009D01*
X105738096Y-132281009D02*
X105738096Y-132804819D01*
X106214286Y-132804819D02*
X106214286Y-132138152D01*
X106214286Y-132233390D02*
X106261905Y-132185771D01*
X106261905Y-132185771D02*
X106357143Y-132138152D01*
X106357143Y-132138152D02*
X106500000Y-132138152D01*
X106500000Y-132138152D02*
X106595238Y-132185771D01*
X106595238Y-132185771D02*
X106642857Y-132281009D01*
X106642857Y-132281009D02*
X106642857Y-132804819D01*
X106642857Y-132281009D02*
X106690476Y-132185771D01*
X106690476Y-132185771D02*
X106785714Y-132138152D01*
X106785714Y-132138152D02*
X106928571Y-132138152D01*
X106928571Y-132138152D02*
X107023810Y-132185771D01*
X107023810Y-132185771D02*
X107071429Y-132281009D01*
X107071429Y-132281009D02*
X107071429Y-132804819D01*
X110000000Y-107500000D02*
X110000000Y-134086420D01*
X95000000Y-107500000D02*
X95000000Y-134086420D01*
X110000000Y-133500000D02*
X95000000Y-133500000D01*
X110000000Y-133500000D02*
X95000000Y-133500000D01*
X110000000Y-133500000D02*
X108873496Y-134086421D01*
X110000000Y-133500000D02*
X108873496Y-132913579D01*
X95000000Y-133500000D02*
X96126504Y-132913579D01*
X95000000Y-133500000D02*
X96126504Y-134086421D01*
D10*
X78878328Y-75571426D02*
X78878328Y-76428569D01*
X78878328Y-75999998D02*
X77378328Y-75999998D01*
X77378328Y-75999998D02*
X77592614Y-76142855D01*
X77592614Y-76142855D02*
X77735471Y-76285712D01*
X77735471Y-76285712D02*
X77806900Y-76428569D01*
X77378328Y-74214284D02*
X77378328Y-74928570D01*
X77378328Y-74928570D02*
X78092614Y-74999998D01*
X78092614Y-74999998D02*
X78021185Y-74928570D01*
X78021185Y-74928570D02*
X77949757Y-74785713D01*
X77949757Y-74785713D02*
X77949757Y-74428570D01*
X77949757Y-74428570D02*
X78021185Y-74285713D01*
X78021185Y-74285713D02*
X78092614Y-74214284D01*
X78092614Y-74214284D02*
X78235471Y-74142855D01*
X78235471Y-74142855D02*
X78592614Y-74142855D01*
X78592614Y-74142855D02*
X78735471Y-74214284D01*
X78735471Y-74214284D02*
X78806900Y-74285713D01*
X78806900Y-74285713D02*
X78878328Y-74428570D01*
X78878328Y-74428570D02*
X78878328Y-74785713D01*
X78878328Y-74785713D02*
X78806900Y-74928570D01*
X78806900Y-74928570D02*
X78735471Y-74999998D01*
X78735471Y-73499999D02*
X78806900Y-73428570D01*
X78806900Y-73428570D02*
X78878328Y-73499999D01*
X78878328Y-73499999D02*
X78806900Y-73571427D01*
X78806900Y-73571427D02*
X78735471Y-73499999D01*
X78735471Y-73499999D02*
X78878328Y-73499999D01*
X77378328Y-72499998D02*
X77378328Y-72357141D01*
X77378328Y-72357141D02*
X77449757Y-72214284D01*
X77449757Y-72214284D02*
X77521185Y-72142856D01*
X77521185Y-72142856D02*
X77664042Y-72071427D01*
X77664042Y-72071427D02*
X77949757Y-71999998D01*
X77949757Y-71999998D02*
X78306900Y-71999998D01*
X78306900Y-71999998D02*
X78592614Y-72071427D01*
X78592614Y-72071427D02*
X78735471Y-72142856D01*
X78735471Y-72142856D02*
X78806900Y-72214284D01*
X78806900Y-72214284D02*
X78878328Y-72357141D01*
X78878328Y-72357141D02*
X78878328Y-72499998D01*
X78878328Y-72499998D02*
X78806900Y-72642856D01*
X78806900Y-72642856D02*
X78735471Y-72714284D01*
X78735471Y-72714284D02*
X78592614Y-72785713D01*
X78592614Y-72785713D02*
X78306900Y-72857141D01*
X78306900Y-72857141D02*
X77949757Y-72857141D01*
X77949757Y-72857141D02*
X77664042Y-72785713D01*
X77664042Y-72785713D02*
X77521185Y-72714284D01*
X77521185Y-72714284D02*
X77449757Y-72642856D01*
X77449757Y-72642856D02*
X77378328Y-72499998D01*
X77378328Y-71071427D02*
X77378328Y-70928570D01*
X77378328Y-70928570D02*
X77449757Y-70785713D01*
X77449757Y-70785713D02*
X77521185Y-70714285D01*
X77521185Y-70714285D02*
X77664042Y-70642856D01*
X77664042Y-70642856D02*
X77949757Y-70571427D01*
X77949757Y-70571427D02*
X78306900Y-70571427D01*
X78306900Y-70571427D02*
X78592614Y-70642856D01*
X78592614Y-70642856D02*
X78735471Y-70714285D01*
X78735471Y-70714285D02*
X78806900Y-70785713D01*
X78806900Y-70785713D02*
X78878328Y-70928570D01*
X78878328Y-70928570D02*
X78878328Y-71071427D01*
X78878328Y-71071427D02*
X78806900Y-71214285D01*
X78806900Y-71214285D02*
X78735471Y-71285713D01*
X78735471Y-71285713D02*
X78592614Y-71357142D01*
X78592614Y-71357142D02*
X78306900Y-71428570D01*
X78306900Y-71428570D02*
X77949757Y-71428570D01*
X77949757Y-71428570D02*
X77664042Y-71357142D01*
X77664042Y-71357142D02*
X77521185Y-71285713D01*
X77521185Y-71285713D02*
X77449757Y-71214285D01*
X77449757Y-71214285D02*
X77378328Y-71071427D01*
X77378328Y-69642856D02*
X77378328Y-69499999D01*
X77378328Y-69499999D02*
X77449757Y-69357142D01*
X77449757Y-69357142D02*
X77521185Y-69285714D01*
X77521185Y-69285714D02*
X77664042Y-69214285D01*
X77664042Y-69214285D02*
X77949757Y-69142856D01*
X77949757Y-69142856D02*
X78306900Y-69142856D01*
X78306900Y-69142856D02*
X78592614Y-69214285D01*
X78592614Y-69214285D02*
X78735471Y-69285714D01*
X78735471Y-69285714D02*
X78806900Y-69357142D01*
X78806900Y-69357142D02*
X78878328Y-69499999D01*
X78878328Y-69499999D02*
X78878328Y-69642856D01*
X78878328Y-69642856D02*
X78806900Y-69785714D01*
X78806900Y-69785714D02*
X78735471Y-69857142D01*
X78735471Y-69857142D02*
X78592614Y-69928571D01*
X78592614Y-69928571D02*
X78306900Y-69999999D01*
X78306900Y-69999999D02*
X77949757Y-69999999D01*
X77949757Y-69999999D02*
X77664042Y-69928571D01*
X77664042Y-69928571D02*
X77521185Y-69857142D01*
X77521185Y-69857142D02*
X77449757Y-69785714D01*
X77449757Y-69785714D02*
X77378328Y-69642856D01*
X77378328Y-68214285D02*
X77378328Y-68071428D01*
X77378328Y-68071428D02*
X77449757Y-67928571D01*
X77449757Y-67928571D02*
X77521185Y-67857143D01*
X77521185Y-67857143D02*
X77664042Y-67785714D01*
X77664042Y-67785714D02*
X77949757Y-67714285D01*
X77949757Y-67714285D02*
X78306900Y-67714285D01*
X78306900Y-67714285D02*
X78592614Y-67785714D01*
X78592614Y-67785714D02*
X78735471Y-67857143D01*
X78735471Y-67857143D02*
X78806900Y-67928571D01*
X78806900Y-67928571D02*
X78878328Y-68071428D01*
X78878328Y-68071428D02*
X78878328Y-68214285D01*
X78878328Y-68214285D02*
X78806900Y-68357143D01*
X78806900Y-68357143D02*
X78735471Y-68428571D01*
X78735471Y-68428571D02*
X78592614Y-68500000D01*
X78592614Y-68500000D02*
X78306900Y-68571428D01*
X78306900Y-68571428D02*
X77949757Y-68571428D01*
X77949757Y-68571428D02*
X77664042Y-68500000D01*
X77664042Y-68500000D02*
X77521185Y-68428571D01*
X77521185Y-68428571D02*
X77449757Y-68357143D01*
X77449757Y-68357143D02*
X77378328Y-68214285D01*
X78878328Y-65928572D02*
X77878328Y-65928572D01*
X78021185Y-65928572D02*
X77949757Y-65857143D01*
X77949757Y-65857143D02*
X77878328Y-65714286D01*
X77878328Y-65714286D02*
X77878328Y-65500000D01*
X77878328Y-65500000D02*
X77949757Y-65357143D01*
X77949757Y-65357143D02*
X78092614Y-65285715D01*
X78092614Y-65285715D02*
X78878328Y-65285715D01*
X78092614Y-65285715D02*
X77949757Y-65214286D01*
X77949757Y-65214286D02*
X77878328Y-65071429D01*
X77878328Y-65071429D02*
X77878328Y-64857143D01*
X77878328Y-64857143D02*
X77949757Y-64714286D01*
X77949757Y-64714286D02*
X78092614Y-64642857D01*
X78092614Y-64642857D02*
X78878328Y-64642857D01*
X78878328Y-63928572D02*
X77878328Y-63928572D01*
X78021185Y-63928572D02*
X77949757Y-63857143D01*
X77949757Y-63857143D02*
X77878328Y-63714286D01*
X77878328Y-63714286D02*
X77878328Y-63500000D01*
X77878328Y-63500000D02*
X77949757Y-63357143D01*
X77949757Y-63357143D02*
X78092614Y-63285715D01*
X78092614Y-63285715D02*
X78878328Y-63285715D01*
X78092614Y-63285715D02*
X77949757Y-63214286D01*
X77949757Y-63214286D02*
X77878328Y-63071429D01*
X77878328Y-63071429D02*
X77878328Y-62857143D01*
X77878328Y-62857143D02*
X77949757Y-62714286D01*
X77949757Y-62714286D02*
X78092614Y-62642857D01*
X78092614Y-62642857D02*
X78878328Y-62642857D01*
D11*
X84500000Y-77000000D02*
X79413580Y-77000000D01*
X84500000Y-62000000D02*
X79413580Y-62000000D01*
X80000000Y-77000000D02*
X80000000Y-62000000D01*
X80000000Y-77000000D02*
X80000000Y-62000000D01*
X80000000Y-77000000D02*
X79413579Y-75873496D01*
X80000000Y-77000000D02*
X80586421Y-75873496D01*
X80000000Y-62000000D02*
X80586421Y-63126504D01*
X80000000Y-62000000D02*
X79413579Y-63126504D01*
D10*
X171428573Y-105878328D02*
X170571430Y-105878328D01*
X171000001Y-105878328D02*
X171000001Y-104378328D01*
X171000001Y-104378328D02*
X170857144Y-104592614D01*
X170857144Y-104592614D02*
X170714287Y-104735471D01*
X170714287Y-104735471D02*
X170571430Y-104806900D01*
X172785715Y-104378328D02*
X172071429Y-104378328D01*
X172071429Y-104378328D02*
X172000001Y-105092614D01*
X172000001Y-105092614D02*
X172071429Y-105021185D01*
X172071429Y-105021185D02*
X172214287Y-104949757D01*
X172214287Y-104949757D02*
X172571429Y-104949757D01*
X172571429Y-104949757D02*
X172714287Y-105021185D01*
X172714287Y-105021185D02*
X172785715Y-105092614D01*
X172785715Y-105092614D02*
X172857144Y-105235471D01*
X172857144Y-105235471D02*
X172857144Y-105592614D01*
X172857144Y-105592614D02*
X172785715Y-105735471D01*
X172785715Y-105735471D02*
X172714287Y-105806900D01*
X172714287Y-105806900D02*
X172571429Y-105878328D01*
X172571429Y-105878328D02*
X172214287Y-105878328D01*
X172214287Y-105878328D02*
X172071429Y-105806900D01*
X172071429Y-105806900D02*
X172000001Y-105735471D01*
X173500000Y-105735471D02*
X173571429Y-105806900D01*
X173571429Y-105806900D02*
X173500000Y-105878328D01*
X173500000Y-105878328D02*
X173428572Y-105806900D01*
X173428572Y-105806900D02*
X173500000Y-105735471D01*
X173500000Y-105735471D02*
X173500000Y-105878328D01*
X174500001Y-104378328D02*
X174642858Y-104378328D01*
X174642858Y-104378328D02*
X174785715Y-104449757D01*
X174785715Y-104449757D02*
X174857144Y-104521185D01*
X174857144Y-104521185D02*
X174928572Y-104664042D01*
X174928572Y-104664042D02*
X175000001Y-104949757D01*
X175000001Y-104949757D02*
X175000001Y-105306900D01*
X175000001Y-105306900D02*
X174928572Y-105592614D01*
X174928572Y-105592614D02*
X174857144Y-105735471D01*
X174857144Y-105735471D02*
X174785715Y-105806900D01*
X174785715Y-105806900D02*
X174642858Y-105878328D01*
X174642858Y-105878328D02*
X174500001Y-105878328D01*
X174500001Y-105878328D02*
X174357144Y-105806900D01*
X174357144Y-105806900D02*
X174285715Y-105735471D01*
X174285715Y-105735471D02*
X174214286Y-105592614D01*
X174214286Y-105592614D02*
X174142858Y-105306900D01*
X174142858Y-105306900D02*
X174142858Y-104949757D01*
X174142858Y-104949757D02*
X174214286Y-104664042D01*
X174214286Y-104664042D02*
X174285715Y-104521185D01*
X174285715Y-104521185D02*
X174357144Y-104449757D01*
X174357144Y-104449757D02*
X174500001Y-104378328D01*
X175928572Y-104378328D02*
X176071429Y-104378328D01*
X176071429Y-104378328D02*
X176214286Y-104449757D01*
X176214286Y-104449757D02*
X176285715Y-104521185D01*
X176285715Y-104521185D02*
X176357143Y-104664042D01*
X176357143Y-104664042D02*
X176428572Y-104949757D01*
X176428572Y-104949757D02*
X176428572Y-105306900D01*
X176428572Y-105306900D02*
X176357143Y-105592614D01*
X176357143Y-105592614D02*
X176285715Y-105735471D01*
X176285715Y-105735471D02*
X176214286Y-105806900D01*
X176214286Y-105806900D02*
X176071429Y-105878328D01*
X176071429Y-105878328D02*
X175928572Y-105878328D01*
X175928572Y-105878328D02*
X175785715Y-105806900D01*
X175785715Y-105806900D02*
X175714286Y-105735471D01*
X175714286Y-105735471D02*
X175642857Y-105592614D01*
X175642857Y-105592614D02*
X175571429Y-105306900D01*
X175571429Y-105306900D02*
X175571429Y-104949757D01*
X175571429Y-104949757D02*
X175642857Y-104664042D01*
X175642857Y-104664042D02*
X175714286Y-104521185D01*
X175714286Y-104521185D02*
X175785715Y-104449757D01*
X175785715Y-104449757D02*
X175928572Y-104378328D01*
X177357143Y-104378328D02*
X177500000Y-104378328D01*
X177500000Y-104378328D02*
X177642857Y-104449757D01*
X177642857Y-104449757D02*
X177714286Y-104521185D01*
X177714286Y-104521185D02*
X177785714Y-104664042D01*
X177785714Y-104664042D02*
X177857143Y-104949757D01*
X177857143Y-104949757D02*
X177857143Y-105306900D01*
X177857143Y-105306900D02*
X177785714Y-105592614D01*
X177785714Y-105592614D02*
X177714286Y-105735471D01*
X177714286Y-105735471D02*
X177642857Y-105806900D01*
X177642857Y-105806900D02*
X177500000Y-105878328D01*
X177500000Y-105878328D02*
X177357143Y-105878328D01*
X177357143Y-105878328D02*
X177214286Y-105806900D01*
X177214286Y-105806900D02*
X177142857Y-105735471D01*
X177142857Y-105735471D02*
X177071428Y-105592614D01*
X177071428Y-105592614D02*
X177000000Y-105306900D01*
X177000000Y-105306900D02*
X177000000Y-104949757D01*
X177000000Y-104949757D02*
X177071428Y-104664042D01*
X177071428Y-104664042D02*
X177142857Y-104521185D01*
X177142857Y-104521185D02*
X177214286Y-104449757D01*
X177214286Y-104449757D02*
X177357143Y-104378328D01*
X178785714Y-104378328D02*
X178928571Y-104378328D01*
X178928571Y-104378328D02*
X179071428Y-104449757D01*
X179071428Y-104449757D02*
X179142857Y-104521185D01*
X179142857Y-104521185D02*
X179214285Y-104664042D01*
X179214285Y-104664042D02*
X179285714Y-104949757D01*
X179285714Y-104949757D02*
X179285714Y-105306900D01*
X179285714Y-105306900D02*
X179214285Y-105592614D01*
X179214285Y-105592614D02*
X179142857Y-105735471D01*
X179142857Y-105735471D02*
X179071428Y-105806900D01*
X179071428Y-105806900D02*
X178928571Y-105878328D01*
X178928571Y-105878328D02*
X178785714Y-105878328D01*
X178785714Y-105878328D02*
X178642857Y-105806900D01*
X178642857Y-105806900D02*
X178571428Y-105735471D01*
X178571428Y-105735471D02*
X178499999Y-105592614D01*
X178499999Y-105592614D02*
X178428571Y-105306900D01*
X178428571Y-105306900D02*
X178428571Y-104949757D01*
X178428571Y-104949757D02*
X178499999Y-104664042D01*
X178499999Y-104664042D02*
X178571428Y-104521185D01*
X178571428Y-104521185D02*
X178642857Y-104449757D01*
X178642857Y-104449757D02*
X178785714Y-104378328D01*
X181071427Y-105878328D02*
X181071427Y-104878328D01*
X181071427Y-105021185D02*
X181142856Y-104949757D01*
X181142856Y-104949757D02*
X181285713Y-104878328D01*
X181285713Y-104878328D02*
X181499999Y-104878328D01*
X181499999Y-104878328D02*
X181642856Y-104949757D01*
X181642856Y-104949757D02*
X181714285Y-105092614D01*
X181714285Y-105092614D02*
X181714285Y-105878328D01*
X181714285Y-105092614D02*
X181785713Y-104949757D01*
X181785713Y-104949757D02*
X181928570Y-104878328D01*
X181928570Y-104878328D02*
X182142856Y-104878328D01*
X182142856Y-104878328D02*
X182285713Y-104949757D01*
X182285713Y-104949757D02*
X182357142Y-105092614D01*
X182357142Y-105092614D02*
X182357142Y-105878328D01*
X183071427Y-105878328D02*
X183071427Y-104878328D01*
X183071427Y-105021185D02*
X183142856Y-104949757D01*
X183142856Y-104949757D02*
X183285713Y-104878328D01*
X183285713Y-104878328D02*
X183499999Y-104878328D01*
X183499999Y-104878328D02*
X183642856Y-104949757D01*
X183642856Y-104949757D02*
X183714285Y-105092614D01*
X183714285Y-105092614D02*
X183714285Y-105878328D01*
X183714285Y-105092614D02*
X183785713Y-104949757D01*
X183785713Y-104949757D02*
X183928570Y-104878328D01*
X183928570Y-104878328D02*
X184142856Y-104878328D01*
X184142856Y-104878328D02*
X184285713Y-104949757D01*
X184285713Y-104949757D02*
X184357142Y-105092614D01*
X184357142Y-105092614D02*
X184357142Y-105878328D01*
D11*
X170000000Y-104400000D02*
X170000000Y-107586420D01*
X185000000Y-104400000D02*
X185000000Y-107586420D01*
X170000000Y-107000000D02*
X185000000Y-107000000D01*
X170000000Y-107000000D02*
X185000000Y-107000000D01*
X170000000Y-107000000D02*
X171126504Y-106413579D01*
X170000000Y-107000000D02*
X171126504Y-107586421D01*
X185000000Y-107000000D02*
X183873496Y-107586421D01*
X185000000Y-107000000D02*
X183873496Y-106413579D01*
D10*
X88000001Y-104378328D02*
X88928573Y-104378328D01*
X88928573Y-104378328D02*
X88428573Y-104949757D01*
X88428573Y-104949757D02*
X88642858Y-104949757D01*
X88642858Y-104949757D02*
X88785716Y-105021185D01*
X88785716Y-105021185D02*
X88857144Y-105092614D01*
X88857144Y-105092614D02*
X88928573Y-105235471D01*
X88928573Y-105235471D02*
X88928573Y-105592614D01*
X88928573Y-105592614D02*
X88857144Y-105735471D01*
X88857144Y-105735471D02*
X88785716Y-105806900D01*
X88785716Y-105806900D02*
X88642858Y-105878328D01*
X88642858Y-105878328D02*
X88214287Y-105878328D01*
X88214287Y-105878328D02*
X88071430Y-105806900D01*
X88071430Y-105806900D02*
X88000001Y-105735471D01*
X89857144Y-104378328D02*
X90000001Y-104378328D01*
X90000001Y-104378328D02*
X90142858Y-104449757D01*
X90142858Y-104449757D02*
X90214287Y-104521185D01*
X90214287Y-104521185D02*
X90285715Y-104664042D01*
X90285715Y-104664042D02*
X90357144Y-104949757D01*
X90357144Y-104949757D02*
X90357144Y-105306900D01*
X90357144Y-105306900D02*
X90285715Y-105592614D01*
X90285715Y-105592614D02*
X90214287Y-105735471D01*
X90214287Y-105735471D02*
X90142858Y-105806900D01*
X90142858Y-105806900D02*
X90000001Y-105878328D01*
X90000001Y-105878328D02*
X89857144Y-105878328D01*
X89857144Y-105878328D02*
X89714287Y-105806900D01*
X89714287Y-105806900D02*
X89642858Y-105735471D01*
X89642858Y-105735471D02*
X89571429Y-105592614D01*
X89571429Y-105592614D02*
X89500001Y-105306900D01*
X89500001Y-105306900D02*
X89500001Y-104949757D01*
X89500001Y-104949757D02*
X89571429Y-104664042D01*
X89571429Y-104664042D02*
X89642858Y-104521185D01*
X89642858Y-104521185D02*
X89714287Y-104449757D01*
X89714287Y-104449757D02*
X89857144Y-104378328D01*
X91000000Y-105735471D02*
X91071429Y-105806900D01*
X91071429Y-105806900D02*
X91000000Y-105878328D01*
X91000000Y-105878328D02*
X90928572Y-105806900D01*
X90928572Y-105806900D02*
X91000000Y-105735471D01*
X91000000Y-105735471D02*
X91000000Y-105878328D01*
X92000001Y-104378328D02*
X92142858Y-104378328D01*
X92142858Y-104378328D02*
X92285715Y-104449757D01*
X92285715Y-104449757D02*
X92357144Y-104521185D01*
X92357144Y-104521185D02*
X92428572Y-104664042D01*
X92428572Y-104664042D02*
X92500001Y-104949757D01*
X92500001Y-104949757D02*
X92500001Y-105306900D01*
X92500001Y-105306900D02*
X92428572Y-105592614D01*
X92428572Y-105592614D02*
X92357144Y-105735471D01*
X92357144Y-105735471D02*
X92285715Y-105806900D01*
X92285715Y-105806900D02*
X92142858Y-105878328D01*
X92142858Y-105878328D02*
X92000001Y-105878328D01*
X92000001Y-105878328D02*
X91857144Y-105806900D01*
X91857144Y-105806900D02*
X91785715Y-105735471D01*
X91785715Y-105735471D02*
X91714286Y-105592614D01*
X91714286Y-105592614D02*
X91642858Y-105306900D01*
X91642858Y-105306900D02*
X91642858Y-104949757D01*
X91642858Y-104949757D02*
X91714286Y-104664042D01*
X91714286Y-104664042D02*
X91785715Y-104521185D01*
X91785715Y-104521185D02*
X91857144Y-104449757D01*
X91857144Y-104449757D02*
X92000001Y-104378328D01*
X93428572Y-104378328D02*
X93571429Y-104378328D01*
X93571429Y-104378328D02*
X93714286Y-104449757D01*
X93714286Y-104449757D02*
X93785715Y-104521185D01*
X93785715Y-104521185D02*
X93857143Y-104664042D01*
X93857143Y-104664042D02*
X93928572Y-104949757D01*
X93928572Y-104949757D02*
X93928572Y-105306900D01*
X93928572Y-105306900D02*
X93857143Y-105592614D01*
X93857143Y-105592614D02*
X93785715Y-105735471D01*
X93785715Y-105735471D02*
X93714286Y-105806900D01*
X93714286Y-105806900D02*
X93571429Y-105878328D01*
X93571429Y-105878328D02*
X93428572Y-105878328D01*
X93428572Y-105878328D02*
X93285715Y-105806900D01*
X93285715Y-105806900D02*
X93214286Y-105735471D01*
X93214286Y-105735471D02*
X93142857Y-105592614D01*
X93142857Y-105592614D02*
X93071429Y-105306900D01*
X93071429Y-105306900D02*
X93071429Y-104949757D01*
X93071429Y-104949757D02*
X93142857Y-104664042D01*
X93142857Y-104664042D02*
X93214286Y-104521185D01*
X93214286Y-104521185D02*
X93285715Y-104449757D01*
X93285715Y-104449757D02*
X93428572Y-104378328D01*
X94857143Y-104378328D02*
X95000000Y-104378328D01*
X95000000Y-104378328D02*
X95142857Y-104449757D01*
X95142857Y-104449757D02*
X95214286Y-104521185D01*
X95214286Y-104521185D02*
X95285714Y-104664042D01*
X95285714Y-104664042D02*
X95357143Y-104949757D01*
X95357143Y-104949757D02*
X95357143Y-105306900D01*
X95357143Y-105306900D02*
X95285714Y-105592614D01*
X95285714Y-105592614D02*
X95214286Y-105735471D01*
X95214286Y-105735471D02*
X95142857Y-105806900D01*
X95142857Y-105806900D02*
X95000000Y-105878328D01*
X95000000Y-105878328D02*
X94857143Y-105878328D01*
X94857143Y-105878328D02*
X94714286Y-105806900D01*
X94714286Y-105806900D02*
X94642857Y-105735471D01*
X94642857Y-105735471D02*
X94571428Y-105592614D01*
X94571428Y-105592614D02*
X94500000Y-105306900D01*
X94500000Y-105306900D02*
X94500000Y-104949757D01*
X94500000Y-104949757D02*
X94571428Y-104664042D01*
X94571428Y-104664042D02*
X94642857Y-104521185D01*
X94642857Y-104521185D02*
X94714286Y-104449757D01*
X94714286Y-104449757D02*
X94857143Y-104378328D01*
X96285714Y-104378328D02*
X96428571Y-104378328D01*
X96428571Y-104378328D02*
X96571428Y-104449757D01*
X96571428Y-104449757D02*
X96642857Y-104521185D01*
X96642857Y-104521185D02*
X96714285Y-104664042D01*
X96714285Y-104664042D02*
X96785714Y-104949757D01*
X96785714Y-104949757D02*
X96785714Y-105306900D01*
X96785714Y-105306900D02*
X96714285Y-105592614D01*
X96714285Y-105592614D02*
X96642857Y-105735471D01*
X96642857Y-105735471D02*
X96571428Y-105806900D01*
X96571428Y-105806900D02*
X96428571Y-105878328D01*
X96428571Y-105878328D02*
X96285714Y-105878328D01*
X96285714Y-105878328D02*
X96142857Y-105806900D01*
X96142857Y-105806900D02*
X96071428Y-105735471D01*
X96071428Y-105735471D02*
X95999999Y-105592614D01*
X95999999Y-105592614D02*
X95928571Y-105306900D01*
X95928571Y-105306900D02*
X95928571Y-104949757D01*
X95928571Y-104949757D02*
X95999999Y-104664042D01*
X95999999Y-104664042D02*
X96071428Y-104521185D01*
X96071428Y-104521185D02*
X96142857Y-104449757D01*
X96142857Y-104449757D02*
X96285714Y-104378328D01*
X98571427Y-105878328D02*
X98571427Y-104878328D01*
X98571427Y-105021185D02*
X98642856Y-104949757D01*
X98642856Y-104949757D02*
X98785713Y-104878328D01*
X98785713Y-104878328D02*
X98999999Y-104878328D01*
X98999999Y-104878328D02*
X99142856Y-104949757D01*
X99142856Y-104949757D02*
X99214285Y-105092614D01*
X99214285Y-105092614D02*
X99214285Y-105878328D01*
X99214285Y-105092614D02*
X99285713Y-104949757D01*
X99285713Y-104949757D02*
X99428570Y-104878328D01*
X99428570Y-104878328D02*
X99642856Y-104878328D01*
X99642856Y-104878328D02*
X99785713Y-104949757D01*
X99785713Y-104949757D02*
X99857142Y-105092614D01*
X99857142Y-105092614D02*
X99857142Y-105878328D01*
X100571427Y-105878328D02*
X100571427Y-104878328D01*
X100571427Y-105021185D02*
X100642856Y-104949757D01*
X100642856Y-104949757D02*
X100785713Y-104878328D01*
X100785713Y-104878328D02*
X100999999Y-104878328D01*
X100999999Y-104878328D02*
X101142856Y-104949757D01*
X101142856Y-104949757D02*
X101214285Y-105092614D01*
X101214285Y-105092614D02*
X101214285Y-105878328D01*
X101214285Y-105092614D02*
X101285713Y-104949757D01*
X101285713Y-104949757D02*
X101428570Y-104878328D01*
X101428570Y-104878328D02*
X101642856Y-104878328D01*
X101642856Y-104878328D02*
X101785713Y-104949757D01*
X101785713Y-104949757D02*
X101857142Y-105092614D01*
X101857142Y-105092614D02*
X101857142Y-105878328D01*
D11*
X80000000Y-111500000D02*
X80000000Y-106413580D01*
X110000000Y-111500000D02*
X110000000Y-106413580D01*
X80000000Y-107000000D02*
X110000000Y-107000000D01*
X80000000Y-107000000D02*
X110000000Y-107000000D01*
X80000000Y-107000000D02*
X81126504Y-106413579D01*
X80000000Y-107000000D02*
X81126504Y-107586421D01*
X110000000Y-107000000D02*
X108873496Y-107586421D01*
X110000000Y-107000000D02*
X108873496Y-106413579D01*
D10*
X118000001Y-74378328D02*
X118928573Y-74378328D01*
X118928573Y-74378328D02*
X118428573Y-74949757D01*
X118428573Y-74949757D02*
X118642858Y-74949757D01*
X118642858Y-74949757D02*
X118785716Y-75021185D01*
X118785716Y-75021185D02*
X118857144Y-75092614D01*
X118857144Y-75092614D02*
X118928573Y-75235471D01*
X118928573Y-75235471D02*
X118928573Y-75592614D01*
X118928573Y-75592614D02*
X118857144Y-75735471D01*
X118857144Y-75735471D02*
X118785716Y-75806900D01*
X118785716Y-75806900D02*
X118642858Y-75878328D01*
X118642858Y-75878328D02*
X118214287Y-75878328D01*
X118214287Y-75878328D02*
X118071430Y-75806900D01*
X118071430Y-75806900D02*
X118000001Y-75735471D01*
X119857144Y-74378328D02*
X120000001Y-74378328D01*
X120000001Y-74378328D02*
X120142858Y-74449757D01*
X120142858Y-74449757D02*
X120214287Y-74521185D01*
X120214287Y-74521185D02*
X120285715Y-74664042D01*
X120285715Y-74664042D02*
X120357144Y-74949757D01*
X120357144Y-74949757D02*
X120357144Y-75306900D01*
X120357144Y-75306900D02*
X120285715Y-75592614D01*
X120285715Y-75592614D02*
X120214287Y-75735471D01*
X120214287Y-75735471D02*
X120142858Y-75806900D01*
X120142858Y-75806900D02*
X120000001Y-75878328D01*
X120000001Y-75878328D02*
X119857144Y-75878328D01*
X119857144Y-75878328D02*
X119714287Y-75806900D01*
X119714287Y-75806900D02*
X119642858Y-75735471D01*
X119642858Y-75735471D02*
X119571429Y-75592614D01*
X119571429Y-75592614D02*
X119500001Y-75306900D01*
X119500001Y-75306900D02*
X119500001Y-74949757D01*
X119500001Y-74949757D02*
X119571429Y-74664042D01*
X119571429Y-74664042D02*
X119642858Y-74521185D01*
X119642858Y-74521185D02*
X119714287Y-74449757D01*
X119714287Y-74449757D02*
X119857144Y-74378328D01*
X121000000Y-75735471D02*
X121071429Y-75806900D01*
X121071429Y-75806900D02*
X121000000Y-75878328D01*
X121000000Y-75878328D02*
X120928572Y-75806900D01*
X120928572Y-75806900D02*
X121000000Y-75735471D01*
X121000000Y-75735471D02*
X121000000Y-75878328D01*
X122000001Y-74378328D02*
X122142858Y-74378328D01*
X122142858Y-74378328D02*
X122285715Y-74449757D01*
X122285715Y-74449757D02*
X122357144Y-74521185D01*
X122357144Y-74521185D02*
X122428572Y-74664042D01*
X122428572Y-74664042D02*
X122500001Y-74949757D01*
X122500001Y-74949757D02*
X122500001Y-75306900D01*
X122500001Y-75306900D02*
X122428572Y-75592614D01*
X122428572Y-75592614D02*
X122357144Y-75735471D01*
X122357144Y-75735471D02*
X122285715Y-75806900D01*
X122285715Y-75806900D02*
X122142858Y-75878328D01*
X122142858Y-75878328D02*
X122000001Y-75878328D01*
X122000001Y-75878328D02*
X121857144Y-75806900D01*
X121857144Y-75806900D02*
X121785715Y-75735471D01*
X121785715Y-75735471D02*
X121714286Y-75592614D01*
X121714286Y-75592614D02*
X121642858Y-75306900D01*
X121642858Y-75306900D02*
X121642858Y-74949757D01*
X121642858Y-74949757D02*
X121714286Y-74664042D01*
X121714286Y-74664042D02*
X121785715Y-74521185D01*
X121785715Y-74521185D02*
X121857144Y-74449757D01*
X121857144Y-74449757D02*
X122000001Y-74378328D01*
X123428572Y-74378328D02*
X123571429Y-74378328D01*
X123571429Y-74378328D02*
X123714286Y-74449757D01*
X123714286Y-74449757D02*
X123785715Y-74521185D01*
X123785715Y-74521185D02*
X123857143Y-74664042D01*
X123857143Y-74664042D02*
X123928572Y-74949757D01*
X123928572Y-74949757D02*
X123928572Y-75306900D01*
X123928572Y-75306900D02*
X123857143Y-75592614D01*
X123857143Y-75592614D02*
X123785715Y-75735471D01*
X123785715Y-75735471D02*
X123714286Y-75806900D01*
X123714286Y-75806900D02*
X123571429Y-75878328D01*
X123571429Y-75878328D02*
X123428572Y-75878328D01*
X123428572Y-75878328D02*
X123285715Y-75806900D01*
X123285715Y-75806900D02*
X123214286Y-75735471D01*
X123214286Y-75735471D02*
X123142857Y-75592614D01*
X123142857Y-75592614D02*
X123071429Y-75306900D01*
X123071429Y-75306900D02*
X123071429Y-74949757D01*
X123071429Y-74949757D02*
X123142857Y-74664042D01*
X123142857Y-74664042D02*
X123214286Y-74521185D01*
X123214286Y-74521185D02*
X123285715Y-74449757D01*
X123285715Y-74449757D02*
X123428572Y-74378328D01*
X124857143Y-74378328D02*
X125000000Y-74378328D01*
X125000000Y-74378328D02*
X125142857Y-74449757D01*
X125142857Y-74449757D02*
X125214286Y-74521185D01*
X125214286Y-74521185D02*
X125285714Y-74664042D01*
X125285714Y-74664042D02*
X125357143Y-74949757D01*
X125357143Y-74949757D02*
X125357143Y-75306900D01*
X125357143Y-75306900D02*
X125285714Y-75592614D01*
X125285714Y-75592614D02*
X125214286Y-75735471D01*
X125214286Y-75735471D02*
X125142857Y-75806900D01*
X125142857Y-75806900D02*
X125000000Y-75878328D01*
X125000000Y-75878328D02*
X124857143Y-75878328D01*
X124857143Y-75878328D02*
X124714286Y-75806900D01*
X124714286Y-75806900D02*
X124642857Y-75735471D01*
X124642857Y-75735471D02*
X124571428Y-75592614D01*
X124571428Y-75592614D02*
X124500000Y-75306900D01*
X124500000Y-75306900D02*
X124500000Y-74949757D01*
X124500000Y-74949757D02*
X124571428Y-74664042D01*
X124571428Y-74664042D02*
X124642857Y-74521185D01*
X124642857Y-74521185D02*
X124714286Y-74449757D01*
X124714286Y-74449757D02*
X124857143Y-74378328D01*
X126285714Y-74378328D02*
X126428571Y-74378328D01*
X126428571Y-74378328D02*
X126571428Y-74449757D01*
X126571428Y-74449757D02*
X126642857Y-74521185D01*
X126642857Y-74521185D02*
X126714285Y-74664042D01*
X126714285Y-74664042D02*
X126785714Y-74949757D01*
X126785714Y-74949757D02*
X126785714Y-75306900D01*
X126785714Y-75306900D02*
X126714285Y-75592614D01*
X126714285Y-75592614D02*
X126642857Y-75735471D01*
X126642857Y-75735471D02*
X126571428Y-75806900D01*
X126571428Y-75806900D02*
X126428571Y-75878328D01*
X126428571Y-75878328D02*
X126285714Y-75878328D01*
X126285714Y-75878328D02*
X126142857Y-75806900D01*
X126142857Y-75806900D02*
X126071428Y-75735471D01*
X126071428Y-75735471D02*
X125999999Y-75592614D01*
X125999999Y-75592614D02*
X125928571Y-75306900D01*
X125928571Y-75306900D02*
X125928571Y-74949757D01*
X125928571Y-74949757D02*
X125999999Y-74664042D01*
X125999999Y-74664042D02*
X126071428Y-74521185D01*
X126071428Y-74521185D02*
X126142857Y-74449757D01*
X126142857Y-74449757D02*
X126285714Y-74378328D01*
X128571427Y-75878328D02*
X128571427Y-74878328D01*
X128571427Y-75021185D02*
X128642856Y-74949757D01*
X128642856Y-74949757D02*
X128785713Y-74878328D01*
X128785713Y-74878328D02*
X128999999Y-74878328D01*
X128999999Y-74878328D02*
X129142856Y-74949757D01*
X129142856Y-74949757D02*
X129214285Y-75092614D01*
X129214285Y-75092614D02*
X129214285Y-75878328D01*
X129214285Y-75092614D02*
X129285713Y-74949757D01*
X129285713Y-74949757D02*
X129428570Y-74878328D01*
X129428570Y-74878328D02*
X129642856Y-74878328D01*
X129642856Y-74878328D02*
X129785713Y-74949757D01*
X129785713Y-74949757D02*
X129857142Y-75092614D01*
X129857142Y-75092614D02*
X129857142Y-75878328D01*
X130571427Y-75878328D02*
X130571427Y-74878328D01*
X130571427Y-75021185D02*
X130642856Y-74949757D01*
X130642856Y-74949757D02*
X130785713Y-74878328D01*
X130785713Y-74878328D02*
X130999999Y-74878328D01*
X130999999Y-74878328D02*
X131142856Y-74949757D01*
X131142856Y-74949757D02*
X131214285Y-75092614D01*
X131214285Y-75092614D02*
X131214285Y-75878328D01*
X131214285Y-75092614D02*
X131285713Y-74949757D01*
X131285713Y-74949757D02*
X131428570Y-74878328D01*
X131428570Y-74878328D02*
X131642856Y-74878328D01*
X131642856Y-74878328D02*
X131785713Y-74949757D01*
X131785713Y-74949757D02*
X131857142Y-75092614D01*
X131857142Y-75092614D02*
X131857142Y-75878328D01*
D11*
X110000000Y-81500000D02*
X110000000Y-76413580D01*
X140000000Y-81500000D02*
X140000000Y-76413580D01*
X110000000Y-77000000D02*
X140000000Y-77000000D01*
X110000000Y-77000000D02*
X140000000Y-77000000D01*
X110000000Y-77000000D02*
X111126504Y-76413579D01*
X110000000Y-77000000D02*
X111126504Y-77586421D01*
X140000000Y-77000000D02*
X138873496Y-77586421D01*
X140000000Y-77000000D02*
X138873496Y-76413579D01*
D10*
X77378328Y-98999998D02*
X77378328Y-98071426D01*
X77378328Y-98071426D02*
X77949757Y-98571426D01*
X77949757Y-98571426D02*
X77949757Y-98357141D01*
X77949757Y-98357141D02*
X78021185Y-98214284D01*
X78021185Y-98214284D02*
X78092614Y-98142855D01*
X78092614Y-98142855D02*
X78235471Y-98071426D01*
X78235471Y-98071426D02*
X78592614Y-98071426D01*
X78592614Y-98071426D02*
X78735471Y-98142855D01*
X78735471Y-98142855D02*
X78806900Y-98214284D01*
X78806900Y-98214284D02*
X78878328Y-98357141D01*
X78878328Y-98357141D02*
X78878328Y-98785712D01*
X78878328Y-98785712D02*
X78806900Y-98928569D01*
X78806900Y-98928569D02*
X78735471Y-98999998D01*
X77378328Y-97142855D02*
X77378328Y-96999998D01*
X77378328Y-96999998D02*
X77449757Y-96857141D01*
X77449757Y-96857141D02*
X77521185Y-96785713D01*
X77521185Y-96785713D02*
X77664042Y-96714284D01*
X77664042Y-96714284D02*
X77949757Y-96642855D01*
X77949757Y-96642855D02*
X78306900Y-96642855D01*
X78306900Y-96642855D02*
X78592614Y-96714284D01*
X78592614Y-96714284D02*
X78735471Y-96785713D01*
X78735471Y-96785713D02*
X78806900Y-96857141D01*
X78806900Y-96857141D02*
X78878328Y-96999998D01*
X78878328Y-96999998D02*
X78878328Y-97142855D01*
X78878328Y-97142855D02*
X78806900Y-97285713D01*
X78806900Y-97285713D02*
X78735471Y-97357141D01*
X78735471Y-97357141D02*
X78592614Y-97428570D01*
X78592614Y-97428570D02*
X78306900Y-97499998D01*
X78306900Y-97499998D02*
X77949757Y-97499998D01*
X77949757Y-97499998D02*
X77664042Y-97428570D01*
X77664042Y-97428570D02*
X77521185Y-97357141D01*
X77521185Y-97357141D02*
X77449757Y-97285713D01*
X77449757Y-97285713D02*
X77378328Y-97142855D01*
X78735471Y-95999999D02*
X78806900Y-95928570D01*
X78806900Y-95928570D02*
X78878328Y-95999999D01*
X78878328Y-95999999D02*
X78806900Y-96071427D01*
X78806900Y-96071427D02*
X78735471Y-95999999D01*
X78735471Y-95999999D02*
X78878328Y-95999999D01*
X77378328Y-94999998D02*
X77378328Y-94857141D01*
X77378328Y-94857141D02*
X77449757Y-94714284D01*
X77449757Y-94714284D02*
X77521185Y-94642856D01*
X77521185Y-94642856D02*
X77664042Y-94571427D01*
X77664042Y-94571427D02*
X77949757Y-94499998D01*
X77949757Y-94499998D02*
X78306900Y-94499998D01*
X78306900Y-94499998D02*
X78592614Y-94571427D01*
X78592614Y-94571427D02*
X78735471Y-94642856D01*
X78735471Y-94642856D02*
X78806900Y-94714284D01*
X78806900Y-94714284D02*
X78878328Y-94857141D01*
X78878328Y-94857141D02*
X78878328Y-94999998D01*
X78878328Y-94999998D02*
X78806900Y-95142856D01*
X78806900Y-95142856D02*
X78735471Y-95214284D01*
X78735471Y-95214284D02*
X78592614Y-95285713D01*
X78592614Y-95285713D02*
X78306900Y-95357141D01*
X78306900Y-95357141D02*
X77949757Y-95357141D01*
X77949757Y-95357141D02*
X77664042Y-95285713D01*
X77664042Y-95285713D02*
X77521185Y-95214284D01*
X77521185Y-95214284D02*
X77449757Y-95142856D01*
X77449757Y-95142856D02*
X77378328Y-94999998D01*
X77378328Y-93571427D02*
X77378328Y-93428570D01*
X77378328Y-93428570D02*
X77449757Y-93285713D01*
X77449757Y-93285713D02*
X77521185Y-93214285D01*
X77521185Y-93214285D02*
X77664042Y-93142856D01*
X77664042Y-93142856D02*
X77949757Y-93071427D01*
X77949757Y-93071427D02*
X78306900Y-93071427D01*
X78306900Y-93071427D02*
X78592614Y-93142856D01*
X78592614Y-93142856D02*
X78735471Y-93214285D01*
X78735471Y-93214285D02*
X78806900Y-93285713D01*
X78806900Y-93285713D02*
X78878328Y-93428570D01*
X78878328Y-93428570D02*
X78878328Y-93571427D01*
X78878328Y-93571427D02*
X78806900Y-93714285D01*
X78806900Y-93714285D02*
X78735471Y-93785713D01*
X78735471Y-93785713D02*
X78592614Y-93857142D01*
X78592614Y-93857142D02*
X78306900Y-93928570D01*
X78306900Y-93928570D02*
X77949757Y-93928570D01*
X77949757Y-93928570D02*
X77664042Y-93857142D01*
X77664042Y-93857142D02*
X77521185Y-93785713D01*
X77521185Y-93785713D02*
X77449757Y-93714285D01*
X77449757Y-93714285D02*
X77378328Y-93571427D01*
X77378328Y-92142856D02*
X77378328Y-91999999D01*
X77378328Y-91999999D02*
X77449757Y-91857142D01*
X77449757Y-91857142D02*
X77521185Y-91785714D01*
X77521185Y-91785714D02*
X77664042Y-91714285D01*
X77664042Y-91714285D02*
X77949757Y-91642856D01*
X77949757Y-91642856D02*
X78306900Y-91642856D01*
X78306900Y-91642856D02*
X78592614Y-91714285D01*
X78592614Y-91714285D02*
X78735471Y-91785714D01*
X78735471Y-91785714D02*
X78806900Y-91857142D01*
X78806900Y-91857142D02*
X78878328Y-91999999D01*
X78878328Y-91999999D02*
X78878328Y-92142856D01*
X78878328Y-92142856D02*
X78806900Y-92285714D01*
X78806900Y-92285714D02*
X78735471Y-92357142D01*
X78735471Y-92357142D02*
X78592614Y-92428571D01*
X78592614Y-92428571D02*
X78306900Y-92499999D01*
X78306900Y-92499999D02*
X77949757Y-92499999D01*
X77949757Y-92499999D02*
X77664042Y-92428571D01*
X77664042Y-92428571D02*
X77521185Y-92357142D01*
X77521185Y-92357142D02*
X77449757Y-92285714D01*
X77449757Y-92285714D02*
X77378328Y-92142856D01*
X77378328Y-90714285D02*
X77378328Y-90571428D01*
X77378328Y-90571428D02*
X77449757Y-90428571D01*
X77449757Y-90428571D02*
X77521185Y-90357143D01*
X77521185Y-90357143D02*
X77664042Y-90285714D01*
X77664042Y-90285714D02*
X77949757Y-90214285D01*
X77949757Y-90214285D02*
X78306900Y-90214285D01*
X78306900Y-90214285D02*
X78592614Y-90285714D01*
X78592614Y-90285714D02*
X78735471Y-90357143D01*
X78735471Y-90357143D02*
X78806900Y-90428571D01*
X78806900Y-90428571D02*
X78878328Y-90571428D01*
X78878328Y-90571428D02*
X78878328Y-90714285D01*
X78878328Y-90714285D02*
X78806900Y-90857143D01*
X78806900Y-90857143D02*
X78735471Y-90928571D01*
X78735471Y-90928571D02*
X78592614Y-91000000D01*
X78592614Y-91000000D02*
X78306900Y-91071428D01*
X78306900Y-91071428D02*
X77949757Y-91071428D01*
X77949757Y-91071428D02*
X77664042Y-91000000D01*
X77664042Y-91000000D02*
X77521185Y-90928571D01*
X77521185Y-90928571D02*
X77449757Y-90857143D01*
X77449757Y-90857143D02*
X77378328Y-90714285D01*
X78878328Y-88428572D02*
X77878328Y-88428572D01*
X78021185Y-88428572D02*
X77949757Y-88357143D01*
X77949757Y-88357143D02*
X77878328Y-88214286D01*
X77878328Y-88214286D02*
X77878328Y-88000000D01*
X77878328Y-88000000D02*
X77949757Y-87857143D01*
X77949757Y-87857143D02*
X78092614Y-87785715D01*
X78092614Y-87785715D02*
X78878328Y-87785715D01*
X78092614Y-87785715D02*
X77949757Y-87714286D01*
X77949757Y-87714286D02*
X77878328Y-87571429D01*
X77878328Y-87571429D02*
X77878328Y-87357143D01*
X77878328Y-87357143D02*
X77949757Y-87214286D01*
X77949757Y-87214286D02*
X78092614Y-87142857D01*
X78092614Y-87142857D02*
X78878328Y-87142857D01*
X78878328Y-86428572D02*
X77878328Y-86428572D01*
X78021185Y-86428572D02*
X77949757Y-86357143D01*
X77949757Y-86357143D02*
X77878328Y-86214286D01*
X77878328Y-86214286D02*
X77878328Y-86000000D01*
X77878328Y-86000000D02*
X77949757Y-85857143D01*
X77949757Y-85857143D02*
X78092614Y-85785715D01*
X78092614Y-85785715D02*
X78878328Y-85785715D01*
X78092614Y-85785715D02*
X77949757Y-85714286D01*
X77949757Y-85714286D02*
X77878328Y-85571429D01*
X77878328Y-85571429D02*
X77878328Y-85357143D01*
X77878328Y-85357143D02*
X77949757Y-85214286D01*
X77949757Y-85214286D02*
X78092614Y-85142857D01*
X78092614Y-85142857D02*
X78878328Y-85142857D01*
D11*
X84500000Y-107000000D02*
X79413580Y-107000000D01*
X84500000Y-77000000D02*
X79413580Y-77000000D01*
X80000000Y-107000000D02*
X80000000Y-77000000D01*
X80000000Y-107000000D02*
X80000000Y-77000000D01*
X80000000Y-107000000D02*
X79413579Y-105873496D01*
X80000000Y-107000000D02*
X80586421Y-105873496D01*
X80000000Y-77000000D02*
X80586421Y-78126504D01*
X80000000Y-77000000D02*
X79413579Y-78126504D01*
D12*
X135326191Y-45204819D02*
X135516667Y-45204819D01*
X135516667Y-45204819D02*
X135611905Y-45157200D01*
X135611905Y-45157200D02*
X135659524Y-45109580D01*
X135659524Y-45109580D02*
X135754762Y-44966723D01*
X135754762Y-44966723D02*
X135802381Y-44776247D01*
X135802381Y-44776247D02*
X135802381Y-44395295D01*
X135802381Y-44395295D02*
X135754762Y-44300057D01*
X135754762Y-44300057D02*
X135707143Y-44252438D01*
X135707143Y-44252438D02*
X135611905Y-44204819D01*
X135611905Y-44204819D02*
X135421429Y-44204819D01*
X135421429Y-44204819D02*
X135326191Y-44252438D01*
X135326191Y-44252438D02*
X135278572Y-44300057D01*
X135278572Y-44300057D02*
X135230953Y-44395295D01*
X135230953Y-44395295D02*
X135230953Y-44633390D01*
X135230953Y-44633390D02*
X135278572Y-44728628D01*
X135278572Y-44728628D02*
X135326191Y-44776247D01*
X135326191Y-44776247D02*
X135421429Y-44823866D01*
X135421429Y-44823866D02*
X135611905Y-44823866D01*
X135611905Y-44823866D02*
X135707143Y-44776247D01*
X135707143Y-44776247D02*
X135754762Y-44728628D01*
X135754762Y-44728628D02*
X135802381Y-44633390D01*
X136421429Y-44204819D02*
X136516667Y-44204819D01*
X136516667Y-44204819D02*
X136611905Y-44252438D01*
X136611905Y-44252438D02*
X136659524Y-44300057D01*
X136659524Y-44300057D02*
X136707143Y-44395295D01*
X136707143Y-44395295D02*
X136754762Y-44585771D01*
X136754762Y-44585771D02*
X136754762Y-44823866D01*
X136754762Y-44823866D02*
X136707143Y-45014342D01*
X136707143Y-45014342D02*
X136659524Y-45109580D01*
X136659524Y-45109580D02*
X136611905Y-45157200D01*
X136611905Y-45157200D02*
X136516667Y-45204819D01*
X136516667Y-45204819D02*
X136421429Y-45204819D01*
X136421429Y-45204819D02*
X136326191Y-45157200D01*
X136326191Y-45157200D02*
X136278572Y-45109580D01*
X136278572Y-45109580D02*
X136230953Y-45014342D01*
X136230953Y-45014342D02*
X136183334Y-44823866D01*
X136183334Y-44823866D02*
X136183334Y-44585771D01*
X136183334Y-44585771D02*
X136230953Y-44395295D01*
X136230953Y-44395295D02*
X136278572Y-44300057D01*
X136278572Y-44300057D02*
X136326191Y-44252438D01*
X136326191Y-44252438D02*
X136421429Y-44204819D01*
X137183334Y-45109580D02*
X137230953Y-45157200D01*
X137230953Y-45157200D02*
X137183334Y-45204819D01*
X137183334Y-45204819D02*
X137135715Y-45157200D01*
X137135715Y-45157200D02*
X137183334Y-45109580D01*
X137183334Y-45109580D02*
X137183334Y-45204819D01*
X137564286Y-44204819D02*
X138183333Y-44204819D01*
X138183333Y-44204819D02*
X137850000Y-44585771D01*
X137850000Y-44585771D02*
X137992857Y-44585771D01*
X137992857Y-44585771D02*
X138088095Y-44633390D01*
X138088095Y-44633390D02*
X138135714Y-44681009D01*
X138135714Y-44681009D02*
X138183333Y-44776247D01*
X138183333Y-44776247D02*
X138183333Y-45014342D01*
X138183333Y-45014342D02*
X138135714Y-45109580D01*
X138135714Y-45109580D02*
X138088095Y-45157200D01*
X138088095Y-45157200D02*
X137992857Y-45204819D01*
X137992857Y-45204819D02*
X137707143Y-45204819D01*
X137707143Y-45204819D02*
X137611905Y-45157200D01*
X137611905Y-45157200D02*
X137564286Y-45109580D01*
X138802381Y-44204819D02*
X138897619Y-44204819D01*
X138897619Y-44204819D02*
X138992857Y-44252438D01*
X138992857Y-44252438D02*
X139040476Y-44300057D01*
X139040476Y-44300057D02*
X139088095Y-44395295D01*
X139088095Y-44395295D02*
X139135714Y-44585771D01*
X139135714Y-44585771D02*
X139135714Y-44823866D01*
X139135714Y-44823866D02*
X139088095Y-45014342D01*
X139088095Y-45014342D02*
X139040476Y-45109580D01*
X139040476Y-45109580D02*
X138992857Y-45157200D01*
X138992857Y-45157200D02*
X138897619Y-45204819D01*
X138897619Y-45204819D02*
X138802381Y-45204819D01*
X138802381Y-45204819D02*
X138707143Y-45157200D01*
X138707143Y-45157200D02*
X138659524Y-45109580D01*
X138659524Y-45109580D02*
X138611905Y-45014342D01*
X138611905Y-45014342D02*
X138564286Y-44823866D01*
X138564286Y-44823866D02*
X138564286Y-44585771D01*
X138564286Y-44585771D02*
X138611905Y-44395295D01*
X138611905Y-44395295D02*
X138659524Y-44300057D01*
X138659524Y-44300057D02*
X138707143Y-44252438D01*
X138707143Y-44252438D02*
X138802381Y-44204819D01*
X139754762Y-44204819D02*
X139850000Y-44204819D01*
X139850000Y-44204819D02*
X139945238Y-44252438D01*
X139945238Y-44252438D02*
X139992857Y-44300057D01*
X139992857Y-44300057D02*
X140040476Y-44395295D01*
X140040476Y-44395295D02*
X140088095Y-44585771D01*
X140088095Y-44585771D02*
X140088095Y-44823866D01*
X140088095Y-44823866D02*
X140040476Y-45014342D01*
X140040476Y-45014342D02*
X139992857Y-45109580D01*
X139992857Y-45109580D02*
X139945238Y-45157200D01*
X139945238Y-45157200D02*
X139850000Y-45204819D01*
X139850000Y-45204819D02*
X139754762Y-45204819D01*
X139754762Y-45204819D02*
X139659524Y-45157200D01*
X139659524Y-45157200D02*
X139611905Y-45109580D01*
X139611905Y-45109580D02*
X139564286Y-45014342D01*
X139564286Y-45014342D02*
X139516667Y-44823866D01*
X139516667Y-44823866D02*
X139516667Y-44585771D01*
X139516667Y-44585771D02*
X139564286Y-44395295D01*
X139564286Y-44395295D02*
X139611905Y-44300057D01*
X139611905Y-44300057D02*
X139659524Y-44252438D01*
X139659524Y-44252438D02*
X139754762Y-44204819D01*
X140707143Y-44204819D02*
X140802381Y-44204819D01*
X140802381Y-44204819D02*
X140897619Y-44252438D01*
X140897619Y-44252438D02*
X140945238Y-44300057D01*
X140945238Y-44300057D02*
X140992857Y-44395295D01*
X140992857Y-44395295D02*
X141040476Y-44585771D01*
X141040476Y-44585771D02*
X141040476Y-44823866D01*
X141040476Y-44823866D02*
X140992857Y-45014342D01*
X140992857Y-45014342D02*
X140945238Y-45109580D01*
X140945238Y-45109580D02*
X140897619Y-45157200D01*
X140897619Y-45157200D02*
X140802381Y-45204819D01*
X140802381Y-45204819D02*
X140707143Y-45204819D01*
X140707143Y-45204819D02*
X140611905Y-45157200D01*
X140611905Y-45157200D02*
X140564286Y-45109580D01*
X140564286Y-45109580D02*
X140516667Y-45014342D01*
X140516667Y-45014342D02*
X140469048Y-44823866D01*
X140469048Y-44823866D02*
X140469048Y-44585771D01*
X140469048Y-44585771D02*
X140516667Y-44395295D01*
X140516667Y-44395295D02*
X140564286Y-44300057D01*
X140564286Y-44300057D02*
X140611905Y-44252438D01*
X140611905Y-44252438D02*
X140707143Y-44204819D01*
X142230953Y-45204819D02*
X142230953Y-44538152D01*
X142230953Y-44633390D02*
X142278572Y-44585771D01*
X142278572Y-44585771D02*
X142373810Y-44538152D01*
X142373810Y-44538152D02*
X142516667Y-44538152D01*
X142516667Y-44538152D02*
X142611905Y-44585771D01*
X142611905Y-44585771D02*
X142659524Y-44681009D01*
X142659524Y-44681009D02*
X142659524Y-45204819D01*
X142659524Y-44681009D02*
X142707143Y-44585771D01*
X142707143Y-44585771D02*
X142802381Y-44538152D01*
X142802381Y-44538152D02*
X142945238Y-44538152D01*
X142945238Y-44538152D02*
X143040477Y-44585771D01*
X143040477Y-44585771D02*
X143088096Y-44681009D01*
X143088096Y-44681009D02*
X143088096Y-45204819D01*
X143564286Y-45204819D02*
X143564286Y-44538152D01*
X143564286Y-44633390D02*
X143611905Y-44585771D01*
X143611905Y-44585771D02*
X143707143Y-44538152D01*
X143707143Y-44538152D02*
X143850000Y-44538152D01*
X143850000Y-44538152D02*
X143945238Y-44585771D01*
X143945238Y-44585771D02*
X143992857Y-44681009D01*
X143992857Y-44681009D02*
X143992857Y-45204819D01*
X143992857Y-44681009D02*
X144040476Y-44585771D01*
X144040476Y-44585771D02*
X144135714Y-44538152D01*
X144135714Y-44538152D02*
X144278571Y-44538152D01*
X144278571Y-44538152D02*
X144373810Y-44585771D01*
X144373810Y-44585771D02*
X144421429Y-44681009D01*
X144421429Y-44681009D02*
X144421429Y-45204819D01*
X94700000Y-61500000D02*
X94700000Y-45313580D01*
X185000000Y-61500000D02*
X185000000Y-45313580D01*
X94700000Y-45900000D02*
X185000000Y-45900000D01*
X94700000Y-45900000D02*
X185000000Y-45900000D01*
X94700000Y-45900000D02*
X95826504Y-45313579D01*
X94700000Y-45900000D02*
X95826504Y-46486421D01*
X185000000Y-45900000D02*
X183873496Y-46486421D01*
X185000000Y-45900000D02*
X183873496Y-45313579D01*
D10*
X88000001Y-74378328D02*
X88928573Y-74378328D01*
X88928573Y-74378328D02*
X88428573Y-74949757D01*
X88428573Y-74949757D02*
X88642858Y-74949757D01*
X88642858Y-74949757D02*
X88785716Y-75021185D01*
X88785716Y-75021185D02*
X88857144Y-75092614D01*
X88857144Y-75092614D02*
X88928573Y-75235471D01*
X88928573Y-75235471D02*
X88928573Y-75592614D01*
X88928573Y-75592614D02*
X88857144Y-75735471D01*
X88857144Y-75735471D02*
X88785716Y-75806900D01*
X88785716Y-75806900D02*
X88642858Y-75878328D01*
X88642858Y-75878328D02*
X88214287Y-75878328D01*
X88214287Y-75878328D02*
X88071430Y-75806900D01*
X88071430Y-75806900D02*
X88000001Y-75735471D01*
X89857144Y-74378328D02*
X90000001Y-74378328D01*
X90000001Y-74378328D02*
X90142858Y-74449757D01*
X90142858Y-74449757D02*
X90214287Y-74521185D01*
X90214287Y-74521185D02*
X90285715Y-74664042D01*
X90285715Y-74664042D02*
X90357144Y-74949757D01*
X90357144Y-74949757D02*
X90357144Y-75306900D01*
X90357144Y-75306900D02*
X90285715Y-75592614D01*
X90285715Y-75592614D02*
X90214287Y-75735471D01*
X90214287Y-75735471D02*
X90142858Y-75806900D01*
X90142858Y-75806900D02*
X90000001Y-75878328D01*
X90000001Y-75878328D02*
X89857144Y-75878328D01*
X89857144Y-75878328D02*
X89714287Y-75806900D01*
X89714287Y-75806900D02*
X89642858Y-75735471D01*
X89642858Y-75735471D02*
X89571429Y-75592614D01*
X89571429Y-75592614D02*
X89500001Y-75306900D01*
X89500001Y-75306900D02*
X89500001Y-74949757D01*
X89500001Y-74949757D02*
X89571429Y-74664042D01*
X89571429Y-74664042D02*
X89642858Y-74521185D01*
X89642858Y-74521185D02*
X89714287Y-74449757D01*
X89714287Y-74449757D02*
X89857144Y-74378328D01*
X91000000Y-75735471D02*
X91071429Y-75806900D01*
X91071429Y-75806900D02*
X91000000Y-75878328D01*
X91000000Y-75878328D02*
X90928572Y-75806900D01*
X90928572Y-75806900D02*
X91000000Y-75735471D01*
X91000000Y-75735471D02*
X91000000Y-75878328D01*
X92000001Y-74378328D02*
X92142858Y-74378328D01*
X92142858Y-74378328D02*
X92285715Y-74449757D01*
X92285715Y-74449757D02*
X92357144Y-74521185D01*
X92357144Y-74521185D02*
X92428572Y-74664042D01*
X92428572Y-74664042D02*
X92500001Y-74949757D01*
X92500001Y-74949757D02*
X92500001Y-75306900D01*
X92500001Y-75306900D02*
X92428572Y-75592614D01*
X92428572Y-75592614D02*
X92357144Y-75735471D01*
X92357144Y-75735471D02*
X92285715Y-75806900D01*
X92285715Y-75806900D02*
X92142858Y-75878328D01*
X92142858Y-75878328D02*
X92000001Y-75878328D01*
X92000001Y-75878328D02*
X91857144Y-75806900D01*
X91857144Y-75806900D02*
X91785715Y-75735471D01*
X91785715Y-75735471D02*
X91714286Y-75592614D01*
X91714286Y-75592614D02*
X91642858Y-75306900D01*
X91642858Y-75306900D02*
X91642858Y-74949757D01*
X91642858Y-74949757D02*
X91714286Y-74664042D01*
X91714286Y-74664042D02*
X91785715Y-74521185D01*
X91785715Y-74521185D02*
X91857144Y-74449757D01*
X91857144Y-74449757D02*
X92000001Y-74378328D01*
X93428572Y-74378328D02*
X93571429Y-74378328D01*
X93571429Y-74378328D02*
X93714286Y-74449757D01*
X93714286Y-74449757D02*
X93785715Y-74521185D01*
X93785715Y-74521185D02*
X93857143Y-74664042D01*
X93857143Y-74664042D02*
X93928572Y-74949757D01*
X93928572Y-74949757D02*
X93928572Y-75306900D01*
X93928572Y-75306900D02*
X93857143Y-75592614D01*
X93857143Y-75592614D02*
X93785715Y-75735471D01*
X93785715Y-75735471D02*
X93714286Y-75806900D01*
X93714286Y-75806900D02*
X93571429Y-75878328D01*
X93571429Y-75878328D02*
X93428572Y-75878328D01*
X93428572Y-75878328D02*
X93285715Y-75806900D01*
X93285715Y-75806900D02*
X93214286Y-75735471D01*
X93214286Y-75735471D02*
X93142857Y-75592614D01*
X93142857Y-75592614D02*
X93071429Y-75306900D01*
X93071429Y-75306900D02*
X93071429Y-74949757D01*
X93071429Y-74949757D02*
X93142857Y-74664042D01*
X93142857Y-74664042D02*
X93214286Y-74521185D01*
X93214286Y-74521185D02*
X93285715Y-74449757D01*
X93285715Y-74449757D02*
X93428572Y-74378328D01*
X94857143Y-74378328D02*
X95000000Y-74378328D01*
X95000000Y-74378328D02*
X95142857Y-74449757D01*
X95142857Y-74449757D02*
X95214286Y-74521185D01*
X95214286Y-74521185D02*
X95285714Y-74664042D01*
X95285714Y-74664042D02*
X95357143Y-74949757D01*
X95357143Y-74949757D02*
X95357143Y-75306900D01*
X95357143Y-75306900D02*
X95285714Y-75592614D01*
X95285714Y-75592614D02*
X95214286Y-75735471D01*
X95214286Y-75735471D02*
X95142857Y-75806900D01*
X95142857Y-75806900D02*
X95000000Y-75878328D01*
X95000000Y-75878328D02*
X94857143Y-75878328D01*
X94857143Y-75878328D02*
X94714286Y-75806900D01*
X94714286Y-75806900D02*
X94642857Y-75735471D01*
X94642857Y-75735471D02*
X94571428Y-75592614D01*
X94571428Y-75592614D02*
X94500000Y-75306900D01*
X94500000Y-75306900D02*
X94500000Y-74949757D01*
X94500000Y-74949757D02*
X94571428Y-74664042D01*
X94571428Y-74664042D02*
X94642857Y-74521185D01*
X94642857Y-74521185D02*
X94714286Y-74449757D01*
X94714286Y-74449757D02*
X94857143Y-74378328D01*
X96285714Y-74378328D02*
X96428571Y-74378328D01*
X96428571Y-74378328D02*
X96571428Y-74449757D01*
X96571428Y-74449757D02*
X96642857Y-74521185D01*
X96642857Y-74521185D02*
X96714285Y-74664042D01*
X96714285Y-74664042D02*
X96785714Y-74949757D01*
X96785714Y-74949757D02*
X96785714Y-75306900D01*
X96785714Y-75306900D02*
X96714285Y-75592614D01*
X96714285Y-75592614D02*
X96642857Y-75735471D01*
X96642857Y-75735471D02*
X96571428Y-75806900D01*
X96571428Y-75806900D02*
X96428571Y-75878328D01*
X96428571Y-75878328D02*
X96285714Y-75878328D01*
X96285714Y-75878328D02*
X96142857Y-75806900D01*
X96142857Y-75806900D02*
X96071428Y-75735471D01*
X96071428Y-75735471D02*
X95999999Y-75592614D01*
X95999999Y-75592614D02*
X95928571Y-75306900D01*
X95928571Y-75306900D02*
X95928571Y-74949757D01*
X95928571Y-74949757D02*
X95999999Y-74664042D01*
X95999999Y-74664042D02*
X96071428Y-74521185D01*
X96071428Y-74521185D02*
X96142857Y-74449757D01*
X96142857Y-74449757D02*
X96285714Y-74378328D01*
X98571427Y-75878328D02*
X98571427Y-74878328D01*
X98571427Y-75021185D02*
X98642856Y-74949757D01*
X98642856Y-74949757D02*
X98785713Y-74878328D01*
X98785713Y-74878328D02*
X98999999Y-74878328D01*
X98999999Y-74878328D02*
X99142856Y-74949757D01*
X99142856Y-74949757D02*
X99214285Y-75092614D01*
X99214285Y-75092614D02*
X99214285Y-75878328D01*
X99214285Y-75092614D02*
X99285713Y-74949757D01*
X99285713Y-74949757D02*
X99428570Y-74878328D01*
X99428570Y-74878328D02*
X99642856Y-74878328D01*
X99642856Y-74878328D02*
X99785713Y-74949757D01*
X99785713Y-74949757D02*
X99857142Y-75092614D01*
X99857142Y-75092614D02*
X99857142Y-75878328D01*
X100571427Y-75878328D02*
X100571427Y-74878328D01*
X100571427Y-75021185D02*
X100642856Y-74949757D01*
X100642856Y-74949757D02*
X100785713Y-74878328D01*
X100785713Y-74878328D02*
X100999999Y-74878328D01*
X100999999Y-74878328D02*
X101142856Y-74949757D01*
X101142856Y-74949757D02*
X101214285Y-75092614D01*
X101214285Y-75092614D02*
X101214285Y-75878328D01*
X101214285Y-75092614D02*
X101285713Y-74949757D01*
X101285713Y-74949757D02*
X101428570Y-74878328D01*
X101428570Y-74878328D02*
X101642856Y-74878328D01*
X101642856Y-74878328D02*
X101785713Y-74949757D01*
X101785713Y-74949757D02*
X101857142Y-75092614D01*
X101857142Y-75092614D02*
X101857142Y-75878328D01*
D11*
X80000000Y-81500000D02*
X80000000Y-76413580D01*
X110000000Y-81500000D02*
X110000000Y-76413580D01*
X80000000Y-77000000D02*
X110000000Y-77000000D01*
X80000000Y-77000000D02*
X110000000Y-77000000D01*
X80000000Y-77000000D02*
X81126504Y-76413579D01*
X80000000Y-77000000D02*
X81126504Y-77586421D01*
X110000000Y-77000000D02*
X108873496Y-77586421D01*
X110000000Y-77000000D02*
X108873496Y-76413579D01*
D12*
X219304819Y-96142856D02*
X219304819Y-96333332D01*
X219304819Y-96333332D02*
X219352438Y-96428570D01*
X219352438Y-96428570D02*
X219400057Y-96476189D01*
X219400057Y-96476189D02*
X219542914Y-96571427D01*
X219542914Y-96571427D02*
X219733390Y-96619046D01*
X219733390Y-96619046D02*
X220114342Y-96619046D01*
X220114342Y-96619046D02*
X220209580Y-96571427D01*
X220209580Y-96571427D02*
X220257200Y-96523808D01*
X220257200Y-96523808D02*
X220304819Y-96428570D01*
X220304819Y-96428570D02*
X220304819Y-96238094D01*
X220304819Y-96238094D02*
X220257200Y-96142856D01*
X220257200Y-96142856D02*
X220209580Y-96095237D01*
X220209580Y-96095237D02*
X220114342Y-96047618D01*
X220114342Y-96047618D02*
X219876247Y-96047618D01*
X219876247Y-96047618D02*
X219781009Y-96095237D01*
X219781009Y-96095237D02*
X219733390Y-96142856D01*
X219733390Y-96142856D02*
X219685771Y-96238094D01*
X219685771Y-96238094D02*
X219685771Y-96428570D01*
X219685771Y-96428570D02*
X219733390Y-96523808D01*
X219733390Y-96523808D02*
X219781009Y-96571427D01*
X219781009Y-96571427D02*
X219876247Y-96619046D01*
X219304819Y-95428570D02*
X219304819Y-95333332D01*
X219304819Y-95333332D02*
X219352438Y-95238094D01*
X219352438Y-95238094D02*
X219400057Y-95190475D01*
X219400057Y-95190475D02*
X219495295Y-95142856D01*
X219495295Y-95142856D02*
X219685771Y-95095237D01*
X219685771Y-95095237D02*
X219923866Y-95095237D01*
X219923866Y-95095237D02*
X220114342Y-95142856D01*
X220114342Y-95142856D02*
X220209580Y-95190475D01*
X220209580Y-95190475D02*
X220257200Y-95238094D01*
X220257200Y-95238094D02*
X220304819Y-95333332D01*
X220304819Y-95333332D02*
X220304819Y-95428570D01*
X220304819Y-95428570D02*
X220257200Y-95523808D01*
X220257200Y-95523808D02*
X220209580Y-95571427D01*
X220209580Y-95571427D02*
X220114342Y-95619046D01*
X220114342Y-95619046D02*
X219923866Y-95666665D01*
X219923866Y-95666665D02*
X219685771Y-95666665D01*
X219685771Y-95666665D02*
X219495295Y-95619046D01*
X219495295Y-95619046D02*
X219400057Y-95571427D01*
X219400057Y-95571427D02*
X219352438Y-95523808D01*
X219352438Y-95523808D02*
X219304819Y-95428570D01*
X220209580Y-94666665D02*
X220257200Y-94619046D01*
X220257200Y-94619046D02*
X220304819Y-94666665D01*
X220304819Y-94666665D02*
X220257200Y-94714284D01*
X220257200Y-94714284D02*
X220209580Y-94666665D01*
X220209580Y-94666665D02*
X220304819Y-94666665D01*
X219304819Y-93999999D02*
X219304819Y-93904761D01*
X219304819Y-93904761D02*
X219352438Y-93809523D01*
X219352438Y-93809523D02*
X219400057Y-93761904D01*
X219400057Y-93761904D02*
X219495295Y-93714285D01*
X219495295Y-93714285D02*
X219685771Y-93666666D01*
X219685771Y-93666666D02*
X219923866Y-93666666D01*
X219923866Y-93666666D02*
X220114342Y-93714285D01*
X220114342Y-93714285D02*
X220209580Y-93761904D01*
X220209580Y-93761904D02*
X220257200Y-93809523D01*
X220257200Y-93809523D02*
X220304819Y-93904761D01*
X220304819Y-93904761D02*
X220304819Y-93999999D01*
X220304819Y-93999999D02*
X220257200Y-94095237D01*
X220257200Y-94095237D02*
X220209580Y-94142856D01*
X220209580Y-94142856D02*
X220114342Y-94190475D01*
X220114342Y-94190475D02*
X219923866Y-94238094D01*
X219923866Y-94238094D02*
X219685771Y-94238094D01*
X219685771Y-94238094D02*
X219495295Y-94190475D01*
X219495295Y-94190475D02*
X219400057Y-94142856D01*
X219400057Y-94142856D02*
X219352438Y-94095237D01*
X219352438Y-94095237D02*
X219304819Y-93999999D01*
X219304819Y-93047618D02*
X219304819Y-92952380D01*
X219304819Y-92952380D02*
X219352438Y-92857142D01*
X219352438Y-92857142D02*
X219400057Y-92809523D01*
X219400057Y-92809523D02*
X219495295Y-92761904D01*
X219495295Y-92761904D02*
X219685771Y-92714285D01*
X219685771Y-92714285D02*
X219923866Y-92714285D01*
X219923866Y-92714285D02*
X220114342Y-92761904D01*
X220114342Y-92761904D02*
X220209580Y-92809523D01*
X220209580Y-92809523D02*
X220257200Y-92857142D01*
X220257200Y-92857142D02*
X220304819Y-92952380D01*
X220304819Y-92952380D02*
X220304819Y-93047618D01*
X220304819Y-93047618D02*
X220257200Y-93142856D01*
X220257200Y-93142856D02*
X220209580Y-93190475D01*
X220209580Y-93190475D02*
X220114342Y-93238094D01*
X220114342Y-93238094D02*
X219923866Y-93285713D01*
X219923866Y-93285713D02*
X219685771Y-93285713D01*
X219685771Y-93285713D02*
X219495295Y-93238094D01*
X219495295Y-93238094D02*
X219400057Y-93190475D01*
X219400057Y-93190475D02*
X219352438Y-93142856D01*
X219352438Y-93142856D02*
X219304819Y-93047618D01*
X219304819Y-92095237D02*
X219304819Y-91999999D01*
X219304819Y-91999999D02*
X219352438Y-91904761D01*
X219352438Y-91904761D02*
X219400057Y-91857142D01*
X219400057Y-91857142D02*
X219495295Y-91809523D01*
X219495295Y-91809523D02*
X219685771Y-91761904D01*
X219685771Y-91761904D02*
X219923866Y-91761904D01*
X219923866Y-91761904D02*
X220114342Y-91809523D01*
X220114342Y-91809523D02*
X220209580Y-91857142D01*
X220209580Y-91857142D02*
X220257200Y-91904761D01*
X220257200Y-91904761D02*
X220304819Y-91999999D01*
X220304819Y-91999999D02*
X220304819Y-92095237D01*
X220304819Y-92095237D02*
X220257200Y-92190475D01*
X220257200Y-92190475D02*
X220209580Y-92238094D01*
X220209580Y-92238094D02*
X220114342Y-92285713D01*
X220114342Y-92285713D02*
X219923866Y-92333332D01*
X219923866Y-92333332D02*
X219685771Y-92333332D01*
X219685771Y-92333332D02*
X219495295Y-92285713D01*
X219495295Y-92285713D02*
X219400057Y-92238094D01*
X219400057Y-92238094D02*
X219352438Y-92190475D01*
X219352438Y-92190475D02*
X219304819Y-92095237D01*
X219304819Y-91142856D02*
X219304819Y-91047618D01*
X219304819Y-91047618D02*
X219352438Y-90952380D01*
X219352438Y-90952380D02*
X219400057Y-90904761D01*
X219400057Y-90904761D02*
X219495295Y-90857142D01*
X219495295Y-90857142D02*
X219685771Y-90809523D01*
X219685771Y-90809523D02*
X219923866Y-90809523D01*
X219923866Y-90809523D02*
X220114342Y-90857142D01*
X220114342Y-90857142D02*
X220209580Y-90904761D01*
X220209580Y-90904761D02*
X220257200Y-90952380D01*
X220257200Y-90952380D02*
X220304819Y-91047618D01*
X220304819Y-91047618D02*
X220304819Y-91142856D01*
X220304819Y-91142856D02*
X220257200Y-91238094D01*
X220257200Y-91238094D02*
X220209580Y-91285713D01*
X220209580Y-91285713D02*
X220114342Y-91333332D01*
X220114342Y-91333332D02*
X219923866Y-91380951D01*
X219923866Y-91380951D02*
X219685771Y-91380951D01*
X219685771Y-91380951D02*
X219495295Y-91333332D01*
X219495295Y-91333332D02*
X219400057Y-91285713D01*
X219400057Y-91285713D02*
X219352438Y-91238094D01*
X219352438Y-91238094D02*
X219304819Y-91142856D01*
X220304819Y-89619046D02*
X219638152Y-89619046D01*
X219733390Y-89619046D02*
X219685771Y-89571427D01*
X219685771Y-89571427D02*
X219638152Y-89476189D01*
X219638152Y-89476189D02*
X219638152Y-89333332D01*
X219638152Y-89333332D02*
X219685771Y-89238094D01*
X219685771Y-89238094D02*
X219781009Y-89190475D01*
X219781009Y-89190475D02*
X220304819Y-89190475D01*
X219781009Y-89190475D02*
X219685771Y-89142856D01*
X219685771Y-89142856D02*
X219638152Y-89047618D01*
X219638152Y-89047618D02*
X219638152Y-88904761D01*
X219638152Y-88904761D02*
X219685771Y-88809522D01*
X219685771Y-88809522D02*
X219781009Y-88761903D01*
X219781009Y-88761903D02*
X220304819Y-88761903D01*
X220304819Y-88285713D02*
X219638152Y-88285713D01*
X219733390Y-88285713D02*
X219685771Y-88238094D01*
X219685771Y-88238094D02*
X219638152Y-88142856D01*
X219638152Y-88142856D02*
X219638152Y-87999999D01*
X219638152Y-87999999D02*
X219685771Y-87904761D01*
X219685771Y-87904761D02*
X219781009Y-87857142D01*
X219781009Y-87857142D02*
X220304819Y-87857142D01*
X219781009Y-87857142D02*
X219685771Y-87809523D01*
X219685771Y-87809523D02*
X219638152Y-87714285D01*
X219638152Y-87714285D02*
X219638152Y-87571428D01*
X219638152Y-87571428D02*
X219685771Y-87476189D01*
X219685771Y-87476189D02*
X219781009Y-87428570D01*
X219781009Y-87428570D02*
X220304819Y-87428570D01*
X185500000Y-62000000D02*
X221586420Y-62000000D01*
X185500000Y-122000000D02*
X221586420Y-122000000D01*
X221000000Y-62000000D02*
X221000000Y-122000000D01*
X221000000Y-62000000D02*
X221000000Y-122000000D01*
X221000000Y-62000000D02*
X221586421Y-63126504D01*
X221000000Y-62000000D02*
X220413579Y-63126504D01*
X221000000Y-122000000D02*
X220413579Y-120873496D01*
X221000000Y-122000000D02*
X221586421Y-120873496D01*
X187804819Y-118547618D02*
X187804819Y-119119046D01*
X187804819Y-118833332D02*
X186804819Y-118833332D01*
X186804819Y-118833332D02*
X186947676Y-118928570D01*
X186947676Y-118928570D02*
X187042914Y-119023808D01*
X187042914Y-119023808D02*
X187090533Y-119119046D01*
X186804819Y-117642856D02*
X186804819Y-118119046D01*
X186804819Y-118119046D02*
X187281009Y-118166665D01*
X187281009Y-118166665D02*
X187233390Y-118119046D01*
X187233390Y-118119046D02*
X187185771Y-118023808D01*
X187185771Y-118023808D02*
X187185771Y-117785713D01*
X187185771Y-117785713D02*
X187233390Y-117690475D01*
X187233390Y-117690475D02*
X187281009Y-117642856D01*
X187281009Y-117642856D02*
X187376247Y-117595237D01*
X187376247Y-117595237D02*
X187614342Y-117595237D01*
X187614342Y-117595237D02*
X187709580Y-117642856D01*
X187709580Y-117642856D02*
X187757200Y-117690475D01*
X187757200Y-117690475D02*
X187804819Y-117785713D01*
X187804819Y-117785713D02*
X187804819Y-118023808D01*
X187804819Y-118023808D02*
X187757200Y-118119046D01*
X187757200Y-118119046D02*
X187709580Y-118166665D01*
X187709580Y-117166665D02*
X187757200Y-117119046D01*
X187757200Y-117119046D02*
X187804819Y-117166665D01*
X187804819Y-117166665D02*
X187757200Y-117214284D01*
X187757200Y-117214284D02*
X187709580Y-117166665D01*
X187709580Y-117166665D02*
X187804819Y-117166665D01*
X186804819Y-116499999D02*
X186804819Y-116404761D01*
X186804819Y-116404761D02*
X186852438Y-116309523D01*
X186852438Y-116309523D02*
X186900057Y-116261904D01*
X186900057Y-116261904D02*
X186995295Y-116214285D01*
X186995295Y-116214285D02*
X187185771Y-116166666D01*
X187185771Y-116166666D02*
X187423866Y-116166666D01*
X187423866Y-116166666D02*
X187614342Y-116214285D01*
X187614342Y-116214285D02*
X187709580Y-116261904D01*
X187709580Y-116261904D02*
X187757200Y-116309523D01*
X187757200Y-116309523D02*
X187804819Y-116404761D01*
X187804819Y-116404761D02*
X187804819Y-116499999D01*
X187804819Y-116499999D02*
X187757200Y-116595237D01*
X187757200Y-116595237D02*
X187709580Y-116642856D01*
X187709580Y-116642856D02*
X187614342Y-116690475D01*
X187614342Y-116690475D02*
X187423866Y-116738094D01*
X187423866Y-116738094D02*
X187185771Y-116738094D01*
X187185771Y-116738094D02*
X186995295Y-116690475D01*
X186995295Y-116690475D02*
X186900057Y-116642856D01*
X186900057Y-116642856D02*
X186852438Y-116595237D01*
X186852438Y-116595237D02*
X186804819Y-116499999D01*
X186804819Y-115547618D02*
X186804819Y-115452380D01*
X186804819Y-115452380D02*
X186852438Y-115357142D01*
X186852438Y-115357142D02*
X186900057Y-115309523D01*
X186900057Y-115309523D02*
X186995295Y-115261904D01*
X186995295Y-115261904D02*
X187185771Y-115214285D01*
X187185771Y-115214285D02*
X187423866Y-115214285D01*
X187423866Y-115214285D02*
X187614342Y-115261904D01*
X187614342Y-115261904D02*
X187709580Y-115309523D01*
X187709580Y-115309523D02*
X187757200Y-115357142D01*
X187757200Y-115357142D02*
X187804819Y-115452380D01*
X187804819Y-115452380D02*
X187804819Y-115547618D01*
X187804819Y-115547618D02*
X187757200Y-115642856D01*
X187757200Y-115642856D02*
X187709580Y-115690475D01*
X187709580Y-115690475D02*
X187614342Y-115738094D01*
X187614342Y-115738094D02*
X187423866Y-115785713D01*
X187423866Y-115785713D02*
X187185771Y-115785713D01*
X187185771Y-115785713D02*
X186995295Y-115738094D01*
X186995295Y-115738094D02*
X186900057Y-115690475D01*
X186900057Y-115690475D02*
X186852438Y-115642856D01*
X186852438Y-115642856D02*
X186804819Y-115547618D01*
X186804819Y-114595237D02*
X186804819Y-114499999D01*
X186804819Y-114499999D02*
X186852438Y-114404761D01*
X186852438Y-114404761D02*
X186900057Y-114357142D01*
X186900057Y-114357142D02*
X186995295Y-114309523D01*
X186995295Y-114309523D02*
X187185771Y-114261904D01*
X187185771Y-114261904D02*
X187423866Y-114261904D01*
X187423866Y-114261904D02*
X187614342Y-114309523D01*
X187614342Y-114309523D02*
X187709580Y-114357142D01*
X187709580Y-114357142D02*
X187757200Y-114404761D01*
X187757200Y-114404761D02*
X187804819Y-114499999D01*
X187804819Y-114499999D02*
X187804819Y-114595237D01*
X187804819Y-114595237D02*
X187757200Y-114690475D01*
X187757200Y-114690475D02*
X187709580Y-114738094D01*
X187709580Y-114738094D02*
X187614342Y-114785713D01*
X187614342Y-114785713D02*
X187423866Y-114833332D01*
X187423866Y-114833332D02*
X187185771Y-114833332D01*
X187185771Y-114833332D02*
X186995295Y-114785713D01*
X186995295Y-114785713D02*
X186900057Y-114738094D01*
X186900057Y-114738094D02*
X186852438Y-114690475D01*
X186852438Y-114690475D02*
X186804819Y-114595237D01*
X186804819Y-113642856D02*
X186804819Y-113547618D01*
X186804819Y-113547618D02*
X186852438Y-113452380D01*
X186852438Y-113452380D02*
X186900057Y-113404761D01*
X186900057Y-113404761D02*
X186995295Y-113357142D01*
X186995295Y-113357142D02*
X187185771Y-113309523D01*
X187185771Y-113309523D02*
X187423866Y-113309523D01*
X187423866Y-113309523D02*
X187614342Y-113357142D01*
X187614342Y-113357142D02*
X187709580Y-113404761D01*
X187709580Y-113404761D02*
X187757200Y-113452380D01*
X187757200Y-113452380D02*
X187804819Y-113547618D01*
X187804819Y-113547618D02*
X187804819Y-113642856D01*
X187804819Y-113642856D02*
X187757200Y-113738094D01*
X187757200Y-113738094D02*
X187709580Y-113785713D01*
X187709580Y-113785713D02*
X187614342Y-113833332D01*
X187614342Y-113833332D02*
X187423866Y-113880951D01*
X187423866Y-113880951D02*
X187185771Y-113880951D01*
X187185771Y-113880951D02*
X186995295Y-113833332D01*
X186995295Y-113833332D02*
X186900057Y-113785713D01*
X186900057Y-113785713D02*
X186852438Y-113738094D01*
X186852438Y-113738094D02*
X186804819Y-113642856D01*
X187804819Y-112119046D02*
X187138152Y-112119046D01*
X187233390Y-112119046D02*
X187185771Y-112071427D01*
X187185771Y-112071427D02*
X187138152Y-111976189D01*
X187138152Y-111976189D02*
X187138152Y-111833332D01*
X187138152Y-111833332D02*
X187185771Y-111738094D01*
X187185771Y-111738094D02*
X187281009Y-111690475D01*
X187281009Y-111690475D02*
X187804819Y-111690475D01*
X187281009Y-111690475D02*
X187185771Y-111642856D01*
X187185771Y-111642856D02*
X187138152Y-111547618D01*
X187138152Y-111547618D02*
X187138152Y-111404761D01*
X187138152Y-111404761D02*
X187185771Y-111309522D01*
X187185771Y-111309522D02*
X187281009Y-111261903D01*
X187281009Y-111261903D02*
X187804819Y-111261903D01*
X187804819Y-110785713D02*
X187138152Y-110785713D01*
X187233390Y-110785713D02*
X187185771Y-110738094D01*
X187185771Y-110738094D02*
X187138152Y-110642856D01*
X187138152Y-110642856D02*
X187138152Y-110499999D01*
X187138152Y-110499999D02*
X187185771Y-110404761D01*
X187185771Y-110404761D02*
X187281009Y-110357142D01*
X187281009Y-110357142D02*
X187804819Y-110357142D01*
X187281009Y-110357142D02*
X187185771Y-110309523D01*
X187185771Y-110309523D02*
X187138152Y-110214285D01*
X187138152Y-110214285D02*
X187138152Y-110071428D01*
X187138152Y-110071428D02*
X187185771Y-109976189D01*
X187185771Y-109976189D02*
X187281009Y-109928570D01*
X187281009Y-109928570D02*
X187804819Y-109928570D01*
X185000000Y-107000000D02*
X189086420Y-107000000D01*
X185000000Y-122000000D02*
X189086420Y-122000000D01*
X188500000Y-107000000D02*
X188500000Y-122000000D01*
X188500000Y-107000000D02*
X188500000Y-122000000D01*
X188500000Y-107000000D02*
X189086421Y-108126504D01*
X188500000Y-107000000D02*
X187913579Y-108126504D01*
X188500000Y-122000000D02*
X187913579Y-120873496D01*
X188500000Y-122000000D02*
X189086421Y-120873496D01*
D10*
X118000001Y-104378328D02*
X118928573Y-104378328D01*
X118928573Y-104378328D02*
X118428573Y-104949757D01*
X118428573Y-104949757D02*
X118642858Y-104949757D01*
X118642858Y-104949757D02*
X118785716Y-105021185D01*
X118785716Y-105021185D02*
X118857144Y-105092614D01*
X118857144Y-105092614D02*
X118928573Y-105235471D01*
X118928573Y-105235471D02*
X118928573Y-105592614D01*
X118928573Y-105592614D02*
X118857144Y-105735471D01*
X118857144Y-105735471D02*
X118785716Y-105806900D01*
X118785716Y-105806900D02*
X118642858Y-105878328D01*
X118642858Y-105878328D02*
X118214287Y-105878328D01*
X118214287Y-105878328D02*
X118071430Y-105806900D01*
X118071430Y-105806900D02*
X118000001Y-105735471D01*
X119857144Y-104378328D02*
X120000001Y-104378328D01*
X120000001Y-104378328D02*
X120142858Y-104449757D01*
X120142858Y-104449757D02*
X120214287Y-104521185D01*
X120214287Y-104521185D02*
X120285715Y-104664042D01*
X120285715Y-104664042D02*
X120357144Y-104949757D01*
X120357144Y-104949757D02*
X120357144Y-105306900D01*
X120357144Y-105306900D02*
X120285715Y-105592614D01*
X120285715Y-105592614D02*
X120214287Y-105735471D01*
X120214287Y-105735471D02*
X120142858Y-105806900D01*
X120142858Y-105806900D02*
X120000001Y-105878328D01*
X120000001Y-105878328D02*
X119857144Y-105878328D01*
X119857144Y-105878328D02*
X119714287Y-105806900D01*
X119714287Y-105806900D02*
X119642858Y-105735471D01*
X119642858Y-105735471D02*
X119571429Y-105592614D01*
X119571429Y-105592614D02*
X119500001Y-105306900D01*
X119500001Y-105306900D02*
X119500001Y-104949757D01*
X119500001Y-104949757D02*
X119571429Y-104664042D01*
X119571429Y-104664042D02*
X119642858Y-104521185D01*
X119642858Y-104521185D02*
X119714287Y-104449757D01*
X119714287Y-104449757D02*
X119857144Y-104378328D01*
X121000000Y-105735471D02*
X121071429Y-105806900D01*
X121071429Y-105806900D02*
X121000000Y-105878328D01*
X121000000Y-105878328D02*
X120928572Y-105806900D01*
X120928572Y-105806900D02*
X121000000Y-105735471D01*
X121000000Y-105735471D02*
X121000000Y-105878328D01*
X122000001Y-104378328D02*
X122142858Y-104378328D01*
X122142858Y-104378328D02*
X122285715Y-104449757D01*
X122285715Y-104449757D02*
X122357144Y-104521185D01*
X122357144Y-104521185D02*
X122428572Y-104664042D01*
X122428572Y-104664042D02*
X122500001Y-104949757D01*
X122500001Y-104949757D02*
X122500001Y-105306900D01*
X122500001Y-105306900D02*
X122428572Y-105592614D01*
X122428572Y-105592614D02*
X122357144Y-105735471D01*
X122357144Y-105735471D02*
X122285715Y-105806900D01*
X122285715Y-105806900D02*
X122142858Y-105878328D01*
X122142858Y-105878328D02*
X122000001Y-105878328D01*
X122000001Y-105878328D02*
X121857144Y-105806900D01*
X121857144Y-105806900D02*
X121785715Y-105735471D01*
X121785715Y-105735471D02*
X121714286Y-105592614D01*
X121714286Y-105592614D02*
X121642858Y-105306900D01*
X121642858Y-105306900D02*
X121642858Y-104949757D01*
X121642858Y-104949757D02*
X121714286Y-104664042D01*
X121714286Y-104664042D02*
X121785715Y-104521185D01*
X121785715Y-104521185D02*
X121857144Y-104449757D01*
X121857144Y-104449757D02*
X122000001Y-104378328D01*
X123428572Y-104378328D02*
X123571429Y-104378328D01*
X123571429Y-104378328D02*
X123714286Y-104449757D01*
X123714286Y-104449757D02*
X123785715Y-104521185D01*
X123785715Y-104521185D02*
X123857143Y-104664042D01*
X123857143Y-104664042D02*
X123928572Y-104949757D01*
X123928572Y-104949757D02*
X123928572Y-105306900D01*
X123928572Y-105306900D02*
X123857143Y-105592614D01*
X123857143Y-105592614D02*
X123785715Y-105735471D01*
X123785715Y-105735471D02*
X123714286Y-105806900D01*
X123714286Y-105806900D02*
X123571429Y-105878328D01*
X123571429Y-105878328D02*
X123428572Y-105878328D01*
X123428572Y-105878328D02*
X123285715Y-105806900D01*
X123285715Y-105806900D02*
X123214286Y-105735471D01*
X123214286Y-105735471D02*
X123142857Y-105592614D01*
X123142857Y-105592614D02*
X123071429Y-105306900D01*
X123071429Y-105306900D02*
X123071429Y-104949757D01*
X123071429Y-104949757D02*
X123142857Y-104664042D01*
X123142857Y-104664042D02*
X123214286Y-104521185D01*
X123214286Y-104521185D02*
X123285715Y-104449757D01*
X123285715Y-104449757D02*
X123428572Y-104378328D01*
X124857143Y-104378328D02*
X125000000Y-104378328D01*
X125000000Y-104378328D02*
X125142857Y-104449757D01*
X125142857Y-104449757D02*
X125214286Y-104521185D01*
X125214286Y-104521185D02*
X125285714Y-104664042D01*
X125285714Y-104664042D02*
X125357143Y-104949757D01*
X125357143Y-104949757D02*
X125357143Y-105306900D01*
X125357143Y-105306900D02*
X125285714Y-105592614D01*
X125285714Y-105592614D02*
X125214286Y-105735471D01*
X125214286Y-105735471D02*
X125142857Y-105806900D01*
X125142857Y-105806900D02*
X125000000Y-105878328D01*
X125000000Y-105878328D02*
X124857143Y-105878328D01*
X124857143Y-105878328D02*
X124714286Y-105806900D01*
X124714286Y-105806900D02*
X124642857Y-105735471D01*
X124642857Y-105735471D02*
X124571428Y-105592614D01*
X124571428Y-105592614D02*
X124500000Y-105306900D01*
X124500000Y-105306900D02*
X124500000Y-104949757D01*
X124500000Y-104949757D02*
X124571428Y-104664042D01*
X124571428Y-104664042D02*
X124642857Y-104521185D01*
X124642857Y-104521185D02*
X124714286Y-104449757D01*
X124714286Y-104449757D02*
X124857143Y-104378328D01*
X126285714Y-104378328D02*
X126428571Y-104378328D01*
X126428571Y-104378328D02*
X126571428Y-104449757D01*
X126571428Y-104449757D02*
X126642857Y-104521185D01*
X126642857Y-104521185D02*
X126714285Y-104664042D01*
X126714285Y-104664042D02*
X126785714Y-104949757D01*
X126785714Y-104949757D02*
X126785714Y-105306900D01*
X126785714Y-105306900D02*
X126714285Y-105592614D01*
X126714285Y-105592614D02*
X126642857Y-105735471D01*
X126642857Y-105735471D02*
X126571428Y-105806900D01*
X126571428Y-105806900D02*
X126428571Y-105878328D01*
X126428571Y-105878328D02*
X126285714Y-105878328D01*
X126285714Y-105878328D02*
X126142857Y-105806900D01*
X126142857Y-105806900D02*
X126071428Y-105735471D01*
X126071428Y-105735471D02*
X125999999Y-105592614D01*
X125999999Y-105592614D02*
X125928571Y-105306900D01*
X125928571Y-105306900D02*
X125928571Y-104949757D01*
X125928571Y-104949757D02*
X125999999Y-104664042D01*
X125999999Y-104664042D02*
X126071428Y-104521185D01*
X126071428Y-104521185D02*
X126142857Y-104449757D01*
X126142857Y-104449757D02*
X126285714Y-104378328D01*
X128571427Y-105878328D02*
X128571427Y-104878328D01*
X128571427Y-105021185D02*
X128642856Y-104949757D01*
X128642856Y-104949757D02*
X128785713Y-104878328D01*
X128785713Y-104878328D02*
X128999999Y-104878328D01*
X128999999Y-104878328D02*
X129142856Y-104949757D01*
X129142856Y-104949757D02*
X129214285Y-105092614D01*
X129214285Y-105092614D02*
X129214285Y-105878328D01*
X129214285Y-105092614D02*
X129285713Y-104949757D01*
X129285713Y-104949757D02*
X129428570Y-104878328D01*
X129428570Y-104878328D02*
X129642856Y-104878328D01*
X129642856Y-104878328D02*
X129785713Y-104949757D01*
X129785713Y-104949757D02*
X129857142Y-105092614D01*
X129857142Y-105092614D02*
X129857142Y-105878328D01*
X130571427Y-105878328D02*
X130571427Y-104878328D01*
X130571427Y-105021185D02*
X130642856Y-104949757D01*
X130642856Y-104949757D02*
X130785713Y-104878328D01*
X130785713Y-104878328D02*
X130999999Y-104878328D01*
X130999999Y-104878328D02*
X131142856Y-104949757D01*
X131142856Y-104949757D02*
X131214285Y-105092614D01*
X131214285Y-105092614D02*
X131214285Y-105878328D01*
X131214285Y-105092614D02*
X131285713Y-104949757D01*
X131285713Y-104949757D02*
X131428570Y-104878328D01*
X131428570Y-104878328D02*
X131642856Y-104878328D01*
X131642856Y-104878328D02*
X131785713Y-104949757D01*
X131785713Y-104949757D02*
X131857142Y-105092614D01*
X131857142Y-105092614D02*
X131857142Y-105878328D01*
D11*
X110000000Y-111500000D02*
X110000000Y-106413580D01*
X140000000Y-111500000D02*
X140000000Y-106413580D01*
X110000000Y-107000000D02*
X140000000Y-107000000D01*
X110000000Y-107000000D02*
X140000000Y-107000000D01*
X110000000Y-107000000D02*
X111126504Y-106413579D01*
X110000000Y-107000000D02*
X111126504Y-107586421D01*
X140000000Y-107000000D02*
X138873496Y-107586421D01*
X140000000Y-107000000D02*
X138873496Y-106413579D01*
M02*
